<?xml version="1.0" encoding="UTF-8"?>
<svg width="230px" height="157px" viewBox="0 0 230 157" version="1.1" xmlns="http://www.w3.org/2000/svg" xmlns:xlink="http://www.w3.org/1999/xlink">
    <!-- Generator: Sketch 49.3 (51167) - http://www.bohemiancoding.com/sketch -->
    <title>Logo</title>
    <desc>Created with Sketch.</desc>
    <defs></defs>
    <g id="Page-1" stroke="none" stroke-width="1" fill="none" fill-rule="evenodd">
        <g id="Home" transform="translate(-360.000000, -5822.000000)">
            <g id="Logo" transform="translate(360.000000, 5822.000000)">
                <path d="M125.748,56.615 C125.922,61.719 124.938,62.728 119.616,62.279 C109.896,61.382 21.79,61.438 12.072,61.775 C7.849,61.886 6.691,60.934 6.345,56.95 C6.286,55.886 6.46,4.876 6.576,3.81 C6.865,1.735 8.022,0.837 10.105,0.837 C14.155,0.781 14.079,0.781 18.127,0.669 C24.375,0.557 113.136,0.277 119.385,0.052 C125.112,-0.172 125.46,0.108 125.69,5.492 C125.69,5.717 125.748,5.998 125.748,6.279 L125.748,56.615 Z" id="Fill-1" fill="#231F20"></path>
                <path d="M229.9766,151.2141 C230.1936,155.8701 228.9716,156.7921 222.3626,156.3811 C210.2896,155.5641 100.8636,155.6141 88.7936,155.9211 C83.5496,156.0241 82.1106,155.1541 81.6816,151.5201 C81.6076,150.5491 81.8246,104.0101 81.9676,103.0381 C82.3276,101.1451 83.7646,100.3251 86.3516,100.3251 C91.3806,100.2741 91.2866,100.2741 96.3136,100.1721 C104.0746,100.0701 214.3146,99.8141 222.0746,99.6091 C229.1876,99.4051 229.6196,99.6601 229.9056,104.5721 C229.9056,104.7771 229.9766,105.0331 229.9766,105.2901 L229.9766,151.2141 Z" id="Fill-3" fill="#231F20"></path>
                <path d="M224.9648,102.7063 C225.2938,107.2223 223.4398,108.1153 213.4138,107.7173 C195.1028,106.9243 29.1188,106.9743 10.8108,107.2713 C2.8558,107.3703 0.6738,106.5273 0.0228,103.0033 C-0.0892,102.0613 0.2398,56.9313 0.4568,55.9883 C1.0018,54.1523 3.1818,53.3573 7.1058,53.3573 C14.7348,53.3083 14.5918,53.3083 22.2178,53.2093 C33.9888,53.1103 201.2068,52.8623 212.9778,52.6633 C223.7688,52.4653 224.4218,52.7123 224.8568,57.4773 C224.8568,57.6753 224.9648,57.9243 224.9648,58.1723 L224.9648,102.7063 Z" id="Fill-5" fill="#231F20"></path>
                <path d="M80.9297,9.5383 C86.0337,9.3693 87.0427,10.3233 86.5937,15.4833 C85.6967,24.9073 85.7527,30.3293 86.0897,39.7513 C86.2007,43.8453 85.2487,44.9683 81.2647,45.3043 C80.2007,45.3613 79.1907,45.1923 78.1247,45.0803 C76.0497,44.7993 75.1517,43.6783 75.1517,41.6583 C75.0957,37.7323 75.0957,37.8063 74.9837,33.8813 C74.8717,27.8233 74.5917,21.7663 74.3667,15.7073 C74.1427,10.1543 74.4227,9.8183 79.8067,9.5943 C80.0317,9.5943 80.3127,9.5383 80.5937,9.5383 L80.9297,9.5383 Z" id="Fill-7" fill="#FFFFFF"></path>
                <path d="M80.0742,99.637 C74.9702,99.806 73.9612,98.852 74.4102,93.693 C75.3072,84.269 75.2512,78.846 74.9142,69.424 C74.8032,65.33 75.7552,64.207 79.7392,63.871 C80.8032,63.814 81.8132,63.983 82.8792,64.095 C84.9542,64.376 85.8522,65.497 85.8522,67.517 C85.9082,71.443 85.9082,71.369 86.0202,75.294 C86.1322,81.352 86.4122,87.409 86.6372,93.467 C86.8612,99.021 86.5812,99.358 81.1972,99.581 C80.9722,99.581 80.6922,99.637 80.4112,99.637 L80.0742,99.637 Z" id="Fill-9" fill="#FFFFFF"></path>
                <path d="M28.3311,99.0335 C17.1701,98.9775 8.9251,89.3865 9.6541,77.9445 C10.1601,67.5675 17.9551,60.1075 27.2661,59.3225 C33.9971,58.7055 39.2131,61.7905 43.8691,66.3905 C44.0361,66.5575 44.1481,66.8385 44.2051,67.0635 C44.7661,69.6435 43.1951,71.2695 41.5681,72.7275 C40.0541,73.9625 38.5401,75.9245 36.1281,74.3545 C35.3991,73.7935 34.7261,73.1215 33.9971,72.6155 C29.7891,69.5315 21.7691,71.8865 20.1991,76.8225 C19.1891,80.1315 20.4791,85.3475 23.1161,87.3105 C26.5371,89.7785 31.0801,89.8905 34.1081,86.9185 C37.3611,83.6655 39.6061,84.3945 42.7461,86.5255 C45.4381,88.3205 45.6641,90.2835 43.5881,92.7515 C40.1101,97.1255 35.3431,98.8085 29.9581,99.0335 C29.4531,99.1455 28.8371,99.0335 28.3311,99.0335" id="Fill-11" fill="#FFFFFF"></path>
                <path d="M59.3472,99.2571 L51.2152,99.2571 C48.6362,99.2011 48.0182,98.7531 47.4572,96.2291 C47.2332,95.2191 46.9522,94.1531 47.0092,93.0881 C47.8492,84.3951 47.7382,75.5881 46.8412,66.8941 C46.2232,60.4441 47.1782,59.4921 53.5702,59.5481 C57.8892,59.6031 58.3952,59.9401 58.2822,64.1471 C58.2822,71.1011 58.1702,78.0561 58.0022,84.9551 C57.9462,87.6481 58.4512,88.2091 61.0862,88.3201 C63.3312,88.3761 65.5742,88.2091 67.8172,88.2651 C70.3412,88.3761 70.9582,88.9931 71.4632,91.4621 C71.9112,93.3681 71.4632,95.1081 71.2952,96.9031 C71.1262,98.6961 69.6682,99.1461 68.0422,99.1461 C65.1262,99.0891 62.2652,99.0891 59.3472,99.0891 L59.3472,99.2571 Z" id="Fill-13" fill="#FFFFFF"></path>
                <path d="M101.3276,85.7405 C100.3176,88.3205 101.1026,90.6755 100.8226,92.9755 C100.6546,94.3225 100.8226,95.6115 100.7656,96.9585 C100.7106,98.1915 100.0366,98.8645 98.8036,98.9775 C98.6906,98.9775 98.5786,98.9775 98.4676,99.0335 C91.7366,99.9295 90.9516,99.2575 90.8956,92.5835 C90.8386,85.4605 90.7826,78.3365 90.6706,71.2695 C90.6706,68.4665 90.5016,65.7725 90.3896,63.0245 C90.2786,61.0615 91.2876,60.0525 93.1386,59.9405 C94.5966,59.8285 96.0556,59.8285 97.5136,59.7155 C100.0936,59.4915 101.6066,60.6135 102.6176,62.9685 C104.7486,67.9045 106.6546,72.8965 108.4496,78.0005 C108.9556,79.2905 109.1226,80.8605 110.5806,82.1515 C112.3756,77.9445 114.2276,73.7935 115.9656,69.6435 C116.6946,67.8485 117.4236,66.0535 118.2656,64.2595 C118.9396,62.5755 119.3316,60.5575 121.4076,60.0525 C124.1546,59.4915 126.9586,59.6035 129.5946,60.4445 C130.9966,60.8945 130.7746,62.3525 130.7746,63.5295 C130.6606,68.0155 130.6046,72.4485 130.4376,76.9345 C130.2126,82.7115 130.0446,88.4315 130.4376,94.2095 C130.4936,95.1075 130.4936,96.0595 130.3246,96.9585 C130.1566,97.5195 129.9316,98.2485 129.4276,98.6405 C128.5296,99.5375 122.0786,99.4265 121.0706,98.5855 C120.1176,97.7995 120.2286,96.6775 120.3416,95.6675 C120.5656,93.9855 120.3416,92.3025 120.6766,90.6195 C121.0136,88.9935 120.7896,87.3105 120.7896,85.6845 C119.3316,85.2915 119.3316,86.4145 119.1076,86.9735 C117.4236,90.2835 115.9656,93.6485 114.2846,96.9025 C112.4896,100.2115 108.5626,100.1555 106.8796,96.8455 C105.4216,93.9295 104.2446,90.8445 102.9536,87.8165 C102.6176,87.1425 102.4496,86.4145 101.3276,85.7405" id="Fill-15" fill="#FFFFFF"></path>
                <path d="M176.1748,59.9402 C179.3168,59.9402 182.5138,59.8842 185.6548,59.9402 C188.7948,59.9962 189.4118,60.6132 189.5238,63.9782 C189.5808,65.2692 189.5808,66.5582 189.4118,67.8482 C189.0748,71.0452 188.4578,71.4942 185.2048,71.7192 C182.4018,71.8862 181.7838,72.5032 181.8408,75.3082 C181.9518,81.6462 181.5038,87.9282 182.0658,94.2092 C182.5138,98.1912 181.2788,99.3702 177.3538,99.5372 L176.5118,99.5372 C171.4638,99.7072 170.7348,99.0892 170.6788,94.1532 C170.6228,87.9832 170.7348,81.8702 170.7348,75.7572 C170.6788,72.3352 170.5098,72.1672 167.3148,71.9422 C163.5558,71.7192 162.9948,71.2132 162.6588,67.5672 C162.6018,66.5582 162.6018,65.4922 162.5458,64.4262 C162.3218,61.0052 163.2188,59.9962 166.6968,59.9402 C169.8378,59.8842 173.0338,59.9402 176.1748,59.9402" id="Fill-17" fill="#FFFFFF"></path>
                <path d="M192.4863,84.5618 C193.1593,78.3928 192.5423,71.6628 192.2623,64.8188 C192.2623,64.0338 192.2053,63.1928 192.3183,62.4638 C192.5423,60.1078 193.2713,59.2108 195.5153,59.3788 C201.2933,59.7148 207.0133,59.6038 212.7913,59.4918 C215.8193,59.4348 216.9983,60.7248 217.0533,63.8108 C217.1093,64.7628 217.0533,65.6618 216.8843,66.5578 C216.2673,69.7548 215.1453,70.7088 212.0063,70.1478 C210.1533,69.8688 208.3583,69.9798 206.5073,69.9238 C205.7793,69.8688 204.9383,70.0358 204.2643,70.3168 C203.1433,70.7648 202.5823,71.6058 202.8623,72.8408 C203.1433,73.9058 203.8723,74.2988 204.8823,74.2988 C206.6213,74.2988 208.3023,74.1868 209.9863,74.0178 C211.7243,73.7928 213.9123,73.1218 214.9223,75.2528 C215.9883,77.5518 215.7073,80.1308 214.8083,82.4878 C214.3603,83.6098 213.0143,83.8898 211.7813,84.0018 C209.8183,84.1688 207.8543,83.6658 205.8923,83.6098 C203.3113,83.4968 202.5263,84.3948 202.7513,86.8068 C202.9193,88.2648 203.5363,88.9938 204.9943,88.8808 C207.6873,88.8248 210.2663,88.7688 212.9023,88.7688 C216.1553,88.7688 216.8293,89.4428 216.8843,92.6388 C217.0533,98.6408 216.7163,99.0338 210.6593,99.0338 C206.0593,99.0338 201.4603,99.0338 196.9183,98.9778 C193.1593,98.9778 192.4863,98.3608 192.4863,94.7148 L192.4863,84.5618 Z" id="Fill-19" fill="#FFFFFF"></path>
                <path d="M109.207,124.0618 C109.711,124.1178 110.273,124.0618 110.777,124.0618 C116.778,123.8368 117.845,125.0158 117.06,131.0728 C116.667,133.7648 115.881,134.5498 113.245,134.4378 C111.169,134.3268 109.094,133.9328 107.019,133.9328 C103.149,133.9328 102.701,134.4378 102.757,138.1958 C102.757,140.1598 102.645,142.1218 102.645,144.0848 C102.645,145.2078 102.364,146.1598 101.522,146.8898 C100.12,148.0678 93.838,148.1788 92.38,147.1138 C91.371,146.3288 91.651,145.2078 91.651,144.1978 C91.651,139.8778 91.819,135.5598 91.763,131.2418 C91.707,124.9578 91.54,118.6768 91.371,112.3948 C91.259,108.5258 91.932,107.6278 95.858,107.8528 C101.299,108.1328 106.739,108.3568 112.291,107.9638 C115.657,107.7968 116.778,109.4218 116.498,112.9008 C115.881,119.5748 116.667,119.8548 108.645,119.5748 C107.356,119.5748 106.066,119.5178 104.719,119.5748 C103.093,119.7438 102.757,120.9768 102.812,122.4918 C102.98,123.9508 103.823,124.4548 105.281,124.2868 C106.627,124.1178 107.86,124.1178 109.207,124.0618" id="Fill-21" fill="#FFFFFF"></path>
                <path d="M139.9336,121.594 C139.9336,118.284 139.8776,114.976 139.9336,111.723 C139.9896,108.357 140.8316,107.46 144.0846,107.291 C145.3736,107.236 146.7206,107.347 148.0106,107.405 C151.2076,107.516 152.2736,108.581 151.9376,111.834 C151.2076,118.677 151.1506,125.52 151.4316,132.363 C151.8796,143.524 144.8696,147.45 137.3536,148.012 C130.0626,148.516 121.3686,144.759 121.7616,134.382 C122.0406,127.539 121.9856,120.698 121.3126,113.91 C121.2006,112.619 121.3126,111.274 121.5376,109.984 C121.7616,108.357 122.6026,107.347 124.3976,107.405 C126.4156,107.405 128.3796,107.291 130.3416,107.347 C132.5316,107.405 133.8206,108.526 133.7636,110.713 C133.7076,115.144 133.9896,119.631 133.3156,124.062 C132.8106,127.203 133.2026,130.343 133.5946,133.485 C133.8206,135.223 134.5486,136.177 136.2326,136.233 C137.8586,136.289 139.7656,134.943 139.8776,133.372 C140.1586,130.456 140.1026,127.596 140.1586,124.679 C140.1586,123.669 139.9896,122.604 139.9336,121.594" id="Fill-23" fill="#FFFFFF"></path>
                <path d="M177.3574,125.8567 C178.1984,125.4087 178.4224,124.6787 178.2544,123.8927 C178.2544,120.3027 178.2544,116.9947 177.7504,112.9567 C177.7504,108.0767 177.9194,108.0767 181.4514,107.7967 C183.7514,107.7967 185.0974,107.6277 187.1714,107.8527 C189.1914,108.0767 189.6964,109.6477 189.5284,111.5537 C189.0804,121.6497 188.7434,131.1287 188.7434,143.5237 C188.7434,146.4407 188.4624,146.8897 185.6024,147.3377 C179.3774,147.3377 179.7694,148.1237 177.1894,143.7497 C174.7214,139.8227 171.8614,136.3447 169.7294,132.3067 C169.3364,131.5777 168.7194,130.9607 167.8234,131.2417 C166.9804,131.5217 166.7564,132.3067 166.8134,133.1477 C166.8694,136.4007 166.9804,139.6537 167.0924,143.0197 C167.2054,146.8897 166.5874,147.5617 162.6624,147.6197 C156.0994,147.7307 155.8194,147.7307 155.9304,141.1117 C156.0994,121.4257 155.9884,130.9607 155.6514,112.3387 C155.4824,108.9187 156.5484,107.9637 159.9704,107.7397 C165.6334,107.7397 165.6334,107.7397 169.0564,113.1247 C170.7954,117.1077 173.3194,120.6977 175.6184,124.2867 C176.1244,124.9587 176.4604,125.6877 177.3574,125.8567" id="Fill-25" fill="#FFFFFF"></path>
                <path d="M203.1152,130.0061 C203.0042,131.1851 203.0042,131.9701 202.8902,132.8111 C202.6672,134.2131 202.4422,135.7841 203.7882,136.7371 C205.1902,137.6351 206.8742,136.8511 208.2742,136.2891 C209.5652,135.7841 210.4062,134.5501 210.9122,133.0921 C211.9772,129.6711 212.0332,126.0811 210.9122,122.6591 C210.1822,120.4161 207.3222,118.9021 205.0212,119.2951 C203.7882,119.4621 202.9472,120.1921 203.2262,121.3681 C203.7882,124.3991 202.4422,127.3701 203.1152,130.0061 Z M192.2902,113.0681 C192.2902,108.6381 193.1312,107.7391 197.5062,107.8531 C200.8722,107.9641 204.2932,107.9641 207.5462,108.4121 C214.9502,109.1991 219.2132,113.1811 221.1192,120.0791 C223.2512,127.7071 222.9142,135.3911 217.3052,141.9541 C214.3322,145.4311 210.4642,146.9461 206.1442,147.3381 C203.0042,147.5061 199.9182,147.5621 196.8342,147.5621 C192.6822,147.7311 192.0102,147.0581 192.2342,142.9061 C192.5152,137.9161 192.7382,132.9241 192.2902,127.9881 L192.2902,113.0681 Z" id="Fill-27" fill="#FFFFFF"></path>
                <path d="M31.1211,25.6799 C37.1211,25.4549 38.1871,26.6339 37.4021,32.6899 C37.0101,35.3839 34.0751,35.5449 34.0751,35.5449 L31.3621,35.5509 C31.3621,35.5509 27.1001,34.3269 27.1001,39.8139 C27.1001,41.7779 26.9881,43.7399 26.9881,45.7039 C26.9881,46.8259 26.7071,47.7779 25.8661,48.5089 C24.4641,49.6859 18.1821,49.7979 16.7231,48.7319 C15.7151,47.9469 15.9941,46.8259 15.9941,45.8159 C15.9941,41.4969 16.1631,37.1779 16.1071,32.8599 C16.0511,26.5769 15.8821,20.2959 15.7151,14.0129 C15.6011,10.1439 16.2751,9.2459 20.2011,9.4709 C25.6421,9.7519 31.0811,9.9749 36.6351,9.5829 C40.0001,9.4149 41.1211,11.0409 40.8421,14.5189 C40.2251,21.1929 41.0101,21.4729 32.9901,21.1929 C31.6991,21.1929 30.4101,21.1369 29.0631,21.1929 C27.4361,21.3619 27.1001,22.5949 27.1551,24.1099 C27.3251,25.5689 28.1651,26.0729 29.6231,25.9049 C30.9701,25.7359 30.6161,25.6799 31.1211,25.6799" id="Fill-29" fill="#FFFFFF"></path>
                <path d="M71.1245,44.6502 C70.8435,43.7542 70.5625,42.8562 70.2265,41.9592 C67.1985,34.4992 64.3935,26.9272 62.0375,19.2432 C61.4215,17.0562 61.0845,15.0922 59.9635,12.7932 C59.1765,11.4472 58.5615,9.5962 56.8215,9.3712 C51.0445,8.9792 49.5295,9.8192 48.1845,14.9812 C46.8375,19.2432 45.6605,24.0672 43.9215,28.1602 C41.5095,34.0502 39.5465,39.9392 36.7985,45.6042 C36.5735,46.1662 36.1245,47.5682 36.1245,48.7452 C35.7325,49.6982 40.9495,49.3632 42.8555,49.3632 C45.6605,49.1942 46.4455,49.9232 46.4455,47.1742 C47.3995,44.4832 49.1375,43.8092 51.4375,43.7542 C52.5025,43.6972 53.6805,43.6972 55.5875,43.6972 C56.5415,43.6972 58.1115,43.8652 59.7935,43.9212 C61.1965,44.0342 62.2625,44.5942 62.4875,46.2212 C62.9355,49.8112 63.8885,49.7552 67.3105,49.5302 C71.6285,49.6982 72.3025,48.9692 71.1245,44.6502" id="Fill-31" fill="#FFFFFF"></path>
                <path d="M118.5537,45.3235 C117.2627,41.5105 114.4587,38.6505 112.4397,35.3395 C111.4297,33.5445 111.1497,32.3675 112.8887,30.9655 C117.2627,27.6565 117.5997,22.7765 116.6477,18.1215 C115.8047,14.1955 113.3927,10.9425 108.9627,9.9325 C103.2967,9.0345 98.0257,9.4275 92.5857,9.5965 C90.6217,9.6525 89.5557,10.8295 89.4447,12.7935 C89.3307,13.6905 89.4997,14.6445 89.5557,15.5405 C90.1737,24.7395 90.1167,33.9385 89.8927,43.1365 C89.7247,49.1375 89.4997,49.5865 96.1757,49.5865 C96.4547,49.5865 96.7357,49.5865 96.9597,49.5305 C101.1657,49.5305 101.1657,48.5205 101.3347,44.9875 C101.4467,42.8555 100.7177,40.6125 101.4467,38.3135 C103.4657,39.0425 103.6897,40.8375 104.3627,42.1265 C108.6817,50.2035 106.5507,49.5305 115.8607,49.5305 C119.5077,49.8115 119.8427,48.9135 118.5537,45.3235" id="Fill-33" fill="#FFFFFF"></path>
                <path d="M167.4551,94.6018 C167.1751,93.7058 166.8931,92.8068 166.5581,91.9108 C163.5291,84.4508 160.7251,76.8788 158.3681,69.1948 C157.7521,67.0078 157.4151,65.0438 156.2941,62.7448 C155.5081,61.3978 154.8921,59.5478 153.1521,59.3228 C147.3761,58.9308 145.8601,59.7708 144.5161,64.9328 C143.1691,69.1948 141.9911,74.0178 140.2521,78.1118 C137.8401,84.0018 135.8781,89.8908 133.1291,95.5558 C132.9041,96.1178 132.4561,97.5198 132.4561,98.6978 C132.0631,99.6498 137.2801,99.3148 139.1861,99.3148 C141.9911,99.1448 142.7761,99.8738 142.7761,97.1248 C143.7301,94.4338 145.4681,93.7608 147.7681,93.7058 C148.8341,93.6488 150.0121,93.6488 151.9181,93.6488 C152.8721,93.6488 154.4411,93.8168 156.1251,93.8728 C157.5271,93.9858 158.5931,94.5458 158.8171,96.1728 C159.2671,99.7628 160.2191,99.7068 163.6411,99.4818 C167.9601,99.6498 168.6331,98.9198 167.4551,94.6018" id="Fill-35" fill="#FFFFFF"></path>
                <path d="M81.7998,49.0193 C87.6918,48.8353 87.1388,59.8813 82.4448,60.1583 L78.8538,60.1583 C76.4608,60.1583 75.2638,57.1213 75.0798,56.0163 C74.8028,54.3583 74.1588,49.3863 80.4188,49.1113 C80.7868,49.1113 81.0628,49.1113 81.3398,49.0193 L81.7998,49.0193 Z" id="Fill-37" fill="#EF7B0F"></path>
            </g>
        </g>
    </g>
</svg>