<svg xmlns="http://www.w3.org/2000/svg" viewBox="0 0 210.93 210.93"><defs><style>.cls-1,.cls-2{fill:none;stroke:#47b066;stroke-miterlimit:10;}.cls-1{stroke-width:2px;}.cls-2{stroke-width:4px;}.cls-3{fill:#fff;}.cls-4{fill:#47b066;}.cls-5{fill:#1d1d1b;}</style></defs><title>Middel 40</title><g id="Laag_2" data-name="Laag 2"><g id="Laag_1-2" data-name="Laag 1"><circle class="cls-1" cx="105.46" cy="105.46" r="104.46"/><circle class="cls-2" cx="105.46" cy="104.89" r="86.1"/><path class="cls-3" d="M82.39,11.51c-39.56,28.14-71.75,54.62-67,64-1.79,15.36-2.43,28.27-2.65,37.88-.41,18.1.7,23.22,4.54,26.1,5.85,4.38,15.73,1.85,21.57-2.27,9.14-6.45,12.78-20,8.81-33.77q9.91-20.77,19.82-41.53L97,45.19Z"/><path class="cls-4" d="M82.34,78.56l-6.46,10,.08.08a3.38,3.38,0,0,1,1.12-.34,8.13,8.13,0,0,1,1.38-.12,7.66,7.66,0,0,1,3.27.69,8.07,8.07,0,0,1,2.57,1.86A8.41,8.41,0,0,1,86,93.42a9.32,9.32,0,0,1,.59,3.3,9.5,9.5,0,0,1-.73,3.8,8.42,8.42,0,0,1-2,2.91,8.72,8.72,0,0,1-3,1.84,11.06,11.06,0,0,1-3.82.65,11.3,11.3,0,0,1-3.87-.63,8.84,8.84,0,0,1-3-1.8,8.2,8.2,0,0,1-2-2.89,10,10,0,0,1-.7-3.84,10.17,10.17,0,0,1,.7-3.86,24.36,24.36,0,0,1,1.8-3.51l6.88-10.83ZM72.19,96.68a4.87,4.87,0,0,0,.38,1.92,4.9,4.9,0,0,0,2.61,2.61,5,5,0,0,0,3.83,0,4.9,4.9,0,0,0,2.61-2.61,5,5,0,0,0,0-3.83,4.88,4.88,0,0,0-4.52-3,4.87,4.87,0,0,0-1.92.38,4.88,4.88,0,0,0-3,4.52Z"/><path class="cls-4" d="M104.84,78.56l-6.46,10,.07.08a3.46,3.46,0,0,1,1.12-.34,8.24,8.24,0,0,1,1.39-.12,7.66,7.66,0,0,1,3.27.69,7.92,7.92,0,0,1,2.56,1.86,8.41,8.41,0,0,1,1.67,2.74,9.11,9.11,0,0,1,.59,3.3,9.68,9.68,0,0,1-.72,3.8,8.56,8.56,0,0,1-2,2.91,8.82,8.82,0,0,1-3,1.84,11.06,11.06,0,0,1-3.82.65,11.4,11.4,0,0,1-3.88-.63,8.89,8.89,0,0,1-3-1.8,8.09,8.09,0,0,1-2-2.89,10.18,10.18,0,0,1-.7-3.84,10.36,10.36,0,0,1,.7-3.86,23.48,23.48,0,0,1,1.81-3.51l6.88-10.83ZM94.69,96.68a4.87,4.87,0,0,0,.38,1.92,4.79,4.79,0,0,0,1,1.56,5,5,0,0,0,1.56,1,4.93,4.93,0,0,0,5.4-1,4.79,4.79,0,0,0,1-1.56,5,5,0,0,0,0-3.83,4.79,4.79,0,0,0-1-1.56,5,5,0,0,0-5.4-1,5,5,0,0,0-1.56,1,4.79,4.79,0,0,0-1,1.56A4.86,4.86,0,0,0,94.69,96.68Z"/><path class="cls-4" d="M111.86,85.17a6.76,6.76,0,0,1,.56-2.75,7,7,0,0,1,1.52-2.25,7.22,7.22,0,0,1,2.24-1.52,7.18,7.18,0,0,1,5.51,0,7.34,7.34,0,0,1,2.24,1.52,7.21,7.21,0,0,1,1.52,2.25,6.75,6.75,0,0,1,.55,2.75,6.84,6.84,0,0,1-.55,2.76,7.17,7.17,0,0,1-1.52,2.24,7.34,7.34,0,0,1-2.24,1.52,7.18,7.18,0,0,1-5.51,0,7.22,7.22,0,0,1-2.24-1.52,7,7,0,0,1-1.52-2.24A6.84,6.84,0,0,1,111.86,85.17Zm10.49,0a3.38,3.38,0,1,0-1,2.43A3.3,3.3,0,0,0,122.35,85.17Zm12-7.83,3.16,1.45-15.81,27.89-3.16-1.45Zm-4.41,21.51a6.76,6.76,0,0,1,.56-2.75A7,7,0,0,1,132,93.85a7.22,7.22,0,0,1,2.24-1.52,7.18,7.18,0,0,1,5.51,0A7.34,7.34,0,0,1,142,93.85a7.21,7.21,0,0,1,1.52,2.25,6.75,6.75,0,0,1,.55,2.75,6.84,6.84,0,0,1-.55,2.76,7.2,7.2,0,0,1-3.76,3.76,7.18,7.18,0,0,1-5.51,0,7.22,7.22,0,0,1-2.24-1.52,7.11,7.11,0,0,1-1.52-2.24A6.84,6.84,0,0,1,129.91,98.85Zm10.49,0a3.38,3.38,0,1,0-1,2.43A3.3,3.3,0,0,0,140.4,98.85Z"/><path class="cls-5" d="M58.41,120.5a2.79,2.79,0,0,0-1-.78,2.58,2.58,0,0,0-1.15-.25,2.91,2.91,0,0,0-1.25.25,2.38,2.38,0,0,0-.89.67,3.09,3.09,0,0,0-.53,1,4,4,0,0,0-.18,1.22,3.46,3.46,0,0,0,.21,1.21,3.38,3.38,0,0,0,.57,1,2.72,2.72,0,0,0,2.07.92,2.49,2.49,0,0,0,2.14-1l1,1a3.72,3.72,0,0,1-1.44,1,4.63,4.63,0,0,1-1.74.32,4.71,4.71,0,0,1-1.79-.32,3.76,3.76,0,0,1-1.37-.92,4.11,4.11,0,0,1-.88-1.4,4.9,4.9,0,0,1-.32-1.78,4.84,4.84,0,0,1,.32-1.77,4.09,4.09,0,0,1,2.26-2.33,4.66,4.66,0,0,1,1.78-.33,4.79,4.79,0,0,1,1.77.32,3.88,3.88,0,0,1,1.47,1Z"/><path class="cls-5" d="M60.61,122.61a4.51,4.51,0,0,1,.34-1.8,4.39,4.39,0,0,1,.93-1.4,4.22,4.22,0,0,1,1.43-.91,4.8,4.8,0,0,1,1.8-.32,4.87,4.87,0,0,1,1.8.32,4.09,4.09,0,0,1,2.35,2.31,4.78,4.78,0,0,1,0,3.59,4.09,4.09,0,0,1-2.35,2.31,4.87,4.87,0,0,1-1.8.32,4.8,4.8,0,0,1-1.8-.32,4.22,4.22,0,0,1-1.43-.91,4.39,4.39,0,0,1-.93-1.4A4.5,4.5,0,0,1,60.61,122.61Zm1.51,0a3.53,3.53,0,0,0,.21,1.23,2.64,2.64,0,0,0,.6,1,2.85,2.85,0,0,0,.94.66,3.18,3.18,0,0,0,2.47,0,2.75,2.75,0,0,0,.94-.66,2.79,2.79,0,0,0,.61-1,3.91,3.91,0,0,0,0-2.47,2.79,2.79,0,0,0-.61-1,2.75,2.75,0,0,0-.94-.66,3.18,3.18,0,0,0-2.47,0,2.85,2.85,0,0,0-.94.66,2.64,2.64,0,0,0-.6,1A3.55,3.55,0,0,0,62.12,122.61Z"/><path class="cls-5" d="M71.78,120.39q0-.57,0-1.08c0-.33,0-.64,0-.92H73c0,.23,0,.46,0,.69s0,.46,0,.7h0a2.2,2.2,0,0,1,.4-.59,2.85,2.85,0,0,1,.62-.52,3.32,3.32,0,0,1,.81-.36,3.39,3.39,0,0,1,1-.13,3.71,3.71,0,0,1,1.44.25,2.65,2.65,0,0,1,1,.7,2.8,2.8,0,0,1,.59,1.09,4.77,4.77,0,0,1,.19,1.39v5.21H77.72v-5.06a2.72,2.72,0,0,0-.46-1.68,1.75,1.75,0,0,0-1.46-.61,2.67,2.67,0,0,0-1.18.24,2,2,0,0,0-.81.66,3,3,0,0,0-.47,1,5.3,5.3,0,0,0-.15,1.31v4.11H71.78Z"/><path class="cls-5" d="M82,124.6a3.52,3.52,0,0,0,.91.83,2.3,2.3,0,0,0,1.25.31,3,3,0,0,0,.66-.08,1.74,1.74,0,0,0,.6-.23,1.28,1.28,0,0,0,.43-.4,1,1,0,0,0,.17-.59,1,1,0,0,0-.16-.56,1.43,1.43,0,0,0-.4-.37,2.35,2.35,0,0,0-.58-.24l-.66-.16c-.4-.08-.78-.18-1.14-.29a3.87,3.87,0,0,1-.94-.42,2,2,0,0,1-.65-.68,2.08,2.08,0,0,1-.24-1.06,2.11,2.11,0,0,1,.27-1.08,2.31,2.31,0,0,1,.72-.77,3.41,3.41,0,0,1,1-.47,4.11,4.11,0,0,1,1.16-.16,3.84,3.84,0,0,1,1.66.36,2.61,2.61,0,0,1,1.2,1.17l-1.17.77a2.25,2.25,0,0,0-.71-.73,2,2,0,0,0-1.07-.28,3,3,0,0,0-.59.07,1.79,1.79,0,0,0-.53.22,1.26,1.26,0,0,0-.39.37.9.9,0,0,0-.15.51.67.67,0,0,0,.17.46,1.58,1.58,0,0,0,.47.34,5.8,5.8,0,0,0,.68.25c.26.07.53.13.8.18a7,7,0,0,1,1.07.28,2.83,2.83,0,0,1,.88.46,2,2,0,0,1,.59.71,2.32,2.32,0,0,1,.22,1.07,2.42,2.42,0,0,1-.29,1.22,2.4,2.4,0,0,1-.76.82,3.49,3.49,0,0,1-1.08.46,5.75,5.75,0,0,1-1.24.14,4.76,4.76,0,0,1-1.86-.33,3.36,3.36,0,0,1-1.41-1.23Z"/><path class="cls-5" d="M96.8,124.82c0,.38,0,.74,0,1.08s0,.64,0,.92H95.54c0-.23,0-.46,0-.69s0-.46,0-.7h0a2.41,2.41,0,0,1-.4.6,3.12,3.12,0,0,1-.62.51,3.32,3.32,0,0,1-.81.36,3.42,3.42,0,0,1-1,.13,3.66,3.66,0,0,1-1.43-.25,2.78,2.78,0,0,1-1-.7,2.92,2.92,0,0,1-.58-1.09,4.77,4.77,0,0,1-.19-1.39v-5.21h1.4v5.06a2.67,2.67,0,0,0,.47,1.67,1.72,1.72,0,0,0,1.46.62A2.67,2.67,0,0,0,94,125.5a2.09,2.09,0,0,0,.81-.66,3.15,3.15,0,0,0,.47-1,5.36,5.36,0,0,0,.15-1.31v-4.11h1.4Z"/><path class="cls-5" d="M99.47,120.39c0-.38,0-.74,0-1.08s0-.64,0-.92h1.33c0,.23,0,.46,0,.69s0,.46,0,.7h0a2.24,2.24,0,0,1,.41-.59,2.64,2.64,0,0,1,.62-.52,3.28,3.28,0,0,1,1.78-.49,3.18,3.18,0,0,1,1.14.17,2.79,2.79,0,0,1,.77.41,2.05,2.05,0,0,1,.47.52,5.66,5.66,0,0,1,.28.5,3.87,3.87,0,0,1,1.08-1.18,2.76,2.76,0,0,1,1.59-.42,4.16,4.16,0,0,1,1.51.24,2.41,2.41,0,0,1,1,.7,2.85,2.85,0,0,1,.54,1.12,6,6,0,0,1,.16,1.46v5.12h-1.4v-5a4,4,0,0,0-.09-.85,1.91,1.91,0,0,0-.33-.74,1.63,1.63,0,0,0-.63-.52,2.27,2.27,0,0,0-1-.2,2,2,0,0,0-.84.18,2.07,2.07,0,0,0-.7.51,2.3,2.3,0,0,0-.46.78,2.8,2.8,0,0,0-.17,1v4.86H105.1v-4.77a3.76,3.76,0,0,0-.38-2,1.36,1.36,0,0,0-1.24-.59,2.7,2.7,0,0,0-1.18.24,2,2,0,0,0-.81.66,3.15,3.15,0,0,0-.47,1,5.3,5.3,0,0,0-.15,1.31v4.11h-1.4Z"/><path class="cls-5" d="M122.33,125.29a4.33,4.33,0,0,1-1.66,1.36,5.38,5.38,0,0,1-2.09.38,4.25,4.25,0,0,1-1.78-.35,4,4,0,0,1-1.34-.94,4.19,4.19,0,0,1-.85-1.41,5.13,5.13,0,0,1-.29-1.72,5,5,0,0,1,.32-1.8,4.32,4.32,0,0,1,.9-1.4,4.16,4.16,0,0,1,1.37-.91,4.75,4.75,0,0,1,3.35,0,3.6,3.6,0,0,1,1.27.87,4.11,4.11,0,0,1,.82,1.38,5.7,5.7,0,0,1,.28,1.87V123h-6.8a2.85,2.85,0,0,0,.26,1,3.11,3.11,0,0,0,.59.87,2.74,2.74,0,0,0,.84.58,2.68,2.68,0,0,0,1.06.22,3.29,3.29,0,0,0,1.55-.33,3.49,3.49,0,0,0,1.14-1Zm-1.21-3.44a2.42,2.42,0,0,0-.7-1.73,2.53,2.53,0,0,0-1.84-.65,2.59,2.59,0,0,0-2.75,2.38Z"/><path class="cls-5" d="M124.81,120.39q0-.57,0-1.08c0-.33,0-.64,0-.92h1.33c0,.23,0,.46,0,.69s0,.46,0,.7h0a2.24,2.24,0,0,1,.41-.59,2.64,2.64,0,0,1,.62-.52,3.28,3.28,0,0,1,1.78-.49,3.66,3.66,0,0,1,1.43.25,2.69,2.69,0,0,1,1,.7,2.8,2.8,0,0,1,.59,1.09,5.13,5.13,0,0,1,.19,1.39v5.21h-1.41v-5.06a2.66,2.66,0,0,0-.47-1.68,1.72,1.72,0,0,0-1.45-.61,2.67,2.67,0,0,0-1.18.24,2,2,0,0,0-.81.66,3,3,0,0,0-.47,1,5.3,5.3,0,0,0-.15,1.31v4.11h-1.41Z"/><path class="cls-5" d="M139.43,119.58h-2.49v4.21c0,.28,0,.53,0,.77a1.44,1.44,0,0,0,.15.61,1,1,0,0,0,.37.41,1.33,1.33,0,0,0,.72.16,2.72,2.72,0,0,0,.63-.08,2.27,2.27,0,0,0,.62-.21l.05,1.28a3.74,3.74,0,0,1-.8.23,5.09,5.09,0,0,1-.84.07,2.88,2.88,0,0,1-1.2-.2,1.64,1.64,0,0,1-.71-.55,2.15,2.15,0,0,1-.33-.89,8.53,8.53,0,0,1-.08-1.18v-4.63H133.7v-1.19h1.84V116h1.4v2.39h2.49Z"/><path class="cls-5" d="M148.68,125.29a4.33,4.33,0,0,1-1.66,1.36,5.36,5.36,0,0,1-2.08.38,4.3,4.3,0,0,1-1.79-.35,4,4,0,0,1-1.34-.94,4.16,4.16,0,0,1-.84-1.41,4.9,4.9,0,0,1-.3-1.72,5,5,0,0,1,.32-1.8,4.32,4.32,0,0,1,.9-1.4,4.16,4.16,0,0,1,1.37-.91,4.75,4.75,0,0,1,3.35,0,3.6,3.6,0,0,1,1.27.87,4.11,4.11,0,0,1,.82,1.38,5.69,5.69,0,0,1,.29,1.87V123h-6.81a3.06,3.06,0,0,0,.26,1,3.11,3.11,0,0,0,.59.87,2.74,2.74,0,0,0,.84.58,2.69,2.69,0,0,0,1.07.22,3.28,3.28,0,0,0,1.54-.33,3.49,3.49,0,0,0,1.14-1Zm-1.21-3.44a2.42,2.42,0,0,0-.7-1.73,2.53,2.53,0,0,0-1.83-.65,2.59,2.59,0,0,0-2.76,2.38Z"/><path class="cls-5" d="M151.16,120.39q0-.57,0-1.08c0-.33,0-.64,0-.92h1.33c0,.23,0,.46,0,.69s0,.46,0,.7h0a2.2,2.2,0,0,1,.4-.59,2.64,2.64,0,0,1,.62-.52,3.32,3.32,0,0,1,.81-.36,3.39,3.39,0,0,1,1-.13,3.66,3.66,0,0,1,1.43.25,2.61,2.61,0,0,1,1,.7,2.8,2.8,0,0,1,.59,1.09,5.13,5.13,0,0,1,.19,1.39v5.21H157.1v-5.06a2.66,2.66,0,0,0-.47-1.68,1.72,1.72,0,0,0-1.45-.61,2.67,2.67,0,0,0-1.18.24,2,2,0,0,0-.81.66,3,3,0,0,0-.47,1,5.3,5.3,0,0,0-.15,1.31v4.11h-1.41Z"/></g></g></svg>