<svg xmlns="http://www.w3.org/2000/svg" viewBox="0 0 210.93 210.93"><defs><style>.cls-1,.cls-2{fill:none;stroke:#47b066;stroke-miterlimit:10;}.cls-1{stroke-width:2px;}.cls-2{stroke-width:4px;}.cls-3{fill:#fff;}.cls-4{fill:#47b066;}.cls-5{fill:#1d1d1b;}</style></defs><title>Middel 38</title><g id="Laag_2" data-name="Laag 2"><g id="Laag_1-2" data-name="Laag 1"><circle class="cls-1" cx="105.46" cy="105.46" r="104.46"/><circle class="cls-2" cx="105.46" cy="104.89" r="86.1"/><path class="cls-3" d="M82.39,11.51c-39.56,28.14-71.75,54.62-67,64-5.7,14-6.61,26.45-1.13,30.57,2.56,1.93,6.27,1.69,13.59,1.14a90.2,90.2,0,0,0,19.81-3.77q9.91-20.77,19.82-41.53L97,45.19Z"/><path class="cls-4" d="M75.82,76H94.1v4.18L83.34,102.86H78L89,80.29H75.82Z"/><path class="cls-4" d="M115.91,80.06H105.08L105,85.42a5.84,5.84,0,0,1,1.34-.27c.55-.05,1.06-.07,1.54-.07a10.1,10.1,0,0,1,3.63.63,7.84,7.84,0,0,1,2.83,1.8,8.49,8.49,0,0,1,1.85,2.81,10.62,10.62,0,0,1-.08,7.58,8.33,8.33,0,0,1-2,2.93,9.18,9.18,0,0,1-3.1,1.84,11.22,11.22,0,0,1-3.84.65,9.65,9.65,0,0,1-5.49-1.52,8.19,8.19,0,0,1-3.21-4.64l4.79-1.29a4.43,4.43,0,0,0,1.56,2.28,4.55,4.55,0,0,0,2.85.84,5,5,0,0,0,1.88-.35,4.35,4.35,0,0,0,1.48-1,4.43,4.43,0,0,0,1-1.47,4.68,4.68,0,0,0,.34-1.82,5.19,5.19,0,0,0-.51-2.4,4.6,4.6,0,0,0-1.39-1.61,5.77,5.77,0,0,0-2-.91,9.86,9.86,0,0,0-2.4-.29,13.33,13.33,0,0,0-2.94.34,12.45,12.45,0,0,0-2.68,1L100.59,76h15.32Z"/><path class="cls-4" d="M120.35,82.57a6.76,6.76,0,0,1,.56-2.75,7.18,7.18,0,0,1,1.51-2.25,7.38,7.38,0,0,1,2.25-1.52,7.18,7.18,0,0,1,5.51,0,7.17,7.17,0,0,1,3.76,3.77,6.75,6.75,0,0,1,.55,2.75,6.84,6.84,0,0,1-.55,2.76,7.46,7.46,0,0,1-1.52,2.24,7.34,7.34,0,0,1-2.24,1.52,7.18,7.18,0,0,1-5.51,0,7.38,7.38,0,0,1-2.25-1.52,7.25,7.25,0,0,1-1.51-2.24A6.84,6.84,0,0,1,120.35,82.57Zm10.49,0a3.38,3.38,0,1,0-1,2.43A3.3,3.3,0,0,0,130.84,82.57Zm12-7.83L146,76.19l-15.81,27.89L127,102.63ZM138.4,96.25A6.76,6.76,0,0,1,139,93.5a7.18,7.18,0,0,1,1.51-2.25,7.38,7.38,0,0,1,2.25-1.52,7.18,7.18,0,0,1,5.51,0,7.34,7.34,0,0,1,2.24,1.52A7.21,7.21,0,0,1,152,93.5a7.15,7.15,0,0,1,0,5.5,7.21,7.21,0,0,1-1.52,2.25,7.34,7.34,0,0,1-2.24,1.52,7.18,7.18,0,0,1-5.51,0,7.38,7.38,0,0,1-2.25-1.52A7.18,7.18,0,0,1,139,99,6.76,6.76,0,0,1,138.4,96.25Zm10.49,0a3.38,3.38,0,1,0-1,2.43A3.3,3.3,0,0,0,148.89,96.25Z"/><path class="cls-5" d="M48.18,111.47h3.26a15.74,15.74,0,0,1,1.82.11,4.84,4.84,0,0,1,1.63.47,3,3,0,0,1,1.17,1,3.42,3.42,0,0,1,.45,1.88,3.12,3.12,0,0,1-.84,2.27,4.08,4.08,0,0,1-2.34,1.1l3.61,5.87H55.09l-3.46-5.73H49.69v5.73H48.18Zm1.51,5.62H51c.42,0,.86,0,1.31,0a4.4,4.4,0,0,0,1.24-.23,2.09,2.09,0,0,0,.93-.62,1.78,1.78,0,0,0,.37-1.22,2,2,0,0,0-.27-1.1,1.8,1.8,0,0,0-.71-.63,3,3,0,0,0-1-.3,8.07,8.07,0,0,0-1.11-.07H49.69Z"/><path class="cls-5" d="M66.45,122.69a4.33,4.33,0,0,1-1.66,1.36,5.36,5.36,0,0,1-2.08.38,4.3,4.3,0,0,1-1.79-.35,4,4,0,0,1-1.34-.94,4.16,4.16,0,0,1-.84-1.41,4.91,4.91,0,0,1-.3-1.73,5,5,0,0,1,.32-1.79,4.32,4.32,0,0,1,.9-1.4A4.16,4.16,0,0,1,61,115.9a4.75,4.75,0,0,1,3.35,0,3.6,3.6,0,0,1,1.27.87,4.11,4.11,0,0,1,.82,1.38,5.69,5.69,0,0,1,.29,1.87v.45H60a2.85,2.85,0,0,0,.26,1,3.11,3.11,0,0,0,.59.87,2.74,2.74,0,0,0,.84.58,2.69,2.69,0,0,0,1.07.22,3.28,3.28,0,0,0,1.54-.33,3.49,3.49,0,0,0,1.14-1Zm-1.21-3.44a2.42,2.42,0,0,0-.7-1.73,2.53,2.53,0,0,0-1.83-.65,2.75,2.75,0,0,0-1.9.65,2.79,2.79,0,0,0-.86,1.73Z"/><path class="cls-5" d="M69.11,122a3.52,3.52,0,0,0,.91.83,2.3,2.3,0,0,0,1.25.31,3,3,0,0,0,.66-.08,1.74,1.74,0,0,0,.6-.23,1.42,1.42,0,0,0,.44-.4,1.13,1.13,0,0,0,.16-.59.91.91,0,0,0-.16-.56,1.43,1.43,0,0,0-.4-.37,2.35,2.35,0,0,0-.58-.24l-.66-.16c-.4-.09-.78-.18-1.14-.29a3.87,3.87,0,0,1-.94-.42,2,2,0,0,1-.65-.68,2.08,2.08,0,0,1-.24-1.06,2.11,2.11,0,0,1,.27-1.08,2.31,2.31,0,0,1,.72-.77,3.41,3.41,0,0,1,1-.47,4.11,4.11,0,0,1,1.16-.16,3.84,3.84,0,0,1,1.66.36,2.61,2.61,0,0,1,1.2,1.17l-1.17.77a2.25,2.25,0,0,0-.71-.73,2,2,0,0,0-1.07-.28,3,3,0,0,0-.59.07,1.79,1.79,0,0,0-.53.22,1.38,1.38,0,0,0-.39.37.9.9,0,0,0-.15.51.67.67,0,0,0,.17.46,1.58,1.58,0,0,0,.47.34,6.56,6.56,0,0,0,.68.25c.26.07.53.13.8.18a7,7,0,0,1,1.07.28,3,3,0,0,1,.88.45,2.15,2.15,0,0,1,.59.72,2.32,2.32,0,0,1,.22,1.07,2.45,2.45,0,0,1-.29,1.22,2.4,2.4,0,0,1-.76.82,3.49,3.49,0,0,1-1.08.46,5.75,5.75,0,0,1-1.24.14,4.76,4.76,0,0,1-1.86-.33A3.36,3.36,0,0,1,68,122.87Z"/><path class="cls-5" d="M76.53,115.79h1.4V117h0A4,4,0,0,1,79.31,116a3.64,3.64,0,0,1,1.68-.38,4.78,4.78,0,0,1,1.81.33,4,4,0,0,1,1.4.93,4.32,4.32,0,0,1,.9,1.4,5,5,0,0,1,0,3.53,4.47,4.47,0,0,1-.89,1.4,4,4,0,0,1-1.35.93,4.12,4.12,0,0,1-1.65.33,3.89,3.89,0,0,1-2-.49A3.19,3.19,0,0,1,78,122.72h0v5.6h-1.4Zm1.4,4.21a3.55,3.55,0,0,0,.21,1.24,2.78,2.78,0,0,0,1.55,1.65,2.88,2.88,0,0,0,1.23.25,2.85,2.85,0,0,0,1.23-.25,2.78,2.78,0,0,0,1.55-1.65,3.74,3.74,0,0,0,0-2.47,2.78,2.78,0,0,0-1.55-1.65,2.85,2.85,0,0,0-1.23-.25,3,3,0,0,0-2.18.91,2.92,2.92,0,0,0-.6,1A3.53,3.53,0,0,0,77.93,120Z"/><path class="cls-5" d="M87.11,120a4.5,4.5,0,0,1,.35-1.79,4.09,4.09,0,0,1,.93-1.4,4.27,4.27,0,0,1,1.42-.91,5.22,5.22,0,0,1,3.6,0,4.22,4.22,0,0,1,1.43.91,4.39,4.39,0,0,1,.93,1.4,4.91,4.91,0,0,1,0,3.59,4.39,4.39,0,0,1-.93,1.4,4.22,4.22,0,0,1-1.43.91,5.22,5.22,0,0,1-3.6,0,4.27,4.27,0,0,1-1.42-.91,4.09,4.09,0,0,1-.93-1.4A4.51,4.51,0,0,1,87.11,120Zm1.52,0a3.55,3.55,0,0,0,.2,1.24,3,3,0,0,0,4,1.65,2.85,2.85,0,0,0,.94-.66,2.77,2.77,0,0,0,.6-1,3.74,3.74,0,0,0,0-2.47,2.77,2.77,0,0,0-.6-1,2.85,2.85,0,0,0-.94-.66,2.93,2.93,0,0,0-4,1.65A3.53,3.53,0,0,0,88.63,120Z"/><path class="cls-5" d="M98.29,117.79c0-.38,0-.74,0-1.08s0-.64,0-.92h1.33c0,.23,0,.46,0,.69s0,.46,0,.7h0a2.24,2.24,0,0,1,.41-.59,2.64,2.64,0,0,1,.62-.52,3.28,3.28,0,0,1,1.78-.49,3.66,3.66,0,0,1,1.43.25,2.69,2.69,0,0,1,1,.7,2.94,2.94,0,0,1,.59,1.09,5.14,5.14,0,0,1,.18,1.39v5.21h-1.4v-5.06a2.73,2.73,0,0,0-.47-1.68,1.74,1.74,0,0,0-1.46-.61,2.66,2.66,0,0,0-1.17.24,1.94,1.94,0,0,0-.81.66,2.79,2.79,0,0,0-.47,1,5.28,5.28,0,0,0-.16,1.31v4.11h-1.4Z"/><path class="cls-5" d="M115.3,122.72h0a3.19,3.19,0,0,1-1.25,1.22,3.89,3.89,0,0,1-2,.49,4.16,4.16,0,0,1-1.65-.33,3.94,3.94,0,0,1-1.34-.93,4.14,4.14,0,0,1-.89-1.4,4.89,4.89,0,0,1,0-3.53,4,4,0,0,1,.9-1.4,3.86,3.86,0,0,1,1.39-.93,4.82,4.82,0,0,1,1.81-.33,3.64,3.64,0,0,1,1.68.38,4,4,0,0,1,1.34,1.06h0v-6.41h1.4v13.61h-1.4Zm0-2.72a3.53,3.53,0,0,0-.21-1.23,2.77,2.77,0,0,0-.6-1,2.85,2.85,0,0,0-.94-.66,2.92,2.92,0,0,0-1.24-.25,3,3,0,0,0-2.18.91,2.92,2.92,0,0,0-.6,1,3.74,3.74,0,0,0,0,2.47,2.78,2.78,0,0,0,1.55,1.65,2.88,2.88,0,0,0,1.23.25,2.92,2.92,0,0,0,1.24-.25,2.85,2.85,0,0,0,.94-.66,2.77,2.77,0,0,0,.6-1A3.55,3.55,0,0,0,115.3,120Z"/><path class="cls-5" d="M126.82,122.69a4.26,4.26,0,0,1-1.66,1.36,5.36,5.36,0,0,1-2.08.38,4.3,4.3,0,0,1-1.79-.35,3.91,3.91,0,0,1-2.18-2.35,4.91,4.91,0,0,1-.3-1.73,5,5,0,0,1,.32-1.79,4.32,4.32,0,0,1,.9-1.4,4.16,4.16,0,0,1,1.37-.91,4.75,4.75,0,0,1,3.35,0,3.51,3.51,0,0,1,1.27.87,4,4,0,0,1,.82,1.38,5.69,5.69,0,0,1,.29,1.87v.45h-6.81a3.06,3.06,0,0,0,.26,1,3.11,3.11,0,0,0,.59.87,2.74,2.74,0,0,0,.84.58,2.69,2.69,0,0,0,1.07.22,3.28,3.28,0,0,0,1.54-.33,3.49,3.49,0,0,0,1.14-1Zm-1.21-3.44a2.38,2.38,0,0,0-.7-1.73,2.51,2.51,0,0,0-1.83-.65,2.61,2.61,0,0,0-2.76,2.38Z"/><path class="cls-5" d="M129.3,117.79q0-.57,0-1.08c0-.33,0-.64,0-.92h1.33c0,.23,0,.46,0,.69s0,.46,0,.7h0a2.2,2.2,0,0,1,.4-.59,2.85,2.85,0,0,1,.62-.52,3.32,3.32,0,0,1,.81-.36,3.39,3.39,0,0,1,1-.13,3.71,3.71,0,0,1,1.44.25,2.65,2.65,0,0,1,1,.7,2.8,2.8,0,0,1,.59,1.09,4.77,4.77,0,0,1,.19,1.39v5.21h-1.41v-5.06a2.72,2.72,0,0,0-.46-1.68,1.75,1.75,0,0,0-1.46-.61,2.67,2.67,0,0,0-1.18.24,2,2,0,0,0-.81.66,3,3,0,0,0-.47,1,5.3,5.3,0,0,0-.15,1.31v4.11H129.3Z"/><path class="cls-5" d="M143.92,117h-2.48v4.21c0,.28,0,.53,0,.77a1.61,1.61,0,0,0,.15.61.94.94,0,0,0,.38.41,1.28,1.28,0,0,0,.72.16,2.86,2.86,0,0,0,.63-.08,2.21,2.21,0,0,0,.61-.21l.05,1.28a3.58,3.58,0,0,1-.8.23,4.92,4.92,0,0,1-.84.07,2.88,2.88,0,0,1-1.2-.2,1.56,1.56,0,0,1-.7-.55,2.15,2.15,0,0,1-.34-.89,8.53,8.53,0,0,1-.08-1.18V117H138.2v-1.19H140V113.4h1.41v2.39h2.48Z"/><path class="cls-5" d="M153.17,122.69a4.23,4.23,0,0,1-1.65,1.36,5.41,5.41,0,0,1-2.09.38,4.22,4.22,0,0,1-1.78-.35,4.09,4.09,0,0,1-1.35-.94,4.33,4.33,0,0,1-.84-1.41,4.91,4.91,0,0,1-.3-1.73,4.79,4.79,0,0,1,.33-1.79,4,4,0,0,1,.9-1.4,4.11,4.11,0,0,1,1.36-.91,4.75,4.75,0,0,1,3.35,0,3.51,3.51,0,0,1,1.27.87,4,4,0,0,1,.82,1.38,5.69,5.69,0,0,1,.29,1.87v.45h-6.81a3.06,3.06,0,0,0,.26,1,3.11,3.11,0,0,0,.59.87,2.67,2.67,0,0,0,.85.58,2.61,2.61,0,0,0,1.06.22,3.32,3.32,0,0,0,1.55-.33,3.46,3.46,0,0,0,1.13-1Zm-1.2-3.44a2.43,2.43,0,0,0-.71-1.73,2.51,2.51,0,0,0-1.83-.65,2.61,2.61,0,0,0-2.76,2.38Z"/><path class="cls-5" d="M155.66,117.79c0-.38,0-.74,0-1.08s0-.64,0-.92h1.34c0,.23,0,.46,0,.69s0,.46,0,.7h0a2.2,2.2,0,0,1,.4-.59,2.85,2.85,0,0,1,.62-.52,3.32,3.32,0,0,1,.81-.36,3.42,3.42,0,0,1,1-.13,3.66,3.66,0,0,1,1.43.25,2.63,2.63,0,0,1,1.58,1.79A4.77,4.77,0,0,1,163,119v5.21h-1.4v-5.06a2.73,2.73,0,0,0-.47-1.68,1.74,1.74,0,0,0-1.46-.61,2.67,2.67,0,0,0-1.18.24,2,2,0,0,0-.81.66,3.15,3.15,0,0,0-.47,1,5.3,5.3,0,0,0-.15,1.31v4.11h-1.4Z"/></g></g></svg>