<svg xmlns="http://www.w3.org/2000/svg" viewBox="0 0 210.93 210.93"><defs><style>.cls-1,.cls-2{fill:none;stroke:#47b066;stroke-miterlimit:10;}.cls-1{stroke-width:2px;}.cls-2{stroke-width:4px;}.cls-3{fill:#fff;}.cls-4{fill:#47b066;}.cls-5{fill:#1d1d1b;}</style></defs><title>Middel 37</title><g id="Laag_2" data-name="Laag 2"><g id="Laag_1-2" data-name="Laag 1"><circle class="cls-1" cx="105.46" cy="105.46" r="104.46"/><circle class="cls-2" cx="105.46" cy="104.89" r="86.1"/><path class="cls-3" d="M85.93,11.51S60.41,17.72,51.44,26,72.83,56.35,72.83,56.35L90.76,39.1,97,33.93Z"/><path class="cls-4" d="M71.62,104.89l6.46-10L78,94.86a3.46,3.46,0,0,1-1.12.34,8.24,8.24,0,0,1-1.39.12,7.66,7.66,0,0,1-3.27-.69,7.78,7.78,0,0,1-2.56-1.86A8.45,8.45,0,0,1,68,90a9.33,9.33,0,0,1-.58-3.31,9.71,9.71,0,0,1,.72-3.8,8.42,8.42,0,0,1,2-2.91,9,9,0,0,1,3-1.84A11.06,11.06,0,0,1,77,77.53a11.45,11.45,0,0,1,3.86.63,8.66,8.66,0,0,1,3,1.81,8,8,0,0,1,2,2.88,10.18,10.18,0,0,1,.7,3.84,10.32,10.32,0,0,1-.7,3.86,24.45,24.45,0,0,1-1.81,3.51l-6.88,10.83ZM81.77,86.77a4.91,4.91,0,0,0-1.42-3.48,5,5,0,0,0-1.56-1,4.77,4.77,0,0,0-1.92-.38,4.7,4.7,0,0,0-1.92.38,4.79,4.79,0,0,0-1.56,1,4.9,4.9,0,0,0-1,1.56,5,5,0,0,0,0,3.84,5,5,0,0,0,1,1.56,4.79,4.79,0,0,0,1.56,1,4.87,4.87,0,0,0,1.92.38,4.94,4.94,0,0,0,1.92-.38,4.78,4.78,0,0,0,2.6-2.6A4.94,4.94,0,0,0,81.77,86.77Z"/><path class="cls-4" d="M89.75,91.44A25.12,25.12,0,0,1,90.26,86a15.11,15.11,0,0,1,1.35-3.8,9.16,9.16,0,0,1,1.88-2.47,8.36,8.36,0,0,1,2.13-1.41,8.49,8.49,0,0,1,2.09-.62,12.31,12.31,0,0,1,1.77-.16,12.19,12.19,0,0,1,1.76.16,8.56,8.56,0,0,1,2.1.62,8.15,8.15,0,0,1,2.12,1.41,8.78,8.78,0,0,1,1.88,2.47,14.73,14.73,0,0,1,1.35,3.8,28.87,28.87,0,0,1,0,10.91,14.86,14.86,0,0,1-1.35,3.8,9.07,9.07,0,0,1-1.88,2.47,8.1,8.1,0,0,1-2.12,1.4,8.19,8.19,0,0,1-2.1.63,12,12,0,0,1-1.76.15,12.17,12.17,0,0,1-1.77-.15,8.12,8.12,0,0,1-2.09-.63,8.31,8.31,0,0,1-2.13-1.4,9.49,9.49,0,0,1-1.88-2.47,15.25,15.25,0,0,1-1.35-3.8A25.21,25.21,0,0,1,89.75,91.44Zm4.56,0c0,.84.06,1.81.17,2.91a13.72,13.72,0,0,0,.7,3.13A6.76,6.76,0,0,0,96.74,100a3.7,3.7,0,0,0,2.74,1,3.66,3.66,0,0,0,2.73-1,6.52,6.52,0,0,0,1.56-2.51,13.22,13.22,0,0,0,.71-3.13c.11-1.1.17-2.07.17-2.91s-.06-1.8-.17-2.9a13.3,13.3,0,0,0-.71-3.14,6.59,6.59,0,0,0-1.56-2.51,3.69,3.69,0,0,0-2.73-1,3.73,3.73,0,0,0-2.74,1,6.85,6.85,0,0,0-1.56,2.51,13.81,13.81,0,0,0-.7,3.14C94.37,89.64,94.31,90.61,94.31,91.44Z"/><path class="cls-4" d="M111.87,84.6a6.79,6.79,0,0,1,.55-2.75,7.07,7.07,0,0,1,9.27-3.76,7.2,7.2,0,0,1,3.76,3.76,7.18,7.18,0,0,1,0,5.51,7.2,7.2,0,0,1-3.76,3.76,7.18,7.18,0,0,1-5.51,0,7.2,7.2,0,0,1-3.76-3.76A6.84,6.84,0,0,1,111.87,84.6Zm10.48,0a3.42,3.42,0,1,0-6.84,0A3.38,3.38,0,0,0,118.93,88a3.36,3.36,0,0,0,3.42-3.42Zm12-7.83,3.16,1.45-15.81,27.89-3.15-1.44Zm-4.4,21.51a6.79,6.79,0,0,1,.55-2.75,7.2,7.2,0,0,1,3.76-3.76,7.06,7.06,0,0,1,5.51,0,7.2,7.2,0,0,1,3.76,3.76,7.18,7.18,0,0,1,0,5.51,7.2,7.2,0,0,1-3.76,3.76,7.18,7.18,0,0,1-5.51,0,7.2,7.2,0,0,1-3.76-3.76A6.84,6.84,0,0,1,129.92,98.28Zm10.48,0a3.42,3.42,0,1,0-6.84,0A3.38,3.38,0,0,0,137,101.7a3.36,3.36,0,0,0,3.42-3.42Z"/><path class="cls-5" d="M58.41,119.93a2.79,2.79,0,0,0-1-.78,2.72,2.72,0,0,0-1.15-.24,3.1,3.1,0,0,0-1.25.24,2.49,2.49,0,0,0-.89.67,3.09,3.09,0,0,0-.53,1,4,4,0,0,0-.18,1.22,3.46,3.46,0,0,0,.21,1.21,3.2,3.2,0,0,0,.58,1,2.61,2.61,0,0,0,.89.68,2.72,2.72,0,0,0,1.17.24,2.51,2.51,0,0,0,2.14-1l1,1a3.8,3.8,0,0,1-1.44,1,4.63,4.63,0,0,1-1.74.32,4.71,4.71,0,0,1-1.79-.32,3.85,3.85,0,0,1-1.37-.92,4.11,4.11,0,0,1-.88-1.4,4.9,4.9,0,0,1-.32-1.78,4.84,4.84,0,0,1,.32-1.77,4.09,4.09,0,0,1,2.26-2.33,4.66,4.66,0,0,1,1.78-.33,5,5,0,0,1,1.77.32,4,4,0,0,1,1.47,1Z"/><path class="cls-5" d="M60.61,122a4.55,4.55,0,0,1,.34-1.8,4.39,4.39,0,0,1,.93-1.4,4.22,4.22,0,0,1,1.43-.91,5,5,0,0,1,1.8-.32,5.09,5.09,0,0,1,1.8.32,4.09,4.09,0,0,1,2.35,2.31,4.8,4.8,0,0,1,0,3.6,4.19,4.19,0,0,1-.93,1.39,4.27,4.27,0,0,1-1.42.91,4.87,4.87,0,0,1-1.8.32,4.8,4.8,0,0,1-1.8-.32,4.22,4.22,0,0,1-1.43-.91,4.35,4.35,0,0,1-.93-1.39A4.55,4.55,0,0,1,60.61,122Zm1.51,0a3.53,3.53,0,0,0,.21,1.23,2.64,2.64,0,0,0,.6,1,3,3,0,0,0,.94.67,3.3,3.3,0,0,0,2.47,0,2.92,2.92,0,0,0,.94-.67,2.79,2.79,0,0,0,.61-1,3.91,3.91,0,0,0,0-2.47,3,3,0,0,0-.61-1,2.75,2.75,0,0,0-.94-.66,3.3,3.3,0,0,0-2.47,0,2.85,2.85,0,0,0-.94.66,2.8,2.8,0,0,0-.6,1A3.55,3.55,0,0,0,62.12,122Z"/><path class="cls-5" d="M71.78,119.82q0-.57,0-1.08c0-.33,0-.64,0-.91H73c0,.22,0,.45,0,.68s0,.46,0,.7h0a2.37,2.37,0,0,1,.4-.59,2.85,2.85,0,0,1,.62-.52,3.32,3.32,0,0,1,.81-.36,3.39,3.39,0,0,1,1-.13,3.71,3.71,0,0,1,1.44.25,2.78,2.78,0,0,1,1,.7,3,3,0,0,1,.58,1.09,4.79,4.79,0,0,1,.19,1.4v5.2h-1.4v-5.06a2.67,2.67,0,0,0-.47-1.67,1.71,1.71,0,0,0-1.46-.61,2.67,2.67,0,0,0-1.18.23,2.09,2.09,0,0,0-.81.66,3,3,0,0,0-.47,1,5.44,5.44,0,0,0-.15,1.32v4.1H71.78Z"/><path class="cls-5" d="M82,124a3.66,3.66,0,0,0,.91.82,2.3,2.3,0,0,0,1.25.31,3,3,0,0,0,.66-.07,2,2,0,0,0,.6-.24,1.28,1.28,0,0,0,.43-.4,1,1,0,0,0,.17-.59.88.88,0,0,0-.16-.55,1.19,1.19,0,0,0-.4-.37,2,2,0,0,0-.58-.25l-.66-.16c-.4-.08-.78-.18-1.14-.29a3.52,3.52,0,0,1-.94-.42,2,2,0,0,1-.65-.67,2.12,2.12,0,0,1-.24-1.07,2.16,2.16,0,0,1,.27-1.08,2.31,2.31,0,0,1,.72-.77,3.68,3.68,0,0,1,1-.47,4.11,4.11,0,0,1,1.16-.16A3.84,3.84,0,0,1,86,118a2.61,2.61,0,0,1,1.2,1.17l-1.17.77a2.25,2.25,0,0,0-.71-.73,2,2,0,0,0-1.07-.27,2.38,2.38,0,0,0-.59.07,2.09,2.09,0,0,0-.53.21,1.38,1.38,0,0,0-.39.37.91.91,0,0,0-.15.52.66.66,0,0,0,.17.45,1.58,1.58,0,0,0,.47.34,4.86,4.86,0,0,0,.68.25c.26.07.53.13.8.18a7,7,0,0,1,1.07.28,2.83,2.83,0,0,1,.88.46,2,2,0,0,1,.59.72,2.25,2.25,0,0,1,.22,1.06,2.42,2.42,0,0,1-.29,1.22,2.4,2.4,0,0,1-.76.82,3.27,3.27,0,0,1-1.08.46,5.18,5.18,0,0,1-1.24.14,4.76,4.76,0,0,1-1.86-.33,3.36,3.36,0,0,1-1.41-1.23Z"/><path class="cls-5" d="M96.8,124.25c0,.38,0,.75,0,1.08s0,.64,0,.92H95.54c0-.23,0-.46,0-.68s0-.47,0-.71h0a2.24,2.24,0,0,1-.4.6,3.12,3.12,0,0,1-.62.51,3.32,3.32,0,0,1-.81.36,3.42,3.42,0,0,1-1,.13,3.69,3.69,0,0,1-1.43-.25,2.65,2.65,0,0,1-1-.7,2.8,2.8,0,0,1-.59-1.09,4.72,4.72,0,0,1-.19-1.39v-5.2h1.41v5a2.72,2.72,0,0,0,.46,1.68,1.74,1.74,0,0,0,1.46.61,2.67,2.67,0,0,0,1.18-.24,2,2,0,0,0,.81-.66,3,3,0,0,0,.47-1,5.3,5.3,0,0,0,.15-1.31v-4.1h1.4Z"/><path class="cls-5" d="M99.47,119.82c0-.38,0-.74,0-1.08s0-.64,0-.91h1.33c0,.22,0,.45,0,.68s0,.46,0,.7h0a2.42,2.42,0,0,1,.41-.59,2.64,2.64,0,0,1,.62-.52,3.28,3.28,0,0,1,1.78-.49,3.38,3.38,0,0,1,1.14.17,2.79,2.79,0,0,1,.77.41,2.09,2.09,0,0,1,.47.53,4.48,4.48,0,0,1,.28.49,3.87,3.87,0,0,1,1.08-1.18,2.76,2.76,0,0,1,1.59-.42,4.16,4.16,0,0,1,1.51.24,2.41,2.41,0,0,1,1,.7,2.85,2.85,0,0,1,.54,1.12,6.08,6.08,0,0,1,.16,1.47v5.11h-1.4v-5a4,4,0,0,0-.09-.85,1.87,1.87,0,0,0-.33-.73,1.66,1.66,0,0,0-.63-.53,2.28,2.28,0,0,0-1-.19,2,2,0,0,0-.84.17,2.07,2.07,0,0,0-.69.51,2.26,2.26,0,0,0-.47.78,2.8,2.8,0,0,0-.17,1v4.86H105.1v-4.77a3.76,3.76,0,0,0-.38-2,1.35,1.35,0,0,0-1.24-.58,2.7,2.7,0,0,0-1.18.23,2.09,2.09,0,0,0-.81.66,2.94,2.94,0,0,0-.46,1,5,5,0,0,0-.16,1.32v4.1h-1.4Z"/><path class="cls-5" d="M122.33,124.72a4.33,4.33,0,0,1-1.66,1.36,5.2,5.2,0,0,1-2.09.38,4.25,4.25,0,0,1-1.78-.35,3.91,3.91,0,0,1-1.34-.94,4.16,4.16,0,0,1-.84-1.41,5.12,5.12,0,0,1,0-3.51,4.26,4.26,0,0,1,.9-1.41,4.16,4.16,0,0,1,1.37-.91,4.63,4.63,0,0,1,1.73-.32,4.25,4.25,0,0,1,1.62.3,3.45,3.45,0,0,1,1.27.86,4.06,4.06,0,0,1,.82,1.39,5.6,5.6,0,0,1,.28,1.86v.45h-6.8a2.85,2.85,0,0,0,.26,1,3.11,3.11,0,0,0,.59.87,2.74,2.74,0,0,0,.84.58,2.52,2.52,0,0,0,1.06.22,3.29,3.29,0,0,0,1.55-.33,3.49,3.49,0,0,0,1.14-1Zm-1.21-3.44a2.44,2.44,0,0,0-.7-1.73,2.53,2.53,0,0,0-1.84-.64,2.72,2.72,0,0,0-1.89.64,2.76,2.76,0,0,0-.86,1.73Z"/><path class="cls-5" d="M124.81,119.82q0-.57,0-1.08c0-.33,0-.64,0-.91h1.33c0,.22,0,.45,0,.68s0,.46,0,.7h0a2.42,2.42,0,0,1,.41-.59,2.64,2.64,0,0,1,.62-.52,3.28,3.28,0,0,1,1.78-.49,3.66,3.66,0,0,1,1.43.25,2.69,2.69,0,0,1,1,.7,2.87,2.87,0,0,1,.59,1.09,5.15,5.15,0,0,1,.19,1.4v5.2h-1.41v-5.06a2.61,2.61,0,0,0-.47-1.67,1.69,1.69,0,0,0-1.45-.61,2.67,2.67,0,0,0-1.18.23,2.09,2.09,0,0,0-.81.66,3,3,0,0,0-.47,1,5.44,5.44,0,0,0-.15,1.32v4.1h-1.41Z"/><path class="cls-5" d="M139.43,119h-2.49v4.21c0,.28,0,.54,0,.77a1.44,1.44,0,0,0,.15.61,1,1,0,0,0,.37.42,1.43,1.43,0,0,0,.72.15,2.81,2.81,0,0,0,1.25-.29l.05,1.28a3.24,3.24,0,0,1-.8.23,4.92,4.92,0,0,1-.84.07,3.08,3.08,0,0,1-1.2-.19,1.74,1.74,0,0,1-.71-.56,2.15,2.15,0,0,1-.33-.89,8.53,8.53,0,0,1-.08-1.18V119H133.7v-1.18h1.84v-2.4h1.4v2.4h2.49Z"/><path class="cls-5" d="M148.68,124.72a4.26,4.26,0,0,1-1.66,1.36,5.18,5.18,0,0,1-2.08.38,4.3,4.3,0,0,1-1.79-.35,4,4,0,0,1-1.34-.94,4.16,4.16,0,0,1-.84-1.41,5.12,5.12,0,0,1,0-3.51,4.26,4.26,0,0,1,.9-1.41,4.16,4.16,0,0,1,1.37-.91,4.67,4.67,0,0,1,1.73-.32,4.25,4.25,0,0,1,1.62.3,3.37,3.37,0,0,1,1.27.86,3.91,3.91,0,0,1,.82,1.39A5.59,5.59,0,0,1,149,122v.45h-6.81a3.06,3.06,0,0,0,.26,1,3.11,3.11,0,0,0,.59.87,2.74,2.74,0,0,0,.84.58,2.53,2.53,0,0,0,1.07.22,3.28,3.28,0,0,0,1.54-.33,3.49,3.49,0,0,0,1.14-1Zm-1.21-3.44a2.4,2.4,0,0,0-.7-1.73,2.5,2.5,0,0,0-1.83-.64,2.72,2.72,0,0,0-1.89.64,2.77,2.77,0,0,0-.87,1.73Z"/><path class="cls-5" d="M151.16,119.82q0-.57,0-1.08c0-.33,0-.64,0-.91h1.33c0,.22,0,.45,0,.68s0,.46,0,.7h0a2.37,2.37,0,0,1,.4-.59,2.64,2.64,0,0,1,.62-.52,3.32,3.32,0,0,1,.81-.36,3.39,3.39,0,0,1,1-.13,3.71,3.71,0,0,1,1.44.25,2.65,2.65,0,0,1,1,.7,2.87,2.87,0,0,1,.59,1.09,4.79,4.79,0,0,1,.19,1.4v5.2H157.1v-5.06a2.67,2.67,0,0,0-.46-1.67,1.73,1.73,0,0,0-1.46-.61,2.67,2.67,0,0,0-1.18.23,2.09,2.09,0,0,0-.81.66,3,3,0,0,0-.47,1,5.44,5.44,0,0,0-.15,1.32v4.1h-1.41Z"/></g></g></svg>