<svg xmlns="http://www.w3.org/2000/svg" viewBox="0 0 210.93 210.93"><defs><style>.cls-1,.cls-2{fill:none;stroke:#47b066;stroke-miterlimit:10;}.cls-1{stroke-width:2px;}.cls-2{stroke-width:4px;}.cls-3{fill:#fff;}.cls-4{fill:#47b066;}.cls-5{fill:#1d1d1b;}</style></defs><title>Middel 39</title><g id="Laag_2" data-name="Laag 2"><g id="Laag_1-2" data-name="Laag 1"><circle class="cls-1" cx="105.46" cy="105.46" r="104.46"/><circle class="cls-2" cx="105.46" cy="104.89" r="86.1"/><path class="cls-3" d="M86.47,11.51s-24.3,5.93-32.84,13.84S74,54.35,74,54.35L91.06,37.87,97,32.93Z"/><path class="cls-4" d="M71.62,105.23l6.46-10L78,95.2a3.46,3.46,0,0,1-1.12.34,8.24,8.24,0,0,1-1.39.12A7.66,7.66,0,0,1,72.23,95a7.92,7.92,0,0,1-2.56-1.86A8.41,8.41,0,0,1,68,90.37a9.07,9.07,0,0,1-.59-3.3,9.68,9.68,0,0,1,.72-3.8,8.42,8.42,0,0,1,2-2.91,8.82,8.82,0,0,1,3-1.84A11.06,11.06,0,0,1,77,77.87a11.41,11.41,0,0,1,3.86.63,8.79,8.79,0,0,1,3,1.8,8.09,8.09,0,0,1,2,2.89,10.18,10.18,0,0,1,.7,3.84,10.36,10.36,0,0,1-.7,3.86,23.48,23.48,0,0,1-1.81,3.51l-6.88,10.83ZM81.77,87.11a4.87,4.87,0,0,0-.38-1.92,4.79,4.79,0,0,0-1-1.56,5.22,5.22,0,0,0-1.56-1,4.94,4.94,0,0,0-1.92-.38,4.87,4.87,0,0,0-1.92.38,5,5,0,0,0-1.56,1,4.79,4.79,0,0,0-1,1.56,5,5,0,0,0,0,3.83A4.84,4.84,0,0,0,75,91.63a4.87,4.87,0,0,0,1.92.38,4.94,4.94,0,0,0,1.92-.38,5,5,0,0,0,1.56-1,4.79,4.79,0,0,0,1-1.56A4.86,4.86,0,0,0,81.77,87.11Z"/><path class="cls-4" d="M90.47,100.41,100.92,90.3l1-1a9.2,9.2,0,0,0,.9-1.08,7,7,0,0,0,.66-1.2,3.3,3.3,0,0,0,.27-1.31,3.19,3.19,0,0,0-.33-1.48,3.57,3.57,0,0,0-.85-1.11,4.07,4.07,0,0,0-1.24-.7,4.63,4.63,0,0,0-1.5-.25,4.05,4.05,0,0,0-2.81,1,4.22,4.22,0,0,0-1.33,2.66l-4.79-.38a8.46,8.46,0,0,1,.9-3.29,7.32,7.32,0,0,1,1.91-2.37,8.43,8.43,0,0,1,2.74-1.44,11.13,11.13,0,0,1,3.38-.5,11.59,11.59,0,0,1,3.4.48,8.17,8.17,0,0,1,2.76,1.4,6.67,6.67,0,0,1,1.86,2.38,7.76,7.76,0,0,1,.68,3.38,8.09,8.09,0,0,1-1.15,4.39,17.23,17.23,0,0,1-3,3.51L96,101.13h12.46v4.1h-18Z"/><path class="cls-4" d="M111.87,84.94a6.84,6.84,0,0,1,.55-2.76,7.11,7.11,0,0,1,1.52-2.24,7.22,7.22,0,0,1,2.24-1.52,7.18,7.18,0,0,1,5.51,0,7.2,7.2,0,0,1,3.76,3.76,6.84,6.84,0,0,1,.55,2.76,6.75,6.75,0,0,1-.55,2.75,7.21,7.21,0,0,1-1.52,2.25,7.34,7.34,0,0,1-2.24,1.52,7.18,7.18,0,0,1-5.51,0,7.22,7.22,0,0,1-2.24-1.52,7,7,0,0,1-1.52-2.25A6.75,6.75,0,0,1,111.87,84.94Zm10.48,0a3.36,3.36,0,1,0-1,2.43A3.33,3.33,0,0,0,122.35,84.94Zm12-7.83,3.16,1.45-15.81,27.89L118.52,105Zm-4.4,21.51a6.84,6.84,0,0,1,.55-2.76A7.11,7.11,0,0,1,132,93.62a7.22,7.22,0,0,1,2.24-1.52,7.18,7.18,0,0,1,5.51,0,7.2,7.2,0,0,1,3.76,3.76,6.84,6.84,0,0,1,.55,2.76,6.75,6.75,0,0,1-.55,2.75,7.17,7.17,0,0,1-3.76,3.77,7.18,7.18,0,0,1-5.51,0,7.22,7.22,0,0,1-2.24-1.52,7,7,0,0,1-1.52-2.25A6.75,6.75,0,0,1,129.92,98.62Zm10.48,0a3.36,3.36,0,1,0-1,2.43A3.33,3.33,0,0,0,140.4,98.62Z"/><path class="cls-5" d="M58.41,120.27a2.79,2.79,0,0,0-1-.78,2.58,2.58,0,0,0-1.15-.25,2.86,2.86,0,0,0-1.24.25,2.34,2.34,0,0,0-.9.67,3.09,3.09,0,0,0-.53,1,4,4,0,0,0-.18,1.21,3.47,3.47,0,0,0,.21,1.22,3.2,3.2,0,0,0,.58,1,2.46,2.46,0,0,0,.89.67,2.75,2.75,0,0,0,1.17.25,2.48,2.48,0,0,0,2.14-1.05l1,1a3.65,3.65,0,0,1-1.44,1,5,5,0,0,1-3.52,0,3.89,3.89,0,0,1-1.38-.92,4.21,4.21,0,0,1-.88-1.4,4.91,4.91,0,0,1-.32-1.79,4.83,4.83,0,0,1,.32-1.76,4.09,4.09,0,0,1,2.26-2.33,4.66,4.66,0,0,1,1.78-.33,4.79,4.79,0,0,1,1.77.32,3.88,3.88,0,0,1,1.47,1Z"/><path class="cls-5" d="M60.61,122.37a4.55,4.55,0,0,1,.34-1.8,4.22,4.22,0,0,1,.94-1.39,4.17,4.17,0,0,1,1.42-.91,5.22,5.22,0,0,1,3.6,0,4.27,4.27,0,0,1,1.42.91,4.19,4.19,0,0,1,.93,1.39,4.8,4.8,0,0,1,0,3.6,4.09,4.09,0,0,1-2.35,2.31,5.22,5.22,0,0,1-3.6,0,4.17,4.17,0,0,1-1.42-.91,4.26,4.26,0,0,1-.94-1.4A4.55,4.55,0,0,1,60.61,122.37Zm1.51,0a3.55,3.55,0,0,0,.21,1.24,2.77,2.77,0,0,0,.6,1,2.85,2.85,0,0,0,.94.66,3.18,3.18,0,0,0,2.47,0,2.78,2.78,0,0,0,1.55-1.65,3.91,3.91,0,0,0,0-2.47,3,3,0,0,0-4-1.65,2.85,2.85,0,0,0-.94.66,2.77,2.77,0,0,0-.6,1A3.53,3.53,0,0,0,62.12,122.37Z"/><path class="cls-5" d="M71.79,120.16c0-.38,0-.74,0-1.08s0-.64,0-.92h1.34c0,.23,0,.46,0,.69s0,.46,0,.7h0a2.41,2.41,0,0,1,.4-.6,3.12,3.12,0,0,1,.62-.51,3.32,3.32,0,0,1,.81-.36,3.42,3.42,0,0,1,1-.13,3.69,3.69,0,0,1,1.43.25,2.78,2.78,0,0,1,1,.7,2.92,2.92,0,0,1,.58,1.09,4.77,4.77,0,0,1,.19,1.39v5.21h-1.4v-5.06a2.73,2.73,0,0,0-.47-1.68,1.74,1.74,0,0,0-1.46-.61,2.67,2.67,0,0,0-1.18.24,2,2,0,0,0-.81.66,3,3,0,0,0-.47,1,5.3,5.3,0,0,0-.15,1.31v4.11h-1.4Z"/><path class="cls-5" d="M82,124.37a3.52,3.52,0,0,0,.91.83,2.39,2.39,0,0,0,1.25.31,3,3,0,0,0,.66-.08,1.74,1.74,0,0,0,.6-.23,1.42,1.42,0,0,0,.44-.4,1.13,1.13,0,0,0,.16-.59.91.91,0,0,0-.16-.56,1.3,1.3,0,0,0-.4-.37,2.35,2.35,0,0,0-.58-.24l-.66-.16c-.4-.09-.78-.18-1.14-.29a3.87,3.87,0,0,1-.94-.42,2,2,0,0,1-.65-.68,2.08,2.08,0,0,1-.24-1.06,2.11,2.11,0,0,1,.27-1.08,2.31,2.31,0,0,1,.72-.77,3.35,3.35,0,0,1,1-.47,4,4,0,0,1,1.15-.16,3.84,3.84,0,0,1,1.66.36,2.61,2.61,0,0,1,1.2,1.17l-1.17.77a2.25,2.25,0,0,0-.71-.73,2,2,0,0,0-1.07-.28,3.06,3.06,0,0,0-.59.07,1.79,1.79,0,0,0-.53.22,1.52,1.52,0,0,0-.39.37.9.9,0,0,0-.15.51.67.67,0,0,0,.17.46,1.41,1.41,0,0,0,.47.33,4.83,4.83,0,0,0,.68.26q.39.11.81.18a7.16,7.16,0,0,1,1.06.28,3,3,0,0,1,.88.45,2.15,2.15,0,0,1,.59.72,2.32,2.32,0,0,1,.22,1.07,2.45,2.45,0,0,1-.29,1.22,2.4,2.4,0,0,1-.76.82,3.49,3.49,0,0,1-1.08.46,5.75,5.75,0,0,1-1.24.14,4.76,4.76,0,0,1-1.86-.33,3.36,3.36,0,0,1-1.41-1.23Z"/><path class="cls-5" d="M96.8,124.59c0,.38,0,.74,0,1.08s0,.64,0,.92H95.55c0-.23,0-.46,0-.69s0-.46,0-.7h0a2.37,2.37,0,0,1-.4.59,2.85,2.85,0,0,1-.62.52,3.32,3.32,0,0,1-.81.36,3.39,3.39,0,0,1-1,.13,3.71,3.71,0,0,1-1.44-.25,2.65,2.65,0,0,1-1-.7,2.87,2.87,0,0,1-.59-1.09,4.79,4.79,0,0,1-.19-1.4v-5.2h1.41v5.06a2.67,2.67,0,0,0,.46,1.67,1.72,1.72,0,0,0,1.46.62,2.67,2.67,0,0,0,1.18-.24,2.09,2.09,0,0,0,.81-.66,3,3,0,0,0,.47-1,5.36,5.36,0,0,0,.15-1.31v-4.11h1.4Z"/><path class="cls-5" d="M99.47,120.16c0-.38,0-.74,0-1.08s0-.64,0-.92h1.33c0,.23,0,.46,0,.69s0,.46,0,.7h0a2.47,2.47,0,0,1,.41-.6,2.86,2.86,0,0,1,.62-.51,3.28,3.28,0,0,1,1.78-.49,3.15,3.15,0,0,1,1.14.17,2.79,2.79,0,0,1,.77.41,2.05,2.05,0,0,1,.47.52,4.52,4.52,0,0,1,.28.5,3.88,3.88,0,0,1,1.08-1.18,2.76,2.76,0,0,1,1.59-.42,4.16,4.16,0,0,1,1.51.24,2.41,2.41,0,0,1,1,.7A2.85,2.85,0,0,1,112,120a6,6,0,0,1,.16,1.46v5.12h-1.4v-5a4,4,0,0,0-.09-.85,1.91,1.91,0,0,0-.33-.74,1.63,1.63,0,0,0-.63-.52,2.27,2.27,0,0,0-1-.2,2,2,0,0,0-.84.18,1.94,1.94,0,0,0-.69.51,2.17,2.17,0,0,0-.47.78,2.73,2.73,0,0,0-.17,1v4.86H105.1v-4.77a3.76,3.76,0,0,0-.38-2,1.36,1.36,0,0,0-1.24-.59,2.7,2.7,0,0,0-1.18.24,2,2,0,0,0-.81.66,2.94,2.94,0,0,0-.46,1,4.85,4.85,0,0,0-.16,1.31v4.11h-1.4Z"/><path class="cls-5" d="M122.33,125.06a4.42,4.42,0,0,1-1.66,1.36,5.36,5.36,0,0,1-2.08.38,4.47,4.47,0,0,1-1.79-.35,4,4,0,0,1-1.34-.94,4.16,4.16,0,0,1-.84-1.41,4.91,4.91,0,0,1-.3-1.73,5,5,0,0,1,.32-1.79,4.32,4.32,0,0,1,.9-1.4,4.16,4.16,0,0,1,1.37-.91,4.75,4.75,0,0,1,3.35,0,3.6,3.6,0,0,1,1.27.87,4.11,4.11,0,0,1,.82,1.38,5.69,5.69,0,0,1,.29,1.87v.45h-6.81a2.85,2.85,0,0,0,.26,1,3.11,3.11,0,0,0,.59.87,2.74,2.74,0,0,0,.84.58,2.69,2.69,0,0,0,1.07.22,3.28,3.28,0,0,0,1.54-.33,3.49,3.49,0,0,0,1.14-1Zm-1.21-3.44a2.42,2.42,0,0,0-.7-1.73,2.53,2.53,0,0,0-1.83-.65,2.75,2.75,0,0,0-1.9.65,2.79,2.79,0,0,0-.86,1.73Z"/><path class="cls-5" d="M124.81,120.16q0-.57,0-1.08c0-.34,0-.64,0-.92h1.33c0,.23,0,.46,0,.69s0,.46,0,.7h0a2.78,2.78,0,0,1,.41-.6,2.86,2.86,0,0,1,.62-.51A3.28,3.28,0,0,1,129,118a3.66,3.66,0,0,1,1.43.25,2.61,2.61,0,0,1,1,.7A2.8,2.8,0,0,1,132,120a5.13,5.13,0,0,1,.19,1.39v5.21h-1.41v-5.06a2.66,2.66,0,0,0-.47-1.68,1.72,1.72,0,0,0-1.45-.61,2.67,2.67,0,0,0-1.18.24,2,2,0,0,0-.81.66,3,3,0,0,0-.47,1,5.3,5.3,0,0,0-.15,1.31v4.11h-1.41Z"/><path class="cls-5" d="M139.43,119.35h-2.49v4.21c0,.28,0,.53,0,.77a1.48,1.48,0,0,0,.15.61,1,1,0,0,0,.37.41,1.33,1.33,0,0,0,.72.16,2.72,2.72,0,0,0,.63-.08,2.67,2.67,0,0,0,.62-.21l.05,1.28a3.74,3.74,0,0,1-.8.23,4.92,4.92,0,0,1-.84.07,2.88,2.88,0,0,1-1.2-.2,1.64,1.64,0,0,1-.71-.55,2.29,2.29,0,0,1-.33-.89,8.53,8.53,0,0,1-.08-1.18v-4.63H133.7v-1.19h1.84v-2.39h1.4v2.39h2.49Z"/><path class="cls-5" d="M148.68,125.06a4.35,4.35,0,0,1-1.66,1.36,5.36,5.36,0,0,1-2.08.38,4.47,4.47,0,0,1-1.79-.35,4.15,4.15,0,0,1-1.34-.94,4.33,4.33,0,0,1-.84-1.41,4.91,4.91,0,0,1-.3-1.73,5,5,0,0,1,.32-1.79,4.32,4.32,0,0,1,.9-1.4,4.16,4.16,0,0,1,1.37-.91,4.75,4.75,0,0,1,3.35,0,3.51,3.51,0,0,1,1.27.87,4,4,0,0,1,.82,1.38,5.69,5.69,0,0,1,.29,1.87v.45h-6.81a3.06,3.06,0,0,0,.26,1,3.11,3.11,0,0,0,.59.87,2.74,2.74,0,0,0,.84.58,2.69,2.69,0,0,0,1.07.22,3.28,3.28,0,0,0,1.54-.33,3.49,3.49,0,0,0,1.14-1Zm-1.21-3.44a2.38,2.38,0,0,0-.7-1.73,2.51,2.51,0,0,0-1.83-.65,2.61,2.61,0,0,0-2.76,2.38Z"/><path class="cls-5" d="M151.16,120.16q0-.57,0-1.08c0-.34,0-.64,0-.92h1.33c0,.23,0,.46,0,.69s0,.46,0,.7h0a2.41,2.41,0,0,1,.4-.6,3.12,3.12,0,0,1,.62-.51,3.32,3.32,0,0,1,.81-.36,3.39,3.39,0,0,1,1-.13,3.71,3.71,0,0,1,1.44.25,2.65,2.65,0,0,1,1,.7,2.8,2.8,0,0,1,.59,1.09,4.77,4.77,0,0,1,.19,1.39v5.21H157.1v-5.06a2.72,2.72,0,0,0-.46-1.68,1.75,1.75,0,0,0-1.46-.61,2.67,2.67,0,0,0-1.18.24,2,2,0,0,0-.81.66,3,3,0,0,0-.47,1,5.3,5.3,0,0,0-.15,1.31v4.11h-1.41Z"/></g></g></svg>