<svg xmlns="http://www.w3.org/2000/svg" viewBox="0 0 2147.68 221.1"><defs><style>.cls-1{fill:#253a4c;}.cls-2{fill:#63676b;}</style></defs><title>Asset 2</title><g id="Layer_2" data-name="Layer 2"><g id="Layer_1-2" data-name="Layer 1"><path class="cls-1" d="M8.27,94.18c-6.35-.33-4.07,3.44-5,4.12C13.87,97.47,8,93.2,8.27,94.18Z"/><polygon class="cls-1" points="113.15 85.62 111.29 87.16 126.75 83.39 113.15 85.62"/><path class="cls-1" d="M211.23,85.69c-9.27-6.42-35.54,1-53-1.25L155.35,83l-7.89,5.17C168.69,87.33,196.27,83.9,211.23,85.69Z"/><path class="cls-1" d="M263.52,99.59c-3.22-2.5,11.31-2.15-12.19-.78,1.18.27,1.52.43,2.21.63C255.65,99.4,258.57,99.41,263.52,99.59Z"/><path class="cls-1" d="M301.24,98l-13.61,2.23c2.84,1.48,14.95,1.81,10.45,2.88C312,101.9,309.17,100.43,301.24,98Z"/><path class="cls-1" d="M314.14,93.32l-7.06.94C308.32,94.88,310.19,95.08,314.14,93.32Z"/><path class="cls-1" d="M292.13,96.26l14.95-2c-2-1-2.17-3.12-6.86.72C301.44,93.08,298.49,94.91,292.13,96.26Z"/><path class="cls-1" d="M283.67,95.28c-7.63-1.4-17.49-2.28-3.84-4.5C253.8,91.66,257.64,96.18,283.67,95.28Z"/><path class="cls-1" d="M216.24,79.08,206,77.2l-8.82,2.15C201.62,78.25,216.87,81.08,216.24,79.08Z"/><path class="cls-1" d="M386,101.33c.85-1.36-4.58-3.64-5.59-5.39l-10,1.57C375.51,98.45,385.3,99.31,386,101.33Z"/><path class="cls-1" d="M380.4,95.94l15-2.35C382,93.32,379.55,94.43,380.4,95.94Z"/><polygon class="cls-1" points="316.56 86.19 291.86 91.11 321.32 86.12 316.56 86.19"/><polygon class="cls-1" points="443.41 101.5 434.88 104.67 450.07 99.89 443.41 101.5"/><path class="cls-1" d="M481.5,101c-6.3,2.62,8.65,4.43,2,6,10.35-.47,19.18-2.72,27.14-4.74C502.17,103.39,493.16,103.08,481.5,101Z"/><path class="cls-1" d="M524,99.31a128.35,128.35,0,0,0-13.36,3A73.56,73.56,0,0,0,524,99.31Z"/><path class="cls-1" d="M421.05,94.27c1.16.83,3.4,3,11.83,3.9L427,94.33Z"/><path class="cls-1" d="M426.8,94.21l.21.12,12.77.21Z"/><path class="cls-1" d="M419.56,94.25h1.49C420.48,93.89,420.13,93.77,419.56,94.25Z"/><path class="cls-1" d="M356,89.67c8.83-2.15,27.25-4.46,9.43-7.74C359.07,84.56,369.27,86.43,356,89.67Z"/><path class="cls-1" d="M412.21,89.45l-16-.88c.32,1,3.2,2.49-1.18,3.56Z"/><polygon class="cls-1" points="420.03 88.22 412.21 89.45 418.13 89.77 420.03 88.22"/><path class="cls-1" d="M496.62,95.71c6.9-1.68,14.45-1.82,23-2.08-9.14-.76-18.58-1.17-27.55-1.16C490.8,93.68,486.8,95.84,496.62,95.71Z"/><path class="cls-1" d="M462.67,94.64c.48-.09,1.09-.13,1.53-.22C463.26,94.08,462.51,94,462.67,94.64Z"/><path class="cls-1" d="M603.51,93.65c-.47-.21-.87-.47-1.35-.7a5.79,5.79,0,0,1-.31.67Z"/><path class="cls-1" d="M490.5,91.75a33.66,33.66,0,0,0-14.88,1.39c5.14-.39,10.58-.64,16.42-.67C492.61,91.92,492.71,91.56,490.5,91.75Z"/><path class="cls-1" d="M547.39,97.51c-3.58-.8-7.63-1.49-11.89-2.11C539,96.61,546.12,98.51,547.39,97.51Z"/><path class="cls-1" d="M466.52,95.48a8.37,8.37,0,0,1-1,.18C467.74,96.48,467.46,96.08,466.52,95.48Z"/><path class="cls-1" d="M466.52,95.48a63.28,63.28,0,0,0,9.1-2.34c-4.18.3-8.06.71-11.42,1.28A11.58,11.58,0,0,1,466.52,95.48Z"/><path class="cls-1" d="M628.94,69c-1.22,3.57-19.27,6.86-34.85,3-15.34,2.67-5.31,14.4,8.07,21,.48-1.55.48-3,16.26-5.1-5.52-1.94-35-4.55-21.7-7.77,20.9-1.84,17.13,1.26,27.29,3.14-8.64-4.44,26.6-6.46,22-13l-18.34,2.3C627.38,71.51,634,69.89,628.94,69Z"/><path class="cls-1" d="M572.09,92.59l-6.49.49c7.4.62,12.7,2,22.46,4.84,10.8-1.74,13-3.07,13.79-4.25l-32-.5Z"/><path class="cls-1" d="M536.44,93.08c5.07-3.88,20.67-5.53,11.12-9.73-19.06.27-13.36,3.24-24.75,4.92,30.76-1-8.83,2.16,13.39,4.36-6,.66-11.48.86-16.61,1,5.54.47,10.88,1,15.91,1.77l-.71-.25h-.14v-.06c-1.33-.49-1.77-.78-.27-.5a2.74,2.74,0,0,1,.64-.08,3.9,3.9,0,0,1,1.42-1.43c8.91.8,1.4,1-1.39,1.46-.1.19-.34.37-.37.58h.11l30.81-2C559.08,92.49,550.91,92.6,536.44,93.08Z"/><path class="cls-1" d="M381.8,73.59c.95.34.91.62,1,.9C384.8,74,385.57,73.69,381.8,73.59Z"/><path class="cls-1" d="M394.51,75.93c-2.24.54-4.1,2.09-11.38,1.69-6.32-1.16,0-1.85-.31-3.13-4.38,1-15.35,2.78-1.59,4.67l2.18-.53c12.4,1.33,28.33,6.17,26.17,6.7C406,81.84,402.8,79.36,394.51,75.93Z"/><path class="cls-1" d="M466.36,83.5,492,81.6,479,78.24l.66,2C465,79.47,468.18,82,466.36,83.5Z"/><polygon class="cls-1" points="606.44 95.58 603.04 99.68 617.86 93.89 606.44 95.58"/><polygon class="cls-1" points="639.78 95.09 638.55 98.65 647.35 96.5 639.78 95.09"/><path class="cls-1" d="M2019,79.71l-3.1-1.46c-2.77,1.1-5.38,2.11-7.71,3.08C2011.48,80.81,2015.17,80.27,2019,79.71Z"/><path class="cls-1" d="M2028.16,64.28l14.2,3.76A110.35,110.35,0,0,0,2028.16,64.28Z"/><path class="cls-1" d="M407.8,47.89c-.79-.14-1.74-.18-2.45-.35C405.17,48.08,406.25,48.08,407.8,47.89Z"/><path class="cls-1" d="M90.9,39.8c3-.71,8.08-1.47,12.82-2.24C101.37,37.64,97.49,38.25,90.9,39.8Z"/><path class="cls-1" d="M2027,66.08a4,4,0,0,1,2,2.54C2031,68.08,2031.15,67.21,2027,66.08Z"/><path class="cls-1" d="M567.73,71.89c-2.23.53-4.74,0-7,.59l.61,2C570.93,74.37,577.6,72.74,567.73,71.89Z"/><path class="cls-1" d="M686.55,84.33c-1.21-3.66-10.83-2.42-21.56-1.74h1.9C663.73,87.7,675.16,86,686.55,84.33Z"/><path class="cls-1" d="M662.5,82.71a96.53,96.53,0,0,1-9.92.1C651.32,84.85,656.6,83.23,662.5,82.71Z"/><polygon class="cls-1" points="677.86 72.29 681.7 76.8 687.72 73.17 677.86 72.29"/><path class="cls-1" d="M38.1,43.37c-4.85.22-9.69.36-14.55.64,3.25.43,6.48.91,9.72,1.39Z"/><path class="cls-1" d="M12.08,55,7.62,49.91,0,56.81C3.31,55.85,9.37,54.19,12.08,55Z"/><path class="cls-1" d="M1946.91,86.37l1.32-1.19c-1.9-1.88-5.15-2.59-11.68-4Z"/><path class="cls-2" d="M631.43,3.93A6.92,6.92,0,0,0,630,3.16C630.45,3.43,630.93,3.69,631.43,3.93Z"/><path class="cls-2" d="M2147.68,34c-.14,0-.69-.09-1.42-.21l.29-2.15c-10.67-2.91-22.92-5.47-33.5-3.08-5.39-2.11,3-3.28,1.48-5.64-11,.7-17.51,1.05-22.53,1.38-8.34-1.33-7.09,1-32.92-7.75l1.34,4.64c-5.37,8.44,25.41,8.07,1.88,7.37L2046.57,16.5c-13,.82,15.57,16.17,3.19,12.77-2.59-1.29,4.56-.49,8.49-.38-31.92-11.35-5.28,4.79-30,1.64-4-3.81,7.2-6.59-9.21-10.11-3.89-1.94-84.49,7-98.61,6.59s-44.16-3.54-54.91-8.36c4.58,3.16,9.12,6.32-2.59,6.11-17.61-2.14-45.88-16.73-63-11.85-1.83-.85-2.63-1.51-2.83-2.05,4.81.08,7.59-.23,6.76-1.34-4.67,0-6.75.45-6.77,1.33a.85.85,0,0,1,0-.26c-3.43-.08-7.92-.3-12.84-.6s-10.31-.63-15.54-.84c-10.44-.46-20.33-.41-24.71,1.1a10.4,10.4,0,0,0-2.62-2.59,13,13,0,0,0-1.84-1.08l-1-.48-.28-.12-.7-.15c-.48-.09-1-.17-1.46-.24h1.13c-5.38-1.61-13-2.31-21.38-2.45-4.2-.06-8.58,0-13,.14l-13,.8c-4.23.27-8.27.51-12,.61-1.84,0-3.59.07-5.23,0s-3.18,0-4.58-.07c-5.6-.31-9.09-1.59-9-4.62-14.17.07-28.37,1-42.53,1.87l1-1.49c-6.82.28-12.52.74-17.38,1.34-2.43.3-4.65.63-6.69,1s-3.88.86-5.6,1.32a88.38,88.38,0,0,0-15.94,6.18c-3.17-.14-3.64-.59-3.29-1.18s1.56-1.22,1.77-1.61c-9.89.59-17.54,1.21-24,1.85a155.21,155.21,0,0,0-16.31,2.8c-2.45.56-4.83,1.18-7.28,1.9s-4.91,1.59-7.58,2.54c-5.32,1.93-11.42,4.3-19.14,7.42l-4.11-3.79c-4.13,2.05-18.29,2.82-35.88,4.44-4.41.43-9,.86-13.76,1.36s-9.59,1.13-14.47,1.88-9.77,1.53-14.59,2.51-9.57,2.1-14.15,3.44c.3-.55,1-1.52,3.82-2.59q-3.87,1.08-8,1.93c-2.72.57-5.51,1-8.33,1.4-5.66.79-11.49,1.36-17.36,1.8-2.94.21-5.88.43-8.82.56l-8.81.27-17.08.46q-4.14.14-8.09.33c-2.64.11-5.21.2-7.69.36A121.6,121.6,0,0,0,1305,39.81c-8.29,1.46-14.71,4-18.28,8.39L1259,54.08c16.22-.53,17,.89,14.25,2.76a49.11,49.11,0,0,1-10.45-1.71c-7.25-.39-21.64-7.79-22.9-4.21a18.27,18.27,0,0,1,5,4.39c-3.69-.2-8.32-.1-13.07-.15-12,0-24.65.45-24.25-2.45l-13.35.52c-2.22.11-4.44.09-6.66.1h-6.65q-13.28,0-26.46-.25c-4.39,0-8.77-.29-13.14-.51l-13.08-.7c-8.7-.5-17.36-.86-26-1.76l-25.7-2.31c-8.52-.91-17-2-25.43-2.91-4.21-.49-8.42-.9-12.62-1.44l-12.57-1.64-12.51-1.56-6.24-.74L1001,38.7c2.29,2.49,4.59,5,6.89,7.46-7.73-1-15.47-2.17-23.2-3.25-5.91-2.29-7.53-6.13,9-3.79-4.13-2.4-11.16-2.49-17.25-1.82s-11.28,2-11.61,2.73c-32.17-7,13.71-5.9,3.76-7.4l-13.6-1.33,3,1.17c-11.34,1.18-12.66,3.9-32.65.85-12.5-3-6-4.9-10.92-5.83.09-.46-1.56-.91-7.63-1.23l-29.48-4.4,11.16,6.68c-13.42.85-27.73-3.86-14.85,3.74a42.82,42.82,0,0,0-10.15-4.06c-4.33-1.23-9.49-2.36-15.19-3.42s-11.94-2-18.41-2.95c-3.24-.47-6.55-.84-9.88-1.21l-10-1.05c-26.71-2.92-52.6-3.95-58.68-5.9-4.7.58-9.35.91-14,1.06s-9.44.31-14.3.22c-9.72-.16-19.92-.89-31.21-1.77,2.79.7,4.94,2.56,4,4-.49.73-1.75,1.35-4.1,1.68a30.61,30.61,0,0,1-4.39.25c-1.77,0-3.84,0-6.27-.23,7.43-11.42-33-6.85-49.56-15,6.17,4.71-56,.26-35,8.35-16.26-1.21-.93-4.53-13.27-7.55-4.85.52-9.83.84-14.91,1s-10.27.38-15.56.39c-10.58,0-21.55-.35-32.82-.84l-17.11-.73c-5.76-.13-11.58-.24-17.45-.29-11.74-.1-23.66,0-35.63.78-.69,1.6,7.41,3.8-2.77,6.44-4.26-1.24-8.52-2.29-12.79-3.42L421.2,4.71c-9.44,1.22-8.27,9.54-25.82,4.86,2.51,1.22,6.25,3-.06,3.86-2.94-.1-5.88-.19-8.83-.25s-5.89,0-8.84,0q-8.85.09-17.74.39t-17.79.75c-5.94.31-11.89.6-17.83,1.13q-17.85,1.5-35.76,3.27l-9,.88c-3,.29-6,.67-9,1l-17.92,2c-47.83,5.39-95.68,10.92-144,10.63,13.25,1.28,4.75,2.7-5,4.27,6.45-.24.42,3.89,2,5.82H75.34l-10.1.14C62.12,47,51.57,48.74,41.4,50.64c-5.08.92-10.07,1.8-14,2.89s-6.74,2.35-7.5,3.94c4.08-1.09,8.18-2.23,12.27-3.27-7.69,4.77-1.22,7.4,7,10l2.74.85c-25,4.36-38.67,7.22-38.67,7.22V221.1H2147V100.68l-.63-.09Zm-.11.6-1.26,66-.1,0,.94-63.75a13.13,13.13,0,0,1-1.35.31l.41-3ZM1224.51,89.52c2.85-.73-2.64-1.49,6.19-1.31l8.67-5.54-.76.34c-3.16-.57-7-1.29-11.12-2.09C1228.3,80.42,1223.56,89.7,1224.51,89.52Zm146-16.1c-.64.88-3,1.91-5.36,2.92,5.07-1,8.93-2.58,14.5-4.07h7c-38.35-2.46-5.31,11.89-4.56-11.4l-21.36,16.78C1363.8,76.29,1367.08,74.87,1370.5,73.42Zm365.62-53.21ZM1247.35,59a27.5,27.5,0,0,1,1.65,3.72C1242.86,61.73,1240.19,60.13,1247.35,59ZM911.51,28.71,916,30.46C905.38,30.28,908.45,29.56,911.51,28.71Z"/></g></g></svg>