<?xml version="1.0" encoding="utf-8"?>
<!-- Generator: Adobe Illustrator 23.0.3, SVG Export Plug-In . SVG Version: 6.00 Build 0)  -->
<svg version="1.1" id="Laag_1" xmlns="http://www.w3.org/2000/svg" xmlns:xlink="http://www.w3.org/1999/xlink" x="0px" y="0px"
	 viewBox="0 0 2147.7 221.1" style="enable-background:new 0 0 2147.7 221.1;" xml:space="preserve">
<style type="text/css">
	.st0{fill:#63676B;}
</style>
<title>Asset 2</title>
<g>
	<g>
		<g id="Layer_1-2_1_">
			<path class="st0" d="M11.8,94.3c-6.3-0.3-4.1,3.4-5,4.1C17.4,97.6,11.5,93.3,11.8,94.3z"/>
			<polygon class="st0" points="116.7,85.7 114.8,87.3 130.3,83.5 			"/>
			<path class="st0" d="M214.7,85.8c-9.3-6.4-35.5,1-53-1.2l-2.9-1.4l-7.9,5.2C172.2,87.4,199.8,84,214.7,85.8z"/>
			<path class="st0" d="M267,99.7c-3.2-2.5,11.3-2.2-12.2-0.8c1.2,0.3,1.5,0.4,2.2,0.6C259.1,99.5,262.1,99.5,267,99.7z"/>
			<path class="st0" d="M304.7,98.1l-13.6,2.2c2.8,1.5,15,1.8,10.5,2.9C315.5,102,312.7,100.5,304.7,98.1z"/>
			<path class="st0" d="M317.6,93.4l-7.1,0.9C311.8,95,313.7,95.2,317.6,93.4z"/>
			<path class="st0" d="M295.6,96.4l15-2c-2-1-2.2-3.1-6.9,0.7C304.9,93.2,302,95,295.6,96.4z"/>
			<path class="st0" d="M287.2,95.4c-7.6-1.4-17.5-2.3-3.8-4.5C257.3,91.8,261.1,96.3,287.2,95.4z"/>
			<path class="st0" d="M219.7,79.2l-10.2-1.9l-8.8,2.2C205.1,78.3,220.4,81.2,219.7,79.2z"/>
			<path class="st0" d="M389.5,101.4c0.9-1.4-4.6-3.6-5.6-5.4l-10,1.6C379,98.5,388.8,99.4,389.5,101.4z"/>
			<path class="st0" d="M383.9,96l15-2.3C385.5,93.4,383,94.5,383.9,96z"/>
			<polygon class="st0" points="320.1,86.3 295.4,91.2 324.8,86.2 			"/>
			<polygon class="st0" points="446.9,101.6 438.4,104.8 453.6,100 			"/>
			<path class="st0" d="M485,101.1c-6.3,2.6,8.6,4.4,2,6c10.4-0.5,19.2-2.7,27.1-4.7C505.7,103.5,496.7,103.2,485,101.1z"/>
			<path class="st0" d="M527.5,99.4c-4.5,0.8-9,1.8-13.4,3C518.7,101.8,523.1,100.8,527.5,99.4z"/>
			<path class="st0" d="M424.5,94.4c1.2,0.8,3.4,3,11.8,3.9l-5.9-3.8L424.5,94.4z"/>
			<path class="st0" d="M430.3,94.3l0.2,0.1l12.8,0.2L430.3,94.3z"/>
			<path class="st0" d="M423.1,94.3h1.5C424,94,423.6,93.9,423.1,94.3z"/>
			<path class="st0" d="M359.5,89.8c8.8-2.2,27.2-4.5,9.4-7.7C362.6,84.7,372.8,86.5,359.5,89.8z"/>
			<path class="st0" d="M415.7,89.5l-16-0.9c0.3,1,3.2,2.5-1.2,3.6L415.7,89.5z"/>
			<polygon class="st0" points="423.5,88.3 415.7,89.5 421.6,89.9 			"/>
			<path class="st0" d="M500.1,95.8c6.9-1.7,14.5-1.8,23-2.1c-9.1-0.8-18.6-1.2-27.5-1.2C494.3,93.8,490.3,95.9,500.1,95.8z"/>
			<path class="st0" d="M466.2,94.7c0.5-0.1,1.1-0.1,1.5-0.2C466.8,94.2,466,94.1,466.2,94.7z"/>
			<path class="st0" d="M607,93.8c-0.5-0.2-0.9-0.5-1.3-0.7c-0.1,0.2-0.2,0.5-0.3,0.7H607z"/>
			<path class="st0" d="M494,91.9c-5-0.7-10.1-0.2-14.9,1.4c5.1-0.4,10.6-0.6,16.4-0.7C496.1,92,496.2,91.7,494,91.9z"/>
			<path class="st0" d="M550.9,97.6c-3.6-0.8-7.6-1.5-11.9-2.1C542.5,96.7,549.6,98.6,550.9,97.6z"/>
			<path class="st0" d="M470,95.6c-0.3,0.1-0.7,0.1-1,0.2C471.2,96.6,471,96.2,470,95.6z"/>
			<path class="st0" d="M470,95.6c3.1-0.6,6.1-1.3,9.1-2.3c-4.2,0.3-8.1,0.7-11.4,1.3C468.5,94.8,469.3,95.1,470,95.6z"/>
			<path class="st0" d="M632.4,69.1c-1.2,3.6-19.3,6.9-34.8,3c-15.3,2.7-5.3,14.4,8.1,21c0.5-1.6,0.5-3,16.3-5.1
				c-5.5-1.9-35-4.6-21.7-7.8c20.9-1.8,17.1,1.3,27.3,3.1c-8.6-4.4,26.6-6.5,22-13l-18.3,2.3C630.9,71.6,637.5,70,632.4,69.1z"/>
			<path class="st0" d="M575.6,92.7l-6.5,0.5c7.4,0.6,12.7,2,22.5,4.8c10.8-1.7,13-3.1,13.8-4.2l-32-0.5L575.6,92.7z"/>
			<path class="st0" d="M539.9,93.2c5.1-3.9,20.7-5.5,11.1-9.7c-19.1,0.3-13.4,3.2-24.8,4.9c30.8-1-8.8,2.2,13.4,4.4
				c-6,0.7-11.5,0.9-16.6,1c5.5,0.5,10.9,1,15.9,1.8l-0.7-0.2h-0.1v-0.1c-1.3-0.5-1.8-0.8-0.3-0.5c0.2-0.1,0.4-0.1,0.6-0.1
				C538.9,94,539.3,93.5,539.9,93.2c8.9,0.8,1.4,1-1.4,1.5c-0.1,0.2-0.3,0.4-0.4,0.6h0.1l30.8-2C562.6,92.6,554.4,92.7,539.9,93.2z"
				/>
			<path class="st0" d="M385.3,73.7c1,0.3,0.9,0.6,1,0.9C388.3,74.1,389.1,73.8,385.3,73.7z"/>
			<path class="st0" d="M398,76c-2.2,0.5-4.1,2.1-11.4,1.7c-6.3-1.2,0-1.8-0.3-3.1c-4.4,1-15.4,2.8-1.6,4.7l2.2-0.5
				c12.4,1.3,28.3,6.2,26.2,6.7C409.5,81.9,406.3,79.5,398,76z"/>
			<path class="st0" d="M469.9,83.6l25.6-1.9l-13-3.4l0.7,2C468.5,79.6,471.7,82.1,469.9,83.6z"/>
			<polygon class="st0" points="609.9,95.7 606.5,99.8 621.4,94 			"/>
			<polygon class="st0" points="643.3,95.2 642,98.8 650.8,96.6 			"/>
			<path class="st0" d="M2022.5,79.8l-3.1-1.5c-2.8,1.1-5.4,2.1-7.7,3.1C2015,80.9,2018.7,80.4,2022.5,79.8z"/>
			<path class="st0" d="M2031.7,64.4l14.2,3.8C2041.2,66.6,2036.5,65.3,2031.7,64.4z"/>
			<path class="st0" d="M411.3,48c-0.8-0.1-1.7-0.2-2.5-0.3C408.7,48.2,409.7,48.2,411.3,48z"/>
			<path class="st0" d="M94.4,39.9c3-0.7,8.1-1.5,12.8-2.2C104.9,37.7,101,38.3,94.4,39.9z"/>
			<path class="st0" d="M2030.5,66.2c1,0.5,1.7,1.4,2,2.5C2034.5,68.2,2034.7,67.3,2030.5,66.2z"/>
			<path class="st0" d="M571.2,72c-2.2,0.5-4.7,0-7,0.6l0.6,2C574.4,74.5,581.1,72.8,571.2,72z"/>
			<path class="st0" d="M690,84.4c-1.2-3.7-10.8-2.4-21.6-1.7h1.9C667.2,87.8,678.7,86.1,690,84.4z"/>
			<path class="st0" d="M666,82.8c-3.3,0.2-6.6,0.2-9.9,0.1C654.8,84.9,660.1,83.3,666,82.8z"/>
			<polygon class="st0" points="681.4,72.4 685.2,76.9 691.2,73.3 			"/>
			<path class="st0" d="M41.6,43.5c-4.8,0.2-9.7,0.4-14.5,0.6c3.2,0.4,6.5,0.9,9.7,1.4L41.6,43.5z"/>
			<path class="st0" d="M15.6,55.1L11.1,50l-7.6,6.9C6.8,55.9,12.9,54.3,15.6,55.1z"/>
			<path class="st0" d="M1950.4,86.5l1.3-1.2c-1.9-1.9-5.2-2.6-11.7-4L1950.4,86.5z"/>
			<path class="st0" d="M634.9,4c-0.4-0.3-0.9-0.6-1.4-0.8C634,3.5,634.4,3.8,634.9,4z"/>
			<path class="st0" d="M2150.7,33.7c0-0.4-0.5-0.8-0.5-1.4c0-0.3-0.1-0.5-0.1-0.5c0-0.5-8.1-1.5-33.6-3.1c-5.4-2.1,3-3.3,1.5-5.6
				c-11,0.7-17.5,1-22.5,1.4c-8.3-1.3-7.1,1-32.9-7.8l1.3,4.6c-5.4,8.4,25.4,8.1,1.9,7.4l-15.7-12.1c-13,0.8,15.6,16.2,3.2,12.8
				c-2.6-1.3,4.6-0.5,8.5-0.4c-31.9-11.4-5.3,4.8-30,1.6c-4-3.8,7.2-6.6-9.2-10.1c-3.9-1.9-84.5,7-98.6,6.6
				c-14.1-0.4-44.2-3.5-54.9-8.4c4.6,3.2,9.1,6.3-2.6,6.1c-17.6-2.1-45.9-16.7-63-11.9c-1.8-0.9-2.6-1.5-2.8-2.1
				c4.8,0.1,7.6-0.2,6.8-1.3c-4.7,0-6.8,0.4-6.8,1.3c0-0.1,0-0.2,0-0.3c-3.4-0.1-7.9-0.3-12.8-0.6c-4.9-0.3-10.3-0.6-15.5-0.8
				c-10.4-0.5-20.3-0.4-24.7,1.1c-0.7-1-1.6-1.9-2.6-2.6c-0.6-0.4-1.2-0.8-1.8-1.1l-1-0.5l-0.3-0.1l-0.7-0.2c-0.5-0.1-1-0.2-1.5-0.2
				h1.1c-5.4-1.6-13-2.3-21.4-2.5c-4.2-0.1-8.6,0-13,0.1l-13,0.8c-4.2,0.3-8.3,0.5-12,0.6c-1.8,0-3.6,0.1-5.2,0
				c-1.6-0.1-3.2,0-4.6-0.1c-5.6-0.3-9.1-1.6-9-4.6c-14.2,0.1-28.4,1-42.5,1.9l1-1.5c-6.8,0.3-12.5,0.7-17.4,1.3
				c-2.4,0.3-4.7,0.6-6.7,1s-3.9,0.9-5.6,1.3c-5.5,1.5-10.8,3.6-15.9,6.2c-3.2-0.1-3.6-0.6-3.3-1.2c0.3-0.6,1.6-1.2,1.8-1.6
				c-9.9,0.6-17.5,1.2-24,1.8c-5.5,0.6-10.9,1.6-16.3,2.8c-2.4,0.6-4.8,1.2-7.3,1.9s-4.9,1.6-7.6,2.5c-5.3,1.9-11.4,4.3-19.1,7.4
				l-4.1-3.8c-4.1,2-18.3,2.8-35.9,4.4c-4.4,0.4-9,0.9-13.8,1.4s-9.6,1.1-14.5,1.9s-9.8,1.5-14.6,2.5s-9.6,2.1-14.2,3.4
				c0.3-0.5,1-1.5,3.8-2.6c-2.6,0.7-5.2,1.4-8,1.9c-2.7,0.6-5.5,1-8.3,1.4c-5.7,0.8-11.5,1.4-17.4,1.8c-2.9,0.2-5.9,0.4-8.8,0.6
				l-8.8,0.3l-17.1,0.5c-2.8,0.1-5.5,0.2-8.1,0.3c-2.6,0.1-5.2,0.2-7.7,0.4c-4.6,0.2-9.2,0.7-13.8,1.5c-8.3,1.5-14.7,4-18.3,8.4
				l-27.7,5.9c16.2-0.5,17,0.9,14.2,2.8c-3.5-0.2-7-0.8-10.4-1.7c-7.2-0.4-21.6-7.8-22.9-4.2c1.9,1.1,3.6,2.6,5,4.4
				c-3.7-0.2-8.3-0.1-13.1-0.2c-12,0-24.7,0.5-24.2-2.5l-13.3,0.5c-2.2,0.1-4.4,0.1-6.7,0.1h-6.7c-8.9,0-17.7-0.1-26.5-0.2
				c-4.4,0-8.8-0.3-13.1-0.5l-13.1-0.7c-8.7-0.5-17.4-0.9-26-1.8l-25.7-2.3c-8.5-0.9-17-2-25.4-2.9c-4.2-0.5-8.4-0.9-12.6-1.4
				l-12.6-1.6L1017,40l-6.2-0.7l-6.2-0.8c2.3,2.5,4.6,5,6.9,7.5c-7.7-1-15.5-2.2-23.2-3.2c-5.9-2.3-7.5-6.1,9-3.8
				c-4.1-2.4-11.2-2.5-17.2-1.8s-11.3,2-11.6,2.7c-32.2-7,13.7-5.9,3.8-7.4l-13.8-1.1l3,1.2c-11.3,1.2-12.7,3.9-32.7,0.8
				c-12.5-3-6-4.9-10.9-5.8c0.1-0.5-1.6-0.9-7.6-1.2L880.8,22l11.2,6.7c-13.4,0.9-27.7-3.9-14.8,3.7c-3.2-1.8-6.6-3.1-10.2-4.1
				c-4.3-1.2-9.5-2.4-15.2-3.4s-11.9-2-18.4-3c-3.2-0.5-6.5-0.8-9.9-1.2l-10-1c-26.7-2.9-52.6-3.9-58.7-5.9c-4.7,0.6-9.3,0.9-14,1.1
				c-4.7,0.2-9.4,0.3-14.3,0.2c-9.7-0.2-19.9-0.9-31.2-1.8c2.8,0.7,4.9,2.6,4,4c-0.5,0.7-1.8,1.4-4.1,1.7c-1.5,0.2-2.9,0.3-4.4,0.2
				c-1.8,0-3.8,0-6.3-0.2c7.4-11.4-33-6.9-49.6-15c6.2,4.7-56,0.3-35,8.4c-16.3-1.2-0.9-4.5-13.3-7.6c-4.8,0.5-9.8,0.8-14.9,1
				s-10.2,0.4-15.5,0.4c-10.6,0-21.5-0.3-32.8-0.8l-17.1-0.7c-5.8-0.1-11.6-0.2-17.5-0.3c-11.7-0.1-23.7,0-35.6,0.8
				c-0.7,1.6,7.4,3.8-2.8,6.4c-4.3-1.2-8.5-2.3-12.8-3.4l-13-3.3c-9.4,1.2-8.3,9.5-25.8,4.9c2.5,1.2,6.2,3-0.1,3.9
				c-2.9-0.1-5.9-0.2-8.8-0.2s-5.9,0-8.8,0c-5.9,0.1-11.8,0.2-17.7,0.4c-5.9,0.2-11.9,0.4-17.8,0.8c-5.9,0.3-11.9,0.6-17.8,1.1
				c-11.9,1-23.8,2.1-35.8,3.3l-9,0.9c-3,0.3-6,0.7-9,1l-17.9,2c-47.8,5.4-95.7,10.9-144,10.6c13.2,1.3,4.8,2.7-5,4.3
				c6.4-0.2,0.4,3.9,2,5.8H78.8l-10.1,0.1C65.6,47.3,55,49.1,44.9,51c-5.1,0.9-10.1,1.8-14,2.9c-3.9,1.1-6.7,2.3-7.5,3.9
				c4.1-1.1,8.2-2.2,12.3-3.3c-7.7,4.8-1.2,7.4,7,10l2.7,0.8c-25,4.4-38.7,7.2-38.7,7.2v148.8h2143.8V100.8
				C2149.9,100.8,2150.1,33.7,2150.7,33.7z M1228,89.6c2.8-0.7-2.6-1.5,6.2-1.3l8.7-5.5l-0.8,0.3c-3.2-0.6-7-1.3-11.1-2.1
				C1231.8,80.5,1227.1,89.8,1228,89.6z M1374,73.5c-0.6,0.9-3,1.9-5.4,2.9c5.1-1,8.9-2.6,14.5-4.1h7c-38.3-2.5-5.3,11.9-4.6-11.4
				l-21.4,16.8C1367.3,76.4,1370.6,75,1374,73.5L1374,73.5z M1250.8,59.1c0.6,1.2,1.2,2.4,1.7,3.7
				C1246.4,61.8,1243.7,60.2,1250.8,59.1z M915,28.8l4.5,1.8C908.9,30.4,912,29.7,915,28.8z"/>
		</g>
	</g>
	<rect x="2111.9" y="31.8" class="st0" width="38.8" height="189.5"/>
	<rect x="3.5" y="71.4" class="st0" width="38.8" height="149.9"/>
</g>
</svg>
