<?xml version="1.0" encoding="utf-8"?>
<!-- Generator: Adobe Illustrator 23.0.3, SVG Export Plug-In . SVG Version: 6.00 Build 0)  -->
<svg version="1.1" id="Laag_1" xmlns="http://www.w3.org/2000/svg" xmlns:xlink="http://www.w3.org/1999/xlink" x="0px" y="0px"
	 viewBox="0 0 2147.7 221.1" style="enable-background:new 0 0 2147.7 221.1;" xml:space="preserve">
<style type="text/css">
	.st0{fill:#253A4C;}
	.st1{fill:#63676B;}
</style>
<title>Asset 2</title>
<g id="Layer_2">
	<g id="Layer_1-2">
		<path class="st0" d="M8.3,94.2c-6.3-0.3-4.1,3.4-5,4.1C13.9,97.5,8.1,93.2,8.3,94.2z"/>
		<polygon class="st0" points="113.2,85.6 111.4,87.2 126.8,83.4 		"/>
		<path class="st0" d="M211.3,85.7c-9.3-6.4-35.5,1-53-1.2l-2.9-1.4l-7.9,5.2C168.8,87.3,196.3,83.9,211.3,85.7z"/>
		<path class="st0" d="M263.6,99.6c-3.2-2.5,11.3-2.2-12.2-0.8c1.2,0.3,1.5,0.4,2.2,0.6C255.7,99.4,258.6,99.4,263.6,99.6z"/>
		<path class="st0" d="M301.3,98l-13.6,2.2c2.8,1.5,15,1.8,10.5,2.9C312.1,101.9,309.2,100.4,301.3,98z"/>
		<path class="st0" d="M314.2,93.3l-7.1,0.9C308.4,94.9,310.3,95.1,314.2,93.3z"/>
		<path class="st0" d="M292.2,96.3l15-2c-2-1-2.2-3.1-6.9,0.7C301.5,93.1,298.6,94.9,292.2,96.3z"/>
		<path class="st0" d="M283.7,95.3c-7.6-1.4-17.5-2.3-3.8-4.5C253.9,91.7,257.7,96.2,283.7,95.3z"/>
		<path class="st0" d="M216.3,79.1l-10.2-1.9l-8.8,2.2C201.7,78.3,216.9,81.1,216.3,79.1z"/>
		<path class="st0" d="M386.1,101.3c0.9-1.4-4.6-3.6-5.6-5.4l-10,1.6C375.6,98.5,385.4,99.3,386.1,101.3z"/>
		<path class="st0" d="M380.5,95.9l15-2.3C382.1,93.3,379.6,94.4,380.5,95.9z"/>
		<polygon class="st0" points="316.6,86.2 291.9,91.1 321.4,86.1 		"/>
		<polygon class="st0" points="443.5,101.5 434.9,104.7 450.1,99.9 		"/>
		<path class="st0" d="M481.6,101c-6.3,2.6,8.6,4.4,2,6c10.4-0.5,19.2-2.7,27.1-4.7C502.2,103.4,493.2,103.1,481.6,101z"/>
		<path class="st0" d="M524.1,99.3c-4.5,0.8-9,1.8-13.4,3C515.2,101.7,519.7,100.7,524.1,99.3z"/>
		<path class="st0" d="M421.1,94.3c1.2,0.8,3.4,3,11.8,3.9l-5.9-3.8L421.1,94.3z"/>
		<path class="st0" d="M426.9,94.2l0.2,0.1l12.8,0.2L426.9,94.2z"/>
		<path class="st0" d="M419.6,94.3h1.5C420.5,93.9,420.2,93.8,419.6,94.3z"/>
		<path class="st0" d="M356.1,89.7c8.8-2.2,27.2-4.5,9.4-7.7C359.1,84.6,369.3,86.4,356.1,89.7z"/>
		<path class="st0" d="M412.3,89.5l-16-0.9c0.3,1,3.2,2.5-1.2,3.6L412.3,89.5z"/>
		<polygon class="st0" points="420.1,88.2 412.3,89.5 418.2,89.8 		"/>
		<path class="st0" d="M496.7,95.7c6.9-1.7,14.5-1.8,23-2.1c-9.1-0.8-18.6-1.2-27.6-1.2C490.9,93.7,486.9,95.8,496.7,95.7z"/>
		<path class="st0" d="M462.7,94.6c0.5-0.1,1.1-0.1,1.5-0.2C463.3,94.1,462.6,94,462.7,94.6z"/>
		<path class="st0" d="M603.6,93.7c-0.5-0.2-0.9-0.5-1.3-0.7c-0.1,0.2-0.2,0.5-0.3,0.7H603.6z"/>
		<path class="st0" d="M490.6,91.8c-5-0.7-10.1-0.2-14.9,1.4c5.1-0.4,10.6-0.6,16.4-0.7C492.7,91.9,492.8,91.6,490.6,91.8z"/>
		<path class="st0" d="M547.5,97.5c-3.6-0.8-7.6-1.5-11.9-2.1C539.1,96.6,546.2,98.5,547.5,97.5z"/>
		<path class="st0" d="M466.6,95.5c-0.3,0.1-0.7,0.1-1,0.2C467.8,96.5,467.5,96.1,466.6,95.5z"/>
		<path class="st0" d="M466.6,95.5c3.1-0.6,6.1-1.3,9.1-2.3c-4.2,0.3-8.1,0.7-11.4,1.3C465.1,94.7,465.9,95,466.6,95.5z"/>
		<path class="st0" d="M629,69c-1.2,3.6-19.3,6.9-34.8,3c-15.3,2.7-5.3,14.4,8.1,21c0.5-1.6,0.5-3,16.3-5.1
			c-5.5-1.9-35-4.6-21.7-7.8c20.9-1.8,17.1,1.3,27.3,3.1c-8.6-4.4,26.6-6.5,22-13l-18.3,2.3C627.4,71.5,634.1,69.9,629,69z"/>
		<path class="st0" d="M572.2,92.6l-6.5,0.5c7.4,0.6,12.7,2,22.5,4.8c10.8-1.7,13-3.1,13.8-4.2l-32-0.5L572.2,92.6z"/>
		<path class="st0" d="M536.5,93.1c5.1-3.9,20.7-5.5,11.1-9.7c-19.1,0.3-13.4,3.2-24.8,4.9c30.8-1-8.8,2.2,13.4,4.4
			c-6,0.7-11.5,0.9-16.6,1c5.5,0.5,10.9,1,15.9,1.8l-0.7-0.2h-0.1v-0.1c-1.3-0.5-1.8-0.8-0.3-0.5c0.2-0.1,0.4-0.1,0.6-0.1
			C535.4,93.9,535.9,93.4,536.5,93.1c8.9,0.8,1.4,1-1.4,1.5c-0.1,0.2-0.3,0.4-0.4,0.6h0.1l30.8-2C559.1,92.5,551,92.6,536.5,93.1z"
			/>
		<path class="st0" d="M381.9,73.6c1,0.3,0.9,0.6,1,0.9C384.9,74,385.6,73.7,381.9,73.6z"/>
		<path class="st0" d="M394.6,75.9c-2.2,0.5-4.1,2.1-11.4,1.7c-6.3-1.2,0-1.8-0.3-3.1c-4.4,1-15.4,2.8-1.6,4.7l2.2-0.5
			c12.4,1.3,28.3,6.2,26.2,6.7C406.1,81.8,402.9,79.4,394.6,75.9z"/>
		<path class="st0" d="M466.4,83.5l25.6-1.9l-13-3.4l0.7,2C465.1,79.5,468.2,82,466.4,83.5z"/>
		<polygon class="st0" points="606.5,95.6 603.1,99.7 617.9,93.9 		"/>
		<polygon class="st0" points="639.8,95.1 638.6,98.7 647.4,96.5 		"/>
		<path class="st0" d="M2019.1,79.7l-3.1-1.5c-2.8,1.1-5.4,2.1-7.7,3.1C2011.5,80.8,2015.2,80.3,2019.1,79.7z"/>
		<path class="st0" d="M2028.2,64.3l14.2,3.8C2037.8,66.5,2033,65.2,2028.2,64.3z"/>
		<path class="st0" d="M407.9,47.9c-0.8-0.1-1.7-0.2-2.5-0.3C405.2,48.1,406.3,48.1,407.9,47.9z"/>
		<path class="st0" d="M91,39.8c3-0.7,8.1-1.5,12.8-2.2C101.4,37.6,97.6,38.3,91,39.8z"/>
		<path class="st0" d="M2027.1,66.1c1,0.5,1.7,1.4,2,2.5C2031.1,68.1,2031.2,67.2,2027.1,66.1z"/>
		<path class="st0" d="M567.8,71.9c-2.2,0.5-4.7,0-7,0.6l0.6,2C571,74.4,577.7,72.7,567.8,71.9z"/>
		<path class="st0" d="M686.6,84.3c-1.2-3.7-10.8-2.4-21.6-1.7h1.9C663.8,87.7,675.2,86,686.6,84.3z"/>
		<path class="st0" d="M662.6,82.7c-3.3,0.2-6.6,0.2-9.9,0.1C651.4,84.9,656.7,83.2,662.6,82.7z"/>
		<polygon class="st0" points="677.9,72.3 681.8,76.8 687.8,73.2 		"/>
		<path class="st0" d="M38.2,43.4c-4.8,0.2-9.7,0.4-14.6,0.6c3.2,0.4,6.5,0.9,9.7,1.4L38.2,43.4z"/>
		<path class="st0" d="M12.1,55l-4.5-5.1l-7.5,6.9C3.4,55.9,9.4,54.2,12.1,55z"/>
		<path class="st0" d="M1947,86.4l1.3-1.2c-1.9-1.9-5.2-2.6-11.7-4L1947,86.4z"/>
		<path class="st1" d="M631.5,3.9c-0.4-0.3-0.9-0.6-1.4-0.8C630.5,3.4,631,3.7,631.5,3.9z"/>
		<path class="st1" d="M2147.7,34c0-0.4,0-0.8,0-1.2s0,0,0-1.1c0-1.1-10.4-2.9-17.4-3.5c-6.8-0.6-12.7-0.2-17.3,0.4
			c-5.4-2.1,3-3.3,1.5-5.6c-11,0.7-17.5,1.1-22.5,1.4c-8.3-1.3-7.1,1-32.9-7.8l1.3,4.6c-5.4,8.4,25.4,8.1,1.9,7.4l-15.7-12.1
			c-13,0.8,15.6,16.2,3.2,12.8c-2.6-1.3,4.6-0.5,8.5-0.4c-31.9-11.4-5.3,4.8-30,1.6c-4-3.8,7.2-6.6-9.2-10.1
			c-3.9-1.9-84.5,7-98.6,6.6s-44.2-3.5-54.9-8.4c4.6,3.2,9.1,6.3-2.6,6.1c-17.6-2.1-45.9-16.7-63-11.9c-1.8-0.8-2.6-1.5-2.8-2
			c4.8,0.1,7.6-0.2,6.8-1.3c-4.7,0-6.8,0.5-6.8,1.3c0-0.1,0-0.2,0-0.3c-3.4-0.1-7.9-0.3-12.8-0.6s-10.3-0.6-15.5-0.8
			c-10.4-0.5-20.3-0.4-24.7,1.1c-0.7-1-1.6-1.9-2.6-2.6c-0.6-0.4-1.2-0.8-1.8-1.1l-1-0.5l-0.3-0.1l-0.7-0.1c-0.5-0.1-1-0.2-1.5-0.2
			h1.1c-5.4-1.6-13-2.3-21.4-2.4c-4.2-0.1-8.6,0-13,0.1l-13,0.8c-4.2,0.3-8.3,0.5-12,0.6c-1.8,0-3.6,0.1-5.2,0s-3.2,0-4.6-0.1
			c-5.6-0.3-9.1-1.6-9-4.6c-14.2,0.1-28.4,1-42.5,1.9l1-1.5c-6.8,0.3-12.5,0.7-17.4,1.3c-2.4,0.3-4.7,0.6-6.7,1s-3.9,0.9-5.6,1.3
			c-5.5,1.5-10.8,3.6-15.9,6.2c-3.2-0.1-3.6-0.6-3.3-1.2s1.6-1.2,1.8-1.6c-9.9,0.6-17.5,1.2-24,1.9c-5.5,0.6-10.9,1.6-16.3,2.8
			c-2.4,0.6-4.8,1.2-7.3,1.9s-4.9,1.6-7.6,2.5c-5.3,1.9-11.4,4.3-19.1,7.4l-4.1-3.8c-4.1,2.1-18.3,2.8-35.9,4.4
			c-4.4,0.4-9,0.9-13.8,1.4s-9.6,1.1-14.5,1.9s-9.8,1.5-14.6,2.5s-9.6,2.1-14.2,3.4c0.3-0.6,1-1.5,3.8-2.6c-2.6,0.7-5.2,1.4-8,1.9
			c-2.7,0.6-5.5,1-8.3,1.4c-5.7,0.8-11.5,1.4-17.4,1.8c-2.9,0.2-5.9,0.4-8.8,0.6l-8.8,0.3l-17.1,0.5c-2.8,0.1-5.5,0.2-8.1,0.3
			s-5.2,0.2-7.7,0.4c-4.6,0.2-9.2,0.7-13.8,1.5c-8.3,1.5-14.7,4-18.3,8.4l-27.7,5.9c16.2-0.5,17,0.9,14.2,2.8
			c-3.5-0.2-7-0.8-10.4-1.7c-7.2-0.4-21.6-7.8-22.9-4.2c1.9,1.1,3.6,2.6,5,4.4c-3.7-0.2-8.3-0.1-13.1-0.2c-12,0-24.7,0.5-24.2-2.4
			l-13.3,0.5c-2.2,0.1-4.4,0.1-6.7,0.1h-6.7c-8.9,0-17.7-0.1-26.5-0.2c-4.4,0-8.8-0.3-13.1-0.5l-13.1-0.7c-8.7-0.5-17.4-0.9-26-1.8
			l-25.7-2.3c-8.5-0.9-17-2-25.4-2.9c-4.2-0.5-8.4-0.9-12.6-1.4l-12.6-1.6l-12.5-1.6l-6.2-0.7l-6.2-0.8c2.3,2.5,4.6,5,6.9,7.5
			c-7.7-1-15.5-2.2-23.2-3.2c-5.9-2.3-7.5-6.1,9-3.8c-4.1-2.4-11.2-2.5-17.2-1.8c-6.1,0.7-11.3,2-11.6,2.7c-32.2-7,13.7-5.9,3.8-7.4
			l-13.6-1.6l3,1.2c-11.3,1.2-12.7,3.9-32.7,0.9c-12.5-3-6-4.9-10.9-5.8c0.1-0.5-1.6-0.9-7.6-1.2L877.4,22l11.2,6.7
			c-13.4,0.8-27.7-3.9-14.8,3.7c-3.2-1.8-6.6-3.1-10.2-4.1c-4.3-1.2-9.5-2.4-15.2-3.4s-11.9-2-18.4-2.9c-3.2-0.5-6.5-0.8-9.9-1.2
			l-10-1.1c-26.7-2.9-52.6-3.9-58.7-5.9c-4.7,0.6-9.3,0.9-14,1.1c-4.7,0.1-9.4,0.3-14.3,0.2c-9.7-0.2-19.9-0.9-31.2-1.8
			c2.8,0.7,4.9,2.6,4,4c-0.5,0.7-1.8,1.3-4.1,1.7c-1.5,0.2-2.9,0.3-4.4,0.2c-1.8,0-3.8,0-6.3-0.2c7.4-11.4-33-6.9-49.6-15
			c6.2,4.7-56,0.3-35,8.4c-16.3-1.2-0.9-4.5-13.3-7.6c-4.8,0.5-9.8,0.8-14.9,1s-10.2,0.3-15.5,0.3c-10.6,0-21.5-0.4-32.8-0.8
			l-17.1-0.7c-5.8-0.1-11.6-0.2-17.5-0.3c-11.7-0.1-23.7,0-35.6,0.8c-0.7,1.6,7.4,3.8-2.8,6.4c-4.3-1.2-8.5-2.3-12.8-3.4l-13-3.3
			c-9.4,1.2-8.3,9.5-25.8,4.9c2.5,1.2,6.2,3-0.1,3.9c-2.9-0.1-5.9-0.2-8.8-0.2s-5.9,0-8.8,0c-5.9,0.1-11.8,0.2-17.7,0.4
			s-11.9,0.2-17.8,0.5s-11.9,0.6-17.8,1.1c-11.9,1-23.8,2.1-35.8,3.3l-9,0.9c-3,0.3-6,0.7-9,1l-17.9,2c-47.8,5.4-95.7,10.9-144,10.6
			c13.2,1.3,4.8,2.7-5,4.3c6.4-0.2,0.4,3.9,2,5.8H75.4l-10.1,0.1c-3.1,3.5-13.7,5.3-23.8,7.2c-5.1,0.9-10.1,1.8-14,2.9
			c-3.9,1.1-6.7,2.3-7.5,3.9c4.1-1.1,8.2-2.2,12.3-3.3c-7.7,4.8-1.2,7.4,7,10l2.7,0.8c-25,4.4-38.7,7.2-38.7,7.2v148.8h2143.8
			L2147.7,34z M1224.6,89.5c2.8-0.7-2.6-1.5,6.2-1.3l8.7-5.5l-0.8,0.3c-3.2-0.6-7-1.3-11.1-2.1C1228.4,80.4,1223.6,89.7,1224.6,89.5
			z M1370.6,73.4c-0.6,0.9-3,1.9-5.4,2.9c5.1-1,8.9-2.6,14.5-4.1h7c-38.3-2.5-5.3,11.9-4.6-11.4l-21.4,16.8
			C1363.9,76.3,1367.1,74.9,1370.6,73.4L1370.6,73.4z M1247.4,59c0.6,1.2,1.2,2.4,1.7,3.7C1242.9,61.7,1240.3,60.1,1247.4,59z
			 M911.6,28.7l4.5,1.8C905.4,30.3,908.5,29.6,911.6,28.7z"/>
	</g>
</g>
</svg>
