<?xml version="1.0" encoding="utf-8"?>
<!-- Generator: Adobe Illustrator 23.0.3, SVG Export Plug-In . SVG Version: 6.00 Build 0)  -->
<svg version="1.1" id="Layer_1" xmlns="http://www.w3.org/2000/svg" xmlns:xlink="http://www.w3.org/1999/xlink" x="0px" y="0px"
	 viewBox="0 0 2147.7 221.1" style="enable-background:new 0 0 2147.7 221.1;" xml:space="preserve">
<style type="text/css">
	.st0{fill:#E4E4E4;}
</style>
<title>Asset 2</title>
<g>
	<g>
		<g id="Layer_1-2_1_">
			<path class="st0" d="M10.1,94.3c-6.3-0.3-4.1,3.4-5,4.1C15.7,97.6,9.8,93.3,10.1,94.3z"/>
			<polygon class="st0" points="115,85.7 113.1,87.3 128.6,83.5 			"/>
			<path class="st0" d="M213,85.8c-9.3-6.4-35.5,1-53-1.2l-2.9-1.4l-7.9,5.2C170.5,87.4,198.1,84,213,85.8z"/>
			<path class="st0" d="M265.3,99.7c-3.2-2.5,11.3-2.2-12.2-0.8c1.2,0.3,1.5,0.4,2.2,0.6C257.4,99.5,260.4,99.5,265.3,99.7z"/>
			<path class="st0" d="M303,98.1l-13.6,2.2c2.8,1.5,15,1.8,10.5,2.9C313.8,102,311,100.5,303,98.1z"/>
			<path class="st0" d="M315.9,93.4l-7.1,0.9C310.1,95,312,95.2,315.9,93.4z"/>
			<path class="st0" d="M293.9,96.4l15-2c-2-1-2.2-3.1-6.9,0.7C303.2,93.2,300.3,95,293.9,96.4z"/>
			<path class="st0" d="M285.5,95.4c-7.6-1.4-17.5-2.3-3.8-4.5C255.6,91.8,259.4,96.3,285.5,95.4z"/>
			<path class="st0" d="M218,79.2l-10.2-1.9l-8.8,2.2C203.4,78.3,218.7,81.2,218,79.2z"/>
			<path class="st0" d="M387.8,101.4c0.9-1.4-4.6-3.6-5.6-5.4l-10,1.6C377.3,98.5,387.1,99.4,387.8,101.4z"/>
			<path class="st0" d="M382.2,96l15-2.3C383.8,93.4,381.3,94.5,382.2,96z"/>
			<polygon class="st0" points="318.4,86.3 293.7,91.2 323.1,86.2 			"/>
			<polygon class="st0" points="445.2,101.6 436.7,104.8 451.9,100 			"/>
			<path class="st0" d="M483.3,101.1c-6.3,2.6,8.6,4.4,2,6c10.4-0.5,19.2-2.7,27.1-4.7C504,103.5,495,103.2,483.3,101.1z"/>
			<path class="st0" d="M525.8,99.4c-4.5,0.8-9,1.8-13.4,3C517,101.8,521.4,100.8,525.8,99.4z"/>
			<path class="st0" d="M422.8,94.4c1.2,0.8,3.4,3,11.8,3.9l-5.9-3.8L422.8,94.4z"/>
			<path class="st0" d="M428.6,94.3l0.2,0.1l12.8,0.2L428.6,94.3z"/>
			<path class="st0" d="M421.4,94.3h1.5C422.3,94,421.9,93.9,421.4,94.3z"/>
			<path class="st0" d="M357.8,89.8c8.8-2.2,27.2-4.5,9.4-7.7C360.9,84.7,371.1,86.5,357.8,89.8z"/>
			<path class="st0" d="M414,89.5l-16-0.9c0.3,1,3.2,2.5-1.2,3.6L414,89.5z"/>
			<polygon class="st0" points="421.8,88.3 414,89.5 419.9,89.9 			"/>
			<path class="st0" d="M498.4,95.8c6.9-1.7,14.5-1.8,23-2.1c-9.1-0.8-18.6-1.2-27.5-1.2C492.6,93.8,488.6,95.9,498.4,95.8z"/>
			<path class="st0" d="M464.5,94.7c0.5-0.1,1.1-0.1,1.5-0.2C465.1,94.2,464.3,94.1,464.5,94.7z"/>
			<path class="st0" d="M605.3,93.8c-0.5-0.2-0.9-0.5-1.3-0.7c-0.1,0.2-0.2,0.5-0.3,0.7H605.3z"/>
			<path class="st0" d="M492.3,91.9c-5-0.7-10.1-0.2-14.9,1.4c5.1-0.4,10.6-0.6,16.4-0.7C494.4,92,494.5,91.7,492.3,91.9z"/>
			<path class="st0" d="M549.2,97.6c-3.6-0.8-7.6-1.5-11.9-2.1C540.8,96.7,547.9,98.6,549.2,97.6z"/>
			<path class="st0" d="M468.3,95.6c-0.3,0.1-0.7,0.1-1,0.2C469.5,96.6,469.3,96.2,468.3,95.6z"/>
			<path class="st0" d="M468.3,95.6c3.1-0.6,6.1-1.3,9.1-2.3c-4.2,0.3-8.1,0.7-11.4,1.3C466.8,94.8,467.6,95.1,468.3,95.6z"/>
			<path class="st0" d="M630.7,69.1c-1.2,3.6-19.3,6.9-34.8,3c-15.3,2.7-5.3,14.4,8.1,21c0.5-1.6,0.5-3,16.3-5.1
				c-5.5-1.9-35-4.6-21.7-7.8c20.9-1.8,17.1,1.3,27.3,3.1c-8.6-4.4,26.6-6.5,22-13l-18.3,2.3C629.2,71.6,635.8,70,630.7,69.1z"/>
			<path class="st0" d="M573.9,92.7l-6.5,0.5c7.4,0.6,12.7,2,22.5,4.8c10.8-1.7,13-3.1,13.8-4.2l-32-0.5L573.9,92.7z"/>
			<path class="st0" d="M538.2,93.2c5.1-3.9,20.7-5.5,11.1-9.7c-19.1,0.3-13.4,3.2-24.8,4.9c30.8-1-8.8,2.2,13.4,4.4
				c-6,0.7-11.5,0.9-16.6,1c5.5,0.5,10.9,1,15.9,1.8l-0.7-0.2h-0.1v-0.1c-1.3-0.5-1.8-0.8-0.3-0.5c0.2-0.1,0.4-0.1,0.6-0.1
				C537.2,94,537.6,93.5,538.2,93.2c8.9,0.8,1.4,1-1.4,1.5c-0.1,0.2-0.3,0.4-0.4,0.6h0.1l30.8-2C560.9,92.6,552.7,92.7,538.2,93.2z"
				/>
			<path class="st0" d="M383.6,73.7c1,0.3,0.9,0.6,1,0.9C386.6,74.1,387.4,73.8,383.6,73.7z"/>
			<path class="st0" d="M396.3,76c-2.2,0.5-4.1,2.1-11.4,1.7c-6.3-1.2,0-1.8-0.3-3.1c-4.4,1-15.4,2.8-1.6,4.7l2.2-0.5
				c12.4,1.3,28.3,6.2,26.2,6.7C407.8,81.9,404.6,79.5,396.3,76z"/>
			<path class="st0" d="M468.2,83.6l25.6-1.9l-13-3.4l0.7,2C466.8,79.6,470,82.1,468.2,83.6z"/>
			<polygon class="st0" points="608.2,95.7 604.8,99.8 619.7,94 			"/>
			<polygon class="st0" points="641.6,95.2 640.3,98.8 649.1,96.6 			"/>
			<path class="st0" d="M2020.8,79.8l-3.1-1.5c-2.8,1.1-5.4,2.1-7.7,3.1C2013.3,80.9,2017,80.4,2020.8,79.8z"/>
			<path class="st0" d="M2030,64.4l14.2,3.8C2039.5,66.6,2034.8,65.3,2030,64.4z"/>
			<path class="st0" d="M409.6,48c-0.8-0.1-1.7-0.2-2.5-0.3C407,48.2,408,48.2,409.6,48z"/>
			<path class="st0" d="M92.7,39.9c3-0.7,8.1-1.5,12.8-2.2C103.2,37.7,99.3,38.3,92.7,39.9z"/>
			<path class="st0" d="M2028.8,66.2c1,0.5,1.7,1.4,2,2.5C2032.8,68.2,2033,67.3,2028.8,66.2z"/>
			<path class="st0" d="M569.5,72c-2.2,0.5-4.7,0-7,0.6l0.6,2C572.7,74.5,579.4,72.8,569.5,72z"/>
			<path class="st0" d="M688.3,84.4c-1.2-3.7-10.8-2.4-21.6-1.7h1.9C665.5,87.8,677,86.1,688.3,84.4z"/>
			<path class="st0" d="M664.3,82.8c-3.3,0.2-6.6,0.2-9.9,0.1C653.1,84.9,658.4,83.3,664.3,82.8z"/>
			<polygon class="st0" points="679.7,72.4 683.5,76.9 689.5,73.3 			"/>
			<path class="st0" d="M39.9,43.5c-4.8,0.2-9.7,0.4-14.5,0.6c3.2,0.4,6.5,0.9,9.7,1.4L39.9,43.5z"/>
			<path class="st0" d="M13.9,55.1L9.4,50l-7.6,6.9C5.1,55.9,11.2,54.3,13.9,55.1z"/>
			<path class="st0" d="M1948.7,86.5l1.3-1.2c-1.9-1.9-5.2-2.6-11.7-4L1948.7,86.5z"/>
			<path class="st0" d="M633.2,4c-0.4-0.3-0.9-0.6-1.4-0.8C632.3,3.5,632.7,3.8,633.2,4z"/>
			<path class="st0" d="M2149.1,33.7c0-0.4-0.5-0.8-0.5-1.4c0-0.3-0.1-0.5-0.1-0.5c0-0.5-8.1-1.5-33.6-3.1c-5.4-2.1,3-3.3,1.5-5.6
				c-11,0.7-17.5,1-22.5,1.4c-8.3-1.3-7.1,1-32.9-7.8l1.3,4.6c-5.4,8.4,25.4,8.1,1.9,7.4l-15.7-12.1c-13,0.8,15.6,16.2,3.2,12.8
				c-2.6-1.3,4.6-0.5,8.5-0.4c-31.9-11.4-5.3,4.8-30,1.6c-4-3.8,7.2-6.6-9.2-10.1c-3.9-1.9-84.5,7-98.6,6.6
				c-14.1-0.4-44.2-3.5-54.9-8.4c4.6,3.2,9.1,6.3-2.6,6.1c-17.6-2.1-45.9-16.7-63-11.9c-1.8-0.9-2.6-1.5-2.8-2.1
				c4.8,0.1,7.6-0.2,6.8-1.3c-4.7,0-6.8,0.4-6.8,1.3c0-0.1,0-0.2,0-0.3c-3.4-0.1-7.9-0.3-12.8-0.6c-4.9-0.3-10.3-0.6-15.5-0.8
				c-10.4-0.5-20.3-0.4-24.7,1.1c-0.7-1-1.6-1.9-2.6-2.6c-0.6-0.4-1.2-0.8-1.8-1.1l-1-0.5l-0.3-0.1l-0.7-0.2c-0.5-0.1-1-0.2-1.5-0.2
				h1.1c-5.4-1.6-13-2.3-21.4-2.5c-4.2-0.1-8.6,0-13,0.1l-13,0.8c-4.2,0.3-8.3,0.5-12,0.6c-1.8,0-3.6,0.1-5.2,0
				c-1.6-0.1-3.2,0-4.6-0.1c-5.6-0.3-9.1-1.6-9-4.6c-14.2,0.1-28.4,1-42.5,1.9l1-1.5c-6.8,0.3-12.5,0.7-17.4,1.3
				c-2.4,0.3-4.7,0.6-6.7,1s-3.9,0.9-5.6,1.3c-5.5,1.5-10.8,3.6-15.9,6.2c-3.2-0.1-3.6-0.6-3.3-1.2c0.3-0.6,1.6-1.2,1.8-1.6
				c-9.9,0.6-17.5,1.2-24,1.8c-5.5,0.6-10.9,1.6-16.3,2.8c-2.4,0.6-4.8,1.2-7.3,1.9s-4.9,1.6-7.6,2.5c-5.3,1.9-11.4,4.3-19.1,7.4
				l-4.1-3.8c-4.1,2-18.3,2.8-35.9,4.4c-4.4,0.4-9,0.9-13.8,1.4s-9.6,1.1-14.5,1.9s-9.8,1.5-14.6,2.5s-9.6,2.1-14.2,3.4
				c0.3-0.5,1-1.5,3.8-2.6c-2.6,0.7-5.2,1.4-8,1.9c-2.7,0.6-5.5,1-8.3,1.4c-5.7,0.8-11.5,1.4-17.4,1.8c-2.9,0.2-5.9,0.4-8.8,0.6
				l-8.8,0.3l-17.1,0.5c-2.8,0.1-5.5,0.2-8.1,0.3c-2.6,0.1-5.2,0.2-7.7,0.4c-4.6,0.2-9.2,0.7-13.8,1.5c-8.3,1.5-14.7,4-18.3,8.4
				l-27.7,5.9c16.2-0.5,17,0.9,14.2,2.8c-3.5-0.2-7-0.8-10.4-1.7c-7.2-0.4-21.6-7.8-22.9-4.2c1.9,1.1,3.6,2.6,5,4.4
				c-3.7-0.2-8.3-0.1-13.1-0.2c-12,0-24.7,0.5-24.2-2.5l-13.3,0.5c-2.2,0.1-4.4,0.1-6.7,0.1h-6.7c-8.9,0-17.7-0.1-26.5-0.2
				c-4.4,0-8.8-0.3-13.1-0.5l-13.1-0.7c-8.7-0.5-17.4-0.9-26-1.8l-25.7-2.3c-8.5-0.9-17-2-25.4-2.9c-4.2-0.5-8.4-0.9-12.6-1.4
				l-12.6-1.6l-12.5-1.6l-6.2-0.7l-6.2-0.8c2.3,2.5,4.6,5,6.9,7.5c-7.7-1-15.5-2.2-23.2-3.2c-5.9-2.3-7.5-6.1,9-3.8
				c-4.1-2.4-11.2-2.5-17.2-1.8s-11.3,2-11.6,2.7c-32.2-7,13.7-5.9,3.8-7.4l-13.8-1.1l3,1.2c-11.3,1.2-12.7,3.9-32.7,0.8
				c-12.5-3-6-4.9-10.9-5.8c0.1-0.5-1.6-0.9-7.6-1.2L879.1,22l11.2,6.7c-13.4,0.9-27.7-3.9-14.8,3.7c-3.2-1.8-6.6-3.1-10.2-4.1
				c-4.3-1.2-9.5-2.4-15.2-3.4s-11.9-2-18.4-3c-3.2-0.5-6.5-0.8-9.9-1.2l-10-1c-26.7-2.9-52.6-3.9-58.7-5.9c-4.7,0.6-9.3,0.9-14,1.1
				c-4.7,0.2-9.4,0.3-14.3,0.2c-9.7-0.2-19.9-0.9-31.2-1.8c2.8,0.7,4.9,2.6,4,4c-0.5,0.7-1.8,1.4-4.1,1.7c-1.5,0.2-2.9,0.3-4.4,0.2
				c-1.8,0-3.8,0-6.3-0.2c7.4-11.4-33-6.9-49.6-15c6.2,4.7-56,0.3-35,8.4c-16.3-1.2-0.9-4.5-13.3-7.6c-4.8,0.5-9.8,0.8-14.9,1
				s-10.2,0.4-15.5,0.4c-10.6,0-21.5-0.3-32.8-0.8l-17.1-0.7c-5.8-0.1-11.6-0.2-17.5-0.3c-11.7-0.1-23.7,0-35.6,0.8
				c-0.7,1.6,7.4,3.8-2.8,6.4c-4.3-1.2-8.5-2.3-12.8-3.4l-13-3.3c-9.4,1.2-8.3,9.5-25.8,4.9c2.5,1.2,6.2,3-0.1,3.9
				c-2.9-0.1-5.9-0.2-8.8-0.2s-5.9,0-8.8,0c-5.9,0.1-11.8,0.2-17.7,0.4c-5.9,0.2-11.9,0.4-17.8,0.8c-5.9,0.3-11.9,0.6-17.8,1.1
				c-11.9,1-23.8,2.1-35.8,3.3l-9,0.9c-3,0.3-6,0.7-9,1l-17.9,2c-47.8,5.4-95.7,10.9-144,10.6c13.2,1.3,4.8,2.7-5,4.3
				c6.4-0.2,0.4,3.9,2,5.8H77.1L67,43.8c-3.1,3.5-13.7,5.3-23.8,7.2c-5.1,0.9-10.1,1.8-14,2.9c-3.9,1.1-6.7,2.3-7.5,3.9
				c4.1-1.1,8.2-2.2,12.3-3.3c-7.7,4.8-1.2,7.4,7,10l2.7,0.8C18.7,69.7,5,72.5,5,72.5v148.8h2143.8V100.8
				C2148.2,100.8,2148.5,33.7,2149.1,33.7z M1226.3,89.6c2.8-0.7-2.6-1.5,6.2-1.3l8.7-5.5l-0.8,0.3c-3.2-0.6-7-1.3-11.1-2.1
				C1230.1,80.5,1225.4,89.8,1226.3,89.6z M1372.3,73.5c-0.6,0.9-3,1.9-5.4,2.9c5.1-1,8.9-2.6,14.5-4.1h7
				c-38.3-2.5-5.3,11.9-4.6-11.4l-21.4,16.8C1365.6,76.4,1368.9,75,1372.3,73.5L1372.3,73.5z M1249.1,59.1c0.6,1.2,1.2,2.4,1.7,3.7
				C1244.7,61.8,1242,60.2,1249.1,59.1z M913.3,28.8l4.5,1.8C907.2,30.4,910.3,29.7,913.3,28.8z"/>
		</g>
	</g>
	<rect x="2110.2" y="31.8" class="st0" width="38.8" height="189.5"/>
	<rect x="1.8" y="71.4" class="st0" width="38.8" height="149.9"/>
</g>
</svg>
