<?xml version="1.0" encoding="utf-8"?>
<!-- Generator: Adobe Illustrator 23.0.3, SVG Export Plug-In . SVG Version: 6.00 Build 0)  -->
<svg version="1.1" id="Layer_1" xmlns="http://www.w3.org/2000/svg" xmlns:xlink="http://www.w3.org/1999/xlink" x="0px" y="0px"
	 viewBox="0 0 2147.7 221.1" style="enable-background:new 0 0 2147.7 221.1;" xml:space="preserve">
<style type="text/css">
	.st0{fill:#0AC868;}
</style>
<title>Asset 2</title>
<g>
	<g id="Layer_1-2">
		<path class="st0" d="M6.4,94.3c-6.3-0.3-4.1,3.4-5,4.1C12,97.6,6.1,93.3,6.4,94.3z"/>
		<polygon class="st0" points="111.3,85.7 109.4,87.3 124.9,83.5 		"/>
		<path class="st0" d="M209.3,85.8c-9.3-6.4-35.5,1-53-1.2l-2.9-1.4l-7.9,5.2C166.8,87.4,194.4,84,209.3,85.8z"/>
		<path class="st0" d="M261.6,99.7c-3.2-2.5,11.3-2.2-12.2-0.8c1.2,0.3,1.5,0.4,2.2,0.6C253.7,99.5,256.7,99.5,261.6,99.7z"/>
		<path class="st0" d="M299.3,98.1l-13.6,2.2c2.8,1.5,15,1.8,10.5,2.9C310.1,102,307.3,100.5,299.3,98.1z"/>
		<path class="st0" d="M312.2,93.4l-7.1,0.9C306.4,95,308.3,95.2,312.2,93.4z"/>
		<path class="st0" d="M290.2,96.4l15-2c-2-1-2.2-3.1-6.9,0.7C299.5,93.2,296.6,95,290.2,96.4z"/>
		<path class="st0" d="M281.8,95.4c-7.6-1.4-17.5-2.3-3.8-4.5C251.9,91.8,255.7,96.3,281.8,95.4z"/>
		<path class="st0" d="M214.3,79.2l-10.2-1.9l-8.8,2.2C199.7,78.3,215,81.2,214.3,79.2z"/>
		<path class="st0" d="M384.1,101.4c0.9-1.4-4.6-3.6-5.6-5.4l-10,1.6C373.6,98.5,383.4,99.4,384.1,101.4z"/>
		<path class="st0" d="M378.5,96l15-2.3C380.1,93.4,377.6,94.5,378.5,96z"/>
		<polygon class="st0" points="314.7,86.3 290,91.2 319.4,86.2 		"/>
		<polygon class="st0" points="441.5,101.6 433,104.8 448.2,100 		"/>
		<path class="st0" d="M479.6,101.1c-6.3,2.6,8.6,4.4,2,6c10.4-0.5,19.2-2.7,27.1-4.7C500.3,103.5,491.3,103.2,479.6,101.1z"/>
		<path class="st0" d="M522.1,99.4c-4.5,0.8-9,1.8-13.4,3C513.3,101.8,517.7,100.8,522.1,99.4z"/>
		<path class="st0" d="M419.1,94.4c1.2,0.8,3.4,3,11.8,3.9l-5.9-3.8L419.1,94.4z"/>
		<path class="st0" d="M424.9,94.3l0.2,0.1l12.8,0.2L424.9,94.3z"/>
		<path class="st0" d="M417.7,94.3h1.5C418.6,94,418.2,93.9,417.7,94.3z"/>
		<path class="st0" d="M354.1,89.8c8.8-2.2,27.2-4.5,9.4-7.7C357.2,84.7,367.4,86.5,354.1,89.8z"/>
		<path class="st0" d="M410.3,89.5l-16-0.9c0.3,1,3.2,2.5-1.2,3.6L410.3,89.5z"/>
		<polygon class="st0" points="418.1,88.3 410.3,89.5 416.2,89.9 		"/>
		<path class="st0" d="M494.7,95.8c6.9-1.7,14.5-1.8,23-2.1c-9.1-0.8-18.6-1.2-27.5-1.2C488.9,93.8,484.9,95.9,494.7,95.8z"/>
		<path class="st0" d="M460.8,94.7c0.5-0.1,1.1-0.1,1.5-0.2C461.4,94.2,460.6,94.1,460.8,94.7z"/>
		<path class="st0" d="M601.6,93.8c-0.5-0.2-0.9-0.5-1.3-0.7c-0.1,0.2-0.2,0.5-0.3,0.7H601.6z"/>
		<path class="st0" d="M488.6,91.9c-5-0.7-10.1-0.2-14.9,1.4c5.1-0.4,10.6-0.6,16.4-0.7C490.7,92,490.8,91.7,488.6,91.9z"/>
		<path class="st0" d="M545.5,97.6c-3.6-0.8-7.6-1.5-11.9-2.1C537.1,96.7,544.2,98.6,545.5,97.6z"/>
		<path class="st0" d="M464.6,95.6c-0.3,0.1-0.7,0.1-1,0.2C465.8,96.6,465.6,96.2,464.6,95.6z"/>
		<path class="st0" d="M464.6,95.6c3.1-0.6,6.1-1.3,9.1-2.3c-4.2,0.3-8.1,0.7-11.4,1.3C463.1,94.8,463.9,95.1,464.6,95.6z"/>
		<path class="st0" d="M627,69.1c-1.2,3.6-19.3,6.9-34.8,3c-15.3,2.7-5.3,14.4,8.1,21c0.5-1.6,0.5-3,16.3-5.1
			c-5.5-1.9-35-4.6-21.7-7.8c20.9-1.8,17.1,1.3,27.3,3.1c-8.6-4.4,26.6-6.5,22-13l-18.3,2.3C625.5,71.6,632.1,70,627,69.1z"/>
		<path class="st0" d="M570.2,92.7l-6.5,0.5c7.4,0.6,12.7,2,22.5,4.8c10.8-1.7,13-3.1,13.8-4.2l-32-0.5L570.2,92.7z"/>
		<path class="st0" d="M534.5,93.2c5.1-3.9,20.7-5.5,11.1-9.7c-19.1,0.3-13.4,3.2-24.8,4.9c30.8-1-8.8,2.2,13.4,4.4
			c-6,0.7-11.5,0.9-16.6,1c5.5,0.5,10.9,1,15.9,1.8l-0.7-0.2h-0.1v-0.1c-1.3-0.5-1.8-0.8-0.3-0.5c0.2-0.1,0.4-0.1,0.6-0.1
			C533.5,94,533.9,93.5,534.5,93.2c8.9,0.8,1.4,1-1.4,1.5c-0.1,0.2-0.3,0.4-0.4,0.6h0.1l30.8-2C557.2,92.6,549,92.7,534.5,93.2z"/>
		<path class="st0" d="M379.9,73.7c1,0.3,0.9,0.6,1,0.9C382.9,74.1,383.7,73.8,379.9,73.7z"/>
		<path class="st0" d="M392.6,76c-2.2,0.5-4.1,2.1-11.4,1.7c-6.3-1.2,0-1.8-0.3-3.1c-4.4,1-15.4,2.8-1.6,4.7l2.2-0.5
			c12.4,1.3,28.3,6.2,26.2,6.7C404.1,81.9,400.9,79.5,392.6,76z"/>
		<path class="st0" d="M464.5,83.6l25.6-1.9l-13-3.4l0.7,2C463.1,79.6,466.3,82.1,464.5,83.6z"/>
		<polygon class="st0" points="604.5,95.7 601.1,99.8 616,94 		"/>
		<polygon class="st0" points="637.9,95.2 636.6,98.8 645.4,96.6 		"/>
		<path class="st0" d="M2017.1,79.8l-3.1-1.5c-2.8,1.1-5.4,2.1-7.7,3.1C2009.6,80.9,2013.3,80.4,2017.1,79.8z"/>
		<path class="st0" d="M2026.3,64.4l14.2,3.8C2035.8,66.6,2031.1,65.3,2026.3,64.4z"/>
		<path class="st0" d="M405.9,48c-0.8-0.1-1.7-0.2-2.5-0.3C403.3,48.2,404.3,48.2,405.9,48z"/>
		<path class="st0" d="M89,39.9c3-0.7,8.1-1.5,12.8-2.2C99.5,37.7,95.6,38.3,89,39.9z"/>
		<path class="st0" d="M2025.1,66.2c1,0.5,1.7,1.4,2,2.5C2029.1,68.2,2029.3,67.3,2025.1,66.2z"/>
		<path class="st0" d="M565.8,72c-2.2,0.5-4.7,0-7,0.6l0.6,2C569,74.5,575.7,72.8,565.8,72z"/>
		<path class="st0" d="M684.6,84.4c-1.2-3.7-10.8-2.4-21.6-1.7h1.9C661.8,87.8,673.3,86.1,684.6,84.4z"/>
		<path class="st0" d="M660.6,82.8c-3.3,0.2-6.6,0.2-9.9,0.1C649.4,84.9,654.7,83.3,660.6,82.8z"/>
		<polygon class="st0" points="676,72.4 679.8,76.9 685.8,73.3 		"/>
		<path class="st0" d="M36.2,43.5c-4.8,0.2-9.7,0.4-14.5,0.6c3.2,0.4,6.5,0.9,9.7,1.4L36.2,43.5z"/>
		<path class="st0" d="M10.2,55.1L5.7,50l-7.6,6.9C1.4,55.9,7.5,54.3,10.2,55.1z"/>
		<path class="st0" d="M1945,86.5l1.3-1.2c-1.9-1.9-5.2-2.6-11.7-4L1945,86.5z"/>
		<path class="st0" d="M629.5,4c-0.4-0.3-0.9-0.6-1.4-0.8C628.6,3.5,629,3.8,629.5,4z"/>
		<path class="st0" d="M2145.8,34.1c-0.1,0,0-2.3,0-2.3c-10.7-2.9-24-5.5-34.6-3.1c-5.4-2.1,3-3.3,1.5-5.6c-11,0.7-17.5,1-22.5,1.4
			c-8.3-1.3-7.1,1-32.9-7.8l1.3,4.6c-5.4,8.4,25.4,8.1,1.9,7.4l-15.7-12.1c-13,0.8,15.6,16.2,3.2,12.8c-2.6-1.3,4.6-0.5,8.5-0.4
			c-31.9-11.4-5.3,4.8-30,1.6c-4-3.8,7.2-6.6-9.2-10.1c-3.9-1.9-84.5,7-98.6,6.6s-44.2-3.5-54.9-8.4c4.6,3.2,9.1,6.3-2.6,6.1
			c-17.6-2.1-45.9-16.7-63-11.9c-1.8-0.9-2.6-1.5-2.8-2.1c4.8,0.1,7.6-0.2,6.8-1.3c-4.7,0-6.8,0.4-6.8,1.3c0-0.1,0-0.2,0-0.3
			c-3.4-0.1-7.9-0.3-12.8-0.6s-10.3-0.6-15.5-0.8c-10.4-0.5-20.3-0.4-24.7,1.1c-0.7-1-1.6-1.9-2.6-2.6c-0.6-0.4-1.2-0.8-1.8-1.1
			l-1-0.5l-0.3-0.1l-0.7-0.2c-0.5-0.1-1-0.2-1.5-0.2h1.1c-5.4-1.6-13-2.3-21.4-2.5c-4.2-0.1-8.6,0-13,0.1l-13,0.8
			c-4.2,0.3-8.3,0.5-12,0.6c-1.8,0-3.6,0.1-5.2,0s-3.2,0-4.6-0.1c-5.6-0.3-9.1-1.6-9-4.6c-14.2,0.1-28.4,1-42.5,1.9l1-1.5
			c-6.8,0.3-12.5,0.7-17.4,1.3c-2.4,0.3-4.7,0.6-6.7,1s-3.9,0.9-5.6,1.3c-5.5,1.5-10.8,3.6-15.9,6.2c-3.2-0.1-3.6-0.6-3.3-1.2
			s1.6-1.2,1.8-1.6c-9.9,0.6-17.5,1.2-24,1.8c-5.5,0.6-10.9,1.6-16.3,2.8c-2.4,0.6-4.8,1.2-7.3,1.9s-4.9,1.6-7.6,2.5
			c-5.3,1.9-11.4,4.3-19.1,7.4l-4.1-3.8c-4.1,2-18.3,2.8-35.9,4.4c-4.4,0.4-9,0.9-13.8,1.4s-9.6,1.1-14.5,1.9s-9.8,1.5-14.6,2.5
			s-9.6,2.1-14.2,3.4c0.3-0.5,1-1.5,3.8-2.6c-2.6,0.7-5.2,1.4-8,1.9c-2.7,0.6-5.5,1-8.3,1.4c-5.7,0.8-11.5,1.4-17.4,1.8
			c-2.9,0.2-5.9,0.4-8.8,0.6l-8.8,0.3l-17.1,0.5c-2.8,0.1-5.5,0.2-8.1,0.3s-5.2,0.2-7.7,0.4c-4.6,0.2-9.2,0.7-13.8,1.5
			c-8.3,1.5-14.7,4-18.3,8.4l-27.7,5.9c16.2-0.5,17,0.9,14.2,2.8c-3.5-0.2-7-0.8-10.4-1.7c-7.2-0.4-21.6-7.8-22.9-4.2
			c1.9,1.1,3.6,2.6,5,4.4c-3.7-0.2-8.3-0.1-13.1-0.2c-12,0-24.7,0.5-24.2-2.5l-13.3,0.5c-2.2,0.1-4.4,0.1-6.7,0.1h-6.7
			c-8.9,0-17.7-0.1-26.5-0.2c-4.4,0-8.8-0.3-13.1-0.5l-13.1-0.7c-8.7-0.5-17.4-0.9-26-1.8l-25.7-2.3c-8.5-0.9-17-2-25.4-2.9
			c-4.2-0.5-8.4-0.9-12.6-1.4l-12.6-1.6l-12.5-1.6l-6.2-0.7l-6.2-0.8c2.3,2.5,4.6,5,6.9,7.5c-7.7-1-15.5-2.2-23.2-3.2
			c-5.9-2.3-7.5-6.1,9-3.8c-4.1-2.4-11.2-2.5-17.2-1.8s-11.3,2-11.6,2.7c-32.2-7,13.7-5.9,3.8-7.4l-13.8-1.1l3,1.2
			c-11.3,1.2-12.7,3.9-32.7,0.8c-12.5-3-6-4.9-10.9-5.8c0.1-0.5-1.6-0.9-7.6-1.2L875.4,22l11.2,6.7c-13.4,0.9-27.7-3.9-14.8,3.7
			c-3.2-1.8-6.6-3.1-10.2-4.1c-4.3-1.2-9.5-2.4-15.2-3.4s-11.9-2-18.4-3c-3.2-0.5-6.5-0.8-9.9-1.2l-10-1
			c-26.7-2.9-52.6-3.9-58.7-5.9c-4.7,0.6-9.3,0.9-14,1.1s-9.4,0.3-14.3,0.2c-9.7-0.2-19.9-0.9-31.2-1.8c2.8,0.7,4.9,2.6,4,4
			c-0.5,0.7-1.8,1.4-4.1,1.7c-1.5,0.2-2.9,0.3-4.4,0.2c-1.8,0-3.8,0-6.3-0.2c7.4-11.4-33-6.9-49.6-15c6.2,4.7-56,0.3-35,8.4
			c-16.3-1.2-0.9-4.5-13.3-7.6c-4.8,0.5-9.8,0.8-14.9,1s-10.2,0.4-15.5,0.4c-10.6,0-21.5-0.3-32.8-0.8l-17.1-0.7
			c-5.8-0.1-11.6-0.2-17.5-0.3c-11.7-0.1-23.7,0-35.6,0.8c-0.7,1.6,7.4,3.8-2.8,6.4c-4.3-1.2-8.5-2.3-12.8-3.4l-13-3.3
			c-9.4,1.2-8.3,9.5-25.8,4.9c2.5,1.2,6.2,3-0.1,3.9c-2.9-0.1-5.9-0.2-8.8-0.2s-5.9,0-8.8,0c-5.9,0.1-11.8,0.2-17.7,0.4
			s-11.9,0.4-17.8,0.8c-5.9,0.3-11.9,0.6-17.8,1.1c-11.9,1-23.8,2.1-35.8,3.3l-9,0.9c-3,0.3-6,0.7-9,1l-17.9,2
			c-47.8,5.4-95.7,10.9-144,10.6c13.2,1.3,4.8,2.7-5,4.3c6.4-0.2,0.4,3.9,2,5.8H73.4l-10.1,0.1c-3.1,3.5-13.7,5.3-23.8,7.2
			c-5.1,0.9-10.1,1.8-14,2.9s-6.7,2.3-7.5,3.9c4.1-1.1,8.2-2.2,12.3-3.3c-7.7,4.8-1.2,7.4,7,10l2.7,0.8c-25,4.4-38.7,7.2-38.7,7.2
			v148.8h2143.8L2145.8,34.1z M1222.6,89.6c2.8-0.7-2.6-1.5,6.2-1.3l8.7-5.5l-0.8,0.3c-3.2-0.6-7-1.3-11.1-2.1
			C1226.4,80.5,1221.7,89.8,1222.6,89.6z M1368.6,73.5c-0.6,0.9-3,1.9-5.4,2.9c5.1-1,8.9-2.6,14.5-4.1h7
			c-38.3-2.5-5.3,11.9-4.6-11.4l-21.4,16.8C1361.9,76.4,1365.2,75,1368.6,73.5L1368.6,73.5z M1245.4,59.1c0.6,1.2,1.2,2.4,1.7,3.7
			C1241,61.8,1238.3,60.2,1245.4,59.1z M909.6,28.8l4.5,1.8C903.5,30.4,906.6,29.7,909.6,28.8z"/>
	</g>
</g>
</svg>
