<svg xmlns="http://www.w3.org/2000/svg" viewBox="0 0 2171.2 873.65"><defs><style>.cls-1{fill:#e4e3e3;}</style></defs><title>Middel 11</title><g id="Laag_2" data-name="Laag 2"><g id="Laag_1-2" data-name="Laag 1"><rect class="cls-1" x="115.1" y="54.26" width="1920" height="746.14"/><path class="cls-1" d="M43.44,72.19S323.15,13.62,671,22.54c309.72,7.94,376.09,62.85,657.75,40.13,221.52-17.87,261.09-57.36,447.53-42.54,0,0,64.88,5.16,410.9,71.53h0L1963.44,72.19Z" transform="translate(-40.2)"/><path class="cls-1" d="M48.47,94.1c-6.35-.33-4.07,3.44-5,4.12C54.07,97.39,48.2,93.12,48.47,94.1Z" transform="translate(-40.2)"/><polygon class="cls-1" points="113.15 85.54 111.29 87.08 126.75 83.31 113.15 85.54"/><path class="cls-1" d="M251.43,85.61c-9.27-6.42-35.54,1-53-1.25l-2.88-1.46-7.89,5.17C208.89,87.25,236.47,83.82,251.43,85.61Z" transform="translate(-40.2)"/><path class="cls-1" d="M303.72,99.51c-3.22-2.5,11.31-2.15-12.19-.78,1.18.27,1.52.43,2.21.63C295.85,99.32,298.77,99.33,303.72,99.51Z" transform="translate(-40.2)"/><path class="cls-1" d="M293.74,99.36c-10.33.18,6.76,2.1,0,0Z" transform="translate(-40.2)"/><path class="cls-1" d="M341.44,97.93l-13.61,2.23c2.84,1.48,14.95,1.81,10.45,2.88C352.24,101.82,349.37,100.35,341.44,97.93Z" transform="translate(-40.2)"/><path class="cls-1" d="M354.34,93.24l-7.06.94C348.52,94.8,350.39,95,354.34,93.24Z" transform="translate(-40.2)"/><path class="cls-1" d="M332.33,96.18l14.95-2c-2-1-2.17-3.12-6.86.72C341.64,93,338.69,94.83,332.33,96.18Z" transform="translate(-40.2)"/><path class="cls-1" d="M323.87,95.2c-7.63-1.4-17.49-2.28-3.84-4.5C294,91.58,297.84,96.1,323.87,95.2Z" transform="translate(-40.2)"/><path class="cls-1" d="M256.44,79l-10.21-1.88-8.82,2.15C241.82,78.17,257.07,81,256.44,79Z" transform="translate(-40.2)"/><path class="cls-1" d="M426.19,101.25c.85-1.36-4.58-3.64-5.59-5.39l-10.05,1.57C415.71,98.37,425.5,99.23,426.19,101.25Z" transform="translate(-40.2)"/><path class="cls-1" d="M420.6,95.86l15-2.35C422.2,93.24,419.75,94.35,420.6,95.86Z" transform="translate(-40.2)"/><polygon class="cls-1" points="316.56 86.11 291.86 91.03 321.32 86.04 316.56 86.11"/><polygon class="cls-1" points="443.41 101.42 434.88 104.59 450.07 99.81 443.41 101.42"/><path class="cls-1" d="M521.7,100.87c-6.3,2.62,8.65,4.43,2,6,10.35-.47,19.18-2.72,27.14-4.74C542.37,103.31,533.36,103,521.7,100.87Z" transform="translate(-40.2)"/><path class="cls-1" d="M564.18,99.23c-4.22.63-8.6,1.75-13.36,3A73.7,73.7,0,0,0,564.18,99.23Z" transform="translate(-40.2)"/><path class="cls-1" d="M461.25,94.19c1.16.83,3.4,3,11.83,3.9l-5.91-3.84Z" transform="translate(-40.2)"/><path class="cls-1" d="M467,94.13l.21.12,12.77.21Z" transform="translate(-40.2)"/><path class="cls-1" d="M459.76,94.17l1.49,0C460.68,93.81,460.33,93.69,459.76,94.17Z" transform="translate(-40.2)"/><path class="cls-1" d="M396.18,89.59c8.83-2.15,27.25-4.46,9.43-7.74C399.27,84.48,409.47,86.35,396.18,89.59Z" transform="translate(-40.2)"/><path class="cls-1" d="M452.41,89.37l-16-.88c.32,1,3.2,2.49-1.18,3.56Z" transform="translate(-40.2)"/><polygon class="cls-1" points="420.03 88.14 412.21 89.37 418.13 89.69 420.03 88.14"/><path class="cls-1" d="M536.82,95.63c6.9-1.68,14.45-1.82,23-2.08-9.14-.76-18.58-1.17-27.55-1.16C531,93.6,527,95.76,536.82,95.63Z" transform="translate(-40.2)"/><path class="cls-1" d="M502.87,94.56c.48-.09,1.09-.13,1.53-.22C503.46,94,502.71,93.91,502.87,94.56Z" transform="translate(-40.2)"/><path class="cls-1" d="M643.71,93.57c-.47-.21-.87-.47-1.35-.7a5,5,0,0,1-.31.67Z" transform="translate(-40.2)"/><path class="cls-1" d="M530.7,91.67a33.68,33.68,0,0,0-14.88,1.39c5.14-.39,10.58-.64,16.42-.67C532.81,91.84,532.91,91.48,530.7,91.67Z" transform="translate(-40.2)"/><path class="cls-1" d="M587.59,97.43c-3.58-.8-7.63-1.49-11.89-2.11C579.19,96.53,586.32,98.43,587.59,97.43Z" transform="translate(-40.2)"/><path class="cls-1" d="M506.72,95.4a10,10,0,0,1-1,.18C507.94,96.4,507.66,96,506.72,95.4Z" transform="translate(-40.2)"/><path class="cls-1" d="M506.72,95.4a63.19,63.19,0,0,0,9.1-2.34c-4.18.3-8.06.71-11.42,1.28A11.38,11.38,0,0,1,506.72,95.4Z" transform="translate(-40.2)"/><path class="cls-1" d="M669.14,68.88c-1.22,3.57-19.27,6.86-34.85,3-15.34,2.67-5.31,14.4,8.07,21,.48-1.55.48-3,16.26-5.1-5.52-1.94-35-4.55-21.7-7.77,20.9-1.84,17.13,1.26,27.29,3.14-8.64-4.44,26.6-6.46,22-13l-18.34,2.3C667.58,71.43,674.23,69.81,669.14,68.88Z" transform="translate(-40.2)"/><path class="cls-1" d="M612.29,92.51,605.8,93c7.4.62,12.7,2,22.46,4.84,10.8-1.74,13-3.07,13.79-4.25l-32-.5Z" transform="translate(-40.2)"/><path class="cls-1" d="M576.64,93c5.07-3.88,20.67-5.53,11.12-9.73-19.06.27-13.36,3.24-24.75,4.92,30.76-1-8.83,2.16,13.39,4.36-6,.66-11.48.86-16.61,1,5.54.47,10.88,1,15.91,1.77l-.71-.25-.14,0s0,0,0-.06c-1.33-.49-1.77-.78-.27-.5a2.94,2.94,0,0,1,.64-.08A3.89,3.89,0,0,1,576.64,93c8.91.8,1.4,1-1.39,1.46-.1.19-.34.37-.37.58l.11,0L605.8,93C599.28,92.41,591.11,92.52,576.64,93Z" transform="translate(-40.2)"/><path class="cls-1" d="M422,73.51c.95.34.91.62,1,.9C425,73.94,425.77,73.61,422,73.51Z" transform="translate(-40.2)"/><path class="cls-1" d="M434.71,75.85c-2.24.54-4.1,2.09-11.38,1.69-6.32-1.16,0-1.85-.31-3.13-4.38,1-15.35,2.78-1.59,4.67l2.18-.53c12.4,1.33,28.33,6.17,26.17,6.7C446.16,81.76,443,79.28,434.71,75.85Z" transform="translate(-40.2)"/><path class="cls-1" d="M506.56,83.42l25.66-1.9-13.07-3.36.66,2C505.22,79.39,508.38,81.87,506.56,83.42Z" transform="translate(-40.2)"/><polygon class="cls-1" points="606.44 95.5 603.04 99.6 617.86 93.81 606.44 95.5"/><polygon class="cls-1" points="639.78 95.01 638.55 98.57 647.35 96.42 639.78 95.01"/><path class="cls-1" d="M1816.53,47.11,1809,47A68.83,68.83,0,0,0,1816.53,47.11Z" transform="translate(-40.2)"/><path class="cls-1" d="M1870.07,55.88l1.6-1.51C1869,54.91,1867.89,55.45,1870.07,55.88Z" transform="translate(-40.2)"/><path class="cls-1" d="M1498.77,94.61c11,3.32,23.25,8.48,21.92,4.48l-3.37-3.91A70.33,70.33,0,0,1,1498.77,94.61Z" transform="translate(-40.2)"/><path class="cls-1" d="M2059.24,79.63l-3.1-1.46c-2.77,1.1-5.38,2.11-7.71,3.08C2051.68,80.73,2055.37,80.19,2059.24,79.63Z" transform="translate(-40.2)"/><path class="cls-1" d="M2068.36,64.2l14.2,3.76A110.34,110.34,0,0,0,2068.36,64.2Z" transform="translate(-40.2)"/><path class="cls-1" d="M1528,61.68l-8,5.45C1533.59,64.7,1527.24,63.79,1528,61.68Z" transform="translate(-40.2)"/><path class="cls-1" d="M1021.44,93.57a177.61,177.61,0,0,0,23.64,2.36C1033.66,93.69,1024.45,90.32,1021.44,93.57Z" transform="translate(-40.2)"/><path class="cls-1" d="M1844.06,9.44c-4.69,0-6.77.45-6.77,1.34C1842.11,10.86,1844.89,10.55,1844.06,9.44Z" transform="translate(-40.2)"/><path class="cls-1" d="M1072.44,95.91c-1.67-.39-3.31-.59-5-.91a172.9,172.9,0,0,1-22.35.93C1053.51,97.6,1063.16,98.63,1072.44,95.91Z" transform="translate(-40.2)"/><path class="cls-1" d="M448,47.81c-.79-.14-1.74-.18-2.45-.35C445.37,48,446.45,48,448,47.81Z" transform="translate(-40.2)"/><path class="cls-1" d="M131.1,39.72c3.05-.71,8.08-1.47,12.82-2.24C141.57,37.56,137.69,38.17,131.1,39.72Z" transform="translate(-40.2)"/><path class="cls-1" d="M814.12,96.71c-7.07.26-1.12.43,0,0Z" transform="translate(-40.2)"/><path class="cls-1" d="M779.74,81.27c1.5-.44,2.64-1,2.82-1.9A4.66,4.66,0,0,1,779.74,81.27Z" transform="translate(-40.2)"/><path class="cls-1" d="M1142.87,71.61l.61,0C1141.38,70.86,1141.74,71,1142.87,71.61Z" transform="translate(-40.2)"/><path class="cls-1" d="M803.48,94.94c2.66.48,5.72.88,9,1.16C811.07,95.8,808.32,95.42,803.48,94.94Z" transform="translate(-40.2)"/><path class="cls-1" d="M804.92,96.78c-2.44-.17-4.36-.27-6.18-.37C797.84,97.06,798.63,97.47,804.92,96.78Z" transform="translate(-40.2)"/><path class="cls-1" d="M824,96.5c-4,.06-7.81-.12-11.44-.4,1.39.26,2,.48,1.59.61C816.2,96.65,819.12,96.57,824,96.5Z" transform="translate(-40.2)"/><path class="cls-1" d="M1022.77,67.58c-.45-.18-1-.33-1.46-.56C1014,67.74,1017.15,67.87,1022.77,67.58Z" transform="translate(-40.2)"/><path class="cls-1" d="M1682.8,54.06c-.33,0-.51.14-.81.19l1,.14Z" transform="translate(-40.2)"/><path class="cls-1" d="M1708.19,51.15c-10.81,4.86-17,4.26-25.15,3.24l8.4,11.25Z" transform="translate(-40.2)"/><path class="cls-1" d="M1689.83,39.51,1707.12,43c-5.22,1.45-10,2.42-14.1,3.13l-5.47.89-2.22.36-1.81.4c-2.14.5-3.13.93-2.58,1.51a5.92,5.92,0,0,0,2,1c1.1.38,2.62.82,4.63,1.46.55-3.06,5-4.67,11.39-5.56,3.2-.45,6.89-.72,10.83-.9,2-.11,4-.09,6.07-.07l6.27.08c4.19.06,8.39.12,12.35.08s7.68-.21,11-.39c6.52-.45,11.14-1.76,12-4.77l11.31,3.31c-3.28-.33-3.86.35-7.1,0,5.65,1.88,9.51,2.27,12.63,1.89l2-25.29q0,7.29-.08,14.54l-.18,7.23-.12,3.57h-.05l-.42,0-.4-.06-.21,0-.1,0s-.06,0,0,0l.71-.13c.47-.1.93-.23,1.38-.37a28.75,28.75,0,0,0,2.78-1c1.83-.74,3.74-1.59,6-2.3a30,30,0,0,1,8.4-1.38,54.25,54.25,0,0,1,12.94,1.34c9.93,2.38,16.7,5.26,9.62,5.63l11.44.21,11.47.29c6.51,1.26,4.57,3.11-1.9,1.85,11.47,1.46,23,3,34.44,4.59l-.31.32c5.2-1.09,16.79-2.12,22.42-2.45,8.43,3.2-4.59.54-2.61,2.42l19.5.32c7.2,4.47-9.06,4.74-22.1,2.1,15.67,15,16.28-.37,53.33,13.34L1924,68.48c10.36,8.81,24.77,8.86,44.25,16.7-4.39-3.08-38.64-17.92-17.51-17.27,5.64,1.94,13.22,3.73,24.77,3.29-.67,4.3,10.37,5.21,24,7.43l-2,5.49c15,1,14.33-2.08,23.44-3,16.25,3.58,18.83,8.59,22,13,26,5.74-16.78-10.36,14.41-5.71,21.38,6.2,37.09,6.79,63.79,8.28,14.87,4.85-3.32,3,1.84,5.61l14.36-1.94c3.29.74,2,1.92,1.28,2.52,11.72.42,2-5.47,20.21-3.6,3.25-2.88,13.26,2.09,25.5,6.8l4-28.95c-10.67-2.91-22.92-5.47-33.5-3.08-5.39-2.11,3-3.28,1.48-5.64-31.24,2-26.73,1.11-52.6,5.25L2082.56,68c15.48,5.69-5.22,9-23.32,11.67,5.44,2.57,10.09,4.8,13.24,6l-28.58.62c-3.34-1.24-.31-3,4.53-5-2,.3-3.84.61-5.3.92-9.94-3-4.41-5.85,3.12-8.43,3.35,1.43,6.67,2.94,9.89,4.43,7.3-2.88,14.18-6.17,13-9.65a42.94,42.94,0,0,1-9.41.74c1.91-.79,3.15-1.53,2.35-2.18s-4,.33-8.73,1.39l-5.88-6.95-1.78,2.4L2009,56.7c-7.36,1.12-14.49,2.49-21.82,3.87-3.67.69-7.39,1.38-11.22,2l-5.83,1-3,.46-1.52.23-1.86.19-1.54.29c-.53.1-.88.19-1.32.29l-2.58.56q-2.6.57-5.31,1.09c-3.61.71-7.37,1.37-11.32,2-7.9,1.2-16.53,2.16-26.16,2.76,10.48-4.7,2.26-7.68,2.83-13.26,4.91,2.52,11.59,2.43,19.34,1.59,3.87-.41,8-1,12.32-1.58,2.16-.28,4.36-.55,6.6-.77,1.12-.12,2.25-.22,3.38-.31l1.71-.12,2.38-.1,3,.16,2.36.17c1.59.13,3.17.31,4.75.53a31.54,31.54,0,0,1-6.07-1.32,5,5,0,0,1-2.28-1.4c-.32-.46.13-.86.77-1.19a5.89,5.89,0,0,1,2-.8l-1.77.09h-2.59c-2.65.2-3.71.41-5.27.61l-4.44.61-8.87,1.22L1927.93,58c.88-4.57-8.29-3.42-18.48-5.31,7.7,9-29.09,6-45,8.77-1-3,2.82-6.12,22.2-5.39-21.38-6.78-27.62,10.59-48.6,4.82,4.73-.07,7.28.39,9.15-1.15-11,2.69-38.06.56-31.7-2.07l4.72-.07c-31.4-1.06-95.59-.06-100.28,7.59-.31-1,4.12-9.23,6-10.77l-56,25.75c4.94-6.57-14-22.23,12-25.94a107,107,0,0,0-32.49.29c5.1.94,12.71,9.5,5.74,10.11-19.13-7.32-13.28-3.92-36.86-10.16,7.65,1.41-.85,11.72-12.93,11.39,1.89-1.54-1-10.18,3.41-11.25l-30.07,10.12c7.51-1.82,1.33-8.58-5.4-11.44,3.12,2-26-.18-34,.82l12.74,2.35c-33.95-1.53-33.54,14.23-67.22,13.7C1489,68.09,1495,57.31,1477.84,56,1470,61.22,1443.08,81,1413.28,85l-5.71-3-22.87,3.38c14.24-7.8,54.2-24.22,76-30.6-12.7-2.35-3.53-3.5-22.56-3.23-6.72-2.78,10.37-4.21,16-4.38l-44.3-1.79c2,6.06-33.88,6.07-32.19,11.11l48.12-6.27c1.94,6-27.83,17.17-59.21,16.11-8-2.41,6-10.78,5.31-12.79-4.07,2.08-29.79,4-32.67,2.5l13.31-3.24c-17.47-2.27-28.51,8-49.51,2.25-7.25-.39-21.64-7.79-22.9-4.21,11.83,6.9,14.14,28.26,6.26,33.45-2.54-.47-38.06-6.61-46.33-10-11.94-5.41,17.91-12.9,7.75-17.55-.44,1.66-7,3.69-9.78,4.35-7.61-1.41,3.16-5.12-13.38-4.37-2.76,6.13-33.64-.52-7.82,5.18-16.18,1.76-17.2-1.26-36.19-1,6,4-17.06,13.49-33.27,15.24,1-1.56-2.68-3.59-4.45-4.52-33.16-.55-51-3.34-81.89-3.39-2.85-1.49-17.77-3.28-11.41-5.92-4.45,1.08-8.54,3.16-18.08,3.31-18.46-5.31,21.27-.83,7.2-7.2-1.2,3.56-24.67,4.92-38.25,7.15,4.18,5.5,31.38,1,45-1.17.06,7.59-23.62,15.54-55.94,19.06-25.69,1.88-11.14-4.91-15.6-3.83-48.25-1.33-41.11,13.26-81.17,7.78-15.9-4.84-.72-9.63-4.24-13.12,20.92-1.83,32.12,3.08,46.3,2.88l-17.46-2.29C924,73.26,938,72,945.56,73.44,932.24,69.1,864,72.61,826.82,68.6c-6.62,1.62-18,3.3-12.63,5.24L826,73.17c10.82,3.9-22.17,5.39-7.26,7.22-15.8,2.74-33.51,7-55.76,4.84l-4.18-5.51c.48,1.61,14.54,3.28,20.79,1.6-9.27,2.45-34.1-7.47-44.26-.24l15.59,3.82c-15.86,2.77-35.48,8.63-55.19,6.89,9,5.45,4.55-.62,18.56,5.75-12.15-7.93,50.42.34,30.92-8,14.37,7.4,24.87,3.14,43.66,9.45-.58-1.82-6.65-3.48,9.9-2.58a18.63,18.63,0,0,1,3.63-1.61c.5,0,.68.08,1.11.14-.33-.07-.57-.15-.91-.22.72-.27.78-.33-.34-.07-3.94-.8-7.13-1.76-8.43-2.77,8.22-4.18,34.53-4,43.43-6.21,9.82.87-4.11,2.09,1.25,4l13.3-3.23c1.31,4,26.09,6.71,3,9.08l20.82.18c12.26,2.27,29.12,3.17,39.52,1.47,9.82.87,24.81-4.48,16.25-1.31L964,93.38l.3,1c32.21.51,66.32-6.69,103.15.61,10.85-1,22.06-2.27,40.21-1.13l3.53,3.5c13.93-1.22,41.82,3.5,47.81-.14,15,9.41,67.59,2,92.08,3.72l.92-4.57c16.86.26,33-1,54-2.87l-1.28-4c18-3.31,46.38,2.87,74.92,2.46-1.94,1.54-9.18,1.13-14.3.2,34.09,9.12,71.93-6.63,102.86,0a46.68,46.68,0,0,1,18.68,0,9,9,0,0,0-1.91.21c.79,0,2,.06,3.17,0,3.4.69,6.9,1.5,10.7,2.15a61.34,61.34,0,0,0-9-2.16c5.94-.09,15-.59,23.79-1.6l3.76,4.33c.72-.05,1.29,0,2-.12,8.67,1.6,7-2,2.35-5.31a77.75,77.75,0,0,0,11.68-2.62c7,7,23.18-2.35,32.79,5.11,6-3.64,44.42-2.74,49.12-10.39.3,1,2.91,1.47-1.86,1.53,9.85.87,19.69,1.75,28.52-.41l4.18,5.51,21.51-7.41c13.06,3.36,18.48,5.31,5.51,9.55,31.32-6.52,25.41-2.46,52-8.92l-1.3,3.56c9.52-.13,24.75-4.91,30.49-2,21.3,6.77,105.4.93,160.08,7.23-10.61-10.49,25.41,4.7,27.58-3.43,3.18,2.48,10.8,3.88,2,6,3.66-.32,7.09-.49,10.32-.56,1.61,0,3.17,0,4.69,0l2.24,0,.55,0h.3l.45,0,10.38,1.45c3.54.49,6.89.94,10.2,1.21a58.59,58.59,0,0,0,20.34-1.53c3,2.75-6.26,3.1-3.56,4.82,2.28-.34,9-1.38,11.78.34s-4.25,1.72-8.74,2.42c28.43,2.05,32-5.32,34.65-12.29,14.1,4.64,21.32,4.79,32.12,1,4.81,2.78,12.95,6-4.76,5.26,9.89,1.2,60.34,8.7,61.85,3.06,3,1.72,13.84,1.63,16.51,1.2,20.65,2.11,23.78,2.86,42.78,4.14l3.33-24c-.25,0-1.7-.26-3.26-.52l3.15,1.12-3.17,22.74-2.74-.67a16.41,16.41,0,0,1,2.94-1.56l2.55-18.32c-8.62,2.5-17-3.41-32.7-5.64l.63-.6c-39-12.51-17.65-.95-56-14l1.34,4.64c-5.37,8.44-33.86-11.94-57.39-12.64l7.8,4c-13,.82-32.62-18.87-45-22.27-2.59-1.29,4.56-.49,8.49-.38-31.92-11.35-5.28,4.79-30,1.64-4-3.81,7.2-6.59-9.21-10.11-3.89-1.94-16.31-1.63-30.43-2.05s-30-1.48-40.75-6.3c4.58,3.16,9.12,6.32-2.59,6.11-17.61-2.14-45.88-16.73-63-11.85-2.14-1-2.89-1.73-2.89-2.32-3.43-.08-7.92-.3-12.84-.6s-10.31-.63-15.54-.84c-10.44-.46-20.33-.41-24.71,1.1a10.25,10.25,0,0,0-2.62-2.59,13.32,13.32,0,0,0-1.84-1.08c-.33-.16-.68-.33-1-.48l-.28-.12-.7-.15c-.48-.09-1-.17-1.46-.24l1.13,0C1772,3.9,1764.4,3.2,1756,3.06c-4.2-.06-8.58,0-13,.14L1730,4c-4.23.27-8.27.51-12,.61-1.84,0-3.59.07-5.23,0s-3.18,0-4.58-.07c-5.6-.31-9.09-1.59-9-4.62-14.17.07-28.37,1-42.53,1.87l1-1.49c-6.82.28-12.52.74-17.38,1.34-2.43.3-4.65.63-6.69,1s-3.88.86-5.6,1.32a88.37,88.37,0,0,0-15.94,6.18c-3.17-.14-3.64-.59-3.29-1.18s1.56-1.22,1.77-1.61c-9.89.59-17.54,1.21-24,1.85A156.36,156.36,0,0,0,1570.22,12c-2.45.56-4.83,1.18-7.28,1.9s-4.91,1.59-7.58,2.54c-5.32,1.93-11.42,4.3-19.14,7.42l-4.11-3.79c-4.13,2.05-18.29,2.82-35.88,4.44-4.41.43-9,.86-13.76,1.36S1472.88,27,1468,27.75s-9.77,1.53-14.59,2.51-9.57,2.1-14.15,3.44c.3-.55,1-1.52,3.82-2.59q-3.87,1.08-7.95,1.93c-2.72.57-5.51,1-8.33,1.4-5.66.79-11.49,1.36-17.36,1.8-2.94.21-5.88.43-8.82.56l-8.81.27-17.08.46q-4.14.13-8.09.33c-2.64.11-5.21.2-7.69.36a120.82,120.82,0,0,0-13.73,1.51c-8.29,1.46-14.71,4-18.28,8.39L1299.2,54c18.2-.59,17,1.26,13.09,3.46s-10.48,4.78-2.88,5.62c-14.33,1.92-37.39-2.4-19.82-4.42l2.8.63c1.49-2.22-.61-3.33-4.57-3.83s-9.79-.32-15.78-.38c-12,0-24.65.45-24.25-2.45l-13.35.52c-2.22.11-4.44.09-6.66.1h-6.65q-13.28,0-26.46-.25c-4.39,0-8.77-.29-13.14-.51l-13.08-.7c-8.7-.5-17.36-.86-26-1.76l-25.7-2.31c-8.52-.91-17-2-25.43-2.91-4.21-.49-8.42-.9-12.62-1.44l-12.57-1.64-12.51-1.56-6.24-.74-6.23-.81c2.29,2.49,4.59,5,6.89,7.46-7.73-1-15.47-2.17-23.2-3.25-5.91-2.29-7.53-6.13,9-3.79-4.13-2.4-11.16-2.49-17.25-1.82s-11.28,2-11.61,2.73c-32.17-7,13.71-5.9,3.76-7.4l-13.6-1.33,3,1.17c-11.34,1.18-12.66,3.9-32.65.85-12.5-3-6-4.9-10.92-5.83.09-.46-1.56-.91-7.63-1.23l-29.48-4.4,11.16,6.68c-13.42.85-27.73-3.86-14.85,3.74a42.72,42.72,0,0,0-10.15-4.06c-4.33-1.23-9.49-2.36-15.19-3.42s-11.94-2-18.41-2.95c-3.24-.47-6.55-.84-9.88-1.21l-10-1.05c-26.71-2.92-52.6-3.95-58.68-5.9-4.7.58-9.35.91-14,1.06s-9.44.31-14.3.22c-9.72-.16-19.92-.89-31.21-1.77,2.79.7,4.94,2.56,4,4-.49.73-1.75,1.35-4.1,1.68a30.06,30.06,0,0,1-4.39.25c-1.77,0-3.84,0-6.27-.23,7.66-11.77-35.44-6.56-51-15.74,14,5.95-55.58.63-33.56,9.12-16.26-1.21-.93-4.53-13.27-7.55-4.85.52-9.83.84-14.91,1s-10.27.38-15.56.39c-10.58,0-21.55-.35-32.82-.84l-17.11-.73c-5.76-.13-11.58-.24-17.45-.29-11.74-.1-23.66,0-35.63.78-.69,1.6,7.41,3.8-2.77,6.44-4.26-1.24-8.52-2.29-12.79-3.42L461.4,4.63c-9.44,1.22-8.27,9.54-25.82,4.86,2.51,1.22,6.25,3-.06,3.86-2.94-.1-5.88-.19-8.83-.25s-5.89,0-8.84,0q-8.85.09-17.74.39t-17.79.75c-5.94.31-11.89.6-17.83,1.13-11.9,1-23.82,2.1-35.76,3.27l-9,.88c-3,.29-6,.67-9,1l-17.92,2c-47.83,5.39-95.68,10.92-144,10.63,13.25,1.28,4.75,2.7-5,4.27,6.45-.24.42,3.89,2,5.82l-20.17,0-10.1,0-10.1.14c-3.12,3.56-13.67,5.28-23.84,7.18-5.08.92-10.07,1.8-14,2.89s-6.74,2.35-7.5,3.94c4.08-1.09,8.18-2.23,12.27-3.27-7.69,4.77-1.22,7.4,7,10s18.17,5.15,17.68,9.63c4.29-2.64,9.59-3.75,15.56-4.19s12.61-.15,19.61,0A141.27,141.27,0,0,0,154,68.91a63.58,63.58,0,0,0,22-6.57c6.93.81-5.33,3.54-1.48,5a37.89,37.89,0,0,1,13-5.25,120.48,120.48,0,0,1,20.75-2l-1.83,1.16c48.26-6.92,69.49-5.48,124.14-8l-4.41-3.92c11.78-.39,14.36.74,19.93,1.36,12.92-7.54-32.95,2.32-21.32-5.78,8.18,3.7,28.84,2,48.9.59,20.08-1.12,39.54-2.06,45.08,2.52,9-.56,7.63-1.7,6.23-2.85-.69-.57-1.39-1.14-.79-1.64s2.51-1,7-1.13l4.94,2.44,4.38-3.65c11.89,0,18,3.06,18.56,5.29-2.88-.13-8.13,1-11.19,1.36,7.74,1.2,18.53.43,28.05-.56s17.8-2,20.45-1.56c-5.79-.37-11.6-.82-17.4-1,6.14-.66,12.47-1,18.92-1.32s13-.61,19.69-.85c13.31-.46,26.94-.95,40.53-1s27.11-.42,40.22-1l19.32-.89c6.3-.34,12.46-.79,18.43-1.38l-3.6-2.07c18.25-1.6,25.55-.94,33.27,0,3.86.42,7.82,1,13.32,1.5s12.53.76,22.54.69l-1.47.43A92.69,92.69,0,0,1,714.09,37c2.53-.15,5.15-.22,7.82-.22,1.33,0,2.68,0,4,.07s2.72.15,4.08.26c-10.18,1.77,18.71,5.68,5.37,7.51,19.76-.85,24.69-1.35,28-2.38,1.64-.51,2.87-1.16,5.35-2a84.55,84.55,0,0,1,12.84-3.39l5.76,3.8c9.09-2.3,10-3.83,30-3.1-16.59,1.55,12.26,6.08-6.35,8.39a162.52,162.52,0,0,0,27.33,4.63c8.06.62,15.16.51,21.56.44,12.78,0,22.73.19,31.63,6.58,20.22-6.94-35.42-9.31-24.49-10-8.65-4.05,16.58-5,29.59-2.56,6.66.85,12,4.55,19.77,8.49s18.1,8.09,34.87,10.32c-3.33-.5-3.65.16-7-.33,12.25,4,25,.18,39.91,6,9.4-4.37,20,3,23.44-3.71l-31.06-2.52c8.87.26,17.67-1.13,27.79-1.6a111.25,111.25,0,0,1,35.76,3.66c-2.42,1.14-11.24,1.94-17.29,2.25,4.1,1.57,8.21,1.73,12.36,1.91s8.33.38,12.62,1.9c-.83,1.69-3.64,2.44-7.65,2.49a130.27,130.27,0,0,1-15-1.08c-5.74-.63-12-1.37-18-1.78a77.73,77.73,0,0,0-16.66.16c4.33,2.09,13.35,2,20,2.18s11,.55,5.74,3.79c7.44-4,15.72-2.67,25.14-.89s20.13,3.69,32,1.21l-1.95,4.08c3.71-.21,11.5-1.6,18.23-.92l-12.74,4.48c9.63-1.56,18.57.23,27.44,2.29l6.65,1.54c2.21.5,4.44.86,6.67,1.19a58.79,58.79,0,0,0,13.53.59c-9.49-.5-14.75-1.1-17.54-1.79s-3.11-1.51-2.75-2.31c.73-1.63,4.19-3.45-3.64-5.67,5.84-.16,10.65-.35,14.66-.19a64.16,64.16,0,0,1,10,1,43.47,43.47,0,0,1,12.52,4.6c1.82.9,3.68,1.87,5.86,2.75a51.45,51.45,0,0,0,7.79,2.33c6.2,1.36,14.79,2.25,27.93,2.06-7.14.43-26.61-3.23-15.46-4.93,5,.57,10.74,1.34,16,2.27,2.65.5,5.17.92,7.42,1.38a44.69,44.69,0,0,1,5.75,1.53c34.74-1.13-5.33-4.36,9.43-7.09,5.9,2.57,10.16,2,14.81.59,2.32-.71,4.75-1.64,7.53-2.5a59.64,59.64,0,0,1,9.67-2.35l.23,4.33c19.72.65,22.24-1.71,24.25-4a7.81,7.81,0,0,1,4.74-2.94c2.85-.73,7.66-.9,16.49-.72l-7.27,3.51-7.32,3.3,4.59-.56c1.54-.18,3.06-.38,4.59-.63l9.15-1.39-3.51,5.18c19.82-5,26.08-4.41,45.82-4.46-4.79-2.64,1.92-8.09,19.16-9.79,12,1.49-6.22,4.71,18.23,1.85-5.25,3.22-11,7.16-22.07,4.15-1,1.51-5.23,3.21-6.24,4.71,6.5.9,14.54.34,22-.55s14.49-2.3,18.94-2.79c-3.44.22-7.56.45-9.73.06,11.67-3.33,23.3-6.59,34.88-10,5.77.87,1.52,2.78-2.72,4.59,7.14-1.37,11.85-4,22.36-5.78-2.27,3.85-1.12,7.38-15.93,11l16.71-4.17c5.57-1.4,11.13-2.74,16.66-4.27,2.46,1.18,18,1.56,13.77,3.51a61.42,61.42,0,0,0,7.47-.81c2.59-.42,5.26-1,8-1.73,5.48-1.41,11.26-3.21,17.22-5s12.07-3.7,18.27-5.21a111.37,111.37,0,0,1,18.69-3.07c1.14-.9,3.57-2,8.66-3.42,5.77-.83,11.4-1.41,17-1.91s11.16-1,16.81-1.69,11.34-1.41,17.28-2.63c3-.64,6-1.27,9.07-2s6.24-1.67,9.49-2.73c2.66.71,5.31,1.38,7.94,2.11l7.87,2.33c10.23-1.83,5-3.27,1.38-5s-5.54-3.76,11.78-6.85c24.54-3.87,9.63,4.69,18.35,5.8l4.89-1.69c1.76-.62,3.66-1.13,5.67-1.71,4-1.13,8.5-2.26,13.34-3.13,2.42-.43,4.92-.83,7.5-1.08s5.24-.28,7.94-.25a79.19,79.19,0,0,1,16.71,1.88C1702.75,40,1696.86,39,1689.83,39.51Zm260.44,28.24c-5.24,0-15.84,1-19.11-2.2C1937.81,61.64,1941.87,64.81,1950.27,67.75Zm70.6.16c4-1.1,9.81.13,16.34,2.35A65.16,65.16,0,0,1,2020.87,67.91ZM891.63,93.18a3.51,3.51,0,0,0,.55-.21C903.7,94.66,899.61,94,891.63,93.18ZM867.71,91.3c-2.41.6-2.24,1.2-1.23,1.81,1.67-1.1,7-1.17,13.16-.87C877.94,91.11,874.85,90.32,867.71,91.3Zm84-62.67,4.46,1.75C945.58,30.2,948.65,29.48,951.71,28.63Z" transform="translate(-40.2)"/><path class="cls-1" d="M2067.16,66a4,4,0,0,1,2,2.54C2071.24,68,2071.35,67.13,2067.16,66Z" transform="translate(-40.2)"/><path class="cls-1" d="M1529.45,60.67c-.27,0-.53.07-.8.09a2,2,0,0,0-.67.92Z" transform="translate(-40.2)"/><path class="cls-1" d="M1238.27,54.48c4.92.63,7.67,1.42,9.49,2.24C1248,55.66,1245.79,54.76,1238.27,54.48Z" transform="translate(-40.2)"/><path class="cls-1" d="M740.94,98.67l15.32-1.13c-7.41.22-10.06-.73-13.8-1.42C742.8,97.14,745.73,98.6,740.94,98.67Z" transform="translate(-40.2)"/><path class="cls-1" d="M607.93,71.81c-2.23.53-4.74,0-6.95.59l.61,2C611.13,74.29,617.8,72.66,607.93,71.81Z" transform="translate(-40.2)"/><path class="cls-1" d="M726.75,84.25c-1.21-3.66-10.83-2.42-21.56-1.74.65,0,1.26,0,1.9,0C703.93,87.62,715.36,85.93,726.75,84.25Z" transform="translate(-40.2)"/><path class="cls-1" d="M702.7,82.63a96.75,96.75,0,0,1-9.92.1C691.52,84.77,696.8,83.15,702.7,82.63Z" transform="translate(-40.2)"/><path class="cls-1" d="M837.36,93.72c-5.09-.94-3.19,4.67-6.07,3.18C825.61,101.55,865.22,91.27,837.36,93.72Z" transform="translate(-40.2)"/><polygon class="cls-1" points="677.86 72.21 681.7 76.72 687.72 73.09 677.86 72.21"/><path class="cls-1" d="M802.81,75.52l-17.15-1.25c.26.76-1.92,1.2-4.59,1.54C791.63,76,803.22,76.86,802.81,75.52Z" transform="translate(-40.2)"/><path class="cls-1" d="M781.07,75.81c-5.51-.08-10.74,0-13.81.75C770.24,76.51,776.65,76.36,781.07,75.81Z" transform="translate(-40.2)"/><polygon class="cls-1" points="701.3 70.86 706.37 71.8 718.48 72.13 701.3 70.86"/><path class="cls-1" d="M987.18,76.39l18.72-1.29c1.91-1.55-3.19-2.49-10.16-1.88C991.26,74.3,984.31,74.9,987.18,76.39Z" transform="translate(-40.2)"/><path class="cls-1" d="M930.58,64c5.06.94,5.4,1.95,8.25,3.43l.57-5.59Z" transform="translate(-40.2)"/><path class="cls-1" d="M985.16,62.74c1.87-1.55,27.17-4.45,3.44-4.1C986.7,60.18,968,61.47,985.16,62.74Z" transform="translate(-40.2)"/><polygon class="cls-1" points="1227 69.81 1222.24 69.88 1222.92 79.05 1227 69.81"/><path class="cls-1" d="M1515.79,47.88c-22.18-2.2-5.26,5.66-25.31,2.92-5.2,2.16,16.39,2.23,11,4.1C1514.91,52.62,1521.94,53.91,1515.79,47.88Z" transform="translate(-40.2)"/><path class="cls-1" d="M1501.53,54.9c-2.15.36-4.42.8-6.84,1.4A39.68,39.68,0,0,0,1501.53,54.9Z" transform="translate(-40.2)"/><path class="cls-1" d="M78.3,43.29c-4.85.22-9.69.36-14.55.64,3.25.43,6.48.91,9.72,1.39Z" transform="translate(-40.2)"/><path class="cls-1" d="M52.28,54.91l-4.46-5.08-7.62,6.9C43.51,55.77,49.57,54.11,52.28,54.91Z" transform="translate(-40.2)"/><path class="cls-1" d="M1987.11,86.29l1.32-1.19c-1.9-1.88-5.15-2.59-11.68-4Z" transform="translate(-40.2)"/><polygon class="cls-1" points="1757.94 50.19 1761.17 50.78 1755.85 44.69 1757.94 50.19"/><path class="cls-1" d="M1642.78,53.13a98.79,98.79,0,0,0,10-1.11c1.7-.25,3.4-.5,5.08-.7a36.09,36.09,0,0,1,4.91-.34c-1.72.16-3.34.29-4.87.32a42.85,42.85,0,0,1-4.32-.12c-2.68-.2-5-.59-6.74-.84C1643.23,49.85,1641.65,49.91,1642.78,53.13Z" transform="translate(-40.2)"/><path class="cls-1" d="M2208.16,801.46s-279.7,58.57-627.53,49.65c-309.72-7.94-376.1-62.86-657.76-40.13-221.51,17.87-261.08,57.36-447.52,42.54,0,0-64.89-5.16-410.91-71.53h0l223.72,19.47Z" transform="translate(-40.2)"/><path class="cls-1" d="M2203.13,779.54c6.36.33,4.08-3.44,5-4.11C2197.53,776.26,2203.4,780.52,2203.13,779.54Z" transform="translate(-40.2)"/><polygon class="cls-1" points="2058.05 788.11 2059.9 786.57 2044.44 790.34 2058.05 788.11"/><path class="cls-1" d="M2000.17,788c9.28,6.43,35.54-1,53,1.25l2.88,1.47,7.88-5.17C2042.71,786.4,2015.13,789.83,2000.17,788Z" transform="translate(-40.2)"/><path class="cls-1" d="M1947.88,774.14c3.23,2.5-11.31,2.15,12.2.78-1.19-.27-1.53-.43-2.21-.63C1955.75,774.32,1952.84,774.32,1947.88,774.14Z" transform="translate(-40.2)"/><path class="cls-1" d="M1957.87,774.29c10.33-.18-6.76-2.1,0,0Z" transform="translate(-40.2)"/><path class="cls-1" d="M1910.17,775.72l13.6-2.23c-2.84-1.48-15-1.81-10.45-2.88C1899.36,771.83,1902.23,773.3,1910.17,775.72Z" transform="translate(-40.2)"/><path class="cls-1" d="M1897.27,780.41l7-.95C1903.08,778.85,1901.22,778.63,1897.27,780.41Z" transform="translate(-40.2)"/><path class="cls-1" d="M1919.27,777.47l-15,2c2,1,2.18,3.13,6.86-.72C1910,780.65,1912.92,778.82,1919.27,777.47Z" transform="translate(-40.2)"/><path class="cls-1" d="M1927.74,778.45c7.63,1.4,17.49,2.28,3.83,4.5C1957.6,782.07,1953.76,777.55,1927.74,778.45Z" transform="translate(-40.2)"/><path class="cls-1" d="M1995.17,794.68l10.2,1.88,8.83-2.15C2009.79,795.47,1994.53,792.67,1995.17,794.68Z" transform="translate(-40.2)"/><path class="cls-1" d="M1825.42,772.39c-.85,1.37,4.57,3.65,5.59,5.4l10-1.57C1835.89,775.28,1826.1,774.42,1825.42,772.39Z" transform="translate(-40.2)"/><path class="cls-1" d="M1831,777.79l-15,2.34C1829.4,780.41,1831.85,779.29,1831,777.79Z" transform="translate(-40.2)"/><polygon class="cls-1" points="1854.64 787.54 1879.34 782.61 1849.88 787.61 1854.64 787.54"/><polygon class="cls-1" points="1727.79 772.22 1736.31 769.06 1721.13 773.84 1727.79 772.22"/><path class="cls-1" d="M1729.9,772.78c6.31-2.62-8.65-4.44-2-6-10.35.47-19.18,2.72-27.14,4.74C1709.24,770.34,1718.25,770.63,1729.9,772.78Z" transform="translate(-40.2)"/><path class="cls-1" d="M1687.43,774.42c4.22-.63,8.59-1.75,13.35-2.95A73.79,73.79,0,0,0,1687.43,774.42Z" transform="translate(-40.2)"/><path class="cls-1" d="M1790.36,779.46c-1.17-.83-3.4-3-11.84-3.91l5.92,3.85Z" transform="translate(-40.2)"/><path class="cls-1" d="M1784.65,779.52l-.21-.12-12.78-.22Z" transform="translate(-40.2)"/><path class="cls-1" d="M1791.85,779.47h-1.49C1790.93,779.83,1791.27,780,1791.85,779.47Z" transform="translate(-40.2)"/><path class="cls-1" d="M1855.43,784.06c-8.84,2.15-27.25,4.46-9.43,7.74C1852.34,789.16,1842.13,787.3,1855.43,784.06Z" transform="translate(-40.2)"/><path class="cls-1" d="M1799.19,784.28l16,.88c-.31-1-3.19-2.5,1.18-3.56Z" transform="translate(-40.2)"/><polygon class="cls-1" points="1751.17 785.5 1758.99 784.28 1753.07 783.96 1751.17 785.5"/><path class="cls-1" d="M1714.78,778c-6.89,1.67-14.44,1.81-23,2.08,9.14.76,18.59,1.17,27.56,1.16C1720.63,780.05,1724.57,777.88,1714.78,778Z" transform="translate(-40.2)"/><path class="cls-1" d="M1748.73,779.09c-.47.08-1.08.13-1.53.22C1748.14,779.63,1748.9,779.74,1748.73,779.09Z" transform="translate(-40.2)"/><path class="cls-1" d="M1607.89,780.08c.47.21.87.47,1.35.7.11-.23.18-.44.31-.67Z" transform="translate(-40.2)"/><path class="cls-1" d="M1720.9,782a33.54,33.54,0,0,0,14.88-1.38c-5.13.39-10.57.64-16.41.67C1718.8,781.8,1718.69,782.16,1720.9,782Z" transform="translate(-40.2)"/><path class="cls-1" d="M1664,776.22c3.58.8,7.64,1.48,11.9,2.11C1672.41,777.11,1665.28,775.22,1664,776.22Z" transform="translate(-40.2)"/><path class="cls-1" d="M1744.89,778.24c.34-.06.65-.13,1-.17C1743.66,777.25,1743.94,777.65,1744.89,778.24Z" transform="translate(-40.2)"/><path class="cls-1" d="M1744.89,778.24a64.27,64.27,0,0,0-9.11,2.35c4.18-.3,8.06-.72,11.42-1.28A11.28,11.28,0,0,1,1744.89,778.24Z" transform="translate(-40.2)"/><path class="cls-1" d="M1582.47,804.76c1.21-3.56,19.27-6.86,34.85-3,15.34-2.67,5.31-14.4-8.08-21-.48,1.55-.48,3-16.26,5.09,5.53,2,35,4.55,21.71,7.78-20.91,1.84-17.13-1.26-27.3-3.15,8.64,4.45-26.6,6.47-22,13l18.33-2.3C1584,802.22,1577.38,803.84,1582.47,804.76Z" transform="translate(-40.2)"/><path class="cls-1" d="M1639.31,781.14l6.5-.44c-7.41-.62-12.71-2.05-22.46-4.84-10.81,1.74-13,3.06-13.8,4.25l32,.5Z" transform="translate(-40.2)"/><path class="cls-1" d="M1675,780.68c-5.07,3.88-20.66,5.53-11.11,9.73,19.06-.27,13.35-3.24,24.74-4.92-30.76,1,8.83-2.17-13.39-4.36,6-.66,11.48-.87,16.61-1-5.53-.47-10.87-1.05-15.9-1.77l.7.24h.15s0,0,0,.06c1.32.48,1.76.78.26.5a3.59,3.59,0,0,1-.64.08,3.74,3.74,0,0,1-1.39,1.46c-8.9-.8-1.4-1,1.39-1.46.11-.19.35-.38.38-.58l-.12,0-30.8,2.13C1652.33,781.24,1660.49,781.13,1675,780.68Z" transform="translate(-40.2)"/><path class="cls-1" d="M1829.57,800.14c-1-.35-.92-.62-1-.9C1826.59,799.71,1825.83,800,1829.57,800.14Z" transform="translate(-40.2)"/><path class="cls-1" d="M1816.89,797.79c2.24-.54,4.11-2.09,11.39-1.69,6.31,1.17,0,1.86.3,3.14,4.39-1,15.36-2.79,1.6-4.67l-2.18.53c-12.4-1.34-28.34-6.17-26.17-6.71C1805.44,791.88,1808.64,794.37,1816.89,797.79Z" transform="translate(-40.2)"/><path class="cls-1" d="M1745,790.23l-25.65,1.9,13.06,3.36-.66-2C1746.38,794.26,1743.23,791.78,1745,790.23Z" transform="translate(-40.2)"/><polygon class="cls-1" points="1564.75 778.15 1568.16 774.05 1553.34 779.84 1564.75 778.15"/><polygon class="cls-1" points="1531.42 778.64 1532.65 775.08 1523.85 777.22 1531.42 778.64"/><path class="cls-1" d="M435.08,826.54l7.53.1A66.35,66.35,0,0,0,435.08,826.54Z" transform="translate(-40.2)"/><path class="cls-1" d="M381.54,817.77l-1.6,1.51C382.58,818.73,383.71,818.2,381.54,817.77Z" transform="translate(-40.2)"/><path class="cls-1" d="M752.83,779c-11-3.33-23.24-8.49-21.92-4.48l3.38,3.9A70.17,70.17,0,0,1,752.83,779Z" transform="translate(-40.2)"/><path class="cls-1" d="M192.36,794l3.1,1.46c2.77-1.1,5.38-2.12,7.71-3.08C199.92,792.92,196.23,793.46,192.36,794Z" transform="translate(-40.2)"/><path class="cls-1" d="M183.25,809.45,169,805.68A108.61,108.61,0,0,0,183.25,809.45Z" transform="translate(-40.2)"/><path class="cls-1" d="M723.62,812l8-5.46C718,808.94,724.37,809.86,723.62,812Z" transform="translate(-40.2)"/><path class="cls-1" d="M1230.17,780.08a177.92,177.92,0,0,0-23.64-2.36C1217.94,780,1227.15,783.32,1230.17,780.08Z" transform="translate(-40.2)"/><path class="cls-1" d="M407.54,864.2c4.7,0,6.77-.45,6.77-1.33C409.5,862.79,406.71,863.1,407.54,864.2Z" transform="translate(-40.2)"/><path class="cls-1" d="M1179.16,777.73c1.67.39,3.31.59,5,.92a173.14,173.14,0,0,1,22.36-.93C1198.1,776.05,1188.44,775,1179.16,777.73Z" transform="translate(-40.2)"/><path class="cls-1" d="M1803.58,825.84c.79.14,1.73.18,2.45.35C1806.24,825.65,1805.16,825.68,1803.58,825.84Z" transform="translate(-40.2)"/><path class="cls-1" d="M2120.51,833.93c-3.05.7-8.09,1.47-12.82,2.24C2110,836.09,2113.91,835.47,2120.51,833.93Z" transform="translate(-40.2)"/><path class="cls-1" d="M1437.48,776.93c7.07-.25,1.12-.43,0,0Z" transform="translate(-40.2)"/><path class="cls-1" d="M1471.87,792.38c-1.51.44-2.65,1-2.83,1.9A4.61,4.61,0,0,1,1471.87,792.38Z" transform="translate(-40.2)"/><path class="cls-1" d="M1108.73,802l-.61,0C1110.22,802.79,1109.86,802.64,1108.73,802Z" transform="translate(-40.2)"/><path class="cls-1" d="M1448.12,778.71c-2.65-.48-5.71-.88-9-1.16C1440.54,777.85,1443.29,778.23,1448.12,778.71Z" transform="translate(-40.2)"/><path class="cls-1" d="M1446.69,776.86c2.44.18,4.35.28,6.18.38C1453.76,776.59,1453,776.18,1446.69,776.86Z" transform="translate(-40.2)"/><path class="cls-1" d="M1427.63,777.14c4-.06,7.82.13,11.45.41-1.39-.26-2-.48-1.6-.62C1435.41,777,1432.48,777.07,1427.63,777.14Z" transform="translate(-40.2)"/><path class="cls-1" d="M1228.83,806.07c.45.18,1,.33,1.47.56C1237.61,805.91,1234.46,805.77,1228.83,806.07Z" transform="translate(-40.2)"/><path class="cls-1" d="M568.81,819.59c.33,0,.5-.14.8-.19l-1-.14Z" transform="translate(-40.2)"/><path class="cls-1" d="M543.41,822.5c10.82-4.86,17-4.27,25.16-3.24L560.17,808Z" transform="translate(-40.2)"/><path class="cls-1" d="M561.78,834.14l-17.29-3.48c5.21-1.45,10-2.42,14.1-3.13l5.47-.9,2.21-.35,1.81-.4c2.14-.5,3.13-.94,2.58-1.51a5.82,5.82,0,0,0-2-1c-1.09-.39-2.61-.82-4.62-1.46-.55,3.06-5,4.67-11.4,5.56-3.2.45-6.89.72-10.82.89-2,.12-4,.1-6.08.08l-6.26-.08c-4.2-.06-8.4-.12-12.36-.08s-7.68.21-10.94.38c-6.52.46-11.15,1.77-12,4.78l-11.32-3.31c3.28.33,3.86-.36,7.1,0-5.64-1.88-9.5-2.28-12.63-1.89l-2,25.28q-.06-7.28.08-14.53.07-3.62.17-7.23l.12-3.57h0l.42.05.41.06.2,0,.1,0s.07,0,0,0l-.72.13a12,12,0,0,0-1.37.37c-.92.27-1.87.59-2.78,1-1.84.75-3.74,1.6-6,2.31a30.1,30.1,0,0,1-8.4,1.38,54.33,54.33,0,0,1-12.95-1.34c-9.93-2.38-16.7-5.26-9.61-5.63l-11.45-.22L412.16,826c-6.5-1.27-4.57-3.11,1.9-1.85-11.47-1.46-22.95-3.05-34.44-4.6l.32-.31c-5.21,1.08-16.8,2.12-22.43,2.45-8.43-3.2,4.59-.54,2.62-2.42L340.62,819c-7.2-4.47,9.07-4.73,22.11-2.1-15.68-15-16.28.38-53.33-13.33l18.19,1.61c-10.36-8.8-24.77-8.85-44.26-16.69,4.39,3.07,38.65,17.92,17.52,17.26-5.65-1.94-13.22-3.72-24.77-3.28.66-4.3-10.38-5.21-24-7.43l2-5.5c-15-1-14.34,2.09-23.44,3.05-16.26-3.58-18.84-8.59-22-13-26-5.73,16.79,10.37-14.41,5.72-21.38-6.2-37.09-6.79-63.79-8.29-14.87-4.84,3.32-3-1.84-5.6l-14.36,1.94c-3.28-.74-2-1.93-1.28-2.52-11.71-.42-2,5.47-20.2,3.6-3.26,2.88-13.27-2.09-25.51-6.8l-4,29c10.67,2.91,22.92,5.46,33.5,3.07,5.4,2.11-3,3.28-1.48,5.65,31.25-2,26.74-1.12,52.61-5.25L169,805.68c-15.47-5.68,5.22-9,23.32-11.66-5.44-2.57-10.08-4.81-13.23-5.95l28.57-.62c3.34,1.24.32,3-4.53,4.95,2-.3,3.85-.61,5.31-.92,9.94,3,4.4,5.85-3.13,8.43-3.35-1.43-6.67-2.94-9.89-4.43-7.29,2.88-14.17,6.17-13,9.65a43,43,0,0,1,9.42-.74c-1.91.78-3.15,1.53-2.36,2.17s4-.32,8.73-1.38l5.88,7,1.78-2.4L242.59,817c7.36-1.12,14.48-2.49,21.82-3.87,3.66-.69,7.38-1.38,11.21-2l5.83-1,3-.47,1.52-.22,1.87-.19,1.54-.29c.52-.1.87-.19,1.32-.29l2.57-.57q2.61-.56,5.31-1.09,5.42-1.05,11.33-2c7.89-1.2,16.52-2.16,26.15-2.77-10.47,4.71-2.25,7.69-2.82,13.27-4.92-2.52-11.6-2.43-19.34-1.6-3.87.42-8,1-12.33,1.59q-3.24.42-6.6.77c-1.12.11-2.24.22-3.38.31l-1.7.12-2.38.1-3-.17-2.37-.16c-1.58-.13-3.17-.31-4.75-.54a33.16,33.16,0,0,1,6.07,1.32,5.1,5.1,0,0,1,2.28,1.41c.32.46-.13.86-.77,1.19a5.72,5.72,0,0,1-2,.8l1.77-.09h2.59c2.66-.2,3.71-.41,5.27-.61l4.44-.61,8.88-1.22,17.76-2.45c-.88,4.56,8.28,3.42,18.48,5.31-7.71-9,29.08-6,45-8.77,1,3-2.82,6.12-22.19,5.39,21.37,6.78,27.61-10.59,48.59-4.82-4.73.07-7.28-.39-9.15,1.14,11.05-2.69,38.06-.56,31.71,2.08l-4.72.06c31.4,1.07,95.58.07,100.27-7.59.31,1-4.12,9.23-6,10.78l56-25.76c-4.93,6.58,14,22.24-12,25.95a107.36,107.36,0,0,0,32.49-.29c-5.1-.94-12.71-9.51-5.74-10.11,19.13,7.32,13.28,3.92,36.86,10.16-7.64-1.41.85-11.72,12.93-11.39-1.88,1.54,1,10.17-3.41,11.25l30.07-10.12c-7.5,1.82-1.32,8.57,5.41,11.43-3.13-2,26,.19,34-.81l-12.75-2.35c34,1.53,33.54-14.23,67.22-13.7-4.08,2.09-10.07,12.87,7.06,14.14,7.85-5.19,34.76-24.94,64.56-28.92l5.72,3,22.86-3.38c-14.24,7.8-54.19,24.22-76,30.6,12.7,2.35,3.54,3.49,22.57,3.23,6.72,2.77-10.38,4.21-16,4.37l44.3,1.8c-2-6.06,33.87-6.07,32.18-11.11l-48.11,6.27c-2-6,27.82-17.18,59.21-16.11,8,2.41-6,10.77-5.32,12.79,4.07-2.08,29.79-4,32.68-2.5l-13.32,3.23c17.47,2.28,28.52-8,49.52-2.24,7.24.39,21.64,7.79,22.89,4.21-11.82-6.91-14.13-28.26-6.25-33.45,2.54.47,38.05,6.6,46.33,10,11.93,5.42-17.92,12.91-7.76,17.55.44-1.65,7-3.69,9.78-4.34,7.61,1.41-3.15,5.12,13.39,4.37,2.76-6.13,33.64.52,7.82-5.19C1051,810,1052,813,1071,812.76c-6-4,17.06-13.49,33.26-15.24-1,1.56,2.69,3.59,4.45,4.52,33.17.55,51,3.33,81.89,3.39,2.85,1.48,17.77,3.28,11.42,5.92,4.45-1.08,8.53-3.16,18.07-3.31,18.46,5.3-21.27.82-7.19,7.2,1.2-3.57,24.66-4.92,38.25-7.15-4.18-5.51-31.39-1.05-45,1.17-.07-7.59,23.62-15.55,55.94-19.06,25.69-1.88,11.13,4.91,15.59,3.83,48.25,1.33,41.11-13.26,81.18-7.78,15.89,4.83.71,9.62,4.24,13.11-20.93,1.84-32.13-3.07-46.31-2.87l17.46,2.29c-6.65,1.6-20.62,2.82-28.24,1.42,13.33,4.35,81.52.84,118.75,4.85,6.61-1.62,18-3.3,12.63-5.25l-11.78.68c-10.83-3.9,22.17-5.4,7.26-7.22,15.8-2.74,33.51-7,55.75-4.85l4.18,5.52c-.47-1.61-14.54-3.29-20.79-1.61,9.27-2.44,34.11,7.47,44.27.25l-15.59-3.82c15.86-2.78,35.47-8.63,55.18-6.89-9-5.45-4.54.62-18.55-5.76,12.14,7.94-50.43-.33-30.92,8-14.38-7.4-24.88-3.14-43.67-9.45.58,1.82,6.66,3.48-9.89,2.58a19.55,19.55,0,0,1-3.63,1.61c-.51-.05-.69-.08-1.12-.14.33.07.58.15.91.21-.71.28-.78.33.34.08,3.94.79,7.14,1.75,8.43,2.77-8.21,4.18-34.53,4.05-43.43,6.21-9.82-.87,4.11-2.09-1.25-4l-13.29,3.23c-1.32-4-26.09-6.71-3-9.08l-20.82-.18c-12.26-2.27-29.12-3.17-39.52-1.47-9.82-.87-24.8,4.47-16.25,1.31l-32.65,2.5-.3-1c-32.22-.51-66.33,6.7-103.16-.6-10.85,1-22.06,2.27-40.2,1.12l-3.54-3.49c-13.92,1.22-41.82-3.5-47.8.14-15-9.41-67.59-2-92.08-3.72l-.93,4.56c-16.86-.26-33,1-54,2.87l1.29,4c-18.05,3.31-46.39-2.87-74.93-2.46,1.94-1.54,9.18-1.14,14.3-.21-34.09-9.11-71.93,6.64-102.85,0a47.09,47.09,0,0,1-18.69,0,9.61,9.61,0,0,0,1.91-.21c-.79,0-2-.06-3.16,0-3.4-.7-6.91-1.5-10.71-2.15a61.14,61.14,0,0,0,9,2.16c-5.94.08-15,.59-23.79,1.6l-3.76-4.34c-.72.06-1.3,0-2,.13-8.67-1.6-7,2-2.34,5.31a79,79,0,0,0-11.69,2.61c-7-7-23.17,2.36-32.79-5.1-5.95,3.64-44.41,2.74-49.12,10.39-.3-1-2.9-1.47,1.87-1.53-9.85-.88-19.69-1.75-28.53.41l-4.18-5.51L584,792.58c-13.07-3.36-18.48-5.31-5.51-9.55-31.33,6.52-25.42,2.46-52.06,8.92l1.3-3.56c-9.52.13-24.74,4.9-30.49,2-21.3-6.77-105.39-.94-160.07-7.23,10.6,10.49-25.42-4.7-27.58,3.43-3.19-2.48-10.81-3.88-1.95-6-3.67.32-7.1.49-10.32.56-1.62,0-3.18,0-4.7,0l-2.24,0h-.85l-.44,0-10.39-1.45c-3.53-.5-6.89-.94-10.2-1.21a58.63,58.63,0,0,0-20.34,1.53c-3-2.76,6.27-3.11,3.56-4.82-2.27.34-9,1.38-11.78-.34s4.25-1.73,8.75-2.42c-28.44-2-32,5.31-34.66,12.28-14.1-4.63-21.32-4.78-32.12-1-4.81-2.77-13-5.94,4.77-5.25-9.9-1.2-60.34-8.7-61.85-3.06-3-1.73-13.84-1.63-16.51-1.2-20.65-2.12-23.78-2.86-42.79-4.14l-3.33,24c.25,0,1.71.26,3.26.52l-3.14-1.12,3.16-22.74,2.74.67a15.35,15.35,0,0,1-2.93,1.55L62.7,791.09c8.62-2.5,17,3.41,32.69,5.64l-.63.6c39,12.51,17.66.95,56,14l-1.35-4.65c5.38-8.43,33.87,12,57.4,12.65L199,815.34c13.06-.82,32.62,18.87,45,22.26,2.59,1.3-4.56.5-8.49.39,31.92,11.35,5.27-4.79,30-1.65,4,3.82-7.21,6.6,9.2,10.11,3.9,1.95,16.31,1.64,30.43,2.06s30,1.48,40.75,6.3c-4.58-3.16-9.11-6.32,2.59-6.12,17.61,2.14,45.89,16.74,63,11.86,2.13,1,2.88,1.73,2.88,2.32,3.43.07,7.92.29,12.85.59s10.3.63,15.53.85c10.44.46,20.33.41,24.72-1.1A10.36,10.36,0,0,0,470,865.8a13.47,13.47,0,0,0,1.84,1.07c.34.17.69.33,1.05.49l.27.12.71.14c.47.09,1,.18,1.46.25l-1.14,0c5.36,1.93,13,2.63,21.38,2.77,4.19.06,8.57,0,13-.14l13-.85c4.22-.27,8.26-.5,11.94-.6,1.84,0,3.6-.07,5.24,0s3.18,0,4.58.07c5.6.32,9.09,1.6,9,4.63,14.16-.07,28.36-1,42.52-1.87l-1,1.48c6.82-.27,12.53-.74,17.38-1.33,2.43-.3,4.65-.63,6.69-1s3.89-.87,5.6-1.32a88.52,88.52,0,0,0,15.94-6.18c3.17.14,3.65.59,3.3,1.18s-1.56,1.22-1.78,1.61c9.89-.59,17.54-1.21,24-1.85a155.92,155.92,0,0,0,16.42-2.74c2.45-.56,4.84-1.18,7.28-1.9s4.91-1.59,7.58-2.55c5.33-1.92,11.42-4.29,19.14-7.41l4.12,3.79c4.12-2.06,18.28-2.82,35.88-4.44,4.4-.43,9-.86,13.75-1.37s9.59-1.12,14.46-1.86,9.78-1.54,14.6-2.51,9.57-2.1,14.14-3.45c-.29.56-.94,1.53-3.81,2.6,2.57-.72,5.23-1.36,7.94-1.93s5.51-1,8.34-1.4c5.65-.8,11.49-1.37,17.36-1.81,2.93-.21,5.87-.42,8.82-.55l8.8-.27,17.09-.46c2.75-.09,5.46-.2,8.09-.34s5.2-.19,7.69-.35a120.38,120.38,0,0,0,13.72-1.51c8.3-1.47,14.72-4,18.28-8.4l27.76-5.87c-18.21.59-17-1.26-13.1-3.47s10.49-4.77,2.88-5.61c14.33-1.92,37.39,2.4,19.83,4.41l-2.8-.62c-1.49,2.22.6,3.33,4.56,3.83s9.79.32,15.79.38c12,0,24.64-.45,24.24,2.45l13.36-.53c2.22-.11,4.44-.09,6.65-.09h6.65q13.27,0,26.46.25c4.4,0,8.77.29,13.14.51l13.08.69c8.7.51,17.37.87,26,1.77l25.69,2.31c8.52.91,17,2,25.43,2.9,4.22.5,8.42.91,12.62,1.44l12.57,1.64,12.52,1.56,6.23.75,6.24.81c-2.29-2.49-4.59-5-6.9-7.46,7.74,1,15.47,2.17,23.21,3.25,5.91,2.28,7.52,6.13-9,3.79,4.12,2.4,11.15,2.49,17.25,1.81s11.28-2,11.6-2.72c32.17,7-13.71,5.9-3.75,7.4l13.59,1.33-2.94-1.17c11.34-1.18,12.65-3.9,32.65-.86,12.5,3,6,4.91,10.91,5.84-.09.46,1.57.9,7.63,1.23l29.48,4.4L1323,845.2c13.42-.85,27.72,3.86,14.84-3.75a42.61,42.61,0,0,0,10.16,4.07c4.32,1.23,9.48,2.36,15.18,3.42s11.94,2,18.42,2.94c3.23.48,6.54.85,9.88,1.21l10,1.06c26.72,2.92,52.61,4,58.69,5.9,4.69-.58,9.34-.91,14-1.06s9.44-.31,14.3-.23c9.72.17,19.91.89,31.2,1.78-2.78-.7-4.93-2.56-4-4,.48-.72,1.74-1.35,4.1-1.67a30.06,30.06,0,0,1,4.39-.25c1.76,0,3.84,0,6.26.23-7.66,11.77,35.44,6.55,51,15.74-14-6,55.58-.64,33.56-9.12,16.26,1.21.93,4.53,13.26,7.54,4.86-.51,9.83-.83,14.92-1s10.27-.39,15.56-.39c10.58,0,21.55.35,32.81.83l17.11.74c5.76.13,11.59.24,17.46.29,11.73.1,23.65-.05,35.63-.78.68-1.61-7.42-3.8,2.77-6.44,4.26,1.23,8.52,2.28,12.78,3.42l12.82,3.36c9.44-1.23,8.27-9.54,25.82-4.87-2.51-1.21-6.25-3,0-3.85q4.41.15,8.84.24c2.94.06,5.89,0,8.84,0q8.85-.09,17.73-.39t17.79-.75c5.94-.32,11.9-.61,17.84-1.14,11.89-1,23.81-2.09,35.75-3.26l9-.88c3-.3,6-.67,9-1l17.92-2c47.84-5.39,95.69-10.93,144-10.64-13.25-1.27-4.74-2.69,5-4.26-6.46.24-.43-3.89-2-5.82l20.17,0,10.1,0,10.11-.14c3.11-3.55,13.67-5.28,23.83-7.17,5.08-.93,10.07-1.8,14-2.89s6.74-2.36,7.51-4c-4.09,1.09-8.18,2.24-12.28,3.28,7.7-4.77,1.22-7.4-7-10s-18.17-5.15-17.68-9.63c-4.28,2.64-9.58,3.75-15.55,4.19s-12.62.15-19.62,0a141.36,141.36,0,0,0-21.71.81,63.88,63.88,0,0,0-22,6.58c-6.92-.81,5.33-3.54,1.48-5a37.73,37.73,0,0,1-13,5.26,119.63,119.63,0,0,1-20.75,2l1.83-1.15c-48.26,6.92-69.49,5.48-124.14,8l4.41,3.92c-11.77.39-14.35-.74-19.92-1.36-12.93,7.54,32.95-2.33,21.31,5.78-8.17-3.7-28.83-2-48.89-.6-20.08,1.13-39.54,2.06-45.09-2.52-9,.57-7.62,1.71-6.23,2.86.7.57,1.4,1.14.79,1.64s-2.51,1-7,1.13l-4.93-2.44-4.39,3.65c-11.88,0-18-3.06-18.55-5.29,2.88.13,8.12-1,11.19-1.36-7.75-1.21-18.53-.43-28.06.56s-17.8,2-20.45,1.56c5.8.36,11.6.82,17.4,1-6.14.66-12.47,1-18.92,1.33s-13,.61-19.68.85c-13.32.45-26.95,1-40.53,1s-27.11.42-40.23,1l-19.31.89c-6.31.33-12.47.79-18.43,1.38l3.59,2.06c-18.24,1.61-25.54,1-33.26,0-3.87-.42-7.83-1-13.33-1.5s-12.53-.76-22.53-.69l1.47-.43a92.86,92.86,0,0,1-13.79,1.73c-2.53.15-5.15.22-7.82.22-1.34,0-2.68,0-4-.07s-2.71-.16-4.08-.26c10.18-1.77-18.7-5.68-5.37-7.51-19.76.85-24.69,1.34-28,2.38-1.64.51-2.86,1.16-5.34,2.05a86.39,86.39,0,0,1-12.85,3.39l-5.76-3.8c-9.08,2.3-10,3.83-30,3.1,16.59-1.55-12.26-6.08,6.35-8.4a163.26,163.26,0,0,0-27.33-4.62c-8.06-.63-15.16-.51-21.55-.44-12.78.05-22.74-.19-31.64-6.58-20.22,6.94,35.42,9.31,24.49,10,8.66,4-16.58,5-29.59,2.56-6.66-.85-12-4.56-19.77-8.49s-18.09-8.09-34.87-10.32c3.33.5,3.65-.17,7,.32-12.24-4-25-.18-39.91-6-9.39,4.37-20-3-23.43,3.71l31.06,2.51c-8.87-.25-17.68,1.14-27.79,1.61a111.51,111.51,0,0,1-35.76-3.66c2.42-1.15,11.24-1.94,17.28-2.25-4.09-1.57-8.21-1.74-12.36-1.91s-8.33-.39-12.61-1.9c.82-1.69,3.63-2.44,7.64-2.49a130,130,0,0,1,15,1.07c5.74.64,12,1.37,18,1.79a78.38,78.38,0,0,0,16.66-.16c-4.33-2.09-13.35-2-20-2.18s-11-.55-5.75-3.79c-7.44,4-15.71,2.67-25.14.88s-20.12-3.68-32-1.2l1.94-4.09c-3.7.21-11.5,1.61-18.22.93l12.73-4.48c-9.62,1.56-18.56-.24-27.44-2.29l-6.64-1.54c-2.22-.5-4.45-.86-6.68-1.2a59.33,59.33,0,0,0-13.53-.58c9.5.5,14.75,1.1,17.54,1.78s3.11,1.52,2.75,2.31c-.73,1.64-4.19,3.46,3.65,5.68-5.85.16-10.65.35-14.67.19a62.82,62.82,0,0,1-10-1,43.55,43.55,0,0,1-12.53-4.59c-1.81-.91-3.67-1.87-5.85-2.76a53.08,53.08,0,0,0-7.79-2.32c-6.2-1.37-14.8-2.25-27.94-2.07,7.14-.42,26.62,3.23,15.47,4.93-5-.56-10.74-1.33-16-2.26-2.65-.5-5.18-.92-7.43-1.38a44.69,44.69,0,0,1-5.75-1.53c-34.73,1.12,5.34,4.36-9.42,7.08-5.91-2.56-10.17-2-14.81-.58-2.33.71-4.75,1.64-7.53,2.5a60,60,0,0,1-9.68,2.35l-.23-4.33c-19.71-.65-22.24,1.71-24.25,4a7.78,7.78,0,0,1-4.74,2.94c-2.84.73-7.66.89-16.49.71L972,791l7.33-3.3-4.6.56c-1.53.18-3.06.38-4.58.63L961,790.31l3.51-5.19c-19.83,5-26.09,4.42-45.83,4.47,4.79,2.64-1.92,8.09-19.16,9.79-12-1.49,6.22-4.72-18.23-1.86,5.25-3.22,11-7.16,22.08-4.15,1-1.51,5.22-3.21,6.23-4.7-6.5-.9-14.53-.34-22,.55s-14.5,2.3-18.95,2.79c3.45-.22,7.57-.45,9.73-.07-11.66,3.34-23.3,6.59-34.87,10-5.78-.87-1.52-2.79,2.72-4.6-7.14,1.38-11.86,4-22.37,5.79,2.27-3.86,1.12-7.38,15.93-11L823,796.29c-5.56,1.4-11.13,2.74-16.65,4.27-2.47-1.18-18-1.57-13.78-3.51a61.26,61.26,0,0,0-7.46.81c-2.59.42-5.26,1-8,1.73-5.47,1.41-11.25,3.21-17.22,5s-12.07,3.7-18.27,5.2A110.09,110.09,0,0,1,723,812.88c-1.15.9-3.57,2-8.67,3.43-5.77.83-11.4,1.4-17,1.91s-11.16,1-16.8,1.69-11.35,1.41-17.29,2.63c-3,.63-6,1.27-9.07,2s-6.24,1.68-9.49,2.74c-2.65-.71-5.3-1.39-7.94-2.11l-7.86-2.34c-10.24,1.84-5,3.27-1.39,5s5.54,3.76-11.77,6.85c-24.55,3.87-9.63-4.69-18.36-5.8l-4.89,1.69c-1.75.62-3.65,1.13-5.66,1.71-4,1.13-8.51,2.25-13.34,3.13-2.42.43-4.92.83-7.5,1.08s-5.24.28-8,.25a79.1,79.1,0,0,1-16.7-1.88C548.85,833.69,554.75,834.62,561.78,834.14ZM301.33,805.9c5.24,0,15.84-.95,19.11,2.2C313.8,812,309.74,808.84,301.33,805.9Zm-70.6-.16c-3.95,1.09-9.8-.13-16.34-2.35A65.1,65.1,0,0,1,230.73,805.74ZM1360,780.47a3.16,3.16,0,0,0-.55.21C1347.91,779,1352,779.65,1360,780.47Zm23.92,1.88c2.4-.6,2.24-1.21,1.22-1.81-1.67,1.1-7,1.17-13.16.86C1373.66,782.54,1376.75,783.32,1383.9,782.35Zm-84,62.67-4.47-1.75C1306,843.45,1303,844.17,1299.9,845Z" transform="translate(-40.2)"/><path class="cls-1" d="M184.45,807.67a4.08,4.08,0,0,1-2-2.54C180.37,805.68,180.25,806.52,184.45,807.67Z" transform="translate(-40.2)"/><path class="cls-1" d="M722.15,813c.27,0,.54-.08.81-.1a1.9,1.9,0,0,0,.66-.91Z" transform="translate(-40.2)"/><path class="cls-1" d="M1013.34,819.17c-4.92-.63-7.67-1.42-9.5-2.25C1003.57,818,1005.81,818.88,1013.34,819.17Z" transform="translate(-40.2)"/><path class="cls-1" d="M1510.67,775l-15.33,1.13c7.41-.21,10.06.74,13.8,1.43C1508.8,776.51,1505.88,775,1510.67,775Z" transform="translate(-40.2)"/><path class="cls-1" d="M1643.67,801.84c2.24-.53,4.75-.06,7-.6l-.61-2C1640.48,799.36,1633.81,801,1643.67,801.84Z" transform="translate(-40.2)"/><path class="cls-1" d="M1524.85,789.4c1.22,3.65,10.83,2.41,21.56,1.74-.64,0-1.25,0-1.9,0C1547.68,786,1536.24,787.72,1524.85,789.4Z" transform="translate(-40.2)"/><path class="cls-1" d="M1548.9,791a96.75,96.75,0,0,1,9.92-.09C1560.08,788.87,1554.8,790.5,1548.9,791Z" transform="translate(-40.2)"/><path class="cls-1" d="M1414.24,779.93c5.09.94,3.2-4.67,6.08-3.18C1426,772.1,1386.38,782.37,1414.24,779.93Z" transform="translate(-40.2)"/><polygon class="cls-1" points="1493.34 801.43 1489.49 796.92 1483.48 800.56 1493.34 801.43"/><path class="cls-1" d="M1448.79,798.12l17.15,1.25c-.26-.75,1.92-1.2,4.6-1.54C1460,797.69,1448.39,796.79,1448.79,798.12Z" transform="translate(-40.2)"/><path class="cls-1" d="M1470.54,797.83c5.5.09,10.74,0,13.8-.74C1481.36,797.14,1475,797.28,1470.54,797.83Z" transform="translate(-40.2)"/><polygon class="cls-1" points="1469.89 802.79 1464.82 801.85 1452.71 801.52 1469.89 802.79"/><path class="cls-1" d="M1264.42,797.25l-18.72,1.3c-1.91,1.54,3.2,2.49,10.17,1.87C1260.35,799.35,1267.29,798.75,1264.42,797.25Z" transform="translate(-40.2)"/><path class="cls-1" d="M1321,809.6c-5.06-.93-5.4-1.94-8.26-3.43l-.57,5.59Z" transform="translate(-40.2)"/><path class="cls-1" d="M1266.44,810.91c-1.86,1.55-27.16,4.45-3.44,4.1C1264.9,813.47,1283.65,812.18,1266.44,810.91Z" transform="translate(-40.2)"/><polygon class="cls-1" points="944.19 803.84 948.95 803.77 948.27 794.6 944.19 803.84"/><path class="cls-1" d="M735.81,825.77c22.18,2.19,5.27-5.66,25.31-2.92,5.21-2.16-16.38-2.23-11-4.11C736.69,821,729.66,819.74,735.81,825.77Z" transform="translate(-40.2)"/><path class="cls-1" d="M750.08,818.74c2.14-.36,4.41-.8,6.83-1.39A40.92,40.92,0,0,0,750.08,818.74Z" transform="translate(-40.2)"/><path class="cls-1" d="M2173.3,830.35c4.85-.21,9.69-.35,14.56-.63-3.25-.43-6.49-.92-9.72-1.4Z" transform="translate(-40.2)"/><path class="cls-1" d="M2199.32,818.73l4.47,5.09,7.61-6.9C2208.1,817.88,2202,819.54,2199.32,818.73Z" transform="translate(-40.2)"/><path class="cls-1" d="M264.49,787.35l-1.32,1.19c1.9,1.89,5.16,2.6,11.68,4Z" transform="translate(-40.2)"/><polygon class="cls-1" points="413.25 823.46 410.03 822.87 415.35 828.96 413.25 823.46"/><path class="cls-1" d="M608.83,820.52a95.68,95.68,0,0,0-10,1.11c-1.7.25-3.41.49-5.09.7a36.09,36.09,0,0,1-4.91.34c1.72-.16,3.34-.29,4.88-.32a42.65,42.65,0,0,1,4.31.12c2.68.2,5,.58,6.74.83C608.37,823.8,610,823.74,608.83,820.52Z" transform="translate(-40.2)"/></g></g></svg>