<?xml version="1.0" encoding="utf-8"?>
<!-- Generator: Adobe Illustrator 23.0.3, SVG Export Plug-In . SVG Version: 6.00 Build 0)  -->
<svg version="1.1" id="Layer_1" xmlns="http://www.w3.org/2000/svg" xmlns:xlink="http://www.w3.org/1999/xlink" x="0px" y="0px"
	 viewBox="0 0 2171.2 873.7" style="enable-background:new 0 0 2171.2 873.7;" xml:space="preserve">
<style type="text/css">
	.st0{fill:#47B066;}
</style>
<title>Middel 12</title>
<g id="Laag_2">
	<g id="Laag_1-2">
		<rect x="115.1" y="54.3" class="st0" width="1920" height="746.1"/>
		<path class="st0" d="M115.1,56.7c0,0,167.8-43.1,515.7-34.2c309.7,7.9,376.1,62.8,657.8,40.1c221.5-17.9,261.1-57.4,447.5-42.5
			c0,0-47-9.5,299,56.9l-19.2,1.1l-92.7-6L115.1,56.7z"/>
		<path class="st0" d="M211.2,85.6c-9.3-6.4-35.5,1-53-1.2l-2.9-1.5l-7.9,5.2C168.7,87.2,196.3,83.8,211.2,85.6z"/>
		<path class="st0" d="M263.5,99.5c-3.2-2.5,11.3-2.2-12.2-0.8c1.2,0.3,1.5,0.4,2.2,0.6C255.7,99.3,258.6,99.3,263.5,99.5z"/>
		<path class="st0" d="M253.5,99.4C243.2,99.5,260.3,101.5,253.5,99.4z"/>
		<path class="st0" d="M301.2,97.9l-13.6,2.2c2.8,1.5,15,1.8,10.5,2.9C312,101.8,309.2,100.3,301.2,97.9z"/>
		<path class="st0" d="M314.1,93.2l-7.1,0.9C308.3,94.8,310.2,95,314.1,93.2z"/>
		<path class="st0" d="M292.1,96.2l15-2c-2-1-2.2-3.1-6.9,0.7C301.4,93,298.5,94.8,292.1,96.2z"/>
		<path class="st0" d="M283.7,95.2c-7.6-1.4-17.5-2.3-3.8-4.5C253.8,91.6,257.6,96.1,283.7,95.2z"/>
		<path class="st0" d="M216.2,79L206,77.1l-8.8,2.2C201.6,78.2,216.9,81,216.2,79z"/>
		<path class="st0" d="M386,101.2c0.9-1.4-4.6-3.6-5.6-5.4l-10,1.6C375.5,98.4,385.3,99.2,386,101.2z"/>
		<path class="st0" d="M380.4,95.9l15-2.3C382,93.2,379.5,94.3,380.4,95.9z"/>
		<polygon class="st0" points="316.6,86.1 291.9,91 321.3,86 		"/>
		<polygon class="st0" points="443.4,101.4 434.9,104.6 450.1,99.8 		"/>
		<path class="st0" d="M481.5,100.9c-6.3,2.6,8.7,4.4,2,6c10.3-0.5,19.2-2.7,27.1-4.7C502.2,103.3,493.2,103,481.5,100.9z"/>
		<path class="st0" d="M524,99.2c-4.2,0.6-8.6,1.8-13.4,3C515.2,101.6,519.6,100.6,524,99.2z"/>
		<path class="st0" d="M421,94.2c1.2,0.8,3.4,3,11.8,3.9l-5.9-3.8L421,94.2z"/>
		<path class="st0" d="M426.8,94.1l0.2,0.1l12.8,0.2L426.8,94.1z"/>
		<path class="st0" d="M419.6,94.2h1.5C420.5,93.8,420.1,93.7,419.6,94.2z"/>
		<path class="st0" d="M356,89.6c8.8-2.2,27.2-4.5,9.4-7.7C359.1,84.5,369.3,86.3,356,89.6z"/>
		<path class="st0" d="M412.2,89.4l-16-0.9c0.3,1,3.2,2.5-1.2,3.6L412.2,89.4z"/>
		<polygon class="st0" points="420,88.1 412.2,89.4 418.1,89.7 		"/>
		<path class="st0" d="M496.6,95.6c6.9-1.7,14.5-1.8,23-2.1c-9.1-0.8-18.6-1.2-27.5-1.2C490.8,93.6,486.8,95.8,496.6,95.6z"/>
		<path class="st0" d="M462.7,94.6c0.5-0.1,1.1-0.1,1.5-0.2C463.3,94,462.5,93.9,462.7,94.6z"/>
		<path class="st0" d="M603.5,93.6c-0.5-0.2-0.9-0.5-1.3-0.7c-0.1,0.2-0.2,0.5-0.3,0.7L603.5,93.6z"/>
		<path class="st0" d="M490.5,91.7c-5-0.7-10.1-0.2-14.9,1.4c5.1-0.4,10.6-0.6,16.4-0.7C492.6,91.8,492.7,91.5,490.5,91.7z"/>
		<path class="st0" d="M547.4,97.4c-3.6-0.8-7.6-1.5-11.9-2.1C539,96.5,546.1,98.4,547.4,97.4z"/>
		<path class="st0" d="M466.5,95.4c-0.3,0.1-0.7,0.1-1,0.2C467.7,96.4,467.5,96,466.5,95.4z"/>
		<path class="st0" d="M466.5,95.4c3.1-0.6,6.1-1.3,9.1-2.3c-4.2,0.3-8.1,0.7-11.4,1.3C465,94.6,465.8,95,466.5,95.4z"/>
		<path class="st0" d="M628.9,68.9c-1.2,3.6-19.3,6.9-34.8,3c-15.3,2.7-5.3,14.4,8.1,21c0.5-1.6,0.5-3,16.3-5.1
			c-5.5-1.9-35-4.6-21.7-7.8c20.9-1.8,17.1,1.3,27.3,3.1c-8.6-4.4,26.6-6.5,22-13l-18.3,2.3C627.4,71.4,634,69.8,628.9,68.9z"/>
		<path class="st0" d="M572.1,92.5l-6.5,0.5c7.4,0.6,12.7,2,22.5,4.8c10.8-1.7,13-3.1,13.8-4.2l-32-0.5L572.1,92.5z"/>
		<path class="st0" d="M536.4,93c5.1-3.9,20.7-5.5,11.1-9.7c-19.1,0.3-13.4,3.2-24.8,4.9c30.8-1-8.8,2.2,13.4,4.4
			c-6,0.7-11.5,0.9-16.6,1c5.5,0.5,10.9,1,15.9,1.8l-0.7-0.2h-0.1c0,0,0,0,0-0.1c-1.3-0.5-1.8-0.8-0.3-0.5c0.2-0.1,0.4-0.1,0.6-0.1
			C535.4,93.8,535.8,93.3,536.4,93c8.9,0.8,1.4,1-1.4,1.5c-0.1,0.2-0.3,0.4-0.4,0.6h0.1l30.8-2C559.1,92.4,550.9,92.5,536.4,93z"/>
		<path class="st0" d="M381.8,73.5c1,0.3,0.9,0.6,1,0.9C384.8,73.9,385.6,73.6,381.8,73.5z"/>
		<path class="st0" d="M394.5,75.8c-2.2,0.5-4.1,2.1-11.4,1.7c-6.3-1.2,0-1.8-0.3-3.1c-4.4,1-15.4,2.8-1.6,4.7l2.2-0.5
			c12.4,1.3,28.3,6.2,26.2,6.7C406,81.8,402.8,79.3,394.5,75.8z"/>
		<path class="st0" d="M466.4,83.4l25.7-1.9l-13.1-3.4l0.7,2C465,79.4,468.2,81.9,466.4,83.4z"/>
		<polygon class="st0" points="606.4,95.5 603,99.6 617.9,93.8 		"/>
		<polygon class="st0" points="639.8,95 638.5,98.6 647.3,96.4 		"/>
		<path class="st0" d="M1776.3,47.1l-7.5-0.1C1771.3,47.2,1773.8,47.2,1776.3,47.1z"/>
		<path class="st0" d="M1829.9,55.9l1.6-1.5C1828.8,54.9,1827.7,55.5,1829.9,55.9z"/>
		<path class="st0" d="M1458.6,94.6c11,3.3,23.2,8.5,21.9,4.5l-3.4-3.9C1470.9,95.8,1464.7,95.6,1458.6,94.6z"/>
		<path class="st0" d="M2019,79.6l-3.1-1.5c-2.8,1.1-5.4,2.1-7.7,3.1C2011.5,80.7,2015.2,80.2,2019,79.6z"/>
		<path class="st0" d="M1487.8,61.7l-8,5.4C1493.4,64.7,1487,63.8,1487.8,61.7z"/>
		<path class="st0" d="M981.2,93.6c7.8,1.3,15.7,2.1,23.6,2.4C993.5,93.7,984.2,90.3,981.2,93.6z"/>
		<path class="st0" d="M1803.9,9.4c-4.7,0-6.8,0.4-6.8,1.3C1801.9,10.9,1804.7,10.6,1803.9,9.4z"/>
		<path class="st0" d="M1032.2,95.9c-1.7-0.4-3.3-0.6-5-0.9c-7.4,0.8-14.9,1.1-22.4,0.9C1013.3,97.6,1023,98.6,1032.2,95.9z"/>
		<path class="st0" d="M407.8,47.8c-0.8-0.1-1.7-0.2-2.5-0.3C405.2,48,406.2,48,407.8,47.8z"/>
		<path class="st0" d="M773.9,96.7C766.8,97,772.8,97.1,773.9,96.7z"/>
		<path class="st0" d="M739.5,81.3c1.5-0.4,2.6-1,2.8-1.9C741.7,80.3,740.7,81,739.5,81.3z"/>
		<path class="st0" d="M1102.7,71.6h0.6C1101.2,70.9,1101.5,71,1102.7,71.6z"/>
		<path class="st0" d="M763.3,94.9c2.7,0.5,5.7,0.9,9,1.2C770.9,95.8,768.1,95.4,763.3,94.9z"/>
		<path class="st0" d="M764.7,96.8c-2.4-0.2-4.4-0.3-6.2-0.4C757.6,97.1,758.4,97.5,764.7,96.8z"/>
		<path class="st0" d="M783.8,96.5c-4,0.1-7.8-0.1-11.4-0.4c1.4,0.3,2,0.5,1.6,0.6C776,96.7,778.9,96.6,783.8,96.5z"/>
		<path class="st0" d="M982.6,67.6c-0.5-0.2-1-0.3-1.5-0.6C973.8,67.7,977,67.9,982.6,67.6z"/>
		<path class="st0" d="M1642.6,54.1c-0.3,0-0.5,0.1-0.8,0.2l1,0.1L1642.6,54.1z"/>
		<path class="st0" d="M1668,51.2c-10.8,4.9-17,4.3-25.2,3.2l8.4,11.2L1668,51.2z"/>
		<path class="st0" d="M1948.2,115.9L1997,99c15.5,5.7,40.1-22,22-19.3c5.4,2.6,10.1,4.8,13.2,6l-28.6,0.6c-3.3-1.2-0.3-3,4.5-5
			c-2,0.3-3.8,0.6-5.3,0.9c-9.9-3-4.4-5.8,3.1-8.4c3.3,1.4,6.7,2.9,9.9,4.4c7.3-2.9,14.2-6.2,13-9.7c-3.1,0.6-6.3,0.8-9.4,0.7
			c1.9-0.8,3.1-1.5,2.4-2.2s-4,0.3-8.7,1.4l-5.9-7l-1.8,2.4l-36.7-7.3c-7.4,1.1-14.5,2.5-21.8,3.9c-3.7,0.7-7.4,1.4-11.2,2l-5.8,1
			l-3,0.5l-1.5,0.2l-1.9,0.2l-1.5,0.3c-0.5,0.1-0.9,0.2-1.3,0.3l-2.6,0.6c-1.7,0.4-3.5,0.7-5.3,1.1c-3.6,0.7-7.4,1.4-11.3,2
			c-7.9,1.2-16.5,2.2-26.2,2.8c10.5-4.7,2.3-7.7,2.8-13.3c4.9,2.5,11.6,2.4,19.3,1.6c3.9-0.4,8-1,12.3-1.6c2.2-0.3,4.4-0.5,6.6-0.8
			c1.1-0.1,2.2-0.2,3.4-0.3l1.7-0.1l2.4-0.1l3,0.2l2.4,0.2c1.6,0.1,3.2,0.3,4.8,0.5c-2.1-0.2-4.1-0.7-6.1-1.3
			c-0.9-0.3-1.7-0.7-2.3-1.4c-0.3-0.5,0.1-0.9,0.8-1.2c0.6-0.4,1.3-0.7,2-0.8l-1.8,0.1h-2.6c-2.7,0.2-3.7,0.4-5.3,0.6l-4.4,0.6
			l-8.9,1.2l-17.7,2.4c0.9-4.6-8.3-3.4-18.5-5.3c7.7,9-29.1,6-45,8.8c-1-3,2.8-6.1,22.2-5.4c-21.4-6.8-27.6,10.6-48.6,4.8
			c4.7-0.1,7.3,0.4,9.2-1.2c-11,2.7-38.1,0.6-31.7-2.1l4.7-0.1c-31.4-1.1-95.6-0.1-100.3,7.6c-0.3-1,4.1-9.2,6-10.8l-56,25.7
			c4.9-6.6-14-22.2,12-25.9c-10.8-1.6-21.7-1.5-32.5,0.3c5.1,0.9,12.7,9.5,5.7,10.1c-19.1-7.3-13.3-3.9-36.9-10.2
			c7.7,1.4-0.8,11.7-12.9,11.4c1.9-1.5-1-10.2,3.4-11.2l-30.1,10.1c7.5-1.8,1.3-8.6-5.4-11.4c3.1,2-26-0.2-34,0.8l12.7,2.3
			c-33.9-1.5-33.5,14.2-67.2,13.7c4.1-2.1,10.1-12.9-7-14.2c-7.8,5.2-34.8,25-64.6,29l-5.7-3l-22.9,3.4c14.2-7.8,54.2-24.2,76-30.6
			c-12.7-2.3-3.5-3.5-22.6-3.2c-6.7-2.8,10.4-4.2,16-4.4l-44.3-1.8c2,6.1-33.9,6.1-32.2,11.1l48.1-6.3c1.9,6-27.8,17.2-59.2,16.1
			c-8-2.4,6-10.8,5.3-12.8c-4.1,2.1-29.8,4-32.7,2.5l13.3-3.2c-17.5-2.3-28.5,8-49.5,2.2c-7.2-0.4-21.6-7.8-22.9-4.2
			c11.8,6.9,14.1,28.3,6.3,33.5c-2.5-0.5-38.1-6.6-46.3-10c-11.9-5.4,17.9-12.9,7.8-17.5c-0.4,1.7-7,3.7-9.8,4.3
			c-7.6-1.4,3.2-5.1-13.4-4.4c-2.8,6.1-33.6-0.5-7.8,5.2c-16.2,1.8-17.2-1.3-36.2-1c6,4-17.1,13.5-33.3,15.2c1-1.6-2.7-3.6-4.4-4.5
			c-33.2-0.6-51-3.3-81.9-3.4c-2.8-1.5-17.8-3.3-11.4-5.9c-4.4,1.1-8.5,3.2-18.1,3.3c-18.5-5.3,21.3-0.8,7.2-7.2
			c-1.2,3.6-24.7,4.9-38.2,7.1c4.2,5.5,31.4,1,45-1.2c0.1,7.6-23.6,15.5-55.9,19.1c-25.7,1.9-11.1-4.9-15.6-3.8
			c-48.2-1.3-41.1,13.3-81.2,7.8c-15.9-4.8-0.7-9.6-4.2-13.1c20.9-1.8,32.1,3.1,46.3,2.9l-17.5-2.3c6.6-1.6,20.6-2.9,28.2-1.4
			c-13.3-4.3-81.6-0.8-118.7-4.8c-6.6,1.6-18,3.3-12.6,5.2l11.8-0.7c10.8,3.9-22.2,5.4-7.3,7.2c-15.8,2.7-33.5,7-55.8,4.8l-4.2-5.5
			c0.5,1.6,14.5,3.3,20.8,1.6c-9.3,2.4-34.1-7.5-44.3-0.2l15.6,3.8c-15.9,2.8-35.5,8.6-55.2,6.9c9,5.4,4.5-0.6,18.6,5.8
			c-12.2-7.9,50.4,0.3,30.9-8c14.4,7.4,24.9,3.1,43.7,9.4c-0.6-1.8-6.7-3.5,9.9-2.6c1.1-0.7,2.4-1.2,3.6-1.6c0.5,0,0.7,0.1,1.1,0.1
			c-0.3-0.1-0.6-0.2-0.9-0.2c0.7-0.3,0.8-0.3-0.3-0.1c-3.9-0.8-7.1-1.8-8.4-2.8c8.2-4.2,34.5-4,43.4-6.2c9.8,0.9-4.1,2.1,1.2,4
			l13.3-3.2c1.3,4,26.1,6.7,3,9.1l20.8,0.2c12.3,2.3,29.1,3.2,39.5,1.5c9.8,0.9,24.8-4.5,16.2-1.3l32.6-2.5l0.3,1
			c32.2,0.5,66.3-6.7,103.2,0.6c10.8-1,22.1-2.3,40.2-1.1l3.5,3.5c13.9-1.2,41.8,3.5,47.8-0.1c15,9.4,67.6,2,92.1,3.7l0.9-4.6
			c16.9,0.3,33-1,54-2.9l-1.3-4c18-3.3,46.4,2.9,74.9,2.5c-1.9,1.5-9.2,1.1-14.3,0.2c34.1,9.1,71.9-6.6,102.9,0
			c6.2-1.3,12.5-1.3,18.7,0c-0.6,0-1.3,0.1-1.9,0.2c0.8,0,2,0.1,3.2,0c3.4,0.7,6.9,1.5,10.7,2.2c-2.9-0.9-5.9-1.7-9-2.2
			c5.9-0.1,15-0.6,23.8-1.6l3.8,4.3c0.7-0.1,1.3,0,2-0.1c8.7,1.6,7-2,2.3-5.3c4-0.6,7.9-1.4,11.7-2.6c7,7,23.2-2.3,32.8,5.1
			c6-3.6,44.4-2.7,49.1-10.4c0.3,1,2.9,1.5-1.9,1.5c9.8,0.9,19.7,1.8,28.5-0.4l4.2,5.5l21.5-7.4c13.1,3.4,18.5,5.3,5.5,9.6
			c31.3-6.5,25.4-2.5,52-8.9l-1.3,3.6c9.5-0.1,24.8-4.9,30.5-2c21.3,6.8,105.4,0.9,160.1,7.2c-10.6-10.5,25.4,4.7,27.6-3.4
			c3.2,2.5,10.8,3.9,2,6c3.7-0.3,7.1-0.5,10.3-0.6c1.6,0,3.2,0,4.7,0h2.2h0.6h0.3h0.4l10.4,1.4c3.5,0.5,6.9,0.9,10.2,1.2
			c6.8,0.7,13.7,0.2,20.3-1.5c3,2.8-6.3,3.1-3.6,4.8c2.3-0.3,9-1.4,11.8,0.3s-4.2,1.7-8.7,2.4c28.4,2.1,32-5.3,34.7-12.3
			c14.1,4.6,21.3,4.8,32.1,1c-0.9,3.2-10.5,36.1-4.8,5.3c9.9,1.2-45.6,35.8-44.1,30.2c3,1.7-14.9-27-12.2-27.5 M135.8,62.3
			c6.9,0.8-5.3,3.5-1.5,5c4-2.5,8.4-4.3,13-5.2c6.8-1.3,13.8-1.9,20.8-2l-1.8,1.2c48.3-6.9,69.5-5.5,124.1-8l-4.4-3.9
			c11.8-0.4,14.4,0.7,19.9,1.4c12.9-7.5-33,2.3-21.3-5.8c8.2,3.7,28.8,2,48.9,0.6c20.1-1.1,39.5-2.1,45.1,2.5c9-0.6,7.6-1.7,6.2-2.8
			c-0.7-0.6-1.4-1.1-0.8-1.6s2.5-1,7-1.1l4.9,2.4l4.4-3.7c11.9,0,18,3.1,18.6,5.3c-2.9-0.1-8.1,1-11.2,1.4c7.7,1.2,18.5,0.4,28-0.6
			s17.8-2,20.5-1.6c-5.8-0.4-11.6-0.8-17.4-1c6.1-0.7,12.5-1,18.9-1.3s13-0.6,19.7-0.8c13.3-0.5,26.9-1,40.5-1s27.1-0.4,40.2-1
			l19.3-0.9c6.3-0.3,12.5-0.8,18.4-1.4l-3.6-2.1c18.2-1.6,25.5-0.9,33.3,0c3.9,0.4,7.8,1,13.3,1.5s12.5,0.8,22.5,0.7l-1.5,0.4
			c4.6-1,9.2-1.6,13.9-1.8c2.5-0.2,5.2-0.2,7.8-0.2c1.3,0,2.7,0,4,0.1s2.7,0.2,4.1,0.3c-10.2,1.8,18.7,5.7,5.4,7.5
			c19.8-0.8,24.7-1.3,28-2.4c1.6-0.5,2.9-1.2,5.3-2c4.2-1.5,8.5-2.6,12.8-3.4l5.8,3.8c9.1-2.3,10-3.8,30-3.1
			c-16.6,1.5,12.3,6.1-6.3,8.4c9,2.3,18.1,3.9,27.3,4.6c8.1,0.6,15.2,0.5,21.6,0.4c12.8,0,22.7,0.2,31.6,6.6
			c20.2-6.9-35.4-9.3-24.5-10c-8.7-4,16.6-5,29.6-2.6c6.7,0.8,12,4.5,19.8,8.5s18.1,8.1,34.9,10.3c-3.3-0.5-3.7,0.2-7-0.3
			c12.2,4,25,0.2,39.9,6c9.4-4.4,20,3,23.4-3.7l-31.1-2.5c8.9,0.3,17.7-1.1,27.8-1.6c12-0.7,24.1,0.5,35.8,3.7
			c-2.4,1.1-11.2,1.9-17.3,2.2c4.1,1.6,8.2,1.7,12.4,1.9s8.3,0.4,12.6,1.9c-0.8,1.7-3.6,2.4-7.7,2.5c-5-0.1-10-0.4-15-1.1
			c-5.7-0.6-12-1.4-18-1.8c-5.5-0.5-11.1-0.5-16.7,0.2c4.3,2.1,13.3,2,20,2.2s11,0.6,5.7,3.8c7.4-4,15.7-2.7,25.1-0.9
			s20.1,3.7,32,1.2l-1.9,4.1c3.7-0.2,11.5-1.6,18.2-0.9l-12.7,4.5c9.6-1.6,18.6,0.2,27.4,2.3l6.7,1.5c2.2,0.5,4.4,0.9,6.7,1.2
			c4.5,0.7,9,0.9,13.5,0.6c-9.5-0.5-14.8-1.1-17.5-1.8s-3.1-1.5-2.8-2.3c0.7-1.6,4.2-3.4-3.6-5.7c5.8-0.2,10.7-0.3,14.7-0.2
			c3.4,0.1,6.7,0.4,10,1c4.4,0.9,8.6,2.4,12.5,4.6c1.8,0.9,3.7,1.9,5.9,2.8c2.5,1,5.1,1.8,7.8,2.3c6.2,1.4,14.8,2.2,27.9,2.1
			c-7.1,0.4-26.6-3.2-15.5-4.9c5,0.6,10.7,1.3,16,2.3c2.7,0.5,5.2,0.9,7.4,1.4c1.9,0.4,3.9,0.9,5.8,1.5c34.7-1.1-5.3-4.4,9.4-7.1
			c5.9,2.6,10.2,2,14.8,0.6c2.3-0.7,4.8-1.6,7.5-2.5c3.2-1.1,6.4-1.8,9.7-2.3l0.2,4.3c19.7,0.7,22.2-1.7,24.2-4
			c1.2-1.5,2.9-2.6,4.7-2.9c2.8-0.7,7.7-0.9,16.5-0.7l-7.3,3.5l-7.3,3.3l4.6-0.6c1.5-0.2,3.1-0.4,4.6-0.6l9.2-1.4l-3.5,5.2
			c19.8-5,26.1-4.4,45.8-4.5c-4.8-2.6,1.9-8.1,19.2-9.8c12,1.5-6.2,4.7,18.2,1.8c-5.2,3.2-11,7.2-22.1,4.2c-1,1.5-5.2,3.2-6.2,4.7
			c6.5,0.9,14.5,0.3,22-0.6s14.5-2.3,18.9-2.8c-3.4,0.2-7.6,0.4-9.7,0.1c11.7-3.3,23.3-6.6,34.9-10c5.8,0.9,1.5,2.8-2.7,4.6
			c7.1-1.4,11.8-4,22.4-5.8c-2.3,3.8-1.1,7.4-15.9,11l16.7-4.2c5.6-1.4,11.1-2.7,16.7-4.3c2.5,1.2,18,1.6,13.8,3.5
			c2.5-0.1,5-0.4,7.5-0.8c2.6-0.4,5.3-1,8-1.7c5.5-1.4,11.3-3.2,17.2-5s12.1-3.7,18.3-5.2c6.1-1.6,12.4-2.6,18.7-3.1
			c1.1-0.9,3.6-2,8.7-3.4c5.8-0.8,11.4-1.4,17-1.9s11.2-1,16.8-1.7s11.3-1.4,17.3-2.6c3-0.6,6-1.3,9.1-2s6.2-1.7,9.5-2.7
			c2.7,0.7,5.3,1.4,7.9,2.1l7.9,2.3c10.2-1.8,5-3.3,1.4-5s-5.5-3.8,11.8-6.8c24.5-3.9,9.6,4.7,18.3,5.8l4.9-1.7
			c1.8-0.6,3.7-1.1,5.7-1.7c4-1.1,8.5-2.3,13.3-3.1c2.4-0.4,4.9-0.8,7.5-1.1s5.2-0.3,7.9-0.2c5.6,0,11.2,0.7,16.7,1.9
			c-7.5,1.2-13.4,0.2-20.4,0.7l17.3,3.5c-5.2,1.5-10,2.4-14.1,3.1l-5.5,0.9l-2.2,0.4l-1.8,0.4c-2.1,0.5-3.1,0.9-2.6,1.5
			c0.6,0.5,1.3,0.8,2,1c1.1,0.4,2.6,0.8,4.6,1.5c0.6-3.1,5-4.7,11.4-5.6c3.2-0.5,6.9-0.7,10.8-0.9c2-0.1,4-0.1,6.1-0.1l6.3,0.1
			c4.2,0.1,8.4,0.1,12.3,0.1s7.7-0.2,11-0.4c6.5-0.5,11.1-1.8,12-4.8l11.3,3.3c-3.3-0.3-3.9,0.3-7.1,0c5.7,1.9,9.5,2.3,12.6,1.9
			l2-25.3c0,4.9,0,9.7-0.1,14.5l-0.2,7.2l-0.1,3.6h-0.1h-0.4l-0.4-0.1h-0.2h-0.1c0,0-0.1,0,0,0l0.7-0.1c0.5-0.1,0.9-0.2,1.4-0.4
			c0.9-0.3,1.9-0.6,2.8-1c1.8-0.7,3.7-1.6,6-2.3c2.7-0.9,5.5-1.3,8.4-1.4c4.4-0.1,8.7,0.4,12.9,1.3c9.9,2.4,16.7,5.3,9.6,5.6
			l11.4,0.2l11.5,0.3c6.5,1.3,4.6,3.1-1.9,1.8c11.5,1.5,23,3,34.4,4.6l-0.3,0.3c5.2-1.1,16.8-2.1,22.4-2.5c8.4,3.2-4.6,0.5-2.6,2.4
			l19.5,0.3c7.2,4.5-9.1,4.7-22.1,2.1c15.7,15,16.3-0.4,53.3,13.3l-18.3-1.7c10.4,8.8,24.8,8.9,44.2,16.7
			c-4.4-3.1-38.6-17.9-17.5-17.3c5.6,1.9,13.2,3.7,24.8,3.3c-0.7,4.3,10.4,5.2,24,7.4l-2,5.5c15,1,14.3-2.1,23.4-3
			c16.2,3.6,18.8,8.6,22,13c26,5.7-16.8-10.4,14.4-5.7c21.4,6.2-35.6,6.8-8.9,8.3 M130.9,56.3c-7.7,4.8-12.2,20.8-3.9,23.4
			s12.3-14.7,11.8-10.2 M118.8,56.9l-2.5,5.5l19.6,9.2c-3.1,3.6,77.2-30.6,67-28.7 M2004.6,54l30.5,0.2c-13,0.8-55.3-15.1-67.7-18.5
			c-2.6-1.3,4.6-0.5,8.5-0.4c-31.9-11.4-5.3,4.8-30,1.6c-4-3.8,7.2-6.6-9.2-10.1c-3.9-1.9-16.3-1.6-30.4-2s-30-1.5-40.8-6.3
			c4.6,3.2,9.1,6.3-2.6,6.1c-17.6-2.1-45.9-16.7-63-11.9c-2.1-1-2.9-1.7-2.9-2.3c-3.4-0.1-7.9-0.3-12.8-0.6s-10.3-0.6-15.5-0.8
			c-10.4-0.5-20.3-0.4-24.7,1.1c-0.7-1-1.6-1.9-2.6-2.6c-0.6-0.4-1.2-0.8-1.8-1.1c-0.3-0.2-0.7-0.3-1-0.5l-0.3-0.1l-0.7-0.2
			c-0.5-0.1-1-0.2-1.5-0.2h1.1c-5.4-1.6-13-2.3-21.4-2.5c-4.2-0.1-8.6,0-13,0.1l-13,0.8c-4.2,0.3-8.3,0.5-12,0.6
			c-1.8,0-3.6,0.1-5.2,0s-3.2,0-4.6-0.1c-5.6-0.3-9.1-1.6-9-4.6c-14.2,0.1-28.4,1-42.5,1.9l1-1.5c-6.8,0.3-12.5,0.7-17.4,1.3
			c-2.4,0.3-4.7,0.6-6.7,1s-3.9,0.9-5.6,1.3c-5.5,1.5-10.8,3.6-15.9,6.2c-3.2-0.1-3.6-0.6-3.3-1.2s1.6-1.2,1.8-1.6
			c-9.9,0.6-17.5,1.2-24,1.8c-5.5,0.6-10.9,1.6-16.3,2.8c-2.4,0.6-4.8,1.2-7.3,1.9s-4.9,1.6-7.6,2.5c-5.3,1.9-11.4,4.3-19.1,7.4
			l-4.1-3.8c-4.1,2-18.3,2.8-35.9,4.4c-4.4,0.4-9,0.9-13.8,1.4s-9.6,1.1-14.5,1.9s-9.8,1.5-14.6,2.5s-9.6,2.1-14.2,3.4
			c0.3-0.5,1-1.5,3.8-2.6c-2.6,0.7-5.2,1.4-7.9,1.9c-2.7,0.6-5.5,1-8.3,1.4c-5.7,0.8-11.5,1.4-17.4,1.8c-2.9,0.2-5.9,0.4-8.8,0.6
			l-8.8,0.3l-17.1,0.5c-2.8,0.1-5.5,0.2-8.1,0.3c-2.6,0.1-5.2,0.2-7.7,0.4c-4.6,0.2-9.2,0.7-13.7,1.5c-8.3,1.5-14.7,4-18.3,8.4
			L1259,54c18.2-0.6,17,1.3,13.1,3.5s-10.5,4.8-2.9,5.6c-14.3,1.9-37.4-2.4-19.8-4.4l2.8,0.6c1.5-2.2-0.6-3.3-4.6-3.8
			s-9.8-0.3-15.8-0.4c-12,0-24.7,0.5-24.2-2.5l-13.3,0.5c-2.2,0.1-4.4,0.1-6.7,0.1h-6.7c-8.9,0-17.7-0.1-26.5-0.2
			c-4.4,0-8.8-0.3-13.1-0.5l-13.1-0.7c-8.7-0.5-17.4-0.9-26-1.8l-25.7-2.3c-8.5-0.9-17-2-25.4-2.9c-4.2-0.5-8.4-0.9-12.6-1.4
			l-12.6-1.6l-12.5-1.6l-6.2-0.7l-6.2-0.8c2.3,2.5,4.6,5,6.9,7.5c-7.7-1-15.5-2.2-23.2-3.2c-5.9-2.3-7.5-6.1,9-3.8
			c-4.1-2.4-11.2-2.5-17.2-1.8s-11.3,2-11.6,2.7c-32.2-7,13.7-5.9,3.8-7.4l-13.6-1.3l3,1.2c-11.3,1.2-12.7,3.9-32.7,0.8
			c-12.5-3-6-4.9-10.9-5.8c0.1-0.5-1.6-0.9-7.6-1.2l-29.5-4.4l11.2,6.7c-13.4,0.9-27.7-3.9-14.8,3.7c-3.2-1.8-6.6-3.1-10.2-4.1
			c-4.3-1.2-9.5-2.4-15.2-3.4s-11.9-2-18.4-3c-3.2-0.5-6.5-0.8-9.9-1.2l-10-1c-26.7-2.9-52.6-3.9-58.7-5.9c-4.7,0.6-9.3,0.9-14,1.1
			s-9.4,0.3-14.3,0.2c-9.7-0.2-19.9-0.9-31.2-1.8c2.8,0.7,4.9,2.6,4,4c-0.5,0.7-1.8,1.4-4.1,1.7c-1.5,0.2-2.9,0.3-4.4,0.2
			c-1.8,0-3.8,0-6.3-0.2c7.7-11.8-35.4-6.6-51-15.7c14,5.9-55.6,0.6-33.6,9.1c-16.3-1.2-0.9-4.5-13.3-7.6c-4.8,0.5-9.8,0.8-14.9,1
			S558,6,552.7,6c-10.6,0-21.5-0.3-32.8-0.8l-17.1-0.7c-5.8-0.1-11.6-0.2-17.5-0.3c-11.7-0.1-23.7,0-35.6,0.8
			c-0.7,1.6,7.4,3.8-2.8,6.4c-4.3-1.2-8.5-2.3-12.8-3.4l-12.9-3.3c-9.4,1.2-8.3,9.5-25.8,4.9c2.5,1.2,6.2,3-0.1,3.9
			c-2.9-0.1-5.9-0.2-8.8-0.2s-5.9,0-8.8,0c-5.9,0.1-11.8,0.2-17.7,0.4c-5.9,0.2-11.9,0.4-17.8,0.8c-5.9,0.3-11.9,0.6-17.8,1.1
			c-11.9,1-23.8,2.1-35.8,3.3l-9,0.9c-3,0.3-32.3-3-35.3-2.7l8.4,5.7c-2.2,0.2-34.2,0.3-36.4,0.7c-13.5,2.1-26.4,4.5-39.2,8.6
			c-13.4,4.2,70.8,4.4,57.4,8.3C217.8,44.9,133,54.4,115.1,54.3c13.3,1.3,49.1-17.6,39.4-16.1 M1910.1,67.8c-5.2,0-15.8,1-19.1-2.2
			C1897.6,61.6,1901.7,64.8,1910.1,67.8z M1980.7,67.9c4-1.1,9.8,0.1,16.3,2.3C1991.5,70.2,1986,69.4,1980.7,67.9z M851.4,93.2
			c0.2-0.1,0.4-0.1,0.5-0.2C863.5,94.7,859.4,94,851.4,93.2z M827.5,91.3c-2.4,0.6-2.2,1.2-1.2,1.8c1.7-1.1,7-1.2,13.2-0.9
			C837.7,91.1,834.6,90.3,827.5,91.3z M911.5,28.6l4.5,1.8C905.4,30.2,908.5,29.5,911.5,28.6z"/>
		<path class="st0" d="M2027,66c1,0.5,1.7,1.4,2,2.5C2031,68,2031.2,67.1,2027,66z"/>
		<path class="st0" d="M1489.2,60.7c-0.3,0-0.5,0.1-0.8,0.1c-0.3,0.2-0.5,0.6-0.7,0.9L1489.2,60.7z"/>
		<path class="st0" d="M1198.1,54.5c4.9,0.6,7.7,1.4,9.5,2.2C1207.8,55.7,1205.6,54.8,1198.1,54.5z"/>
		<path class="st0" d="M700.7,98.7l15.3-1.1c-7.4,0.2-10.1-0.7-13.8-1.4C702.6,97.1,705.5,98.6,700.7,98.7z"/>
		<path class="st0" d="M567.7,71.8c-2.2,0.5-4.7,0-7,0.6l0.6,2C570.9,74.3,577.6,72.7,567.7,71.8z"/>
		<path class="st0" d="M686.5,84.2c-1.2-3.7-10.8-2.4-21.6-1.7c0.7,0,1.3,0,1.9,0C663.7,87.6,675.2,85.9,686.5,84.2z"/>
		<path class="st0" d="M662.5,82.6c-3.3,0.2-6.6,0.2-9.9,0.1C651.3,84.8,656.6,83.2,662.5,82.6z"/>
		<path class="st0" d="M797.2,93.7c-5.1-0.9-3.2,4.7-6.1,3.2C785.4,101.6,825,91.3,797.2,93.7z"/>
		<polygon class="st0" points="677.9,72.2 681.7,76.7 687.7,73.1 		"/>
		<path class="st0" d="M762.6,75.5l-17.2-1.2c0.3,0.8-1.9,1.2-4.6,1.5C751.4,76,763,76.9,762.6,75.5z"/>
		<path class="st0" d="M740.9,75.8c-5.5-0.1-10.7,0-13.8,0.8C730,76.5,736.5,76.4,740.9,75.8z"/>
		<polygon class="st0" points="701.3,70.9 706.4,71.8 718.5,72.1 		"/>
		<path class="st0" d="M947,76.4l18.7-1.3c1.9-1.6-3.2-2.5-10.2-1.9C951.1,74.3,944.1,74.9,947,76.4z"/>
		<path class="st0" d="M890.4,64c5.1,0.9,5.4,1.9,8.2,3.4l0.6-5.6L890.4,64z"/>
		<path class="st0" d="M945,62.7c1.9-1.5,27.2-4.5,3.4-4.1C946.5,60.2,927.8,61.5,945,62.7z"/>
		<polygon class="st0" points="1227,69.8 1222.2,69.9 1222.9,79.1 		"/>
		<path class="st0" d="M1475.6,47.9c-22.2-2.2-5.3,5.7-25.3,2.9c-5.2,2.2,16.4,2.2,11,4.1C1474.7,52.6,1481.7,53.9,1475.6,47.9z"/>
		<path class="st0" d="M1461.3,54.9c-2.2,0.4-4.4,0.8-6.8,1.4C1456.8,56,1459.1,55.6,1461.3,54.9z"/>
		<path class="st0" d="M1946.9,86.3l1.3-1.2c-1.9-1.9-5.2-2.6-11.7-4L1946.9,86.3z"/>
		<polygon class="st0" points="1757.9,50.2 1761.2,50.8 1755.8,44.7 		"/>
		<path class="st0" d="M1602.6,53.1c3.3-0.2,6.7-0.6,10-1.1c1.7-0.2,3.4-0.5,5.1-0.7c1.6-0.2,3.3-0.3,4.9-0.3
			c-1.7,0.2-3.3,0.3-4.9,0.3c-1.4,0-2.9,0-4.3-0.1c-2.7-0.2-5-0.6-6.7-0.8C1603,49.8,1601.5,49.9,1602.6,53.1z"/>
		<path class="st0" d="M2035.1,800.4c0,0-54,73.2-494.7,49.7c-309.7-7.9-376.1-62.9-657.8-40.1c-221.5,17.9-261.1,57.4-447.5,42.5
			c0,0,34.9-2.2-311.2-68.5l-5.7,5.2L248,800.5L2035.1,800.4z"/>
		<path class="st0" d="M1960,788c9.3,6.4,35.5-1,53,1.2l2.9,1.5l7.9-5.2C2002.5,786.4,1974.9,789.8,1960,788z"/>
		<path class="st0" d="M1907.7,774.1c3.2,2.5-11.3,2.2,12.2,0.8c-1.2-0.3-1.5-0.4-2.2-0.6C1915.6,774.3,1912.6,774.3,1907.7,774.1z"
			/>
		<path class="st0" d="M1917.7,774.3C1928,774.1,1910.9,772.2,1917.7,774.3z"/>
		<path class="st0" d="M1870,775.7l13.6-2.2c-2.8-1.5-15-1.8-10.4-2.9C1859.2,771.8,1862,773.3,1870,775.7z"/>
		<path class="st0" d="M1857.1,780.4l7-1C1862.9,778.8,1861,778.6,1857.1,780.4z"/>
		<path class="st0" d="M1879.1,777.5l-15,2c2,1,2.2,3.1,6.9-0.7C1869.8,780.7,1872.7,778.8,1879.1,777.5z"/>
		<path class="st0" d="M1887.5,778.5c7.6,1.4,17.5,2.3,3.8,4.5C1917.4,782.1,1913.6,777.5,1887.5,778.5z"/>
		<path class="st0" d="M1955,794.7l10.2,1.9l8.8-2.2C1969.6,795.5,1954.3,792.7,1955,794.7z"/>
		<path class="st0" d="M1785.2,772.4c-0.8,1.4,4.6,3.7,5.6,5.4l10-1.6C1795.7,775.3,1785.9,774.4,1785.2,772.4z"/>
		<path class="st0" d="M1790.8,777.8l-15,2.3C1789.2,780.4,1791.7,779.3,1790.8,777.8z"/>
		<polygon class="st0" points="1854.6,787.5 1879.3,782.6 1849.9,787.6 		"/>
		<polygon class="st0" points="1727.8,772.2 1736.3,769.1 1721.1,773.8 		"/>
		<path class="st0" d="M1689.7,772.8c6.3-2.6-8.7-4.4-2-6c-10.3,0.5-19.2,2.7-27.1,4.7C1669,770.3,1678.1,770.6,1689.7,772.8z"/>
		<path class="st0" d="M1647.2,774.4c4.2-0.6,8.6-1.8,13.3-3C1656,772,1651.6,773,1647.2,774.4z"/>
		<path class="st0" d="M1750.2,779.5c-1.2-0.8-3.4-3-11.8-3.9l5.9,3.8L1750.2,779.5z"/>
		<path class="st0" d="M1744.5,779.5l-0.2-0.1l-12.8-0.2L1744.5,779.5z"/>
		<path class="st0" d="M1751.7,779.5h-1.5C1750.7,779.8,1751.1,780,1751.7,779.5z"/>
		<path class="st0" d="M1815.2,784.1c-8.8,2.2-27.2,4.5-9.4,7.7C1812.1,789.2,1801.9,787.3,1815.2,784.1z"/>
		<path class="st0" d="M1759,784.3l16,0.9c-0.3-1-3.2-2.5,1.2-3.6L1759,784.3z"/>
		<polygon class="st0" points="1751.2,785.5 1759,784.3 1753.1,784 		"/>
		<path class="st0" d="M1674.6,778c-6.9,1.7-14.4,1.8-23,2.1c9.1,0.8,18.6,1.2,27.6,1.2C1680.4,780,1684.4,777.9,1674.6,778z"/>
		<path class="st0" d="M1708.5,779.1c-0.5,0.1-1.1,0.1-1.5,0.2C1707.9,779.6,1708.7,779.7,1708.5,779.1z"/>
		<path class="st0" d="M1567.7,780.1c0.5,0.2,0.9,0.5,1.3,0.7c0.1-0.2,0.2-0.4,0.3-0.7L1567.7,780.1z"/>
		<path class="st0" d="M1680.7,782c5,0.7,10.1,0.2,14.9-1.4c-5.1,0.4-10.6,0.6-16.4,0.7C1678.6,781.8,1678.5,782.2,1680.7,782z"/>
		<path class="st0" d="M1623.8,776.2c3.6,0.8,7.6,1.5,11.9,2.1C1632.2,777.1,1625.1,775.2,1623.8,776.2z"/>
		<path class="st0" d="M1704.7,778.2c0.3-0.1,0.7-0.1,1-0.2C1703.5,777.2,1703.7,777.7,1704.7,778.2z"/>
		<path class="st0" d="M1704.7,778.2c-3.1,0.6-6.1,1.3-9.1,2.3c4.2-0.3,8.1-0.7,11.4-1.3C1706.2,779,1705.4,778.7,1704.7,778.2z"/>
		<path class="st0" d="M1542.3,804.8c1.2-3.6,19.3-6.9,34.8-3c15.3-2.7,5.3-14.4-8.1-21c-0.5,1.5-0.5,3-16.3,5.1
			c5.5,2,35,4.5,21.7,7.8c-20.9,1.8-17.1-1.3-27.3-3.2c8.6,4.5-26.6,6.5-22,13l18.3-2.3C1543.8,802.2,1537.2,803.8,1542.3,804.8z"/>
		<path class="st0" d="M1599.1,781.1l6.5-0.4c-7.4-0.6-12.7-2-22.5-4.8c-10.8,1.7-13,3.1-13.8,4.2l32,0.5L1599.1,781.1z"/>
		<path class="st0" d="M1634.8,780.7c-5.1,3.9-20.7,5.5-11.1,9.7c19.1-0.3,13.3-3.2,24.7-4.9c-30.8,1,8.8-2.2-13.4-4.4
			c6-0.7,11.5-0.9,16.6-1c-5.5-0.5-10.9-1-15.9-1.8l0.7,0.2h0.2c0,0,0,0,0,0.1c1.3,0.5,1.8,0.8,0.3,0.5c-0.2,0-0.4,0.1-0.6,0.1
			C1635.9,779.8,1635.4,780.3,1634.8,780.7c-8.9-0.8-1.4-1,1.4-1.4c0.1-0.2,0.3-0.4,0.4-0.6h-0.1l-30.8,2.1
			C1612.1,781.2,1620.3,781.1,1634.8,780.7z"/>
		<path class="st0" d="M1789.4,800.1c-1-0.3-0.9-0.6-1-0.9C1786.4,799.7,1785.6,800,1789.4,800.1z"/>
		<path class="st0" d="M1776.7,797.8c2.2-0.5,4.1-2.1,11.4-1.7c6.3,1.2,0,1.9,0.3,3.1c4.4-1,15.4-2.8,1.6-4.7l-2.2,0.5
			c-12.4-1.3-28.3-6.2-26.2-6.7C1765.2,791.9,1768.4,794.4,1776.7,797.8z"/>
		<path class="st0" d="M1704.8,790.2l-25.7,1.9l13.1,3.4l-0.7-2C1706.2,794.3,1703,791.8,1704.8,790.2z"/>
		<polygon class="st0" points="1564.8,778.2 1568.2,774 1553.3,779.8 		"/>
		<polygon class="st0" points="1531.4,778.6 1532.7,775.1 1523.8,777.2 		"/>
		<path class="st0" d="M394.9,826.5l7.5,0.1C399.9,826.5,397.4,826.4,394.9,826.5z"/>
		<path class="st0" d="M341.3,817.8l-1.6,1.5C342.4,818.7,343.5,818.2,341.3,817.8z"/>
		<path class="st0" d="M712.6,779c-11-3.3-23.2-8.5-21.9-4.5l3.4,3.9C700.3,777.8,706.5,778,712.6,779z"/>
		<path class="st0" d="M152.2,794l3.1,1.5c2.8-1.1,5.4-2.1,7.7-3.1C159.7,792.9,156,793.5,152.2,794z"/>
		<path class="st0" d="M143.1,809.5l-14.2-3.8C133.5,807.3,138.2,808.5,143.1,809.5z"/>
		<path class="st0" d="M683.4,812l8-5.5C677.8,808.9,684.2,809.9,683.4,812z"/>
		<path class="st0" d="M1190,780.1c-7.8-1.3-15.7-2.1-23.6-2.4C1177.7,780,1187,783.3,1190,780.1z"/>
		<path class="st0" d="M367.3,864.2c4.7,0,6.8-0.5,6.8-1.3C369.3,862.8,366.5,863.1,367.3,864.2z"/>
		<path class="st0" d="M1139,777.7c1.7,0.4,3.3,0.6,5,0.9c7.4-0.8,14.9-1.1,22.4-0.9C1157.9,776,1148.2,775,1139,777.7z"/>
		<path class="st0" d="M1763.4,825.8c0.8,0.1,1.7,0.2,2.4,0.3C1766,825.7,1765,825.7,1763.4,825.8z"/>
		<path class="st0" d="M1397.3,776.9C1404.3,776.7,1398.4,776.5,1397.3,776.9z"/>
		<path class="st0" d="M1431.7,792.4c-1.5,0.4-2.7,1-2.8,1.9C1429.5,793.3,1430.5,792.6,1431.7,792.4z"/>
		<path class="st0" d="M1068.5,802h-0.6C1070,802.8,1069.7,802.6,1068.5,802z"/>
		<path class="st0" d="M1407.9,778.7c-2.7-0.5-5.7-0.9-9-1.2C1400.3,777.8,1403.1,778.2,1407.9,778.7z"/>
		<path class="st0" d="M1406.5,776.9c2.4,0.2,4.3,0.3,6.2,0.4C1413.6,776.6,1412.8,776.2,1406.5,776.9z"/>
		<path class="st0" d="M1387.4,777.1c4-0.1,7.8,0.1,11.4,0.4c-1.4-0.3-2-0.5-1.6-0.6C1395.2,777,1392.3,777.1,1387.4,777.1z"/>
		<path class="st0" d="M1188.6,806.1c0.4,0.2,1,0.3,1.5,0.6C1197.4,805.9,1194.3,805.8,1188.6,806.1z"/>
		<path class="st0" d="M528.6,819.6c0.3,0,0.5-0.1,0.8-0.2l-1-0.1L528.6,819.6z"/>
		<path class="st0" d="M503.2,822.5c10.8-4.9,17-4.3,25.2-3.2L520,808L503.2,822.5z"/>
		<path class="st0" d="M2035.1,800.4 M124.7,780.2l-7.6,12.2c39,12.5-11.2-19.9,27.1-6.8l-29.2,14.9c5.4-8.4,28,18.3,51.5,18.9
			l-7.8-4c13.1-0.8,32.6,18.9,45,22.3c2.6,1.3-4.6,0.5-8.5,0.4c31.9,11.3,5.3-4.8,30-1.7c4,3.8-7.2,6.6,9.2,10.1
			c3.9,2,16.3,1.6,30.4,2.1c14.1,0.4,30,1.5,40.8,6.3c-4.6-3.2-9.1-6.3,2.6-6.1c17.6,2.1,45.9,16.7,63,11.9c2.1,1,2.9,1.7,2.9,2.3
			c3.4,0.1,7.9,0.3,12.9,0.6s10.3,0.6,15.5,0.8c10.4,0.5,20.3,0.4,24.7-1.1c0.7,1,1.5,1.9,2.5,2.6c0.6,0.4,1.2,0.8,1.8,1.1
			c0.3,0.2,0.7,0.3,1,0.5l0.3,0.1l0.7,0.1c0.5,0.1,1,0.2,1.5,0.2H434c5.4,1.9,13,2.6,21.4,2.8c4.2,0.1,8.6,0,13-0.1l13-0.8
			c4.2-0.3,8.3-0.5,11.9-0.6c1.8,0,3.6-0.1,5.2,0s3.2,0,4.6,0.1c5.6,0.3,9.1,1.6,9,4.6c14.2-0.1,28.4-1,42.5-1.9l-1,1.5
			c6.8-0.3,12.5-0.7,17.4-1.3c2.4-0.3,4.7-0.6,6.7-1s3.9-0.9,5.6-1.3c5.5-1.5,10.8-3.6,15.9-6.2c3.2,0.1,3.7,0.6,3.3,1.2
			s-1.6,1.2-1.8,1.6c9.9-0.6,17.5-1.2,24-1.8c5.5-0.6,11-1.5,16.4-2.7c2.5-0.6,4.8-1.2,7.3-1.9s4.9-1.6,7.6-2.5
			c5.3-1.9,11.4-4.3,19.1-7.4l4.1,3.8c4.1-2.1,18.3-2.8,35.9-4.4c4.4-0.4,9-0.9,13.8-1.4s9.6-1.1,14.5-1.9s9.8-1.5,14.6-2.5
			s9.6-2.1,14.1-3.5c-0.3,0.6-0.9,1.5-3.8,2.6c2.6-0.7,5.2-1.4,7.9-1.9s5.5-1,8.3-1.4c5.7-0.8,11.5-1.4,17.4-1.8
			c2.9-0.2,5.9-0.4,8.8-0.5l8.8-0.3l17.1-0.5c2.8-0.1,5.5-0.2,8.1-0.3s5.2-0.2,7.7-0.3c4.6-0.2,9.2-0.7,13.7-1.5
			c8.3-1.5,14.7-4,18.3-8.4l27.8-5.9c-18.2,0.6-17-1.3-13.1-3.5s10.5-4.8,2.9-5.6c14.3-1.9,37.4,2.4,19.8,4.4l-2.8-0.6
			c-1.5,2.2,0.6,3.3,4.6,3.8s9.8,0.3,15.8,0.4c12,0,24.6-0.5,24.2,2.5l13.4-0.5c2.2-0.1,4.4-0.1,6.7-0.1h6.7
			c8.8,0,17.7,0.1,26.5,0.2c4.4,0,8.8,0.3,13.1,0.5l13.1,0.7c8.7,0.5,17.4,0.9,26,1.8l25.7,2.3c8.5,0.9,17,2,25.4,2.9
			c4.2,0.5,8.4,0.9,12.6,1.4l12.6,1.6l12.5,1.6l6.2,0.8l6.2,0.8c-2.3-2.5-4.6-5-6.9-7.5c7.7,1,15.5,2.2,23.2,3.2
			c5.9,2.3,7.5,6.1-9,3.8c4.1,2.4,11.2,2.5,17.2,1.8s11.3-2,11.6-2.7c32.2,7-13.7,5.9-3.8,7.4l13.6,1.3l-2.9-1.2
			c11.3-1.2,12.7-3.9,32.7-0.9c12.5,3,6,4.9,10.9,5.8c-0.1,0.5,1.6,0.9,7.6,1.2l29.5,4.4l-11.2-6.8c13.4-0.8,27.7,3.9,14.8-3.8
			c3.2,1.8,6.6,3.2,10.2,4.1c4.3,1.2,9.5,2.4,15.2,3.4s11.9,2,18.4,2.9c3.2,0.5,6.5,0.8,9.9,1.2l10,1.1c26.7,2.9,52.6,4,58.7,5.9
			c4.7-0.6,9.3-0.9,14-1.1s9.4-0.3,14.3-0.2c9.7,0.2,19.9,0.9,31.2,1.8c-2.8-0.7-4.9-2.6-4-4c0.5-0.7,1.7-1.3,4.1-1.7
			c1.5-0.2,2.9-0.3,4.4-0.2c1.8,0,3.8,0,6.3,0.2c-7.7,11.8,35.4,6.5,51,15.7c-14-6,55.6-0.6,33.6-9.1c16.3,1.2,0.9,4.5,13.3,7.5
			c4.9-0.5,9.8-0.8,14.9-1s10.3-0.4,15.6-0.4c10.6,0,21.6,0.3,32.8,0.8l17.1,0.7c5.8,0.1,11.6,0.2,17.5,0.3
			c11.7,0.1,23.7,0,35.6-0.8c0.7-1.6-7.4-3.8,2.8-6.4c4.3,1.2,8.5,2.3,12.8,3.4l12.8,3.4c9.4-1.2,8.3-9.5,25.8-4.9
			c-2.5-1.2-6.2-3,0-3.8c2.9,0.1,5.9,0.2,8.8,0.2c2.9,0.1,5.9,0,8.8,0c5.9-0.1,11.8-0.2,17.7-0.4c5.9-0.2,11.8-0.5,17.8-0.8
			c5.9-0.3,11.9-0.6,17.8-1.1c11.9-1,23.8-2.1,35.8-3.3l9-0.9c3-0.3,6-0.7,9-1l17.9-2 M163,767.8c31.2-2-61.9,23.7-36,19.5
			l-6.3,12.4c-15.5-5.7,13.4-3.1,31.5-5.8c-5.4-2.6-10.1-4.8-13.2-6l28.6-0.6c3.3,1.2,0.3,3-4.5,5c2-0.3,3.9-0.6,5.3-0.9
			c9.9,3,4.4,5.8-3.1,8.4c-3.4-1.4-6.7-2.9-9.9-4.4c-7.3,2.9-14.2,6.2-13,9.7c3.1-0.6,6.3-0.8,9.4-0.7c-1.9,0.8-3.1,1.5-2.4,2.2
			s4-0.3,8.7-1.4l5.9,7l1.8-2.4l36.7,7.2c7.4-1.1,14.5-2.5,21.8-3.9c3.7-0.7,7.4-1.4,11.2-2l5.8-1l3-0.5l1.5-0.2l1.9-0.2l1.5-0.3
			c0.5-0.1,0.9-0.2,1.3-0.3l2.6-0.6c1.7-0.4,3.5-0.7,5.3-1.1c3.6-0.7,7.4-1.4,11.3-2c7.9-1.2,16.5-2.2,26.1-2.8
			c-10.5,4.7-2.2,7.7-2.8,13.3c-4.9-2.5-11.6-2.4-19.3-1.6c-3.9,0.4-8,1-12.3,1.6c-2.2,0.3-4.4,0.5-6.6,0.8
			c-1.1,0.1-2.2,0.2-3.4,0.3l-1.7,0.1l-2.4,0.1l-3-0.2l-2.4-0.2c-1.6-0.1-3.2-0.3-4.8-0.5c2.1,0.2,4.1,0.7,6.1,1.3
			c0.9,0.3,1.7,0.7,2.3,1.4c0.3,0.5-0.1,0.9-0.8,1.2c-0.6,0.4-1.3,0.7-2,0.8l1.8-0.1h2.6c2.7-0.2,3.7-0.4,5.3-0.6l4.4-0.6l8.9-1.2
			l17.8-2.5c-0.9,4.6,8.3,3.4,18.5,5.3c-7.7-9,29.1-6,45-8.8c1,3-2.8,6.1-22.2,5.4c21.4,6.8,27.6-10.6,48.6-4.8
			c-4.7,0.1-7.3-0.4-9.1,1.1c11-2.7,38.1-0.6,31.7,2.1l-4.7,0.1c31.4,1.1,95.6,0.1,100.3-7.6c0.3,1-4.1,9.2-6,10.8l56-25.8
			c-4.9,6.6,14,22.2-12,26c10.8,1.6,21.7,1.5,32.5-0.3c-5.1-0.9-12.7-9.5-5.7-10.1c19.1,7.3,13.3,3.9,36.9,10.2
			c-7.6-1.4,0.8-11.7,12.9-11.4c-1.9,1.5,1,10.2-3.4,11.2l30.1-10.1c-7.5,1.8-1.3,8.6,5.4,11.4c-3.1-2,26,0.2,34-0.8l-12.8-2.3
			c34,1.5,33.5-14.2,67.2-13.7c-4.1,2.1-10.1,12.9,7.1,14.1c7.8-5.2,34.8-24.9,64.6-28.9l5.7,3l22.9-3.4
			c-14.2,7.8-54.2,24.2-76,30.6c12.7,2.3,3.5,3.5,22.6,3.2c6.7,2.8-10.4,4.2-16,4.4l44.3,1.8c-2-6.1,33.9-6.1,32.2-11.1l-48.1,6.3
			c-2-6,27.8-17.2,59.2-16.1c8,2.4-6,10.8-5.3,12.8c4.1-2.1,29.8-4,32.7-2.5l-13.3,3.2c17.5,2.3,28.5-8,49.5-2.2
			c7.2,0.4,21.6,7.8,22.9,4.2c-11.8-6.9-14.1-28.3-6.2-33.5c2.5,0.5,38,6.6,46.3,10c11.9,5.4-17.9,12.9-7.8,17.5
			c0.4-1.7,7-3.7,9.8-4.3c7.6,1.4-3.2,5.1,13.4,4.4c2.8-6.1,33.6,0.5,7.8-5.2c16.1-1.8,17.1,1.2,36.1,0.9c-6-4,17.1-13.5,33.3-15.2
			c-1,1.6,2.7,3.6,4.4,4.5c33.2,0.5,51,3.3,81.9,3.4c2.8,1.5,17.8,3.3,11.4,5.9c4.4-1.1,8.5-3.2,18.1-3.3c18.5,5.3-21.3,0.8-7.2,7.2
			c1.2-3.6,24.7-4.9,38.2-7.2c-4.2-5.5-31.4-1-45,1.2c-0.1-7.6,23.6-15.5,55.9-19.1c25.7-1.9,11.1,4.9,15.6,3.8
			c48.2,1.3,41.1-13.3,81.2-7.8c15.9,4.8,0.7,9.6,4.2,13.1c-20.9,1.8-32.1-3.1-46.3-2.9l17.5,2.3c-6.7,1.6-20.6,2.8-28.2,1.4
			c13.3,4.3,81.5,0.8,118.8,4.8c6.6-1.6,18-3.3,12.6-5.2l-11.8,0.7c-10.8-3.9,22.2-5.4,7.3-7.2c15.8-2.7,33.5-7,55.8-4.8l4.2,5.5
			c-0.5-1.6-14.5-3.3-20.8-1.6c9.3-2.4,34.1,7.5,44.3,0.2l-15.6-3.8c15.9-2.8,35.5-8.6,55.2-6.9c-9-5.5-4.5,0.6-18.6-5.8
			c12.1,7.9-50.4-0.3-30.9,8c-14.4-7.4-24.9-3.1-43.7-9.5c0.6,1.8,6.7,3.5-9.9,2.6c-1.2,0.7-2.4,1.2-3.6,1.6c-0.5,0-0.7-0.1-1.1-0.1
			c0.3,0.1,0.6,0.2,0.9,0.2c-0.7,0.3-0.8,0.3,0.3,0.1c3.9,0.8,7.1,1.8,8.4,2.8c-8.2,4.2-34.5,4-43.4,6.2c-9.8-0.9,4.1-2.1-1.2-4
			l-13.3,3.2c-1.3-4-26.1-6.7-3-9.1l-20.8-0.2c-12.3-2.3-29.1-3.2-39.5-1.5c-9.8-0.9-24.8,4.5-16.2,1.3l-32.7,2.5l-0.3-1
			c-32.2-0.5-66.3,6.7-103.2-0.6c-10.8,1-22.1,2.3-40.2,1.1l-3.5-3.5c-13.9,1.2-41.8-3.5-47.8,0.1c-15-9.4-67.6-2-92.1-3.7l-0.9,4.6
			c-16.9-0.3-33,1-54,2.9l1.3,4c-18,3.3-46.4-2.9-74.9-2.5c1.9-1.5,9.2-1.1,14.3-0.2c-34.1-9.1-71.9,6.6-102.8,0
			c-6.2,1.2-12.5,1.2-18.7,0c0.6,0,1.3-0.1,1.9-0.2c-0.8,0-2-0.1-3.2,0c-3.4-0.7-6.9-1.5-10.7-2.2c2.9,0.9,5.9,1.7,9,2.2
			c-5.9,0.1-15,0.6-23.8,1.6l-3.8-4.3c-0.7,0.1-1.3,0-2,0.1c-8.7-1.6-7,2-2.3,5.3c-4,0.6-7.9,1.4-11.7,2.6c-7-7-23.2,2.4-32.8-5.1
			c-6,3.6-44.4,2.7-49.1,10.4c-0.3-1-2.9-1.5,1.9-1.5c-9.8-0.9-19.7-1.8-28.5,0.4l-4.2-5.5l-21.4,7.3c-13.1-3.4-18.5-5.3-5.5-9.5
			c-31.3,6.5-25.4,2.5-52.1,8.9l1.3-3.6c-9.5,0.1-24.7,4.9-30.5,2c-21.3-6.8-105.4-0.9-160.1-7.2c10.6,10.5-25.4-4.7-27.6,3.4
			c-3.2-2.5-10.8-3.9-2-6c-3.7,0.3-7.1,0.5-10.3,0.6c-1.6,0-3.2,0-4.7,0h-2.2h-0.9h-0.4l-10.4-1.5c-3.5-0.5-6.9-0.9-10.2-1.2
			c-6.8-0.7-13.7-0.2-20.3,1.5c-3-2.8,6.3-3.1,3.6-4.8c-2.3,0.3-9,1.4-11.8-0.3s4.2-1.7,8.8-2.4c-28.4-2-32,5.3-34.7,12.3
			c-14.1-4.6-21.3-4.8-32.1-1c-4.8-2.8-13-5.9,4.8-5.2 M2032.8,790.7c-6.8,1.3,0.8,34.2-6.1,34.3l-81.4,9.9
			c-48.3,6.9-9.9-16.8-64.6-14.3l4.4,3.9c-11.8,0.4-14.3-0.7-19.9-1.4c-12.9,7.5,32.9-2.3,21.3,5.8c-8.2-3.7-28.8-2-48.9-0.6
			c-20.1,1.1-39.5,2.1-45.1-2.5c-9,0.6-7.6,1.7-6.2,2.9c0.7,0.6,1.4,1.1,0.8,1.6s-2.5,1-7,1.1l-4.9-2.4l-4.4,3.7
			c-11.9,0-18-3.1-18.6-5.3c2.9,0.1,8.1-1,11.2-1.4c-7.8-1.2-18.5-0.4-28.1,0.6s-17.8,2-20.4,1.6c5.8,0.4,11.6,0.8,17.4,1
			c-6.1,0.7-12.5,1-18.9,1.3s-13,0.6-19.7,0.8c-13.3,0.5-26.9,1-40.5,1s-27.1,0.4-40.2,1l-19.3,0.9c-6.3,0.3-12.5,0.8-18.4,1.4
			l3.6,2.1c-18.2,1.6-25.5,1-33.3,0c-3.9-0.4-7.8-1-13.3-1.5s-12.5-0.8-22.5-0.7l1.5-0.4c-4.5,0.9-9.2,1.5-13.8,1.7
			c-2.5,0.2-5.2,0.2-7.8,0.2c-1.3,0-2.7,0-4-0.1s-2.7-0.2-4.1-0.3c10.2-1.8-18.7-5.7-5.4-7.5c-19.8,0.8-24.7,1.3-28,2.4
			c-1.6,0.5-2.9,1.2-5.3,2c-4.2,1.5-8.5,2.6-12.8,3.4l-5.8-3.8c-9.1,2.3-10,3.8-30,3.1c16.6-1.5-12.3-6.1,6.3-8.4
			c-9-2.3-18.1-3.9-27.3-4.6c-8.1-0.6-15.2-0.5-21.6-0.4c-12.8,0-22.7-0.2-31.6-6.6c-20.2,6.9,35.4,9.3,24.5,10
			c8.7,4-16.6,5-29.6,2.6c-6.7-0.8-12-4.6-19.8-8.5s-18.1-8.1-34.9-10.3c3.3,0.5,3.7-0.2,7,0.3c-12.2-4-25-0.2-39.9-6
			c-9.4,4.4-20-3-23.4,3.7l31.1,2.5c-8.9-0.2-17.7,1.1-27.8,1.6c-12,0.7-24.1-0.5-35.8-3.7c2.4-1.2,11.2-1.9,17.3-2.2
			c-4.1-1.6-8.2-1.7-12.4-1.9s-8.3-0.4-12.6-1.9c0.8-1.7,3.6-2.4,7.6-2.5c5,0.1,10,0.4,15,1.1c5.7,0.6,12,1.4,18,1.8
			c5.5,0.5,11.1,0.5,16.7-0.2c-4.3-2.1-13.3-2-20-2.2s-11-0.5-5.8-3.8c-7.4,4-15.7,2.7-25.1,0.9s-20.1-3.7-32-1.2l1.9-4.1
			c-3.7,0.2-11.5,1.6-18.2,0.9l12.7-4.5c-9.6,1.6-18.6-0.2-27.4-2.3l-6.6-1.5c-2.2-0.5-4.4-0.9-6.7-1.2c-4.5-0.7-9-0.9-13.5-0.6
			c9.5,0.5,14.8,1.1,17.5,1.8s3.1,1.5,2.8,2.3c-0.7,1.6-4.2,3.5,3.7,5.7c-5.8,0.2-10.7,0.3-14.7,0.2c-3.4-0.1-6.7-0.4-10-1
			c-4.4-0.9-8.6-2.4-12.5-4.6c-1.8-0.9-3.7-1.9-5.8-2.8c-2.5-1-5.1-1.7-7.8-2.3c-6.2-1.4-14.8-2.2-27.9-2.1
			c7.1-0.4,26.6,3.2,15.5,4.9c-5-0.6-10.7-1.3-16-2.3c-2.7-0.5-5.2-0.9-7.4-1.4c-1.9-0.4-3.9-0.9-5.8-1.5c-34.7,1.1,5.3,4.4-9.4,7.1
			c-5.9-2.6-10.2-2-14.8-0.6c-2.3,0.7-4.8,1.6-7.5,2.5c-3.2,1.1-6.4,1.8-9.7,2.3l-0.2-4.3c-19.7-0.7-22.2,1.7-24.2,4
			c-1.2,1.5-2.9,2.6-4.7,2.9c-2.8,0.7-7.7,0.9-16.5,0.7l7.2-3.7l7.3-3.3l-4.6,0.6c-1.5,0.2-3.1,0.4-4.6,0.6l-9.2,1.4l3.5-5.2
			c-19.8,5-26.1,4.4-45.8,4.5c4.8,2.6-1.9,8.1-19.2,9.8c-12-1.5,6.2-4.7-18.2-1.9c5.2-3.2,11-7.2,22.1-4.2c1-1.5,5.2-3.2,6.2-4.7
			c-6.5-0.9-14.5-0.3-22,0.5s-14.5,2.3-19,2.8c3.5-0.2,7.6-0.5,9.7-0.1c-11.7,3.3-23.3,6.6-34.9,10c-5.8-0.9-1.5-2.8,2.7-4.6
			c-7.1,1.4-11.9,4-22.4,5.8c2.3-3.9,1.1-7.4,15.9-11l-16.8,4.2c-5.6,1.4-11.1,2.7-16.7,4.3c-2.5-1.2-18-1.6-13.8-3.5
			c-2.5,0.1-5,0.4-7.5,0.8c-2.6,0.4-5.3,1-8,1.7c-5.5,1.4-11.2,3.2-17.2,5s-12.1,3.7-18.3,5.2c-6.1,1.6-12.3,2.6-18.6,3.1
			c-1.2,0.9-3.6,2-8.7,3.4c-5.8,0.8-11.4,1.4-17,1.9s-11.2,1-16.8,1.7s-11.3,1.4-17.3,2.6c-3,0.6-6,1.3-9.1,2s-6.2,1.7-9.5,2.7
			c-2.7-0.7-5.3-1.4-7.9-2.1l-7.9-2.3c-10.2,1.8-5,3.3-1.4,5s5.5,3.8-11.8,6.8c-24.5,3.9-9.6-4.7-18.4-5.8l-4.9,1.7
			c-1.8,0.6-3.7,1.1-5.7,1.7c-4,1.1-8.5,2.2-13.3,3.1c-2.4,0.4-4.9,0.8-7.5,1.1s-5.2,0.3-8,0.2c-5.6,0-11.2-0.7-16.7-1.9
			c7.6-1.2,13.5-0.2,20.5-0.7l-17.3-3.5c5.2-1.5,10-2.4,14.1-3.1l5.5-0.9l2.2-0.3l1.8-0.4c2.1-0.5,3.1-0.9,2.6-1.5
			c-0.6-0.5-1.3-0.8-2-1c-1.1-0.4-2.6-0.8-4.6-1.5c-0.5,3.1-5,4.7-11.4,5.6c-3.2,0.5-6.9,0.7-10.8,0.9c-2,0.1-4,0.1-6.1,0.1
			l-6.3-0.1c-4.2-0.1-8.4-0.1-12.4-0.1s-7.7,0.2-10.9,0.4c-6.5,0.5-11.1,1.8-12,4.8l-11.3-3.3c3.3,0.3,3.9-0.4,7.1,0
			c-5.6-1.9-9.5-2.3-12.6-1.9l-2,25.3c0-4.9,0-9.7,0.1-14.5c0-2.4,0.1-4.8,0.2-7.2l0.1-3.6l0,0l0.4,0l0.4,0.1h0.2h0.1c0,0,0.1,0,0,0
			l-0.7,0.1c-0.5,0.1-0.9,0.2-1.4,0.4c-0.9,0.3-1.9,0.6-2.8,1c-1.8,0.8-3.7,1.6-6,2.3c-2.7,0.9-5.5,1.3-8.4,1.4
			c-4.4,0.1-8.7-0.4-13-1.3c-9.9-2.4-16.7-5.3-9.6-5.6l-11.5-0.2L372,826c-6.5-1.3-4.6-3.1,1.9-1.8c-11.5-1.5-23-3-34.4-4.6l0.3-0.3
			c-5.2,1.1-16.8,2.1-22.4,2.5c-8.4-3.2,4.6-0.5,2.6-2.4l-19.5-0.3c-7.2-4.5,9.1-4.7,22.1-2.1c-15.7-15-16.3,0.4-53.3-13.3l18.2,1.6
			c-10.4-8.8-24.8-8.8-44.3-16.7c4.4,3.1,38.6,17.9,17.5,17.3c-5.6-1.9-13.2-3.7-24.8-3.3c0.7-4.3-10.4-5.2-24-7.4l2-5.5
			c-15-1-14.3,2.1-23.4,3c-16.3-3.6-18.8-8.6-22-13c-26-5.7,16.8,10.4-14.4,5.7c-21.4-6.2-2.6-8.1-29.3-9.6 M261.1,805.9
			c5.2,0,15.8-1,19.1,2.2C273.6,812,269.5,808.8,261.1,805.9z M190.5,805.7c-3.9,1.1-9.8-0.1-16.3-2.3
			C179.7,803.5,185.2,804.3,190.5,805.7L190.5,805.7z M1319.8,780.5c-0.2,0.1-0.4,0.1-0.6,0.2C1307.7,779,1311.8,779.7,1319.8,780.5
			z M1343.7,782.3c2.4-0.6,2.2-1.2,1.2-1.8c-1.7,1.1-7,1.2-13.2,0.9C1333.5,782.5,1336.6,783.3,1343.7,782.3L1343.7,782.3z
			 M1259.7,845l-4.5-1.8C1265.8,843.5,1262.8,844.2,1259.7,845L1259.7,845z"/>
		<path class="st0" d="M144.2,807.7c-1-0.5-1.7-1.5-2-2.5C140.2,805.7,140.1,806.5,144.2,807.7z"/>
		<path class="st0" d="M682,813c0.3,0,0.5-0.1,0.8-0.1c0.3-0.2,0.5-0.5,0.7-0.9L682,813z"/>
		<path class="st0" d="M973.1,819.2c-4.9-0.6-7.7-1.4-9.5-2.2C963.4,818,965.6,818.9,973.1,819.2z"/>
		<path class="st0" d="M1470.5,775l-15.3,1.1c7.4-0.2,10.1,0.7,13.8,1.4C1468.6,776.5,1465.7,775,1470.5,775z"/>
		<path class="st0" d="M1603.5,801.8c2.2-0.5,4.8-0.1,7-0.6l-0.6-2C1600.3,799.4,1593.6,801,1603.5,801.8z"/>
		<path class="st0" d="M1484.7,789.4c1.2,3.7,10.8,2.4,21.6,1.7c-0.6,0-1.2,0-1.9,0C1507.5,786,1496,787.7,1484.7,789.4z"/>
		<path class="st0" d="M1508.7,791c3.3-0.2,6.6-0.2,9.9-0.1C1519.9,788.9,1514.6,790.5,1508.7,791z"/>
		<path class="st0" d="M1374,779.9c5.1,0.9,3.2-4.7,6.1-3.2C1385.8,772.1,1346.2,782.4,1374,779.9z"/>
		<polygon class="st0" points="1493.3,801.4 1489.5,796.9 1483.5,800.6 		"/>
		<path class="st0" d="M1408.6,798.1l17.2,1.2c-0.3-0.8,1.9-1.2,4.6-1.5C1419.8,797.7,1408.2,796.8,1408.6,798.1z"/>
		<path class="st0" d="M1430.3,797.8c5.5,0.1,10.7,0,13.8-0.7C1441.2,797.1,1434.8,797.3,1430.3,797.8z"/>
		<polygon class="st0" points="1469.9,802.8 1464.8,801.8 1452.7,801.5 		"/>
		<path class="st0" d="M1224.2,797.2l-18.7,1.3c-1.9,1.5,3.2,2.5,10.2,1.9C1220.2,799.3,1227.1,798.8,1224.2,797.2z"/>
		<path class="st0" d="M1280.8,809.6c-5.1-0.9-5.4-1.9-8.3-3.4l-0.6,5.6L1280.8,809.6z"/>
		<path class="st0" d="M1226.2,810.9c-1.9,1.5-27.2,4.5-3.4,4.1C1224.7,813.5,1243.5,812.2,1226.2,810.9z"/>
		<polygon class="st0" points="944.2,803.8 949,803.8 948.3,794.6 		"/>
		<path class="st0" d="M695.6,825.8c22.2,2.2,5.3-5.7,25.3-2.9c5.2-2.2-16.4-2.2-11-4.1C696.5,821,689.5,819.7,695.6,825.8z"/>
		<path class="st0" d="M709.9,818.7c2.1-0.4,4.4-0.8,6.8-1.4C714.4,817.6,712.1,818.1,709.9,818.7z"/>
		<path class="st0" d="M224.3,787.3l-1.3,1.2c1.9,1.9,5.2,2.6,11.7,4L224.3,787.3z"/>
		<polygon class="st0" points="413.2,823.5 410,822.9 415.4,829 		"/>
		<path class="st0" d="M568.6,820.5c-3.4,0.2-6.7,0.6-10,1.1c-1.7,0.2-3.4,0.5-5.1,0.7c-1.6,0.2-3.3,0.3-4.9,0.3
			c1.7-0.2,3.3-0.3,4.9-0.3c1.4,0,2.9,0,4.3,0.1c2.7,0.2,5,0.6,6.7,0.8C568.2,823.8,569.8,823.7,568.6,820.5z"/>
	</g>
</g>
</svg>
