<svg xmlns="http://www.w3.org/2000/svg" viewBox="0 0 81.02 80.99"><defs><style>.cls-1{fill:#47b066;}</style></defs><title>Middel 2</title><g id="Laag_2" data-name="Laag 2"><g id="Laag_1-2" data-name="Laag 1"><path class="cls-1" d="M0,40.45C0,30.71.08,21,0,11.24A6.5,6.5,0,0,1,2,6.17C3.32,4.89,4.42,3.28,5.94,2.34,7.67,1.26,9.76.13,11.69.11,31.24,0,50.79,0,70.34.05a6.76,6.76,0,0,1,3.18,1C77.91,3.59,81,7,81,12.5c0,18.5,0,37,0,55.51A11.77,11.77,0,0,1,75.5,78.49,13.63,13.63,0,0,1,67.09,81Q39.7,81,12.3,81c-2.47,0-4.39-1.15-6.51-2.23S3,75.28,1.2,73.85C.36,73.17.1,71.41.09,70.13,0,60.24,0,50.34,0,40.45ZM58.29,32c-4.76-.81-4.86-.73-6.26,3.26-1,2.85-2.08,5.66-3.34,9.08-1.32-3.52-2.38-6.43-3.48-9.32-1.42-3.74-1.63-3.85-6.09-3,0,5.78,0,11.63.05,17.47,0,.4.71,1,1.17,1.14,1.55.3,2.62-.05,2.53-2.07-.12-3,0-6,0-9.06,1.69,3.16,2.9,6.31,4.24,9.41.25.59,1,1.39,1.5,1.35A2.78,2.78,0,0,0,50.45,49a34.76,34.76,0,0,0,1.68-4.25c.66-1.79,1.3-3.58,1.95-5.36a60.19,60.19,0,0,1,.49,9.78c0,1.35.78,1.8,1.83,1.51.71-.2,1.8-.94,1.81-1.46C58.34,43.53,58.29,37.83,58.29,32Zm-34.92-.29c0,6.17,0,11.93.08,17.69,0,.46,1.1,1.26,1.72,1.28,3,.14,5.94,0,8.91.06,1.26,0,2.19-.11,2.15-1.77S35.13,47.3,34,47.3H27.23V42.39c2,0,3.94,0,5.84,0,1.23,0,1.71-.48,1.71-1.72s-.44-1.75-1.69-1.72c-1.9.05-3.8,0-5.77,0V35.06c2.61,0,5,.1,7.41-.07a2.16,2.16,0,0,0,1.38-1.61c0-.54-.84-1.57-1.35-1.59C31.09,31.65,27.4,31.72,23.37,31.72ZM8.66,32c-3.28-.6-3.44-.49-3.46,2.43,0,4.75,0,9.49,0,14.24,0,1.37.35,2.08,1.89,2.07S8.94,50,8.9,48.66c-.06-2,0-4.08,0-6.06h7.45c0,2.06,0,3.9,0,5.74,0,1.24-.17,2.39,1.74,2.41S20,49.58,20,48.23c0-4.59,0-9.17,0-13.76,0-3-.37-3.24-3.7-2.26v6.58H9ZM60.13,50.4c2.13.58,3.66.67,4.32-1.79.16-.62,1.26-1.27,2-1.41a9.87,9.87,0,0,1,3.83,0c.84.17,2,.83,2.22,1.52.74,2.46,2.3,2.21,4.28,1.71a17.49,17.49,0,0,0-.46-1.92c-1.72-5-3.5-10-5.18-15a2.1,2.1,0,0,0-2.41-1.75c-1.36.07-2.42.14-2.94,1.76-1.45,4.51-3.07,9-4.61,13.45C60.82,48.05,60.5,49.19,60.13,50.4Z"/></g></g></svg>