<svg xmlns="http://www.w3.org/2000/svg" viewBox="0 0 104.57 104.57"><defs><style>.cls-1{fill:#47b066;}.cls-2{fill:#fff;}</style></defs><title>Middel 12</title><g id="Laag_2" data-name="Laag 2"><g id="Laag_1-2" data-name="Laag 1"><rect class="cls-1" width="104.57" height="104.57" rx="18.79"/><circle cx="30.89" cy="57.89" r="21.74"/><circle cx="74.38" cy="58.44" r="21.74"/><path d="M13.39,45s10.3-17.34,38.53-16.82S90.11,43.43,90.11,43.43L59.88,67.68,52.64,79.63,48,71.28,36.89,51.56Z"/><path class="cls-1" d="M30.89,36.14S37.54,32.08,52.64,32s21.74,4.19,21.74,4.19-9.49,0-15.52,7.07-6.22,18-6.22,18S54,48.94,46.42,42.67A28.17,28.17,0,0,0,30.89,36.14Z"/><path d="M22.41,36.14H9.15L13.39,45S14.85,41.38,22.41,36.14Z"/><path d="M81.84,36.14H96.12l-4.24,9.39S87.65,39.23,81.84,36.14Z"/><circle class="cls-2" cx="74.38" cy="57.89" r="17.5"/><circle class="cls-2" cx="30.89" cy="57.89" r="17.5"/><circle cx="30.8" cy="57.79" r="10.86"/><circle class="cls-2" cx="30.8" cy="57.64" r="7.2"/><circle class="cls-1" cx="30.8" cy="57.7" r="3.47"/><circle cx="74.38" cy="57.64" r="10.86"/><circle class="cls-2" cx="74.38" cy="57.89" r="7.2"/><circle class="cls-1" cx="74.38" cy="57.95" r="3.47"/></g></g></svg>