<svg xmlns="http://www.w3.org/2000/svg" viewBox="0 0 87.85 89.26"><defs><style>.cls-1{fill:#47b066;}.cls-2{fill:#fff;}</style></defs><title>Middel 10</title><g id="Laag_2" data-name="Laag 2"><g id="Laag_1-2" data-name="Laag 1"><path class="cls-1" d="M81.61,51.55c0,1.68.08,3.23,0,4.77a5.39,5.39,0,0,1-5.23,5.39c-11.11.85-22.23,1.64-33.34,2.48-10.5.78-21,1.56-31.5,2.41C7.09,67,4.87,65.36,4.1,61Q2.11,49.66.16,38.31c-.95-5.53,2.52-9.51,8.17-9.21,5.44.28,10.86.75,16.29,1.14l2.49.14c.06-1.16.07-2.17.17-3.17a5.29,5.29,0,0,1,6.16-4.81q21.15,3.39,42.31,6.84c2.72.44,5.44.89,8.16,1.31s4.16,2.13,3.92,5c-.31,3.78-.63,7.56-.93,11.34C86.69,49.7,85.49,50.84,81.61,51.55Zm-37.2-3.18,2.73,2.91,2.34-2.79a2.1,2.1,0,0,0,.32.79c.57.7,1.22,1.34,1.84,2a11.33,11.33,0,0,0,1.62-2,26.38,26.38,0,0,0,1.18-3.26,11.64,11.64,0,0,1,.64,3.59c.09.58.73,1.07,1.12,1.6.43-.49,1.19-1,1.24-1.49.16-1.68.06-3.39.06-5.24-2.69.27-5.77-1.34-6,2.69l-2.13-2.8L47.33,46.8c-.71-.63-2-2.33-2.54-2.12a3.55,3.55,0,0,1-2.85-.16,3.65,3.65,0,0,0-4.67,2.18c-.65,1.77.21,4,1.94,4.5s3.71.56,4.94-1.93H40v-.42ZM67.6,49.53v-.84a11.23,11.23,0,0,0,2,0c.77-.15,2-.32,2.14-.76a3,3,0,0,0-.64-2.35A3.18,3.18,0,0,0,66.5,45c-1,.7-1.49,2-2.16,2.94-.5-.22-1.12-.51-1.75-.76s-1.14-.44-1.71-.66l.1-.28,3.22.43c-.87-2.32-2.78-3.14-4.79-2.15A2.81,2.81,0,0,0,58,46.33c-.06.51.69,1.31,1.27,1.67a13.51,13.51,0,0,0,2.62,1l-.2.59-4-.58c1.63,3.18,4.21,3.21,7.21.52,2.42,2.72,5.16,2.71,6.66-.39Zm-51.52-.85a7,7,0,0,1,1-.24c1.78-.1,3.69-.29,3.87-2.5.09-1.09-.5-3.06-1.17-3.24a23.61,23.61,0,0,0-6-.42c-.16,0-.47.7-.48,1.08,0,2.23-.08,4.46,0,6.69a1.69,1.69,0,0,0,1.17,1.2c.43,0,1.05-.55,1.35-1A4,4,0,0,0,16.08,48.68Zm20.43-2.24c-.64-2.09-2.31-2.45-4.22-2s-2.57,1.88-2.46,3.72a3.18,3.18,0,0,0,3.29,3.27c1.78.11,3.09-.59,3.4-2.27C35.32,47,32.36,52,32.28,47.92S35.35,48.65,36.51,46.44ZM26.19,44.67H21.54c0,1.91-.06,3.62,0,5.31a2,2,0,0,0,.87,1.29c.21.15,1.1-.19,1.1-.26-.18-2.5,1.25-4.19,2.83-5.82C26.42,45.14,26.27,44.89,26.19,44.67Zm3.17.09c-1.83-.52-2.69-.17-2.57,1.58a26.37,26.37,0,0,0,.12,3.34c.11.58.77,1,1.18,1.57.42-.49,1.15-1,1.21-1.5C29.46,48.15,29.36,46.52,29.36,44.76Z"/><path class="cls-1" d="M21.17,89c-.91-.94-1.37-1.83-1.92-1.9-2.09-.23-4.08-1-6.29.65-1.91,1.42-4.32.08-5.93-1.45a44.19,44.19,0,0,1-5.75-6.63c-.48-.69-.05-2.58.61-3.4a7.16,7.16,0,0,1,6.49-2.5c5.33.43,10.67.82,16,1.2.84.06,1.69,0,2.74,0,.05-1.09,0-2.1.15-3.09a5.34,5.34,0,0,1,6.45-4.72q25,4.06,50,8c3.82.61,4.78,2.49,2.43,5.57-4,5.32-8.94,8.73-16.2,8.53C55.84,88.86,41.76,89,27.68,89,25.2,88.94,22.72,89,21.17,89Z"/><path class="cls-1" d="M44.28,4.45,40,4.84,40,4.21l4.49-.48L47,6.62l2.56-2.69a4.76,4.76,0,0,0,.52,1.32c.38.54,1,1.31,1.47,1.28a2.34,2.34,0,0,0,1.56-1.28,29.77,29.77,0,0,0,1.26-3.77l.7.12a27.42,27.42,0,0,0,.06,3.74c.07.47.78.85,1.19,1.28.4-.45,1.06-.86,1.12-1.35a25.64,25.64,0,0,0,.06-3.44L62.32,5l-4.21-.69-.47.83A8.37,8.37,0,0,0,60,6.65c1.87.44,3.66.17,4.39-1.45a23.75,23.75,0,0,0,4.66,1.48c.84.09,1.79-.79,2.69-1.23l-.29-1-3.89.35,0-.7c1.21-.06,2.73.28,3.55-.32.64-.47.43-2.11.64-3.51C74.55-1,82.06,2.23,84.4,6.37l-2.77.45c0,1.57.07,3.12,0,4.65A5.42,5.42,0,0,1,76.28,17C65,17.9,53.7,18.72,42.41,19.57c-10.51.79-21,1.57-31.52,2.41-3.53.27-5.77-1.29-6.54-4.78-.3-1.35-.55-2.7-.81-4.06-1.17-6.25.28-9.32,5.94-12,1-.44,2.31-.06,3.64-.06a24.64,24.64,0,0,0,.15,2.78c.17,1-.67,2.8,1.32,2.67.66,0,1.25-1.32,2.26-2.5L21.55,2a26.26,26.26,0,0,0,.05,3.36c.06.48.73.89,1.12,1.34.38-.46,1.1-.93,1.07-1.36-.14-2.09.32-3.62,3.05-3.66a20.21,20.21,0,0,0,.07,3.54c.08.54.87.95,1.34,1.42.37-.47,1-.92,1.06-1.42.14-1.57.05-3.16.05-4.75l.88,0C30.12,1.69,29.61,3,30,4.05A4.56,4.56,0,0,0,32.49,6.6c1.85.56,3.59,0,4.16-2.76-.94.23-1.6.44-2.27.55a17.93,17.93,0,0,1-1.8.12L32.5,2.07a8,8,0,0,1,1.76,0c1.08.26,2.58,1.53,2.1-1.13,0-.13.83-.4,1.1-.53a28.91,28.91,0,0,0,.07,4.5,2.56,2.56,0,0,0,1.55,1.57C40.94,7.07,42.77,7.14,44.28,4.45Z"/><path class="cls-2" d="M44.41,48.37,40,48.85v.42h4.13c-1.23,2.49-3.08,2.46-4.94,1.93s-2.59-2.73-1.94-4.5a3.65,3.65,0,0,1,4.67-2.18,3.55,3.55,0,0,0,2.85.16c.56-.21,1.83,1.49,2.54,2.12l2.06-2.38,2.13,2.8c.21-4,3.29-2.42,6-2.69,0,1.85.1,3.56-.06,5.24,0,.53-.81,1-1.24,1.49-.39-.53-1-1-1.12-1.6a11.64,11.64,0,0,0-.64-3.59,26.38,26.38,0,0,1-1.18,3.26,11.33,11.33,0,0,1-1.62,2c-.62-.66-1.27-1.3-1.84-2a2.1,2.1,0,0,1-.32-.79l-2.34,2.79Z"/><path class="cls-2" d="M67.6,49.53l4-.39c-1.5,3.1-4.24,3.11-6.66.39-3,2.69-5.58,2.66-7.21-.52l4,.58.2-.59a13.51,13.51,0,0,1-2.62-1C58.7,47.64,58,46.84,58,46.33a2.81,2.81,0,0,1,1.4-1.86c2-1,3.92-.17,4.79,2.15L61,46.19l-.1.28c.57.22,1.15.42,1.71.66s1.25.54,1.75.76c.67-1,1.2-2.24,2.16-2.94a3.18,3.18,0,0,1,4.61.61,3,3,0,0,1,.64,2.35c-.13.44-1.37.61-2.14.76a11.23,11.23,0,0,1-2,0Z"/><path class="cls-2" d="M16.08,48.68a4,4,0,0,1-.21,1.55c-.3.47-.92,1.06-1.35,1a1.69,1.69,0,0,1-1.17-1.2c-.12-2.23-.08-4.46,0-6.69,0-.38.32-1.08.48-1.08a23.61,23.61,0,0,1,6,.42c.67.18,1.26,2.15,1.17,3.24-.18,2.21-2.09,2.4-3.87,2.5A7,7,0,0,0,16.08,48.68Z"/><path class="cls-2" d="M36.51,46.44c-1.16,2.21-4.3-2.53-4.23,1.48s3-.91,4.24,1.24c-.31,1.68-1.62,2.38-3.4,2.27a3.18,3.18,0,0,1-3.29-3.27c-.11-1.84.61-3.27,2.46-3.72S35.87,44.35,36.51,46.44Z"/><path class="cls-2" d="M26.19,44.67c.08.22.23.47.19.52-1.58,1.63-3,3.32-2.83,5.82,0,.07-.89.41-1.1.26A2,2,0,0,1,21.58,50c-.1-1.69,0-3.4,0-5.31Z"/><path class="cls-2" d="M29.36,44.76c0,1.76.1,3.39-.06,5-.06.54-.79,1-1.21,1.5-.41-.52-1.07-1-1.18-1.57a26.37,26.37,0,0,1-.12-3.34C26.67,44.59,27.53,44.24,29.36,44.76Z"/></g></g></svg>