<svg xmlns="http://www.w3.org/2000/svg" viewBox="0 0 112.48 112.48"><defs><style>.cls-1{fill:#47b066;}</style></defs><title>Middel 6</title><g id="Laag_2" data-name="Laag 2"><g id="Laag_1-2" data-name="Laag 1"><path class="cls-1" d="M7.13,0h98.25a7.1,7.1,0,0,1,7.1,7.09v98.29a7.1,7.1,0,0,1-7.1,7.1H7.23A7.23,7.23,0,0,1,0,105.25V7.13A7.13,7.13,0,0,1,7.13,0ZM65.34,24.76C74.11,45.66,82.77,66.31,91.44,87l.47-.09V24.76ZM20.51,86.85,21,87,47.09,24.78H20.51ZM56.22,47.7c-4,9.35-7.74,18.25-11.64,27.43,3.94,0,7.18.07,10.42,0a2.25,2.25,0,0,1,2.56,1.72c1.17,3.2,2.47,6.35,3.8,9.48.25.62.86,1.52,1.33,1.54,3.36.13,6.73.07,10.52.07Z"/></g></g></svg>