<svg xmlns="http://www.w3.org/2000/svg" viewBox="0 0 170.23 170.25"><defs><style>.cls-1{fill:#47b066;}.cls-2{fill:#fff;}</style></defs><title>Middel 5</title><g id="Laag_2" data-name="Laag 2"><g id="Laag_1-2" data-name="Laag 1"><path class="cls-1" d="M85.11.07c18.16,0,36.31,0,54.47,0,17.57,0,30.61,13,30.62,30.61q0,54.47,0,109c0,17.51-13.12,30.55-30.69,30.57q-54.46.06-108.94,0C13,170.2,0,157.11,0,139.51Q0,85,0,30.56C0,12.9,12.94,0,30.64,0Q57.86,0,85.11,0ZM46.64,78.2c2.56-.36,5.14-.86,7.74-1,4.16-.29,7.18-1.51,6.84-6.52-.35-5.18-2.31-7.45-7.33-7.51q-14.73-.18-29.48,0c-5.37.08-7.2,2.08-7.41,7.29-.28,7,2.07,9.41,9.27,8.67,4-.41,5.61.21,6.49,4.72,2.65,13.6,7,26.75,15.67,37.88s19.49,18,34,17.69c22.59-.49,51.58-30.28,50.95-52.67,0-2-2.32-4.6-4.26-5.81-2.53-1.58-5.14-.31-6.75,2.32-.78,1.27-1.33,2.68-2.13,3.93-4.54,7.12-8.35,14.88-13.86,21.13-7.77,8.81-17.55,13.9-30.18,10.92C59.21,115.21,48,94,46.64,78.2Zm79.54-32.87a11.69,11.69,0,0,0,11.4,11.54A11.93,11.93,0,0,0,149.28,45,11.33,11.33,0,0,0,137.5,34,11,11,0,0,0,126.18,45.33Z"/><path class="cls-2" d="M46.64,78.2c1.34,15.79,12.57,37,29.6,41,12.63,3,22.41-2.11,30.18-10.92,5.51-6.25,9.32-14,13.86-21.13.8-1.25,1.35-2.66,2.13-3.93,1.61-2.63,4.22-3.9,6.75-2.32,1.94,1.21,4.21,3.79,4.26,5.81.63,22.39-28.36,52.18-50.95,52.67-14.55.32-25.45-6.68-34-17.69s-13-24.28-15.67-37.88c-.88-4.51-2.53-5.13-6.49-4.72-7.2.74-9.55-1.68-9.27-8.67.21-5.21,2-7.21,7.41-7.29q14.75-.22,29.48,0c5,.06,7,2.33,7.33,7.51.34,5-2.68,6.23-6.84,6.52C51.78,77.34,49.2,77.84,46.64,78.2Z"/><path class="cls-2" d="M126.18,45.33A11,11,0,0,1,137.5,34a11.33,11.33,0,0,1,11.78,11,11.93,11.93,0,0,1-11.7,11.89A11.69,11.69,0,0,1,126.18,45.33Z"/></g></g></svg>