<svg xmlns="http://www.w3.org/2000/svg" viewBox="0 0 89.39 89.43"><defs><style>.cls-1{fill:#47b066;}</style></defs><title>Middel 4</title><g id="Laag_2" data-name="Laag 2"><g id="Laag_1-2" data-name="Laag 1"><path class="cls-1" d="M65.31,0c.68.06,1.37.11,2.06.2a54.56,54.56,0,0,1,7.91,1.1c6.87,1.94,11.26,6.51,13.06,13.44a46,46,0,0,1,1,11.7q0,19.12,0,38.25a37.13,37.13,0,0,1-1.14,10.55A18.11,18.11,0,0,1,74.79,88.36c-3.93,1.07-8,1-12,1.06q-18.91,0-37.82,0a36.69,36.69,0,0,1-11.14-1.25A18.16,18.16,0,0,1,1.06,74.76,42.25,42.25,0,0,1,0,63.84Q0,44.24.06,24.62A36.08,36.08,0,0,1,1.23,14.08C3.3,7.28,7.78,2.85,14.69,1.15A64.78,64.78,0,0,1,23,.15c.31,0,.62-.1.93-.15ZM35.26,42.2c.4,1.61.79,3.06,1.12,4.53.12.54.38.68.9.68,8.07,0,16.13,0,24.2,0a7.18,7.18,0,0,0,7.1-5.28q2.2-7.26,4.37-14.53c.24-.8.47-1.6.75-2.55H27.38c-1.94,0-1.95,0-2.5-1.91a2.84,2.84,0,0,0-2.55-2.3c-2.08-.13-4.18,0-6.38,0,.08.35.12.62.19.89.72,2.66,1.42,5.33,2.15,8q3.64,13.27,7.3,26.55c.51,1.84,1.18,2.34,3,2.33,11.32,0,22.65-.06,34,.05,2.42,0,5-2.71,5-5.19-.35,0-.72-.06-1.09-.06l-32.58,0c-1.53,0-1.57,0-2-1.47-1.41-5.31-2.79-10.62-4.18-15.93-.48-1.85-.95-3.71-1.44-5.63H64.93a2.83,2.83,0,0,1-.05.48c-.84,2.81-1.65,5.63-2.56,8.42-.7,2.15-2,3-4.35,3H35.26ZM25.39,64.86a4.75,4.75,0,1,0,5-4.61A4.7,4.7,0,0,0,25.39,64.86ZM66.78,65a4.68,4.68,0,0,0-4.57-4.75,4.73,4.73,0,1,0-.31,9.46A4.69,4.69,0,0,0,66.78,65Z"/></g></g></svg>