<svg xmlns="http://www.w3.org/2000/svg" viewBox="0 0 75.28 75.97"><defs><style>.cls-1{fill:#47b066;}</style></defs><title>Middel 7</title><g id="Laag_2" data-name="Laag 2"><g id="Laag_1-2" data-name="Laag 1"><path class="cls-1" d="M75.19,38.44c0,8.75-.18,17.51.09,26.26.11,3.72-4.75,9.46-8.21,10.28a35.6,35.6,0,0,1-8,.94C43.4,76,27.77,76,12.13,76,6.7,76-.11,69.41,0,63.92.37,46.5.19,29.06.1,11.63.08,7.17,5,1.4,9,.91A74,74,0,0,1,17.45.05C32.34,0,47.23,0,62.12,0,67.28,0,71,2.7,73.88,6.53a8.92,8.92,0,0,1,1.26,5C75.25,20.48,75.19,29.46,75.19,38.44ZM59.74,29.73c3.74-.21,3.83-.3,3.81-3.6,0-.9-.12-1.79-.14-2.69-.09-4.78-.15-9.57-.25-14.35,0-1.66-.45-2.68-2.59-2.67-15.33.1-30.67.07-46,0-1.62,0-2.27.49-2.29,2.15-.08,6-.26,12-.41,17.94-.07,3,.46,3.46,3.06,3.08C16.7,25,18,20.42,20.12,16.31s8.38-6.68,12-5.77a4.52,4.52,0,0,1,.17.83c0,15.86,0,31.72-.11,47.57a9.37,9.37,0,0,1-1,4.07c-1.46,2.9-4.35,2.82-7,2.8-1.66,0-2.25.6-2.23,2.23s.43,2.31,2.17,2.3q13.57-.09,27.16,0c1.71,0,2.18-.67,2.18-2.26s-.47-2.43-2.18-2.25a15.44,15.44,0,0,1-1.8,0c-3.91-.13-5.58-1.52-6.24-5.34a22.3,22.3,0,0,1-.2-3.57c0-15,0-30.07-.12-45.1,0-2.09,1.14-1.66,2.34-1.48,6.93,1.1,10.93,5.4,12.79,11.9C58.72,24.66,59.16,27.16,59.74,29.73ZM18.55,48.91c1.64,0,3.29-.07,4.92,0,1.46.07,2-.59,2-2q-.06-4.92-.06-9.84c0-1.35-.64-1.83-1.94-1.81q-4.82.08-9.63,0c-1.38,0-2,.42-2,1.93.07,3.28.06,6.56,0,9.84,0,1.33.38,1.93,1.78,1.85C15.26,48.84,16.91,48.91,18.55,48.91ZM56.84,49c2.14-.14,5.17.51,6.2-.63,1.17-1.3.65-4.2.68-6.41.07-6.69,0-6.71-6.66-6.67-2.15,0-5.18-.62-6.21.5-1.17,1.27-.67,4.19-.69,6.39C50.1,48.91,50.13,48.91,56.84,49Z"/></g></g></svg>