<svg xmlns="http://www.w3.org/2000/svg" viewBox="0 0 89.52 89.5"><defs><style>.cls-1{fill:#46b066;}</style></defs><title>Middel 9</title><g id="Laag_2" data-name="Laag 2"><g id="Laag_1-2" data-name="Laag 1"><path class="cls-1" d="M89.51,44.94v27.9C89.51,82.9,83,89.49,73,89.49q-28.3,0-56.6,0C6.63,89.49,0,82.85,0,73,0,54.12,0,35.25.05,16.39c0-6.92,3-12.26,9.56-15a16.07,16.07,0,0,1,6-1.29Q44.73-.06,73.82,0A15.59,15.59,0,0,1,89.5,15.72C89.53,25.46,89.51,35.2,89.51,44.94Zm-22.79-.66H51c-.37-4-.37-4,3.05-4H66.66v-4H51.05V31.9H66.62V28.09c-5.46,0-10.71-.05-16,0a3.29,3.29,0,0,0-3.48,3.29c-.16,5.57,0,11.14,0,16.78H66.72Zm-44.07-16c0,5.73-.08,11.16,0,16.58.05,2.44,1.7,3.54,4,3.59,3,.06,5.95,0,8.93,0h6.42V28.21H38.47V44.37H34.4v-16c-3.73-.46-3.74-.46-3.74,2.81V44.4H26.32V28.24Z"/></g></g></svg>