<svg xmlns="http://www.w3.org/2000/svg" viewBox="0 0 92.25 90.19"><defs><style>.cls-1{fill:#2fac66;}.cls-2{fill:#fff;}.cls-3{fill:#00a19a;}</style></defs><title>Middel 8</title><g id="Laag_2" data-name="Laag 2"><g id="Laag_1-2" data-name="Laag 1"><rect class="cls-1" width="92.25" height="90.19" rx="23.57"/><path class="cls-2" d="M29.69,52.9l-2.7-3L50.41,26.65a8.6,8.6,0,0,0-3.86-5.27c-3.09-1.68-7.85-1.8-7.85-1.8s-5.79-8.88-14-5.79S15.93,24.08,16.31,26s3.35,6.05,3.35,6.05-7.08,5.4-6.31,10S15,51.48,20.56,52.9,29.69,52.9,29.69,52.9Z"/><path class="cls-2" d="M29.91,49.8l22.2-22.1,7.65,7.23v-4l6,.11V41.28l9,8.52s-1.51,2.55-4,2.08a9.83,9.83,0,0,1-3.67-1.33l.22,18.86H37.24l.22-19a8.25,8.25,0,0,1-5,1C29.7,51.09,29.91,49.8,29.91,49.8Z"/><rect class="cls-2" x="30.78" y="53.53" width="4.53" height="9.53"/><circle class="cls-3" cx="52.38" cy="58.85" r="1.99"/><path class="cls-3" d="M43.08,48.9s-2,2.35-.77,3.12,2.15.35,3.19-.58,1.83-2.82,6.88-2.88S59,51.44,59,51.44a1.88,1.88,0,0,0,2.65.72c1.6-1,0-2.79,0-2.79s-2.52-4-9-4S43.08,48.9,43.08,48.9Z"/><path class="cls-3" d="M46.84,53.58s-1.21,1.44-.47,1.91,1.31.22,2-.35,1.12-1.74,4.22-1.77,4,1.77,4,1.77a1.16,1.16,0,0,0,1.63.44c1-.64,0-1.71,0-1.71s-1.55-2.47-5.5-2.43A8.24,8.24,0,0,0,46.84,53.58Z"/></g></g></svg>