<svg xmlns="http://www.w3.org/2000/svg" viewBox="0 0 55.9 55.91"><defs><style>.cls-1{fill:#47b066;}</style></defs><title>Middel 11</title><g id="Laag_2" data-name="Laag 2"><g id="Laag_1-2" data-name="Laag 1"><path class="cls-1" d="M27.89,0C34,0,40.05.09,46.13,0A9.94,9.94,0,0,1,55.9,9.75c0,11.88,0,23.76,0,35.64,0,4.51-1.82,7.94-6.08,9.75a9.63,9.63,0,0,1-3.59.73c-12.27.05-24.53,0-36.8,0C4.77,55.92,0,51.35,0,46.5,0,34.13,0,21.75,0,9.38A9.57,9.57,0,0,1,9.33.05C15.52,0,21.71,0,27.89,0Zm2.46,27.09c.17-.22.27-.35.38-.47a6.55,6.55,0,0,0,1.71-7.22,6.34,6.34,0,0,0-5.84-4.35,70.45,70.45,0,0,0-7.69-.19A2.87,2.87,0,0,0,15.79,18c0,7.22,0,14.44,0,21.66,0,.84.31,1.17,1.16,1.16,3.06,0,6.13.07,9.19-.09a7.73,7.73,0,0,0,7.29-5.39C34.38,32.09,33.39,29.44,30.35,27.12ZM42.22,37.9a3.05,3.05,0,1,0-6.1,0A3.16,3.16,0,0,0,39.26,41,3.07,3.07,0,0,0,42.22,37.9Z"/><path class="cls-1" d="M21.06,36.1c0-1.83-.08-3.46,0-5.07,0-.48.57-1.31.91-1.33a16.17,16.17,0,0,1,4.67.22c1.61.42,1.92,2,1.76,3.46a2.73,2.73,0,0,1-2.6,2.69C24.34,36.19,22.81,36.1,21.06,36.1Z"/><path class="cls-1" d="M21.09,25.09c0-1.13,0-2.06,0-3,0-2.45.49-2.8,3.51-2.55,2.18.19,3.16,1.34,2.83,3.33a2.48,2.48,0,0,1-2.25,2.26,18.34,18.34,0,0,1-2.46.05C22.25,25.2,21.77,25.14,21.09,25.09Z"/></g></g></svg>