<svg xmlns="http://www.w3.org/2000/svg" viewBox="0 0 76.96 76.96"><defs><style>.cls-1{fill:#45af60;}</style></defs><title>Middel 16</title><g id="Laag_2" data-name="Laag 2"><g id="Laag_1-2" data-name="Laag 1"><path class="cls-1" d="M70.81,0H6.58C3.07,0,0,2.53,0,6V70.37A6.78,6.78,0,0,0,6.58,77H70.79A6.42,6.42,0,0,0,77,70.37V6A5.9,5.9,0,0,0,70.81,0ZM23.86,64.15h-11V29.87h11ZM18.72,24.66h-.08a5.66,5.66,0,0,1-5.81-5.92,5.7,5.7,0,0,1,6-5.91,5.68,5.68,0,0,1,5.9,5.91A5.7,5.7,0,0,1,18.72,24.66ZM64.15,64.15h-11V45.41c0-4.49-1.61-7.56-5.6-7.56a6,6,0,0,0-5.65,4.07,7.43,7.43,0,0,0-.38,2.71V64.15h-11V29.87h11v4.77c1.6-2.28,4.11-5.57,9.94-5.57,7.24,0,12.71,4.77,12.71,15Z"/></g></g></svg>