<svg xmlns="http://www.w3.org/2000/svg" viewBox="0 0 94.58 76.96"><defs><style>.cls-1{fill:#45af60;}</style></defs><title>Middel 15</title><g id="Laag_2" data-name="Laag 2"><g id="Laag_1-2" data-name="Laag 1"><path class="cls-1" d="M94.58,9.12a39.72,39.72,0,0,1-11.14,3.07A19.51,19.51,0,0,0,92,1.44,38.28,38.28,0,0,1,79.65,6.15,19.4,19.4,0,0,0,46.08,19.42a19,19,0,0,0,.5,4.43,55,55,0,0,1-40-20.3,19.45,19.45,0,0,0,6,25.93,19,19,0,0,1-8.82-2.42v.24a19.42,19.42,0,0,0,15.57,19,19.57,19.57,0,0,1-5.11.68,18.37,18.37,0,0,1-3.65-.36A19.45,19.45,0,0,0,28.74,60.15,38.89,38.89,0,0,1,4.63,68.46,39.42,39.42,0,0,1,0,68.18,54.26,54.26,0,0,0,29.7,77C65.44,77,85,47.36,85,21.69c0-.85,0-1.69-.06-2.51A39.58,39.58,0,0,0,94.58,9.12Z"/></g></g></svg>