<svg xmlns="http://www.w3.org/2000/svg" viewBox="0 0 74.77 74.77"><defs><style>.cls-1{fill:#47b066;}</style></defs><title>Middel 18</title><g id="Laag_2" data-name="Laag 2"><g id="Laag_1-2" data-name="Laag 1"><path class="cls-1" d="M70.64,0H4.13A4.13,4.13,0,0,0,0,4.13V70.64a4.13,4.13,0,0,0,4.13,4.13H37.38V45.17H28.45V34.27h8.93V26.21c0-9.66,6.7-14.92,15.33-14.92,4.12,0,8.56.31,9.6.45V21.83H55.43c-4.69,0-5.59,2.22-5.59,5.49v7H61l-1.46,10.9H49.84v29.6h20.8a4.13,4.13,0,0,0,4.13-4.13V4.13A4.13,4.13,0,0,0,70.64,0Z"/></g></g></svg>