<svg xmlns="http://www.w3.org/2000/svg" viewBox="0 0 76.96 76.96"><defs><style>.cls-1{fill:#45af60;}</style></defs><title>Middel 17</title><g id="Laag_2" data-name="Laag 2"><g id="Laag_1-2" data-name="Laag 1"><path class="cls-1" d="M54.51,6.41a16.08,16.08,0,0,1,16,16V54.51a16.08,16.08,0,0,1-16,16H22.45a16.08,16.08,0,0,1-16-16V22.45a16.08,16.08,0,0,1,16-16H54.51m0-6.41H22.45A22.51,22.51,0,0,0,0,22.45V54.51A22.51,22.51,0,0,0,22.45,77H54.51A22.51,22.51,0,0,0,77,54.51V22.45A22.51,22.51,0,0,0,54.51,0Z"/><path class="cls-1" d="M59.32,22.45a4.81,4.81,0,1,1,4.81-4.81A4.81,4.81,0,0,1,59.32,22.45Zm-20.84,3.2A12.83,12.83,0,1,1,25.65,38.48,12.84,12.84,0,0,1,38.48,25.65m0-6.41A19.24,19.24,0,1,0,57.72,38.48,19.25,19.25,0,0,0,38.48,19.24Z"/></g></g></svg>