<svg xmlns="http://www.w3.org/2000/svg" viewBox="0 0 109.24 143.38"><defs><style>.cls-1{fill:#45af60;}</style></defs><title>Middel 23</title><g id="Laag_2" data-name="Laag 2"><g id="Laag_1-2" data-name="Laag 1"><path class="cls-1" d="M95.58,47.79H88.76V34.14a34.14,34.14,0,0,0-68.28,0h13a21.17,21.17,0,1,1,42.33,0h0V47.79H13.65A13.7,13.7,0,0,0,0,61.45v68.27a13.7,13.7,0,0,0,13.65,13.66H95.58a13.7,13.7,0,0,0,13.66-13.66V61.45A13.7,13.7,0,0,0,95.58,47.79Zm-41,62.13A13.66,13.66,0,1,1,68.27,96.27,13.7,13.7,0,0,1,54.62,109.92Z"/></g></g></svg>