<svg xmlns="http://www.w3.org/2000/svg" viewBox="0 0 73.06 73.06"><defs><style>.cls-1{fill:#45af60;}</style></defs><title>Middel 19</title><g id="Laag_2" data-name="Laag 2"><g id="Laag_1-2" data-name="Laag 1"><path class="cls-1" d="M69,50.73A47.6,47.6,0,0,1,54.59,48.5a3.81,3.81,0,0,0-4.06,1L41.6,58.45A61.12,61.12,0,0,1,14.81,31.66l8.93-8.93a4.24,4.24,0,0,0,1-4.06A44,44,0,0,1,22.32,4.06,4.07,4.07,0,0,0,18.26,0H4.06A4.08,4.08,0,0,0,0,4.06a69,69,0,0,0,69,69A4.08,4.08,0,0,0,73.06,69V54.79A4.08,4.08,0,0,0,69,50.73Z"/></g></g></svg>