<svg xmlns="http://www.w3.org/2000/svg" viewBox="0 0 2146.47 127"><defs><style>.cls-1{fill:#b6e1fa;}</style></defs><title>Middel 14</title><g id="Laag_2" data-name="Laag 2"><g id="Laag_1-2" data-name="Laag 1"><path class="cls-1" d="M43.44,37.11S323.15,95.68,671,86.76c309.72-7.94,376.09-62.86,657.75-40.13C1550.25,64.5,1589.82,104,1776.26,89.17c0,0,64.88-5.16,410.9-71.53h0L1963.44,37.11Z" transform="translate(-43.44)"/><path class="cls-1" d="M48.47,59c-6.35-.33-4.07,3.44-5,4.11C54.07,62.3,48.2,58,48.47,59Z" transform="translate(-43.44)"/><polygon class="cls-1" points="109.91 50.46 108.05 51.99 123.51 48.22 109.91 50.46"/><path class="cls-1" d="M251.43,50.53c-9.27-6.43-35.54,1-53-1.25l-2.88-1.47L187.65,53C208.89,52.17,236.47,48.73,251.43,50.53Z" transform="translate(-43.44)"/><path class="cls-1" d="M303.72,64.42c-3.22-2.5,11.31-2.15-12.19-.78,1.18.27,1.52.43,2.21.63C295.85,64.24,298.77,64.24,303.72,64.42Z" transform="translate(-43.44)"/><path class="cls-1" d="M293.74,64.27c-10.33.18,6.76,2.1,0,0Z" transform="translate(-43.44)"/><path class="cls-1" d="M341.44,62.84l-13.61,2.23c2.84,1.48,14.95,1.81,10.45,2.89C352.24,66.73,349.37,65.27,341.44,62.84Z" transform="translate(-43.44)"/><path class="cls-1" d="M354.34,58.15l-7.06,1C348.52,59.72,350.39,59.93,354.34,58.15Z" transform="translate(-43.44)"/><path class="cls-1" d="M332.33,61.09l14.95-2c-2-1-2.17-3.12-6.86.72C341.64,57.91,338.69,59.74,332.33,61.09Z" transform="translate(-43.44)"/><path class="cls-1" d="M323.87,60.11c-7.63-1.4-17.49-2.28-3.84-4.5C294,56.49,297.84,61,323.87,60.11Z" transform="translate(-43.44)"/><path class="cls-1" d="M256.44,43.88,246.23,42l-8.82,2.15C241.82,43.09,257.07,45.9,256.44,43.88Z" transform="translate(-43.44)"/><path class="cls-1" d="M426.19,66.17c.85-1.37-4.58-3.65-5.59-5.39l-10.05,1.56C415.71,63.28,425.5,64.14,426.19,66.17Z" transform="translate(-43.44)"/><path class="cls-1" d="M420.6,60.78l15-2.35C422.2,58.15,419.75,59.27,420.6,60.78Z" transform="translate(-43.44)"/><polygon class="cls-1" points="313.32 51.02 288.62 55.95 318.08 50.95 313.32 51.02"/><polygon class="cls-1" points="440.17 66.34 431.65 69.5 446.83 64.72 440.17 66.34"/><path class="cls-1" d="M521.7,65.78c-6.3,2.62,8.65,4.44,2,6,10.35-.46,19.18-2.72,27.14-4.74C542.37,68.22,533.36,67.93,521.7,65.78Z" transform="translate(-43.44)"/><path class="cls-1" d="M564.18,64.14c-4.22.63-8.6,1.75-13.36,3A73.7,73.7,0,0,0,564.18,64.14Z" transform="translate(-43.44)"/><path class="cls-1" d="M461.25,59.1c1.16.83,3.4,3,11.83,3.91l-5.91-3.85Z" transform="translate(-43.44)"/><path class="cls-1" d="M467,59l.21.12,12.77.22Z" transform="translate(-43.44)"/><path class="cls-1" d="M459.76,59.09h1.49C460.68,58.73,460.33,58.6,459.76,59.09Z" transform="translate(-43.44)"/><path class="cls-1" d="M396.18,54.5c8.83-2.15,27.25-4.46,9.43-7.74C399.27,49.4,409.47,51.26,396.18,54.5Z" transform="translate(-43.44)"/><path class="cls-1" d="M452.41,54.28l-16-.88c.32,1,3.2,2.5-1.18,3.56Z" transform="translate(-43.44)"/><polygon class="cls-1" points="416.79 53.06 408.97 54.28 414.89 54.6 416.79 53.06"/><path class="cls-1" d="M536.82,60.54c6.9-1.67,14.45-1.81,23-2.08-9.14-.76-18.58-1.17-27.55-1.16C531,58.51,527,60.68,536.82,60.54Z" transform="translate(-43.44)"/><path class="cls-1" d="M502.87,59.47c.48-.08,1.09-.13,1.53-.22C503.46,58.93,502.71,58.82,502.87,59.47Z" transform="translate(-43.44)"/><path class="cls-1" d="M643.71,58.49c-.47-.22-.87-.48-1.35-.7a4.9,4.9,0,0,1-.31.66Z" transform="translate(-43.44)"/><path class="cls-1" d="M530.7,56.59A33.55,33.55,0,0,0,515.82,58c5.14-.39,10.58-.64,16.42-.67C532.81,56.76,532.91,56.4,530.7,56.59Z" transform="translate(-43.44)"/><path class="cls-1" d="M587.59,62.34c-3.58-.8-7.63-1.48-11.89-2.11C579.19,61.45,586.32,63.35,587.59,62.34Z" transform="translate(-43.44)"/><path class="cls-1" d="M506.72,60.32c-.34.06-.66.13-1,.17C507.94,61.31,507.66,60.91,506.72,60.32Z" transform="translate(-43.44)"/><path class="cls-1" d="M506.72,60.32a64.47,64.47,0,0,0,9.1-2.35c-4.18.3-8.06.72-11.42,1.28A11.38,11.38,0,0,1,506.72,60.32Z" transform="translate(-43.44)"/><path class="cls-1" d="M669.14,33.8c-1.22,3.56-19.27,6.86-34.85,3-15.34,2.68-5.31,14.4,8.07,21,.48-1.56.48-3,16.26-5.1-5.52-1.95-35-4.55-21.7-7.78,20.9-1.84,17.13,1.26,27.29,3.15-8.64-4.45,26.6-6.47,22-13l-18.34,2.3C667.58,36.35,674.23,34.72,669.14,33.8Z" transform="translate(-43.44)"/><path class="cls-1" d="M612.29,57.42l-6.49.45c7.4.62,12.7,2,22.46,4.83,10.8-1.74,13-3.06,13.79-4.25l-32-.5Z" transform="translate(-43.44)"/><path class="cls-1" d="M576.64,57.88c5.07-3.88,20.67-5.53,11.12-9.73-19.06.27-13.36,3.24-24.75,4.93,30.76-1-8.83,2.16,13.39,4.36-6,.65-11.48.86-16.61,1,5.54.47,10.88,1,15.91,1.77-.28-.09-.48-.15-.71-.24h-.14s0,0,0-.06c-1.33-.48-1.77-.78-.27-.5a5.06,5.06,0,0,1,.64-.08,3.89,3.89,0,0,1,1.39-1.46c8.91.8,1.4,1-1.39,1.46-.1.19-.34.38-.37.58L575,60l30.81-2.12C599.28,57.33,591.11,57.44,576.64,57.88Z" transform="translate(-43.44)"/><path class="cls-1" d="M422,38.42c.95.35.91.62,1,.91C425,38.85,425.77,38.53,422,38.42Z" transform="translate(-43.44)"/><path class="cls-1" d="M434.71,40.77c-2.24.54-4.1,2.09-11.38,1.69-6.32-1.17,0-1.86-.31-3.13-4.38,1-15.35,2.78-1.59,4.66l2.18-.53c12.4,1.34,28.33,6.17,26.17,6.71C446.16,46.68,443,44.19,434.71,40.77Z" transform="translate(-43.44)"/><path class="cls-1" d="M506.56,48.33l25.66-1.9-13.07-3.36.66,2C505.22,44.3,508.38,46.78,506.56,48.33Z" transform="translate(-43.44)"/><polygon class="cls-1" points="603.2 60.41 599.8 64.51 614.62 58.73 603.2 60.41"/><polygon class="cls-1" points="636.54 59.92 635.31 63.49 644.11 61.34 636.54 59.92"/><path class="cls-1" d="M1822.89,104.46l-7.38,2.13A58,58,0,0,0,1822.89,104.46Z" transform="translate(-43.44)"/><path class="cls-1" d="M1877.14,96.07l1-1.95C1875.83,95.49,1874.92,96.36,1877.14,96.07Z" transform="translate(-43.44)"/><path class="cls-1" d="M1498.77,59.52c11,3.33,23.25,8.49,21.92,4.48l-3.37-3.9A70.27,70.27,0,0,1,1498.77,59.52Z" transform="translate(-43.44)"/><path class="cls-1" d="M2059.09,27.88l-3.31-.9c-2.54,1.56-4.93,3-7.06,4.36C2051.83,30.27,2055.37,29.11,2059.09,27.88Z" transform="translate(-43.44)"/><path class="cls-1" d="M2065.4,11.12,2080,12.37A108,108,0,0,0,2065.4,11.12Z" transform="translate(-43.44)"/><path class="cls-1" d="M1519,97.86l-9.33,2.38C1523.2,102.61,1517.63,99.6,1519,97.86Z" transform="translate(-43.44)"/><path class="cls-1" d="M1021.44,58.49a179.07,179.07,0,0,0,23.64,2.35C1033.66,58.6,1024.45,55.24,1021.44,58.49Z" transform="translate(-43.44)"/><path class="cls-1" d="M1837.8,60.22c-4.42,1.42-6.23,2.51-6,3.35C1836.4,62.17,1838.92,61,1837.8,60.22Z" transform="translate(-43.44)"/><path class="cls-1" d="M1072.44,60.83c-1.67-.39-3.31-.59-5-.92a172.9,172.9,0,0,1-22.35.93C1053.51,62.51,1063.16,63.54,1072.44,60.83Z" transform="translate(-43.44)"/><path class="cls-1" d="M445.81,106c-.78-.22-1.73-.34-2.44-.58C443.11,105.93,444.2,106,445.81,106Z" transform="translate(-43.44)"/><path class="cls-1" d="M136.24,35.73c3.08.22,8,1,12.75,1.62C146.74,36.74,142.91,36.19,136.24,35.73Z" transform="translate(-43.44)"/><path class="cls-1" d="M814.12,61.63c-7.07.25-1.12.43,0,0Z" transform="translate(-43.44)"/><path class="cls-1" d="M779.74,46.19c1.5-.44,2.64-1,2.82-1.9A4.7,4.7,0,0,1,779.74,46.19Z" transform="translate(-43.44)"/><path class="cls-1" d="M1142.87,36.53h.61C1141.38,35.77,1141.74,35.92,1142.87,36.53Z" transform="translate(-43.44)"/><path class="cls-1" d="M803.48,59.85c2.66.48,5.72.88,9,1.16C811.07,60.71,808.32,60.33,803.48,59.85Z" transform="translate(-43.44)"/><path class="cls-1" d="M804.92,61.7c-2.44-.18-4.36-.28-6.18-.38C797.84,62,798.63,62.38,804.92,61.7Z" transform="translate(-43.44)"/><path class="cls-1" d="M824,61.42c-4,.06-7.81-.13-11.44-.41,1.39.27,2,.49,1.59.62C816.2,61.57,819.12,61.49,824,61.42Z" transform="translate(-43.44)"/><path class="cls-1" d="M1025.73,65.2c-.48-.07-1-.08-1.55-.18C1017.34,67.51,1020.4,66.86,1025.73,65.2Z" transform="translate(-43.44)"/><path class="cls-1" d="M1682.8,19c-.33,0-.51.14-.81.19l1,.14Z" transform="translate(-43.44)"/><path class="cls-1" d="M1708.19,16.06c-10.81,4.86-17,4.27-25.15,3.24l8.4,11.26Z" transform="translate(-43.44)"/><path class="cls-1" d="M1689.2,114.78l18.38,3.55c-5.55,1.43-10.74,2.38-15.13,3.07l-5.93.88-2.41.35-2,.25c-2.35.33-3.46.68-2.89,1.3a6.72,6.72,0,0,0,2.16,1.16,45.41,45.41,0,0,0,5,1.66c.71-3,5.57-4.65,12.47-5.52,3.46-.43,7.42-.68,11.65-.85,2.12,0,4.28-.19,6.48-.32l6.66-.34c4.46-.23,8.92-.45,13.12-.76a91.78,91.78,0,0,0,11.49-1.37c6.75-1.32,11.39-3.23,11.82-6.32l12.15,1.79c-3.44.1-3.94.86-7.34,1,6.11,1.11,10.19,1,13.37.2l-2,.07c.56,0,1.13-.09,1.68-.15l.83-.1.4-.06.21,0,.13,0,.89-.31c.57-.21,1.12-.43,1.65-.68a24.18,24.18,0,0,0,2.87-1.62c1.85-1.16,3.59-2.48,5.74-3.76a37.86,37.86,0,0,1,8.09-3.57,64.07,64.07,0,0,1,13.12-2.35c10.39-.56,17.77.06,11,2.57l11.17-3.23,11.13-3.29c6.64-.81,5.36,1.54-1.26,2.36,11.52-2.13,23-4.37,34.45-6.58l-.2.4a225.17,225.17,0,0,1,20.51-9.69c9,.25-4.18,2-1.69,3.15l18.59-6.18c8.31,1.77-7,7.57-20.26,9.33,19.91,9,15.34-5.7,55-5.4L1932.59,90c12.82,4.84,26.43-.17,47.57.48-5.25-1.36-42.67-3.49-22.51-10.16,6-.13,13.76-1,24.48-5.47.87,4.26,11.57,1.24,25.14-1.47l.1,5.83c14.44-4.31,12.75-7,20.94-11.11,16.5-2.46,20.71,1.3,25.26,4.28,26.43-4-19.44-3.69,11.45-10.49,22.24-1.88,37.13-7.1,62.59-15.37,15.63-1-2,4,3.77,4.54L2144.05,44c3.34-.52,2.53,1.07,2.12,1.87,11.07-3.92-.13-5.83,17.49-10.78,2-3.87,13.12-2.93,26.26-3.06l-4-28.95c-11-1-23.51-1.42-33.52,2.76-5.68-1.15,2.37-3.75.48-5.82-30.43,7.39-26.14,5.72-50.91,14.26L2080,12.37c16.23,2.93-3.58,9.79-20.95,15.51,5.8,1.59,10.76,3,14.06,3.58l-28,5.55c-3.5-.65-.82-2.87,3.61-5.67-1.89.65-3.68,1.27-5.07,1.83-10.3-1.24-5.35-5,1.63-8.84,3.54.83,7.07,1.74,10.5,2.65,6.69-4.09,12.9-8.52,11.15-11.75a43,43,0,0,1-9.15,2.36c1.75-1.11,2.84-2.05,1.95-2.55s-3.86,1-8.36,2.87l-7-5.83L2043,14.75,2005.66,14c-7.06,2.38-13.84,5-20.83,7.58-3.49,1.32-7,2.64-10.69,3.95l-5.58,2-2.86,1-1.46.48-1.13.45-1,.29c-.31.1-.81.2-1.21.29l-2.58.57q-2.6.56-5.31,1.09c-3.61.7-7.37,1.36-11.32,2-7.9,1.2-16.53,2.16-26.16,2.77,10.48-4.71,2.26-7.69,2.83-13.27,4.91,2.52,11.59,2.43,19.34,1.6,3.87-.42,8-1,12.32-1.58,2.16-.28,4.36-.55,6.6-.78,1.12-.11,2.25-.22,3.38-.31l1.71-.12,1-.1.65-.11.44-.06.58-.07,2.36-.25c1.58-.14,3.18-.24,4.77-.29a32.75,32.75,0,0,1-6.2-.25c-1.35-.24-2.11-.59-2.12-1a1.44,1.44,0,0,1,.18-1.28,5.76,5.76,0,0,1,1.8-1.12l-1.72.39-.22.05a.66.66,0,0,0-.11,0l-.19.08-.38.15a23.64,23.64,0,0,1-3.62.61l-4.44.61-8.87,1.23-17.76,2.44c.88-4.56-8.29-3.42-18.48-5.31,7.7,9-29.09,6-45,8.77-1-3,2.82-6.11,22.2-5.39-21.38-6.78-27.62,10.59-48.6,4.83,4.73-.08,7.28.39,9.15-1.15-11,2.69-38.06.56-31.7-2.08l4.72-.06c-31.4-1.07-95.59-.07-100.28,7.59-.31-1,4.12-9.23,6-10.78l-56,25.76c4.94-6.58-14-22.23,12-25.95a107.36,107.36,0,0,0-32.49.29c5.1.94,12.71,9.51,5.74,10.11-19.13-7.32-13.28-3.91-36.86-10.16,7.65,1.41-.85,11.72-12.93,11.4,1.89-1.55-1-10.18,3.41-11.25l-30.07,10.12c7.51-1.83,1.33-8.58-5.4-11.44,3.12,2-26-.19-34,.81l12.74,2.35c-33.95-1.53-33.54,14.23-67.22,13.7C1489,33,1495,22.23,1477.84,21c-7.85,5.19-34.76,24.94-64.56,28.93l-5.71-3-22.87,3.38c14.24-7.8,54.2-24.21,76-30.6-12.7-2.35-3.53-3.49-22.56-3.23-6.72-2.77,10.37-4.21,16-4.37l-44.3-1.8c2,6.06-33.88,6.07-32.19,11.11l48.12-6.27c1.94,6-27.83,17.18-59.21,16.11-8-2.41,6-10.77,5.31-12.79-4.07,2.08-29.79,4-32.67,2.5l13.31-3.23C1335,15.44,1324,25.74,1303,20c-7.25-.38-21.64-7.79-22.9-4.21,11.83,6.91,14.14,28.26,6.26,33.45-2.54-.47-38.06-6.6-46.33-10-11.94-5.41,17.91-12.9,7.75-17.55-.44,1.65-7,3.69-9.78,4.34-7.61-1.41,3.16-5.12-13.38-4.37-2.76,6.14-33.64-.52-7.82,5.19-16.18,1.75-17.2-1.26-36.19-1,6,4-17.06,13.49-33.27,15.24,1-1.56-2.68-3.59-4.45-4.51-33.16-.56-51-3.34-81.89-3.4-2.85-1.48-17.77-3.28-11.41-5.92-4.45,1.08-8.54,3.16-18.08,3.31-18.46-5.3,21.27-.82,7.2-7.2-1.2,3.57-24.67,4.92-38.25,7.15,4.18,5.51,31.38,1.06,45-1.17.06,7.6-23.62,15.55-55.94,19.06-25.69,1.89-11.14-4.91-15.6-3.83-48.25-1.32-41.11,13.27-81.17,7.78-15.9-4.83-.72-9.62-4.24-13.11,20.92-1.83,32.12,3.07,46.3,2.88l-17.46-2.29C924,38.18,938,37,945.56,38.36,932.24,34,864,37.52,826.82,33.51c-6.62,1.62-18,3.3-12.63,5.25L826,38.08c10.82,3.9-22.17,5.4-7.26,7.22C802.91,48,785.2,52.35,763,50.15l-4.18-5.52c.48,1.61,14.54,3.29,20.79,1.61-9.27,2.44-34.1-7.47-44.26-.25l15.59,3.82c-15.86,2.78-35.48,8.64-55.19,6.9,9,5.44,4.55-.63,18.56,5.75-12.15-7.93,50.42.33,30.92-8,14.37,7.4,24.87,3.13,43.66,9.44-.58-1.82-6.65-3.48,9.9-2.58a18.64,18.64,0,0,1,3.63-1.6c.5,0,.68.07,1.11.13-.33-.07-.57-.15-.91-.21.72-.28.78-.33-.34-.08-3.94-.79-7.13-1.75-8.43-2.77,8.22-4.18,34.53-4,43.43-6.21,9.82.87-4.11,2.09,1.25,4l13.3-3.23c1.31,4,26.09,6.71,3,9.08l20.82.18c12.26,2.27,29.12,3.17,39.52,1.47,9.82.88,24.81-4.47,16.25-1.31L964,58.3l.3,1c32.21.51,66.32-6.7,103.15.6,10.85-1,22.06-2.27,40.21-1.12l3.53,3.5c13.93-1.23,41.82,3.49,47.81-.15,15,9.41,67.59,2,92.08,3.72l.92-4.56c16.86.26,33-1,54-2.87l-1.28-4c18-3.31,46.38,2.87,74.92,2.46-1.94,1.54-9.18,1.14-14.3.21,34.09,9.11,71.93-6.63,102.86,0a46.88,46.88,0,0,1,18.68,0,9,9,0,0,0-1.91.22c.79,0,2,.05,3.17,0,3.4.7,6.9,1.51,10.7,2.15a61.34,61.34,0,0,0-9-2.16c5.94-.08,15-.58,23.79-1.6l3.76,4.34c.72-.06,1.29-.05,2-.13,8.67,1.6,7-2,2.35-5.31a79.1,79.1,0,0,0,11.68-2.61c7,7,23.18-2.36,32.79,5.1,6-3.64,44.42-2.73,49.12-10.39.3,1,2.91,1.47-1.86,1.53,9.85.88,19.69,1.75,28.52-.41l4.18,5.51L1667.65,46c13.06,3.36,18.48,5.31,5.51,9.55,31.32-6.52,25.41-2.45,52-8.92l-1.3,3.56c9.52-.13,24.75-4.9,30.49-2,21.3,6.77,105.4.94,160.08,7.23-10.61-10.49,25.41,4.7,27.58-3.43,3.18,2.48,10.8,3.88,2,6,3.66-.32,7.09-.49,10.32-.55,1.61,0,3.17,0,4.69,0l5.31.08,2.39-.15,1.48-.07,2.88-.12,5.5-.18c3.57-.12,7-.26,10.26-.56a58.9,58.9,0,0,0,19.77-5c3.39,2.21-5.64,4.14-2.68,5.36,2.18-.73,8.64-2.91,11.67-1.69s-3.89,2.43-8.2,3.89c28.36-2.89,30.57-10.76,32-18.08,14.69,2.13,21.83,1,31.81-4.57,5.22,1.9,13.79,3.62-3.79,6,10-.52,60.94-1.85,61.46-7.67,3.23,1.19,13.91-.78,16.46-1.67,20.71-1.48,23.92-1.29,42.86-3.31l-3.33-23.95c-.24.08-1.68.38-3.22.72l3.34-.12,3.16,22.74-2.82-.18a16.15,16.15,0,0,1,2.62-2l-2.54-18.32c-7.08,5.48-17.05,3.07-32.46,6.77l.37-.8c-40.79,2.67-16.76,5.67-57.15,7.44l2.94,3.84c-2,9.81-35.86,1.17-58,8.84l8.69.91c-11.91,5.43-37.15-6-49.87-4.88-2.87-.3,4.08-2.05,7.78-3.33-33.75.55-3.23,6.33-27.43,12.05-5-2.19,4.43-8.67-12.11-6.28-4.31-.49-15.8,4.06-29.15,8.52s-28.57,8.71-40.28,7.76c5.34,1.47,10.65,2.94-.41,6.62-17.3,3.79-48.51-.84-63,8.88-2.31-.28-3.24-.76-3.43-1.32-3.25,1-7.54,2.09-12.27,3.27l-14.89,3.66c-10,2.53-19.23,5.06-22.94,7.52a9.72,9.72,0,0,0-3-1.94,16.91,16.91,0,0,0-1.81-.68c-.31-.1-.64-.19-1-.28l-.26-.06.18-.1.18-.08.09,0h0s0-.1,0,.18l.06,4.7c0,3.14,0,6.29,0,9.43l-1.14-14.29c-5.47-1.22-12.89-.94-21,0-4.06.45-8.28,1.11-12.51,1.75l-12.52,1.68c-4.07.55-8,1-11.55,1.39-1.79.17-3.49.3-5.09.38s-3.08,0-4.44-.08c-5.44-.34-8.81-1.63-8.73-4.66-13.59.42-27.12,0-40.68-.34l1.14-1.32c-6.45-.71-11.87-1.08-16.52-1.2-2.33,0-4.46,0-6.44,0s-3.8.06-5.49.17A84.92,84.92,0,0,0,1615,75.31c-3-.78-3.29-1.42-2.82-1.88s1.76-.83,2-1.16c-9.38-1.92-16.64-3.46-22.77-4.52a161.65,161.65,0,0,0-16-2.43c-2.44-.22-4.84-.36-7.34-.44s-5.09-.15-7.89-.15c-5.62,0-12,.26-20.38.51l-2.55-5c-4.57.5-18.07-3.7-35.38-8.16-4.31-1.13-8.88-2.24-13.61-3.27s-9.59-2-14.53-2.93-10-1.56-14.94-2.07-10-.83-14.81-.9c.45-.44,1.36-1.18,4.48-1.35q-4.1-.12-8.33-.51c-2.81-.26-5.69-.51-8.58-.88-5.79-.71-11.68-1.68-17.6-2.8l-34.84-6.78c-2.78-.53-5.51-1-8.17-1.48s-5.27-.77-7.79-1.07a126.58,126.58,0,0,0-14.09-1c-8.61-.06-15.5,1.25-19.77,5l-28.73,2.08c18.34,1.87,16.83,3.53,12.62,5.19s-11.08,3.33-3.66,5.18c-14.41,0-36.92-7.38-19.16-7l2.72,1c1.76-2-.2-3.39-4.11-4.42a90.63,90.63,0,0,0-15.85-2.16c-12.13-.87-25-1.43-24.38-4.3l-13.61-.49c-2.27-.12-4.53-.12-6.8-.16l-6.79-.1q-13.58-.22-27-.61c-4.5-.19-9-.12-13.47-.14l-13.43,0c-8.93,0-17.85-.21-26.71.11l-26.52.62c-8.79.35-17.53.89-26.24,1.36-4.35.26-8.71.46-13,.8L1062.19,30l-12.84,1.18-6.4.62c-2.12.22-4.23.49-6.34.74,2.85,1.86,5.69,3.68,8.55,5.6-7.86.78-15.69,1.69-23.54,2.53-6.35-.75-8.93-4.08,7.89-5.91-4.64-1.3-11.59.36-17.4,2.53s-10.44,4.91-10.59,5.64c-33,1.75,11.75-9.33,1.71-8.14l-13.55,2.32,3.17.35c-10.66,4.15-11.31,7.1-31.33,9.49-12.82.41-7-3.14-12-2.72,0-.46-1.74-.45-7.65.85l-29.36,3.26L924.84,52c-12.66,4.22-27.6,3.3-13.33,7.39A45.12,45.12,0,0,0,900.74,58c-4.47-.2-9.7-.12-15.44.16s-12,.76-18.4,1.36c-3.22.33-6.5.59-9.8.88l-9.91.93c-26.38,2.82-51.83,5.32-58,4.46-4.49,1.31-9,2.38-13.56,3.26s-9.22,1.39-14,1.87c-9.57.95-19.68,1.41-30.88,1.83,2.81.38,5.12,2,4.31,3.54-.4.78-1.59,1.54-3.88,2.14a30.37,30.37,0,0,1-4.32.75,59.38,59.38,0,0,1-6.24.26c6.53-12.31-35.65-3.91-51.47-12.07,14.09,5.55-54.86,2.19-32.85,10.05-16.15-.75-1-4.5-13.3-7.16-4.78.65-9.7,1.11-14.72,1.42s-10.17.27-15.4.22c-10.47-.12-21.32-.68-32.44-1.34l-16.88-1c-5.69-.45-11.43-.89-17.22-1.27C514.72,67.48,503,67,491.1,67c-.8,1.56,7.07,4.21-3.2,6.27-4.13-1.39-8.24-3-12.36-4.47l-12.33-4.55c-9.37.34-9,8.72-25.88,2.43,2.35,1.44,5.85,3.62-.46,3.83l-17.39-2.16Q410.77,67.3,402,66.46t-17.58-1.55c-5.87-.48-11.76-.83-17.65-1.36-11.78-1-23.61-1.78-35.47-2.56l-8.9-.57c-3-.19-5.93-.46-8.9-.69L295.68,58.3c-47.51-3.88-95.19-9.63-140.76-23.59,12.2,4.77,3.73,4-5.93,2.64,6.16,1.68-.71,3.85.21,6.16L130.1,37.6l-9.53-3-9.49-3.06c-4,2.34-14.51.83-24.54-.91-5-.84-10-1.66-13.94-2s-7-.18-8.29,1c4.16.4,8.3.87,12.47,1.23C68,32.79,73.05,37.48,79.89,42.7s15.44,11,13.52,15c5-1.13,10.37-.5,16.22,1s12.14,3.8,18.84,6a137.86,137.86,0,0,0,21.21,5.65,64.86,64.86,0,0,0,23.22-.28c6.51,2.68-6.13,2-2.8,4.43a38.49,38.49,0,0,1,14.1-1.48A124.07,124.07,0,0,1,205,76.29l-2.08.66c48.93,5.18,69.47,11,124.39,18.45l-3.71-4.58c11.78,1.53,14.17,3.07,19.63,4.59C357.31,90.07,310,92.32,323,86.23c7.45,5,28.33,6.73,48.55,8.52,20.25,1.49,39.85,3.1,44.88,8.36,9.13.62,7.86-.7,6.6-2-.64-.66-1.27-1.32-.61-1.74s2.63-.57,7.19-.35l4.7,2.89,4.79-3.22c11.94,1.13,17.82,4.75,18.17,7-2.9-.41-8.3.24-11.43.29,7.7,1.93,18.69,2.18,28.4,2.11s18.16-.68,20.81-.07c-5.85-.73-11.69-1.37-17.52-2.24l19.21,0c6.55,0,13.22.13,20,.27,13.5.24,27.3.81,41.07.74s27.47,0,40.76-.36c3.32-.11,6.61-.17,9.87-.38s6.49-.44,9.68-.7c6.38-.52,12.61-1.15,18.62-1.91l-3.68-2c18.37-2.12,25.73-1.67,33.57-1,3.92.38,8,.69,13.53.73s12.7-.15,22.79-.95l-1.45.53a95.11,95.11,0,0,1,13.76-2.73c2.54-.33,5.17-.59,7.85-.78,1.35-.1,2.7-.17,4.07-.24s2.74-.16,4.13-.21c-10.09,2.94,19.43,3.45,6.17,6.83,19.88-3.15,24.76-4.22,27.92-5.63,1.59-.7,2.74-1.49,5.11-2.66s5.95-2.67,12.38-5.1l6.3,2.84c8.73-3.72,9.35-5.37,29.35-7.83-16.24,4.17,13.29,4-4.87,9.29a127,127,0,0,0,28.13-.49c8.14-1,15.19-2.52,21.52-3.87,12.65-2.8,22.42-5,32.73-.83,18.21-11.43-37-.84-26.42-4.07C860.2,83.37,884.71,76.59,898,76c6.71-.64,12.75,1.52,21.35,3.34s19.78,3.31,36.55.91c-3.35.41-3.48,1.14-6.82,1.55,12.87.64,24.24-6.52,40.1-4.79,7.86-6.69,20-2.36,21.53-9.76L980.18,73c8.58-2.1,16.68-5.76,26.29-8.88a105.9,105.9,0,0,1,35.35-5.35c-2.07,1.71-10.37,4.66-16.09,6.44,4.31.51,8.3-.34,12.33-1.19s8.1-1.71,12.57-1.08c-.42,1.86-2.94,3.07-6.77,4.13a130.57,130.57,0,0,1-14.61,2.63c-5.65.8-11.8,1.59-17.67,2.7a77.59,77.59,0,0,0-16,4.55c4.69.9,13.35-1.61,19.76-3.13s10.61-2.15,6.43,2.27c6.08-5.71,14.35-6.44,23.78-7s20-.66,30.89-5.62l-1.06,4.41c3.49-1.12,10.69-3.72,17.27-4.17l-11.35,6.52c8.86-3.12,17.75-2.83,26.52-2.27l6.56.43c2.18.13,4.35.33,6.52.39a54.52,54.52,0,0,0,13-.91c-9.12.55-14.21.53-17,.16s-3.17-1-2.94-1.92c.46-1.74,3.55-4.11-4.32-5A101,101,0,0,1,1123.85,59a59.73,59.73,0,0,1,9.78-.08,40.61,40.61,0,0,1,12.56,3.18c1.83.72,3.7,1.44,5.87,2.13a50,50,0,0,0,7.66,1.94c6,1.06,14.31,1.53,26.9.69-6.8.78-25.7-1.92-15.06-4.16,4.83.32,10.42.81,15.55,1.48a67.32,67.32,0,0,1,7.18,1.27,42.19,42.19,0,0,1,5.55,1.61c33.48-.66-5.14-4.43,9.14-7,5.71,2.64,9.82,2.14,14.38.78,2.28-.67,4.67-1.57,7.42-2.39a46.25,46.25,0,0,1,9.57-1.7l0,4.35c19.12,2.12,21.74,0,23.91-2.16a7.76,7.76,0,0,1,4.9-2.58c2.85-.46,7.59-.51,16.21,1l-7.48,2.52-7.46,2.72,4.52-.22c1.51-.09,3-.15,4.52-.16l9-.17-4,4.68c19.76-2.32,25.85-1,44.89,1.73-4.2-3.45,3.14-7.62,20.19-6.21,11.36,3.63-6.87,3.51,17.27,5.1-5.71,2.19-12,5.06-22.06.12-1.2,1.31-5.6,2.23-6.82,3.52,6.09,2,13.88,2.92,21.24,3.38s14.27.69,18.61,1.13c-3.32-.53-7.28-1.21-9.26-2.06,11.76-.68,23.58-1.44,35.42-2.06,5.27,2.35.77,3-3.67,3.8,7.07.42,12.18-.89,22.56.09-3.14,3.14-3,6.84-17.75,6.57l16.7.22c5.57.09,11.16.11,16.73.33,2,1.85,16.25,6.7,11.79,7.35a57,57,0,0,0,7.13,1.38c2.52.32,5.16.57,7.91.78,5.49.4,11.39.53,17.48.71s12.4.49,18.65,1.15A105,105,0,0,1,1520,97.23c1.39-.45,4-.64,9.32-.21,5.69,1.23,11.2,2.63,16.75,4s11,2.85,16.73,4.1,11.67,2.28,17.93,3c3.11.4,6.36.62,9.73.73s6.81.12,10.4,0c2.51,1.4,5,2.83,7.57,4.22l7.7,4c11.25.5,6-2.08,2.6-4.57s-4.81-4.89,13.65-4.08c26.26,0,9.33,6.11,18.43,8.56l5.43-.92c2-.31,4-.79,6.24-1.17,4.39-.81,9.25-1.57,14.42-2.06,2.59-.26,5.25-.41,8-.53s5.52-.26,8.37-.23a89.42,89.42,0,0,1,17.63,1.95C1702.9,115.28,1696.65,114.33,1689.2,114.78Zm267.93-34.44c-4.93,1.8-14.6,6.39-18.78,4.5C1943.31,78.94,1948.2,80.47,1957.13,80.34ZM2019.27,23c3.7-1.76,9.68-1.57,16.5-.51A65.3,65.3,0,0,1,2019.27,23ZM891.63,58.09a3.51,3.51,0,0,0,.55-.21C903.7,59.58,899.61,58.91,891.63,58.09Zm-23.92-1.88c-2.41.6-2.24,1.21-1.23,1.81,1.67-1.1,7-1.17,13.16-.86C877.94,56,874.85,55.24,867.71,56.21Zm79.36-10,4.76.49C941.59,49.35,944.35,47.83,947.07,46.2Z" transform="translate(-43.44)"/><path class="cls-1" d="M2064.52,13.07a4.09,4.09,0,0,1,2.41,2.16C2068.89,14.33,2068.86,13.48,2064.52,13.07Z" transform="translate(-43.44)"/><path class="cls-1" d="M1520.76,97.42c-.26-.08-.53-.11-.79-.19a2,2,0,0,0-.94.63Z" transform="translate(-43.44)"/><path class="cls-1" d="M1238.27,19.4c4.92.62,7.67,1.41,9.49,2.24C1248,20.57,1245.79,19.68,1238.27,19.4Z" transform="translate(-43.44)"/><path class="cls-1" d="M740.94,63.59l15.32-1.13c-7.41.21-10.06-.74-13.8-1.43C742.8,62.05,745.73,63.52,740.94,63.59Z" transform="translate(-43.44)"/><path class="cls-1" d="M607.93,36.72c-2.23.53-4.74.06-6.95.6l.61,2C611.13,39.2,617.8,37.58,607.93,36.72Z" transform="translate(-43.44)"/><path class="cls-1" d="M726.75,49.16c-1.21-3.65-10.83-2.41-21.56-1.74.65,0,1.26,0,1.9,0C703.93,52.54,715.36,50.84,726.75,49.16Z" transform="translate(-43.44)"/><path class="cls-1" d="M702.7,47.55a96.73,96.73,0,0,1-9.92.09C691.52,49.69,696.8,48.07,702.7,47.55Z" transform="translate(-43.44)"/><path class="cls-1" d="M837.36,58.63c-5.09-.94-3.19,4.67-6.07,3.18C825.61,66.46,865.22,56.19,837.36,58.63Z" transform="translate(-43.44)"/><polygon class="cls-1" points="674.62 37.13 678.47 41.64 684.48 38 674.62 37.13"/><path class="cls-1" d="M802.81,40.44l-17.15-1.25c.26.75-1.92,1.2-4.59,1.54C791.63,40.88,803.22,41.77,802.81,40.44Z" transform="translate(-43.44)"/><path class="cls-1" d="M781.07,40.73c-5.51-.09-10.74,0-13.81.74C770.24,41.43,776.65,41.28,781.07,40.73Z" transform="translate(-43.44)"/><polygon class="cls-1" points="698.06 35.77 703.13 36.71 715.24 37.05 698.06 35.77"/><path class="cls-1" d="M987.18,41.31,1005.9,40c1.91-1.54-3.19-2.49-10.16-1.87C991.26,39.22,984.31,39.81,987.18,41.31Z" transform="translate(-43.44)"/><path class="cls-1" d="M930.58,29c5.06.93,5.4,1.94,8.25,3.43l.57-5.59Z" transform="translate(-43.44)"/><path class="cls-1" d="M985.16,27.65c1.87-1.55,27.17-4.45,3.44-4.1C986.7,25.09,968,26.38,985.16,27.65Z" transform="translate(-43.44)"/><polygon class="cls-1" points="1223.76 34.72 1219 34.8 1219.69 43.96 1223.76 34.72"/><path class="cls-1" d="M1515.79,12.8c-22.18-2.2-5.26,5.65-25.31,2.91-5.2,2.17,16.39,2.24,11,4.11C1514.91,17.53,1521.94,18.82,1515.79,12.8Z" transform="translate(-43.44)"/><path class="cls-1" d="M1501.53,19.82c-2.15.36-4.42.8-6.84,1.39A41.13,41.13,0,0,0,1501.53,19.82Z" transform="translate(-43.44)"/><path class="cls-1" d="M85.88,22.58c-4.52-1.46-9.07-2.84-13.54-4.34,2.78,1.57,5.59,3.1,8.4,4.63Z" transform="translate(-43.44)"/><path class="cls-1" d="M58,24.44l-2.13-6.37-9.2,3.57C49.69,22,55.91,22.68,58,24.44Z" transform="translate(-43.44)"/><path class="cls-1" d="M1998.3,84.93l.82-1.58c-2.45-1.1-5.76-.61-12.4.35Z" transform="translate(-43.44)"/><polygon class="cls-1" points="1762.27 112.76 1765.63 112.4 1758.63 108.05 1762.27 112.76"/><path class="cls-1" d="M1637.09,123.59c3.46.37,7.25.41,11,.45,1.9,0,3.79,0,5.65.1s3.67.18,5.4.28a33,33,0,0,1-5.36-.29c-1.67-.2-3.24-.48-4.68-.79-2.89-.62-5.3-1.36-7.2-1.88C1638.15,120.42,1636.43,120.23,1637.09,123.59Z" transform="translate(-43.44)"/></g></g></svg>