<svg xmlns="http://www.w3.org/2000/svg" viewBox="0 0 297 249.67"><defs><style>.cls-1{fill:#53e093;}</style></defs><title>Ayuthaya</title><g id="Laag_2" data-name="Laag 2"><g id="Laag_1-2" data-name="Laag 1"><path class="cls-1" d="M129.67,0V42.67Q105,49.33,92.17,61.33t-20.5,30.5Q64,110.34,64,137q32,0,47,18t15,38.33q0,23.67-16.83,40T70.33,249.67q-28.66,0-49.5-24.84T0,157A159,159,0,0,1,16.33,85.83a171.72,171.72,0,0,1,44.5-56.66Q89,5.66,129.67,0ZM297,0V42.67q-24.67,6.66-37.5,18.66T239,91.83q-7.68,18.51-7.67,45.17,31.33,0,46.5,18T293,193.33q0,23.67-16.67,40t-39,16.34q-29,0-49.66-24.84T167,157a159,159,0,0,1,16.33-71.17A170.8,170.8,0,0,1,228,29.17Q256.32,5.66,297,0Z"/></g></g></svg>