<svg xmlns="http://www.w3.org/2000/svg" viewBox="0 0 664.79 664.79"><defs><style>.cls-1{fill:#fff;stroke:#2ecc71;stroke-miterlimit:10;stroke-width:40px;}.cls-2{fill:#2ecc71;}</style></defs><title>Asset 12</title><g id="Layer_2" data-name="Layer 2"><g id="Murica"><circle class="cls-1" cx="332.4" cy="332.4" r="312.4"/><path class="cls-2" d="M332.28,84.4c-137,0-248,111-248,248s111,248,248,248,248-111,248-248S469.25,84.4,332.28,84.4ZM414.57,442c-3.9,3.88-8,7.95-11.31,11.28A23.9,23.9,0,0,0,397.09,464c-1.51,5.66-2.73,11.38-4.77,16.87l-17.39,46.85a199.85,199.85,0,0,1-42.65,4.69V505c1.69-12.62-7.64-36.26-22.63-51.25a32,32,0,0,1-9.37-22.63v-32a31.89,31.89,0,0,0-16.46-28c-14.37-8-34.81-19.06-48.81-26.11a144.16,144.16,0,0,1-31.65-21.75l-.8-.72a115.13,115.13,0,0,1-18.06-20.74c-9.38-13.77-24.66-36.42-34.59-51.14a201.09,201.09,0,0,1,103.2-101.89l24,12a16,16,0,0,0,23.16-14.31v-11.3a199.85,199.85,0,0,1,24.39-2.42l28.3,28.3a16,16,0,0,1,0,22.63l-4.69,4.68-10.34,10.34a8,8,0,0,0,0,11.31l4.69,4.69a8,8,0,0,1,0,11.31l-8,8a8.05,8.05,0,0,1-5.66,2.34h-9a8,8,0,0,0-5.58,2.27l-9.92,9.65a8,8,0,0,0-1.58,9.31l15.59,31.19a8,8,0,0,1-7.15,11.58H305.7a8,8,0,0,1-5.24-2l-9.28-8.06a16,16,0,0,0-15.55-3.1l-31.17,10.39a12,12,0,0,0-1.56,22L254,325.23a67.72,67.72,0,0,0,30.31,7.16c10.52,0,22.59,27.29,32,32H383a32,32,0,0,1,22.63,9.37l13.69,13.69A30.5,30.5,0,0,1,428.29,409,46.53,46.53,0,0,1,414.57,442Zm86.71-91.35a24,24,0,0,1-14.15-10l-18-27a24,24,0,0,1,0-26.62l19.59-29.38a24,24,0,0,1,9.24-8.15l13-6.49a193.74,193.74,0,0,1,19.5,114.87Z"/></g></g></svg>