<svg xmlns="http://www.w3.org/2000/svg" viewBox="0 0 664.79 664.79"><defs><style>.cls-1{fill:#fff;stroke:#2ecc71;stroke-miterlimit:10;stroke-width:40px;}.cls-2{fill:#2ecc71;}</style></defs><title>Asset 9</title><g id="Layer_2" data-name="Layer 2"><g id="Africa"><circle class="cls-1" cx="332.4" cy="332.4" r="312.4"/><path class="cls-2" d="M332,84.4c-137,0-248,111-248,248s111,248,248,248,248-111,248-248S469,84.4,332,84.4ZM492,299.9v6.93a15.49,15.49,0,0,1-8.57,13.86l-15.39,7.7a15.51,15.51,0,0,1-15.53-1l-18.21-12.14a15.49,15.49,0,0,0-13.5-1.81l-2.65.88a15.49,15.49,0,0,0-8,23.3l13.24,19.86a15.49,15.49,0,0,0,12.89,6.9h8.21a15.5,15.5,0,0,1,15.5,15.5v11.34a15.52,15.52,0,0,1-3.1,9.3l-18.74,25a15.57,15.57,0,0,0-2.83,6.43L431,454.79a15.53,15.53,0,0,1-4.76,8.56,158.94,158.94,0,0,0-25,29.16l-13,19.55a27.75,27.75,0,0,1-47.91-3A78.9,78.9,0,0,1,332,473.79V443.9a15.5,15.5,0,0,0-15.5-15.5H290.63A54.63,54.63,0,0,1,236,373.77V359.71A54.65,54.65,0,0,1,257.85,316l27.58-20.69a54.6,54.6,0,0,1,32.78-10.93h.89a54.52,54.52,0,0,1,24.43,5.77l14.72,7.36a15.49,15.49,0,0,0,11.83.84l47.31-15.77a15.5,15.5,0,0,0-4.9-30.2H402.4a15.49,15.49,0,0,1-11-4.54l-6.92-6.92a15.45,15.45,0,0,0-11-4.54H283.51a15.5,15.5,0,0,1-15.5-15.5v-4.4a15.51,15.51,0,0,1,11.74-15l14.45-3.61a15.53,15.53,0,0,0,9.14-6.44l8.08-12.11a15.49,15.49,0,0,1,12.89-6.9h24.21a15.5,15.5,0,0,0,15.5-15.5v-21.7A200.28,200.28,0,0,1,525.94,284.4H507.51A15.5,15.5,0,0,0,492,299.9Z"/></g></g></svg>