<svg xmlns="http://www.w3.org/2000/svg" viewBox="0 0 664.79 664.79"><defs><style>.cls-1{fill:#fff;stroke:#2ecc71;stroke-miterlimit:10;stroke-width:40px;}.cls-2{fill:#2ecc71;}</style></defs><title>Asset 10</title><g id="Layer_2" data-name="Layer 2"><g id="Europe"><circle class="cls-1" cx="332.4" cy="332.4" r="312.4"/><path class="cls-2" d="M332.51,84.4c-137,0-248,111-248,248s111,248,248,248,248-111,248-248S469.51,84.4,332.51,84.4Zm200,248a199.12,199.12,0,0,1-10.8,64.4h-20.3A15.8,15.8,0,0,1,490,392l-32-32.6a11.92,11.92,0,0,1,.1-16.7l12.5-12.5v-8.7a11.36,11.36,0,0,0-3.3-8l-9.4-9.4a11.36,11.36,0,0,0-8-3.3h-16a11.31,11.31,0,0,1-8-19.3l9.4-9.4a11.36,11.36,0,0,1,8-3.3h32a11.35,11.35,0,0,0,11.3-11.3v-9.4a11.35,11.35,0,0,0-11.3-11.3h-36.7a16,16,0,0,0-16,16v4.5a16,16,0,0,1-10.9,15.2L380.11,283a8,8,0,0,0-5.5,7.6v2.2a8,8,0,0,1-8,8h-16a8,8,0,0,1-8-8,8,8,0,0,0-8-8h-3.1a8.15,8.15,0,0,0-7.2,4.4l-9.4,18.7a15.92,15.92,0,0,1-14.3,8.8h-22.1a16,16,0,0,1-16-16V275.4a16.06,16.06,0,0,1,4.7-11.3l20.1-20.1a24.74,24.74,0,0,0,7.2-17.5,8,8,0,0,1,5.5-7.6l40-13.3a11.64,11.64,0,0,0,4.4-2.7l26.8-26.8a11.31,11.31,0,0,0-8-19.3h-20.7l-16,16v8a8,8,0,0,1-8,8h-16a8,8,0,0,1-8-8v-20a8.05,8.05,0,0,1,3.2-6.4l28.9-21.7c1.9-.1,3.8-.3,5.7-.3C442.81,132.4,532.51,222.1,532.51,332.4ZM214.61,225.5a11.36,11.36,0,0,1,3.3-8l25.4-25.4a11.31,11.31,0,0,1,19.3,8v16a11.36,11.36,0,0,1-3.3,8l-9.4,9.4a11.36,11.36,0,0,1-8,3.3h-16A11.35,11.35,0,0,1,214.61,225.5Zm128,306.4v-7.1a16,16,0,0,0-16-16h-20.2c-10.8,0-26.7-5.3-35.4-11.8l-22.2-16.7a45.42,45.42,0,0,1-18.2-36.4V420a45.44,45.44,0,0,1,22.1-39l42.9-25.7a46.1,46.1,0,0,1,23.4-6.5h31.2a45.62,45.62,0,0,1,29.6,10.9L423,396.8h18.3a31.94,31.94,0,0,1,22.6,9.4l17.3,17.3a18.32,18.32,0,0,0,12.9,5.3h13.4a199.64,199.64,0,0,1-164.9,103.1Z"/></g></g></svg>