<svg xmlns="http://www.w3.org/2000/svg" viewBox="0 0 664.79 664.79"><defs><style>.cls-1{fill:#fff;stroke:#2ecc71;stroke-miterlimit:10;stroke-width:40px;}.cls-2{fill:#2ecc71;}</style></defs><title>Asset 11</title><g id="Layer_2" data-name="Layer 2"><g id="Asia"><circle class="cls-1" cx="332.4" cy="332.4" r="312.4"/><path class="cls-2" d="M329,84.59c-137,0-248,111-248,248s111,248,248,248,248-111,248-248S466,84.59,329,84.59ZM317.69,324.82A16,16,0,0,1,304,332.59h-.31a16,16,0,0,0-11.31,4.69l-5.66,5.66a8,8,0,0,0,0,11.31l5.66,5.66A16,16,0,0,1,297,371.22v9.37a16,16,0,0,1-16,16h-6.11a16,16,0,0,1-14.31-8.85L238,342.51a8,8,0,0,0-12.81-2.08l-19.47,19.46a16,16,0,0,1-11.31,4.69H131.84a199.53,199.53,0,0,1-2.81-32c0-110.28,89.72-200,200-200a199.14,199.14,0,0,1,61.63,9.82L340.5,180.94a8,8,0,0,0,.86,13.81l10.83,5.41A16,16,0,0,1,361,214.47v78.12a8,8,0,0,1-8,8H350a8,8,0,0,1-7.15-4.42,4.43,4.43,0,0,0-7.76-.3l-17.37,28.95ZM489,435a16,16,0,0,1-4.69,11.31l-9.57,9.57a16,16,0,0,1-11.31,4.69H448.3A16,16,0,0,1,437,455.9l-13-13a26.77,26.77,0,0,0-25.42-7l-21.27,5.32a15.86,15.86,0,0,1-3.88.48H363.07A16,16,0,0,1,351.76,437l-11.91-11.91a8,8,0,0,1-2.34-5.66v-10.2a8,8,0,0,1,5-7.43L381.88,386a26.81,26.81,0,0,0,5.59-3l23.71-16.89a8,8,0,0,1,4.64-1.48h12.09a8,8,0,0,1,7.39,4.93l5.35,12.85a4,4,0,0,0,3.69,2.46h3.8A4,4,0,0,0,452,382l4.2-14.47a4,4,0,0,1,3.84-2.88h6.06a4,4,0,0,1,4,4v12.93a8,8,0,0,0,2.34,5.66l11.91,11.91A16,16,0,0,1,489,410.42V435Z"/></g></g></svg>