<svg xmlns="http://www.w3.org/2000/svg" viewBox="0 0 144.78 144.78"><defs><style>.cls-1{fill:#47b066;}.cls-2{fill:#fff;}</style></defs><title>book</title><g id="Laag_2" data-name="Laag 2"><g id="Laag_1-2" data-name="Laag 1"><circle class="cls-1" cx="72.39" cy="72.39" r="72.39"/><path class="cls-2" d="M57.76,39.7H97.42s5.36.43,3.86,6.64-14.37,44-14.37,44-.16,3.65-7.26,3.65H48.33S43,93.29,43,95.87s1.71,3,3.43,3H90.34S98.71,75.5,100,70.78s3.86-15.22,3.86-15.22,3-1.93,3.65.22.21,2.57-1.08,8.14-10.72,35-10.72,35-1.93,6.22-7.93,6.22H47.68s-7.72-.65-8.57-8.79,3.21-16.73,3.21-16.73Z"/><rect class="cls-1" x="62.69" y="50.63" width="28.51" height="4.93" rx="2.47"/><rect class="cls-1" x="59.26" y="61.99" width="28.51" height="4.29" rx="2.14"/></g></g></svg>