<svg viewBox="0 0 1142.23 781.11" xmlns="http://www.w3.org/2000/svg"><g fill="#fff"><path d="m1141 327.75c-7 28.15-42.63 42.26-62.62 63.26-37.67 39.58-23 97.38.9 143.67 8 15.5 17.08 31.91 13.69 48.53-4.13 20.33-26.08 35.19-49.13 43.07-42 14.35-92.3 10.93-130.91-8.92-33.36-17.15-57.26-45-91.19-61.42-56.79-27.39-129.07-17-190.74 1.83-43.62 13.35-91.32 30.72-134.67 16.78-30.5-9.82-51.59-33.72-63.08-59-5.54-12.23-9.57-25.47-20.16-35.16-6.3-5.77-14.52-9.86-22.93-13.3-76.88-31.5-174-14.63-248.63-49.57-50.42-23.59-82.71-68.09-97-114.5s-12.63-95.07-9-142.87c2.58-34 7.21-70.22 33.47-96.44 27.78-27.73 75.45-38 118.55-32.77s82.14 24.06 116.51 46.18c43 27.66 82.78 62.09 135.51 73.29 35.91 7.63 73.68 3.45 110.72 2 61.92-2.41 123.86 3 185.43 8.84 30 2.87 60.1 5.88 89.84 10.24q10 1.45 20 3.15c3.34.57 6.68 1.16 10 1.77 2.6.47 5.19 1 7.78 1.47q6.13 1.19 12.22 2.5 17.49 3.75 34.64 8.55c39.74 11.21 71.6 31.57 109.13 45.79 24.46 9.27 51.13 11.83 74.29 23.63 28.5 14.49 54.68 39.8 47.38 69.4z" opacity=".1"/><circle cx="939.95" cy="375.52" r="102.23" transform="matrix(.70710678 -.70710678 .70710678 .70710678 9.77 774.63)"/><circle cx="831.23" cy="347.59" r="102.23"/><circle cx="711.55" cy="348.59" r="102.23"/><circle cx="672.65" cy="375.52" r="102.23"/><circle cx="606.82" cy="384.5" r="102.23"/><circle cx="579.89" cy="303.71" r="102.23"/><circle cx="609.81" cy="209.95" r="102.23"/><circle cx="666.66" cy="209.95" r="102.23"/><circle cx="699.58" cy="168.06" r="102.23"/><circle cx="783.36" cy="213.94" r="102.23"/><circle cx="978.85" cy="303.71" r="102.23"/><circle cx="920" cy="252.84" r="102.23"/><circle cx="882.1" cy="201.97" r="102.23"/><circle cx="810.29" cy="125.17" r="102.23"/><circle cx="943.94" cy="209.95" r="102.23" transform="matrix(.70710678 -.70710678 .70710678 .70710678 128.02 728.96)"/></g><g opacity=".1"><circle cx="939.95" cy="375.52" r="102.23" transform="matrix(.70710678 -.70710678 .70710678 .70710678 9.77 774.63)"/><circle cx="831.23" cy="347.59" r="102.23"/><circle cx="711.55" cy="348.59" r="102.23"/><circle cx="672.65" cy="375.52" r="102.23"/><circle cx="606.82" cy="384.5" r="102.23"/><circle cx="579.89" cy="303.71" r="102.23"/><circle cx="609.81" cy="209.95" r="102.23"/><circle cx="666.66" cy="209.95" r="102.23"/><circle cx="699.58" cy="168.06" r="102.23"/><circle cx="783.36" cy="213.94" r="102.23"/><circle cx="978.85" cy="303.71" r="102.23"/><circle cx="920" cy="252.84" r="102.23"/><circle cx="882.1" cy="201.97" r="102.23"/><circle cx="810.29" cy="125.17" r="102.23"/><circle cx="943.94" cy="209.95" r="102.23" transform="matrix(.70710678 -.70710678 .70710678 .70710678 128.02 728.96)"/></g><path d="m889.46 554.67s62.54-52.53 31.54-127.33l-30.92-11.58-33.51 103.29z" fill="#67647e"/><path d="m892.79 412.2 7.4 2.77-32.94 101.41 28.75 31.12c-2.38 2.37-3.86 3.61-3.86 3.61l-32.9-35.62z" opacity=".1"/><ellipse cx="579.5" cy="687.94" fill="#fff" opacity=".1" rx="556.5" ry="93.16"/><path d="m1007.84 543.65s-20.33 20.35-8.84 50.5-19.67 80.33-19.67 80.33l1-.16c41.75-7.37 62.5-55.12 39.28-90.6-8.69-13.17-15.78-28.65-11.77-40.07z" fill="#fff"/><path d="m1007.84 543.65s-11.48 24.92 0 45.25 2 77.38-28.53 85.58" fill="none" stroke="#535461" stroke-miterlimit="10"/><path d="m1044.05 625.88s-23.2-3.69-25.31 17.1-44.62 23.67-44.62 23.67l.8.53c35.09 23 68.63 14.67 63.57-15.91-1.87-11.37-1.72-22.79 5.56-25.39z" fill="#fff"/><path d="m1044.05 625.88s-23.2-3.69-25.31 17.1-44.62 23.67-44.62 23.67l.8.53c35.09 23 68.63 14.67 63.57-15.91-1.87-11.37-1.72-22.79 5.56-25.39z" fill="#f5f5f5" opacity=".2"/><path d="m1044.05 625.88s-18 4-16.53 20.33-26.74 36-53.39 20.44" fill="none" stroke="#535461" stroke-miterlimit="10"/><path d="m607.2 445.26 8.12 32.5s57.37 7.48 95.62 2.78a49.74 49.74 0 0 0 19.06-6.88c3.23-1.91 8.33-2.74 15.3 2.48 11.94 9 70.54 81 61.05 155.7a25.81 25.81 0 0 1 -22.17 22.24 77.8 77.8 0 0 0 -32.67 12.36l-29 19.31 297.35-6.5-30.86-37.37s-21.12-17.87-37.37-19.5c-4.74-.47-8.65-4.82-11.81-10.73-18.51-34.65-40.65-67.23-64.65-98.34-17.48-22.66-32.15-46.54-30.78-61.54 3.25-35.75 0-94.24 0-94.24l-61.74-8.12s8.12 78-66.62 97.49-108.83-1.64-108.83-1.64z" fill="#67647e"/><g opacity=".1"><path d="m657.57 459.89s34.12 21.12 108.87 1.62 66.62-97.51 66.62-97.51l11.75 1.53c-.22-5-.39-8-.39-8l-61.74-8.12s8.12 78-66.62 97.49-108.87-1.62-108.87-1.62l8.12 32.5s21.92 2.86 47.7 3.93z"/><path d="m801.89 681.06a77.8 77.8 0 0 1 32.67-12.36 25.78 25.78 0 0 0 22.16-22.15c9.54-74.7-49.09-146.83-61-155.79-13-9.75-19.5 1.62-19.5 1.62a104.11 104.11 0 0 1 -14 2.67c21.06 28 51.19 81.71 44.14 136.87a25.78 25.78 0 0 1 -22.16 22.15 77.8 77.8 0 0 0 -32.67 12.36l-29 19.31 74.76-1.63z"/></g><path d="m657 602.91s-6.21-21.08 1.16-36.6a33.3 33.3 0 0 0 2.69-20.89 56.12 56.12 0 0 0 -3-9.81" fill="none" stroke="#535461" stroke-miterlimit="10" stroke-width="2"/><path d="m662.45 525.8c0 2.58-4.68 10.08-4.68 10.08s-4.65-7.5-4.65-10.08a4.68 4.68 0 0 1 9.36 0z" fill="#fff"/><path d="m670.19 540.11c-1.4 2.17-9.4 5.92-9.4 5.92s.15-8.83 1.55-11a4.68 4.68 0 0 1 8 4.85l-.15.24z" fill="#fff"/><path d="m669.85 564.55c-2.31 1.16-11.1.36-11.1.36s4.58-7.55 6.89-8.71a4.68 4.68 0 1 1 4.21 8.36z" fill="#fff"/><path d="m665.43 583c-2.08 1.54-10.88 2.23-10.88 2.23s3.24-8.22 5.32-9.75a4.68 4.68 0 0 1 5.56 7.52z" fill="#fff"/><path d="m651 546.55c1.85 1.8 10.49 3.67 10.49 3.67s-2.11-8.58-4-10.38a4.68 4.68 0 0 0 -6.52 6.71z" fill="#fff"/><path d="m646.06 568.17c2.31 1.16 11.1.36 11.1.36s-4.58-7.55-6.89-8.71a4.68 4.68 0 1 0 -4.21 8.36z" fill="#fff"/><path d="m644.18 589.86c2.08 1.54 10.88 2.23 10.88 2.23s-3.24-8.22-5.32-9.75a4.68 4.68 0 0 0 -5.56 7.52z" fill="#fff"/><path d="m643.45 600.85s11.35-2.27 14.37-5.3 16.64-8.32 18.18-4.55 20.43 16.64 7.56 18.91-30.26 3-34 1.51-6.11-10.57-6.11-10.57z" fill="#a8a8a8"/><path d="m683.55 608.55c-12.86 2.27-30.26 3-34 1.51-2.88-1.15-4.88-6.69-5.67-9.26l-.38.08s2.27 9.08 6 10.59 21.18.76 34-1.51c3.71-.66 4.77-2.19 4.37-4.14-.27 1.24-1.56 2.18-4.32 2.73z" opacity=".2"/><path d="m831.62 672s34.43-6.89 43.62-16.07 50.5-25.25 55.09-13.77 62 50.5 23 57.39-91.82 9.18-103.3 4.59-18.41-32.14-18.41-32.14z" fill="#a8a8a8"/><path d="m953.29 695.29c-39 6.89-91.82 9.18-103.3 4.59-8.74-3.5-14.82-20.3-17.22-28.11l-1.15.24s6.89 27.55 18.36 32.14 64.28 2.3 103.3-4.59c11.27-2 14.49-6.66 13.27-12.56-.95 3.85-4.88 6.82-13.26 8.29z" opacity=".2"/><path d="m1064.66 476.35a21.81 21.81 0 0 1 -3.71 11.51 21.86 21.86 0 0 1 -3.77-11.49c0-6.35 1.64-11.5 3.71-11.51s3.75 5.14 3.77 11.49z" fill="#fff"/><path d="m782.37 470.77a21.78 21.78 0 0 1 -3.74 11.5 21.78 21.78 0 0 1 -3.74-11.5c0-6.35 1.67-11.5 3.74-11.5s3.74 5.15 3.74 11.5z" fill="#fff"/><path d="m1090 584.09a21.78 21.78 0 0 1 3.74 11.5 21.84 21.84 0 0 1 -9.79-7.1c-3.74-5.14-5.41-10.29-3.74-11.5s6.09 2.01 9.79 7.1z" fill="#fff"/><path d="m970.57 523.88a21.78 21.78 0 0 1 -3.74 11.5 21.78 21.78 0 0 1 -3.74-11.5c0-6.35 1.67-11.5 3.74-11.5s3.74 5.17 3.74 11.5z" fill="#fff"/><path d="m900.69 485.68a21.78 21.78 0 0 1 -3.74 11.5 21.78 21.78 0 0 1 -3.74-11.5c0-6.35 1.67-11.5 3.74-11.5s3.74 5.15 3.74 11.5z" fill="#fff"/><path d="m857.34 509a21.84 21.84 0 0 1 2.47 11.84 21.78 21.78 0 0 1 -9-8.12c-3.16-5.51-4.26-10.81-2.47-11.84s5.85 2.58 9 8.12z" fill="#fff"/><path d="m825 614.61a21.85 21.85 0 0 1 -11 5.14 21.85 21.85 0 0 1 5.83-10.59c4.63-4.34 9.54-6.64 10.95-5.14s-1.2 6.25-5.78 10.59z" fill="#fff"/><path d="m825 614.61a21.85 21.85 0 0 1 -11 5.14 21.85 21.85 0 0 1 5.83-10.59c4.63-4.34 9.54-6.64 10.95-5.14s-1.2 6.25-5.78 10.59z" opacity=".1"/><path d="m893 608.09a21.85 21.85 0 0 1 -11 5.14 21.85 21.85 0 0 1 5.83-10.59c4.63-4.34 9.54-6.64 10.95-5.14s-1.19 6.24-5.78 10.59z" fill="#fff"/><path d="m893 608.09a21.85 21.85 0 0 1 -11 5.14 21.85 21.85 0 0 1 5.83-10.59c4.63-4.34 9.54-6.64 10.95-5.14s-1.19 6.24-5.78 10.59z" opacity=".1"/><path d="m906 677a21.85 21.85 0 0 1 -11 5.14 21.8 21.8 0 0 1 5.84-10.62c4.63-4.34 9.54-6.64 11-5.14s-1.2 6.3-5.84 10.62z" fill="#fff"/><path d="m906 677a21.85 21.85 0 0 1 -11 5.14 21.8 21.8 0 0 1 5.84-10.62c4.63-4.34 9.54-6.64 11-5.14s-1.2 6.3-5.84 10.62z" opacity=".1"/><path d="m90.47 566.82c15.33 22.63 10.44 103.65 10.44 103.65s-77.05-25.47-92.38-48.13a49.49 49.49 0 1 1 82-55.51z" fill="#fff"/><path d="m90.47 566.82c15.33 22.63 10.44 103.65 10.44 103.65s-77.05-25.47-92.38-48.13a49.49 49.49 0 1 1 82-55.51z" opacity=".1"/><path d="m22 553.66s57.74 44.58 79.17 116.89" fill="none" stroke="#535461" stroke-miterlimit="10"/><path d="m115.75 609.12s-41-7-13 60.91c0 0 28.49-10.86 30.71-37.88a21.56 21.56 0 0 0 -17.15-22.92z" fill="#fff"/><path d="m116.35 609.05s7.81 37.56-13.56 61" fill="none" stroke="#535461" stroke-miterlimit="10"/><path d="m1008.63 672.14s17.11-3.4 21.67-7.93 25.1-12.46 27.38-6.8 30.8 24.92 11.41 28.31-45.63 4.53-51.33 2.27-9.13-15.85-9.13-15.85z" fill="#a8a8a8"/><path d="m1069.12 683.63c-19.39 3.4-45.63 4.53-51.33 2.27-4.34-1.73-7.36-10-8.56-13.87l-.57.12s3.42 13.59 9.13 15.86 31.94 1.13 51.33-2.27c5.6-1 7.2-3.28 6.6-6.2-.51 1.89-2.46 3.36-6.6 4.09z" opacity=".2"/><circle cx="939.95" cy="352.58" fill="#fff" r="102.23" transform="matrix(.70710678 -.70710678 .70710678 .70710678 25.99 767.91)"/><circle cx="831.23" cy="324.65" fill="#fff" r="102.23"/><circle cx="711.55" cy="325.65" fill="#fff" r="102.23"/><circle cx="672.65" cy="352.58" fill="#fff" r="102.23"/><circle cx="606.82" cy="361.56" fill="#fff" r="102.23"/><circle cx="579.89" cy="280.77" fill="#fff" r="102.23"/><circle cx="609.81" cy="187.01" fill="#fff" r="102.23"/><circle cx="666.66" cy="187.01" fill="#fff" r="102.23"/><circle cx="699.58" cy="145.12" fill="#fff" r="102.23"/><circle cx="783.36" cy="191" fill="#fff" r="102.23"/><circle cx="978.85" cy="280.77" fill="#fff" r="102.23"/><circle cx="920" cy="229.9" fill="#fff" r="102.23"/><circle cx="882.1" cy="179.03" fill="#fff" r="102.23"/><circle cx="810.29" cy="102.23" fill="#fff" r="102.23"/><circle cx="943.94" cy="187.01" fill="#fff" r="102.23" transform="matrix(.70710678 -.70710678 .70710678 .70710678 144.24 722.24)"/><path d="m1041.73 203s-95.21-45.15-152.82 34.87" opacity=".1"/><path d="m791.65 111.55s-105.32-3.18-126 93.22" opacity=".1"/><path d="m660.73 320.71s-95.21-45.16-152.82 34.84" opacity=".1"/><path d="m244 575.55s5.49 7.18-2.54 18-14.65 20-12 26.76c0 0 12.11-20.14 22-20.42s3.42-12.23-7.46-24.34z" fill="#fff"/><path d="m244 575.55a8.93 8.93 0 0 1 1.12 2.25c9.62 11.3 14.75 21.85 5.5 22.12-8.61.25-18.95 15.65-21.42 19.54a9.24 9.24 0 0 0 .29.89s12.11-20.14 22-20.42 3.39-12.27-7.49-24.38z" opacity=".1"/><path d="m254.25 584.71c0 2.53-.28 4.58-.63 4.58s-.63-2-.63-4.58.35-1.34.7-1.34.56-1.19.56 1.34z" fill="#ffd037"/><path d="m257.75 587.72c-2.22 1.21-4.16 1.94-4.32 1.63s1.5-1.54 3.72-2.75 1.34-.33 1.51 0 1.34-.05-.91 1.12z" fill="#ffd037"/><path d="m215 575.55s-5.49 7.18 2.54 18 14.65 20 12 26.76c0 0-12.11-20.14-22-20.42s-3.37-12.23 7.46-24.34z" fill="#fff"/><path d="m215 575.55a8.93 8.93 0 0 0 -1.12 2.25c-9.62 11.3-14.75 21.85-5.5 22.12 8.61.25 18.95 15.65 21.42 19.54a9.24 9.24 0 0 1 -.29.89s-12.11-20.14-22-20.42-3.34-12.27 7.49-24.38z" opacity=".1"/><path d="m204.81 584.71c0 2.53.28 4.58.63 4.58s.63-2 .63-4.58-.35-1.34-.7-1.34-.56-1.19-.56 1.34z" fill="#ffd037"/><path d="m201.3 587.72c2.22 1.21 4.16 1.94 4.32 1.63s-1.5-1.54-3.72-2.75-1.34-.33-1.51 0-1.27-.05.91 1.12z" fill="#ffd037"/><path d="m206.56 619.4s15.36-.47 20-3.77 23.63-7.23 24.77-2 23.08 26.29 5.74 26.43-40.29-2.7-44.91-5.52-5.6-15.14-5.6-15.14z" fill="#a8a8a8"/><path d="m257.37 638.28c-17.34.14-40.29-2.7-44.91-5.52-3.52-2.14-4.92-9.83-5.39-13.38h-.51s1 12.39 5.59 15.2 27.57 5.66 44.91 5.52c5 0 6.73-1.82 6.64-4.46-.7 1.61-2.58 2.61-6.33 2.64z" opacity=".2"/><path d="m119.56 718.29a11.66 11.66 0 0 0 3.83-5.78c.5-2.3-.48-5-2.68-5.89-2.46-.94-5.09.76-7.08 2.49s-4.28 3.69-6.89 3.32a10.47 10.47 0 0 0 3.24-9.81 4 4 0 0 0 -.9-2c-1.37-1.46-3.84-.83-5.48.32-5.2 3.66-6.6 10.72-6.68 17.06-.52-2.29-.08-4.68-.1-7s-.66-5-2.64-6.22a8 8 0 0 0 -4-.95c-2.34-.09-4.94.15-6.54 1.86-2 2.12-1.47 5.69.26 8s4.35 3.8 6.77 5.42a15 15 0 0 1 4.84 4.61 4.26 4.26 0 0 1 .36.82h14.65a40.82 40.82 0 0 0 9.04-6.25z" fill="#fff"/><path d="m1029.56 732.29a11.66 11.66 0 0 0 3.83-5.78c.5-2.3-.48-5-2.68-5.89-2.46-.94-5.09.76-7.08 2.49s-4.28 3.69-6.89 3.32a10.47 10.47 0 0 0 3.24-9.81 4 4 0 0 0 -.9-2c-1.37-1.46-3.84-.83-5.48.32-5.2 3.66-6.65 10.72-6.68 17.08-.52-2.29-.08-4.68-.1-7s-.66-5-2.64-6.22a8 8 0 0 0 -4-.95c-2.34-.09-4.94.15-6.54 1.86-2 2.12-1.47 5.69.26 8s4.35 3.8 6.77 5.42a15 15 0 0 1 4.84 4.61 4.26 4.26 0 0 1 .36.82h14.65a40.82 40.82 0 0 0 9.04-6.27z" fill="#fff"/><path d="m688.69 726.87s-1 15.66 1 18.26c0 0-45.92 8.35-51.66 5.74s-3.13-6.78 0-8.35 18.79-7.31 20.87-18.26c0 0-6.78-3.13 15.13 1s14.66 1.61 14.66 1.61z" fill="#30b467"/><path d="m688.67 726.86s-1 15.66 1 18.26c0 0-45.92 8.35-51.66 5.74s-3.13-6.78 0-8.35 18.79-7.31 20.87-18.26c0 0-6.78-3.13 15.13 1s14.66 1.61 14.66 1.61z" opacity=".1"/><path d="m867.68 575s-5.74 9.39-2.09 27.66-9.39 18.26-9.39 18.26h-26.08l-8.87-23 12.52 1s8.35-2.09 4.7-21.4z" fill="#30b467"/><path d="m789.41 553.1c4 12.71 9 28.19 11.67 36.44l1.9 5.83 17.22-17.74s-.76-1.76-1.89-4.22c-2.52-5.46-6.91-14.37-9.07-15.09 0 0 24-1.57 31.31 4.17s5.22-15.66 5.22-15.66-14.09-1-19.31-4.17-33.4-6.26-33.4-6.26-9.39-1.57-3.65 16.7z" fill="#ffd2d9"/><path d="m632.85 706.55 3.65 26.61 9.39-1s.57-.54 1.53-1.4c2.53-2.23 7.8-6.6 12.84-9a15.89 15.89 0 0 1 5.46-1.63l-10.44-15.66a58.53 58.53 0 0 1 -7.79 2.31 37.59 37.59 0 0 1 -8.39 1 15.39 15.39 0 0 1 -6.25-1.23z" fill="#2ceaa4"/><path d="m658.94 725.31c4.7 4.17 26.09-4.7 29.75 8.87l3.36-12.87 10.35-39.6 1.42-5.45 8.62-.37 98.93-4.22 5.6-.24 3-.13-3.92-1.94-26.05-12.93s-9.4-.66-22.36-2.44c-19.65-2.69-47.49-8-63.21-17.39-26.09-15.66-36 37-36 37s-4 13.37-7 26.55a152.92 152.92 0 0 0 -3.15 17.25c-.49 4.08-.35 7 .66 7.91z" fill="#30b467"/><path d="m659 725.29c4.7 4.17 26.09-4.7 29.75 8.87l3.36-12.87 10.35-39.6 1.42-5.45 8.89-.55 95.58-5.88 5.9-.37 1.82-.11 2.35-.15-28.42-12.79s-9.4-.66-22.36-2.44c-19.65-2.69-47.49-8-63.21-17.39-26.09-15.66-36 37.05-36 37.05s-4 13.37-7 26.55a153.33 153.33 0 0 0 -3.15 17.25c-.42 4.05-.28 6.97.72 7.88z" opacity=".05"/><path d="m647.5 706.74 9.13 10.71 3.64 4.27a15.89 15.89 0 0 1 5.46-1.63l-10.44-15.66a58.53 58.53 0 0 1 -7.79 2.31z" opacity=".1"/><path d="m648 705.48 10.21 12 4.92 5.77v1.57c6 1.39 24.79-2.57 28.93-3.48l.81-.18c12 .52 56.36-25.57 56.36-25.57s48.53 8.35 72 6.26c13.11-1.17 16.79-5.91 17.48-9.88a10.33 10.33 0 0 0 -.78-5.78l-21-14.75-2.78-2-4.44-3.13s-7.72-1.75-17.52-3.91c-15.32-3.38-35.73-7.77-39.86-8.08-6.78-.52-24 5.22-33.92 16.7a29.21 29.21 0 0 1 -5.72 4.67l-.27.18c-2.79 1.85-6.22 3.81-10 5.82-12.63 6.65-29.47 13.8-41 18.49-7.98 3.23-13.42 5.3-13.42 5.3z" fill="#30b467"/><path d="m632.85 706.55 3.65 26.61 9.39-1s.57-.54 1.53-1.4c-2.08 0-5.51-.55-6.23-4.86 0 0 3.62-12.65-2.09-18.1a15.24 15.24 0 0 1 -6.25-1.25z" opacity=".1"/><path d="m640.12 725.83s5.22-18.26-6.78-20.35l-19.83 7.83-23 1.57s-6 9.79 3.61 20.77a29.54 29.54 0 0 0 20.94 9.9l25.06 1.15 7.88-16.15s-6.8 1.54-7.88-4.72z" fill="#30b467"/><path d="m767.57 654c2.63.77 13.51 4 24.65 8.43a137.24 137.24 0 0 1 16.06 7.41c1.08.61 2.11 1.22 3.08 1.83a26.42 26.42 0 0 1 6.73 5.64c6.44 8.33 15.9 12.82 20.61 14.65a10.33 10.33 0 0 0 -.78-5.78l-21-14.75 3-.13-3.92-1.95 2.35-.15-28.44-12.79s-9.38-.64-22.34-2.41z" opacity=".1"/><path d="m801.12 589.55 1.9 5.83 17.22-17.74s-.76-1.76-1.89-4.22c-2.23 4.58-12.62 12.65-17.23 16.13z" opacity=".1"/><path d="m863.21 598.2a30 30 0 0 0 1.35-5.44l22.44 7.79s15.39 11.74 13.83 37.31c0 0-19-7-27.4 1.3l-.17 1.47a67.86 67.86 0 0 1 -18.4 38.82c-4.15 4.36-8.06 9.27-10.13 14 0 0-14.61-4.17-23.48-15.66s-51.12-23.45-51.12-23.45 22.44.52 25.57-7.31 13.57-24.53 9.92-37.57-5.74-17.22-5.74-17.22 21.4-15.13 19.83-19.83l13.57 15.66 6.26 2.09a10 10 0 0 0 -.74 3.82c-.37 14.17 19.65 17.57 24.41 4.22z" fill="#30b467"/><path d="m839.25 584.48a54.06 54.06 0 0 0 -.79-5.81l29.22-2.61s-2 1.75-2.9 8.27c-3.43 2-7.43 4.78-11.71 4.78a22.83 22.83 0 0 1 -13.82-4.63z" opacity=".1"/><circle cx="852.81" cy="565.36" fill="#30b467" r="22.96"/><g opacity=".05"><path d="m829.21 583.41-1.71-.57-7.88-9.09a2.27 2.27 0 0 0 0-1.34z"/><path d="m840.19 600.25a11.82 11.82 0 0 1 -7.17-11.5v-.88l.16.19 6.26 2.09a10 10 0 0 0 -.74 3.82 12.5 12.5 0 0 0 1.49 6.28z"/><path d="m779.32 653.91c13.08 4.55 30.79 11.72 36.18 18.69l.4.5c-14.33-9.83-45.8-18.77-45.8-18.77a83.44 83.44 0 0 0 9.22-.42z"/><path d="m839 688.26c2.07-4.71 6-9.63 10.13-14a67.86 67.86 0 0 0 18.4-38.82l.17-1.47c8.35-8.35 27.4-1.3 27.4-1.3 1-16.22-4.84-26.87-9.23-32.49l1.15.4s15.39 11.74 13.83 37.31c0 0-19-7-27.4 1.3l-.17 1.47a67.86 67.86 0 0 1 -18.4 38.82c-4.15 4.36-8.06 9.27-10.13 14 0 0-12.72-3.64-21.62-13.44a54.11 54.11 0 0 0 15.87 8.22z"/></g><path d="m844.72 627.2s25 36 38.09 46.44 16.7-4.7 16.7-4.7v-33.39l-23-2.61-.25 3.17-.28 3.62-21.4-23s-21.4-19.31-25.57-7.83 15.71 18.3 15.71 18.3z" fill="#ffd2d9"/><path d="m876.31 636.11a49.8 49.8 0 0 0 9.9 4.4c4.93 1.52 10.58-.08 13.31-1.06v-3.9l-23-2.61z" opacity=".1"/><path d="m899.78 632.16 1.34 5.59s-8.16 3.8-14.94 1.72a59.22 59.22 0 0 1 -13-6.26c-1-.52 4.17-6.26 4.17-6.26z" fill="#30b467"/><path d="m749.48 695.82a42.32 42.32 0 0 0 -11.48-6.27 40.77 40.77 0 0 1 -11-5.74" opacity=".1"/><path d="m590.58 714.87.85-.06c-1.24 3.15-3 10.85 4.32 19.26a29.55 29.55 0 0 0 20.87 9.93l24.3 1.14-.78 1.6-25.08-1.15a29.55 29.55 0 0 1 -20.87-9.89c-9.61-11.04-3.61-20.83-3.61-20.83z" fill="#fff" opacity=".2"/><path d="m679.19 737.24c-.07.31-.16.62-.25.93-.51-.29-1.24-.85.25-.93z" fill="#0f0" opacity=".05"/><path d="m638.12 749.31c5.35 2.43 45.57-4.65 51-5.63a4.06 4.06 0 0 0 .62 1.45s-45.92 8.35-51.66 5.74c-3-1.34-3.69-3.1-3.29-4.7.33 1.12 1.27 2.23 3.33 3.14z" fill="#fff" opacity=".2"/><path d="m867.68 562.2c.84 2.9-2.57 7.39-6.22 8-3.12.52-4.07-2.17-8.39-3.37-7.71-2.15-13.09 4.09-16.24 1.48-2.11-1.75-2-6.44 0-9 2.49-3.22 7.47-2.67 16.24-1.69 8.2.87 13.72 1.48 14.61 4.58z" fill="#ffd2d9"/><path d="m844.91 627.47 11-9.4 9 9.74-12.91 9.58z" fill="#2ceaa4"/><path d="m834.05 552.13a23.1 23.1 0 0 1 2.64-3.12 23.9 23.9 0 0 1 2.94-2.45l28.88 2.05a8.78 8.78 0 0 0 1.16 0 12.33 12.33 0 0 0 6.08-2.13 39.71 39.71 0 0 1 10.73-5.23c2.72-.74 4.42-.68 6.63-1.92a10.4 10.4 0 0 1 2.79-1.16 9.82 9.82 0 0 1 2.82-.29c.43 0 .7.28.69.47s-.3.4-.69.37a6.82 6.82 0 0 0 -1.34.13 8.47 8.47 0 0 0 -4 2.19c-1.8 1.5-2.43 1-5.84 2.65-3.05 1.51-5.38 3.33-9 6.19a15.72 15.72 0 0 1 -5.28 2.85c-.46.14-.85.23-1.11.29z" fill="#2ceaa4"/><path d="m868.51 548.61 3.66 4.41a13.32 13.32 0 0 0 1.42-.39 14 14 0 0 0 2.72-1.21l-5.95-2.87a5.61 5.61 0 0 1 -.59.06 10.57 10.57 0 0 1 -1.26 0z" fill="#20bc7d"/></svg>