<svg width="1142.23" height="781.11" xmlns="http://www.w3.org/2000/svg">

 <g>
  <title>background</title>
  <rect fill="none" id="canvas_background" height="402" width="582" y="-1" x="-1"/>
 </g>
 <g>
  <title>Layer 1</title>
  <g id="svg_1" fill="#fff">
   <path id="svg_2" opacity="0.1" d="m1140.736858,327.486858c-7,28.15 -42.63,42.26 -62.62,63.26c-37.67,39.58 -23,97.38 0.9,143.67c8,15.5 17.08,31.91 13.69,48.53c-4.13,20.33 -26.08,35.19 -49.13,43.07c-42,14.35 -92.3,10.93 -130.91,-8.92c-33.36,-17.15 -57.26,-45 -91.19,-61.42c-56.79,-27.39 -129.07,-17 -190.74,1.83c-43.62,13.35 -91.32,30.72 -134.67,16.78c-30.5,-9.82 -51.59,-33.72 -63.08,-59c-5.54,-12.23 -9.57,-25.47 -20.16,-35.16c-6.3,-5.77 -14.52,-9.86 -22.93,-13.3c-76.88,-31.5 -174,-14.63 -248.63,-49.57c-50.42,-23.59 -82.71,-68.09 -97,-114.5s-12.63,-95.07 -9,-142.87c2.58,-34 7.21,-70.22 33.47,-96.44c27.78,-27.73 75.45,-38 118.55,-32.77s82.14,24.06 116.51,46.18c43,27.66 82.78,62.09 135.51,73.29c35.91,7.63 73.68,3.45 110.72,2c61.92,-2.41 123.86,3 185.43,8.84c30,2.87 60.1,5.88 89.84,10.24q10,1.45 20,3.15c3.34,0.57 6.68,1.16 10,1.77c2.6,0.47 5.19,1 7.78,1.47q6.13,1.19 12.22,2.5q17.49,3.75 34.64,8.55c39.74,11.21 71.6,31.57 109.13,45.79c24.46,9.27 51.13,11.83 74.29,23.63c28.5,14.49 54.68,39.8 47.38,69.4z"/>
   <circle id="svg_3" transform="matrix(0.70710678,-0.70710678,0.70710678,0.70710678,9.77,774.63) " r="102.230003" cy="375.147861" cx="939.95"/>
   <circle id="svg_4" r="102.230003" cy="347.326858" cx="830.966858"/>
   <circle id="svg_5" r="102.230003" cy="348.326858" cx="711.286858"/>
   <circle id="svg_6" r="102.230003" cy="375.256858" cx="672.386858"/>
   <circle id="svg_7" r="102.230003" cy="384.236858" cx="606.556858"/>
   <circle id="svg_8" r="102.230003" cy="303.446858" cx="579.626858"/>
   <circle id="svg_9" r="102.230003" cy="209.686858" cx="609.546858"/>
   <circle id="svg_10" r="102.230003" cy="209.686858" cx="666.396858"/>
   <circle id="svg_11" r="102.230003" cy="167.796858" cx="699.316858"/>
   <circle id="svg_12" r="102.230003" cy="213.676858" cx="783.096858"/>
   <circle id="svg_13" r="102.230003" cy="303.446858" cx="978.586858"/>
   <circle id="svg_14" r="102.230003" cy="252.576858" cx="919.736858"/>
   <circle id="svg_15" r="102.230003" cy="201.706858" cx="881.836858"/>
   <circle id="svg_16" r="102.230003" cy="124.906858" cx="810.026858"/>
   <circle id="svg_17" transform="matrix(0.70710678,-0.70710678,0.70710678,0.70710678,128.02,728.96) " r="102.230003" cy="209.577861" cx="943.94"/>
  </g>
  <g id="svg_18" opacity="0.1">
   <circle id="svg_19" transform="matrix(0.70710678,-0.70710678,0.70710678,0.70710678,9.77,774.63) " r="102.23" cy="375.52" cx="939.95"/>
   <circle id="svg_20" r="102.23" cy="347.59" cx="831.23"/>
   <circle id="svg_21" r="102.23" cy="348.59" cx="711.55"/>
   <circle id="svg_22" r="102.23" cy="375.52" cx="672.65"/>
   <circle id="svg_23" r="102.23" cy="384.5" cx="606.82"/>
   <circle id="svg_24" r="102.23" cy="303.71" cx="579.89"/>
   <circle id="svg_25" r="102.23" cy="209.95" cx="609.81"/>
   <circle id="svg_26" r="102.23" cy="209.95" cx="666.66"/>
   <circle id="svg_27" r="102.23" cy="168.06" cx="699.58"/>
   <circle id="svg_28" r="102.23" cy="213.94" cx="783.36"/>
   <circle id="svg_29" r="102.23" cy="303.71" cx="978.85"/>
   <circle id="svg_30" r="102.23" cy="252.84" cx="920"/>
   <circle id="svg_31" r="102.23" cy="201.97" cx="882.1"/>
   <circle id="svg_32" r="102.23" cy="125.17" cx="810.29"/>
   <circle id="svg_33" transform="matrix(0.70710678,-0.70710678,0.70710678,0.70710678,128.02,728.96) " r="102.23" cy="209.95" cx="943.94"/>
  </g>
  <path id="svg_34" fill="#67647e" d="m889.46,554.67s62.54,-52.53 31.54,-127.33l-30.92,-11.58l-33.51,103.29l32.89,35.62z"/>
  <path id="svg_35" opacity="0.1" d="m892.79,412.2l7.4,2.77l-32.94,101.41l28.75,31.12c-2.38,2.37 -3.86,3.61 -3.86,3.61l-32.9,-35.62l33.55,-103.29z"/>
  <ellipse id="svg_36" ry="93.16" rx="556.5" opacity="0.1" fill="#fff" cy="687.676858" cx="579.236858"/>
  <path id="svg_37" fill="#fff" d="m1007.84,543.65s-20.33,20.35 -8.84,50.5s-19.67,80.33 -19.67,80.33l1,-0.16c41.75,-7.37 62.5,-55.12 39.28,-90.6c-8.69,-13.17 -15.78,-28.65 -11.77,-40.07z"/>
  <path id="svg_38" stroke-miterlimit="10" stroke="#535461" fill="none" d="m1007.84,543.65s-11.48,24.92 0,45.25s2,77.38 -28.53,85.58"/>
  <path id="svg_39" fill="#fff" d="m1044.05,625.88s-23.2,-3.69 -25.31,17.1s-44.62,23.67 -44.62,23.67l0.8,0.53c35.09,23 68.63,14.67 63.57,-15.91c-1.87,-11.37 -1.72,-22.79 5.56,-25.39z"/>
  <path id="svg_40" opacity="0.2" fill="#f5f5f5" d="m1044.05,625.88s-23.2,-3.69 -25.31,17.1s-44.62,23.67 -44.62,23.67l0.8,0.53c35.09,23 68.63,14.67 63.57,-15.91c-1.87,-11.37 -1.72,-22.79 5.56,-25.39z"/>
  <path id="svg_41" stroke-miterlimit="10" stroke="#535461" fill="none" d="m1044.05,625.88s-18,4 -16.53,20.33s-26.74,36 -53.39,20.44"/>
  <path id="svg_42" fill="#67647e" d="m607.2,445.26l8.12,32.5s57.37,7.48 95.62,2.78a49.74,49.74 0 0 0 19.06,-6.88c3.23,-1.91 8.33,-2.74 15.3,2.48c11.94,9 70.54,81 61.05,155.7a25.81,25.81 0 0 1 -22.17,22.24a77.8,77.8 0 0 0 -32.67,12.36l-29,19.31l297.35,-6.5l-30.86,-37.37s-21.12,-17.87 -37.37,-19.5c-4.74,-0.47 -8.65,-4.82 -11.81,-10.73c-18.51,-34.65 -40.65,-67.23 -64.65,-98.34c-17.48,-22.66 -32.15,-46.54 -30.78,-61.54c3.25,-35.75 0,-94.24 0,-94.24l-61.74,-8.12s8.12,78 -66.62,97.49s-108.83,-1.64 -108.83,-1.64z"/>
  <g id="svg_43" opacity="0.1">
   <path id="svg_44" d="m657.57,459.89s34.12,21.12 108.87,1.62s66.62,-97.51 66.62,-97.51l11.75,1.53c-0.22,-5 -0.39,-8 -0.39,-8l-61.74,-8.12s8.12,78 -66.62,97.49s-108.87,-1.62 -108.87,-1.62l8.12,32.5s21.92,2.86 47.7,3.93l-5.44,-21.82z"/>
   <path id="svg_45" d="m801.89,681.06a77.8,77.8 0 0 1 32.67,-12.36a25.78,25.78 0 0 0 22.16,-22.15c9.54,-74.7 -49.09,-146.83 -61,-155.79c-13,-9.75 -19.5,1.62 -19.5,1.62a104.11,104.11 0 0 1 -14,2.67c21.06,28 51.19,81.71 44.14,136.87a25.78,25.78 0 0 1 -22.16,22.15a77.8,77.8 0 0 0 -32.67,12.36l-29,19.31l74.76,-1.63l4.6,-3.05z"/>
  </g>
  <path id="svg_46" stroke-width="2" stroke-miterlimit="10" stroke="#535461" fill="none" d="m657,602.91s-6.21,-21.08 1.16,-36.6a33.3,33.3 0 0 0 2.69,-20.89a56.12,56.12 0 0 0 -3,-9.81"/>
  <path id="svg_47" fill="#fff" d="m662.45,525.8c0,2.58 -4.68,10.08 -4.68,10.08s-4.65,-7.5 -4.65,-10.08a4.68,4.68 0 0 1 9.36,0l-0.03,0z"/>
  <path id="svg_48" fill="#fff" d="m670.19,540.11c-1.4,2.17 -9.4,5.92 -9.4,5.92s0.15,-8.83 1.55,-11a4.68,4.68 0 0 1 8,4.85l-0.15,0.24l0,-0.01z"/>
  <path id="svg_49" fill="#fff" d="m669.85,564.55c-2.31,1.16 -11.1,0.36 -11.1,0.36s4.58,-7.55 6.89,-8.71a4.68,4.68 0 1 1 4.21,8.36l0,-0.01z"/>
  <path id="svg_50" fill="#fff" d="m665.43,583c-2.08,1.54 -10.88,2.23 -10.88,2.23s3.24,-8.22 5.32,-9.75a4.68,4.68 0 0 1 5.56,7.52z"/>
  <path id="svg_51" fill="#fff" d="m651,546.55c1.85,1.8 10.49,3.67 10.49,3.67s-2.11,-8.58 -4,-10.38a4.68,4.68 0 0 0 -6.52,6.71l0.03,0z"/>
  <path id="svg_52" fill="#fff" d="m646.06,568.17c2.31,1.16 11.1,0.36 11.1,0.36s-4.58,-7.55 -6.89,-8.71a4.68,4.68 0 1 0 -4.21,8.36l0,-0.01z"/>
  <path id="svg_53" fill="#fff" d="m644.18,589.86c2.08,1.54 10.88,2.23 10.88,2.23s-3.24,-8.22 -5.32,-9.75a4.68,4.68 0 0 0 -5.56,7.52z"/>
  <path id="svg_54" fill="#a8a8a8" d="m643.45,600.85s11.35,-2.27 14.37,-5.3s16.64,-8.32 18.18,-4.55s20.43,16.64 7.56,18.91s-30.26,3 -34,1.51s-6.11,-10.57 -6.11,-10.57z"/>
  <path id="svg_55" opacity="0.2" d="m683.55,608.55c-12.86,2.27 -30.26,3 -34,1.51c-2.88,-1.15 -4.88,-6.69 -5.67,-9.26l-0.38,0.08s2.27,9.08 6,10.59s21.18,0.76 34,-1.51c3.71,-0.66 4.77,-2.19 4.37,-4.14c-0.27,1.24 -1.56,2.18 -4.32,2.73z"/>
  <path id="svg_56" fill="#a8a8a8" d="m831.62,672s34.43,-6.89 43.62,-16.07s50.5,-25.25 55.09,-13.77s62,50.5 23,57.39s-91.82,9.18 -103.3,4.59s-18.41,-32.14 -18.41,-32.14z"/>
  <path id="svg_57" opacity="0.2" d="m953.29,695.29c-39,6.89 -91.82,9.18 -103.3,4.59c-8.74,-3.5 -14.82,-20.3 -17.22,-28.11l-1.15,0.24s6.89,27.55 18.36,32.14s64.28,2.3 103.3,-4.59c11.27,-2 14.49,-6.66 13.27,-12.56c-0.95,3.85 -4.88,6.82 -13.26,8.29z"/>
  <path id="svg_58" fill="#fff" d="m1064.66,476.35a21.81,21.81 0 0 1 -3.71,11.51a21.86,21.86 0 0 1 -3.77,-11.49c0,-6.35 1.64,-11.5 3.71,-11.51s3.75,5.14 3.77,11.49z"/>
  <path id="svg_59" fill="#fff" d="m782.37,470.77a21.78,21.78 0 0 1 -3.74,11.5a21.78,21.78 0 0 1 -3.74,-11.5c0,-6.35 1.67,-11.5 3.74,-11.5s3.74,5.15 3.74,11.5z"/>
  <path id="svg_60" fill="#fff" d="m1090,584.09a21.78,21.78 0 0 1 3.74,11.5a21.84,21.84 0 0 1 -9.79,-7.1c-3.74,-5.14 -5.41,-10.29 -3.74,-11.5s6.09,2.01 9.79,7.1z"/>
  <path id="svg_61" fill="#fff" d="m970.57,523.88a21.78,21.78 0 0 1 -3.74,11.5a21.78,21.78 0 0 1 -3.74,-11.5c0,-6.35 1.67,-11.5 3.74,-11.5s3.74,5.17 3.74,11.5z"/>
  <path id="svg_62" fill="#fff" d="m900.69,485.68a21.78,21.78 0 0 1 -3.74,11.5a21.78,21.78 0 0 1 -3.74,-11.5c0,-6.35 1.67,-11.5 3.74,-11.5s3.74,5.15 3.74,11.5z"/>
  <path id="svg_63" fill="#fff" d="m857.34,509a21.84,21.84 0 0 1 2.47,11.84a21.78,21.78 0 0 1 -9,-8.12c-3.16,-5.51 -4.26,-10.81 -2.47,-11.84s5.85,2.58 9,8.12z"/>
  <path id="svg_64" fill="#fff" d="m825,614.61a21.85,21.85 0 0 1 -11,5.14a21.85,21.85 0 0 1 5.83,-10.59c4.63,-4.34 9.54,-6.64 10.95,-5.14s-1.2,6.25 -5.78,10.59z"/>
  <path id="svg_65" opacity="0.1" d="m825,614.61a21.85,21.85 0 0 1 -11,5.14a21.85,21.85 0 0 1 5.83,-10.59c4.63,-4.34 9.54,-6.64 10.95,-5.14s-1.2,6.25 -5.78,10.59z"/>
  <path id="svg_66" fill="#fff" d="m893,608.09a21.85,21.85 0 0 1 -11,5.14a21.85,21.85 0 0 1 5.83,-10.59c4.63,-4.34 9.54,-6.64 10.95,-5.14s-1.19,6.24 -5.78,10.59z"/>
  <path id="svg_67" opacity="0.1" d="m893,608.09a21.85,21.85 0 0 1 -11,5.14a21.85,21.85 0 0 1 5.83,-10.59c4.63,-4.34 9.54,-6.64 10.95,-5.14s-1.19,6.24 -5.78,10.59z"/>
  <path id="svg_68" fill="#fff" d="m906,677a21.85,21.85 0 0 1 -11,5.14a21.8,21.8 0 0 1 5.84,-10.62c4.63,-4.34 9.54,-6.64 11,-5.14s-1.2,6.3 -5.84,10.62z"/>
  <path id="svg_69" opacity="0.1" d="m906,677a21.85,21.85 0 0 1 -11,5.14a21.8,21.8 0 0 1 5.84,-10.62c4.63,-4.34 9.54,-6.64 11,-5.14s-1.2,6.3 -5.84,10.62z"/>
  <path id="svg_75" fill="#a8a8a8" d="m1008.63,672.14s17.11,-3.4 21.67,-7.93s25.1,-12.46 27.38,-6.8s30.8,24.92 11.41,28.31s-45.63,4.53 -51.33,2.27s-9.13,-15.85 -9.13,-15.85z"/>
  <path id="svg_76" opacity="0.2" d="m1069.12,683.63c-19.39,3.4 -45.63,4.53 -51.33,2.27c-4.34,-1.73 -7.36,-10 -8.56,-13.87l-0.57,0.12s3.42,13.59 9.13,15.86s31.94,1.13 51.33,-2.27c5.6,-1 7.2,-3.28 6.6,-6.2c-0.51,1.89 -2.46,3.36 -6.6,4.09z"/>
  <circle id="svg_77" transform="matrix(0.70710678,-0.70710678,0.70710678,0.70710678,25.99,767.91) " r="102.23" fill="#fff" cy="352.58" cx="939.95"/>
  <circle id="svg_78" r="102.23" fill="#fff" cy="324.65" cx="831.23"/>
  <circle id="svg_79" r="102.23" fill="#fff" cy="325.65" cx="711.55"/>
  <circle id="svg_80" r="102.23" fill="#fff" cy="352.58" cx="672.65"/>
  <circle id="svg_81" r="102.23" fill="#fff" cy="361.56" cx="606.82"/>
  <circle id="svg_82" r="102.23" fill="#fff" cy="280.77" cx="579.89"/>
  <circle id="svg_83" r="102.23" fill="#fff" cy="187.01" cx="609.81"/>
  <circle id="svg_84" r="102.23" fill="#fff" cy="187.01" cx="666.66"/>
  <circle id="svg_85" r="102.23" fill="#fff" cy="145.12" cx="699.58"/>
  <circle id="svg_86" r="102.23" fill="#fff" cy="191" cx="783.36"/>
  <circle id="svg_87" r="102.23" fill="#fff" cy="280.77" cx="978.85"/>
  <circle id="svg_88" r="102.23" fill="#fff" cy="229.9" cx="920"/>
  <circle id="svg_89" r="102.23" fill="#fff" cy="179.03" cx="882.1"/>
  <circle id="svg_90" r="102.23" fill="#fff" cy="102.23" cx="810.29"/>
  <circle id="svg_91" transform="matrix(0.70710678,-0.70710678,0.70710678,0.70710678,144.24,722.24) " r="102.23" fill="#fff" cy="187.01" cx="943.94"/>
  <path id="svg_92" opacity="0.1" d="m1041.73,203s-95.21,-45.15 -152.82,34.87"/>
  <path id="svg_93" opacity="0.1" d="m791.65,111.55s-105.32,-3.18 -126,93.22"/>
  <path id="svg_94" opacity="0.1" d="m660.73,320.71s-95.21,-45.16 -152.82,34.84"/>
  <path id="svg_105" fill="#fff" d="m119.56,718.29a11.66,11.66 0 0 0 3.83,-5.78c0.5,-2.3 -0.48,-5 -2.68,-5.89c-2.46,-0.94 -5.09,0.76 -7.08,2.49s-4.28,3.69 -6.89,3.32a10.47,10.47 0 0 0 3.24,-9.81a4,4 0 0 0 -0.9,-2c-1.37,-1.46 -3.84,-0.83 -5.48,0.32c-5.2,3.66 -6.6,10.72 -6.68,17.06c-0.52,-2.29 -0.08,-4.68 -0.1,-7s-0.66,-5 -2.64,-6.22a8,8 0 0 0 -4,-0.95c-2.34,-0.09 -4.94,0.15 -6.54,1.86c-2,2.12 -1.47,5.69 0.26,8s4.35,3.8 6.77,5.42a15,15 0 0 1 4.84,4.61a4.26,4.26 0 0 1 0.36,0.82l14.65,0a40.82,40.82 0 0 0 9.04,-6.25z"/>
  <path id="svg_106" fill="#fff" d="m1029.56,732.29a11.66,11.66 0 0 0 3.83,-5.78c0.5,-2.3 -0.48,-5 -2.68,-5.89c-2.46,-0.94 -5.09,0.76 -7.08,2.49s-4.28,3.69 -6.89,3.32a10.47,10.47 0 0 0 3.24,-9.81a4,4 0 0 0 -0.9,-2c-1.37,-1.46 -3.84,-0.83 -5.48,0.32c-5.2,3.66 -6.65,10.72 -6.68,17.08c-0.52,-2.29 -0.08,-4.68 -0.1,-7s-0.66,-5 -2.64,-6.22a8,8 0 0 0 -4,-0.95c-2.34,-0.09 -4.94,0.15 -6.54,1.86c-2,2.12 -1.47,5.69 0.26,8s4.35,3.8 6.77,5.42a15,15 0 0 1 4.84,4.61a4.26,4.26 0 0 1 0.36,0.82l14.65,0a40.82,40.82 0 0 0 9.04,-6.27z"/>
  <path id="svg_107" fill="#30b467" d="m688.69,726.87s-1,15.66 1,18.26c0,0 -45.92,8.35 -51.66,5.74s-3.13,-6.78 0,-8.35s18.79,-7.31 20.87,-18.26c0,0 -6.78,-3.13 15.13,1s14.66,1.61 14.66,1.61z"/>
  <path id="svg_108" opacity="0.1" d="m688.67,726.86s-1,15.66 1,18.26c0,0 -45.92,8.35 -51.66,5.74s-3.13,-6.78 0,-8.35s18.79,-7.31 20.87,-18.26c0,0 -6.78,-3.13 15.13,1s14.66,1.61 14.66,1.61z"/>
  <path id="svg_109" fill="#30b467" d="m867.68,575s-5.74,9.39 -2.09,27.66s-9.39,18.26 -9.39,18.26l-26.08,0l-8.87,-23l12.52,1s8.35,-2.09 4.7,-21.4l29.21,-2.52z"/>
  <path id="svg_110" fill="#ffd2d9" d="m789.41,553.1c4,12.71 9,28.19 11.67,36.44l1.9,5.83l17.22,-17.74s-0.76,-1.76 -1.89,-4.22c-2.52,-5.46 -6.91,-14.37 -9.07,-15.09c0,0 24,-1.57 31.31,4.17s5.22,-15.66 5.22,-15.66s-14.09,-1 -19.31,-4.17s-33.4,-6.26 -33.4,-6.26s-9.39,-1.57 -3.65,16.7z"/>
  <path id="svg_111" fill="#2ceaa4" d="m632.85,706.55l3.65,26.61l9.39,-1s0.57,-0.54 1.53,-1.4c2.53,-2.23 7.8,-6.6 12.84,-9a15.89,15.89 0 0 1 5.46,-1.63l-10.44,-15.66a58.53,58.53 0 0 1 -7.79,2.31a37.59,37.59 0 0 1 -8.39,1a15.39,15.39 0 0 1 -6.25,-1.23z"/>
  <path id="svg_112" fill="#30b467" d="m658.94,725.31c4.7,4.17 26.09,-4.7 29.75,8.87l3.36,-12.87l10.35,-39.6l1.42,-5.45l8.62,-0.37l98.93,-4.22l5.6,-0.24l3,-0.13l-3.92,-1.94l-26.05,-12.93s-9.4,-0.66 -22.36,-2.44c-19.65,-2.69 -47.49,-8 -63.21,-17.39c-26.09,-15.66 -36,37 -36,37s-4,13.37 -7,26.55a152.92,152.92 0 0 0 -3.15,17.25c-0.49,4.08 -0.35,7 0.66,7.91z"/>
  <path id="svg_113" opacity="0.05" d="m659,725.29c4.7,4.17 26.09,-4.7 29.75,8.87l3.36,-12.87l10.35,-39.6l1.42,-5.45l8.89,-0.55l95.58,-5.88l5.9,-0.37l1.82,-0.11l2.35,-0.15l-28.42,-12.79s-9.4,-0.66 -22.36,-2.44c-19.65,-2.69 -47.49,-8 -63.21,-17.39c-26.09,-15.66 -36,37.05 -36,37.05s-4,13.37 -7,26.55a153.33,153.33 0 0 0 -3.15,17.25c-0.42,4.05 -0.28,6.97 0.72,7.88z"/>
  <path id="svg_114" opacity="0.1" d="m647.5,706.74l9.13,10.71l3.64,4.27a15.89,15.89 0 0 1 5.46,-1.63l-10.44,-15.66a58.53,58.53 0 0 1 -7.79,2.31z"/>
  <path id="svg_115" fill="#30b467" d="m648,705.48l10.21,12l4.92,5.77l0,1.57c6,1.39 24.79,-2.57 28.93,-3.48l0.81,-0.18c12,0.52 56.36,-25.57 56.36,-25.57s48.53,8.35 72,6.26c13.11,-1.17 16.79,-5.91 17.48,-9.88a10.33,10.33 0 0 0 -0.78,-5.78l-21,-14.75l-2.78,-2l-4.44,-3.13s-7.72,-1.75 -17.52,-3.91c-15.32,-3.38 -35.73,-7.77 -39.86,-8.08c-6.78,-0.52 -24,5.22 -33.92,16.7a29.21,29.21 0 0 1 -5.72,4.67l-0.27,0.18c-2.79,1.85 -6.22,3.81 -10,5.82c-12.63,6.65 -29.47,13.8 -41,18.49c-7.98,3.23 -13.42,5.3 -13.42,5.3z"/>
  <path id="svg_116" opacity="0.1" d="m632.85,706.55l3.65,26.61l9.39,-1s0.57,-0.54 1.53,-1.4c-2.08,0 -5.51,-0.55 -6.23,-4.86c0,0 3.62,-12.65 -2.09,-18.1a15.24,15.24 0 0 1 -6.25,-1.25z"/>
  <path id="svg_117" fill="#30b467" d="m640.12,725.83s5.22,-18.26 -6.78,-20.35l-19.83,7.83l-23,1.57s-6,9.79 3.61,20.77a29.54,29.54 0 0 0 20.94,9.9l25.06,1.15l7.88,-16.15s-6.8,1.54 -7.88,-4.72z"/>
  <path id="svg_118" opacity="0.1" d="m767.57,654c2.63,0.77 13.51,4 24.65,8.43a137.24,137.24 0 0 1 16.06,7.41c1.08,0.61 2.11,1.22 3.08,1.83a26.42,26.42 0 0 1 6.73,5.64c6.44,8.33 15.9,12.82 20.61,14.65a10.33,10.33 0 0 0 -0.78,-5.78l-21,-14.75l3,-0.13l-3.92,-1.95l2.35,-0.15l-28.44,-12.79s-9.38,-0.64 -22.34,-2.41z"/>
  <path id="svg_119" opacity="0.1" d="m801.12,589.55l1.9,5.83l17.22,-17.74s-0.76,-1.76 -1.89,-4.22c-2.23,4.58 -12.62,12.65 -17.23,16.13z"/>
  <path id="svg_120" fill="#30b467" d="m863.21,598.2a30,30 0 0 0 1.35,-5.44l22.44,7.79s15.39,11.74 13.83,37.31c0,0 -19,-7 -27.4,1.3l-0.17,1.47a67.86,67.86 0 0 1 -18.4,38.82c-4.15,4.36 -8.06,9.27 -10.13,14c0,0 -14.61,-4.17 -23.48,-15.66s-51.12,-23.45 -51.12,-23.45s22.44,0.52 25.57,-7.31s13.57,-24.53 9.92,-37.57s-5.74,-17.22 -5.74,-17.22s21.4,-15.13 19.83,-19.83l13.57,15.66l6.26,2.09a10,10 0 0 0 -0.74,3.82c-0.37,14.17 19.65,17.57 24.41,4.22z"/>
  <path id="svg_121" opacity="0.1" d="m839.25,584.48a54.06,54.06 0 0 0 -0.79,-5.81l29.22,-2.61s-2,1.75 -2.9,8.27c-3.43,2 -7.43,4.78 -11.71,4.78a22.83,22.83 0 0 1 -13.82,-4.63z"/>
  <circle id="svg_122" r="22.96" fill="#30b467" cy="565.36" cx="852.81"/>
  <g id="svg_123" opacity="0.05">
   <path id="svg_124" d="m829.21,583.41l-1.71,-0.57l-7.88,-9.09a2.27,2.27 0 0 0 0,-1.34l9.59,11z"/>
   <path id="svg_125" d="m840.19,600.25a11.82,11.82 0 0 1 -7.17,-11.5l0,-0.88l0.16,0.19l6.26,2.09a10,10 0 0 0 -0.74,3.82a12.5,12.5 0 0 0 1.49,6.28z"/>
   <path id="svg_126" d="m779.32,653.91c13.08,4.55 30.79,11.72 36.18,18.69l0.4,0.5c-14.33,-9.83 -45.8,-18.77 -45.8,-18.77a83.44,83.44 0 0 0 9.22,-0.42z"/>
   <path id="svg_127" d="m839,688.26c2.07,-4.71 6,-9.63 10.13,-14a67.86,67.86 0 0 0 18.4,-38.82l0.17,-1.47c8.35,-8.35 27.4,-1.3 27.4,-1.3c1,-16.22 -4.84,-26.87 -9.23,-32.49l1.15,0.4s15.39,11.74 13.83,37.31c0,0 -19,-7 -27.4,1.3l-0.17,1.47a67.86,67.86 0 0 1 -18.4,38.82c-4.15,4.36 -8.06,9.27 -10.13,14c0,0 -12.72,-3.64 -21.62,-13.44a54.11,54.11 0 0 0 15.87,8.22z"/>
  </g>
  <path id="svg_128" fill="#ffd2d9" d="m844.72,627.2s25,36 38.09,46.44s16.7,-4.7 16.7,-4.7l0,-33.39l-23,-2.61l-0.25,3.17l-0.28,3.62l-21.4,-23s-21.4,-19.31 -25.57,-7.83s15.71,18.3 15.71,18.3z"/>
  <path id="svg_129" opacity="0.1" d="m876.31,636.11a49.8,49.8 0 0 0 9.9,4.4c4.93,1.52 10.58,-0.08 13.31,-1.06l0,-3.9l-23,-2.61l-0.21,3.17z"/>
  <path id="svg_130" fill="#30b467" d="m899.78,632.16l1.34,5.59s-8.16,3.8 -14.94,1.72a59.22,59.22 0 0 1 -13,-6.26c-1,-0.52 4.17,-6.26 4.17,-6.26l22.43,5.21z"/>
  <path id="svg_131" opacity="0.1" d="m749.48,695.82a42.32,42.32 0 0 0 -11.48,-6.27a40.77,40.77 0 0 1 -11,-5.74"/>
  <path id="svg_132" opacity="0.2" fill="#fff" d="m590.58,714.87l0.85,-0.06c-1.24,3.15 -3,10.85 4.32,19.26a29.55,29.55 0 0 0 20.87,9.93l24.3,1.14l-0.78,1.6l-25.08,-1.15a29.55,29.55 0 0 1 -20.87,-9.89c-9.61,-11.04 -3.61,-20.83 -3.61,-20.83z"/>
  <path id="svg_133" opacity="0.05" fill="#0f0" d="m679.19,737.24c-0.07,0.31 -0.16,0.62 -0.25,0.93c-0.51,-0.29 -1.24,-0.85 0.25,-0.93z"/>
  <path id="svg_134" opacity="0.2" fill="#fff" d="m638.12,749.31c5.35,2.43 45.57,-4.65 51,-5.63a4.06,4.06 0 0 0 0.62,1.45s-45.92,8.35 -51.66,5.74c-3,-1.34 -3.69,-3.1 -3.29,-4.7c0.33,1.12 1.27,2.23 3.33,3.14z"/>
  <path id="svg_135" fill="#ffd2d9" d="m867.68,562.2c0.84,2.9 -2.57,7.39 -6.22,8c-3.12,0.52 -4.07,-2.17 -8.39,-3.37c-7.71,-2.15 -13.09,4.09 -16.24,1.48c-2.11,-1.75 -2,-6.44 0,-9c2.49,-3.22 7.47,-2.67 16.24,-1.69c8.2,0.87 13.72,1.48 14.61,4.58z"/>
  <path id="svg_136" fill="#2ceaa4" d="m844.91,627.47l11,-9.4l9,9.74l-12.91,9.58l-7.09,-9.92z"/>
  <path id="svg_137" fill="#2ceaa4" d="m834.05,552.13a23.1,23.1 0 0 1 2.64,-3.12a23.9,23.9 0 0 1 2.94,-2.45l28.88,2.05a8.78,8.78 0 0 0 1.16,0a12.33,12.33 0 0 0 6.08,-2.13a39.71,39.71 0 0 1 10.73,-5.23c2.72,-0.74 4.42,-0.68 6.63,-1.92a10.4,10.4 0 0 1 2.79,-1.16a9.82,9.82 0 0 1 2.82,-0.29c0.43,0 0.7,0.28 0.69,0.47s-0.3,0.4 -0.69,0.37a6.82,6.82 0 0 0 -1.34,0.13a8.47,8.47 0 0 0 -4,2.19c-1.8,1.5 -2.43,1 -5.84,2.65c-3.05,1.51 -5.38,3.33 -9,6.19a15.72,15.72 0 0 1 -5.28,2.85c-0.46,0.14 -0.85,0.23 -1.11,0.29l-38.1,-0.89z"/>
  <path id="svg_138" fill="#20bc7d" d="m868.51,548.61l3.66,4.41a13.32,13.32 0 0 0 1.42,-0.39a14,14 0 0 0 2.72,-1.21l-5.95,-2.87a5.61,5.61 0 0 1 -0.59,0.06a10.57,10.57 0 0 1 -1.26,0z"/>
 </g>
</svg>