<svg id="Layer_1" data-name="Layer 1" xmlns="http://www.w3.org/2000/svg" viewBox="0 0 234 102"><defs><style>.cls-1,.cls-3{fill:#fff;}.cls-1{fill-rule:evenodd;}.cls-2{opacity:0.29;}</style></defs><title>co2ok_white</title><g id="Canvas"><g id="Logo"><g id="Typo"><g id="CO"><path id="path0_fill" data-name="path0 fill" class="cls-1" d="M62.61,64.69A35.5,35.5,0,0,1,29.79,72,36.21,36.21,0,0,1,8.28,55.47a35.71,35.71,0,0,1,0-36.15A36.35,36.35,0,0,1,21.21,6.38a35.63,35.63,0,0,1,8.58-3.63,35.19,35.19,0,0,1,9.52-1.28,36,36,0,0,1,12.45,2.2,34.32,34.32,0,0,1,10.85,6.41L55.25,22.17A21,21,0,0,0,48,17.11a22.13,22.13,0,0,0-8.72-1.76,21.51,21.51,0,0,0-8.63,1.74,22.62,22.62,0,0,0-7,4.72,22.14,22.14,0,0,0-4.75,7,21.49,21.49,0,0,0-1.74,8.59,21,21,0,0,0,1.74,8.53A22.44,22.44,0,0,0,30.68,57.68a21.51,21.51,0,0,0,8.63,1.74A22.17,22.17,0,0,0,48,57.65a21,21,0,0,0,7.22-5Zm69.07-27.28a35,35,0,0,1-1.28,9.5,37,37,0,0,1-3.61,8.56A36,36,0,0,1,105.36,72a35,35,0,0,1-19,0A36.09,36.09,0,0,1,61.22,46.91,35.79,35.79,0,0,1,77.77,6.45a37,37,0,0,1,8.56-3.61,33.74,33.74,0,0,1,19,0,36.14,36.14,0,0,1,26.35,34.57Zm-13.79,0a21.49,21.49,0,0,0-1.74-8.59A22.07,22.07,0,0,0,87.22,17.09a22.62,22.62,0,0,0-7,4.72,21.84,21.84,0,0,0-4.74,7,21.49,21.49,0,0,0-1.74,8.59,21,21,0,0,0,1.74,8.53A22.43,22.43,0,0,0,87.22,57.68a22.07,22.07,0,0,0,28.93-11.74A21,21,0,0,0,117.89,37.41Z"/></g><g id="Mask-3"><path id="path2_fill" data-name="path2 fill" class="cls-1" d="M145.17,86.94v13.59H112.79V86a11.16,11.16,0,0,1,2-6.42c2.34-3.42,12.06-6.39,11.09-6.23H96.64V59.4H129.1c9,0,16.11,5.67,16.11,13.27A12.11,12.11,0,0,1,143,79.55a17.34,17.34,0,0,1-11,7.39Z"/></g></g><g id="OK"><path id="path4_fill" data-name="path4 fill" class="cls-1" d="M167.51,59.74a22.34,22.34,0,1,1,22.33-22.35h0A22.35,22.35,0,0,1,167.51,59.74Zm0-11.65A10.69,10.69,0,1,0,156.82,37.4h0A10.7,10.7,0,0,0,167.51,48.09Zm25.25,11.65h10V50.8l6.86-9.13,9.86,18.07h11.19l-15.2-25.83,14.18-18.85H218.46L202.73,36.42V15.06h-10Z"/><g id="Group"><g id="K" class="cls-2"><path id="path5_fill" data-name="path5 fill" class="cls-1" d="M215.47,33.91l15.17,25.83H219.45l-9.86-18.07Z"/></g></g></g><path id="path6_fill" data-name="path6 fill" class="cls-3" d="M109.23,34.43c0-4.2-3.09-7.71-6.94-7.71a7,7,0,0,0-6.17,4.11A6.83,6.83,0,0,0,90,26.72c-3.86,0-6.94,3.43-6.94,7.71a7.89,7.89,0,0,0,2.74,6.34L96.2,51s10.89-11,10.54-10.54C108.2,38.63,109.23,37.17,109.23,34.43Z"/></g></g></svg>