<svg id="Layer_2" data-name="Layer 2" xmlns="http://www.w3.org/2000/svg" viewBox="0 0 500 500"><defs><style>.cls-1{fill:#73777b;}.cls-2{fill:#00cd74;}.cls-3{fill:#fff;}</style></defs><title>co2ok_logo_flat</title><circle class="cls-1" cx="206" cy="220" r="76"/><circle class="cls-2" cx="357" cy="220" r="47"/><circle class="cls-3" cx="357.13" cy="220.75" r="22.75"/><path class="cls-1" d="M134,162l-16,26a46.59,46.59,0,0,0-28-15c-19.46-2.61-33.28,8.67-36,11-14,12-22.23,33.77-14,54,7.56,18.56,26,28.41,43,29,18.88.66,31.89-10.25,35-13l16,25c-32.66,26.44-80.56,21.94-107-9C1.81,240.52,3.08,195.19,31,167A76.65,76.65,0,0,1,134,162Z"/><path class="cls-1" d="M205,296h64a1.77,1.77,0,0,1,0,1c-.48,1.53-3.31,1.89-4,2-4.84.75-15.49,6.33-20,12-1.73,2.17-4.36,6.63-4,15h42c17.4-3.82,28-20.21,25-35-2.33-11.63-12.79-21.08-26-23H265Z"/><rect class="cls-1" x="241" y="326" width="67" height="29"/><polygon class="cls-2" points="411 173 432 173 432 220 465 173 489 173 432 249 432 268 411 268 411 173"/><polygon class="cls-2" points="446.27 229.97 468 268 492 268 459.1 212.86 446.27 229.97"/><circle class="cls-3" cx="205" cy="220" r="48"/><path class="cls-2" d="M228.65,201.49c-6.23-5.32-15.51-4.36-21.24,1.55l-2.24,2.31L202.93,203c-5.72-5.91-15-6.87-21.24-1.55a16.34,16.34,0,0,0-1.13,23.66l22,22.75a3.56,3.56,0,0,0,5.15,0l22-22.75a16.33,16.33,0,0,0-1.12-23.66Z"/></svg>