<svg xmlns="http://www.w3.org/2000/svg" viewBox="0 0 144.78 144.78"><defs><style>.cls-1{fill:#47b066;}.cls-2{fill:#fff;}.cls-3{fill:none;stroke:#fff;stroke-miterlimit:10;stroke-width:4px;}</style></defs><title>hand</title><g id="Laag_2" data-name="Laag 2"><g id="Laag_1-2" data-name="Laag 1"><circle class="cls-1" cx="72.39" cy="72.39" r="72.39"/><rect class="cls-2" x="30.36" y="55.89" width="14.76" height="29.53"/><rect class="cls-2" x="97.33" y="57.63" width="16.14" height="29.53"/><path class="cls-3" d="M43.68,58.34h3.91s5.08-6.34,10-6.72,11.16-.51,12.8,1.14,24.73,27,23.71,30.56S78.28,97,75.74,98s-9.76,3.3-15,.51-17.1-14.71-17.1-14.71"/><path class="cls-3" d="M98.71,61.13a23.69,23.69,0,0,1-4.55-3.5c-1.69-1.83-3-6-7.26-6.25s-9.89,0-9.89,0S69.15,54,65.09,60.49,61.41,70.6,63.7,72.77a7,7,0,0,0,9,.91c3-2.16,9.27-7.88,9.27-7.88L94.16,82.17l.6,1.53h3.95"/><rect class="cls-1" x="105.41" y="81.04" width="4.38" height="4.38"/><rect class="cls-1" x="33.37" y="58.59" width="4.38" height="4.38"/></g></g></svg>