<svg xmlns="http://www.w3.org/2000/svg" viewBox="0 0 144.78 144.78"><defs><style>.cls-1{fill:#47b066;}.cls-2{fill:#fff;}</style></defs><title>hart</title><g id="Laag_2" data-name="Laag 2"><g id="Laag_1-2" data-name="Laag 1"><circle class="cls-1" cx="72.39" cy="72.39" r="72.39"/><circle class="cls-2" cx="57.59" cy="64.19" r="17.75"/><circle class="cls-2" cx="88.96" cy="64.19" r="17.75"/><path class="cls-2" d="M41.06,70.65a53.09,53.09,0,0,0,4,6.07c4.8,6.37,9.66,9.78,13.42,12.72a122.59,122.59,0,0,1,15.9,15A211.35,211.35,0,0,0,100.44,78c1.28-1.54,2.52-3.09,3.72-4.62q-1.95-6.23-3.89-12.45L62.46,64.19a89.79,89.79,0,0,0-10.77,2.52A88,88,0,0,0,41.06,70.65Z"/></g></g></svg>