<svg id="Laag_1" data-name="Laag 1" xmlns="http://www.w3.org/2000/svg" viewBox="0 0 128.82 111.73"><defs><style>.cls-1{fill:#47b066;}</style></defs><title>hart2</title><g id="Laag_1-2" data-name="Laag 1-2"><circle class="cls-1" cx="34.19" cy="34.19" r="34.19"/><circle class="cls-1" cx="94.62" cy="34.19" r="34.19"/><path class="cls-1" d="M8.51,63.86a100.76,100.76,0,0,0,7.7,11.69c9.25,12.27,18.61,18.84,25.85,24.51A236.45,236.45,0,0,1,72.69,129,405.94,405.94,0,0,0,122.89,78c2.47-3,4.86-6,7.17-8.9l-7.49-24L49.73,51.42A173.5,173.5,0,0,0,29,56.27,169.22,169.22,0,0,0,8.51,63.86Z" transform="translate(-6.16 -17.22)"/></g></svg>