<svg id="Layer_1" data-name="Layer 1" xmlns="http://www.w3.org/2000/svg" viewBox="0 0 500 500"><defs><style>.cls-1{fill:#7bcefd;}.cls-2{fill:#f5f5f5;}</style></defs><title>hearthleaf</title><path id="heart-solid" class="cls-1" d="M445.71,66.36C393.64,22,316.2,30,268.4,79.28L249.68,98.57,231,79.28C183.26,30,105.73,22,53.66,66.36-6,117.29-9.15,208.7,44.25,263.92L228.12,453.76a29.79,29.79,0,0,0,42.12.92c.32-.3.63-.61.93-.92L455,263.92c53.49-55.21,50.36-146.62-9.31-197.55Z"/><path id="leaf-solid" class="cls-2" d="M334.68,148.57a5.12,5.12,0,0,0-9.32-.4A56.51,56.51,0,0,1,276,177H249.6a62.15,62.15,0,0,0-62.76,70c21-15.06,51.37-27.84,94.41-27.84a5.27,5.27,0,0,1,0,10.54c-82.85,0-118,50.79-125.76,69.87a10.56,10.56,0,0,0,19.53,8,86.74,86.74,0,0,1,23.69-29.86,63.11,63.11,0,0,0,57.63,25.44c51.74-3.75,88.15-50.15,88.15-107a119.94,119.94,0,0,0-9.81-47.65Z"/></svg>