<svg id="Layer_1" data-name="Layer 1" xmlns="http://www.w3.org/2000/svg" xmlns:xlink="http://www.w3.org/1999/xlink" viewBox="0 0 1145.57 819.91"><defs><style>.cls-1,.cls-6,.cls-9{fill:#2ecc71;}.cls-1,.cls-7,.cls-8{opacity:0.1;}.cls-1,.cls-4,.cls-6,.cls-7,.cls-8{isolation:isolate;}.cls-2{fill:url(#linear-gradient);}.cls-3,.cls-4{fill:#fff;}.cls-4{opacity:0.04;}.cls-5,.cls-7{fill:#5a5773;}.cls-6{opacity:0.2;}.cls-10{fill:none;}</style><linearGradient id="linear-gradient" x1="555.29" y1="118" x2="555.29" y2="656.33" gradientTransform="matrix(1, 0, 0, -1, 0, 820)" gradientUnits="userSpaceOnUse"><stop offset="0" stop-color="gray" stop-opacity="0.25"/><stop offset="0.54" stop-color="gray" stop-opacity="0.12"/><stop offset="1" stop-color="gray" stop-opacity="0.1"/></linearGradient></defs><title>lock</title><path class="cls-1" d="M1091.42,607.14C1064.85,662,1010.9,698.6,955,722.77c-75.27,32.55-158.16,45.46-239.91,40q-21.5-1.42-42.85-4.57A540,540,0,0,1,529,716.48q-19.74-8.88-38.68-19.41a494.13,494.13,0,0,1-60.46-39.54q-7.23-5.52-14.26-11.32c-3.25-2.68-6.47-5.42-9.74-8.08-6.9-5.61-14-10.94-21.92-14.93q-3.58-1.8-7.34-3.24c-25.08-9.54-54-5.94-80.11,1.5-19.86,5.66-39.22,13.41-59.06,18.94a194.86,194.86,0,0,1-26.91,5.72A143.19,143.19,0,0,1,150,640.81l-1.67-.52q-4.2-1.32-8.33-2.89l-1.67-.64c-2.67-1-5.28-2.13-7.83-3.31l-1.67-.76q-4-1.86-7.83-3.93c-.92-.48-1.83-1-2.73-1.49a163.25,163.25,0,0,1-39.16-30.49c-.33-.33-.64-.67-1-1-1.59-1.72-3.15-3.47-4.66-5.26-.56-.66-1.12-1.32-1.67-2q-2.7-3.27-5.19-6.71c-.25-.33-.49-.67-.73-1A144.23,144.23,0,0,1,49,550.32c-.14-.33-.27-.67-.39-1q-2-5.15-3.65-10.47c-.45-1.48-.88-3-1.26-4.48-.13-.44-.25-.89-.36-1.33-5.52-21.73-6.15-44.32-6.15-66.78v-7.85c.16-36.33.72-73.28,6.08-109.11a4.55,4.55,0,0,1,.11-.74,338.79,338.79,0,0,1,7.31-35.82A264.18,264.18,0,0,1,63,276.44c12.33-29,30.26-55.39,50.17-79.85C163.34,135,229.11,83.37,306.09,64c83-20.83,175.14-.87,242.05,52.4,20.4,16.24,38.73,35.47,61.64,47.92,20,10.84,43.41,15.33,64.83,6.8,17.7-7.05,29.22-10.55,49.1-9.48a411.76,411.76,0,0,1,120.36,25.21c1.56.57,3.12,1.16,4.67,1.75C949.45,227.16,1036,303.71,1081,402.08q1.79,3.9,3.47,7.86C1111.32,472.61,1121,546.06,1091.42,607.14Z"/><rect class="cls-2" x="80.13" y="163.67" width="950.33" height="538.33" rx="12.49"/><rect class="cls-3" x="81.64" y="171.24" width="947.42" height="528.97" rx="12.49"/><rect class="cls-3" x="81.64" y="171.24" width="947.42" height="528.97" rx="12.49"/><rect class="cls-4" x="81.64" y="171.24" width="947.42" height="528.97" rx="12.49"/><path class="cls-5" d="M1024.25,165.17H86.45A4.81,4.81,0,0,0,81.64,170v20.33H1029V170A4.81,4.81,0,0,0,1024.25,165.17Z"/><circle class="cls-3" cx="100.56" cy="177.74" r="6.5"/><circle class="cls-3" cx="118.06" cy="177.74" r="6.5"/><circle class="cls-3" cx="135.56" cy="177.74" r="6.5"/><rect class="cls-6" x="159.67" y="237.59" width="254.25" height="21.58"/><rect class="cls-7" x="159.67" y="324.12" width="791.36" height="331.96"/><path class="cls-8" d="M623,345.77H609.47V319.45c0-29.7-23.68-54.39-53.38-54.84a54.29,54.29,0,0,0-54.85,53.71v27.45H487.72a22.62,22.62,0,0,0-22.55,22.55V476.54a22.62,22.62,0,0,0,22.55,22.55H623a22.62,22.62,0,0,0,22.54-22.55V368.32A22.62,22.62,0,0,0,623,345.77Zm-59.75,70.35v38.76a8.1,8.1,0,0,1-7.5,8.12,7.9,7.9,0,0,1-8.27-7.53c0-.12,0-.25,0-.37v-39a18,18,0,1,1,15.78,0Zm30.44-70.35H517v-27a38.33,38.33,0,1,1,76.66,0Z"/><path class="cls-9" d="M623,343.77H609.47V317.45c0-29.7-23.68-54.39-53.38-54.84a54.29,54.29,0,0,0-54.85,53.71v27.45H487.72a22.62,22.62,0,0,0-22.55,22.55V474.54a22.62,22.62,0,0,0,22.55,22.55H623a22.62,22.62,0,0,0,22.54-22.55V366.32A22.62,22.62,0,0,0,623,343.77Zm-59.75,70.35v38.76a8.1,8.1,0,0,1-7.5,8.12,7.9,7.9,0,0,1-8.27-7.53c0-.12,0-.25,0-.37v-39a18,18,0,1,1,15.78,0Zm30.44-70.35H517v-27a38.33,38.33,0,1,1,76.66,0Z"/><rect class="cls-7" x="870.93" y="292.17" width="80.1" height="18.91"/><path class="cls-10" d="M870.13,793.82s-4.28,5.32-10,5.73a5.89,5.89,0,0,0-5.84,5.63s1,3.24-12.83,7.73c-8.35,2.69-13.6,1.84-16.66,0,7.87-.82,25.26-5.79,27-7.51,2.09-2.09,4.7-7.83,6.47-7.93,1.23-.08,7.48-3.84,11.23-6.17Z"/></svg>