<svg id="Layer_1" data-name="Layer 1" xmlns="http://www.w3.org/2000/svg" viewBox="0 0 500 500"><defs><style>.cls-1,.cls-16,.cls-2{fill:#fff;}.cls-1,.cls-3,.cls-5{opacity:0.1;}.cls-1,.cls-10,.cls-14,.cls-16,.cls-17,.cls-5,.cls-7{isolation:isolate;}.cls-4{fill:#67647e;}.cls-6,.cls-8{fill:none;stroke:#535461;stroke-miterlimit:10;}.cls-7{fill:#f5f5f5;}.cls-10,.cls-16,.cls-7{opacity:0.2;}.cls-8{stroke-width:2px;}.cls-9{fill:#a8a8a8;}.cls-11{fill:#3a6f50;}.cls-12{fill:#ffd2d9;}.cls-13{fill:#2ceaa4;}.cls-14,.cls-15,.cls-17{opacity:0.05;}.cls-17{fill:lime;}.cls-18{fill:#20bc7d;}</style></defs><title>ninja_aangepast</title><g id="Group_22" data-name="Group 22"><path id="Path_455" data-name="Path 455" class="cls-1" d="M459.53,232.25c-2.63,10.67-16.16,16-23.74,24-14.28,15-8.72,36.91.34,54.46,3,5.88,6.48,12.1,5.19,18.4-1.56,7.71-9.88,13.34-18.62,16.33-15.92,5.44-35,4.14-49.63-3.38-12.65-6.51-21.71-17.06-34.57-23.29-21.53-10.38-48.93-6.44-72.31.7-16.53,5.06-34.62,11.64-51.05,6.36-11.56-3.73-19.56-12.79-23.91-22.37-2.1-4.63-3.63-9.65-7.64-13.33a29.41,29.41,0,0,0-8.7-5c-29.14-11.94-66-5.54-94.25-18.79-19.11-8.94-31.36-25.81-36.77-43.41s-4.79-36-3.41-54.16c1-12.89,2.73-26.62,12.68-36.56,10.53-10.51,28.61-14.4,45-12.42s31.14,9.12,44.17,17.51c16.3,10.48,31.38,23.53,51.37,27.78,13.61,2.89,27.93,1.31,42,.76,23.47-.92,47,1.13,70.3,3.35,11.37,1.08,22.78,2.23,34.05,3.88q3.8.56,7.59,1.19l3.79.67,2.95.56c1.55.3,3.09.62,4.63.95q6.63,1.43,13.13,3.24c15.06,4.25,27.14,12,41.37,17.36,9.27,3.51,19.38,4.48,28.16,9C452.38,211.43,462.3,221,459.53,232.25Z"/><circle id="Ellipse_214" data-name="Ellipse 214" class="cls-2" cx="383.32" cy="250.36" r="38.75"/><circle id="Ellipse_215" data-name="Ellipse 215" class="cls-2" cx="342.1" cy="239.77" r="38.75"/><circle id="Ellipse_216" data-name="Ellipse 216" class="cls-2" cx="296.73" cy="240.15" r="38.75"/><circle id="Ellipse_217" data-name="Ellipse 217" class="cls-2" cx="281.99" cy="250.36" r="38.75"/><circle id="Ellipse_218" data-name="Ellipse 218" class="cls-2" cx="257.03" cy="253.76" r="38.75"/><circle id="Ellipse_219" data-name="Ellipse 219" class="cls-2" cx="246.82" cy="223.13" r="38.75"/><circle id="Ellipse_220" data-name="Ellipse 220" class="cls-2" cx="258.16" cy="187.59" r="38.75"/><circle id="Ellipse_221" data-name="Ellipse 221" class="cls-2" cx="279.71" cy="187.59" r="38.75"/><circle id="Ellipse_222" data-name="Ellipse 222" class="cls-2" cx="292.19" cy="171.71" r="38.75"/><circle id="Ellipse_223" data-name="Ellipse 223" class="cls-2" cx="323.95" cy="189.1" r="38.75"/><circle id="Ellipse_224" data-name="Ellipse 224" class="cls-2" cx="398.06" cy="223.13" r="38.75"/><circle id="Ellipse_225" data-name="Ellipse 225" class="cls-2" cx="375.75" cy="203.85" r="38.75"/><circle id="Ellipse_226" data-name="Ellipse 226" class="cls-2" cx="361.39" cy="184.56" r="38.75"/><circle id="Ellipse_227" data-name="Ellipse 227" class="cls-2" cx="334.16" cy="155.45" r="38.75"/><circle id="Ellipse_228" data-name="Ellipse 228" class="cls-2" cx="384.83" cy="187.59" r="38.75"/><g id="Group_13" data-name="Group 13" class="cls-3"><circle id="Ellipse_229" data-name="Ellipse 229" cx="383.32" cy="250.36" r="38.75"/><circle id="Ellipse_230" data-name="Ellipse 230" cx="342.1" cy="239.77" r="38.75"/><circle id="Ellipse_231" data-name="Ellipse 231" cx="296.73" cy="240.15" r="38.75"/><circle id="Ellipse_232" data-name="Ellipse 232" cx="281.99" cy="250.36" r="38.75"/><circle id="Ellipse_233" data-name="Ellipse 233" cx="257.03" cy="253.76" r="38.75"/><circle id="Ellipse_234" data-name="Ellipse 234" cx="246.82" cy="223.13" r="38.75"/><circle id="Ellipse_235" data-name="Ellipse 235" cx="258.16" cy="187.59" r="38.75"/><circle id="Ellipse_236" data-name="Ellipse 236" cx="279.71" cy="187.59" r="38.75"/><circle id="Ellipse_237" data-name="Ellipse 237" cx="292.19" cy="171.71" r="38.75"/><circle id="Ellipse_238" data-name="Ellipse 238" cx="323.95" cy="189.1" r="38.75"/><circle id="Ellipse_239" data-name="Ellipse 239" cx="398.06" cy="223.13" r="38.75"/><circle id="Ellipse_240" data-name="Ellipse 240" cx="375.75" cy="203.85" r="38.75"/><circle id="Ellipse_241" data-name="Ellipse 241" cx="361.39" cy="184.57" r="38.75"/><circle id="Ellipse_242" data-name="Ellipse 242" cx="334.16" cy="155.45" r="38.75"/><circle id="Ellipse_243" data-name="Ellipse 243" cx="384.83" cy="187.59" r="38.75"/></g><path id="Path_456" data-name="Path 456" class="cls-4" d="M364.18,318.27s23.69-19.91,12-48.27l-11.72-4.39-12.72,39.16Z"/><path id="Path_457" data-name="Path 457" class="cls-5" d="M365.44,264.26l2.8,1.05-12.48,38.45,10.89,11.79c-.9.9-1.46,1.37-1.46,1.37l-12.47-13.5Z"/><path id="Path_458" data-name="Path 458" class="cls-2" d="M409.05,314.09a18.41,18.41,0,0,0-3.35,19.15c4.35,11.43-7.46,30.45-7.46,30.45l.38-.06a22.44,22.44,0,0,0,14.89-34.35C410.22,324.29,407.53,318.42,409.05,314.09Z"/><path id="Path_459" data-name="Path 459" class="cls-6" d="M409.05,314.09s-4.35,9.45,0,17.16.76,29.33-10.81,32.44"/><path id="Path_460" data-name="Path 460" class="cls-2" d="M422.78,345.27s-8.79-1.4-9.59,6.48-16.92,9-16.92,9l.3.2c13.3,8.72,26,5.57,24.1-6C420,350.58,420,346.25,422.78,345.27Z"/><path id="Path_461" data-name="Path 461" class="cls-7" d="M422.78,345.27s-8.79-1.4-9.59,6.48-16.92,9-16.92,9l.3.2c13.3,8.72,26,5.57,24.1-6C420,350.58,420,346.25,422.78,345.27Z"/><path id="Path_462" data-name="Path 462" class="cls-6" d="M422.78,345.27s-6.82,1.51-6.27,7.7-10.13,13.65-20.24,7.75"/><path id="Path_463" data-name="Path 463" class="cls-4" d="M257.17,276.79l3.08,12.32S282,292,296.5,290.17a18.89,18.89,0,0,0,7.23-2.61c1.23-.72,3.16-1,5.8.94,4.53,3.41,26.74,30.71,23.14,59a9.79,9.79,0,0,1-8.4,8.44,29.47,29.47,0,0,0-12.39,4.68l-11,7.32,112.72-2.46-11.7-14.17s-8-6.77-14.17-7.39c-1.79-.18-3.28-1.83-4.47-4.07a269.24,269.24,0,0,0-24.51-37.28c-6.63-8.59-12.19-17.64-11.67-23.33,1.23-13.55,0-35.72,0-35.72l-23.41-3.08s3.08,29.57-25.25,37S257.17,276.79,257.17,276.79Z"/><g id="Group_14" data-name="Group 14" class="cls-3"><path id="Path_464" data-name="Path 464" d="M276.27,282.34s12.93,8,41.27.61S342.8,246,342.8,246l4.45.58c-.08-1.9-.15-3-.15-3l-23.4-3.07s3.08,29.57-25.26,37-41.27-.61-41.27-.61l3.08,12.32s8.31,1.08,18.08,1.49Z"/><path id="Path_465" data-name="Path 465" d="M331,366.19a29.45,29.45,0,0,1,12.38-4.69h0a9.78,9.78,0,0,0,8.41-8.4c3.61-28.32-18.61-55.66-23.13-59.06-4.92-3.69-7.39.62-7.39.62a41.43,41.43,0,0,1-5.31,1c8,10.61,19.41,31,16.74,51.89a9.78,9.78,0,0,1-8.4,8.39h0a29.62,29.62,0,0,0-12.39,4.69l-11,7.32,28.35-.62Z"/></g><path id="Path_466" data-name="Path 466" class="cls-8" d="M276,336.56s-2.35-8,.44-13.88a12.58,12.58,0,0,0,1-7.92,21.29,21.29,0,0,0-1.14-3.72"/><path id="Path_467" data-name="Path 467" class="cls-2" d="M278.12,307.33c0,1-1.77,3.82-1.77,3.82s-1.77-2.85-1.77-3.82a1.78,1.78,0,0,1,3.55,0h0Z"/><path id="Path_468" data-name="Path 468" class="cls-2" d="M281.05,312.75c-.53.82-3.56,2.25-3.56,2.25s.06-3.35.59-4.17a1.77,1.77,0,1,1,3,1.84l-.06.09Z"/><path id="Path_469" data-name="Path 469" class="cls-2" d="M280.92,322c-.87.44-4.2.13-4.2.13s1.73-2.86,2.61-3.3a1.77,1.77,0,0,1,1.59,3.17Z"/><path id="Path_470" data-name="Path 470" class="cls-2" d="M279.25,329c-.79.58-4.13.84-4.13.84s1.23-3.11,2-3.69a1.77,1.77,0,0,1,2.11,2.85Z"/><path id="Path_471" data-name="Path 471" class="cls-2" d="M273.76,315.19c.7.68,4,1.39,4,1.39s-.8-3.25-1.52-3.93a1.77,1.77,0,0,0-2.47,2.54h0Z"/><path id="Path_472" data-name="Path 472" class="cls-2" d="M271.91,323.39c.87.44,4.2.13,4.2.13s-1.73-2.86-2.61-3.3a1.77,1.77,0,1,0-1.59,3.17Z"/><path id="Path_473" data-name="Path 473" class="cls-2" d="M271.19,331.61c.79.58,4.13.85,4.13.85s-1.23-3.12-2-3.7a1.77,1.77,0,0,0-2.11,2.85Z"/><path id="Path_474" data-name="Path 474" class="cls-9" d="M270.92,335.78s4.3-.86,5.44-2,6.31-3.15,6.89-1.72,7.74,6.3,2.86,7.17-11.47,1.13-12.88.57S270.92,335.78,270.92,335.78Z"/><path id="Path_475" data-name="Path 475" class="cls-10" d="M286.12,338.7c-4.88.86-11.47,1.13-12.89.57-1.09-.44-1.85-2.54-2.15-3.51l-.14,0s.86,3.44,2.29,4,8,.29,12.89-.57c1.41-.25,1.81-.83,1.66-1.57C287.65,338.13,287.16,338.5,286.12,338.7Z"/><path id="Path_476" data-name="Path 476" class="cls-9" d="M342.25,362.75s13.05-2.61,16.54-6.09,19.14-9.57,20.88-5.22,23.5,19.14,8.72,21.76-34.81,3.48-39.16,1.74S342.25,362.75,342.25,362.75Z"/><path id="Path_477" data-name="Path 477" class="cls-10" d="M388.37,371.58c-14.78,2.61-34.8,3.48-39.16,1.74-3.31-1.33-5.61-7.7-6.52-10.66l-.44.09s2.61,10.45,7,12.19,24.37.87,39.16-1.74c4.27-.76,5.49-2.53,5-4.76C393,369.9,391.55,371,388.37,371.58Z"/><path id="Path_478" data-name="Path 478" class="cls-2" d="M430.59,288.58a8.17,8.17,0,0,1-1.4,4.36,8.29,8.29,0,0,1-1.43-4.35c0-2.41.62-4.36,1.41-4.37S430.59,286.17,430.59,288.58Z"/><path id="Path_479" data-name="Path 479" class="cls-2" d="M323.58,286.47a8.19,8.19,0,0,1-1.42,4.35,8.36,8.36,0,0,1-1.42-4.35c0-2.41.64-4.36,1.42-4.36S323.58,284.06,323.58,286.47Z"/><path id="Path_480" data-name="Path 480" class="cls-2" d="M440.21,329.42a8.22,8.22,0,0,1,1.42,4.36,8.24,8.24,0,0,1-3.71-2.69c-1.42-1.95-2.05-3.9-1.42-4.36S438.8,327.48,440.21,329.42Z"/><path id="Path_481" data-name="Path 481" class="cls-2" d="M394.92,306.6a8.27,8.27,0,0,1-1.41,4.36,8.19,8.19,0,0,1-1.42-4.36c0-2.41.63-4.36,1.42-4.36S394.92,304.2,394.92,306.6Z"/><path id="Path_482" data-name="Path 482" class="cls-2" d="M368.43,292.12a8.27,8.27,0,0,1-1.41,4.36,8.19,8.19,0,0,1-1.42-4.36c0-2.41.63-4.36,1.42-4.36S368.43,289.71,368.43,292.12Z"/><path id="Path_483" data-name="Path 483" class="cls-2" d="M352,301a8.31,8.31,0,0,1,.94,4.49,8.41,8.41,0,0,1-3.42-3.08c-1.19-2.09-1.61-4.1-.93-4.49S350.81,298.86,352,301Z"/><path id="Path_484" data-name="Path 484" class="cls-2" d="M339.72,341a8.2,8.2,0,0,1-4.15,1.95,8.21,8.21,0,0,1,2.21-4c1.76-1.65,3.62-2.52,4.15-1.95S341.48,339.35,339.72,341Z"/><path id="Path_485" data-name="Path 485" class="cls-5" d="M339.72,341a8.2,8.2,0,0,1-4.15,1.95,8.21,8.21,0,0,1,2.21-4c1.76-1.65,3.62-2.52,4.15-1.95S341.48,339.35,339.72,341Z"/><path id="Path_486" data-name="Path 486" class="cls-2" d="M365.5,338.52a8.2,8.2,0,0,1-4.15,2,8.29,8.29,0,0,1,2.21-4c1.76-1.65,3.62-2.52,4.15-1.95S367.26,336.87,365.5,338.52Z"/><path id="Path_487" data-name="Path 487" class="cls-5" d="M365.5,338.52a8.2,8.2,0,0,1-4.15,2,8.29,8.29,0,0,1,2.21-4c1.76-1.65,3.62-2.52,4.15-1.95S367.26,336.87,365.5,338.52Z"/><path id="Path_488" data-name="Path 488" class="cls-2" d="M370.45,364.66a8.4,8.4,0,0,1-4.15,1.95,8.27,8.27,0,0,1,2.21-4c1.75-1.65,3.62-2.52,4.15-1.95S372.21,363,370.45,364.66Z"/><path id="Path_489" data-name="Path 489" class="cls-5" d="M370.45,364.66a8.4,8.4,0,0,1-4.15,1.95,8.27,8.27,0,0,1,2.21-4c1.75-1.65,3.62-2.52,4.15-1.95S372.21,363,370.45,364.66Z"/><path id="Path_495" data-name="Path 495" class="cls-9" d="M409.35,362.8s6.49-1.29,8.22-3,9.51-4.73,10.38-2.58,11.67,9.45,4.32,10.73-17.3,1.72-19.46.86S409.35,362.8,409.35,362.8Z"/><path id="Path_496" data-name="Path 496" class="cls-10" d="M432.28,367.16c-7.35,1.29-17.29,1.72-19.45.86-1.65-.66-2.79-3.79-3.25-5.26l-.21.05s1.29,5.15,3.46,6,12.1.43,19.45-.86c2.13-.38,2.73-1.25,2.51-2.35C434.59,366.32,433.85,366.88,432.28,367.16Z"/><circle id="Ellipse_245" data-name="Ellipse 245" class="cls-2" cx="383.32" cy="241.66" r="38.75"/><circle id="Ellipse_246" data-name="Ellipse 246" class="cls-2" cx="342.1" cy="231.07" r="38.75"/><circle id="Ellipse_247" data-name="Ellipse 247" class="cls-2" cx="296.73" cy="231.45" r="38.75"/><circle id="Ellipse_248" data-name="Ellipse 248" class="cls-2" cx="281.99" cy="241.66" r="38.75"/><circle id="Ellipse_249" data-name="Ellipse 249" class="cls-2" cx="257.03" cy="245.06" r="38.75"/><circle id="Ellipse_250" data-name="Ellipse 250" class="cls-2" cx="246.82" cy="214.44" r="38.75"/><circle id="Ellipse_251" data-name="Ellipse 251" class="cls-2" cx="258.16" cy="178.89" r="38.75"/><circle id="Ellipse_252" data-name="Ellipse 252" class="cls-2" cx="279.71" cy="178.89" r="38.75"/><circle id="Ellipse_253" data-name="Ellipse 253" class="cls-2" cx="292.19" cy="163.01" r="38.75"/><circle id="Ellipse_254" data-name="Ellipse 254" class="cls-2" cx="323.95" cy="180.41" r="38.75"/><circle id="Ellipse_255" data-name="Ellipse 255" class="cls-2" cx="398.06" cy="214.44" r="38.75"/><circle id="Ellipse_256" data-name="Ellipse 256" class="cls-2" cx="375.75" cy="195.15" r="38.75"/><circle id="Ellipse_257" data-name="Ellipse 257" class="cls-2" cx="361.39" cy="175.87" r="38.75"/><circle id="Ellipse_258" data-name="Ellipse 258" class="cls-2" cx="334.16" cy="146.75" r="38.75"/><circle id="Ellipse_259" data-name="Ellipse 259" class="cls-2" cx="384.83" cy="178.89" r="38.75"/><path id="Path_497" data-name="Path 497" class="cls-5" d="M421.9,185S385.81,167.85,364,198.18"/><path id="Path_498" data-name="Path 498" class="cls-5" d="M327.1,150.29s-39.93-1.21-47.77,35.34"/><path id="Path_499" data-name="Path 499" class="cls-5" d="M277.47,229.58s-36.1-17.12-57.93,13.21"/><path id="Path_510" data-name="Path 510" class="cls-2" d="M72.31,380.3a4.41,4.41,0,0,0,1.46-2.19,2,2,0,0,0-1-2.24c-.93-.35-1.93.29-2.68.95s-1.63,1.4-2.61,1.26a4,4,0,0,0,1.22-3.72,1.55,1.55,0,0,0-.34-.76c-.52-.55-1.45-.32-2.08.12-2,1.39-2.52,4.06-2.53,6.47a13,13,0,0,1,0-2.65,2.73,2.73,0,0,0-1-2.36,3,3,0,0,0-1.51-.36,3.17,3.17,0,0,0-2.48.71,2.43,2.43,0,0,0,.1,3,9.91,9.91,0,0,0,2.56,2.06,5.57,5.57,0,0,1,1.84,1.74,2,2,0,0,1,.13.31h5.56A15.48,15.48,0,0,0,72.31,380.3Z"/><path id="Path_511" data-name="Path 511" class="cls-2" d="M417.29,385.6a4.42,4.42,0,0,0,1.45-2.19,1.94,1.94,0,0,0-1-2.23c-.93-.36-1.93.29-2.68.94a3.55,3.55,0,0,1-2.61,1.26,4,4,0,0,0,1.23-3.72,1.61,1.61,0,0,0-.34-.75c-.52-.56-1.46-.32-2.08.12-2,1.38-2.52,4.06-2.53,6.47a11.74,11.74,0,0,1,0-2.65,2.75,2.75,0,0,0-1-2.36,3.1,3.1,0,0,0-1.52-.36,3.17,3.17,0,0,0-2.48.71,2.43,2.43,0,0,0,.1,3,9.93,9.93,0,0,0,2.57,2.05,5.77,5.77,0,0,1,1.83,1.75,1.73,1.73,0,0,1,.14.31h5.55A15,15,0,0,0,417.29,385.6Z"/><path id="Path_512" data-name="Path 512" class="cls-11" d="M288.07,383.55s-.38,5.94.38,6.92c0,0-17.41,3.17-19.59,2.18s-1.18-2.57,0-3.17,7.13-2.77,7.91-6.92c0,0-2.57-1.19,5.74.38S288.07,383.55,288.07,383.55Z"/><path id="Path_513" data-name="Path 513" class="cls-5" d="M288.06,383.06s-.38,5.93.38,6.92c0,0-17.41,3.16-19.59,2.17s-1.18-2.57,0-3.16,7.13-2.77,7.91-6.92c0,0-2.57-1.19,5.74.38S288.06,383.06,288.06,383.06Z"/><path id="Path_514" data-name="Path 514" class="cls-11" d="M355.92,326s-2.18,3.56-.79,10.49-3.56,6.92-3.56,6.92h-9.89l-3.36-8.72,4.75.38s3.16-.79,1.78-8.11Z"/><path id="Path_515" data-name="Path 515" class="cls-12" d="M326.25,317.68c1.52,4.81,3.41,10.68,4.42,13.81l.72,2.21,6.53-6.73s-.29-.66-.71-1.59c-1-2.07-2.62-5.45-3.44-5.73,0,0,9.09-.59,11.87,1.59s2-5.94,2-5.94-5.35-.38-7.33-1.58-12.66-2.38-12.66-2.38S324.07,310.75,326.25,317.68Z"/><path id="Path_516" data-name="Path 516" class="cls-13" d="M266.9,375.85l1.38,10.08,3.56-.37.58-.54a23.94,23.94,0,0,1,4.87-3.41,5.82,5.82,0,0,1,2.07-.61l-4-5.94a21.68,21.68,0,0,1-2.95.87,13.69,13.69,0,0,1-3.18.38A5.66,5.66,0,0,1,266.9,375.85Z"/><path id="Path_517" data-name="Path 517" class="cls-11" d="M276.79,383c1.78,1.58,9.89-1.78,11.28,3.36l1.27-4.87,3.92-15,.54-2.06,3.27-.14,37.5-1.6,2.13-.09,1.13-.05-1.48-.74-9.89-4.9s-3.57-.25-8.48-.92h0c-7.45-1-18-3-24-6.6-9.89-5.93-13.65,14.05-13.65,14.05s-1.51,5.07-2.65,10.06a58.24,58.24,0,0,0-1.19,6.54C276.35,381.51,276.41,382.62,276.79,383Z"/><path id="Path_518" data-name="Path 518" class="cls-14" d="M276.81,382.46c1.79,1.58,9.89-1.78,11.28,3.36l1.28-4.88,3.92-15,.54-2.06,3.37-.21,36.23-2.23,2.24-.14.69,0,.89-.06-10.78-4.85s-3.57-.25-8.48-.92h0c-7.45-1-18-3-24-6.6-9.89-5.93-13.65,14.05-13.65,14.05s-1.51,5.07-2.65,10.06a58.24,58.24,0,0,0-1.19,6.54C276.38,381,276.43,382.11,276.81,382.46Z"/><path id="Path_519" data-name="Path 519" class="cls-5" d="M272.45,375.92l3.46,4.06,1.38,1.62a6,6,0,0,1,2.07-.62l-4-5.94A21.31,21.31,0,0,1,272.45,375.92Z"/><path id="Path_520" data-name="Path 520" class="cls-11" d="M272.64,375.44l3.87,4.55,1.86,2.19v.59c2.28.53,9.4-1,11-1.32l.31-.06c4.55.19,21.36-9.7,21.36-9.7s18.4,3.17,27.3,2.38c5-.45,6.36-2.24,6.62-3.75a3.84,3.84,0,0,0-.29-2.19l-8-5.59-1.06-.76-1.68-1.19-6.64-1.48h0c-5.81-1.28-13.55-2.94-15.11-3.06-2.57-.2-9.1,2-12.86,6.33a10.91,10.91,0,0,1-2.17,1.77l-.1.07c-1.06.7-2.36,1.44-3.79,2.2-4.79,2.53-11.17,5.24-15.56,7C274.7,374.66,272.64,375.44,272.64,375.44Z"/><path id="Path_521" data-name="Path 521" class="cls-5" d="M266.9,375.85l1.38,10.08,3.56-.37.58-.54a2.12,2.12,0,0,1-2.36-1.84s1.37-4.79-.79-6.86A5.83,5.83,0,0,1,266.9,375.85Z"/><path id="Path_522" data-name="Path 522" class="cls-11" d="M269.65,383.16s2-6.93-2.57-7.72l-7.51,3-8.72.6s-2.28,3.71,1.37,7.87a11.15,11.15,0,0,0,7.93,3.75l9.5.44,3-6.12S270.06,385.53,269.65,383.16Z"/><path id="Path_523" data-name="Path 523" class="cls-5" d="M318,355.92c1,.29,5.12,1.52,9.34,3.2h0a50.81,50.81,0,0,1,6.09,2.81q.62.35,1.17.69a10.26,10.26,0,0,1,2.55,2.14,18.73,18.73,0,0,0,7.81,5.55,3.84,3.84,0,0,0-.29-2.19l-8-5.59,1.13,0-1.48-.74.89-.05-10.78-4.85S322.88,356.6,318,355.92Z"/><path id="Path_524" data-name="Path 524" class="cls-5" d="M330.69,331.49l.72,2.21,6.53-6.72s-.29-.67-.72-1.6C336.37,327.12,332.44,330.17,330.69,331.49Z"/><path id="Path_525" data-name="Path 525" class="cls-11" d="M354.23,334.77a12.16,12.16,0,0,0,.51-2.06l8.5,3s5.83,4.45,5.24,14.15c0,0-7.2-2.66-10.38.49l-.07.56a25.75,25.75,0,0,1-7,14.71,20.13,20.13,0,0,0-3.85,5.31,19.25,19.25,0,0,1-8.9-5.94c-3.36-4.35-19.38-8.89-19.38-8.89s8.51.2,9.7-2.77,5.14-9.3,3.76-14.24a44.31,44.31,0,0,0-2.18-6.53s8.11-5.73,7.52-7.51l5.14,5.93,2.38.79a3.83,3.83,0,0,0-.29,1.45C344.83,338.54,352.42,339.83,354.23,334.77Z"/><path id="Path_526" data-name="Path 526" class="cls-5" d="M345.14,329.57a20.4,20.4,0,0,0-.3-2.2l11.08-1s-.76.66-1.1,3.13c-1.3.76-2.82,1.82-4.44,1.82A8.7,8.7,0,0,1,345.14,329.57Z"/><circle id="Ellipse_260" data-name="Ellipse 260" class="cls-11" cx="350.28" cy="322.32" r="8.7"/><g id="Group_15" data-name="Group 15" class="cls-15"><path id="Path_527" data-name="Path 527" d="M341.34,329.17l-.65-.22-3-3.45a.81.81,0,0,0,0-.51Z"/><path id="Path_528" data-name="Path 528" d="M345.5,335.55a4.49,4.49,0,0,1-2.72-4.36v-.33l.06.07,2.37.79a4,4,0,0,0-.28,1.45A4.71,4.71,0,0,0,345.5,335.55Z"/><path id="Path_529" data-name="Path 529" d="M322.43,355.89c4.95,1.73,11.67,4.44,13.71,7.09l.15.19c-5.43-3.73-17.36-7.12-17.36-7.12A31.53,31.53,0,0,0,322.43,355.89Z"/><path id="Path_530" data-name="Path 530" d="M345,368.91a20,20,0,0,1,3.84-5.3,25.73,25.73,0,0,0,7-14.72l.06-.56c3.17-3.16,10.39-.49,10.39-.49a17.81,17.81,0,0,0-3.5-12.32l.44.16s5.83,4.45,5.24,14.14c0,0-7.2-2.65-10.39.49l-.06.56a25.73,25.73,0,0,1-7,14.72,20.11,20.11,0,0,0-3.84,5.3A19.75,19.75,0,0,1,339,365.8,20.33,20.33,0,0,0,345,368.91Z"/></g><path id="Path_531" data-name="Path 531" class="cls-12" d="M347.22,345.77s9.47,13.64,14.44,17.6,6.33-1.78,6.33-1.78V348.93l-8.72-1-.1,1.2-.1,1.38L351,341.8s-8.11-7.32-9.69-3S347.22,345.77,347.22,345.77Z"/><path id="Path_532" data-name="Path 532" class="cls-5" d="M359.19,349.14a19.15,19.15,0,0,0,3.76,1.67,8.5,8.5,0,0,0,5-.4v-1.48l-8.72-1Z"/><path id="Path_533" data-name="Path 533" class="cls-11" d="M368.09,347.65l.51,2.11s-3.1,1.45-5.67.66A22.57,22.57,0,0,1,358,348c-.38-.19,1.58-2.37,1.58-2.37Z"/><path id="Path_534" data-name="Path 534" class="cls-5" d="M311.11,371.78a16,16,0,0,0-4.35-2.38,15.62,15.62,0,0,1-4.17-2.17"/><path id="Path_535" data-name="Path 535" class="cls-16" d="M250.87,379l.33,0c-.47,1.19-1.14,4.11,1.63,7.3a11.2,11.2,0,0,0,7.92,3.75l9.21.43-.3.61-9.51-.44a11.2,11.2,0,0,1-7.91-3.75C248.6,382.71,250.87,379,250.87,379Z"/><path id="Path_536" data-name="Path 536" class="cls-17" d="M284.47,387.48a3.57,3.57,0,0,1-.1.35C284.18,387.72,283.9,387.51,284.47,387.48Z"/><path id="Path_537" data-name="Path 537" class="cls-16" d="M268.9,392.06c2,.92,17.27-1.77,19.33-2.14a1.5,1.5,0,0,0,.23.55s-17.4,3.17-19.58,2.18c-1.14-.51-1.4-1.18-1.25-1.78A2.05,2.05,0,0,0,268.9,392.06Z"/><path id="Path_538" data-name="Path 538" class="cls-12" d="M355.92,321.12c.32,1.1-1,2.81-2.36,3-1.18.2-1.54-.83-3.18-1.28-2.92-.82-5,1.55-6.16.56-.79-.66-.76-2.44,0-3.43.95-1.22,2.84-1,6.16-.64C353.49,319.72,355.58,320,355.92,321.12Z"/><path id="Path_539" data-name="Path 539" class="cls-13" d="M347.29,345.87l4.16-3.57,3.41,3.7L350,349.63Z"/><path id="Path_540" data-name="Path 540" class="cls-13" d="M343.17,317.31a8.5,8.5,0,0,1,2.12-2.11l10.95.77h.44a4.66,4.66,0,0,0,2.3-.81,15.05,15.05,0,0,1,4.07-2,9.59,9.59,0,0,0,2.51-.73,4.1,4.1,0,0,1,1.06-.44,4.28,4.28,0,0,1,1.07-.11c.16,0,.27.11.26.18a.24.24,0,0,1-.26.14,2.94,2.94,0,0,0-.51,0,3.23,3.23,0,0,0-1.5.83c-.68.57-.92.37-2.21,1a19.07,19.07,0,0,0-3.43,2.34,5.89,5.89,0,0,1-2,1.08,3.34,3.34,0,0,1-.42.11Z"/><path id="Path_541" data-name="Path 541" class="cls-18" d="M356.23,316l1.39,1.67a5.28,5.28,0,0,0,1.57-.61L356.94,316l-.23,0Z"/></g></svg>