<svg id="Laag_1" data-name="Laag 1" xmlns="http://www.w3.org/2000/svg" viewBox="0 0 390.85 433.81"><defs><style>.cls-1{fill:#53e093;}</style></defs><title>panda</title><path class="cls-1" d="M265.07,370.19l1.7-.29c7.48,13.25,14.57,26.73,22.55,39.67,8.42,13.63,16.35,27.93,26.87,39.85,21.93,24.84,49.74,34.52,82.53,25.39,4.9-1.36,9.46-4.66,13.61-7.81,2.7-2,3.23-5,.95-8.75a107.51,107.51,0,0,1-9.2-19.2c-7.74-21.36-6.07-43.82-6.58-65.93-.19-7.75,2.88-15.29,10.42-19.8,8.34-5,16.25-3.29,20.21,4.76,1.36,2.77,2.77,6,2.65,8.95-.69,16.36-1.89,32.71-2.81,49.06-.48,8.55-.92,17.1-1.09,25.66-.22,10.84,6.5,15.21,17.52,15.76,14,.71,26.91-3,39.23-9.31,13.13-6.68,24.72-15.08,30.8-29.13,11.54-26.7,21.5-53.88,28.07-82.35,4.91-21.27,8-42.76,8-64.42-.06-16.63-2.7-33.28-4.83-49.84-.75-5.83-3.4-11.41-5.19-17.1a221.08,221.08,0,0,0-3.52,22.18c-2.56,20.11-10,38.17-24.34,52.64-17.21,17.34-38.54,25-62.83,23.54-7.41-.45-12.33,1.75-16.11,8a26.09,26.09,0,0,1-7.38,7.85c-7.29,5-14.59,2.69-21.52-1.23S391.61,313,383.2,315.2c-13,3.45-23.53,1.53-28.35-14.54-.29-.94-.69-1.86-1.07-2.77a15.59,15.59,0,0,0-10.29-9.54c-10.16-3.42-20.85-7-29.42-13.1-23-16.48-33.37-40.41-33.76-68.15-.16-11.4,2.77-22.93,5-34.26a119.14,119.14,0,0,1,20-47.19c6-8.28,6.17-8.2,15.29-4.17,4.8,2.13,9.35,2.68,13.21-1.61,5.35-6,12-9.85,19.35-12.66,5.73-2.19,11.5-4.32,17.12-6.75A5.35,5.35,0,0,0,373.17,97a72.36,72.36,0,0,0-1.47-29c-3.46-13.17-12.59-21.75-25.47-23.25a49.77,49.77,0,0,0-11-.11C319,46.41,305.58,53.2,297.31,67.84c-3.23,5.73-5.67,12.18-3.18,18.93a193,193,0,0,0,8.19,19c1.69,3.41.93,4.94-1.94,7.22-8.94,7.11-18.38,13.89-26.07,22.23C246,166,236,202.54,241.41,243.9c1.15,8.69,1,18.22-1.45,26.55a74.22,74.22,0,0,0-2,31.9c.45,3.12.54,6.3.79,9.45l-1.8.68c-23.05-16.11-39.65-37.62-48.3-64.38-18.27-56.56-2.26-103.24,43.14-140.92-2.32.27-4.72.48-6.51,1.64a193.88,193.88,0,0,0-17.12,11.94c-22.58,18.31-35.85,42.43-43.26,70.17-3.35,12.55-5.75,25.22-5.26,38.23.53,14.21.29,28.57,2.45,42.54,2.48,16.07,5.7,31.89,5.29,48.32a105,105,0,0,0,2.46,27.14,193.77,193.77,0,0,0,11.49,33.15c7.92,17.67,19.52,32.47,38,40.31,12.34,5.23,25.28,7.09,38.48,4.07,9.21-2.11,16.34-6.84,11.61-20.39-2.86-8.16-4-17-5.39-25.57C263.64,376,264.7,373,265.07,370.19ZM504.88,65.54c-3.51.79-7.26,1.06-10.49,2.49C481.17,73.86,474.31,84.72,470,98.17c-3.24,10.11.53,16.1,9.95,18.94.95.29,1.83.83,2.79,1.06,8.93,2.16,14.7,7.85,18.27,16.1a26.18,26.18,0,0,0,2.66,4.77c3.11,4.4,7.67,6,12.62,4.38a59.05,59.05,0,0,0,24-14.54c7.42-7.57,9.91-17.13,8.26-27C545.38,82.87,524.4,66.18,504.88,65.54ZM465.81,271.29c8.38,1.58,17.5-8.58,20.77-15.42,7.38-15.47,1.92-40.47-11-51.82-9.4-8.23-21.16-9.27-30.52-2.29-7.8,5.82-11.32,14.49-14.36,23.35a3.36,3.36,0,0,0,.21,2.24c4.14,9,8.59,17.8,12.47,26.88C448.37,266,455,271.28,465.81,271.29ZM319.63,228.76c2.14,5.44,3.59,11.31,6.56,16.25,6.33,10.52,16.49,13.12,26.83,6.57,5-3.16,9.06-8,13-12.64,4.66-5.5,8.35-11.84,13.15-17.2,2.3-2.56,3.27-4.89,2.7-7.91a99,99,0,0,0-3.13-13.47c-4.86-14.41-17.44-19.92-31.35-14C332.41,192.69,320.09,212.15,319.63,228.76Zm65,49.6c-2,.27-2.69.36-3.35.43-7,.75-11,3.31-11.35,7.62-.52,6.2,4.5,7.44,8.73,9.16,4.58,1.85,8.54,4.17,10.49,9.11,1.32,3.34,4.37,4.87,7.15,2.47,6-5.16,13.12-6.81,20.46-8.22,4-.77,5.44-3.26,5.2-7.12-.26-4.19-3.72-8-10.23-9.29C402.35,280.67,392.8,279.58,384.64,278.36Z" transform="translate(-159.62 -44.38)"/><path class="cls-1" d="M265.07,370.19c-.37,2.85-1.43,5.82-1,8.54,1.42,8.6,2.53,17.41,5.39,25.57,4.73,13.55-2.4,18.28-11.61,20.39-13.2,3-26.14,1.16-38.48-4.07-18.5-7.84-30.1-22.64-38-40.31a193.77,193.77,0,0,1-11.49-33.15A105,105,0,0,1,167.42,320c.41-16.43-2.81-32.25-5.29-48.32-2.16-14-1.92-28.33-2.45-42.54-.49-13,1.91-25.68,5.26-38.23,7.41-27.74,20.68-51.86,43.26-70.17a193.88,193.88,0,0,1,17.12-11.94c1.79-1.16,4.19-1.37,6.51-1.64-45.4,37.68-61.41,84.36-43.14,140.92,8.65,26.76,25.25,48.27,48.3,64.38l1.8-.68c-.25-3.15-.34-6.33-.79-9.45a74.22,74.22,0,0,1,2-31.9c2.4-8.33,2.6-17.86,1.45-26.55C236,202.54,246,166,274.31,135.21c7.69-8.34,17.13-15.12,26.07-22.23,2.87-2.28,3.63-3.81,1.94-7.22a193,193,0,0,1-8.19-19c-2.49-6.75-.05-13.2,3.18-18.93,8.27-14.64,21.7-21.43,37.94-23.21a49.77,49.77,0,0,1,11,.11c12.88,1.5,22,10.08,25.47,23.25a72.36,72.36,0,0,1,1.47,29,5.35,5.35,0,0,1-2.85,3.44c-5.62,2.43-11.39,4.56-17.12,6.75-7.38,2.81-14,6.71-19.35,12.66-3.86,4.29-8.41,3.74-13.21,1.61-9.12-4-9.33-4.11-15.29,4.17a119.14,119.14,0,0,0-20,47.19c-2.24,11.33-5.17,22.86-5,34.26.39,27.74,10.78,51.67,33.76,68.15,8.57,6.15,19.26,9.68,29.42,13.1a15.59,15.59,0,0,1,10.29,9.54c.38.91.78,1.83,1.07,2.77,4.82,16.07,15.34,18,28.35,14.54,8.41-2.23,14.73-.69,21.55,3.16s14.23,6.21,21.52,1.23a26.09,26.09,0,0,0,7.38-7.85c3.78-6.27,8.7-8.47,16.11-8,24.29,1.44,45.62-6.2,62.83-23.54,14.38-14.47,21.78-32.53,24.34-52.64a221.08,221.08,0,0,1,3.52-22.18c1.79,5.69,4.44,11.27,5.19,17.1,2.13,16.56,4.77,33.21,4.83,49.84.08,21.66-3.06,43.15-8,64.42-6.57,28.47-16.53,55.65-28.07,82.35-6.08,14.05-17.67,22.45-30.8,29.13-12.32,6.27-25.22,10-39.23,9.31-11-.55-17.74-4.92-17.52-15.76.17-8.56.61-17.11,1.09-25.66.92-16.35,2.12-32.7,2.81-49.06.12-2.95-1.29-6.18-2.65-8.95-4-8.05-11.87-9.73-20.21-4.76-7.54,4.51-10.61,12.05-10.42,19.8.51,22.11-1.16,44.57,6.58,65.93a107.51,107.51,0,0,0,9.2,19.2c2.28,3.75,1.75,6.71-.95,8.75-4.15,3.15-8.71,6.45-13.61,7.81-32.79,9.13-60.6-.55-82.53-25.39-10.52-11.92-18.45-26.22-26.87-39.85-8-12.94-15.07-26.42-22.55-39.67ZM397.59,339.1c2.65-.93,7.66-2.45,12.43-4.53,1.42-.61,2.14-2.81,3.18-4.28-1.92-1-3.74-2.38-5.78-2.82-2.34-.51-4.92.13-7.32-.25-8.13-1.31-16.22-2.92-24.35-4.21a5.5,5.5,0,0,0-4.18,1.07c-.52.5.08,2.81.81,3.86C377.85,335.78,385.8,338.73,397.59,339.1Z" transform="translate(-159.62 -44.38)"/><path class="cls-1" d="M504.88,65.54c19.52.64,40.5,17.33,43.65,36.31,1.65,9.9-.84,19.46-8.26,27a59.05,59.05,0,0,1-24,14.54c-4.95,1.65-9.51,0-12.62-4.38a26.18,26.18,0,0,1-2.66-4.77c-3.57-8.25-9.34-13.94-18.27-16.1-1-.23-1.84-.77-2.79-1.06-9.42-2.84-13.19-8.83-9.95-18.94,4.31-13.45,11.17-24.31,24.39-30.14C497.62,66.6,501.37,66.33,504.88,65.54Z" transform="translate(-159.62 -44.38)"/><path class="cls-1" d="M465.81,271.29c-10.77,0-17.44-5.32-22.46-17.06-3.88-9.08-8.33-17.91-12.47-26.88a3.36,3.36,0,0,1-.21-2.24c3-8.86,6.56-17.53,14.36-23.35,9.36-7,21.12-5.94,30.52,2.29,12.95,11.35,18.41,36.35,11,51.82C483.31,262.71,474.19,272.87,465.81,271.29Z" transform="translate(-159.62 -44.38)"/><path class="cls-1" d="M319.63,228.76c.46-16.61,12.78-36.07,27.72-42.41,13.91-5.91,26.49-.4,31.35,14a99,99,0,0,1,3.13,13.47c.57,3-.4,5.35-2.7,7.91-4.8,5.36-8.49,11.7-13.15,17.2-3.9,4.6-8,9.48-13,12.64-10.34,6.55-20.5,3.95-26.83-6.57C323.22,240.07,321.77,234.2,319.63,228.76Z" transform="translate(-159.62 -44.38)"/><path class="cls-1" d="M384.64,278.36c8.16,1.22,17.71,2.31,27.1,4.16,6.51,1.29,10,5.1,10.23,9.29.24,3.86-1.22,6.35-5.2,7.12-7.34,1.41-14.49,3.06-20.46,8.22-2.78,2.4-5.83.87-7.15-2.47-2-4.94-5.91-7.26-10.49-9.11-4.23-1.72-9.25-3-8.73-9.16.36-4.31,4.36-6.87,11.35-7.62C382,278.72,382.6,278.63,384.64,278.36Z" transform="translate(-159.62 -44.38)"/></svg>