<svg id="Layer_1" data-name="Layer 1" xmlns="http://www.w3.org/2000/svg" viewBox="0 0 1920 1920"><defs><style>.cls-1{fill:none;stroke:#f0f0f0;stroke-width:100px;}</style></defs><title>rivier</title><path id="Path_1148" data-name="Path 1148" class="cls-1" d="M208.84,198c145.4-3.56,110.64,264.25,334.32,292.14"/><path id="Path_1153" data-name="Path 1153" class="cls-1" d="M845.57,878c-67,.92-137.56,116-254,181.44-47.18,26.5-154.9,17.85-206.73,53.65-66,45.58-72.11,133-71,178.22"/><path id="Path_1149" data-name="Path 1149" class="cls-1" d="M557.84,493c146.26,19.84,273,31.49,493.88,27.53"/><path id="Path_1150" data-name="Path 1150" class="cls-1" d="M1075.4,520c146.51-.84,243.1,229.58,463.92,225.61"/><path id="Path_1152" data-name="Path 1152" class="cls-1" d="M864.4,876c146.51-.84,243.1,229.58,463.92,225.61"/><path id="Path_1154" data-name="Path 1154" class="cls-1" d="M313.93,1304c3.33,146.5-225.44,247-217.73,467.77"/><path id="Path_1151" data-name="Path 1151" class="cls-1" d="M1557.4,746c72-1,316,95.33,194.85,300.1-116.06,112.69-288.19,52.05-407.08,54.55"/></svg>