<?xml version="1.0" encoding="utf-8"?>
<!-- Generator: Adobe Illustrator 19.0.0, SVG Export Plug-In . SVG Version: 6.00 Build 0)  -->
<svg version="1.1" xmlns="http://www.w3.org/2000/svg" xmlns:xlink="http://www.w3.org/1999/xlink" x="0px" y="0px"
	 viewBox="0 0 1317.9 768.1" style="enable-background:new 0 0 1317.9 768.1;" xml:space="preserve">
<style type="text/css">
	.st0{fill-rule:evenodd;clip-rule:evenodd;}
	.st1{fill:#563017;}
	.st2{fill:#865833;}
	.st3{fill:#9B6E4A;}
	.st4{fill:#773D20;}
	.st5{fill:#92FFF9;}
	.st6{fill:#4F4F4F;}
	.st7{fill:#C1C1C1;}
	.st8{fill:#424242;}
	.st9{fill:#5076AD;}
	.st10{fill:#7F7F7F;}
	.st11{fill:#EDEDED;}
	.st12{fill:#5B5B5B;}
	.st13{fill:#8AB1BA;}
	.st14{fill:#475759;}
	.st15{fill:#2D3138;}
	.st16{fill:#F3F3F3;}
	.st17{fill:#C0E0FF;}
	.st18{fill:#589842;}
	.st19{fill:#156B36;}
	.st20{fill-rule:evenodd;clip-rule:evenodd;fill:#8B8C8B;}
	.st21{fill:#1E120D;}
	.st22{fill:#1A1A1A;}
	.st23{fill-rule:evenodd;clip-rule:evenodd;fill:url(#XMLID_2_);}
	.st24{fill-rule:evenodd;clip-rule:evenodd;fill:url(#XMLID_4_);}
	.st25{fill-rule:evenodd;clip-rule:evenodd;fill:url(#XMLID_6_);}
	.st26{fill-rule:evenodd;clip-rule:evenodd;fill:url(#XMLID_7_);}
	.st27{fill-rule:evenodd;clip-rule:evenodd;fill:url(#XMLID_8_);}
	.st28{fill-rule:evenodd;clip-rule:evenodd;fill:#FFFFFF;}
	.st29{fill:#5B606B;}
	.st30{fill:#4D525B;}
	.st31{fill:#323948;}
	.st32{fill:#FFFFFF;}
	.st33{fill:#F04925;}
	.st34{fill:#CE2C11;}
	.st35{fill:#231F20;}
	.st36{fill:#F7B029;}
	.st37{fill:#F08E30;}
	.st38{fill:#6E757F;}
	.st39{fill-rule:evenodd;clip-rule:evenodd;fill:#666866;}
	.st40{opacity:0.14;fill:#221F1F;}
	.st41{fill:url(#XMLID_10_);}
	.st42{fill:url(#XMLID_11_);}
	.st43{fill:url(#XMLID_12_);}
	.st44{fill:url(#XMLID_13_);}
	.st45{fill:url(#XMLID_14_);}
	.st46{fill:#F6F7F7;}
	.st47{fill:#FFD900;}
	.st48{fill:#F1F2F2;}
	.st49{fill:#704C06;}
	.st50{fill:#744C29;}
	.st51{fill:#2CE288;}
	.st52{fill:#31C77F;}
	.st53{fill:#696F5D;}
	.st54{fill:#828679;}
	.st55{fill:#999C9A;}
	.st56{fill:#F9A22D;}
	.st57{fill:#F47F25;}
	.st58{fill:#DE5526;}
	.st59{fill-rule:evenodd;clip-rule:evenodd;fill:url(#XMLID_15_);}
	.st60{fill-rule:evenodd;clip-rule:evenodd;fill:url(#XMLID_16_);}
</style>
<g id="Laag_4">
</g>
<g id="Laag_2">
</g>
<g id="Capa_1">
	<path class="st0" d="M1279.7,469.7c-1.2,0.4-0.8,2.3,0.6,2l1.9-0.6c1.2-0.3,0.8-2.3-0.6-2L1279.7,469.7z"/>
	<g id="XMLID_691_">
		<g id="XMLID_73_">
			<polygon id="XMLID_111_" class="st1" points="861.8,319.7 974.2,302.7 917.8,266.5 910.6,261.9 			"/>
			<polygon id="XMLID_786_" class="st2" points="875.9,312.5 876.2,314.3 973.8,299.6 917.7,266.1 881.5,306.4 			"/>
			<g id="XMLID_783_">
				
					<rect id="XMLID_785_" x="968.8" y="281.9" transform="matrix(-0.9888 0.149 -0.149 -0.9888 2136.4783 528.1127)" class="st3" width="159.4" height="124.3"/>
				<polygon id="XMLID_784_" class="st2" points="875.9,312.5 893.7,430.2 981.1,417.1 962.6,294.2 881.5,306.4 				"/>
			</g>
			<polygon id="XMLID_782_" class="st1" points="1139.5,274.7 1140,277.8 970.1,303.4 908.6,264.1 910.6,261.9 			"/>
			<polygon id="XMLID_110_" class="st1" points="1076.3,236.9 1139.5,274.7 971.5,300 910.6,261.9 			"/>
			<g id="XMLID_107_">
				<polygon id="XMLID_109_" class="st1" points="900.2,443.8 1066.9,438.4 1066.9,432.2 900.2,437.7 				"/>
				<polygon id="XMLID_108_" class="st1" points="1065,419 904,462.9 902.2,457 1063.1,413.1 				"/>
			</g>
			
				<rect id="XMLID_106_" x="1058.8" y="407.3" transform="matrix(-0.9888 0.149 -0.149 -0.9888 2181.0955 686.1978)" class="st1" width="12.1" height="35"/>
			
				<rect id="XMLID_105_" x="895.2" y="434.3" transform="matrix(-0.9888 0.149 -0.149 -0.9888 1859.5433 761.9677)" class="st1" width="12.1" height="32.6"/>
			<path id="XMLID_104_" class="st4" d="M888.4,441.2l256.5-38.6c0.3-0.1,0.6-0.4,0.5-0.7l-1.3-8.8c-0.1-0.3-0.4-0.6-0.7-0.5
				l-256.5,38.6c-0.3,0.1-0.6,0.4-0.5,0.7l1.3,8.8C887.7,441,888,441.3,888.4,441.2z"/>
			
				<rect id="XMLID_103_" x="1122" y="402.6" transform="matrix(-0.9888 0.149 -0.149 -0.9888 2305.8379 662.6111)" class="st4" width="12.1" height="30.2"/>
			
				<rect id="XMLID_102_" x="978.4" y="424.2" transform="matrix(-0.9888 0.149 -0.149 -0.9888 2023.4031 727.0394)" class="st4" width="12.1" height="30.2"/>
			
				<rect id="XMLID_101_" x="908.2" y="347.2" transform="matrix(-0.9888 0.149 -0.149 -0.9888 1910.397 628.1707)" class="st1" width="46.9" height="76.9"/>
			
				<rect id="XMLID_93_" x="894.8" y="344.9" transform="matrix(-0.9888 0.149 -0.149 -0.9888 1893.349 553.4376)" class="st1" width="62.3" height="5.4"/>
			<g id="XMLID_84_">
				
					<rect id="XMLID_91_" x="1015" y="334.9" transform="matrix(0.9888 -0.149 0.149 0.9888 -41.2628 160.4105)" class="st5" width="70.4" height="41.5"/>
				<path id="XMLID_90_" class="st4" d="M1007.9,341.1l78.4-11.8c0.2,0,0.3-0.2,0.3-0.4l-0.7-5c0-0.2-0.2-0.3-0.4-0.3l-78.4,11.8
					c-0.2,0-0.3,0.2-0.3,0.4l0.7,5C1007.5,341,1007.7,341.1,1007.9,341.1z"/>
				<path id="XMLID_89_" class="st4" d="M1014.7,386.3l78.4-11.8c0.2,0,0.3-0.2,0.3-0.4l-0.7-5c0-0.2-0.2-0.3-0.4-0.3l-78.4,11.8
					c-0.2,0-0.3,0.2-0.3,0.4l0.7,5C1014.4,386.2,1014.5,386.3,1014.7,386.3z"/>
				
					<rect id="XMLID_88_" x="1049.1" y="333.6" transform="matrix(-0.9888 0.149 -0.149 -0.9888 2141.6992 550.9999)" class="st4" width="2.2" height="44.2"/>
				
					<rect id="XMLID_87_" x="1049.1" y="319.4" transform="matrix(0.149 0.9888 -0.9888 0.149 1245.5088 -735.7784)" class="st4" width="2.2" height="72.6"/>
				
					<rect id="XMLID_86_" x="1085" y="328.2" transform="matrix(-0.9888 0.149 -0.149 -0.9888 2212.2759 534.9002)" class="st4" width="2.2" height="44.2"/>
				
					<rect id="XMLID_85_" x="1013.2" y="339" transform="matrix(-0.9888 0.149 -0.149 -0.9888 2071.1228 567.0997)" class="st4" width="2.2" height="44.2"/>
			</g>
			<polygon id="XMLID_83_" class="st1" points="911.2,265.7 861.8,319.7 861.3,316.6 910.6,261.9 			"/>
			<g id="XMLID_79_">
				
					<rect id="XMLID_82_" x="983" y="425.5" transform="matrix(-0.9999 1.525699e-02 -1.525699e-02 -0.9999 2117.6028 841.0087)" class="st4" width="145.3" height="6.1"/>
				
					<rect id="XMLID_81_" x="983" y="425.5" transform="matrix(0.96 -0.28 0.28 0.96 -77.7778 312.6955)" class="st4" width="145.3" height="6.1"/>
			</g>
			<g id="XMLID_74_">
				<path id="XMLID_78_" class="st3" d="M912.5,437.6l52.8-7.9c0.3-0.1,0.6-0.4,0.5-0.7l-1.3-8.8c-0.1-0.3-0.4-0.6-0.7-0.5
					l-52.8,7.9c-0.3,0.1-0.6,0.4-0.5,0.7l1.3,8.8C911.9,437.4,912.2,437.6,912.5,437.6z"/>
				<path id="XMLID_700_" class="st2" d="M907.7,448.5l52.8-7.9c0.3-0.1,0.6-0.4,0.5-0.7l-1.3-8.8c-0.1-0.3-0.4-0.6-0.7-0.5
					l-52.8,7.9c-0.3,0.1-0.6,0.4-0.5,0.7l1.3,8.8C907,448.3,907.3,448.5,907.7,448.5z"/>
				<path id="XMLID_77_" class="st3" d="M902.8,459.3l52.8-7.9c0.3-0.1,0.6-0.4,0.5-0.7l-1.3-8.8c-0.1-0.3-0.4-0.6-0.7-0.5
					l-52.8,7.9c-0.3,0.1-0.6,0.4-0.5,0.7l1.3,8.8C902.2,459.2,902.5,459.4,902.8,459.3z"/>
				<path id="XMLID_76_" class="st2" d="M898,470.2l52.8-7.9c0.3-0.1,0.6-0.4,0.5-0.7l-1.3-8.8c-0.1-0.3-0.4-0.6-0.7-0.5l-52.8,7.9
					c-0.3,0.1-0.6,0.4-0.5,0.7l1.3,8.8C897.3,470,897.6,470.3,898,470.2z"/>
				<path id="XMLID_75_" class="st3" d="M893.1,481.1l52.8-7.9c0.3-0.1,0.6-0.4,0.5-0.7l-1.3-8.8c-0.1-0.3-0.4-0.6-0.7-0.5
					l-52.8,7.9c-0.3,0.1-0.6,0.4-0.5,0.7l1.3,8.8C892.5,480.9,892.8,481.1,893.1,481.1z"/>
			</g>
		</g>
		<g id="XMLID_69_">
			
				<rect id="XMLID_71_" x="1050.6" y="225.2" transform="matrix(-0.9888 0.149 -0.149 -0.9888 2160.4038 327.1059)" class="st3" width="34.7" height="38.5"/>
			
				<rect id="XMLID_70_" x="1039.7" y="214.7" transform="matrix(-0.9888 0.149 -0.149 -0.9888 2149.4624 279.1416)" class="st1" width="49.1" height="10.8"/>
		</g>
	</g>
	<g id="XMLID_391_">
		<path id="XMLID_396_" class="st3" d="M912.5,437.6l52.8-7.9c0.3-0.1,0.6-0.4,0.5-0.7l-1.3-8.8c-0.1-0.3-0.4-0.6-0.7-0.5l-52.8,7.9
			c-0.3,0.1-0.6,0.4-0.5,0.7l1.3,8.8C911.9,437.4,912.2,437.6,912.5,437.6z"/>
		<path id="XMLID_395_" class="st2" d="M907.7,448.5l52.8-7.9c0.3-0.1,0.6-0.4,0.5-0.7l-1.3-8.8c-0.1-0.3-0.4-0.6-0.7-0.5l-52.8,7.9
			c-0.3,0.1-0.6,0.4-0.5,0.7l1.3,8.8C907,448.3,907.3,448.5,907.7,448.5z"/>
		<path id="XMLID_394_" class="st3" d="M902.8,459.3l52.8-7.9c0.3-0.1,0.6-0.4,0.5-0.7l-1.3-8.8c-0.1-0.3-0.4-0.6-0.7-0.5l-52.8,7.9
			c-0.3,0.1-0.6,0.4-0.5,0.7l1.3,8.8C902.2,459.2,902.5,459.4,902.8,459.3z"/>
		<path id="XMLID_393_" class="st2" d="M898,470.2l52.8-7.9c0.3-0.1,0.6-0.4,0.5-0.7l-1.3-8.8c-0.1-0.3-0.4-0.6-0.7-0.5l-52.8,7.9
			c-0.3,0.1-0.6,0.4-0.5,0.7l1.3,8.8C897.3,470,897.6,470.3,898,470.2z"/>
		<path id="XMLID_392_" class="st3" d="M893.1,481.1l52.8-7.9c0.3-0.1,0.6-0.4,0.5-0.7l-1.3-8.8c-0.1-0.3-0.4-0.6-0.7-0.5l-52.8,7.9
			c-0.3,0.1-0.6,0.4-0.5,0.7l1.3,8.8C892.5,480.9,892.8,481.1,893.1,481.1z"/>
	</g>
	<g id="XMLID_760_">
		<path id="XMLID_965_" class="st6" d="M1016.2,394.2c6.5-0.3,6.2-0.3,6.2-0.3l-0.3-2c0.5,0,1.1-0.1,1.7-0.2
			c1.2-0.2,1.8-0.3,2.3-0.3l-0.2-1.6l-1.9,0.3c0,0-2.2,0.5-3.7-0.4c-1.4-0.9-2.8-1.9-2.5-3.2c0.3-1.3,0.5-2,2.1-3.4
			c1.6-1.5,3.3-3.5,4.1-3.8c0.9-0.3,3.2-0.7,3.2-0.7s1.3,0,1.1,1.4c-0.1,1.4-0.2,1.7-0.2,1.7l1.8,0.3c0,0,0.1-1.7,0.5-2.6
			c0.5-0.8,1.1-2.1-0.6-2.8c-1.7-0.7-2.7-0.6-5-0.1c-2.3,0.5-7.6,1.5-10.1,3.2c-2.5,1.7-7.7,3.5-7.5,7.4
			C1007.4,390.8,1009.7,394.5,1016.2,394.2z M1011.7,384.4c3.6-2.2,6-3.9,6.8-3.8c0.8,0.1,0.8,0.1,0.8,0.1s-2.9,1.9-3.2,3
			c-0.3,1.1-0.9,4.2,1,6c1.2,1.1,2.1,1.8,3.4,2l-3.4,0.3c0,0-3.7,0.8-5.3-0.7C1010.3,389.9,1008.1,386.6,1011.7,384.4z"/>
		<g id="XMLID_896_">
			<g id="XMLID_940_">
				<g id="XMLID_962_">
					
						<rect id="XMLID_964_" x="1021.1" y="405.1" transform="matrix(0.9908 0.135 -0.135 0.9908 65.4976 -134.0815)" class="st7" width="0.4" height="21.6"/>
					
						<rect id="XMLID_963_" x="1022.1" y="405.3" transform="matrix(-0.9496 -0.3135 0.3135 -0.9496 1862.6198 1131.7386)" class="st7" width="0.4" height="21.6"/>
				</g>
				<g id="XMLID_959_">
					
						<rect id="XMLID_961_" x="1030.9" y="419.4" transform="matrix(-0.1358 0.9907 -0.9907 -0.1358 1597.2275 -532.9986)" class="st7" width="0.4" height="21.6"/>
					
						<rect id="XMLID_960_" x="1030.6" y="420.4" transform="matrix(0.3137 -0.9495 0.9495 0.3137 298.0331 1274.7096)" class="st7" width="0.4" height="21.6"/>
				</g>
				<g id="XMLID_956_">
					
						<rect id="XMLID_958_" x="1016.6" y="429.2" transform="matrix(-0.9909 -0.1349 0.1349 -0.9909 1964.9465 1013.0231)" class="st7" width="0.4" height="21.6"/>
					
						<rect id="XMLID_957_" x="1015.5" y="428.9" transform="matrix(0.9492 0.3147 -0.3147 0.9492 189.9837 -297.3154)" class="st7" width="0.4" height="21.6"/>
				</g>
				<g id="XMLID_953_">
					
						<rect id="XMLID_955_" x="1006.8" y="414.9" transform="matrix(0.1354 -0.9908 0.9908 0.1354 448.8632 1365.7059)" class="st7" width="0.4" height="21.6"/>
					
						<rect id="XMLID_954_" x="1007" y="413.8" transform="matrix(-0.3135 0.9496 -0.9496 -0.3135 1726.2052 -398.7154)" class="st7" width="0.4" height="21.6"/>
				</g>
				<g id="XMLID_950_">
					
						<rect id="XMLID_952_" x="1011.9" y="407" transform="matrix(0.7958 -0.6056 0.6056 0.7958 -46.3037 698.2823)" class="st7" width="0.4" height="21.6"/>
					
						<rect id="XMLID_951_" x="1012.8" y="406.4" transform="matrix(-0.8938 0.4484 -0.4484 -0.8938 2105.5461 335.8962)" class="st7" width="0.4" height="21.6"/>
				</g>
				<g id="XMLID_947_">
					
						<rect id="XMLID_949_" x="1028.9" y="410.2" transform="matrix(0.6054 0.7959 -0.7959 0.6054 741.1697 -653.0083)" class="st7" width="0.4" height="21.6"/>
					
						<rect id="XMLID_948_" x="1029.5" y="411.1" transform="matrix(-0.4498 -0.8931 0.8931 -0.4498 1116.0747 1531.2856)" class="st7" width="0.4" height="21.6"/>
				</g>
				<g id="XMLID_944_">
					
						<rect id="XMLID_946_" x="1025.7" y="427.2" transform="matrix(-0.7953 0.6062 -0.6062 -0.7953 2107.4666 164.4725)" class="st7" width="0.4" height="21.6"/>
					
						<rect id="XMLID_945_" x="1024.8" y="427.8" transform="matrix(0.8928 -0.4504 0.4504 0.8928 -87.6746 508.6443)" class="st7" width="0.4" height="21.6"/>
				</g>
				<g id="XMLID_941_">
					
						<rect id="XMLID_943_" x="1008.7" y="424.1" transform="matrix(-0.6053 -0.796 0.796 -0.6053 1273.5618 1501.1241)" class="st7" width="0.4" height="21.6"/>
					
						<rect id="XMLID_942_" x="1008.1" y="423.1" transform="matrix(0.4496 0.8932 -0.8932 0.4496 942.5945 -661.868)" class="st7" width="0.4" height="21.6"/>
				</g>
			</g>
			<g id="XMLID_915_">
				<g id="XMLID_937_">
					
						<rect id="XMLID_939_" x="1016.5" y="405.1" transform="matrix(0.9714 -0.2375 0.2375 0.9714 -69.67 253.3158)" class="st7" width="0.4" height="21.6"/>
					
						<rect id="XMLID_938_" x="1017.5" y="404.9" transform="matrix(-0.9984 5.616383e-02 -5.616383e-02 -0.9984 2057.2554 773.5945)" class="st7" width="0.4" height="21.6"/>
				</g>
				<g id="XMLID_934_">
					
						<rect id="XMLID_936_" x="1030.8" y="414.8" transform="matrix(0.2376 0.9714 -0.9714 0.2376 1199.5154 -677.0828)" class="st7" width="0.4" height="21.6"/>
					
						<rect id="XMLID_935_" x="1031" y="415.8" transform="matrix(-5.599276e-02 -0.9984 0.9984 -5.599276e-02 663.0147 1480.1123)" class="st7" width="0.4" height="21.6"/>
				</g>
				<g id="XMLID_931_">
					
						<rect id="XMLID_933_" x="1021.1" y="429.2" transform="matrix(-0.9713 0.2378 -0.2378 -0.9713 2118.0613 624.3011)" class="st7" width="0.4" height="21.6"/>
					
						<rect id="XMLID_932_" x="1020.1" y="429.3" transform="matrix(0.9984 -5.575975e-02 5.575975e-02 0.9984 -22.9517 57.5769)" class="st7" width="0.4" height="21.6"/>
				</g>
				<g id="XMLID_928_">
					
						<rect id="XMLID_930_" x="1006.8" y="419.5" transform="matrix(-0.2376 -0.9714 0.9714 -0.2376 828.354 1510.6167)" class="st7" width="0.4" height="21.6"/>
					
						<rect id="XMLID_929_" x="1006.6" y="418.4" transform="matrix(5.607921e-02 0.9984 -0.9984 5.607921e-02 1378.8779 -600.155)" class="st7" width="0.4" height="21.6"/>
				</g>
				<g id="XMLID_925_">
					
						<rect id="XMLID_927_" x="1008.7" y="410.3" transform="matrix(0.5179 -0.8554 0.8554 0.5179 126.1794 1065.9803)" class="st7" width="0.4" height="21.6"/>
					
						<rect id="XMLID_926_" x="1009.3" y="409.4" transform="matrix(-0.666 0.746 -0.746 -0.666 1995.2496 -53.0919)" class="st7" width="0.4" height="21.6"/>
				</g>
				<g id="XMLID_922_">
					
						<rect id="XMLID_924_" x="1025.7" y="407" transform="matrix(0.8548 0.519 -0.519 0.8548 365.7716 -471.7566)" class="st7" width="0.4" height="21.6"/>
					
						<rect id="XMLID_923_" x="1026.5" y="407.6" transform="matrix(-0.7459 -0.666 0.666 -0.7459 1513.9608 1414.3047)" class="st7" width="0.4" height="21.6"/>
				</g>
				<g id="XMLID_919_">
					
						<rect id="XMLID_921_" x="1029" y="424" transform="matrix(-0.5181 0.8553 -0.8553 -0.5181 1934.2789 -220.2781)" class="st7" width="0.4" height="21.6"/>
					
						<rect id="XMLID_920_" x="1028.3" y="424.8" transform="matrix(0.6661 -0.7458 0.7458 0.6661 18.506 912.5656)" class="st7" width="0.4" height="21.6"/>
				</g>
				<g id="XMLID_916_">
					
						<rect id="XMLID_918_" x="1012" y="427.3" transform="matrix(-0.8548 -0.5189 0.5189 -0.8548 1650.1062 1337.7426)" class="st7" width="0.4" height="21.6"/>
					
						<rect id="XMLID_917_" x="1011.1" y="426.6" transform="matrix(0.7458 0.6662 -0.6662 0.7458 548.475 -562.519)" class="st7" width="0.4" height="21.6"/>
				</g>
			</g>
			<path id="XMLID_909_" class="st8" d="M1014.9,400.2c-15.3,2.3-25.9,16.5-23.6,31.9c2.3,15.3,16.5,25.9,31.9,23.6
				c15.3-2.3,25.9-16.5,23.6-31.9C1044.5,408.5,1030.2,397.9,1014.9,400.2z M1022.4,450.7c-12.6,1.9-24.3-6.8-26.2-19.4
				c-1.9-12.6,6.8-24.3,19.4-26.2c12.6-1.9,24.3,6.8,26.2,19.4C1043.7,437.1,1035,448.8,1022.4,450.7z"/>
			<path id="XMLID_903_" class="st6" d="M1015.2,402.3c-14.1,2.1-23.9,15.3-21.8,29.4c2.1,14.1,15.3,23.9,29.4,21.8
				c14.1-2.1,23.9-15.3,21.8-29.4C1042.5,409.9,1029.4,400.2,1015.2,402.3z M1022.4,450.4c-12.4,1.9-24-6.7-25.9-19.1
				c-1.9-12.4,6.7-24,19.1-25.9c12.4-1.9,24,6.7,25.9,19.2C1043.4,437,1034.8,448.5,1022.4,450.4z"/>
			<path id="XMLID_897_" class="st6" d="M1015.5,404.2c-13.1,2-22.1,14.1-20.2,27.2c1.9,13.1,14.1,22.1,27.2,20.2
				c13.1-2,22.1-14.1,20.2-27.2C1040.8,411.3,1028.6,402.3,1015.5,404.2z M1022.4,450.3c-12.3,1.8-23.9-6.7-25.7-19
				c-1.8-12.3,6.7-23.9,19-25.7c12.3-1.8,23.9,6.7,25.7,19C1043.2,436.9,1034.7,448.4,1022.4,450.3z"/>
		</g>
		<g id="XMLID_827_">
			<g id="XMLID_871_">
				<g id="XMLID_893_">
					
						<rect id="XMLID_895_" x="1100.8" y="392.5" transform="matrix(0.9714 -0.2374 0.2374 0.9714 -64.268 272.9562)" class="st7" width="0.4" height="21.6"/>
					
						<rect id="XMLID_894_" x="1101.9" y="392.4" transform="matrix(-0.9984 5.620245e-02 -5.620245e-02 -0.9984 2225.1399 743.6843)" class="st7" width="0.4" height="21.6"/>
				</g>
				<g id="XMLID_890_">
					
						<rect id="XMLID_892_" x="1115.2" y="402.2" transform="matrix(0.2374 0.9714 -0.9714 0.2374 1251.776 -768.5925)" class="st7" width="0.4" height="21.6"/>
					
						<rect id="XMLID_891_" x="1115.4" y="403.3" transform="matrix(-5.612682e-02 -0.9984 0.9984 -5.612682e-02 764.8007 1551.1039)" class="st7" width="0.4" height="21.6"/>
				</g>
				<g id="XMLID_887_">
					
						<rect id="XMLID_889_" x="1105.5" y="416.6" transform="matrix(-0.9713 0.2378 -0.2378 -0.9713 2281.3586 579.4639)" class="st7" width="0.4" height="21.6"/>
					
						<rect id="XMLID_888_" x="1104.4" y="416.7" transform="matrix(0.9984 -5.577421e-02 5.577421e-02 0.9984 -22.1246 62.2773)" class="st7" width="0.4" height="21.6"/>
				</g>
				<g id="XMLID_884_">
					
						<rect id="XMLID_886_" x="1091.1" y="406.9" transform="matrix(-0.238 -0.9713 0.9713 -0.238 945.4331 1577.053)" class="st7" width="0.4" height="21.6"/>
					
						<rect id="XMLID_885_" x="1091" y="405.8" transform="matrix(5.567743e-02 0.9984 -0.9984 5.567743e-02 1446.3958 -696.1039)" class="st7" width="0.4" height="21.6"/>
				</g>
				<g id="XMLID_881_">
					
						<rect id="XMLID_883_" x="1093" y="397.7" transform="matrix(0.5181 -0.8553 0.8553 0.5181 177.4606 1131.9006)" class="st7" width="0.4" height="21.6"/>
					
						<rect id="XMLID_882_" x="1093.6" y="396.8" transform="matrix(-0.666 0.7459 -0.7459 -0.666 2126.4402 -136.895)" class="st7" width="0.4" height="21.6"/>
				</g>
				<g id="XMLID_878_">
					
						<rect id="XMLID_880_" x="1110" y="394.4" transform="matrix(0.8547 0.5191 -0.5191 0.8547 371.6542 -517.4886)" class="st7" width="0.4" height="21.6"/>
					
						<rect id="XMLID_879_" x="1110.9" y="395" transform="matrix(-0.7458 -0.6662 0.6662 -0.7458 1669.4115 1448.6432)" class="st7" width="0.4" height="21.6"/>
				</g>
				<g id="XMLID_875_">
					
						<rect id="XMLID_877_" x="1113.3" y="411.4" transform="matrix(-0.5179 0.8554 -0.8554 -0.5179 2051.4326 -311.7124)" class="st7" width="0.4" height="21.6"/>
					
						<rect id="XMLID_876_" x="1112.7" y="412.3" transform="matrix(0.6661 -0.7459 0.7459 0.6661 56.0951 971.3732)" class="st7" width="0.4" height="21.6"/>
				</g>
				<g id="XMLID_872_">
					
						<rect id="XMLID_874_" x="1096.3" y="414.7" transform="matrix(-0.8549 -0.5188 0.5188 -0.8549 1813.1765 1358.13)" class="st7" width="0.4" height="21.6"/>
					
						<rect id="XMLID_873_" x="1095.4" y="414.1" transform="matrix(0.7457 0.6663 -0.6663 0.7457 561.7584 -622.0214)" class="st7" width="0.4" height="21.6"/>
				</g>
			</g>
			<g id="XMLID_846_">
				<g id="XMLID_868_">
					
						<rect id="XMLID_870_" x="1105.4" y="392.5" transform="matrix(0.9909 0.1349 -0.1349 0.9909 64.5102 -145.4684)" class="st7" width="0.4" height="21.6"/>
					
						<rect id="XMLID_869_" x="1106.5" y="392.7" transform="matrix(-0.9496 -0.3136 0.3136 -0.9496 2030.9752 1133.7292)" class="st7" width="0.4" height="21.6"/>
				</g>
				<g id="XMLID_865_">
					
						<rect id="XMLID_867_" x="1115.2" y="406.8" transform="matrix(-0.1356 0.9908 -0.9908 -0.1356 1680.4196 -630.9399)" class="st7" width="0.4" height="21.6"/>
					
						<rect id="XMLID_866_" x="1115" y="407.8" transform="matrix(0.3141 -0.9494 0.9494 0.3141 367.5292 1345.9069)" class="st7" width="0.4" height="21.6"/>
				</g>
				<g id="XMLID_862_">
					
						<rect id="XMLID_864_" x="1100.9" y="416.6" transform="matrix(-0.9909 -0.1348 0.1348 -0.9909 2134.6255 999.2899)" class="st7" width="0.4" height="21.6"/>
					
						<rect id="XMLID_863_" x="1099.9" y="416.4" transform="matrix(0.9491 0.3149 -0.3149 0.9491 190.442 -324.6576)" class="st7" width="0.4" height="21.6"/>
				</g>
				<g id="XMLID_859_">
					
						<rect id="XMLID_861_" x="1091.1" y="402.3" transform="matrix(0.1352 -0.9908 0.9908 0.1352 534.5394 1438.569)" class="st7" width="0.4" height="21.6"/>
					
						<rect id="XMLID_860_" x="1091.4" y="401.3" transform="matrix(-0.3138 0.9495 -0.9495 -0.3138 1825.3754 -495.0847)" class="st7" width="0.4" height="21.6"/>
				</g>
				<g id="XMLID_856_">
					
						<rect id="XMLID_858_" x="1096.2" y="394.4" transform="matrix(0.7956 -0.6058 0.6058 0.7956 -21.3702 747.0917)" class="st7" width="0.4" height="21.6"/>
					
						<rect id="XMLID_857_" x="1097.1" y="393.9" transform="matrix(-0.8938 0.4485 -0.4485 -0.8938 2259.6462 274.1157)" class="st7" width="0.4" height="21.6"/>
				</g>
				<g id="XMLID_853_">
					
						<rect id="XMLID_855_" x="1113.3" y="397.6" transform="matrix(0.6052 0.7961 -0.7961 0.6052 764.6946 -725.1871)" class="st7" width="0.4" height="21.6"/>
					
						<rect id="XMLID_854_" x="1113.8" y="398.5" transform="matrix(-0.4497 -0.8932 0.8932 -0.4497 1249.4524 1588.4132)" class="st7" width="0.4" height="21.6"/>
				</g>
				<g id="XMLID_850_">
					
						<rect id="XMLID_852_" x="1110.1" y="414.6" transform="matrix(-0.7954 0.6061 -0.6061 -0.7954 2251.3203 90.861)" class="st7" width="0.4" height="21.6"/>
					
						<rect id="XMLID_851_" x="1109.2" y="415.2" transform="matrix(0.8928 -0.4504 0.4504 0.8928 -72.9717 545.2941)" class="st7" width="0.4" height="21.6"/>
				</g>
				<g id="XMLID_847_">
					
						<rect id="XMLID_849_" x="1093.1" y="411.5" transform="matrix(-0.6052 -0.796 0.796 -0.6052 1418.8568 1548.1204)" class="st7" width="0.4" height="21.6"/>
					
						<rect id="XMLID_848_" x="1092.5" y="410.6" transform="matrix(0.4497 0.8932 -0.8932 0.4497 977.6427 -744.123)" class="st7" width="0.4" height="21.6"/>
				</g>
			</g>
			<path id="XMLID_840_" class="st8" d="M1099.3,387.6c-15.3,2.3-25.9,16.5-23.6,31.9c2.3,15.3,16.5,25.9,31.9,23.6
				c15.3-2.3,25.9-16.5,23.6-31.9C1128.8,395.9,1114.6,385.3,1099.3,387.6z M1106.8,438.1c-12.6,1.9-24.3-6.8-26.2-19.4
				c-1.9-12.6,6.8-24.3,19.4-26.2c12.6-1.9,24.3,6.8,26.2,19.4C1128,424.5,1119.4,436.2,1106.8,438.1z"/>
			<path id="XMLID_834_" class="st6" d="M1099.6,389.7c-14.1,2.1-23.9,15.3-21.8,29.4c2.1,14.1,15.3,23.9,29.4,21.8
				c14.1-2.1,23.9-15.3,21.8-29.4C1126.9,397.4,1113.7,387.6,1099.6,389.7z M1106.7,437.8c-12.4,1.9-24-6.7-25.9-19.1
				c-1.9-12.4,6.7-24,19.1-25.9c12.4-1.9,24,6.7,25.9,19.2C1127.7,424.4,1119.2,436,1106.7,437.8z"/>
			<path id="XMLID_828_" class="st6" d="M1099.9,391.6c-13.1,2-22.1,14.1-20.2,27.2c1.9,13.1,14.1,22.1,27.2,20.2
				c13.1-2,22.1-14.1,20.2-27.2C1125.1,398.7,1112.9,389.7,1099.9,391.6z M1106.7,437.7c-12.3,1.8-23.9-6.7-25.7-19
				c-1.8-12.3,6.7-23.9,19-25.7c12.3-1.8,23.9,6.7,25.7,19C1127.6,424.3,1119.1,435.8,1106.7,437.7z"/>
		</g>
		<g id="XMLID_801_">
			<g>
				<g id="XMLID_263_">
					
						<rect x="1027.9" y="380.1" transform="matrix(-0.9891 0.1474 -0.1474 -0.9891 2149.0881 604.0215)" class="st9" width="48.6" height="3.1"/>
				</g>
				<g id="XMLID_262_">
					
						<rect x="1046.9" y="382.1" transform="matrix(-0.6189 0.7854 -0.7854 -0.6189 2018.7115 -162.4781)" class="st9" width="3.6" height="52.6"/>
				</g>
				<g id="XMLID_261_">
					<path class="st9" d="M1020,426.7c0,0,3.2-3.6,5.2-10.4c2-6.8,3.8-15,3.7-16.9c-0.1-1.9-0.7-2.4-0.7-2.4l-1.8-0.2
						c0,0-1.3,2.5-1.7,6.9c-0.4,4.4-1.6,12.7-1.9,13.7c-0.3,1-2.9,8.5-3.6,8.8l-0.5,0.8L1020,426.7z"/>
				</g>
				<g id="XMLID_260_">
					
						<rect x="1027.1" y="380.5" transform="matrix(-0.9925 -0.1219 0.1219 -0.9925 2001.7339 899.5464)" class="st9" width="2.5" height="16.1"/>
				</g>
				<g id="XMLID_259_">
					<path class="st9" d="M1025.5,396.5c0,0.2,0.2,0.4,0.4,0.5l2.5,0.3c0.2,0,0.5-0.1,0.5-0.3l0,0c0-0.2-0.2-0.4-0.4-0.5l-2.5-0.3
						C1025.8,396.1,1025.6,396.3,1025.5,396.5L1025.5,396.5z"/>
				</g>
				<g id="XMLID_258_">
					
						<rect x="1071.6" y="371.4" transform="matrix(-0.9916 -0.1295 0.1295 -0.9916 2084.5808 933.7345)" class="st9" width="2" height="55.4"/>
				</g>
				<g id="XMLID_257_">
					
						<rect x="1088.6" y="372.3" transform="matrix(-0.8118 0.5839 -0.5839 -0.8118 2205.6294 81.9467)" class="st9" width="1.9" height="48.2"/>
				</g>
				<g id="XMLID_256_">
					
						<rect x="1068.4" y="420" transform="matrix(-0.9563 0.2925 -0.2925 -0.9563 2248.2739 505.042)" class="st9" width="36" height="1.2"/>
				</g>
			</g>
		</g>
		<g id="XMLID_798_">
			<circle id="XMLID_800_" class="st10" cx="1019" cy="427.9" r="3.2"/>
			<circle id="XMLID_799_" class="st11" cx="1019" cy="427.9" r="2.4"/>
		</g>
		<g id="XMLID_765_">
			<g id="XMLID_795_">
				
					<rect id="XMLID_797_" x="1070.9" y="426.6" transform="matrix(-0.9463 0.3234 -0.3234 -0.9463 2225.8296 496.571)" class="st12" width="1.6" height="13.3"/>
				<path id="XMLID_796_" class="st13" d="M1077.3,439.2c0,0.1,0,0.1-0.1,0.1l-4.7,0.7c-0.1,0-0.2,0-0.2-0.1l-0.1-0.8
					c0-0.1,0-0.1,0.1-0.1l4.7-0.7c0.1,0,0.2,0,0.2,0.1L1077.3,439.2z"/>
			</g>
			
				<rect id="XMLID_794_" x="1068.2" y="414.5" transform="matrix(0.9909 -0.1343 0.1343 0.9909 -45.8766 149.5914)" class="st14" width="34.9" height="0.6"/>
			
				<rect id="XMLID_793_" x="1070.9" y="426" transform="matrix(-0.889 0.4578 -0.4578 -0.889 2251.2312 306.9266)" class="st14" width="35" height="0.5"/>
			<g id="XMLID_775_">
				<path id="XMLID_779_" class="st6" d="M1060.2,427.4c0.8,5.1,5.5,8.5,10.5,7.8c5.1-0.8,8.5-5.5,7.8-10.5
					c-0.8-5.1-5.5-8.5-10.5-7.8C1062.9,417.6,1059.4,422.3,1060.2,427.4z M1069,425.4c0,0.1,0,0.2-0.1,0.3c-0.1,0.1-0.2,0.1-0.3,0.1
					l-7.1-2c-0.1,0-0.1-0.1-0.2-0.1c0-0.1,0-0.1,0-0.2c0.4-1.3,1.2-2.4,2.1-3.3c1-0.9,2.1-1.6,3.4-2c0.1,0,0.1,0,0.2,0
					c0.1,0,0.1,0.1,0.1,0.2L1069,425.4z M1076.1,421.4c0,0.1-0.1,0.1-0.1,0.2l-6.2,4c-0.1,0.1-0.2,0.1-0.3,0c-0.1,0-0.1-0.1-0.1-0.2
					l-0.4-7.3c0-0.1,0-0.1,0.1-0.2c0.1-0.1,0.1-0.1,0.2-0.1c1.3,0,2.6,0.3,3.8,0.9c1.2,0.6,2.2,1.4,3,2.5
					C1076.1,421.3,1076.1,421.3,1076.1,421.4z M1075.9,430.5l-6-4.3c-0.1-0.1-0.1-0.1-0.1-0.2c0-0.1,0.1-0.2,0.2-0.2l6.7-3.1
					c0.1,0,0.1,0,0.2,0c0.1,0,0.1,0.1,0.2,0.2c0.5,1.2,0.7,2.5,0.5,3.9c-0.1,1.3-0.5,2.6-1.2,3.7c0,0.1-0.1,0.1-0.2,0.1
					C1076,430.6,1075.9,430.6,1075.9,430.5z M1066.5,433.5l2.7-6.8c0-0.1,0.1-0.2,0.2-0.2s0.2,0,0.3,0.1l4.6,5.7
					c0,0.1,0.1,0.1,0.1,0.2s-0.1,0.1-0.1,0.2c-1.1,0.8-2.3,1.2-3.6,1.4c-1.3,0.2-2.6,0.1-3.9-0.3c-0.1,0-0.1-0.1-0.2-0.1
					C1066.4,433.6,1066.4,433.5,1066.5,433.5z M1061.7,429.1c-0.5-1.2-0.7-2.5-0.6-3.8c0-0.1,0-0.1,0.1-0.2c0.1,0,0.1-0.1,0.2-0.1
					l7.3,1c0.1,0,0.2,0.1,0.2,0.2c0,0.1,0,0.2,0,0.3l-4.5,5.8c0,0.1-0.1,0.1-0.2,0.1c-0.1,0-0.1,0-0.2-0.1
					C1062.9,431.4,1062.2,430.4,1061.7,429.1z"/>
				<path id="XMLID_776_" class="st15" d="M1060.2,427.4c0.8,5.1,5.5,8.5,10.5,7.8c5.1-0.8,8.5-5.5,7.8-10.5
					c-0.8-5.1-5.5-8.5-10.5-7.8C1062.9,417.6,1059.4,422.3,1060.2,427.4z M1060.7,427.3c-0.7-4.7,2.6-9.2,7.3-9.9
					c4.7-0.7,9.2,2.6,9.9,7.3c0.7,4.7-2.6,9.2-7.3,9.9S1061.4,432.1,1060.7,427.3z"/>
			</g>
			<g id="XMLID_772_">
				<circle id="XMLID_774_" class="st10" cx="1103.4" cy="415.3" r="3.2"/>
				<circle id="XMLID_773_" class="st11" cx="1103.4" cy="415.3" r="2.4"/>
			</g>
			<g id="XMLID_769_">
				
					<rect id="XMLID_771_" x="1066.2" y="412.8" transform="matrix(0.9464 -0.3229 0.3229 0.9464 -78.283 366.9351)" class="st12" width="1.6" height="13.3"/>
				<path id="XMLID_770_" class="st13" d="M1066.5,412.9c0,0.1,0,0.1-0.1,0.1l-4.7,0.7c-0.1,0-0.2,0-0.2-0.1l-0.1-0.8
					c0-0.1,0-0.1,0.1-0.1l4.7-0.7c0.1,0,0.2,0,0.2,0.1L1066.5,412.9z"/>
			</g>
			<g id="XMLID_766_">
				<circle id="XMLID_768_" class="st13" cx="1069.3" cy="426" r="1.7"/>
				<circle id="XMLID_767_" class="st16" cx="1069.3" cy="426" r="1.2"/>
			</g>
		</g>
		<path id="XMLID_763_" class="st17" d="M1075.1,371.9c0,0.1,0.1,0.2,0.2,0.3l1.7,0.2c0.1,0,0.2-0.1,0.2-0.2l0.7-5
			c0-0.1-0.1-0.2-0.2-0.3l-1.7-0.2c-0.1,0-0.2,0.1-0.2,0.2L1075.1,371.9z"/>
		<path id="XMLID_761_" class="st6" d="M1080.4,367.7c0,0,3.6-3.2,4.7-4.4c1.1-1.2,1.4-3.3-2.3-1.6c-3.7,1.7-6,2.7-8.3,3.5
			c-2.3,0.8-7.6,2.1-9.4,3.8c-1.8,1.8-2.4,3.7,1.1,2.3c3.5-1.4,3.2-2,7.2-2.8c4.1-0.8,4.4-0.3,5.4-0.4
			C1079.9,367.9,1079.1,368.4,1080.4,367.7z"/>
	</g>
	<path class="st18" d="M1234.9,436.9l-4.9-27.4c0,0,0,0,0,0c0,0,0,0,0,0l0,0c-3.9,0.5-8.1,2.6-12,3.6c3.3-3.4,7-6.4,11-9l-0.1-0.7
		c-6.4,1.9-12.4,5-17.5,9.1c3.5-4.6,7.4-8.9,11.7-12.9c-9.6,2.8-16.4,10.6-22.5,18.1c3.1-6.7,6.2-13.3,9.3-20
		c-7.5,4.3-13.9,10.3-18.3,17.3c1-8,1.4-16.1,1.3-24.1c-2.3,7.8-5.4,15.4-9.1,22.7c0.1-7.9-2.2-15.7-6.7-22.3
		c-0.6,8.3-1.2,16.7-1.7,25c-3.7-6.4-8.7-12.2-14.7-16.8c1.1,6.1,2.2,12.1,3.3,18.2c-2.5-3.4-6.8-5.8-11.3-6.2
		c2.3,2.2,3.9,5.1,4.2,8.2c-2.1-2.1-4.8-3.5-7.8-4.2c0.8,2.4,1.5,4.8,2.3,7.3c-1,0.4-2.2,0.1-2.7-0.7c2.2,3.5-10,2.7-12,3
		c-5,0.9-9.7,3.2-14.8,3.6c4.1-1.9,8-4.1,11.7-6.6c-7-0.4-14.3,1.2-20.4,4.7c2.9-3,6.1-5.8,9.5-8.3c-8,2.1-15.4,6.2-21.3,11.7
		c3.2-4,3.8-9.2,4.3-14.1c-3.8,5.4-7.9,10.5-12.5,15.3c0.8-4.7-0.4-9.7-3.2-13.6c-1.6,5-3.3,10-4.9,15c-3.6-3.4-8.3-5.6-13.5-6.3
		c1.3,3.3,2.6,6.6,3.9,9.9c-3-1.7-6.7-2.5-10.4-2.1c0.7,1.5,1.5,2.9,2.2,4.4c0.4,0.8-11,2.3-12.6,1.8c1.2-1.7,2.8-3.2,4.3-4.7
		c-4.9,1-9.7,2.8-14.1,5.2c2.5-2.6,5.6-4.8,8.9-6.4c-6.6-0.5-12,4.9-18.3,7.2c1.1-3.1,1.6-6.4,1.5-9.7c-2.9,3.2-5.3,6.6-7.2,10.3
		c-1.4-3-3.3-5.8-5.7-8.3c-0.6,3-0.5,6.1,0.3,9c-3.9-2.1-8.6-3.1-13.2-2.9c2.7,0.8,5.1,2.3,6.9,4.2c-3.1,0.6-6.3,1.1-9.4,1.7
		c1.7,0.3,3.3,1.1,4.5,2.3c-0.7-0.7-10.1,1.6-11.8,1.6c-3.7-0.1-7.1-0.1-10.8,0.1c1.6-2.2,4-3.9,6.4-5.3c-6.5,1.9-12.8,4.2-18.9,7
		c2.4-2.2,4.5-4.6,6.6-7.1c-5.6,2.1-10.9,5-15.6,8.5c1.3-1.9,1.9-4.1,1.5-6.3c-2.7,2.9-5.4,5.8-8.1,8.8c-0.9-2.8-2.6-5.3-4.8-7.4
		c-0.5,2.5-1.1,5-1.6,7.5c-4.1-0.6-8.1-1.7-11.8-3.4c2.8,1.3-0.2,9.3-3.5,4.7c-1-1.3-0.7-3.1-0.5-4.8c-2,1.4-3.5,3.5-4.1,5.7
		c-0.1,0.3-0.2,0.7-0.5,0.8c-0.5,0.2-0.9-0.4-1.1-0.9c-1.4-5.1,1.3-10.5,3.9-15.3c-5.1,5.4-9,11.6-11.5,18.3c-0.7-1.9-0.6-4-0.6-6.1
		c0.1-3.6,0.2-7.3,0.3-10.9c0-1.7,0.1-3.4,0.9-4.9c-1.3,2.2-2.6,4.4-3.8,6.6c-3.6,6.2-7.3,12.7-8.1,19.6c-2-4.2-1.5-9.9-4.1-13.7
		c-0.7,1.4-4.7,12.8-3.7,13.8c-1.3-1.3-2.1-3.1-2-4.9c-2,3-4.4,5.7-7.1,8.1c-1.7-3-1.8-6.8-0.2-9.9c-5.4,2.4-17.3,7.7-19.5,13.2
		c1.2-2.9,1.5-6.1,0.9-9.1c-2.7,3.1-4.9,6.5-6.6,10.1c-3-3.5-6.1-7-9.2-10.4l0.6,11.6c-4.6-4.1-10.3-7.2-16.5-8.9
		c1.8,3.5,3.6,7.1,5.4,10.6c-4.6-2.9-10.4-4.4-16.1-4.2c2.7,0.3,5.3,1.4,7.4,3c-1.4-1.1-9.2-0.1-11.2-0.1c3.7,4.8-3,5.5-6.6,6.3
		c0.8-1.8,2-3.5,3.6-4.9c-5.3,1.6-10.3,3.9-15.1,6.6c2-2,3.9-4.1,5.9-6.1c-5.1,2.4-10,5.1-14.8,8.1c1.3-2.3,2-5,1.8-7.5
		c-2.4,3.7-5.5,7-9,9.9c0.5-3.4-0.3-6.8-2.3-9.6c-0.4,2.8-0.8,5.6-1.2,8.4c-4.7-4.3-10-8-15.7-11c1.9,3.8,3.4,7.9,4.3,12.1
		c-4.7-0.8-9.4-1.1-14.2-0.8c1.5,1.9,3,3.9,4.5,5.8c-0.8-1-17.9,0.8-19.5,1.2c1.3-1.9,3-3.5,5-4.8c-5.4,0.1-10.4,3-14.9,5.8
		c0.6-2.2,1.1-4.5,1.7-6.7c-2.8,2.6-5.1,5.6-6.7,8.8c-1.1-3.1-2.3-6.1-3.4-9.2c-1.6,3.3-2.2,7-1.7,10.5c-1.1,0.4-1.8-0.9-2.2-1.8
		c-0.7-1.9-1.9-3.5-3.4-4.9c-0.1,3.3,0.6,6.6,1.3,9.9c-0.8,0.1-12.8,1.2-12.8,1.1l4.6,25.5"/>
	<g>
		<g>
			<path class="st19" d="M1115.4,401.7c1.6,2.5,3.4,5,5.7,6.9c1.5,1.2,3.2,2.1,5,2.9c4.9,2.3,10,3.8,15.5,3.3
				c2.8-0.3,6.5-1.5,9.3-0.9c2.1,0.5,3.7,2.7,4.8,4.4c1.1,1.6,0.3,5.5,0.2,7.3c-0.1,3.1-0.4,5.9-1.4,8.9c-0.7,2.1,0.8,3.7,1.9,1.3
				c0.9-1.9,1.3-4.3,1.7-6.4c0.8-4.4,1.1-8.8,0.8-13.3c0-0.4,0-0.7-0.2-1c-0.2-0.4-0.5-0.7-0.8-1.1c-1.3-1.9-0.9-5.6-1.1-7.9
				c-0.3-2.8-0.8-5.5-1.5-8.2c-2.8-10.8-11.9-20.1-22.9-21.9c-9.2-1.5-18.6,2-27.8,0.4C1106.8,385.3,1110.4,393.9,1115.4,401.7z"/>
			<path class="st19" d="M1187.9,397.2c-0.9,2.1-1.8,4.1-3.3,5.8c-1,1.1-2.1,2-3.3,2.8c-3.5,2.5-7.5,4.5-11.8,4.9
				c-1.9,0.2-3.9,0.1-5.7-0.3c-1.6-0.4-2.7-0.9-3.8,0.7c-0.6,0.8-0.8,1.8-1,2.8c-0.6-0.2-0.7-1-0.7-1.7c-0.1-6.7-1-13.5,1.7-19.8
				c2.4-5.6,6.6-9.5,12.2-11.9c6.5-2.3,13.9-1,20.4-3.3C1192.1,384,1190.5,390.8,1187.9,397.2z"/>
		</g>
		<path class="st19" d="M1155.5,393.3c0.7,1.4,1.4,3.2,1.1,4.1c2.1-5.3,4.7-11,5.4-16.7c0.6-4.7-1.3-10.1-3.7-14.1
			c-1.6-2.7-3.8-4.8-5.7-7.3c-1.6-2.2-3-4.3-5.2-6.1c-0.4-0.3-0.7,2.6-0.7,2.8c-0.1,1.5-0.3,2.9-0.5,4.4c-1.1,8.5-0.9,17.8,3.8,25
			c1.4,2.2,3.3,4.1,4.7,6.3C1154.9,392.1,1155.2,392.6,1155.5,393.3z"/>
	</g>
	<path id="XMLID_759_" class="st20" d="M943.9,104.2c-1.7-8.6-9.8-14.2-18.3-12.9c-0.1-0.6-0.1-1.1-0.2-1.7
		c-1.7-8.8-10.3-14.5-19.1-12.8c-4.4,0.9-8,3.4-10.3,6.8c-3.4-2.3-7.8-3.3-12.2-2.4c-8.8,1.7-14.5,10.3-12.8,19.1
		c0.1,0.6,0.2,1.1,0.4,1.6c-0.3,0-0.6,0.1-0.9,0.2c-8.8,1.7-14.5,10.3-12.8,19.1L943.9,104.2z"/>
	<path id="XMLID_758_" class="st20" d="M789.4,143.2c-0.9-4.4-5.1-7.3-9.5-6.6c0-0.3-0.1-0.6-0.1-0.9c-0.9-4.5-5.4-7.5-9.9-6.6
		c-2.3,0.5-4.1,1.8-5.3,3.6c-1.8-1.2-4-1.7-6.3-1.2c-4.5,0.9-7.5,5.4-6.6,9.9c0.1,0.3,0.1,0.6,0.2,0.8c-0.2,0-0.3,0-0.5,0.1
		c-4.5,0.9-7.5,5.4-6.6,9.9L789.4,143.2z"/>
	<path id="XMLID_757_" class="st20" d="M831.1,92.6c-0.6-2.7-3.2-4.5-5.9-4.1c0-0.2,0-0.4-0.1-0.5c-0.6-2.8-3.3-4.6-6.2-4.1
		c-1.4,0.3-2.6,1.1-3.3,2.2c-1.1-0.7-2.5-1-3.9-0.8c-2.8,0.6-4.6,3.3-4.1,6.2c0,0.2,0.1,0.4,0.1,0.5c-0.1,0-0.2,0-0.3,0.1
		c-2.8,0.6-4.6,3.3-4.1,6.2L831.1,92.6z"/>
	<g>
		<path id="XMLID_754_" class="st21" d="M885.4,128.4c0,0.1,0.3,0.1,0.3-0.1c0-0.2,0.1,0,0.2,0.1c0.1,0.1,1.1,0.2,1.1-0.8
			c0-1-0.7-3.7-0.7-3.7s2.5,3.1,2.7,3c0.2-0.1,1.1,0,0.7-1.4c0,0,1.1,0.6,0.7-1.1c0,0,0.4-0.9-0.4-2.5c0,0-0.9-1.8-3.6-4.2
			c0,0,0-0.6,0.2-0.9c0.2-0.3,1-2.7,1-2.7s0.6,0,0.6-0.6c0,0,0.7,0.3,1.1-0.4c0,0,0.6,0.3,0.9-0.7c0,0,0.5-0.1,0.7-0.9
			c0,0,0.5-0.2,0.7-0.7c0,0,1.1-0.2,1.1-1c0,0,0.3,0,0.6-0.4c0.3-0.4,0.7-0.7,0.3-1c0,0,0.4,0.3,0.9-0.5c0,0,0.5-0.5,0.1-0.9
			c0,0,1.3-0.6,1.4-1c0.1-0.4-0.4-1-0.4-1s1.5-0.3,1.5-0.7c0-0.4-0.2-0.9-0.3-0.9c0,0,1.7-0.7,1.6-1.3c-0.1-0.3-0.1-0.4-0.2-0.4
			c0.3-0.2,1.4-0.9,1.5-1.2c0.1-0.4-0.2-0.6-0.2-0.6s1.3-1,1.2-1.2c-0.1-0.3-0.4-0.5-0.4-0.5s0.8-0.8,0.8-1.2c0,0,0.6-0.6,0.3-0.7
			c-0.3-0.1-1.2,0.7-1.2,0.7s-3.4,2.5-3.7,2.5c0,0,0.8-2.4,0.9-2.5c0.1-0.2-0.2-0.1-0.5,0.3c-0.3,0.4-3,3-4.6,4.2
			c-1.6,1.2-4.3,3.3-4.3,3.3s-0.1-0.6-0.2-1.3c-0.2-0.6-0.5-1.3-0.8-1.8c0.2-0.6,0.3-1.6,0-2.4c0-0.1-0.2-0.1-0.3,0
			c-0.4,0.5-0.8,0.9-1.2,1.2c-0.4-0.1-0.7-0.1-1.1,0c-1.3,0.1-2,1-2.3,1.7c-0.2,0.4-0.5,0.7-0.5,3.3c0,2.5,0,2.8-0.2,3
			c-0.2,0.3-0.6,1.9-0.6,1.9s-1.5,4.4-0.8,7.8c0,0,0.3,1.6,0.4,1.7c0.1,0.1,0.3,0,0.3,0s0.4,0.6,0.5,0.7c0.1,0.1,0.7,1,0.7,1
			l0.9,1.3c0,0,0.9,1.4,0.9,1.5c0,0.1,0.2,0.2,0.2,0.2s0.3,0.8,0.4,1c0.1,0.2,0.1,0.7,0.4,1.3C885.2,127.9,885.3,128.4,885.4,128.4z
			 M884.7,102.5c-0.2-0.2-0.1-0.4,0-0.6c0.2-0.2,0.4-0.1,0.6,0c0.2,0.2,0.1,0.4,0,0.6S884.9,102.6,884.7,102.5z"/>
		<path id="XMLID_751_" class="st21" d="M819.2,145.3c0,0,0.6-0.1,1.7-0.7s1.6-1.7,1.6-1.7s0,0,0,0.3c0,0.3-0.3,1.2-0.3,1.2
			s0.4,0,0.9-0.2c0.4-0.2,0.6-0.7,0.6-0.7s0.3,0.1,0.7-0.1s0.4-0.5,0.4-0.5s0.2,0,0.6-0.1c0.4-0.1,0.5-0.6,0.5-0.6s0.2,0,0.7-0.3
			c0.5-0.3,0.6-1.2,0.6-1.2s0.4-0.1,0.7-0.6c0.3-0.5,0.3-1.2,0.3-1.2s0.8-0.5,1.1-0.9s0.2-0.8,0.2-0.8s0.6-0.3,1.4-0.8
			s1.4-1.8,1.4-1.8s0.2-0.1,0.4-0.3s2.1-0.8,3.3-0.9c1.2-0.1,3.5-0.5,3.5-0.5s-1-1.2-1.2-1.7c0.4-0.9,0.4-2.1,0.4-2.1
			s-1.4,0.8-3.3,2s-3,1.6-3,1.6c-0.4-0.2-1.1,0-1.6-0.1c-0.8-0.2,0.4-1-0.3-1.3c0.2-0.1,0.4-0.2,0.4-0.3c0.1-0.3-0.2-0.6-0.5-0.6
			c0.2-0.2,0.4-0.4,0.4-0.7c0-0.3-0.2-0.5-0.5-0.5c0.5-0.4,0.6-0.9-0.1-1.2c0.2-0.3,0.4-0.4,0.2-0.7c-0.1-0.2-0.3-0.3-0.4-0.3
			c0-0.3,0.3-0.5,0.1-0.8c-0.1-0.2-0.3-0.3-0.4-0.4c-0.1,0-0.3,0-0.3-0.1c0-0.1,0.1-0.2,0.1-0.2c0.1-0.2,0.1-0.4,0.1-0.6
			c-0.1-0.5-0.4-0.4-0.7-0.5c0.1-0.3,0.2-0.7-0.1-0.9c-0.2-0.2-0.4,0-0.7,0c0.2-0.9-0.3-1.6-1.2-1.8c0.1-0.7-0.4-0.8-0.9-0.8
			c0.1-0.6-0.3-1.7-1-1c0-0.6-0.8-1.1-1.4-1c0,0.2,0.3,1.1,0,1.1c-0.2,0-0.7-1.2-0.8-1.4c-0.2-0.2-0.9-1.1-1.1-0.5
			c-0.1,0.4,0.3,0.9-0.2,1.3c-0.3-0.4-0.6-0.9-1.1-1.1c-0.2-0.1-1-0.6-1.1-0.2c0,0.2,0.2,0.5,0.3,0.7c0.1,0.3,0.2,0.7,0.3,1
			c0.1,0.2,0.5,1.3,0.1,1.4c-0.6-0.7-0.7-3-2-2.8c0.7,1.4,1.2,2.7,1.6,4.2c0.2,0.7,0.3,1.5,0.5,2.2c0.1,0.5-0.1,1,0,1.5
			c0.1,0.7,0.4,1.1,0.9,1.6c0.5,0.6,1,1.1,1.5,1.7c0.7,1,1.6,2.2,0.9,3.3c-0.2,0.3-0.6,0.8-1.1,1.1c-0.5,0.4-1.1,0.9-1.5,1.7
			c-0.4,0.8,0.2,1.7,0.2,1.7l-0.4,1.2l0.9-0.4c0,0,0.2,0,0.4,0.1c0.2,0,1.3,0,1.3,0s-0.1,0.9-1,2.9
			C821.3,143.3,819.2,145.3,819.2,145.3z M821.9,136.9c0.1,0.1,0,0.3-0.1,0.3c-0.1,0.1-0.3,0-0.3-0.1c-0.1-0.1,0-0.3,0.1-0.3
			S821.8,136.7,821.9,136.9z"/>
		<path id="XMLID_748_" class="st21" d="M857.7,158.1c0,0,0.6-0.4,0.9-1.2c0.4-0.2,1.7-1.2,2.1-1.8c0.8-1,1.4-2.7,1.5-3.5
			c0-0.3,0.1-0.6,0.2-0.9c0.3-0.6,0.3-1.6,0.5-2.3c0.1-0.2,0.8-5.7,0.8-5.7s-0.8,0.8-1.2,1.5c-0.3-0.5-1.1-1.4-1.1-1.4
			s0.7,5.3,0.3,5.4c-0.3,0.1,0-1-0.7-0.8c0.1-0.1,0.2-0.3,0.1-0.5c-0.1-0.3-0.5-0.3-0.7-0.2c0.1-0.2,0.1-0.5-0.1-0.7
			c-0.2-0.2-0.4-0.2-0.6-0.1c0.2-0.6,0-1-0.7-0.8c0-0.3,0.1-0.5-0.2-0.6c-0.1-0.1-0.4-0.1-0.5,0c-0.1-0.2-0.1-0.5-0.4-0.7
			c-0.1-0.1-0.4-0.1-0.5-0.1c-0.1,0-0.2,0.1-0.3,0.1c-0.1,0,0-0.2,0-0.2c-0.1-0.2-0.1-0.3-0.3-0.5c-0.3-0.3-0.5-0.1-0.8,0
			c-0.1-0.2-0.3-0.6-0.5-0.7c-0.3,0-0.3,0.2-0.5,0.3c-0.3-0.8-1.1-1-1.8-0.7c-0.3-0.6-0.7-0.4-1.1-0.1c-0.2-0.5-1.1-1.1-1.3-0.2
			c-0.4-0.4-1.1-0.4-1.5,0c0.1,0.1,0.8,0.6,0.6,0.8c-0.1,0.1-1.2-0.5-1.4-0.6c-0.2-0.1-1.2-0.3-1,0.2c0.1,0.4,0.7,0.5,0.6,1
			c-0.5-0.2-0.9-0.3-1.4-0.3c-0.2,0-1,0.1-0.9,0.4c0.1,0.2,0.4,0.3,0.5,0.4c0.3,0.2,0.5,0.4,0.7,0.6c0.2,0.2,1,0.7,0.9,1
			c-0.8-0.2-2.1-1.8-2.9-0.9c1.2,0.6,2.4,1.3,3.4,2.2c0.5,0.4,1,0.9,1.5,1.4c0.4,0.3,0.5,0.8,0.8,1.1c0.4,0.4,0.9,0.6,1.5,0.7
			c0.7,0.1,1.3,0.3,2,0.5c1,0.3,2.3,0.8,2.4,1.9c0,0.4-0.1,0.9-0.2,1.4c-0.2,0.5-0.3,1.2-0.2,2.1c0.1,0.8,1.1,1.1,1.1,1.1
			L857.7,158.1z M857.9,156c0.1,0.1,0.1,0.2,0.1,0.3c-0.1,0.1-0.2,0.1-0.3,0.1c-0.1-0.1-0.1-0.2-0.1-0.3S857.8,156,857.9,156z"/>
		<path id="XMLID_747_" class="st22" d="M815.9,179c-0.7-0.6-1.4-1.3-2.1-2c-0.8-0.8-1.3-1.9-1.9-2.8c-0.5-0.7-1-1.6-1.1-2.4
			c-0.2-1-0.5-2-0.8-2.9c-0.2-0.5-0.6-1.2-0.4-1.7c0,0,0,0,0.1,0c0-0.1,0.1-0.1,0.1,0c0,0,0,0,0,0c0,0,0.1,0,0.1,0l0,0.1
			c0,0,0,0,0,0c0,0.1,0.1,0.1,0.1,0.2c0.9,1.4,1.9,2.6,2.6,4c-0.4-1-0.9-2-1.2-3c0,0,0,0,0,0c0.6,1,1.6,2.2,2.2,3.5c0,0,0,0,0,0
			c0.1,0.2,0.2,0.5,0.4,0.7c-0.2-0.6-0.4-1.1-0.6-1.7c0,0,0-0.1,0.1,0c0.7,0.9,1.2,1.9,1.7,2.9c0-0.2-0.1-0.4-0.1-0.6
			c0,0,0.1-0.1,0.1,0c0.7,0.9,1.2,1.8,1.8,2.8c0.2,0.3,0.3,0.5,0.5,0.8c-0.2-0.5-0.5-1.4-0.4-1.6c0,0-0.1,0-0.1,0c0,0,0,0,0-0.1
			c0,0,0.1-0.1,0.1,0c0.8,1.2,1.8,2.5,2.6,3.9c-0.1-0.4-0.1-1-0.3-1.2c0,0,0-0.1,0-0.1c0.7,0.3,1.2,1.7,1.4,2.2
			c0.1,0.3,0.2,0.5,0.4,0.8c0-0.3,0.1-0.6,0.1-0.8c0-0.1,0.1-0.1,0.1,0c0.4,1,0.8,2.1,1.2,3.1c0.1,0.1,0.1,0.3,0.2,0.4
			c0.3-0.1,0.6-0.2,0.9-0.2c0.3,0,0.6,0,0.9,0.1c0.2-0.2,0.4-0.4,0.6-0.6c0.7-0.9,1.4-1.8,2.2-2.6c1.3-1.5,3.1-2.8,4.8-3.8
			c2.1-1.2,4.5-2,6.8-2.6c1-0.3,1.9-0.7,2.8-1.2c1.3-0.6,1.8-2.1,3.1-2.7c0,0,0,0,0,0c-0.9,0.8-1.6,1.9-2.5,2.8
			c-0.7,0.6-1.6,1-2.4,1.3c-0.1,0-0.2,0.1-0.3,0.1c1.5-0.4,2.6-1.1,4-1.8c0,0,0.1,0,0.1,0.1c-0.9,1-1.9,1.8-3.2,2.2
			c0.1,0,0.1,0,0.2,0.1c0,0,0,0,0,0.1c-1.1,0.7-1.7,1.4-3.1,1.5c-0.3,0-0.6,0.1-1,0.1c0.5,0.2,1,0.3,1.5,0.5c0.2,0.1,0,0.3-0.1,0.2
			c0,0,0,0,0,0c0.2,0.8-2.2,0.7-2.5,0.7c-0.2,0-0.3,0-0.4,0c0.3,0.1,0.5,0.2,0.6,0.5c0,0,0,0.1,0,0.1c-0.8,0.4-1.9,0.6-2.7,0.7
			c-0.3,0-0.5,0.1-0.7,0.1c0.7,0.1,1.3,0.5,1.5,0.9c0,0,0,0-0.1,0c-0.8-0.2-2.1,0.2-2.8,0.6c0.5,0,1,0.2,1.2,0.7
			c0,0.1,0,0.1-0.1,0.1c-0.8-0.1-2.2,0.8-3,1.4c0.2-0.1,0.5-0.1,0.7-0.1c0.1,0,0.1,0.1,0.1,0.1c-0.2,0.2-0.5,0.4-0.7,0.5
			c-0.3,0.2-0.6,0.6-0.8,0.9c-0.1,0.1-0.1,0.2-0.2,0.3c0.6,0.4,1.3,0.7,2.1,0.7c1.3,0,2.5-0.3,3.8-0.5c0.2,0,0.3,0.2,0.2,0.3
			c-0.5,0.5-1.2,0.5-1.9,0.6c0.5,0,1.1,0,1.5,0.2c0,0,0,0,0,0c-1.1,0-2.2,0.2-3.3,0.2c0.5,0.1,1,0.2,1.6,0.3c0.1,0,0.2,0.2,0,0.2
			c-0.7,0.4-1.7,0.3-2.6,0.2c0,0.1-0.1,0.1-0.1,0.2c0.1,0,0.2,0,0.2,0c0.4,0,0.8,0,1.1,0.2c0.1,0,0,0.1,0,0.2
			c-0.7,0.1-1.4,0.2-2.1,0.2c-0.2,0.1-0.5,0.1-0.8,0.2c-0.2,0.1-0.4,0.2-0.6,0.3c0.2,0.1,0.4,0.2,0.6,0.3c0.2,0.1,0.5,0.3,0.8,0.3
			c0.3,0,0.2,0.4,0,0.4c-0.2,0.1-0.6,0-0.8-0.1c-0.6-0.2-1.2-0.3-1.8-0.7c0,0,0,0-0.1,0c-0.9,0-1.8,0-2.7-0.1
			c-0.9-0.2-1.5-0.4-2.3-0.7c-0.1,0-0.3-0.1-0.4-0.2c-0.6,0.1-1.3,0-1.6-0.5c-0.2,0-0.4-0.1-0.7-0.1c-0.1,0-0.2,0-0.2-0.1
			c-0.1,0-0.1,0-0.2,0c-0.1,0-0.1-0.1-0.1-0.1c0-0.3,0.5-0.5,0.8-0.7c0,0,0.1,0,0.1-0.1c0-0.6,0.2-1.1,0.8-1.4
			c0.1,0,0.2-0.1,0.3-0.1c0.1-0.1,0.3-0.1,0.4-0.2c-0.1-0.1-0.1-0.3-0.2-0.4c-0.6-1.2-1.3-2.2-2.2-3.2
			C817.6,179.9,816.7,179.5,815.9,179z"/>
		<path id="XMLID_746_" class="st22" d="M926,153c-0.7-0.4-1.6-0.5-2.4-0.8c-0.9-0.3-1.8-1.1-2.5-1.6c-0.8-0.6-1.5-1.3-2.3-1.8
			c-0.6-0.4-1.3-1-2-1.2c-1.7-0.5-3.6-0.6-5.3-0.2c-0.2,0-0.5,0.1-0.7,0.1c-0.6-0.3-1.2-0.6-1.6-0.7c-0.6-0.2-1.4-0.3-2.1-0.1
			c-0.3-0.2-0.5-0.4-0.8-0.6c-0.6-0.5-1.4-0.8-2-1.3c-0.7-0.5-1.5-1-2.4-1.3c-1.7-0.6-2.9-0.8-4.7-0.5c-1,0.1-2,0.1-3,0.1
			c-1.2-0.1-2.6,0.1-3.7-0.4c0,0,0,0,0,0c0.2,0.2,0.4,0.3,0.6,0.4c1,0.7,2,1.1,3.1,1.6c1.7,0.8,3.3,1.6,5,2.3c1.4,0.6,3.1,1,4.6,1.2
			c0.3,0.1,0.6,0.1,0.9,0.1c0,0.1,0,0.1,0,0.2c0,0-0.1,0-0.1,0.1c0,0,0,0,0,0c-0.3,0.3-0.6,0.5-0.9,0.7c-0.1,0.1-0.1,0.3,0,0.3
			c0.1,0,0.2,0,0.4,0c0.1,0,0.2-0.1,0.3,0c0.1,0,0.1,0,0.2,0c0.1,0,0.2,0,0.3-0.1c0.1,0,0.1,0,0.2,0c0.1,0,0.1,0,0.2,0l0,0
			c0.4,0.3,0.9,0.5,1.5,0.5c0.4,0.7,1.2,1.6,0.6,2.4c-0.5,0.6-1.3,1.1-1.4,1.9c0,0.1-0.1,0.2-0.1,0.2c0,0.1,0.1,0.1,0.1,0.1
			c0,0,0,0,0,0c0,0,0.1,0,0.1,0c0.1-0.1,0.2-0.2,0.3-0.3c0.4-0.3,0.1,0.2,0.2,0.6c0,0.1,0.2,0.2,0.3,0.1c0.1-0.1,0.1-0.1,0.1-0.2
			c-0.1,0.2-0.1,0.4-0.1,0.7c0.1,0.2,0.2,0.2,0.4,0.1c0.2-0.1,0.3-0.3,0.4-0.5c-0.1,0.2-0.1,0.5-0.1,0.7c0,0.1,0.2,0.2,0.3,0.1
			c0.1-0.1,0.3-0.4,0.4-0.6c0.1-0.2,0.1-0.5,0.1-0.2c0,0.4-0.1,1,0.2,1.4c0,0.1,0.2,0.1,0.3,0.1c0.4-0.3,0.7-1,0.6-1.5
			c0.1,0.6-0.1,1.3,0.2,1.8c0.1,0.1,0.3,0.2,0.4,0c0.2-0.2,0.3-0.4,0.4-0.6c0.1,0.3,0.2,0.5,0.4,0.6c0.1,0,0.2,0,0.3,0
			c0.2-0.2,0.3-0.4,0.3-0.7c0.1,0.4,0.3,0.9,0.8,0.6c0.3-0.2,0.3-0.8,0.3-1c0,0,0.1,0.4,0.2,0.7c0.1,0.1,0.1,0.2,0.2,0.3
			c0,0,0.1,0.1,0.2,0c0.3-0.1,0.4-0.4,0.3-0.7c0.2,0.3,0.3,0.5,0.6,0.6c0.1,0.1,0.3,0,0.3-0.1c0.1-0.2,0.1-0.3,0-0.5
			c-0.9-1.2,0.1,0,0.5,0.1c0.5,0.1,0.4-0.3,0.3-0.6c0.2,0.1,0.4,0.1,0.5,0.2c0.1,0,0.3-0.1,0.2-0.2c0,0-0.1-0.1-0.1-0.1
			c0.1,0.1,0.2,0.1,0.2,0.2c0.1,0,0.3,0,0.3-0.2c0.1,0.1,0.2,0.2,0.3,0.3c0.1,0,0.1,0,0.1-0.1c-0.4-0.8-1-1.7-1.7-2.2
			c-0.6-0.4-1.2-0.7-1.8-1c-0.4-0.2-0.7-0.5-0.9-1c0,0.1,0-0.4-0.1-0.6c0.5,0.3,1,0.5,1.5,0.7c1.3,0.4,2.5,0.2,3.9,0
			c0.3,0,0.6-0.2,0.9-0.1c0.9,0.2,1.6,0.8,2.4,1.2c0.7,0.3,1.2,0.5,2,0.6c0.5,0,1.3-0.1,2-0.1c0.3,0.1,0.6,0.1,1,0.1
			C926.1,153.1,926.1,153,926,153z"/>
	</g>
	<linearGradient id="XMLID_2_" gradientUnits="userSpaceOnUse" x1="127.2149" y1="267.0872" x2="-36.9097" y2="329.1818">
		<stop  offset="0" style="stop-color:#474747"/>
		<stop  offset="6.356931e-02" style="stop-color:#4B4B4B"/>
		<stop  offset="0.1287" style="stop-color:#575757"/>
		<stop  offset="0.1946" style="stop-color:#6C6C6C"/>
		<stop  offset="0.2606" style="stop-color:#888888"/>
		<stop  offset="0.31" style="stop-color:#A3A3A3"/>
		<stop  offset="0.3969" style="stop-color:#AFAFAF"/>
		<stop  offset="0.5536" style="stop-color:#CFCFCF"/>
		<stop  offset="0.6594" style="stop-color:#E8E8E8"/>
	</linearGradient>
	<path id="XMLID_21_" class="st23" d="M34.2,313.2c6-0.1,10.8-5,10.9-10.9c2,1,4.3,1.6,6.8,1.5c4-0.1,7.5-1.8,10-4.5
		c2.7,3,6.6,4.9,10.9,4.8c7.8-0.2,14-6.7,13.8-14.5c0-0.7-0.1-1.3-0.2-2c6.5,1.9,13.3-1.1,16.4-7c6.6,1.6,13.5-2.1,15.8-8.7
		c0.6-1.7,0.8-3.5,0.7-5.2c0.4-0.1,0.8-0.1,1.2-0.2c0.5,4,2.7,7.7,6.3,10.1c6.5,4.3,15.3,2.5,19.6-4.1c0.4-0.6,0.7-1.1,1-1.7
		c4.3,5.2,11.6,6.6,17.5,3.6c4.6,5.1,12.3,5.9,17.9,1.8c6-4.4,7.2-12.8,2.8-18.8c-3.8-5.1-10.6-6.8-16.2-4.3
		c-0.7-0.9-1.5-1.7-2.3-2.3c-0.2-2.3-1-4.6-2.4-6.6c-3.7-5-10.3-6.5-15.7-3.9c-0.7-3.7-2.8-7-6.1-9.2c-6.5-4.3-15.3-2.5-19.6,4.1
		c-0.7,1.1-1.3,2.2-1.6,3.4c-1-1.8-2.4-3.4-4.2-4.7c-5.8-3.8-13.7-2.2-17.5,3.6c-0.9,1.4-1.5,2.8-1.8,4.3c-4.3-0.8-8.8,1-11.4,4.9
		c-1.8,2.8-2.2,6-1.5,9c-5.8-1.8-11.9,0.7-14.8,5.8c-2.6-2.6-6.3-4.2-10.3-4.1c-7.8,0.2-14,6.7-13.8,14.5c0,1.3,0.2,2.6,0.6,3.7
		c-1.8-1-3.9-1.5-6.1-1.4c-7,0.2-12.5,6-12.4,13c0,1.6,0.4,3.2,1,4.6c-4,1.8-6.7,5.8-6.6,10.5c0,0-14.4-1.4-8.4,26.8
		c0,0-5,15.1,14.5,13.2l15.1-1.2c0,0-3.3-13.3-13.1-10.1C30.8,331,44.5,329.1,34.2,313.2z"/>
	
		<linearGradient id="XMLID_4_" gradientUnits="userSpaceOnUse" x1="66.9353" y1="215.6253" x2="-97.1893" y2="277.72" gradientTransform="matrix(0.4764 0.8792 -0.8792 0.4764 384.3439 56.5955)">
		<stop  offset="0" style="stop-color:#474747"/>
		<stop  offset="6.356931e-02" style="stop-color:#4B4B4B"/>
		<stop  offset="0.1287" style="stop-color:#575757"/>
		<stop  offset="0.1946" style="stop-color:#6C6C6C"/>
		<stop  offset="0.2606" style="stop-color:#888888"/>
		<stop  offset="0.31" style="stop-color:#A3A3A3"/>
		<stop  offset="0.3969" style="stop-color:#AFAFAF"/>
		<stop  offset="0.5536" style="stop-color:#CFCFCF"/>
		<stop  offset="0.6594" style="stop-color:#E8E8E8"/>
	</linearGradient>
	<path id="XMLID_5_" class="st24" d="M141.8,158.3c3,5.2,9.5,7.1,14.8,4.4c0.1,2.3,0.7,4.6,1.9,6.7c2,3.4,5.2,5.7,8.7,6.7
		c-1.4,3.8-1.1,8.1,1,11.9c3.9,6.8,12.5,9.1,19.3,5.3c0.6-0.3,1.1-0.7,1.6-1.1c1.5,6.6,7.4,11.2,14,11.1c1.8,6.6,8.3,10.9,15.2,9.7
		c1.8-0.3,3.5-0.9,4.9-1.8c0.2,0.3,0.5,0.7,0.8,1c-3.3,2.3-5.5,6-5.9,10.3c-0.7,7.8,5.1,14.6,12.9,15.3c0.7,0.1,1.3,0.1,2,0
		c-2.6,6.3-0.3,13.4,5.2,17.1c-2.3,6.4,0.6,13.7,6.9,16.6c6.7,3.2,14.7,0.3,17.9-6.4c2.7-5.8,1-12.5-3.9-16.3c0.4-1,0.8-2.1,1-3.1
		c2-1.2,3.6-3,4.7-5.3c2.6-5.6,0.8-12.2-4.1-15.7c2.9-2.3,4.9-5.8,5.2-9.8c0.7-7.8-5.1-14.6-12.9-15.3c-1.3-0.1-2.6,0-3.8,0.2
		c1.1-1.7,1.9-3.7,2.1-6c0.6-7-4.6-13.1-11.6-13.7c-1.6-0.1-3.2,0-4.7,0.5c-1.4-4.1-5.1-7.3-9.7-7.7c-3.3-0.3-6.4,0.9-8.6,3
		c-1.2-5.9-6.3-10.1-12.2-10.2c1.1-3.6,0.7-7.5-1.3-11c-3.9-6.8-12.5-9.1-19.3-5.3c-1.1,0.6-2.1,1.4-3,2.3c0-2.1-0.6-4.2-1.7-6.1
		c-3.5-6.1-11.2-8.2-17.3-4.7c-1.4,0.8-2.6,1.8-3.6,3c-3.5-2.6-8.3-3.1-12.3-0.8c0,0-5.6-13.4-27.6,5.4c0,0-15.7,2.8-4.7,19
		l8.2,12.7c0,0,10.1-9.2,2.7-16.3C124.5,163.8,132.7,175,141.8,158.3z"/>
	<g id="XMLID_712_">
		
			<linearGradient id="XMLID_6_" gradientUnits="userSpaceOnUse" x1="-123.9775" y1="817.2634" x2="196.3612" y2="817.2634" gradientTransform="matrix(-0.4528 0.8916 0.8916 0.4528 -423.2496 18.6371)">
			<stop  offset="0" style="stop-color:#BCBEC0"/>
			<stop  offset="0.4888" style="stop-color:#808285"/>
			<stop  offset="1" style="stop-color:#58595B"/>
		</linearGradient>
		<path id="XMLID_745_" class="st25" d="M405.9,419.4l-29.8,5.1l-33.6-142.7c1.7-0.4,2.9-2.2,2.5-4l-1.2-7.2c-0.3-1.9-2.1-3.2-4-2.8
			l-24.5,4.2c-1.9,0.3-3.2,2.1-2.8,4l1.2,7.2c0.3,1.8,1.9,3,3.7,2.9l16.1,145.7l-25.2,4.4l-33.6-142.7c1.7-0.4,2.9-2.2,2.5-4
			l-1.2-7.2c-0.3-1.9-2.1-3.2-4-2.8l-24.5,4.2c-1.9,0.3-3.2,2.1-2.8,4l1.2,7.2c0.3,1.8,1.9,3,3.7,2.9l16.1,145.7l-25.2,4.4
			l-33.6-142.7c1.7-0.4,2.9-2.2,2.5-4l-1.2-7.2c-0.3-1.9-2.1-3.2-4-2.8l-24.5,4.2c-1.9,0.3-3.2,2.1-2.8,4l1.2,7.2
			c0.3,1.8,1.9,3,3.7,2.9l16.1,145.7l-29.8,5.1l14.9,86.3l237.8-41L405.9,419.4z"/>
		
			<linearGradient id="XMLID_7_" gradientUnits="userSpaceOnUse" x1="-6.3315" y1="837.1389" x2="163.4298" y2="837.1389" gradientTransform="matrix(-0.4528 0.8916 0.8916 0.4528 -423.2496 18.6371)">
			<stop  offset="0" style="stop-color:#BCBEC0"/>
			<stop  offset="0.4888" style="stop-color:#808285"/>
			<stop  offset="1" style="stop-color:#58595B"/>
		</linearGradient>
		<polygon id="XMLID_744_" class="st26" points="387.2,492.9 374,416.4 334.2,406.1 337,421.9 299.2,412.2 301.9,427.9 264.2,418.2 
			266.9,433.9 229.3,424.2 232,440 194.3,430.3 210.4,523.7 245.4,517.3 245.4,517.6 280.2,511.3 280.3,511.6 315.3,505.3 
			315.3,505.6 350.3,499.3 350.3,499.5 		"/>
		
			<linearGradient id="XMLID_8_" gradientUnits="userSpaceOnUse" x1="27.3109" y1="887.7895" x2="251.9223" y2="887.7895" gradientTransform="matrix(-0.4528 0.8916 0.8916 0.4528 -423.2496 18.6371)">
			<stop  offset="0" style="stop-color:#BCBEC0"/>
			<stop  offset="0.4888" style="stop-color:#808285"/>
			<stop  offset="1" style="stop-color:#58595B"/>
		</linearGradient>
		<polygon id="XMLID_743_" class="st27" points="169.7,602.3 451.8,553.6 440.5,487.9 158.4,536.5 		"/>
		<g id="XMLID_728_">
			
				<rect id="XMLID_742_" x="330.8" y="448" transform="matrix(-0.9854 0.1701 -0.1701 -0.9854 743.5736 837.4825)" class="st28" width="10.3" height="5.2"/>
			
				<rect id="XMLID_741_" x="315.5" y="450.6" transform="matrix(-0.9855 0.1699 -0.1699 -0.9855 713.701 845.3409)" class="st28" width="10.3" height="5.2"/>
			
				<rect id="XMLID_740_" x="300.3" y="453.3" transform="matrix(-0.9855 0.1699 -0.1699 -0.9855 683.8791 853.1526)" class="st28" width="10.3" height="5.2"/>
			
				<rect id="XMLID_739_" x="285" y="455.9" transform="matrix(-0.9854 0.1701 -0.1701 -0.9854 654.1028 860.9196)" class="st28" width="10.3" height="5.2"/>
			
				<rect id="XMLID_738_" x="269.8" y="458.5" transform="matrix(-0.9855 0.1699 -0.1699 -0.9855 624.206 868.7938)" class="st28" width="10.3" height="5.2"/>
			
				<rect id="XMLID_737_" x="254.5" y="461.2" transform="matrix(-0.9855 0.1699 -0.1699 -0.9855 594.3768 876.6081)" class="st28" width="10.3" height="5.2"/>
			
				<rect id="XMLID_736_" x="239.3" y="463.8" transform="matrix(-0.9855 0.1698 -0.1698 -0.9855 564.542 884.4246)" class="st28" width="10.3" height="5.2"/>
			
				<rect id="XMLID_735_" x="329.4" y="440.1" transform="matrix(-0.9855 0.1699 -0.1699 -0.9855 739.4789 822.0535)" class="st28" width="10.3" height="5.2"/>
			
				<rect id="XMLID_734_" x="314.2" y="442.7" transform="matrix(-0.9855 0.1699 -0.1699 -0.9855 709.6539 829.8639)" class="st28" width="10.3" height="5.2"/>
			
				<rect id="XMLID_733_" x="298.9" y="445.4" transform="matrix(-0.9854 0.17 -0.17 -0.9854 679.8595 837.6473)" class="st28" width="10.3" height="5.2"/>
			
				<rect id="XMLID_732_" x="283.7" y="448" transform="matrix(-0.9854 0.17 -0.17 -0.9854 650.0173 845.4757)" class="st28" width="10.3" height="5.2"/>
			
				<rect id="XMLID_731_" x="268.4" y="450.6" transform="matrix(-0.9855 0.1698 -0.1698 -0.9855 620.1094 853.3589)" class="st28" width="10.3" height="5.2"/>
			
				<rect id="XMLID_730_" x="253.2" y="453.2" transform="matrix(-0.9854 0.17 -0.17 -0.9854 590.3773 861.0911)" class="st28" width="10.3" height="5.2"/>
			
				<rect id="XMLID_729_" x="237.9" y="455.9" transform="matrix(-0.9855 0.1698 -0.1698 -0.9855 560.4909 868.9503)" class="st28" width="10.3" height="5.2"/>
		</g>
		<g id="XMLID_713_">
			
				<rect id="XMLID_727_" x="394.4" y="473.9" transform="matrix(-0.9855 0.1699 -0.1699 -0.9855 874.3469 878.1584)" class="st28" width="10.3" height="5.2"/>
			
				<rect id="XMLID_726_" x="379.2" y="476.5" transform="matrix(-0.9855 0.1698 -0.1698 -0.9855 844.4957 885.9971)" class="st28" width="10.3" height="5.2"/>
			
				<rect id="XMLID_725_" x="364" y="479.2" transform="matrix(-0.9854 0.17 -0.17 -0.9854 814.7645 893.7084)" class="st28" width="10.3" height="5.2"/>
			
				<rect id="XMLID_724_" x="348.7" y="481.8" transform="matrix(-0.9855 0.1699 -0.1699 -0.9855 784.8732 901.5876)" class="st28" width="10.3" height="5.2"/>
			
				<rect id="XMLID_723_" x="333.5" y="484.4" transform="matrix(-0.9855 0.17 -0.17 -0.9855 755.0821 909.3671)" class="st28" width="10.3" height="5.2"/>
			
				<rect id="XMLID_722_" x="318.2" y="487.1" transform="matrix(-0.9854 0.17 -0.17 -0.9854 725.2936 917.145)" class="st28" width="10.3" height="5.2"/>
			
				<rect id="XMLID_721_" x="303" y="489.7" transform="matrix(-0.9855 0.1699 -0.1699 -0.9855 695.4235 924.9991)" class="st28" width="10.3" height="5.2"/>
			
				<rect id="XMLID_720_" x="393.1" y="466" transform="matrix(-0.9855 0.1699 -0.1699 -0.9855 870.2831 862.6982)" class="st28" width="10.3" height="5.2"/>
			
				<rect id="XMLID_719_" x="377.8" y="468.6" transform="matrix(-0.9855 0.1698 -0.1698 -0.9855 840.4468 870.5197)" class="st28" width="10.3" height="5.2"/>
			
				<rect id="XMLID_718_" x="362.6" y="471.3" transform="matrix(-0.9855 0.1698 -0.1698 -0.9855 810.6088 878.3441)" class="st28" width="10.3" height="5.2"/>
			
				<rect id="XMLID_717_" x="347.3" y="473.9" transform="matrix(-0.9855 0.1699 -0.1699 -0.9855 780.8448 886.0898)" class="st28" width="10.3" height="5.2"/>
			
				<rect id="XMLID_716_" x="332.1" y="476.5" transform="matrix(-0.9854 0.17 -0.17 -0.9854 751.0525 893.87)" class="st28" width="10.3" height="5.2"/>
			
				<rect id="XMLID_715_" x="316.9" y="479.1" transform="matrix(-0.9855 0.1699 -0.1699 -0.9855 721.1924 901.7139)" class="st28" width="10.3" height="5.2"/>
			
				<rect id="XMLID_714_" x="301.6" y="481.8" transform="matrix(-0.9855 0.1699 -0.1699 -0.9855 691.3738 909.5223)" class="st28" width="10.3" height="5.2"/>
		</g>
	</g>
	<g>
		
			<rect x="335" y="492.4" transform="matrix(0.9847 -0.1743 0.1743 0.9847 -80.6662 90.3101)" class="st29" width="278" height="24.3"/>
		
			<rect x="466.7" y="359.7" transform="matrix(0.1743 0.9847 -0.9847 0.1743 881.5596 -53.9061)" class="st30" width="12.4" height="278"/>
		<g>
			<circle class="st31" cx="578.8" cy="501.4" r="18.2"/>
			<circle class="st32" cx="578.8" cy="501.4" r="10.9"/>
			<circle class="st31" cx="578.8" cy="501.4" r="6.8"/>
		</g>
		<g>
			<circle class="st31" cx="422.2" cy="529.1" r="18.2"/>
			<circle class="st32" cx="422.2" cy="529.1" r="10.9"/>
			<circle class="st31" cx="422.2" cy="529.1" r="6.8"/>
		</g>
		<g>
			<circle class="st31" cx="378.1" cy="536.9" r="18.2"/>
			<circle class="st32" cx="378.1" cy="536.9" r="10.9"/>
			<circle class="st31" cx="378.1" cy="536.9" r="6.8"/>
		</g>
		<path class="st33" d="M623.5,439.2l9.4,53l-30.9,5.5l-1.8-10.3c-1.7-9.3-10.6-15.6-19.9-13.9l-33.9,6l-10.4-58.7l69.9-12.4
			L623.5,439.2z"/>
		
			<rect x="569.5" y="415" transform="matrix(0.9847 -0.1743 0.1743 0.9847 -68.7957 106.1884)" class="st34" width="1.5" height="59.7"/>
		
			<rect x="540" y="427.2" transform="matrix(-0.1743 -0.9847 0.9847 -0.1743 219.6756 1058.8801)" class="st35" width="27.5" height="20.2"/>
		<polygon class="st35" points="573.9,419.8 578.7,446.9 614.3,440.6 602.1,414.8 		"/>
		<path class="st34" d="M605.8,408.3l-69.9,12.4l-1.3-7.5l60.9-10.8c3.8-0.7,7.5,1.1,9.4,4.4L605.8,408.3z"/>
		
			<rect x="331.5" y="416.4" transform="matrix(0.9847 -0.1743 0.1743 0.9847 -73.0865 82.6287)" class="st36" width="205.1" height="82.2"/>
		<g>
			
				<rect x="491.6" y="438.5" transform="matrix(0.1743 0.9847 -0.9847 0.1743 870.2255 -156.027)" class="st37" width="73" height="4.7"/>
			
				<rect x="481.2" y="440.3" transform="matrix(0.1743 0.9847 -0.9847 0.1743 863.4109 -144.1984)" class="st37" width="73" height="4.7"/>
			
				<rect x="470.7" y="442.2" transform="matrix(0.1743 0.9847 -0.9847 0.1743 856.5963 -132.3698)" class="st37" width="73" height="4.7"/>
			
				<rect x="460.2" y="444" transform="matrix(0.1743 0.9847 -0.9847 0.1743 849.7817 -120.5411)" class="st37" width="73" height="4.7"/>
			
				<rect x="449.8" y="445.9" transform="matrix(0.1743 0.9847 -0.9847 0.1743 842.9671 -108.7125)" class="st37" width="73" height="4.7"/>
			
				<rect x="439.3" y="447.7" transform="matrix(0.1743 0.9847 -0.9847 0.1743 836.1525 -96.8838)" class="st37" width="73" height="4.7"/>
			
				<rect x="428.9" y="449.6" transform="matrix(0.1743 0.9847 -0.9847 0.1743 829.3379 -85.0552)" class="st37" width="73" height="4.7"/>
			
				<rect x="418.4" y="451.4" transform="matrix(0.1743 0.9847 -0.9847 0.1743 822.5233 -73.2266)" class="st37" width="73" height="4.7"/>
			
				<rect x="407.9" y="453.3" transform="matrix(0.1743 0.9847 -0.9847 0.1743 815.7087 -61.3979)" class="st37" width="73" height="4.7"/>
			
				<rect x="397.5" y="455.1" transform="matrix(0.1743 0.9847 -0.9847 0.1743 808.894 -49.5693)" class="st37" width="73" height="4.7"/>
			
				<rect x="387" y="457" transform="matrix(0.1743 0.9847 -0.9847 0.1743 802.0795 -37.7407)" class="st37" width="73" height="4.7"/>
			
				<rect x="376.6" y="458.8" transform="matrix(0.1743 0.9847 -0.9847 0.1743 795.2648 -25.9121)" class="st37" width="73" height="4.7"/>
			
				<rect x="366.1" y="460.7" transform="matrix(0.1743 0.9847 -0.9847 0.1743 788.4503 -14.0834)" class="st37" width="73" height="4.7"/>
			
				<rect x="355.6" y="462.6" transform="matrix(0.1743 0.9847 -0.9847 0.1743 781.6356 -2.2548)" class="st37" width="73" height="4.7"/>
			
				<rect x="345.2" y="464.4" transform="matrix(0.1743 0.9847 -0.9847 0.1743 774.821 9.5738)" class="st37" width="73" height="4.7"/>
			
				<rect x="334.7" y="466.3" transform="matrix(0.1743 0.9847 -0.9847 0.1743 768.0064 21.4025)" class="st37" width="73" height="4.7"/>
			
				<rect x="324.3" y="468.1" transform="matrix(0.1743 0.9847 -0.9847 0.1743 761.1918 33.2311)" class="st37" width="73" height="4.7"/>
			
				<rect x="313.8" y="470" transform="matrix(0.1743 0.9847 -0.9847 0.1743 754.3772 45.0597)" class="st37" width="73" height="4.7"/>
			
				<rect x="303.3" y="471.8" transform="matrix(0.1743 0.9847 -0.9847 0.1743 747.5626 56.8884)" class="st37" width="73" height="4.7"/>
		</g>
		<path class="st35" d="M600.1,449.4l-10.8,1.9c-0.7,0.1-1.1,0.8-1,1.4l0.3,1.8c0.1,0.7,0.8,1.1,1.4,1l10.8-1.9
			c0.7-0.1,1.1-0.8,1-1.4l-0.3-1.8C601.4,449.8,600.8,449.3,600.1,449.4z"/>
		<path class="st29" d="M630.6,475.3l-25.9,4.6l3.5,19.9l18.4-3.3c5.2-0.9,8.7-5.9,7.8-11.1l-1.5-8.5
			C632.8,475.8,631.7,475.1,630.6,475.3z"/>
		<g>
			
				<rect x="502.1" y="486.7" transform="matrix(0.9847 -0.1743 0.1743 0.9847 -78.8045 99.4895)" class="st29" width="50.1" height="23.7"/>
			
				<rect x="503.5" y="503.1" transform="matrix(0.9847 -0.1743 0.1743 0.9847 -80.2014 99.8652)" class="st30" width="50.1" height="7.1"/>
			
				<rect x="500.7" y="486.8" transform="matrix(0.9847 -0.1743 0.1743 0.9847 -77.4075 99.1138)" class="st38" width="50.1" height="7.1"/>
		</g>
		<polygon class="st31" points="506.2,490.2 507.4,497.2 509.1,506.5 510.3,513.5 514.3,512.8 513,505.8 511.4,496.5 510.2,489.5 		
			"/>
		<polygon class="st31" points="536.2,484.9 537.4,491.9 539.1,501.2 540.3,508.2 544.3,507.5 543.1,500.5 541.4,491.2 540.2,484.2 
					"/>
		<path class="st37" d="M625.9,453.2l3,16.8l-6.7,1.2c-2.6,0.5-5-1.3-5.5-3.8l-2.1-12.1L625.9,453.2z"/>
	</g>
	<path id="XMLID_80_" class="st39" d="M452.1,204.5c-1.5-8.6-9.5-14.4-18.1-13.3c0-0.6-0.1-1.1-0.2-1.7c-1.6-8.8-10-14.7-18.8-13.2
		c-4.4,0.8-8.1,3.3-10.5,6.6c-3.4-2.4-7.7-3.4-12.1-2.7c-8.8,1.6-14.7,10-13.2,18.8c0.1,0.6,0.2,1.1,0.4,1.7c-0.3,0-0.6,0.1-0.9,0.1
		c-8.8,1.6-14.7,10-13.2,18.8L452.1,204.5z"/>
	<path id="XMLID_72_" class="st39" d="M512.3,167.9c-0.8-4.4-5-7.4-9.4-6.8c0-0.3-0.1-0.6-0.1-0.9c-0.8-4.6-5.2-7.6-9.8-6.8
		c-2.3,0.4-4.2,1.7-5.4,3.5c-1.8-1.2-4-1.8-6.3-1.3c-4.6,0.8-7.6,5.2-6.8,9.8c0.1,0.3,0.1,0.6,0.2,0.9c-0.2,0-0.3,0-0.5,0.1
		c-4.6,0.8-7.6,5.2-6.8,9.8L512.3,167.9z"/>
	<path id="XMLID_68_" class="st39" d="M343.9,190.4c-0.5-2.8-3.1-4.6-5.8-4.2c0-0.2,0-0.4-0.1-0.5c-0.5-2.8-3.2-4.7-6.1-4.2
		c-1.4,0.3-2.6,1.1-3.3,2.2c-1.1-0.8-2.5-1.1-3.9-0.8c-2.8,0.5-4.7,3.2-4.2,6.1c0,0.2,0.1,0.4,0.1,0.5c-0.1,0-0.2,0-0.3,0
		c-2.8,0.5-4.7,3.2-4.2,6.1L343.9,190.4z"/>
	<rect x="159" y="546.9" transform="matrix(0.986 -0.1668 0.1668 0.986 -86.0212 76.3436)" width="505.2" height="6.9"/>
	<path class="st40" d="M574.7,676.5c0-6.9,59.6-12.5,125.4-12.5c65.8,0,112.8,5.6,112.8,12.5c0,6.9-47,12.5-112.8,12.5
		C634.4,688.9,574.7,683.3,574.7,676.5z"/>
	<g>
		
			<linearGradient id="XMLID_10_" gradientUnits="userSpaceOnUse" x1="283.0964" y1="1179.3773" x2="356.3625" y2="1179.3773" gradientTransform="matrix(-9.448851e-02 0.9955 0.9955 9.448851e-02 -898.2806 131.0932)">
			<stop  offset="0" style="stop-color:#58595B"/>
			<stop  offset="0.5169" style="stop-color:#414042"/>
			<stop  offset="1" style="stop-color:#231F20"/>
		</linearGradient>
		<path id="XMLID_705_" class="st41" d="M182.9,584.2c0.3,1,3.5,7.2,4.2,7.9l46-11.6l34.7-2.2l34,2.3c1.9-1.7,3.6-9.1,3.6-11.9
			c0-5-4.1-9-9.1-9.1c-0.1-0.1-0.2-0.2-0.3-0.4c0.7-0.9,1.2-2,1.2-3.3c0-2.9-2.4-5.3-5.3-5.2c-1.4,0-2.6,0.6-3.5,1.4
			c-0.2-0.1-0.3-0.2-0.5-0.3c-0.3-5.3-6.3-10.7-14.6-12.4c-3.4-0.7-6.7-0.8-9.6-0.2c-1.3-5.4-6.1-9.4-11.8-9.3
			c-4.1,0-7.8,2.1-9.9,5.3c-3.4,0.5-6.2,2.4-7.9,5.1c0.1-1.2,0.1-2.5-0.2-3.7c-0.9-3.7-3.5-6.4-6.7-7.4l0,0l1.6-6.8l-6,3.4l-7.2,1.2
			l5,3h0c-2,1.3-3.5,3.5-3.9,6c-0.6,0.1-1.2,0.3-1.8,0.4c-8.9,2.6-14.6,9.8-12.8,16.1c0.1,0.4,0.2,0.7,0.4,1c-1.7-0.5-3.6-0.5-5.4,0
			c-4.8,1.4-7.7,6.3-6.3,10.9c0.2,0.7,0.5,1.4,0.9,2c-0.5,0-1,0.1-1.6,0.2C186.9,567.8,182.1,581.1,182.9,584.2z M258.3,563.8
			l0.1-0.5c0-0.2,0.1-0.3,0.2-0.5c0.1-0.2,0.1-0.4,0.2-0.5l0.3-0.5c0.1-0.2,0.2-0.3,0.4-0.4c0.1-0.1,0.3-0.3,0.4-0.4
			c0.3-0.2,0.6-0.5,1-0.6l0.6-0.2l0.6-0.1l0.3,0c0.2,0,0.2,0,0.3,0l0.5,0c0.1,0,0.3,0,0.4,0.1c0-0.3,0.1-0.5,0.1-0.8
			c0.2-0.5,0.3-1,0.5-1.5c0.3-0.5,0.5-0.9,0.8-1.4c0.4-0.4,0.7-0.8,1.1-1.2c0.4-0.3,0.8-0.7,1.3-1c0.5-0.2,0.9-0.5,1.5-0.7
			c0.5-0.1,1-0.4,1.6-0.4c0.6,0,1-0.2,1.6-0.1c0.5,0.1,0.9,0.1,1.5,0.2c0.5,0.2,1.1,0.3,1.6,0.5c0.5,0.3,0.9,0.5,1.3,0.8
			c0.4,0.4,0.8,0.7,1.1,1.1c0.3,0.4,0.6,0.8,0.9,1.3c0.2,0.5,0.4,0.9,0.6,1.4c0.1,0.5,0.2,1,0.3,1.5c0,0.5,0,1,0,1.5
			c-0.1-0.5-0.2-1-0.3-1.4c-0.2-0.5-0.4-0.9-0.5-1.3c-0.2-0.4-0.5-0.8-0.8-1.2c-0.3-0.4-0.6-0.7-0.9-1c-0.3-0.3-0.7-0.5-1.1-0.8
			c-0.4-0.2-0.8-0.4-1.2-0.6c-0.4-0.2-0.8-0.2-1.2-0.4c-0.4-0.1-1-0.1-1.4-0.1c-0.3,0-0.8,0.1-1.3,0.1c-0.4,0-0.8,0.2-1.3,0.3
			c-0.4,0.1-0.8,0.4-1.2,0.6c-0.4,0.2-0.7,0.5-1,0.8c-0.3,0.3-0.6,0.6-0.9,1l-0.7,1.1l-0.5,1.2c-0.1,0.4-0.2,0.9-0.3,1.3l-0.2,0.8
			l-0.7-0.3l-0.4-0.1c-0.1,0-0.2-0.1-0.4-0.1l-0.5-0.1c-0.1,0-0.2,0-0.2,0l-0.2,0l-0.5,0l-0.5,0.1c-0.3,0-0.6,0.2-0.9,0.3
			c-0.3,0.2-0.6,0.3-0.8,0.6l-0.3,0.4c-0.1,0.1-0.2,0.3-0.3,0.4c-0.1,0.1-0.2,0.3-0.3,0.4l-0.2,0.5c-0.1,0.3-0.2,0.7-0.3,1
			C258.3,564.5,258.3,564.1,258.3,563.8z M254.7,542.6c-0.9-2.8-3.1-5.1-5.9-6.4c1.2-1.4,2.7-2.2,4.3-2.2c3,0,5.6,2.7,6.6,6.5
			c-1.3,0.6-2.4,1.3-3.3,2.2C255.9,542.7,255.3,542.7,254.7,542.6z M202.4,565.5c0-0.2,0-0.4,0-0.7c0-0.3,0.1-0.6,0.2-0.9
			c0.1-0.3,0.3-0.7,0.5-1c0.2-0.3,0.6-0.6,0.9-0.9c0.4-0.2,0.7-0.5,1.2-0.6c0.5-0.2,0.8-0.2,1.4-0.2c0.5,0.1,1,0.1,1.4,0.2
			c0.1,0,0.1,0.1,0.2,0.1l0-0.2c0-0.4,0.1-0.8,0.2-1.3c0.1-0.5,0.2-0.9,0.4-1.3c0.2-0.4,0.4-0.8,0.6-1.2c0.3-0.4,0.5-0.8,0.8-1.1
			c0.3-0.3,0.6-0.6,1-0.9l1.2-0.7c0.4-0.2,0.9-0.3,1.3-0.5c0.4-0.2,0.9-0.2,1.4-0.2c0.3,0,0.4-0.1,0.7-0.1l0.6,0
			c0.4,0,0.9,0.1,1.4,0.2c0.5,0.1,0.9,0.3,1.3,0.5c0.4,0.2,0.9,0.4,1.2,0.7c0.4,0.3,0.8,0.6,1.1,0.9c0.4,0.3,0.6,0.7,0.9,1.1
			c0.1,0.2,0.3,0.4,0.4,0.6c0.3-0.1,0.5-0.3,0.8-0.3c0.5-0.1,1.1-0.2,1.7-0.2c0.4,0,0.5,0.1,0.8,0.1c0.2,0,0.5,0,0.8,0.2l0.8,0.3
			c0.3,0.1,0.5,0.3,0.7,0.4c0.5,0.3,0.9,0.7,1.3,1c0.2,0.2,0.3,0.4,0.5,0.6c0.2,0.2,0.3,0.4,0.4,0.7l0.3,0.7l0.2,0.8
			c0.2,0.5,0,1,0.1,1.5c-0.1-0.5-0.2-1-0.4-1.4l-0.3-0.7l-0.4-0.6c-0.1-0.2-0.3-0.4-0.5-0.5l-0.5-0.5c-0.4-0.2-0.7-0.6-1.2-0.7
			c-0.4-0.2-0.8-0.3-1.2-0.4c-0.2-0.1-0.5-0.1-0.7-0.1c-0.2,0-0.6,0-0.7,0c-0.4,0-0.9,0.1-1.3,0.2c-0.4,0.2-0.8,0.3-1.2,0.6
			l-0.6,0.4l-0.5-0.7c-0.2-0.3-0.4-0.7-0.6-0.9c-0.2-0.3-0.5-0.6-0.8-0.8c-0.3-0.3-0.6-0.5-0.9-0.7c-0.3-0.2-0.7-0.4-1-0.6
			c-0.3-0.1-0.7-0.3-1.1-0.4c-0.4-0.1-0.6-0.2-1.1-0.2l-0.6-0.1c-0.1,0-0.4,0-0.5,0c-0.4,0.1-0.8,0-1.1,0.1l-1.1,0.3l-1,0.5
			c-0.3,0.2-0.6,0.5-1,0.7c-0.3,0.2-0.6,0.5-0.9,0.8c-0.3,0.3-0.5,0.6-0.7,1c-0.2,0.3-0.5,0.7-0.6,1.1c-0.1,0.4-0.4,0.7-0.4,1.2
			l-0.1,0.3c0.3,0.1,0.5,0.3,0.8,0.4c0.3,0.3,0.7,0.5,0.9,0.9c0.2,0.3,0.4,0.6,0.6,1c0.2,0.3,0.2,0.6,0.2,0.9c0.1,0.3,0.1,0.5,0,0.7
			c0,0.4-0.1,0.6-0.1,0.6s-0.1-0.2-0.2-0.6c0-0.2-0.1-0.4-0.2-0.6c-0.1-0.2-0.2-0.4-0.4-0.7c-0.2-0.2-0.4-0.5-0.6-0.7
			c-0.2-0.2-0.5-0.4-0.8-0.6c-0.3-0.1-0.6-0.3-1-0.4c-0.3-0.1-0.7-0.1-1.1-0.1c-0.3,0-0.9,0-1.1,0.2c-0.3,0.1-0.6,0.2-0.9,0.4
			c-0.3,0.2-0.6,0.4-0.8,0.6c-0.2,0.2-0.5,0.4-0.6,0.7c-0.2,0.2-0.3,0.5-0.4,0.7c-0.1,0.2-0.2,0.4-0.2,0.6c-0.1,0.3-0.2,0.6-0.2,0.6
			S202.5,565.9,202.4,565.5z"/>
		
			<linearGradient id="XMLID_11_" gradientUnits="userSpaceOnUse" x1="272.2052" y1="1222.1471" x2="296.1281" y2="1222.1471" gradientTransform="matrix(-9.448851e-02 0.9955 0.9955 9.448851e-02 -898.2806 131.0932)">
			<stop  offset="0" style="stop-color:#58595B"/>
			<stop  offset="0.5169" style="stop-color:#414042"/>
			<stop  offset="1" style="stop-color:#231F20"/>
		</linearGradient>
		<path id="XMLID_704_" class="st42" d="M293.9,538.5c-0.4,0.6-0.8,1.2-1.3,1.5c-0.3,0.2-0.5,0.4-0.7,0.5c-0.2,0.1-0.5,0.2-0.7,0.3
			c-0.4,0.2-0.8,0.3-1,0.3c-0.2,0.1-0.3,0.1-0.3,0.1s0.1-0.1,0.3-0.2c0.2-0.1,0.5-0.3,0.7-0.6c0.1-0.1,0.3-0.3,0.5-0.4
			c0.2-0.2,0.3-0.4,0.5-0.6c0.3-0.4,0.5-0.9,0.7-1.4c0.1-0.6,0.2-1.2,0.2-1.8c0-0.7-0.2-1.3-0.4-2.1c-0.4-1.4-1-3-1.7-4.6
			c-0.6-1.6-1.3-3.2-1.7-4.8c-0.2-0.8-0.4-1.6-0.4-2.4c-0.1-0.8,0-1.5,0.2-2.2c0.2-0.7,0.6-1.3,1.1-1.7c0.5-0.4,1-0.7,1.5-0.8
			c0.4-0.2,0.8-0.2,1-0.2c0.2,0,0.4-0.1,0.4-0.1s-0.1,0.1-0.3,0.2c-0.2,0.1-0.5,0.3-0.8,0.5c-0.3,0.2-0.7,0.5-0.9,0.9
			c-0.3,0.4-0.4,0.9-0.5,1.4c0,0.6,0.1,1.2,0.2,1.8c0.2,0.7,0.4,1.3,0.7,2.1c0.3,0.7,0.6,1.5,0.9,2.2c0.3,0.8,0.7,1.6,1,2.3
			c0.3,0.8,0.6,1.6,0.9,2.4c0.3,0.8,0.4,1.7,0.6,2.5c0.1,0.8,0.2,1.6,0.1,2.4C294.6,537.1,294.3,537.9,293.9,538.5z"/>
		
			<linearGradient id="XMLID_12_" gradientUnits="userSpaceOnUse" x1="278.5312" y1="1131.8519" x2="302.4542" y2="1131.8519" gradientTransform="matrix(-9.448851e-02 0.9955 0.9955 9.448851e-02 -898.2806 131.0932)">
			<stop  offset="0" style="stop-color:#58595B"/>
			<stop  offset="0.5169" style="stop-color:#414042"/>
			<stop  offset="1" style="stop-color:#231F20"/>
		</linearGradient>
		<path id="XMLID_703_" class="st43" d="M200.2,527.5c-0.6-1.6-1.3-3.2-1.7-4.8c-0.2-0.8-0.4-1.6-0.4-2.4c-0.1-0.8,0-1.5,0.2-2.2
			c0.2-0.7,0.6-1.3,1.1-1.7c0.5-0.4,1-0.7,1.5-0.8c0.4-0.2,0.8-0.2,1-0.2c0.2,0,0.4-0.1,0.4-0.1s-0.1,0.1-0.3,0.2
			c-0.2,0.1-0.5,0.3-0.8,0.5c-0.3,0.2-0.7,0.5-0.9,0.9c-0.3,0.4-0.4,0.9-0.5,1.4c0,0.6,0.1,1.2,0.2,1.8c0.2,0.7,0.4,1.3,0.7,2.1
			c0.3,0.7,0.6,1.5,0.9,2.2c0.3,0.8,0.7,1.6,1,2.3c0.3,0.8,0.6,1.6,0.9,2.4c0.3,0.8,0.4,1.7,0.6,2.5c0.1,0.8,0.2,1.6,0,2.4
			c-0.1,0.8-0.3,1.5-0.7,2.2c-0.4,0.6-0.8,1.2-1.3,1.5c-0.3,0.2-0.5,0.4-0.7,0.5c-0.2,0.1-0.5,0.2-0.7,0.3c-0.4,0.2-0.8,0.3-1,0.3
			c-0.2,0.1-0.3,0.1-0.3,0.1s0.1-0.1,0.3-0.2c0.2-0.1,0.5-0.3,0.7-0.6c0.1-0.1,0.3-0.3,0.5-0.4c0.2-0.2,0.3-0.4,0.5-0.6
			c0.3-0.4,0.5-0.9,0.7-1.4c0.1-0.6,0.2-1.2,0.2-1.8c0-0.6-0.2-1.3-0.4-2.1C201.5,530.6,200.9,529,200.2,527.5z"/>
		
			<linearGradient id="XMLID_13_" gradientUnits="userSpaceOnUse" x1="256.2302" y1="1164.8977" x2="280.1531" y2="1164.8977" gradientTransform="matrix(-9.448851e-02 0.9955 0.9955 9.448851e-02 -898.2806 131.0932)">
			<stop  offset="0" style="stop-color:#58595B"/>
			<stop  offset="0.5169" style="stop-color:#414042"/>
			<stop  offset="1" style="stop-color:#231F20"/>
		</linearGradient>
		<path id="XMLID_702_" class="st44" d="M238.5,517.2c-0.4,0.6-0.8,1.2-1.3,1.5c-0.3,0.2-0.5,0.4-0.7,0.5c-0.2,0.1-0.5,0.2-0.7,0.3
			c-0.4,0.2-0.8,0.3-1,0.3c-0.2,0.1-0.3,0.1-0.3,0.1s0.1-0.1,0.3-0.2c0.2-0.1,0.5-0.3,0.7-0.6c0.1-0.1,0.3-0.3,0.5-0.4
			c0.2-0.2,0.3-0.4,0.5-0.6c0.3-0.4,0.5-0.9,0.7-1.4c0.1-0.6,0.2-1.2,0.2-1.8c0-0.7-0.2-1.3-0.4-2.1c-0.4-1.4-1-3-1.7-4.5
			c-0.6-1.6-1.3-3.2-1.7-4.8c-0.2-0.8-0.4-1.6-0.4-2.3c-0.1-0.8,0-1.5,0.2-2.2c0.2-0.7,0.6-1.3,1.1-1.7c0.5-0.4,1-0.7,1.5-0.8
			c0.4-0.2,0.8-0.2,1-0.2c0.2,0,0.4-0.1,0.4-0.1s-0.1,0.1-0.3,0.2c-0.2,0.1-0.5,0.3-0.8,0.5c-0.3,0.2-0.7,0.5-0.9,0.9
			c-0.3,0.4-0.4,0.9-0.5,1.4c0,0.6,0.1,1.2,0.2,1.8c0.2,0.7,0.4,1.3,0.7,2.1c0.3,0.7,0.6,1.5,0.9,2.2c0.3,0.8,0.7,1.6,1,2.3
			c0.3,0.8,0.6,1.6,0.9,2.4c0.3,0.8,0.4,1.7,0.6,2.5c0.1,0.8,0.2,1.6,0.1,2.4C239.1,515.8,238.8,516.6,238.5,517.2z"/>
		
			<linearGradient id="XMLID_14_" gradientUnits="userSpaceOnUse" x1="259.6994" y1="1194.9932" x2="283.6224" y2="1194.9932" gradientTransform="matrix(-9.448851e-02 0.9955 0.9955 9.448851e-02 -898.2806 131.0932)">
			<stop  offset="0" style="stop-color:#58595B"/>
			<stop  offset="0.5169" style="stop-color:#414042"/>
			<stop  offset="1" style="stop-color:#231F20"/>
		</linearGradient>
		<path id="XMLID_701_" class="st45" d="M264.8,514.7c-0.6-1.6-1.3-3.2-1.7-4.8c-0.2-0.8-0.4-1.6-0.4-2.4c-0.1-0.8,0-1.5,0.2-2.2
			c0.2-0.7,0.6-1.3,1.1-1.7c0.5-0.4,1-0.7,1.5-0.8c0.4-0.2,0.8-0.2,1-0.2c0.2,0,0.4-0.1,0.4-0.1s-0.1,0.1-0.3,0.2
			c-0.2,0.1-0.5,0.3-0.8,0.5c-0.3,0.2-0.7,0.5-0.9,0.9c-0.3,0.4-0.4,0.9-0.5,1.4c0,0.6,0.1,1.2,0.2,1.8c0.2,0.7,0.4,1.3,0.7,2.1
			c0.3,0.7,0.6,1.5,0.9,2.2c0.3,0.8,0.7,1.6,1,2.3c0.3,0.8,0.6,1.6,0.9,2.4c0.3,0.8,0.4,1.7,0.6,2.5c0.1,0.8,0.2,1.6,0.1,2.4
			c-0.1,0.8-0.4,1.5-0.7,2.2c-0.4,0.6-0.8,1.2-1.3,1.5c-0.3,0.2-0.5,0.4-0.7,0.5c-0.2,0.1-0.5,0.2-0.7,0.3c-0.4,0.2-0.8,0.3-1,0.3
			c-0.2,0.1-0.3,0.1-0.3,0.1s0.1-0.1,0.3-0.2c0.2-0.1,0.5-0.3,0.7-0.6c0.1-0.1,0.3-0.3,0.5-0.4c0.2-0.2,0.3-0.4,0.5-0.6
			c0.3-0.4,0.5-0.9,0.7-1.4c0.1-0.6,0.2-1.2,0.2-1.8c0-0.6-0.2-1.3-0.4-2.1C266.1,517.8,265.5,516.2,264.8,514.7z"/>
		<path id="XMLID_696_" class="st32" d="M242.7,568.4l2.2,1.2l2.2,1.2c0.4,0.2,0.9,0.1,1.1-0.3c1-1.8,3.7-6.8,4.9-9.1
			c1.5-2.7,3.7-11.7,3.7-11.7l0.3,0.2c0.2,0.1,0.4,0,0.5-0.2l0.2-0.5c0.1-0.2,0-0.4-0.2-0.5l-1.1-0.6l-1.1-0.6
			c-0.2-0.1-0.4,0-0.5,0.2l-0.2,0.5c-0.1,0.2,0,0.4,0.2,0.5l0.3,0.2c0,0-6.4,6.7-7.8,9.4c-1.2,2.2-3.9,7.2-4.9,9.1
			C242.2,567.7,242.4,568.2,242.7,568.4z M255.6,549.2c0,0-0.1,0.1-0.3,0.4c-0.2,0.2-0.4,0.6-0.7,1c-0.3,0.4-0.7,0.9-1.1,1.4
			c-0.4,0.5-0.8,1-1.3,1.5c-0.4,0.5-0.9,1-1.3,1.5c-0.2,0.2-0.4,0.5-0.6,0.7c-0.2,0.2-0.4,0.4-0.5,0.6c-0.2,0.2-0.3,0.4-0.4,0.5
			c-0.1,0.2-0.2,0.3-0.3,0.4c-0.2,0.2-0.3,0.4-0.3,0.4s0.1-0.1,0.2-0.4c0.2-0.2,0.3-0.6,0.7-1c0.3-0.4,0.6-0.9,1-1.4
			c0.4-0.5,0.8-1,1.3-1.5c0.4-0.5,0.9-1,1.3-1.5c0.4-0.5,0.8-0.9,1.2-1.3c0.3-0.4,0.6-0.7,0.8-0.9
			C255.5,549.3,255.6,549.2,255.6,549.2z M244.5,566.8l4.2-7.7l3.2,1.7l-4.2,7.7L244.5,566.8z"/>
		<path id="XMLID_692_" class="st32" d="M190.2,571.8c0.2,1.1,1.1,1.6,1.2,2.1c0.1,0.5-0.5,1.4-0.1,3.8c0.4,2.1,1.1,5.8,1.3,6.8
			c0,0.2,0.2,0.4,0.4,0.5c0.4,0.2,1.1,0.3,2.4,0.1c1.3-0.3,1.9-0.7,2.1-1c0.1-0.1,0.2-0.4,0.2-0.6c-0.2-1-0.9-4.7-1.3-6.8
			c-0.5-2.4-1.4-3-1.5-3.5c-0.1-0.5,0.5-1.3,0.3-2.4c-0.2-1-1-3.6-2.7-3.9l-0.1-0.3l0.5-0.1l-0.3-1.6l-2.3,0.5l0.3,1.6l0.5-0.1
			l0.1,0.3C189.8,568,190,570.8,190.2,571.8z M191.6,577l4.3-0.9l1,4.8l-4.3,0.9L191.6,577z M190.4,569.5c0-0.2,0.1-0.3,0.1-0.5
			c0-0.2,0.1-0.3,0.1-0.5c0-0.2,0.1-0.3,0.2-0.4c0.1-0.1,0.2-0.3,0.3-0.4c0-0.1,0.1-0.1,0.1-0.1l0,0.2c0,0,0,0,0,0.1
			c-0.1,0.1-0.1,0.2-0.2,0.3c0,0.1-0.1,0.3-0.1,0.4c0,0.1-0.1,0.3-0.1,0.5c0,0.2-0.1,0.3-0.1,0.5c0,0.3-0.1,0.7-0.1,1
			c0,0.3,0,0.6,0,0.9c0,0.3,0,0.5,0,0.6c0,0.1,0,0.2,0,0.2s-0.1-0.3-0.2-0.8c0-0.1-0.1-0.3-0.1-0.4c0-0.1,0-0.3,0-0.5
			C190.4,570.2,190.4,569.8,190.4,569.5z"/>
		<g id="XMLID_666_">
			<path id="XMLID_683_" class="st46" d="M235.2,569.3c0,0,5.4-0.6,2.4,2.4c-3.6,3.5-10.1,2.9-11.5,3.4c-1.6,0.5-6.7,7.2-13.9,8.2
				c-5.5,0.8-3.4-3.4,5.7-7.8c0,0-5.7,1.5-8.5,0.6c-2-0.6-4.3-2.7-1.1-3.4C211.2,572,235.2,569.3,235.2,569.3z"/>
			<g id="XMLID_679_">
				<g>
					<path id="XMLID_60_" class="st47" d="M219.8,566.9c0.1,1-3.1,5.4-8.1,4.7c-3.9-0.6-4.5,1.7-4.4,1.9c0.2,0.2,2.2,1.7,4.5,1.8
						c2.2,0.1,6.7-0.2,9.8-5.1L219.8,566.9z"/>
				</g>
			</g>
			<g id="XMLID_677_">
				<path id="XMLID_678_" class="st48" d="M224.2,565.5c0.1,1,3.5,5.1,8.7,3.2c3.3-1.2,4.8,1,4.6,1.2c-0.1,0.2-2,1.6-4.2,2.5
					c-3.3,1.4-7.2,2.1-11.1-2.3L224.2,565.5z"/>
			</g>
			<path id="XMLID_676_" class="st46" d="M213,575.3c2.7-0.9,6.1-2.8,6.3-6.3c0-0.4,0.1-0.8,0.1-1.1c0.2-0.4,0.3-0.7,0.3-0.9
				l1.9,3.3C219,574.4,215.4,575.2,213,575.3z"/>
			<g id="XMLID_672_">
				<g>
					<path id="XMLID_98_" class="st47" d="M209.9,581.5c-0.3-0.6,0.5-3.4,2.9-4.4c2.4-1,7.3-3.6,6.9-8c-0.4-4.5,1.8-6.2,1.8-6.2
						l1.4-0.2c0.8,0.6,3.5,6.1,0.1,12.6C220.1,580.9,210.3,582.1,209.9,581.5z"/>
				</g>
			</g>
			<g id="XMLID_670_">
				<polygon id="XMLID_671_" class="st49" points="221.6,562.9 221,561.3 223,560.8 222.9,562.7 				"/>
			</g>
			<g id="XMLID_667_">
				<g id="XMLID_668_">
					<path id="XMLID_669_" class="st48" d="M222.3,562.8c2.5,10.6-6.8,16.8-12.4,18c0,0.3,0,0.5,0,0.7c0.3,0.6,10.2-0.5,13.1-6.2
						c3.4-6.4,0.7-12-0.1-12.6L222.3,562.8z"/>
				</g>
			</g>
		</g>
	</g>
	<path class="st50" d="M172.4,651.5c-13.5,2.3-26.3-6.8-28.6-20.3l-1.3-7.7c-2.3-13.5,6.8-26.3,20.3-28.6L1222.4,415
		c13.5-2.3,26.3,6.8,28.6,20.3l1.3,7.7c2.3,13.5-6.8,26.3-20.3,28.6L172.4,651.5z"/>
	<path class="st51" d="M755.4,664.1l-10.5-134.6c0-22.1-17.9-45.2-39.9-45.2l-12.6,0c-22.1,0-39.9,23.2-39.9,45.2l-10.6,134.6H755.4
		z"/>
	<path class="st50" d="M717.6,535.3c0,11.1-9,20-20,20c-11.1,0-20-9-20-20c0-11.1,9-20,20-20C708.7,515.2,717.6,524.2,717.6,535.3z"
		/>
	<path class="st52" d="M635.8,675.6c-4.3,0-7.8-3.5-7.8-7.8l0-2.5c0-4.3,3.5-7.8,7.8-7.8l125.1,0c4.3,0,7.8,3.5,7.8,7.8v2.5
		c0,4.3-3.5,7.8-7.8,7.8L635.8,675.6z"/>
	<g>
		<g>
			<path class="st53" d="M837.2,489.2c-4.8,4.7-13.3,3.6-19.2,2.4c-7.5-1.5-9.6-7.4-5.8-14.1c1.3-2.2,3.8-5.6,6.2-7.3
				c0.4-0.3,0.8-0.5,1.2-0.7c5.1-2.3,8.6,1.9,12.5,4.3c0.3,0.2,0.5,0.3,0.8,0.5c2.1,1.4,4.2,3,5.6,4.8
				C840.6,482.1,841,485.4,837.2,489.2z"/>
			<path class="st54" d="M838.5,479.2c0.2,0.6,0.2,1.2,0.1,1.9c-0.4,3.1-1.9,2.7-4.7,3.3c-5.3,1.1-11.1,4.1-15.8-0.3
				c-3.7-3.5-3-10.3,0.3-14c0.4-0.3,0.8-0.5,1.2-0.7c5.1-2.3,8.6,1.9,12.5,4.3c0.3,0.2,0.5,0.3,0.8,0.5
				C835,475.8,837.1,477.4,838.5,479.2z"/>
			<path class="st55" d="M822.5,472.6C822.4,472.6,822.4,472.6,822.5,472.6c0,0,0.1,0.1,0.2,0.1c0.1,0.3,0.1,0.3,0.1,0.2
				c0-0.1,0-0.1,0-0.2C822.6,472.7,822.6,472.6,822.5,472.6c-0.1-0.4-0.6-0.7-1-0.5c-0.8,0.3-1.1,1.2-1.3,2
				c-0.2,0.8,0.5,1.4,1.2,1.2c0.1,0,0.1,0,0,0c0.1,0,0.2,0,0.2,0c0.2,0,0.3,0,0.5,0c0.4,0,0.8,0,1.3-0.2c1-0.5,1.1-1.9,0.7-2.8
				c-0.3-0.7-1-1.1-1.8-1c-0.6,0.1-1,0.6-1.3,1.1c-0.5,0.8-0.9,1.9-0.8,2.8c0.2,1,1.4,1.3,2.1,0.8c0.7-0.4,1.2-1.2,1.4-1.9
				c0.1-0.5-0.1-1.1-0.6-1.4c-0.5-0.3-1-0.1-1.5,0.2c0.2-0.1,0.1-0.1-0.2,0.1c-0.1,0.1-0.2,0.2-0.3,0.3c-0.1,0.1-0.1,0.2-0.2,0.3
				c-0.2,0.3,0.1-0.1,0,0c0,0.1-0.1,0.1-0.1,0.2c-0.1,0.1-0.3,0.2,0.1-0.1c-0.2,0.1,0.3-0.1,0.2-0.1c0.7-0.2,1.2,0.2,1.4,0.8
				c-0.1-0.2,0,0.4,0,0.2c0-0.3-0.1,0.3,0,0c0-0.1,0.1-0.2,0.1-0.4c0-0.1,0.1-0.3,0.1-0.4c-0.2,0.4,0-0.1,0.1-0.2
				c0.1-0.1,0.1-0.2,0.2-0.3c-0.3,0.5,0.3-0.2-0.2,0.2c0.1-0.1,0.3-0.1-0.2,0.1c-0.1,0-0.3,0-0.5,0c-0.1,0-0.3-0.1-0.4-0.2
				c0.2,0.2-0.2-0.3,0,0c0,0.1,0,0.1,0-0.1c0,0.1,0.1,0.2,0.1,0.2c0,0.1,0,0.1,0,0c0,0.1,0,0.1,0,0.2c0.1-0.3,0.1-0.4,0.1-0.3
				c0-0.1,0.1-0.2,0.2-0.2c-0.1,0.1-0.1,0,0.1,0c-0.1,0-0.1,0-0.2,0.1c-0.1,0-0.4,0-0.1,0c-0.1,0-0.2,0-0.3,0
				c-0.3,0-0.6,0.1-0.9,0.1c0.4,0.4,0.8,0.8,1.2,1.2c0.1-0.3,0.1-0.7,0.2-1c0,0,0-0.1,0-0.1c0,0.1-0.1,0.1,0,0.1
				c0,0-0.3,0.3-0.1,0.2c0.1-0.1,0.2-0.1,0.3-0.2c0.1,0,0.1-0.1,0.1-0.2c0,0,0-0.1,0.1-0.1c0,0.1-0.3,0.2-0.1,0.2
				C822.9,473.2,822.9,472.6,822.5,472.6L822.5,472.6z"/>
			<path class="st55" d="M825.9,475C825.9,475,825.9,475.1,825.9,475c0,0,0-0.1,0-0.2c0,0.1,0,0.3,0.1,0.4
				C825.9,475.2,825.9,475.2,825.9,475c0,0.1,0,0.1,0,0.1C825.9,475.1,825.9,475,825.9,475C825.9,475,825.9,475.1,825.9,475
				c0,0.2,0,0.4,0,0.5c0,0.5,0.6,0.8,1,0.6c0.1-0.1,0.3-0.1,0.4-0.3c0.1-0.1,0.2-0.3,0.3-0.5c0.1-0.2,0-0.5-0.1-0.7
				c-0.1-0.2-0.2-0.4-0.4-0.5c-0.2-0.1-0.4-0.1-0.6-0.1c-0.2,0.1-0.4,0.2-0.5,0.4C825.8,474.6,825.8,474.8,825.9,475L825.9,475z"/>
		</g>
		<g>
			<g>
				<path class="st53" d="M895.3,462.6c0.1,0.8,0.2,1.5,0.3,2.2c0.3,7.1-5.1,10.4-11.7,12.1c-3.6,0.9-8.4,2.5-12,1
					c-2.2-0.9-3.5-3.9-4.1-7c-0.4-2.3-0.5-4.7-0.3-6.4c0.2-1.7,0.7-3.9,1.4-5.9c0.7-1.9,1.5-3.6,2.6-4.9c5.1-5.8,11.2-3.9,16.9,0
					c1.9,1.3,3.3,2.2,4.3,3.3C894,458.4,894.8,459.9,895.3,462.6z"/>
			</g>
			<path class="st54" d="M892.8,457.1c-0.1,3.8-2.2,8.2-5,10.7c-3.9,3.6-8.9,5.4-14.3,5.1c-2.4-0.1-4.3-0.8-5.7-2
				c-0.4-2.3-0.5-4.7-0.3-6.4c0.2-1.7,0.7-3.9,1.4-5.9c0.7-1.9,1.5-3.6,2.6-4.9c5.1-5.8,11.2-3.9,16.9,0
				C890.3,455.1,891.7,456,892.8,457.1z"/>
			<path class="st55" d="M875.4,454.8c-1-0.6-2.1,0.3-2.4,1.2c-0.3,0.8,0.2,1.9,0.9,2.2c0.9,0.5,1.9,0.3,2.6-0.3
				c0.9-0.7,1-2.1,0.9-3.1c-0.1-0.7-0.5-1.4-1.3-1.3c-1.2,0.1-2.1,0.4-2.8,1.4c-0.5,0.7-1,2.1-0.4,2.9c0.4,0.5,1.1,0.8,1.7,0.4
				c0.4-0.3,0.7-0.7,0.8-1.2c0-0.1,0.1-0.2,0.1-0.3c0-0.1,0-0.1,0.1-0.2c-0.1,0.1-0.1,0.2,0,0c0-0.1,0.2-0.3,0-0.1
				c0.1-0.1,0.1-0.1,0,0c0.1,0,0.1-0.1,0.2-0.1c0.3-0.2-0.2,0.1,0.2-0.1c0.2-0.1,0.4-0.1,0.7-0.1c-0.5-0.4-1.1-0.8-1.6-1.3
				c0.1,0.4,0.1,0.8,0,1.1c0-0.3-0.1,0.1-0.1,0.2c0.1-0.3,0,0-0.1,0.1c0.2-0.3-0.2,0.1,0.1-0.1c-0.3,0.2,0.2-0.1,0,0
				c-0.2,0.1,0.3,0,0,0c-0.1,0,0.3,0.1,0,0c0.4,0.1,0.1,0,0,0c-0.3-0.1,0.1,0.1,0,0c-0.1-0.1,0.1,0.3,0,0c0.1,0.1,0.1,0.3,0.1,0.2
				c0-0.1,0,0,0,0.1c0.1-0.3,0,0.1,0.2-0.3c0.2-0.4,0.4-0.6,0.4-1C875.6,455,875.5,454.9,875.4,454.8L875.4,454.8z"/>
			<path class="st55" d="M872,460.6C872,460.6,872,460.7,872,460.6c0,0-0.1,0.1-0.2,0.1C871.9,460.7,872,460.7,872,460.6
				c-0.2,0.1-0.5,0.2-0.7,0.5c0,0.1-0.1,0.2-0.1,0.2c0.1-0.1,0.1-0.1,0-0.1c-0.1,0.1-0.1,0.3-0.1,0.4c0,0.6,0.5,1,1.1,1.1
				c0.4,0.1,0.8-0.1,1-0.4c0.2-0.4,0.3-0.7,0.4-1.2c0-0.3-0.2-0.7-0.5-0.9c-0.5-0.3-1.1,0-1.3,0.5c-0.2,0.5,0.3,1,0.8,1.1
				c0,0,0,0,0,0c-0.1,0-0.3-0.1-0.4-0.1c0,0,0,0,0,0c-0.1-0.1-0.2-0.2-0.3-0.3c0,0,0,0,0,0c0-0.2-0.1-0.4-0.1-0.7
				C872,460.7,872,460.6,872,460.6c-0.1,0.1-0.2,0.2-0.2,0.3c0,0.1,0,0.1-0.1,0.2c0,0.1,0,0.2-0.1,0.2c0,0.1,0,0.1,0-0.1
				c0,0,0,0.1-0.1,0.1c0.3-0.1,0.7-0.3,1-0.4c-0.1,0-0.1,0-0.2,0c-0.1,0-0.2-0.1,0,0c0,0,0.1,0.1,0.1,0.1c-0.1-0.1-0.1-0.1-0.2-0.2
				c-0.2-0.1-0.3-0.1-0.4-0.1c0.1,0,0.3,0.1,0.4,0.1c0,0,0,0,0,0c0.1,0.2,0.2,0.3,0.4,0.5c-0.1-0.2,0,0.2,0,0c0-0.2-0.1-0.5-0.4-0.6
				c0,0,0,0,0,0c0.1,0.2,0.2,0.3,0.3,0.5c0-0.1,0-0.2,0-0.2c0,0.1,0,0,0,0C872.6,460.7,872.2,460.5,872,460.6L872,460.6z"/>
		</g>
		<g>
			<path class="st53" d="M836.7,497.6c-3.3-1.2-3.3-3.2-2-4.7c1.8-2,6-3.3,7.9-1.2c0.3,0.3,0.5,0.6,0.7,0.9
				C845.1,496,839.8,498.7,836.7,497.6z"/>
			<path class="st54" d="M843.3,492.6c0.2,2.3-3.7,2.8-5.5,2.6c-1.4-0.2-3-0.2-3.1-1.9c0-0.1,0-0.3,0-0.4c1.8-2,6-3.3,7.9-1.2
				C842.9,492,843.1,492.3,843.3,492.6z"/>
			<path class="st55" d="M839.1,492.3c0.1,0.2,0.3,0.4,0.6,0.5c0.1,0,0.2,0,0.4,0c0.1,0,0.4,0,0.5-0.1c0.1-0.1,0.2-0.1,0.2-0.2
				c0.2-0.2,0.3-0.5,0.2-0.8c-0.1-0.3-0.3-0.5-0.6-0.6c-0.2-0.1-0.4,0-0.6,0c0,0-0.1,0-0.1,0c-0.2,0-0.3,0.1-0.4,0.2
				c0.1,0,0.1-0.1,0.2-0.1c0,0,0,0-0.1,0C839,491.5,838.9,492,839.1,492.3L839.1,492.3z"/>
		</g>
		<path class="st56" d="M869.5,478.7c-6.9,2.4-13.6,4.8-21.1,3.8c-3.3-0.5-6.8,0.2-10.1-0.4c-4.5-0.9-9.2-2.2-10.6-7.1
			c-1.1-3.9-0.8-7.7-2.5-11.5c-0.7-1.7-1.6-3.3-2.7-4.7c-0.6-0.8-1.7-1.6-1.9-2.6c1.9,0.8,3.9,1.9,5.9,2.7c1.9,0.8,4.2,4.5,6.3,4.3
			c-2.2-2.1-3.3-6.5-3.8-9.4c-0.8-4.3,0.9-7.2,3.5-10.5c2.5-3.2,4.4-6.2,4.4-10.3c0-2.1-1.8-7.4,0.4-8.8c1.9,2.7,1.4,9.2,4.6,10.7
			c-1.7-5.5,2.5-12.2,4.7-17c1.5-3.4,0.2-5.9,0.5-9.3c1.4,0.7,2.4,3.4,3.9,4.6c2.7,2.1,5.7,4.1,8,6.6c2.8,3.1,5,7,5.7,11.1
			c0.3,1.6-0.1,6.7,1.4,7.6c0.8-1.2-0.1-4.8-0.1-6.3c0.1-1.9,1.2-5.4,0.1-7c1.1,1.2,1.3,3.3,1.9,4.8c0.6,1.8,1.6,3.6,2.5,5.3
			c1.2,2.4,1.1,4.9,0.5,7.5c-0.3,1.6-1.8,4.1-1.4,5.7c2.4-0.3,4.4-3,5.5-4.9c1.3-2.3,0.8-5.6,2.2-7.6c1.8,2.4,2.4,6.3,3.2,9.2
			c1.7,6.1,7.4,9.7,6.1,16.5C884.9,469.4,876.7,476.2,869.5,478.7z"/>
		<path class="st57" d="M847.3,478.9c-4.5,1.8-11.5-1.8-14.3-4.9c-1.6-1.8-2.8-3.2-3.5-5.5c-0.5-1.6-0.1-3.1-1.5-4.1
			c2.6,2.8,8.1,5.1,11.8,5.9c0.1,0.1,0.1,0.1,0,0c-2.8-4.5-8-10.6-7-16.4c1.1-6.3,7.3-9.8,9.3-15.5c2.3,0.7,2.6,3.4,4,5.1
			c-0.3-8.6,2.4-16.8,5.2-24.8c2.4,3.6,4.7,7.8,6.9,11.7c1.5,2.7,3.3,6.2,3.9,9.3c0.4,2-0.5,3.9,0.3,5.8c2.6-0.4,4-4.5,5.2-6.6
			c0.3,2.4-1.1,5-1.2,7.5c-0.1,2.3,1,4.8-0.1,7c4-0.8,6.3-2.6,8.6-5.9c0.4,3,3.7,5.6,4.5,9c1.3,5.5,2.1,8-2.5,12.1
			c-4.2,3.7-9.5,5.7-14.8,7.4c-3.5,1.1-11.6,4.4-15.2,3.1L847.3,478.9z"/>
		<path class="st58" d="M869.4,459.3c-1,1.6-0.3,5.3-1.2,7.3c-1,2.3-2.9,4.5-4.7,6.4c-3,3.1-8.4,4.9-12.5,2.5
			c-2.8-1.6-3.8-5.8-5.2-8.5c-2.1-4.4-1.9-9.5,0.9-13.8c-0.1,3.2,1.6,4.8,3.8,7c-1.9-2.4,0.9-7.3,1.6-10c0.4-1.7,1.2-3.6,1.4-5.4
			c0.1-1.6-0.7-3.3,0.3-4.6c0.5,7.9,11,13.1,8.1,21.2c0.8-3.5,1.4-7,1.4-10.5c2.4,2.3,4.9,8.4,3,11.7
			C867.4,461.8,868.3,460.4,869.4,459.3C869.5,459.1,869.4,459.1,869.4,459.3z"/>
		<g>
			<path class="st53" d="M878.9,488.3c2,7-11.5,11.1-16,12.3c-3.6,0.9-8.4,2.5-12,1c-3.9-1.6-4.8-9.6-4.3-13.4
				c0.2-1.7,0.7-3.9,1.4-5.9c0.7-1.9,1.5-3.6,2.6-4.9c5.1-5.8,11.2-3.9,16.9,0c1.9,1.3,4.9,3.2,7.3,5.3
				C876.7,484.4,878.3,486.3,878.9,488.3z"/>
			<path class="st54" d="M874.8,482.7c0.5,5-2,7.6-7.4,9.7c-4,1.5-9.1,3.7-13.3,1.7c-4.2-2-6.3-7.1-6.1-11.9
				c0.7-1.9,1.5-3.6,2.6-4.9c5.1-5.8,11.2-3.9,16.9,0C869.4,478.7,872.3,480.6,874.8,482.7z"/>
			<path class="st55" d="M855.6,477.7c-0.5-0.3-1.3,0.1-1.7,0.5c-0.7,0.6-0.8,1.4-0.9,2.2c0,0.4,0.3,0.9,0.8,1
				c1.1,0.3,2.2,0.3,3.1-0.5c0.9-0.7,0.9-2.2,1-3.2c0-0.6-0.6-1.3-1.2-1.2c-1.1,0.1-2.2,0.4-2.9,1.3c-0.6,0.8-1.2,2.3-0.6,3.2
				c0.4,0.5,1.3,0.8,1.8,0.2c0.3-0.4,0.4-0.7,0.5-1.2c0-0.2,0.1-0.4,0.2-0.5c-0.1,0.2,0.1-0.1,0.2-0.1c-0.1,0.1,0.2-0.1,0.2-0.1
				c0.2-0.1,0.6-0.2,1-0.3c-0.5-0.4-1-0.8-1.5-1.2c0,0.4,0,0.8,0,1.2c0-0.1-0.1,0.3-0.1,0.2c0,0.1,0,0.2-0.1,0.2c0-0.1,0-0.1,0,0
				c0.1-0.2-0.1,0.1,0.1-0.1c-0.1,0.1-0.1,0.1,0,0c-0.1,0-0.1,0-0.2,0.1c0.2,0-0.2,0-0.2,0c-0.2,0-0.4,0-0.5,0
				c0.3,0.3,0.5,0.7,0.8,1c0-0.6,0.1-0.9,0.3-1.4C855.6,478.6,856.1,478,855.6,477.7L855.6,477.7z"/>
			<path class="st55" d="M859.9,480.4c-0.1,0.2-0.2,0.3-0.3,0.5c-0.1,0.2,0,0.5,0.1,0.7c0.1,0.2,0.4,0.3,0.7,0.3
				c0.3-0.1,0.4-0.3,0.4-0.6c0,0,0,0,0-0.1c0,0,0,0,0,0c0,0.2,0,0.2,0,0c0-0.1,0-0.1,0-0.2c0-0.1,0,0,0,0.1c0,0,0,0,0-0.1
				c0,0.2,0,0.1,0,0.1c0,0,0.1-0.1,0,0c0-0.1,0.1-0.1,0.1-0.2c0.1-0.3,0.1-0.6-0.2-0.8C860.5,480,860.1,480.1,859.9,480.4
				L859.9,480.4z"/>
		</g>
	</g>
	<path class="st0" d="M311.3,226.6c-2,2.4-1.4,2.1-6.9,1.2c-4.9-0.8-2.7-1.6-6.6,1.4c-3.5,2.6-9.3,5.8-12,7.9
		c1.4,2.2,11.6,8.8,14.3,11.7c-0.8,0.5-1.4,0.9-2.2,1.4c-1.3,0.9-1,0.9-2.7,0.1c-3.9-1.6-16.3-6.7-18.7-7.2
		c-2.9,1.7-10.3,6.9-13.1,7.1c-1.3,0.1-3.5,0-3.3-1.7c0.5-4.2,7.4-7.3,11.8-10c1.8-1.1,1.3-0.8,1.4-2.9c0.2-2.4,1.2-18.8,1.8-19.7
		c0.2-0.3,2.7-1.8,3.2-2c0.4,1.4,0.8,3,1.1,4.5l2.1,9.1c0.2,1.4,0.7,3.2,1.1,4.4c2-1.3,4-2.5,6.1-3.8c10.3-6.7,8.7-2.9,10.5-9.2
		c1-3.5,0.7-5.4,4-5.4C303.3,220,305.7,223.8,311.3,226.6L311.3,226.6z"/>
	<linearGradient id="XMLID_15_" gradientUnits="userSpaceOnUse" x1="827.3535" y1="351.3901" x2="639.8309" y2="365.9063">
		<stop  offset="0" style="stop-color:#474747"/>
		<stop  offset="6.356931e-02" style="stop-color:#4B4B4B"/>
		<stop  offset="0.1287" style="stop-color:#575757"/>
		<stop  offset="0.1946" style="stop-color:#6C6C6C"/>
		<stop  offset="0.2606" style="stop-color:#888888"/>
		<stop  offset="0.31" style="stop-color:#A3A3A3"/>
		<stop  offset="0.3969" style="stop-color:#AFAFAF"/>
		<stop  offset="0.5536" style="stop-color:#CFCFCF"/>
		<stop  offset="0.6594" style="stop-color:#E8E8E8"/>
	</linearGradient>
	<path id="XMLID_137_" class="st59" d="M828,362.7c-5.7,1.6-11.7-1.6-13.6-7.2c-1.6,1.6-3.7,2.8-6,3.5c-3.8,1.1-7.7,0.5-10.9-1.3
		c-1.7,3.7-4.8,6.6-9,7.8c-7.5,2.1-15.3-2.2-17.4-9.7c-0.2-0.6-0.3-1.3-0.4-1.9c-5.6,3.7-13,2.8-17.7-1.8c-5.9,3.5-13.5,2-17.6-3.6
		c-1.1-1.5-1.8-3.1-2.2-4.7c-0.4,0.1-0.8,0.1-1.2,0.2c0.7,3.9-0.2,8.2-3,11.5c-5,6-13.9,6.9-19.9,1.9c-0.5-0.4-1-0.9-1.4-1.3
		c-2.5,6.2-9.1,9.8-15.6,8.6c-2.8,6.2-10,9.3-16.5,7c-7-2.4-10.7-10.1-8.2-17c2.1-6,8-9.6,14.1-8.9c0.4-1,0.9-2,1.5-2.9
		c-0.5-2.3-0.5-4.7,0.4-7c2-5.8,7.9-9.3,13.8-8.3c-0.4-3.7,0.6-7.5,3.1-10.6c5-6,13.9-6.9,19.9-1.9c1,0.8,1.9,1.8,2.6,2.8
		c0.4-2,1.3-4,2.7-5.7c4.4-5.4,12.4-6.2,17.8-1.7c1.2,1,2.2,2.3,3,3.6c3.9-2,8.7-1.7,12.3,1.3c2.5,2.1,3.9,5.1,4,8.1
		c5-3.4,11.6-2.8,15.8,1.2c1.7-3.3,4.8-5.9,8.6-7c7.5-2.1,15.3,2.2,17.4,9.7c0.4,1.2,0.5,2.5,0.5,3.7c1.5-1.5,3.3-2.6,5.4-3.2
		c6.7-1.9,13.7,2,15.6,8.7c0.4,1.6,0.6,3.1,0.4,4.7c4.3,0.5,8.1,3.6,9.4,8c0,0,13.3-5.6,16,23.1c0,0,9.8,25.1-6.4,22.5
		c0,0-17.7,19.1-18.2-2.3c0,0-0.8-13.6,9.5-13.5C836.5,378.7,822.9,381,828,362.7z"/>
	<linearGradient id="XMLID_16_" gradientUnits="userSpaceOnUse" x1="1042.5554" y1="140.0468" x2="1206.6796" y2="140.0468">
		<stop  offset="0" style="stop-color:#474747"/>
		<stop  offset="6.356931e-02" style="stop-color:#4B4B4B"/>
		<stop  offset="0.1287" style="stop-color:#575757"/>
		<stop  offset="0.1946" style="stop-color:#6C6C6C"/>
		<stop  offset="0.2606" style="stop-color:#888888"/>
		<stop  offset="0.31" style="stop-color:#A3A3A3"/>
		<stop  offset="0.3969" style="stop-color:#AFAFAF"/>
		<stop  offset="0.5536" style="stop-color:#CFCFCF"/>
		<stop  offset="0.6594" style="stop-color:#E8E8E8"/>
	</linearGradient>
	<path id="XMLID_3_" class="st60" d="M1063.3,175c5.9-1.2,9.7-6.7,8.8-12.6c2.2,0.7,4.5,0.8,6.9,0.3c3.9-0.8,7.1-3.1,9.1-6.2
		c3.1,2.5,7.3,3.6,11.6,2.8c7.6-1.5,12.6-9,11.1-16.6c-0.1-0.6-0.3-1.3-0.5-1.9c6.7,0.7,12.9-3.4,14.9-9.7c6.8,0.4,12.9-4.4,14-11.3
		c0.3-1.8,0.2-3.6-0.2-5.2c0.4-0.1,0.8-0.3,1.2-0.4c1.2,3.8,4,7.1,7.9,8.9c7.2,3.1,15.5-0.2,18.6-7.4c0.3-0.6,0.5-1.2,0.6-1.8
		c5.1,4.4,12.6,4.5,17.8,0.5c5.4,4.2,13.1,3.7,17.9-1.3c5.1-5.3,4.9-13.8-0.4-18.9c-4.6-4.4-11.5-4.9-16.6-1.5
		c-0.8-0.7-1.7-1.4-2.7-1.9c-0.6-2.2-1.7-4.4-3.5-6.1c-4.5-4.3-11.3-4.6-16.1-1.1c-1.3-3.5-4-6.4-7.6-8c-7.2-3.1-15.5,0.2-18.6,7.4
		c-0.5,1.2-0.8,2.4-1,3.6c-1.3-1.6-2.9-3-5-3.8c-6.4-2.8-13.8,0.2-16.6,6.6c-0.6,1.5-1,3-1,4.6c-4.3,0-8.5,2.5-10.3,6.7
		c-1.3,3-1.2,6.3,0.1,9.1c-6-0.8-11.6,2.8-13.5,8.3c-3-2.1-6.9-3-10.8-2.3c-7.6,1.5-12.6,9-11.1,16.6c0.3,1.3,0.7,2.5,1.2,3.6
		c-2-0.6-4.1-0.8-6.3-0.3c-6.8,1.4-11.3,8-9.9,14.9c0.3,1.6,0.9,3,1.7,4.3c-3.6,2.4-5.6,6.9-4.7,11.4c0,0-14.4,1.1-3.7,27.8
		c0,0-2.3,15.7,16.5,10.5l14.6-3.7c0,0-5.5-12.5-14.6-7.7C1063,193.1,1076.3,188.9,1063.3,175z"/>
</g>
<g id="Laag_6">
</g>
<g id="Laag_5">
</g>
<g id="Laag_3">
</g>
<g id="Laag_7">
</g>
<g id="Laag_8">
</g>
</svg>
