<svg xmlns="http://www.w3.org/2000/svg" viewBox="0 0 296.54 293.62"><defs><style>.cls-1{isolation:isolate;}.cls-2{fill:#a0a0a0;}.cls-3{fill:#666;}.cls-4{fill:#b4b1b1;}.cls-5{fill:#e1e0e0;}.cls-6{fill:#747474;}.cls-7{fill:#fff;}.cls-8{fill:#5a5959;}.cls-9{fill:#f0efef;}.cls-10{fill:#d2d0d0;}.cls-11{fill:#878585;}.cls-12{fill:#444343;}.cls-13{fill:#7b7a7a;}.cls-14,.cls-53{fill:#b43c3c;}.cls-15{fill:#872d2d;}.cls-16{fill:#e2e2e2;}.cls-17{fill:#d0d2d3;}.cls-18{fill:#9d0b0f;}.cls-19{fill:#ec1c24;}.cls-20{fill:#c5161d;}.cls-21{fill:#f1f1f2;}.cls-22{fill:#bbbdbf;}.cls-23{fill:#404041;}.cls-24{fill:#e6e7e8;}.cls-25{fill:#d4d6d7;}.cls-26{fill:#d7d8da;}.cls-27{fill:#8bc53f;}.cls-28{fill:#f27782;}.cls-29{fill:#f48f98;}.cls-30{fill:#fff100;}.cls-31{fill:#ba8d45;}.cls-32{fill:#dc9930;}.cls-33{fill:#fab26b;}.cls-34{fill:#ffdc97;}.cls-35{fill:#5a4a42;}.cls-36{fill:#52bd89;}.cls-37{fill:#716558;}.cls-38{fill:#ef5886;}.cls-39{fill:#98b2c8;}.cls-40{fill:#d9f1fd;}.cls-41{fill:#ffe2a3;}.cls-42{fill:#58595b;}.cls-43{fill:#f6921e;}.cls-44{fill:#80c57d;}.cls-45{fill:#bcbcbc;}.cls-46,.cls-47{fill:#017864;}.cls-47,.cls-48,.cls-49,.cls-50,.cls-51,.cls-52,.cls-53,.cls-54,.cls-55,.cls-56,.cls-57{fill-rule:evenodd;}.cls-48,.cls-60{fill:#026551;}.cls-49,.cls-61{fill:#db5500;}.cls-50{fill:#c94d00;}.cls-51{fill:#944c00;}.cls-52{fill:#834400;}.cls-55,.cls-71{fill:#98dcff;}.cls-56,.cls-58{fill:#454c54;}.cls-57{fill:#f0c07d;}.cls-59{fill:#bee9ff;}.cls-62{fill:#0083ca;}.cls-63{fill:#a1cd3c;}.cls-64{fill:#e6e6e6;opacity:0;mix-blend-mode:multiply;}.cls-65{opacity:0.49;}.cls-66{opacity:0.67;}.cls-67{fill:#563017;}.cls-68{fill:#865833;}.cls-69{fill:#9b6e4a;}.cls-70{fill:#773d20;}.cls-72{fill:#343482;}.cls-73{fill:#393939;}</style></defs><title>Asset 3</title><g class="cls-1"><g id="Layer_2" data-name="Layer 2"><g id="Aarde"><g id="Aarde_1" data-name="Aarde 1"><path class="cls-2" d="M13.83,48.74c-2.91-.46-5-3.34-5.42-6.26s.3-5.87,1.06-8.72c.59-2.21,1.68-4.07.15-6-1-1.29-7.34-6.13,1.52-9,4.44-1.42,6.22.51,6.34,2.08.09,1.22-.77,2.39-.52,3.59.43,2,3.33,2.18,4.53,3.82,3.16,4.33-6.63,8.27-4.11,12.75,1.07,1.9,3.78,1.91,5.95,1.58s4.77-.59,6.15,1.12c1.75,2.16.29,5.51.55,8A6.7,6.7,0,0,0,32,55.09c.67.8,2.32,3.14,3.37,3.34a14.09,14.09,0,0,1-8.49-5.34c-.92-1.23-1.43-2.6-2.69-3.55s-2.74-.85-4.33-.88C17.88,48.62,15.76,49.05,13.83,48.74Z"/><path class="cls-3" d="M16.23,46.41c-2.82-.85-4.46-4-4.53-6.93s1.1-5.78,2.24-8.5c.88-2.11,2.21-3.81,1-5.92-.84-1.42-6.44-7.07,2.72-8.69,4.59-.81,6.1,1.34,6,2.92-.08,1.22-1.1,2.26-1,3.48.16,2,3,2.62,4,4.4,2.54,4.72-7.7,7.3-5.8,12.07.81,2,3.49,2.41,5.68,2.38s4.81.06,6,1.93c1.43,2.39-.47,5.51-.54,8a6.63,6.63,0,0,0,1.47,3.57c.55.88,1.87,3.42,2.88,3.76a14,14,0,0,1-7.68-6.43c-.76-1.34-1.08-2.77-2.2-3.88s-2.59-1.22-4.16-1.46C20.26,46.84,18.1,47,16.23,46.41Z"/><path class="cls-3" d="M39.72,50l.13.12.06.07.15.15c.4.39.79.81,1.06,1.08a3.05,3.05,0,0,0,.28.27s.14,0,.27-.09a14,14,0,0,0,1.86-1.68c.08-.08-.09-.31-.28-.54a2.32,2.32,0,0,1-.46-.66c1.31.2,2.23-.28,2.94-1.82,5,2,9.44-3.72,9-6.36.37,1.31,5,3.66,7.92-.82a1.65,1.65,0,0,0,1.64-2.29c2.06-.05,4.25-2.74,3.93-5,2.51-4.65-.38-7.36-3.73-6.54-1.35-1,.92-2.25-3.46-4.74-1.88-1.07-4.06-.51-5.58,2.43l-.47.27a21.37,21.37,0,0,0-7.54,7.37h0a3.24,3.24,0,0,0,0,1,.75.75,0,0,0,.28.55l0,.06a.1.1,0,0,0-.05,0,3.17,3.17,0,0,0-.85,3,3.79,3.79,0,0,0-3.94,2.57c-4,1-4.21,3.82-3.58,5.66C37.14,46.28,38.83,49.15,39.72,50Z"/><path class="cls-2" d="M38.91,49.46l.13.12.06.07,1.5,1.56c.25.18.81-.75.58-1-.83-.86-4.25-5.64,2.53-8.17a1.06,1.06,0,0,0,.7-.94,3.9,3.9,0,0,1,2.32-3.37,1.06,1.06,0,0,0,.54-1.2C47,35.39,47,33.3,49.94,31.47a.87.87,0,0,0,.21-.17c.29-.3,4-6.49,5.06-7.7.87-1-1.24-1.88-4.81,2.46L47,30.46a1,1,0,0,0-.35,1.18h0a2.13,2.13,0,0,0,.29.56l-.06,0,0,0a3.07,3.07,0,0,0-1.05,1.94,1.08,1.08,0,0,1-.93,1,3.28,3.28,0,0,0-2.65,2.15,1.05,1.05,0,0,1-.74.65c-2.91.72-3.85,3.06-3.21,5a1.09,1.09,0,0,1-.15,1C36.55,46.08,38.08,48.65,38.91,49.46Z"/><rect class="cls-4" x="39.69" y="56.73" width="32.51" height="16.4" transform="translate(-29.52 58.54) rotate(-44.97)"/><rect class="cls-5" x="33.28" y="57.65" width="32.51" height="1.73" transform="translate(-26.86 52.13) rotate(-44.97)"/><rect class="cls-6" x="62.25" y="54.19" width="1.18" height="1.72" transform="translate(-20.52 60.52) rotate(-44.97)"/><rect class="cls-6" x="63.43" y="53" width="1.18" height="1.72" transform="translate(-19.34 61.01) rotate(-44.97)"/><rect class="cls-6" x="60.69" y="52.62" width="1.18" height="1.72" transform="translate(-19.87 58.96) rotate(-44.97)"/><rect class="cls-6" x="61.87" y="51.44" width="1.18" height="1.72" transform="translate(-18.69 59.45) rotate(-44.97)"/><path class="cls-7" d="M59.56,53.29,63,56.77l1.18-1.18.35-.35,1.19-1.18-3.48-3.48Zm1.88-1.18.83-.84,1.22,1.22-.84.84Zm-1.19,1.18.84-.83,1.21,1.21-.83.84Zm3.62,2-.84.83-1.21-1.21.83-.84Zm1.18-1.18-.84.83L63,53.67l.83-.83Z"/><rect class="cls-6" x="58.34" y="58.1" width="1.18" height="1.72" transform="translate(-24.43 58.9) rotate(-44.97)"/><rect class="cls-6" x="59.52" y="56.91" width="1.18" height="1.72" transform="translate(-23.25 59.39) rotate(-44.97)"/><rect class="cls-6" x="56.78" y="56.53" width="1.18" height="1.72" transform="translate(-23.78 57.34) rotate(-44.97)"/><rect class="cls-6" x="57.96" y="55.35" width="1.18" height="1.72" transform="translate(-22.6 57.83) rotate(-44.97)"/><path class="cls-7" d="M55.65,57.2l3.47,3.48,1.18-1.19.35-.34L61.83,58l-3.47-3.47ZM57.52,56l.84-.84,1.22,1.22-.84.84ZM56.34,57.2l.84-.83,1.21,1.21-.83.84ZM60,59.15l-.83.83L57.9,58.76l.84-.83ZM61.14,58l-.84.84-1.21-1.22.83-.83Z"/><rect class="cls-6" x="67.52" y="59.46" width="1.18" height="1.72" transform="translate(-22.71 65.79) rotate(-44.97)"/><rect class="cls-6" x="68.7" y="58.28" width="1.18" height="1.72" transform="translate(-21.53 66.28) rotate(-44.97)"/><rect class="cls-6" x="65.96" y="57.9" width="1.18" height="1.72" transform="translate(-22.06 64.23) rotate(-44.97)"/><rect class="cls-6" x="67.14" y="56.72" width="1.18" height="1.72" transform="translate(-20.88 64.72) rotate(-44.97)"/><path class="cls-7" d="M64.83,58.57,68.3,62l1.19-1.18.34-.35L71,59.33l-3.48-3.47Zm1.88-1.18.83-.84,1.22,1.22-.84.83Zm-1.19,1.18.84-.84L67.57,59l-.83.83Zm3.62,1.94-.84.84-1.21-1.22.83-.83Zm1.18-1.18-.84.84L68.27,59l.84-.84Z"/><path class="cls-8" d="M45.29,67.22a1.26,1.26,0,0,1,0,1.79,1.26,1.26,0,1,1-1.78-1.79A1.24,1.24,0,0,1,45.29,67.22Z"/><path class="cls-8" d="M42.91,69.6a1.26,1.26,0,1,1-1.78,0A1.24,1.24,0,0,1,42.91,69.6Z"/><path class="cls-9" d="M42.66,69.85a.91.91,0,0,1-1.28,1.28.89.89,0,0,1,0-1.28A.91.91,0,0,1,42.66,69.85Z"/><rect class="cls-9" x="46.23" y="68.75" width="0.91" height="14.12" transform="translate(-39.92 55.17) rotate(-44.97)"/><rect class="cls-10" x="46.87" y="68.1" width="0.91" height="14.12" transform="translate(-39.28 55.44) rotate(-44.97)"/><rect class="cls-8" x="44.46" y="72.1" width="1.19" height="1.16" transform="translate(-38.19 53.11) rotate(-44.97)"/><rect class="cls-11" x="43.61" y="72.95" width="1.2" height="1.16" transform="translate(-39.03 52.76) rotate(-44.97)"/><rect class="cls-8" x="46.56" y="74.2" width="1.19" height="1.16" transform="translate(-39.06 55.21) rotate(-44.97)"/><rect class="cls-11" x="45.71" y="75.05" width="1.2" height="1.16" transform="translate(-39.9 54.86) rotate(-44.97)"/><rect class="cls-8" x="48.64" y="76.29" width="1.19" height="1.16" transform="translate(-39.93 57.29) rotate(-44.97)"/><rect class="cls-11" x="47.8" y="77.13" width="1.2" height="1.16" transform="translate(-40.77 56.94) rotate(-44.97)"/><polygon class="cls-8" points="45.56 57.46 44.58 58.44 46.48 60.34 49.2 57.63 47.29 55.73 45.56 57.46"/><polygon class="cls-12" points="50.01 53.01 49.03 53.99 47.29 55.73 49.2 57.63 51.91 54.92 50.01 53.01"/><rect class="cls-8" x="45.3" y="50.92" width="2.45" height="4.61" transform="translate(-24.01 48.46) rotate(-44.97)"/><rect class="cls-13" x="43.57" y="52.66" width="2.45" height="4.61" transform="translate(-25.74 47.74) rotate(-44.97)"/><rect class="cls-12" x="41.96" y="49.41" width="1.55" height="1.32" transform="translate(-22.89 44.86) rotate(-44.97)"/><rect class="cls-8" x="40.87" y="50.51" width="1.55" height="1.32" transform="translate(-23.98 44.4) rotate(-44.97)"/><polygon class="cls-14" points="42.66 51.09 41.56 52.18 40.92 52.82 42.3 54.2 44.03 52.46 42.66 51.09"/><polygon class="cls-15" points="44.03 52.46 45.77 50.73 44.39 49.35 43.75 49.99 42.66 51.09 44.03 52.46"/><polygon class="cls-8" points="38.24 64.77 37.26 65.75 39.16 67.66 41.88 64.94 39.97 63.04 38.24 64.77"/><polygon class="cls-12" points="42.69 60.33 41.71 61.31 39.97 63.04 41.88 64.94 44.59 62.23 42.69 60.33"/><rect class="cls-8" x="37.98" y="58.24" width="2.45" height="4.61" transform="translate(-31.32 45.43) rotate(-44.97)"/><rect class="cls-13" x="36.25" y="59.97" width="2.45" height="4.61" transform="translate(-33.05 44.71) rotate(-44.97)"/><rect class="cls-12" x="34.64" y="56.73" width="1.55" height="1.32" transform="translate(-30.2 41.82) rotate(-44.97)"/><rect class="cls-8" x="33.55" y="57.82" width="1.55" height="1.32" transform="translate(-31.29 41.37) rotate(-44.97)"/><polygon class="cls-14" points="35.34 58.4 34.24 59.5 33.6 60.13 34.98 61.51 36.71 59.78 35.34 58.4"/><polygon class="cls-15" points="36.71 59.78 38.45 58.04 37.07 56.67 36.43 57.3 35.34 58.4 36.71 59.78"/><rect class="cls-9" x="40.02" y="63.93" width="1.44" height="1.78" transform="translate(-33.9 47.76) rotate(-44.97)"/><rect class="cls-9" x="42.06" y="61.88" width="1.44" height="1.78" transform="translate(-31.85 48.6) rotate(-44.97)"/><rect class="cls-9" x="47.34" y="56.61" width="1.44" height="1.78" transform="translate(-26.59 50.79) rotate(-44.97)"/><rect class="cls-9" x="49.39" y="54.57" width="1.44" height="1.78" transform="translate(-24.54 51.64) rotate(-44.97)"/><path class="cls-14" d="M51.34,67.23a2.5,2.5,0,1,1-3.53,0A2.49,2.49,0,0,1,51.34,67.23Z"/><rect class="cls-14" x="50.92" y="68.44" width="2.5" height="9.82" transform="translate(-36.58 58.33) rotate(-44.97)"/><rect class="cls-15" x="52.68" y="66.67" width="2.5" height="9.82" transform="translate(-34.82 59.06) rotate(-44.97)"/><polygon class="cls-8" points="63.61 59.78 60.92 62.48 65.45 67.02 68.17 64.31 65.55 61.68 63.61 59.78"/><path class="cls-14" d="M56.17,62.4a2.5,2.5,0,1,1-3.53,0A2.49,2.49,0,0,1,56.17,62.4Z"/><rect class="cls-14" x="55.75" y="63.61" width="2.5" height="9.82" transform="translate(-31.75 60.33) rotate(-44.97)"/><rect class="cls-15" x="57.52" y="61.84" width="2.5" height="9.82" transform="translate(-29.99 61.06) rotate(-44.97)"/><path class="cls-9" d="M45,67.47a.91.91,0,0,1,0,1.28.91.91,0,0,1-1.28-1.28A.91.91,0,0,1,45,67.47Z"/><rect class="cls-9" x="48.61" y="66.37" width="0.91" height="14.12" transform="translate(-37.54 56.16) rotate(-44.97)"/><rect class="cls-10" x="49.25" y="65.73" width="0.91" height="14.12" transform="translate(-36.9 56.43) rotate(-44.97)"/><rect class="cls-8" x="46.84" y="69.73" width="1.19" height="1.16" transform="translate(-35.81 54.1) rotate(-44.97)"/><rect class="cls-11" x="45.99" y="70.57" width="1.19" height="1.16" transform="translate(-36.66 53.75) rotate(-44.97)"/><rect class="cls-8" x="48.94" y="71.83" width="1.19" height="1.16" transform="translate(-36.69 56.19) rotate(-44.97)"/><rect class="cls-11" x="48.09" y="72.67" width="1.19" height="1.16" transform="translate(-37.53 55.84) rotate(-44.97)"/><rect class="cls-8" x="51.02" y="73.91" width="1.19" height="1.16" transform="translate(-37.55 58.28) rotate(-44.97)"/><rect class="cls-11" x="50.18" y="74.76" width="1.19" height="1.16" transform="translate(-38.39 57.93) rotate(-44.97)"/><polygon class="cls-16" points="68.66 61.68 67.94 61.68 68.3 62.04 68.66 61.68"/><polygon class="cls-17" points="225 236.42 228.45 239.92 224.87 243.43 218.26 236.71 225 236.42"/><polygon class="cls-18" points="231.56 216.92 212.64 235.54 231.74 236.03 231.56 216.92"/><polygon class="cls-19" points="233.45 237.77 233.07 215.44 231.56 216.92 231.74 236.03 233.45 237.77"/><polygon class="cls-20" points="233.45 237.77 211.12 237.03 212.64 235.54 231.74 236.03 233.45 237.77"/><polygon class="cls-21" points="231.74 236.03 231.58 219.38 220.33 207.95 212.09 216.06 203.84 224.17 215.1 235.6 231.74 236.03"/><polygon class="cls-19" points="210.71 217.41 220.54 227.4 216.1 231.76 206.28 221.77 206.82 221.24 216.03 230.6 219.33 227.35 210.12 217.99 210.71 217.41"/><rect class="cls-22" x="210.76" y="217.73" width="4.63" height="13.13" transform="translate(-96.12 213.85) rotate(-44.53)"/><rect class="cls-19" x="220.37" y="217.03" width="6.22" height="6.22" transform="translate(537.18 220.31) rotate(135.46)"/><rect class="cls-23" x="221.03" y="217.68" width="4.91" height="4.91" transform="translate(537.18 220.31) rotate(135.46)"/><rect class="cls-19" x="220.61" y="219.81" width="5.74" height="0.66" transform="translate(537.18 220.31) rotate(135.46)"/><rect class="cls-19" x="220.61" y="219.81" width="5.74" height="0.66" transform="translate(223.31 533.83) rotate(-134.54)"/><path class="cls-22" d="M224.08,242.38l3.15-3.11a1,1,0,0,1,1.42,0h0a1,1,0,0,1,0,1.42l-3.16,3.1a1,1,0,0,1-1.42,0h0A1,1,0,0,1,224.08,242.38Z"/><path class="cls-24" d="M253.85,73.2s17.75-2.08,17.87-.43L253.91,74Z"/><path class="cls-25" d="M254,74.86s17.87-.45,17.75-2.09L253.91,74Z"/><path class="cls-24" d="M254,74.9s-7.51,16.21-9,15.45l8.24-15.84Z"/><path class="cls-25" d="M252.5,74.13s-9,15.46-7.5,16.22l8.24-15.84Z"/><path class="cls-24" d="M253.37,74.66s-14-11.08-12.94-12.33L253.91,74Z"/><path class="cls-25" d="M254.46,73.4s-13-12.32-14-11.07L253.91,74Z"/><path class="cls-24" d="M226.94,87.69s24.2-13.41,25.38-13.9a3.42,3.42,0,0,1,1.9-.31l-26.17,16Z"/><path class="cls-26" d="M229.15,91.3s23-15.44,23.92-16.26a3.42,3.42,0,0,0,1.15-1.56l-26.17,16Z"/><path class="cls-26" d="M254.46,75.27A1.65,1.65,0,1,1,255,73,1.65,1.65,0,0,1,254.46,75.27Z"/><path class="cls-7" d="M254,74.59a.85.85,0,1,1-.88-1.45.85.85,0,0,1,.88,1.45Z"/><path class="cls-27" d="M232.57,99h0a.08.08,0,0,1,0-.11l9.21-4.34a.08.08,0,0,1,.11,0h0a.08.08,0,0,1,0,.11L232.68,99A.08.08,0,0,1,232.57,99Z"/><path class="cls-28" d="M241.77,94.6s2-.7,2-.08S241.77,94.6,241.77,94.6Z"/><path class="cls-28" d="M241.77,94.6s1.91.92,1.49,1.38S241.77,94.6,241.77,94.6Z"/><path class="cls-28" d="M241.77,94.6s.7,2,.08,2S241.77,94.6,241.77,94.6Z"/><path class="cls-28" d="M241.77,94.6s-.92,1.91-1.38,1.49S241.77,94.6,241.77,94.6Z"/><path class="cls-28" d="M241.77,94.6s-2,.7-2,.08S241.77,94.6,241.77,94.6Z"/><path class="cls-28" d="M241.77,94.6s-1.91-.92-1.49-1.37S241.77,94.6,241.77,94.6Z"/><path class="cls-28" d="M241.77,94.6s-.7-2-.08-2S241.77,94.6,241.77,94.6Z"/><path class="cls-28" d="M241.77,94.6s.92-1.91,1.38-1.49S241.77,94.6,241.77,94.6Z"/><path class="cls-29" d="M241.77,94.6s1.88-1.71,2.19-1S241.77,94.6,241.77,94.6Z"/><path class="cls-29" d="M241.77,94.6s2.54.12,2.28.82S241.77,94.6,241.77,94.6Z"/><path class="cls-29" d="M241.77,94.6s1.71,1.88,1,2.2S241.77,94.6,241.77,94.6Z"/><path class="cls-29" d="M241.77,94.6s-.12,2.54-.82,2.29S241.77,94.6,241.77,94.6Z"/><path class="cls-29" d="M241.77,94.6s-1.88,1.71-2.19,1S241.77,94.6,241.77,94.6Z"/><path class="cls-29" d="M241.77,94.6s-2.53-.12-2.28-.82S241.77,94.6,241.77,94.6Z"/><path class="cls-29" d="M241.77,94.6s-1.71-1.87-1-2.19S241.77,94.6,241.77,94.6Z"/><path class="cls-29" d="M241.77,94.6s.12-2.53.82-2.28S241.77,94.6,241.77,94.6Z"/><path class="cls-30" d="M241.91,94.9a.33.33,0,0,1-.28-.6.35.35,0,0,1,.44.16A.32.32,0,0,1,241.91,94.9Z"/><path class="cls-27" d="M237.29,96.81s1-.47,1.74.91A1.44,1.44,0,0,1,237.29,96.81Z"/><path class="cls-27" d="M238.29,96.12s1-.49.4-1.92A1.43,1.43,0,0,0,238.29,96.12Z"/><path class="cls-27" d="M236.12,97.14s1-.49.4-1.92A1.44,1.44,0,0,0,236.12,97.14Z"/><path class="cls-27" d="M165,246.63h0a.08.08,0,0,1,.1.06l1.74,9.77a.08.08,0,0,1-.07.09h0a.07.07,0,0,1-.09-.07l-1.75-9.76A.09.09,0,0,1,165,246.63Z"/><path class="cls-28" d="M166.7,256.38s.15,2.06-.44,1.92S166.7,256.38,166.7,256.38Z"/><path class="cls-28" d="M166.7,256.38s-1.35,1.56-1.67,1.05S166.7,256.38,166.7,256.38Z"/><path class="cls-28" d="M166.7,256.38s-2.06.15-1.92-.44S166.7,256.38,166.7,256.38Z"/><path class="cls-28" d="M166.7,256.38s-1.56-1.35-1-1.68S166.7,256.38,166.7,256.38Z"/><path class="cls-28" d="M166.7,256.38s-.15-2.06.44-1.93S166.7,256.38,166.7,256.38Z"/><path class="cls-28" d="M166.7,256.38s1.35-1.56,1.67-1S166.7,256.38,166.7,256.38Z"/><path class="cls-28" d="M166.7,256.38s2.06-.15,1.93.44S166.7,256.38,166.7,256.38Z"/><path class="cls-28" d="M166.7,256.38s1.56,1.35,1.05,1.67S166.7,256.38,166.7,256.38Z"/><path class="cls-29" d="M166.7,256.38s1.13,2.2.42,2.32S166.7,256.38,166.7,256.38Z"/><path class="cls-29" d="M166.7,256.38s-.76,2.35-1.35,1.94S166.7,256.38,166.7,256.38Z"/><path class="cls-29" d="M166.7,256.38s-2.2,1.13-2.32.41S166.7,256.38,166.7,256.38Z"/><path class="cls-29" d="M166.7,256.38s-2.35-.76-1.94-1.35S166.7,256.38,166.7,256.38Z"/><path class="cls-29" d="M166.7,256.38s-1.13-2.2-.41-2.33S166.7,256.38,166.7,256.38Z"/><path class="cls-29" d="M166.7,256.38s.76-2.35,1.35-1.94S166.7,256.38,166.7,256.38Z"/><path class="cls-29" d="M166.7,256.38s2.2-1.13,2.33-.42S166.7,256.38,166.7,256.38Z"/><path class="cls-29" d="M166.7,256.38s2.35.76,1.94,1.35S166.7,256.38,166.7,256.38Z"/><path class="cls-30" d="M166.38,256.43a.32.32,0,0,1,.26-.37.33.33,0,0,1,.38.26.32.32,0,0,1-.64.11Z"/><path class="cls-27" d="M165.77,251.6s.18,1.08-1.3,1.4C164.47,253,164.51,251.64,165.77,251.6Z"/><path class="cls-27" d="M166.16,252.72s.2,1.08,1.71.87A1.41,1.41,0,0,0,166.16,252.72Z"/><path class="cls-27" d="M165.75,250.42s.2,1.07,1.7.86A1.39,1.39,0,0,0,165.75,250.42Z"/><path class="cls-31" d="M256.14,182.09c0,.3,0,.63,0,.92a8.65,8.65,0,0,0,.22,1.76,6.32,6.32,0,0,0,.46,2.39,2.69,2.69,0,0,0,1.88,1.2c.06,0-1.49-.9-1.81-2a.05.05,0,0,1,.09-.05,2.14,2.14,0,0,0,1.73.71,3.4,3.4,0,0,1-1.81-1.94A.05.05,0,0,1,257,185a2,2,0,0,0,1.34.5,3.24,3.24,0,0,1-1.53-1.89.05.05,0,0,1,.09-.05,1.32,1.32,0,0,0,.94.52,10.39,10.39,0,0,1-1-1.09,3.23,3.23,0,0,1-.25-.8,2.35,2.35,0,0,1,0-.45,1.18,1.18,0,0,0,0-.46,2.12,2.12,0,0,0-.25-.47l-.08-.1a.27.27,0,0,0-.37.08.76.76,0,0,0-.13.39,1.8,1.8,0,0,1,.2.19A1.19,1.19,0,0,1,256.14,182.09Z"/><path class="cls-31" d="M256.6,181.32c.12.26.19.55.28.81a9.61,9.61,0,0,0,.83,1.59c.34.6.37,1.34,1.27,2a2.11,2.11,0,0,0,1.84.18,4.49,4.49,0,0,1-2.2-1.15,0,0,0,0,1,.05-.07,1.93,1.93,0,0,0,1.71,0,3,3,0,0,1-2.18-1.07s0-.09.05-.07a1.89,1.89,0,0,0,1.31,0,3,3,0,0,1-1.93-1.13,0,0,0,0,1,.06-.06,1.26,1.26,0,0,0,1,.13,9.61,9.61,0,0,1-1.17-.62,2.81,2.81,0,0,1-.48-.61,2.12,2.12,0,0,1-.18-.37,1,1,0,0,0-.18-.38,1.83,1.83,0,0,0-.36-.32.24.24,0,0,0-.11-.06.25.25,0,0,0-.29.19.71.71,0,0,0,0,.38.92.92,0,0,1,.23.09A1.1,1.1,0,0,1,256.6,181.32Z"/><path class="cls-32" d="M241.65,187.17s-1,0-2.36,1.74c0,0-.37.39-.76-.28a14.06,14.06,0,0,0-1.95-2.07c-.2-.2-.55-.55-.54-.83a.77.77,0,0,0-.29-.82l.54-1.44a5.23,5.23,0,0,1,.33,1.53,2.11,2.11,0,0,0,.67,1.19,9.61,9.61,0,0,0,1.48,1.36.22.22,0,0,0,.3,0,3.58,3.58,0,0,1,2.9-1.26A1.6,1.6,0,0,1,241.65,187.17Z"/><path class="cls-33" d="M256,176.84a10.47,10.47,0,0,0,.57,3.37s-.14.86-.54,1.08l-.65,2s-1.36-.8-.65-1.82a5.74,5.74,0,0,1-2.77-.24,3.05,3.05,0,0,0-3.16,1.28,9.51,9.51,0,0,0-.79,2.75c-.41,1.52.84,3.71-2,5.77l0,0a2.65,2.65,0,0,0,1.22,1.58s-1.17.8-1.38-.43c0,0-.36.56-.16.67,0,0-1.15-.37-.63-1.33a12.43,12.43,0,0,1-2.08.49,10.72,10.72,0,0,1-2.08-.88,2.31,2.31,0,0,0-1.7-.16c-.25.15-.7.53-1,.47a.69.69,0,0,1-.29-.16,6.1,6.1,0,0,0-3.14-1.69.89.89,0,0,1-.57-.52.94.94,0,0,0-.76-.61l.5-1.33c.62.39.52.59.76,1.25a.93.93,0,0,0,.29.46,9.74,9.74,0,0,0,1.13.54c.69.27,1.19.48,1.87.76a1,1,0,0,0,.45.09.63.63,0,0,0,.49-.29c1.58-2.9,2.69-2,3.17-3.14.57-1.41.55-2.49,1.11-3.94.15-.39.16-.32.33-.7a1,1,0,0,0,0-1.16,3.59,3.59,0,0,0-.37-.63c-.12-.12-.29-.41-.44-.5-.41-.25-.74-.73-1.18-.91a14,14,0,0,0-2.66-.59,1,1,0,0,1-.37-.13,1.61,1.61,0,0,1-.22-.23,2,2,0,0,0-.8-.45l.53-1.44c.46.22.48.74.79,1.16a2.27,2.27,0,0,0,.54.43,3.55,3.55,0,0,0,.8.25,6.76,6.76,0,0,0,2.63.23c.5,0,1-.27,1.46-.34s1.18-.51,1.79-.59a5.84,5.84,0,0,1,1.77-.05c.5.1,1,.22,1.49.35a23.35,23.35,0,0,1,2.56.78,13.51,13.51,0,0,0,1.67.46c-.32,1.14.29,1.29.29,1.29s-.14-.16-.15-.33a1.69,1.69,0,0,1,.52-1.35,2.64,2.64,0,0,0,.71-1.2C255.18,176.21,256,176.47,256,176.84Z"/><path class="cls-32" d="M239.09,175.35l.45-1.24c.43.16.55.75.64.92.19.34.18.53.51.74a10.43,10.43,0,0,0,2.64,1.34,8.15,8.15,0,0,0,2.44,0c-1.39.45-2.84.82-2.84.82l-3-1.68a1,1,0,0,1-.39-.44A1.27,1.27,0,0,0,239.09,175.35Z"/><path class="cls-34" d="M242.72,179.91c-.36-.22-.67-.6-1-.82a1.51,1.51,0,0,1,1,.31,4.49,4.49,0,0,1,2,2.21c.55,1.39-.26,2.51-.65,3.9s-.68,2.68-2.47,3a5.43,5.43,0,0,0-2.26.89c1.38-2.14,2.36-1.44,2.8-2.52.57-1.41.55-2.49,1.11-3.94.15-.39.16-.32.33-.7a1,1,0,0,0,0-1.16,3.59,3.59,0,0,0-.37-.63C243,180.29,242.87,180,242.72,179.91Z"/><path class="cls-35" d="M255.61,179.38a.22.22,0,0,0-.25.16c-.05.13,0,.26.07.29s.21,0,.26-.16A.23.23,0,0,0,255.61,179.38Z"/><path class="cls-36" d="M194.35,35.54c.2-.46.56-17.65.56-17.65s-12,12.31-12.2,12.77,2.45,6.46,3.21,8.21l-.15.33.25-.1c.06.16.1.24.1.24l.13-.33C188,38.33,194.19,35.94,194.35,35.54Z"/><path class="cls-37" d="M180.8,47.69l12-24.67-9,25.93S181.59,49,180.8,47.69Z"/><polygon class="cls-37" points="189.84 30.33 193.45 27.71 189.04 32.23 189.84 30.33"/><polygon class="cls-37" points="187.88 35 191.76 31.75 187.11 36.84 187.88 35"/><polygon class="cls-37" points="188.8 32.13 188.18 27.6 188 34.03 188.8 32.13"/><path class="cls-36" d="M131.79,262.73c0,.43,5.6,14.35,5.6,14.35s5.41-14,5.41-14.42-4.17-4.35-5.38-5.49v-.31l-.16.16-.16-.16v.31C135.91,258.33,131.79,262.35,131.79,262.73Z"/><path class="cls-37" d="M138.5,248.35l-1.14,23.88-1.68-23.87S137.43,247.58,138.5,248.35Z"/><polygon class="cls-37" points="137.2 265.36 135.2 268.7 137.19 263.56 137.2 265.36"/><polygon class="cls-37" points="137.17 260.95 135.17 264.88 137.16 259.21 137.17 260.95"/><polygon class="cls-37" points="137.42 263.56 139.46 266.98 137.4 261.76 137.42 263.56"/><path class="cls-37" d="M74.66,59.8,63.78,40.71,76.85,58.4S75.87,59.87,74.66,59.8Z"/><polygon class="cls-37" points="67.29 45.96 67.19 42.39 68.18 47.35 67.29 45.96"/><polygon class="cls-37" points="69.48 49.37 69.09 45.33 70.35 50.72 69.48 49.37"/><polygon class="cls-37" points="68 47.46 64.73 45.82 68.9 48.85 68 47.46"/><ellipse class="cls-36" cx="171.95" cy="26.68" rx="7.95" ry="7.26" transform="translate(95.16 182.83) rotate(-72.63)"/><path class="cls-37" d="M165.67,42.44l7.6-20.34-5.15,21.11S166.39,43.4,165.67,42.44Z"/><polygon class="cls-37" points="171.51 28.08 174.16 25.75 171.02 29.64 171.51 28.08"/><polygon class="cls-37" points="170.31 31.91 173.13 29.05 169.84 33.42 170.31 31.91"/><polygon class="cls-37" points="170.82 29.58 170 26.05 170.34 31.14 170.82 29.58"/><path class="cls-38" d="M168,25.43a.61.61,0,0,1-1.16-.36.61.61,0,0,1,.77-.4A.6.6,0,0,1,168,25.43Z"/><path class="cls-38" d="M171.28,22.11a.61.61,0,1,1-1.16-.36.61.61,0,0,1,.77-.4A.6.6,0,0,1,171.28,22.11Z"/><path class="cls-38" d="M176.25,27.37a.61.61,0,0,1-.77.4.61.61,0,1,1,.77-.4Z"/><path class="cls-38" d="M174.14,32.07a.61.61,0,0,1-.76.4.62.62,0,0,1-.4-.77.61.61,0,0,1,.76-.4A.62.62,0,0,1,174.14,32.07Z"/><path class="cls-38" d="M175.89,22.28a.61.61,0,1,1-1.16-.37.61.61,0,0,1,.76-.4A.62.62,0,0,1,175.89,22.28Z"/><path class="cls-38" d="M168.88,29.79a.61.61,0,0,1-1.16-.37.61.61,0,1,1,1.16.37Z"/><path class="cls-36" d="M210.85,44.4c-2,3.9-6.52,5.58-10.09,3.75s-4.82-6.49-2.81-10.39S204.48,32.17,208,34,212.86,40.49,210.85,44.4Z"/><path class="cls-37" d="M195.52,55.53l11-18.75L197.8,56.71S196.06,56.6,195.52,55.53Z"/><polygon class="cls-37" points="203.73 42.38 206.75 40.53 202.98 43.83 203.73 42.38"/><polygon class="cls-37" points="201.9 45.94 205.16 43.62 201.17 47.35 201.9 45.94"/><polygon class="cls-37" points="202.8 43.74 202.59 40.12 202.05 45.19 202.8 43.74"/><path class="cls-38" d="M200.74,39.17a.6.6,0,0,1-.82.26.61.61,0,1,1,.56-1.08A.6.6,0,0,1,200.74,39.17Z"/><path class="cls-38" d="M204.53,36.46a.6.6,0,0,1-.82.26.61.61,0,1,1,.56-1.08A.6.6,0,0,1,204.53,36.46Z"/><path class="cls-38" d="M208.52,42.49a.6.6,0,0,1-.82.26.61.61,0,1,1,.82-.26Z"/><path class="cls-38" d="M205.64,46.76a.61.61,0,0,1-1.08-.56.6.6,0,0,1,.82-.26A.61.61,0,0,1,205.64,46.76Z"/><path class="cls-38" d="M209,37.41a.61.61,0,0,1-1.08-.56.61.61,0,0,1,1.08.56Z"/><circle class="cls-38" cx="200.31" cy="43.33" r="0.61"/><path class="cls-39" d="M117.93,39.1s14.92-23.28,17.39-23.85,7.39,9.58,8.7,8.81,2-3.45,3.77-2.3,14.43,22,14.43,22Z"/><path class="cls-40" d="M128.86,25.88c2.35-.76,3.8-3.24,3.51.11s1.12,1.91,1.77,1,1.91-3.06,3,0S139,26.9,139,25.48s1.65-1.8,3.49,1.55,2.9,2.78,2.61.77.38-3.07,2.22-1,3.54,3.07,3,1.15.15-2.73.75-1.84a28.15,28.15,0,0,0-3.3-4.39c-1.73-1.15-2.46,1.54-3.77,2.3s-6.23-9.38-8.7-8.81c-.91.21-3.53,3.53-6.47,7.63C128.82,22.93,126.52,26.65,128.86,25.88Z"/><path class="cls-41" d="M180,257.14a35.64,35.64,0,0,1-3.93.06.71.71,0,0,1,.16-1.4c1,0,3.58-.19,3.58-.19Z"/><path class="cls-42" d="M181.23,242.33s1.51-1.14,1-1.47a2.58,2.58,0,0,0-2.32.78,2.16,2.16,0,0,0,.31,1.11Z"/><path class="cls-42" d="M177.8,243.77s-1.87.29-1.75-.29,1.81-1.34,2.17-1.12.58,1,.58,1Z"/><path class="cls-37" d="M182.47,250.16l2.28-1-3.34-6.88a2.63,2.63,0,0,0-1.42.43l1.76,5.71-2.85-5.25c-.57,0-1.3.72-1.3.72l2.6,7.19Z"/><path class="cls-43" d="M180.09,257.68l3.43-.14,1.74-.73,0,0,1.74-.73,2.49-2.36-1.61-2-1.38,1.39-1.12-4.21a11.16,11.16,0,0,0-3.12.82h0a11.07,11.07,0,0,0-2.76,1.67c.79,1.34,2.23,3.74,2.23,3.74l-2,0Z"/><path class="cls-41" d="M182.88,261.6a4.1,4.1,0,1,1,5.38,2.19A4.1,4.1,0,0,1,182.88,261.6Z"/><path class="cls-37" d="M190.7,258.3s-4,2.33-4.28,4.48c0,0-2.42-1.44-3.8-.8a4.67,4.67,0,0,0,4.08,2.46S192.11,264.15,190.7,258.3Z"/><path class="cls-41" d="M189.18,253.27a37.3,37.3,0,0,0,2.79-2.78.71.71,0,0,0-1.12-.86c-.71.74-2.63,2.43-2.63,2.43Z"/><polygon class="cls-41" points="196.75 238.35 194.66 235.21 193.72 235.76 195.44 239.12 196.75 238.35"/><polygon class="cls-41" points="193.16 240.45 191.45 237.09 192.38 236.54 194.47 239.69 193.16 240.45"/><path class="cls-44" d="M199.44,241.69l-.62-4.1a7.22,7.22,0,0,0-4.24,1.24c-2.52,1.47-3,2.84-3,2.84l3.2,2.77Z"/><path class="cls-37" d="M199.27,255.7c1.68,1.8,4.21,1.32,5.54.54h0c1.33-.79,3-2.76,2.24-5.1s-2-3.35-1.44-4.3c0,0-1.34-.92-5.44,1.48l2.31,4-2.32-4c-4.1,2.4-4,4-4,4C197.34,252.3,197.6,253.9,199.27,255.7Z"/><path class="cls-41" d="M195.36,250.06a35.34,35.34,0,0,1-3.89.57.71.71,0,0,1,0-1.41c1-.12,3.52-.66,3.52-.66Z"/><path class="cls-42" d="M194.66,235.21s1.35-1.33.81-1.58a2.56,2.56,0,0,0-2.19,1.07,2,2,0,0,0,.44,1.06Z"/><path class="cls-42" d="M191.45,237.09s-1.82.53-1.78-.06,1.62-1.56,2-1.39.7.9.7.9Z"/><path class="cls-29" d="M195.53,250.58l3.38-.58,1.63-1,0,0,1.63-1,2.16-2.66-1.86-1.8-1.18,1.55s-1.07-2.59-1.67-4a11.18,11.18,0,0,0-3,1.21h0a11.42,11.42,0,0,0-2.52,2l2.69,3.42-1.93.28Z"/><path class="cls-41" d="M198.81,254.1a4.1,4.1,0,1,1,5.61,1.47A4.1,4.1,0,0,1,198.81,254.1Z"/><path class="cls-41" d="M204,245a38.64,38.64,0,0,0,2.4-3.11.71.71,0,0,0-1.22-.71c-.61.83-2.3,2.75-2.3,2.75Z"/><path class="cls-37" d="M206.29,250.28s-3.54,2-3.89,4.7c0,0-.27-1.38-.06-1.57a1.55,1.55,0,0,0-.88,1.67s-2-.93-2.64-.61a4.06,4.06,0,0,0,4.92,1.81C207.33,255.34,207,251.11,206.29,250.28Z"/><path class="cls-36" d="M92.06,256.55c2-4.21,6.74-6.14,10.58-4.32S108,259,106,263.15s-6.73,6.14-10.57,4.32S90.07,260.76,92.06,256.55Z"/><path class="cls-37" d="M108,244.23l-11,20.24,8.55-21.41S107.33,243.11,108,244.23Z"/><polygon class="cls-37" points="99.68 258.45 96.55 260.51 100.43 256.88 99.68 258.45"/><polygon class="cls-37" points="101.51 254.61 98.13 257.19 102.23 253.09 101.51 254.61"/><polygon class="cls-37" points="100.63 256.98 100.97 260.8 101.37 255.41 100.63 256.98"/><path class="cls-38" d="M103,261.75a.65.65,0,1,1,.31.86A.65.65,0,0,1,103,261.75Z"/><path class="cls-38" d="M99,264.75a.65.65,0,0,1,.86-.31.65.65,0,1,1-.86.31Z"/><path class="cls-38" d="M94.6,258.49a.64.64,0,0,1,.86-.3.65.65,0,0,1,.31.86.64.64,0,0,1-.86.3A.65.65,0,0,1,94.6,258.49Z"/><path class="cls-38" d="M97.51,253.87a.65.65,0,1,1,.31.86A.65.65,0,0,1,97.51,253.87Z"/><path class="cls-38" d="M94.22,263.89a.65.65,0,0,1,.86-.3.64.64,0,1,1-.86.3Z"/><path class="cls-38" d="M102.69,257.05a.65.65,0,1,1,.31.86A.65.65,0,0,1,102.69,257.05Z"/><path class="cls-36" d="M112.82,263.79c1-4.55,5.18-7.49,9.33-6.58s6.71,5.34,5.7,9.89-5.18,7.5-9.33,6.59S111.82,268.34,112.82,263.79Z"/><path class="cls-37" d="M125.52,248.22l-6.16,22.2,3.51-22.79S124.68,247.27,125.52,248.22Z"/><polygon class="cls-37" points="120.67 263.93 118.08 266.64 121.04 262.24 120.67 263.93"/><polygon class="cls-37" points="121.58 259.78 118.87 263.05 121.95 258.14 121.58 259.78"/><polygon class="cls-37" points="121.26 262.29 122.45 265.94 121.63 260.6 121.26 262.29"/><path class="cls-38" d="M124.61,266.41a.64.64,0,0,1,.77-.49.66.66,0,0,1,.49.77.65.65,0,1,1-1.26-.28Z"/><path class="cls-38" d="M121.45,270.22a.65.65,0,0,1,.77-.49.64.64,0,0,1,.49.77.65.65,0,0,1-.76.49A.66.66,0,0,1,121.45,270.22Z"/><path class="cls-38" d="M115.73,265.12a.64.64,0,0,1,1.26.27.66.66,0,0,1-.77.5A.64.64,0,0,1,115.73,265.12Z"/><path class="cls-38" d="M117.52,260a.65.65,0,0,1,.77-.49.64.64,0,0,1,.49.77.65.65,0,0,1-.76.49A.66.66,0,0,1,117.52,260Z"/><path class="cls-38" d="M116.57,270.47a.66.66,0,0,1,.77-.5.65.65,0,0,1,.49.77.63.63,0,0,1-.76.49A.65.65,0,0,1,116.57,270.47Z"/><path class="cls-38" d="M123.29,261.89a.65.65,0,1,1,1.26.28.66.66,0,0,1-.77.49A.64.64,0,0,1,123.29,261.89Z"/><path class="cls-45" d="M14.82,76.16,2,102.44s-2.67-3.14.42-5.17c0,0-3.66-2.44-.67-4.53,0,0-2.76-1.61-1-5.1s4.46-2.16,4.46-2.16-.3-3.42,3.13-3.19c0,0-1-2.58,2.34-3.45C10.62,78.84,11.59,75.24,14.82,76.16Z"/><path class="cls-7" d="M232.39,38.5,217.85,23.78s5.25-2.83,7.36,3.37c0,0,1.32-2.73,3.34-1.41a2.49,2.49,0,0,1,1,3.22s3.7-2.95,5.59-.56-1,5.46-1,5.46,4.16.39,2.11,4.07c0,0,3.79,2.87,1.51,6.07Z"/><path class="cls-7" d="M177.35,8.42,160.06,5.47s2.23-4.54,6.74-1.31c0,0-.44-2.53,1.6-2.62a2.11,2.11,0,0,1,2.32,1.7s1.09-3.87,3.57-3.15,2,4.24,2,4.24,3.05-1.78,3.46,1.76c0,0,4,.11,4,3.44Z"/><path class="cls-45" d="M77.86,19.62s.38-6.29,8.11-4.37c0,0-1.66-3.81,1.91-3.48a2.94,2.94,0,0,1,2-2.72,2.12,2.12,0,0,1,2.61,1.1s-.52-3.85,2.41-4,3.87,3.38,3.87,3.38.94-2.73,2.53-2.13a3.89,3.89,0,0,1,2.12,2.14s2-2,3.11.07c0,0,4.24-2.94,5.51.84Z"/><path class="cls-37" d="M110.85,41.18l-1-15.28,3.45,14.94A3.9,3.9,0,0,1,110.85,41.18Z"/><polygon class="cls-37" points="110.56 30.24 112.02 27.88 110.72 31.38 110.56 30.24"/><polygon class="cls-37" points="110.96 33.03 112.36 30.3 111.11 34.14 110.96 33.03"/><polygon class="cls-37" points="110.53 31.4 108.47 29.47 110.69 32.54 110.53 31.4"/><path class="cls-37" d="M45.23,91.42,27.28,78.75,46.61,89.22S46.36,91,45.23,91.42Z"/><polygon class="cls-37" points="32.68 82.01 31.08 78.81 34.08 82.89 32.68 82.01"/><polygon class="cls-37" points="36.12 84.17 34.05 80.67 37.48 85.02 36.12 84.17"/><polygon class="cls-37" points="33.97 83.07 30.31 82.97 35.37 83.94 33.97 83.07"/><rect class="cls-46" x="24.03" y="108.51" width="2.59" height="1.02" rx="0.21" transform="translate(-43.53 20.79) rotate(-24.89)"/><path class="cls-47" d="M23.3,109.83l.1.22a.1.1,0,0,0,.12,0l2.19-1a.08.08,0,0,0,.05-.11l-.11-.23a.08.08,0,0,0-.11,0l-2.2,1A.09.09,0,0,0,23.3,109.83Z"/><path class="cls-48" d="M24.24,109.76l0,.08a.22.22,0,0,0,.29.1l2-.91a.21.21,0,0,0,.11-.28l-.13-.27-.8.37-1.55.72-.8.37,0,.11a.1.1,0,0,0,.12,0Z"/><path class="cls-49" d="M23.26,109.78l.15.33a.06.06,0,0,0,.08,0l.13-.06a.06.06,0,0,0,0-.08l-.15-.33a.07.07,0,0,0-.09,0l-.12.06A.05.05,0,0,0,23.26,109.78Z"/><path class="cls-50" d="M23.33,110l.08.16a.06.06,0,0,0,.08,0l.13-.06a.06.06,0,0,0,0-.08l-.07-.17Z"/><rect class="cls-46" x="30.12" y="104.65" width="2.93" height="1.16" rx="0.24" transform="translate(-20.85 8.68) rotate(-11.8)"/><path class="cls-47" d="M29.15,105.59l.06.27a.09.09,0,0,0,.11.08l2.68-.56a.1.1,0,0,0,.08-.12L32,105a.09.09,0,0,0-.12-.07l-2.68.56A.09.09,0,0,0,29.15,105.59Z"/><path class="cls-48" d="M30.2,105.76l0,.09a.24.24,0,0,0,.28.19l2.4-.5a.25.25,0,0,0,.19-.29l-.07-.33-1,.21-1.9.39-1,.21,0,.13a.09.09,0,0,0,.11.08Z"/><path class="cls-49" d="M29.11,105.53l.08.4a.08.08,0,0,0,.09.06l.15,0a.08.08,0,0,0,.06-.09l-.08-.4a.09.09,0,0,0-.09-.06l-.15,0A.06.06,0,0,0,29.11,105.53Z"/><path class="cls-50" d="M29.15,105.73l0,.2a.08.08,0,0,0,.09.06l.15,0a.08.08,0,0,0,.06-.09l0-.2Z"/><rect class="cls-46" x="32.41" y="100.66" width="1.59" height="4.03" rx="0.33" transform="translate(-35.86 19.77) rotate(-21.88)"/><rect class="cls-46" x="32.37" y="99.39" width="0.65" height="4.03" rx="0.14" transform="translate(-35.4 19.46) rotate(-21.85)"/><path class="cls-48" d="M32.16,100.93,32,101a.33.33,0,0,0-.19.43l1.26,3.12a.32.32,0,0,0,.43.18l.43-.17-.51-1.26-1-2.47L32,99.54l-.18.07a.14.14,0,0,0-.07.18Z"/><path class="cls-49" d="M32.2,99.4l-.53.21a.1.1,0,0,0-.05.13l.08.2a.1.1,0,0,0,.13.06l.52-.21a.1.1,0,0,0,.06-.13l-.09-.2A.09.09,0,0,0,32.2,99.4Z"/><path class="cls-50" d="M31.93,99.51l-.26.1a.1.1,0,0,0-.05.13l.08.2a.1.1,0,0,0,.13.06l.26-.11Z"/><path class="cls-51" d="M30.89,110.05a2.47,2.47,0,0,0,.59,3.74c-.71,1.23,1.27,3,2.6,3.11l2.31-17.4c-1.31-.28-3.69,1-3.32,2.33a2.46,2.46,0,0,0-1.54,3.45A3,3,0,0,0,30.89,110.05Z"/><path class="cls-52" d="M31.47,108a2.85,2.85,0,0,0,.91,2.54,2.47,2.47,0,0,0,.59,3.74c-.71,1.23,1.26,3,2.59,3.11l1.16-8.7Z"/><path class="cls-51" d="M27.78,112.7c2.16,1-.44-4.29,5.28,1.54.6-1.15-1.22-2.7-1.35-3.06a1.57,1.57,0,0,0,.53-1.22c.12-.88.8-4-1.24-3.81a3.65,3.65,0,0,0-3,1.95,2.32,2.32,0,0,0-.83-.27,2.39,2.39,0,0,0-2.69,2.06,2.07,2.07,0,0,0,0,.43,2.39,2.39,0,0,0-2.61,2.07,2.33,2.33,0,0,0,.19,1.29,2.46,2.46,0,0,0-.52,1.2,2.4,2.4,0,0,0,2.06,2.7A2.43,2.43,0,0,0,26,116.44a2.94,2.94,0,0,0,2.46-2.08C28.53,113.71,27.77,112.75,27.78,112.7Z"/><path class="cls-52" d="M29.8,114.19c.21.1-.33-1.48.45-1.37s1.79-1.13,4.14,1.42c.6-1.15-1.22-2.7-1.35-3.06a1.57,1.57,0,0,0,.54-1.22,12.7,12.7,0,0,0,.2-2.13L30,107.32c-.23.29-.4.57-.58.78a2.31,2.31,0,0,0-.84-.27,2.4,2.4,0,0,0-2.69,2.06,3.1,3.1,0,0,0,0,.43,2.4,2.4,0,0,0-2.61,2.07,2.43,2.43,0,0,0,.19,1.29,2.46,2.46,0,0,0-.52,1.2,2.4,2.4,0,0,0,4.43,1.56,2.39,2.39,0,0,0,2.47-2.08C29.79,114.3,29.79,114.25,29.8,114.19Z"/><rect x="25.04" y="124.88" width="2.36" height="4.68" transform="translate(-103.34 136.48) rotate(-82.45)"/><rect x="23.21" y="125.97" width="3.52" height="2.16" transform="translate(-104.26 135.1) rotate(-82.45)"/><polygon class="cls-53" points="10.62 127.81 15.09 112.83 30.39 112.64 22.62 132.5 10.62 127.81"/><polygon class="cls-53" points="10.62 127.81 15.09 112.83 23.28 112.73 16.49 130.1 10.62 127.81"/><polygon class="cls-53" points="14.19 115.75 15.09 112.83 30.39 112.64 29.2 115.69 14.19 115.75"/><path class="cls-47" d="M17.13,135.49l.45-3.39a1.08,1.08,0,0,1,1.2-.92l7.11.94a1.07,1.07,0,0,1,.91,1.2l-.5,3.79a.9.9,0,0,1-.08.28h0a1,1,0,0,1,.87,1.13l-.68,5.18a1,1,0,0,1-1.14.86l-3.13-.41a1.08,1.08,0,0,1-.87-1.14l-.1-5.28a.33.33,0,0,1,0-.14l-3.17-.91A1.13,1.13,0,0,1,17.13,135.49Z"/><path class="cls-47" d="M17.13,135.49l.45-3.39a1.08,1.08,0,0,1,1.2-.92l4.87.65L22,144.13a1.12,1.12,0,0,1-.71-1.11l-.1-5.28a.33.33,0,0,1,0-.14l-3.17-.91A1.13,1.13,0,0,1,17.13,135.49Z"/><rect x="12.77" y="128.87" width="31.19" height="2.4" rx="0.69" transform="translate(-104.31 141.08) rotate(-82.45)"/><path class="cls-54" d="M24.47,140.42a3.59,3.59,0,0,1,4-3.08h.11l-.95,7.12-.1,0A3.59,3.59,0,0,1,24.47,140.42Z"/><path class="cls-55" d="M18,135.21l.2-1.52a1,1,0,0,1,1.09-.84l2.14.29a1,1,0,0,1,.84,1.09l-.22,1.68a1,1,0,0,1-1.25.93l-2-.54A1,1,0,0,1,18,135.21Z"/><path class="cls-56" d="M30.85,141.27a2.84,2.84,0,1,1-2.45-3.19A2.85,2.85,0,0,1,30.85,141.27Z"/><path class="cls-56" d="M25.21,140.52a2.84,2.84,0,0,1,5.64.75Z"/><path class="cls-54" d="M29.23,141.05a1.21,1.21,0,1,1-1-1.36A1.21,1.21,0,0,1,29.23,141.05Z"/><path class="cls-54" d="M26.83,140.74a1.21,1.21,0,1,1,2.4.31Z"/><path class="cls-56" d="M33.71,119.69a2.84,2.84,0,1,1-2.45-3.19A2.85,2.85,0,0,1,33.71,119.69Z"/><path class="cls-56" d="M28.07,118.94a2.84,2.84,0,0,1,5.64.75Z"/><path class="cls-54" d="M32.09,119.48a1.21,1.21,0,1,1-2.4-.32,1.21,1.21,0,1,1,2.4.32Z"/><path class="cls-54" d="M29.69,119.16a1.21,1.21,0,1,1,2.4.32Z"/><path class="cls-57" d="M28.51,106c-1.64-1.54-1.5.74-4.27.14C26.76,107.4,26.94,105.3,28.51,106Z"/><path class="cls-57" d="M31.51,102.49c-1.53.82-1-.84-3.14-.95C30.49,101.09,30.21,102.68,31.51,102.49Z"/><path class="cls-53" d="M101.36,24.13,85,31.8a.77.77,0,0,0-.38,1l4.58,9.77a.77.77,0,0,0,1,.36l16.38-7.67a.77.77,0,0,0,.38-1l-4.58-9.77A.76.76,0,0,0,101.36,24.13Z"/><path class="cls-54" d="M104.18,38.45,78.77,50.35a.48.48,0,0,1-.63-.22l-.39-.84a.47.47,0,0,1,.23-.62l25.41-11.9A.48.48,0,0,1,104,37l.39.84A.47.47,0,0,1,104.18,38.45Z"/><path class="cls-47" d="M84.86,34.7l-3,1.43a1.68,1.68,0,0,0-.87,1l-1.62,6-2,2.47a1.09,1.09,0,0,0-.14,1.15l.86,1.84s0,.06,0,0L89,43.52s0,0,0-.06l-4.1-8.74A0,0,0,0,0,84.86,34.7Z"/><path class="cls-55" d="M83.92,36.81l-1.58.74a1.49,1.49,0,0,0-.74.94l-1,3.65c-.08.31.12.63.34.52l4.71-2.21Z"/><path class="cls-54" d="M79.61,50l8.13-3.81A1.28,1.28,0,0,0,88,46a4.64,4.64,0,0,0-8.38,4Z"/><ellipse class="cls-58" cx="83.81" cy="47.99" rx="3.27" ry="3.21" transform="translate(-12.44 40.08) rotate(-25.1)"/><path class="cls-54" d="M83.24,46.77a1.35,1.35,0,1,1-.68,1.81A1.36,1.36,0,0,1,83.24,46.77Z"/><path class="cls-54" d="M95.37,42.58l8.13-3.81a1,1,0,0,0,.24-.15,4.63,4.63,0,0,0-8.37,4Z"/><path class="cls-56" d="M98.2,37.71A3.21,3.21,0,1,1,96.6,42,3.23,3.23,0,0,1,98.2,37.71Z"/><path class="cls-54" d="M99,39.4a1.34,1.34,0,1,1-.67,1.8A1.35,1.35,0,0,1,99,39.4Z"/><line class="cls-59" x1="84.11" y1="37.2" x2="84.41" y2="37.85"/><line class="cls-59" x1="83.56" y1="41.42" x2="83.05" y2="41.66"/><rect class="cls-60" x="84.43" y="41.1" width="1.54" height="0.49" transform="translate(-9.49 40.04) rotate(-25.1)"/><path class="cls-48" d="M81.21,43.43a.44.44,0,0,1-.58-.21l-.55-1.17a.44.44,0,0,1,.21-.58Z"/><rect class="cls-7" x="80.74" y="41.32" width="0.22" height="2.16" transform="translate(-10.35 38.3) rotate(-25.1)"/><path class="cls-52" d="M38,91.38c-.59-2.6,1.72-4.77,4.63-4.13,0-2.38,4.11-3,6.48-1.6L36.29,110.57c-3-1.73-3.75-4.22-2.48-6.2-2.21-2-1.8-5.13.66-6.16A4.17,4.17,0,0,1,38,91.38Z"/><path class="cls-57" d="M33.35,98c-2.72.41-1-1.78-4.19-3.11C32.57,95.36,31.3,97.6,33.35,98Z"/><path class="cls-57" d="M41.54,86.5c-2.34-1.9-2.46,1.42-5.79-.92C39.08,86.88,39.17,83.62,41.54,86.5Z"/><rect class="cls-46" x="38.51" y="90.68" width="1.89" height="4.79" rx="0.39" transform="translate(-43.14 34.78) rotate(-31.81)"/><rect class="cls-46" x="38.21" y="89.3" width="0.77" height="4.79" rx="0.16" transform="translate(-42.54 34.12) rotate(-31.82)"/><path class="cls-48" d="M38.52,90.83l.14-.08a.39.39,0,0,1,.54.12l2.11,3.41a.39.39,0,0,1-.13.54l-.47.29-.85-1.38L38.19,91l-.86-1.38.19-.12a.16.16,0,0,1,.23,0Z"/><path class="cls-49" d="M37,89.8l.56-.36a.14.14,0,0,1,.17,0l.13.22a.11.11,0,0,1,0,.16l-.57.36a.13.13,0,0,1-.17,0L37,90A.11.11,0,0,1,37,89.8Z"/><path class="cls-50" d="M37.31,89.62l.28-.18a.14.14,0,0,1,.17,0l.13.22a.13.13,0,0,1,0,.17l-.29.17Z"/><rect class="cls-46" x="35.91" y="97.71" width="4.79" height="1.89" rx="0.39" transform="translate(-47.97 37.36) rotate(-33.39)"/><rect class="cls-46" x="34.55" y="99.16" width="4.79" height="0.77" rx="0.16" transform="translate(-48.74 36.83) rotate(-33.44)"/><path class="cls-48" d="M36.09,99.65,36,99.51a.39.39,0,0,1,.11-.54l3.34-2.21a.39.39,0,0,1,.55.12l.3.46L39,98.23,36.3,100l-1.35.9-.13-.19a.15.15,0,0,1,0-.22Z"/><path class="cls-49" d="M35.09,101.17l-.36-.56a.11.11,0,0,1,0-.16l.22-.15a.12.12,0,0,1,.16,0l.37.56a.11.11,0,0,1,0,.16l-.22.14A.13.13,0,0,1,35.09,101.17Z"/><path class="cls-50" d="M34.91,100.89l-.18-.28a.11.11,0,0,1,0-.16l.22-.15a.12.12,0,0,1,.16,0l.19.28Z"/><path class="cls-51" d="M41.73,89.4a2.94,2.94,0,0,1,3.11-3.26c.14-1.68,3.3-2.12,4.65-1.28L40,103.44c-1.46-.61-3-3.43-1.66-4.52a2.94,2.94,0,0,1,.83-4.43A3.53,3.53,0,0,1,41.73,89.4Z"/><rect class="cls-46" x="35.86" y="103.72" width="4.79" height="1.89" rx="0.39" transform="translate(-72.33 90.92) rotate(-62.83)"/><rect class="cls-46" x="35.12" y="105.72" width="4.79" height="0.77" rx="0.16" transform="matrix(0.46, -0.89, 0.89, 0.46, -74.02, 91.04)"/><path class="cls-48" d="M36.82,106.62l-.15-.07a.41.41,0,0,1-.17-.53l1.83-3.57a.4.4,0,0,1,.53-.17l.49.25L38.61,104l-1.44,2.82-.75,1.44-.2-.1a.17.17,0,0,1-.07-.22Z"/><rect class="cls-61" x="36.27" y="107.61" width="0.5" height="0.91" rx="0.12" transform="translate(-76.29 91.21) rotate(-62.83)"/><path class="cls-50" d="M36.4,108.28l-.29-.15a.12.12,0,0,1,0-.16l.11-.23a.12.12,0,0,1,.16,0l.3.15Z"/><path class="cls-37" d="M34,167.68l-22-.25,21.86-2.35S34.7,166.66,34,167.68Z"/><polygon class="cls-37" points="18.36 167.05 15.23 165.33 20.01 166.98 18.36 167.05"/><polygon class="cls-37" points="22.41 166.88 18.73 165.18 24.01 166.81 22.41 166.88"/><polygon class="cls-37" points="20.02 167.19 16.95 169.18 21.67 167.12 20.02 167.19"/><path class="cls-37" d="M36.08,110.28,18.13,97.61l19.33,10.47S37.2,109.82,36.08,110.28Z"/><polygon class="cls-37" points="23.53 100.87 21.93 97.67 24.93 101.75 23.53 100.87"/><polygon class="cls-37" points="26.96 103.03 24.9 99.53 28.32 103.88 26.96 103.03"/><polygon class="cls-37" points="24.82 101.93 21.16 101.83 26.21 102.81 24.82 101.93"/><path class="cls-37" d="M31.29,154l-15-3,15.33.5A3.87,3.87,0,0,1,31.29,154Z"/><polygon class="cls-37" points="20.64 151.47 18.74 149.46 21.78 151.6 20.64 151.47"/><polygon class="cls-37" points="23.44 151.81 21.16 149.75 24.55 151.94 23.44 151.81"/><polygon class="cls-37" points="21.76 151.8 19.36 153.3 22.9 151.94 21.76 151.8"/><path class="cls-24" d="M264.86,99.1S264,117,262.38,116.8L264,99Z"/><path class="cls-25" d="M263.2,99s-2.46,17.7-.82,17.85L264,99Z"/><path class="cls-24" d="M263.16,99s-14.78-10-13.79-11.37l14.29,10.7Z"/><path class="cls-25" d="M264.16,97.62s-13.8-11.36-14.79-10l14.29,10.7Z"/><path class="cls-24" d="M263.5,98.39s13.21-12,14.26-10.77L264,99Z"/><path class="cls-25" d="M264.56,99.67s14.26-10.78,13.2-12L264,99Z"/><path class="cls-24" d="M235,106.88s26.42-8.21,27.67-8.45a3.32,3.32,0,0,1,1.92.08l-28.87,10.36Z"/><path class="cls-26" d="M236.42,110.87S262,100.41,263.15,99.8a3.28,3.28,0,0,0,1.43-1.29l-28.87,10.36Z"/><path class="cls-26" d="M264.46,100.31a1.65,1.65,0,1,1,1-2.11A1.66,1.66,0,0,1,264.46,100.31Z"/><path class="cls-7" d="M264.19,99.56A.87.87,0,0,1,263.1,99a.84.84,0,0,1,.51-1.08.85.85,0,1,1,.58,1.6Z"/><path class="cls-36" d="M265.59,137.26c.71-.09,22.39-11.69,22.39-11.69s-23.77-6.33-24.48-6.24-6.33,7.58-8,9.75l-.5,0,.28.24-.22.29.5-.06C257.68,131.33,265,137.33,265.59,137.26Z"/><path class="cls-37" d="M240.94,128.89l39.14-2.41-38.6,7S239.89,130.78,240.94,128.89Z"/><polygon class="cls-37" points="268.92 127.97 274.71 130.64 265.99 128.31 268.92 127.97"/><polygon class="cls-37" points="261.73 128.81 268.5 131.36 258.89 129.14 261.73 128.81"/><polygon class="cls-37" points="265.94 127.94 271.15 123.99 263.01 128.28 265.94 127.94"/><path class="cls-36" d="M262.58,157.07c.6,0,20.36-6.45,20.36-6.45s-18.87-8.75-19.47-8.78-6.39,5.38-8.08,6.95l-.42,0,.2.24-.23.21.43,0C256.86,151,262.06,157,262.58,157.07Z"/><path class="cls-37" d="M243.28,146.5l32.94,3.73-33.17.18S242.12,147.92,243.28,146.5Z"/><polygon class="cls-37" points="266.71 149.83 271.15 152.9 264.22 149.68 266.71 149.83"/><polygon class="cls-37" points="260.6 149.47 265.87 152.59 258.19 149.33 260.6 149.47"/><polygon class="cls-37" points="264.24 149.37 269.15 146.84 261.75 149.22 264.24 149.37"/><path class="cls-36" d="M254.43,173c.46.14,16.63-1.31,16.63-1.31s-12.8-10-13.26-10.12-5.81,3-7.37,3.86l-.32-.1.11.22-.21.12.32.09C251.16,167.4,254.05,172.93,254.43,173Z"/><path class="cls-37" d="M241.62,161.59l24.4,8.66-25.27-5.73S240.49,162.46,241.62,161.59Z"/><polygon class="cls-37" points="258.86 168.26 261.69 171.38 256.99 167.71 258.86 168.26"/><polygon class="cls-37" points="254.27 166.91 257.73 170.22 252.46 166.38 254.27 166.91"/><polygon class="cls-37" points="257.06 167.47 261.25 166.43 255.19 166.92 257.06 167.47"/><path class="cls-36" d="M237.78,213.49c-3.48-3.09-4-8.18-1.2-11.36s7.93-3.25,11.41-.16,4,8.17,1.21,11.35S241.27,216.58,237.78,213.49Z"/><path class="cls-37" d="M230.36,194.8,246.75,211l-18.19-14.16S229.12,195.08,230.36,194.8Z"/><polygon class="cls-37" points="241.73 206.7 242.83 210.28 240.43 205.55 241.73 206.7"/><polygon class="cls-37" points="238.54 203.88 240.08 207.84 237.29 202.76 238.54 203.88"/><polygon class="cls-37" points="240.58 205.38 244.34 206.12 239.28 204.23 240.58 205.38"/><path class="cls-38" d="M245.81,204.47a.65.65,0,0,1-.06-.91.66.66,0,0,1,.92-.06.65.65,0,0,1-.86,1Z"/><path class="cls-38" d="M247.6,209.07a.65.65,0,0,1-.06-.91.66.66,0,0,1,.92,0,.65.65,0,0,1,0,.91A.64.64,0,0,1,247.6,209.07Z"/><path class="cls-38" d="M240.36,211.59a.64.64,0,1,1,.85-1,.64.64,0,1,1-.85,1Z"/><path class="cls-38" d="M236.72,207.51a.65.65,0,0,1-.05-.91.64.64,0,0,1,.91,0,.65.65,0,0,1,.06.91A.66.66,0,0,1,236.72,207.51Z"/><path class="cls-38" d="M245.44,213.46a.65.65,0,1,1,.91-.06A.65.65,0,0,1,245.44,213.46Z"/><path class="cls-38" d="M241.22,203.42a.65.65,0,0,1-.06-.91.64.64,0,0,1,.91-.06.64.64,0,0,1-.85,1Z"/><path class="cls-27" d="M234.41,102.6h0a.09.09,0,0,1,.05-.11l9.73-3a.08.08,0,0,1,.1.06h0a.08.08,0,0,1,0,.1l-9.73,3A.09.09,0,0,1,234.41,102.6Z"/><path class="cls-28" d="M244.12,99.57s2.08-.42,2,.2S244.12,99.57,244.12,99.57Z"/><path class="cls-28" d="M244.12,99.57s1.77,1.18,1.29,1.57S244.12,99.57,244.12,99.57Z"/><path class="cls-28" d="M244.12,99.57s.42,2.08-.2,2S244.12,99.57,244.12,99.57Z"/><path class="cls-28" d="M244.12,99.57s-1.18,1.77-1.57,1.29S244.12,99.57,244.12,99.57Z"/><path class="cls-28" d="M244.12,99.57s-2.08.42-2-.2S244.12,99.57,244.12,99.57Z"/><path class="cls-28" d="M244.12,99.57s-1.77-1.17-1.29-1.57S244.12,99.57,244.12,99.57Z"/><path class="cls-28" d="M244.12,99.57s-.42-2.08.2-2S244.12,99.57,244.12,99.57Z"/><path class="cls-28" d="M244.12,99.57s1.18-1.76,1.57-1.28S244.12,99.57,244.12,99.57Z"/><path class="cls-29" d="M244.12,99.57s2.09-1.43,2.32-.72S244.12,99.57,244.12,99.57Z"/><path class="cls-29" d="M244.12,99.57s2.49.47,2.15,1.13S244.12,99.57,244.12,99.57Z"/><path class="cls-29" d="M244.12,99.57s1.43,2.1.72,2.32S244.12,99.57,244.12,99.57Z"/><path class="cls-29" d="M244.12,99.57s-.47,2.5-1.13,2.15S244.12,99.57,244.12,99.57Z"/><path class="cls-29" d="M244.12,99.57s-2.1,1.43-2.32.72S244.12,99.57,244.12,99.57Z"/><path class="cls-29" d="M244.12,99.57s-2.49-.47-2.15-1.13S244.12,99.57,244.12,99.57Z"/><path class="cls-29" d="M244.12,99.57s-1.43-2.09-.72-2.31S244.12,99.57,244.12,99.57Z"/><path class="cls-29" d="M244.12,99.57s.47-2.49,1.13-2.15S244.12,99.57,244.12,99.57Z"/><path class="cls-30" d="M244.22,99.89a.35.35,0,0,1-.42-.22.34.34,0,0,1,.64-.2A.35.35,0,0,1,244.22,99.89Z"/><path class="cls-27" d="M239.37,101.14s1.08-.32,1.6,1.14A1.44,1.44,0,0,1,239.37,101.14Z"/><path class="cls-27" d="M240.46,100.59s1.07-.34.66-1.85A1.45,1.45,0,0,0,240.46,100.59Z"/><path class="cls-27" d="M238.17,101.31s1.07-.35.66-1.85A1.44,1.44,0,0,0,238.17,101.31Z"/><path class="cls-27" d="M230.38,95.15h0a.08.08,0,0,1,0-.11l8.65-5.39a.1.1,0,0,1,.12,0h0a.09.09,0,0,1,0,.11l-8.65,5.38A.09.09,0,0,1,230.38,95.15Z"/><path class="cls-28" d="M239,89.78s1.91-.93,2-.32S239,89.78,239,89.78Z"/><path class="cls-28" d="M239,89.78s2,.69,1.64,1.19S239,89.78,239,89.78Z"/><path class="cls-28" d="M239,89.78s.92,1.9.31,2S239,89.78,239,89.78Z"/><path class="cls-28" d="M239,89.78s-.7,2-1.2,1.63S239,89.78,239,89.78Z"/><path class="cls-28" d="M239,89.78s-1.91.92-2,.31S239,89.78,239,89.78Z"/><path class="cls-28" d="M239,89.78s-2-.7-1.64-1.2S239,89.78,239,89.78Z"/><path class="cls-28" d="M239,89.78s-.93-1.91-.32-2S239,89.78,239,89.78Z"/><path class="cls-28" d="M239,89.78s.69-2,1.19-1.64S239,89.78,239,89.78Z"/><path class="cls-29" d="M239,89.78s1.66-1.92,2.06-1.29S239,89.78,239,89.78Z"/><path class="cls-29" d="M239,89.78s2.53-.18,2.36.55S239,89.78,239,89.78Z"/><path class="cls-29" d="M239,89.78s1.91,1.66,1.28,2.06S239,89.78,239,89.78Z"/><path class="cls-29" d="M239,89.78s.17,2.53-.55,2.36S239,89.78,239,89.78Z"/><path class="cls-29" d="M239,89.78s-1.67,1.91-2.06,1.28S239,89.78,239,89.78Z"/><path class="cls-29" d="M239,89.78s-2.53.17-2.37-.55S239,89.78,239,89.78Z"/><path class="cls-29" d="M239,89.78s-1.92-1.67-1.28-2.06S239,89.78,239,89.78Z"/><path class="cls-29" d="M239,89.78s-.18-2.54.55-2.37S239,89.78,239,89.78Z"/><path class="cls-30" d="M239.19,90.06a.33.33,0,0,1-.35-.56.33.33,0,1,1,.35.56Z"/><path class="cls-27" d="M234.82,92.49s1-.59,1.83.7A1.44,1.44,0,0,1,234.82,92.49Z"/><path class="cls-27" d="M235.73,91.68s1-.6.18-2A1.44,1.44,0,0,0,235.73,91.68Z"/><path class="cls-27" d="M233.69,93s.95-.6.18-2A1.44,1.44,0,0,0,233.69,93Z"/><path class="cls-27" d="M148.11,249.81h0a.07.07,0,0,1,.08.07l1.13,9.85a.09.09,0,0,1-.07.09h0s-.08,0-.09-.07L148,249.89A.08.08,0,0,1,148.11,249.81Z"/><path class="cls-28" d="M149.23,259.65s0,2.07-.56,1.89S149.23,259.65,149.23,259.65Z"/><path class="cls-28" d="M149.23,259.65s-1.44,1.47-1.73.94S149.23,259.65,149.23,259.65Z"/><path class="cls-28" d="M149.23,259.65s-2.06,0-1.89-.56S149.23,259.65,149.23,259.65Z"/><path class="cls-28" d="M149.23,259.65s-1.47-1.45-.94-1.74S149.23,259.65,149.23,259.65Z"/><path class="cls-28" d="M149.23,259.65s0-2.07.57-1.9S149.23,259.65,149.23,259.65Z"/><path class="cls-28" d="M149.23,259.65s1.45-1.48,1.74-.94S149.23,259.65,149.23,259.65Z"/><path class="cls-28" d="M149.23,259.65s2.07,0,1.9.56S149.23,259.65,149.23,259.65Z"/><path class="cls-28" d="M149.23,259.65s1.48,1.45,1,1.74S149.23,259.65,149.23,259.65Z"/><path class="cls-29" d="M149.23,259.65s1,2.26.27,2.35S149.23,259.65,149.23,259.65Z"/><path class="cls-29" d="M149.23,259.65s-.9,2.3-1.47,1.85S149.23,259.65,149.23,259.65Z"/><path class="cls-29" d="M149.23,259.65s-2.26,1-2.34.27S149.23,259.65,149.23,259.65Z"/><path class="cls-29" d="M149.23,259.65s-2.3-.91-1.85-1.47S149.23,259.65,149.23,259.65Z"/><path class="cls-29" d="M149.23,259.65s-1-2.27-.26-2.35S149.23,259.65,149.23,259.65Z"/><path class="cls-29" d="M149.23,259.65s.91-2.3,1.47-1.85S149.23,259.65,149.23,259.65Z"/><path class="cls-29" d="M149.23,259.65s2.27-1,2.35-.27S149.23,259.65,149.23,259.65Z"/><path class="cls-29" d="M149.23,259.65s2.3.9,1.85,1.47S149.23,259.65,149.23,259.65Z"/><path class="cls-30" d="M148.91,259.69a.33.33,0,0,1,.29-.36.32.32,0,0,1,.35.28.32.32,0,0,1-.28.36A.33.33,0,0,1,148.91,259.69Z"/><path class="cls-27" d="M148.6,254.82s.11,1.09-1.38,1.32C147.22,256.14,147.34,254.78,148.6,254.82Z"/><path class="cls-27" d="M148.93,256s.13,1.09,1.64,1A1.41,1.41,0,0,0,148.93,256Z"/><path class="cls-27" d="M148.66,253.64s.14,1.09,1.65,1A1.41,1.41,0,0,0,148.66,253.64Z"/><path class="cls-27" d="M159.07,248h0a.08.08,0,0,1,.09.06l1.75,9.77a.1.1,0,0,1-.07.09h0a.08.08,0,0,1-.1-.06L159,248.1A.08.08,0,0,1,159.07,248Z"/><path class="cls-28" d="M160.82,257.76s.15,2.06-.44,1.93S160.82,257.76,160.82,257.76Z"/><path class="cls-28" d="M160.82,257.76s-1.35,1.56-1.68,1.05S160.82,257.76,160.82,257.76Z"/><path class="cls-28" d="M160.82,257.76s-2.06.15-1.93-.44S160.82,257.76,160.82,257.76Z"/><path class="cls-28" d="M160.82,257.76s-1.56-1.35-1-1.67S160.82,257.76,160.82,257.76Z"/><path class="cls-28" d="M160.82,257.76s-.15-2.06.44-1.93S160.82,257.76,160.82,257.76Z"/><path class="cls-28" d="M160.82,257.76s1.35-1.56,1.67-1.05S160.82,257.76,160.82,257.76Z"/><path class="cls-28" d="M160.82,257.76s2.06-.15,1.92.44S160.82,257.76,160.82,257.76Z"/><path class="cls-28" d="M160.82,257.76s1.56,1.35,1.05,1.67S160.82,257.76,160.82,257.76Z"/><path class="cls-29" d="M160.82,257.76s1.13,2.2.41,2.32S160.82,257.76,160.82,257.76Z"/><path class="cls-29" d="M160.82,257.76s-.76,2.35-1.35,1.94S160.82,257.76,160.82,257.76Z"/><path class="cls-29" d="M160.82,257.76s-2.2,1.13-2.33.41S160.82,257.76,160.82,257.76Z"/><path class="cls-29" d="M160.82,257.76s-2.35-.76-1.94-1.35S160.82,257.76,160.82,257.76Z"/><path class="cls-29" d="M160.82,257.76s-1.13-2.2-.42-2.33S160.82,257.76,160.82,257.76Z"/><path class="cls-29" d="M160.82,257.76s.76-2.35,1.35-1.94S160.82,257.76,160.82,257.76Z"/><path class="cls-29" d="M160.82,257.76s2.2-1.13,2.32-.42S160.82,257.76,160.82,257.76Z"/><path class="cls-29" d="M160.82,257.76s2.35.76,1.94,1.35S160.82,257.76,160.82,257.76Z"/><path class="cls-30" d="M160.5,257.82a.33.33,0,0,1,.26-.38.32.32,0,0,1,.11.64A.32.32,0,0,1,160.5,257.82Z"/><path class="cls-27" d="M159.88,253s.18,1.08-1.3,1.41C158.58,254.39,158.62,253,159.88,253Z"/><path class="cls-27" d="M160.28,254.1s.2,1.08,1.7.87A1.4,1.4,0,0,0,160.28,254.1Z"/><path class="cls-27" d="M159.87,251.8s.2,1.07,1.7.86A1.4,1.4,0,0,0,159.87,251.8Z"/><path class="cls-27" d="M153.06,249h0a.09.09,0,0,1,.09.07l1.74,9.76a.07.07,0,0,1-.06.09h0a.08.08,0,0,1-.09-.06L153,249.05A.08.08,0,0,1,153.06,249Z"/><path class="cls-28" d="M154.8,258.7s.15,2.07-.44,1.93S154.8,258.7,154.8,258.7Z"/><path class="cls-28" d="M154.8,258.7s-1.35,1.57-1.67,1.05S154.8,258.7,154.8,258.7Z"/><path class="cls-28" d="M154.8,258.7s-2.06.15-1.92-.44S154.8,258.7,154.8,258.7Z"/><path class="cls-28" d="M154.8,258.7s-1.56-1.35-1.05-1.67S154.8,258.7,154.8,258.7Z"/><path class="cls-28" d="M154.8,258.7s-.15-2.06.44-1.92S154.8,258.7,154.8,258.7Z"/><path class="cls-28" d="M154.8,258.7s1.35-1.56,1.68-1.05S154.8,258.7,154.8,258.7Z"/><path class="cls-28" d="M154.8,258.7s2.06-.14,1.93.45S154.8,258.7,154.8,258.7Z"/><path class="cls-28" d="M154.8,258.7s1.57,1.36,1,1.68S154.8,258.7,154.8,258.7Z"/><path class="cls-29" d="M154.8,258.7s1.13,2.2.42,2.33S154.8,258.7,154.8,258.7Z"/><path class="cls-29" d="M154.8,258.7s-.75,2.36-1.35,1.94S154.8,258.7,154.8,258.7Z"/><path class="cls-29" d="M154.8,258.7s-2.19,1.13-2.32.42S154.8,258.7,154.8,258.7Z"/><path class="cls-29" d="M154.8,258.7s-2.35-.75-1.93-1.35S154.8,258.7,154.8,258.7Z"/><path class="cls-29" d="M154.8,258.7s-1.12-2.19-.41-2.32S154.8,258.7,154.8,258.7Z"/><path class="cls-29" d="M154.8,258.7s.76-2.35,1.35-1.93S154.8,258.7,154.8,258.7Z"/><path class="cls-29" d="M154.8,258.7s2.2-1.12,2.33-.41S154.8,258.7,154.8,258.7Z"/><path class="cls-29" d="M154.8,258.7s2.36.76,1.94,1.36S154.8,258.7,154.8,258.7Z"/><path class="cls-30" d="M154.49,258.76a.32.32,0,0,1,.63-.11.32.32,0,0,1-.26.37A.31.31,0,0,1,154.49,258.76Z"/><path class="cls-27" d="M153.87,253.93s.18,1.08-1.3,1.4C152.57,255.33,152.61,254,153.87,253.93Z"/><path class="cls-27" d="M154.26,255.05s.21,1.07,1.71.86A1.4,1.4,0,0,0,154.26,255.05Z"/><path class="cls-27" d="M153.85,252.74s.21,1.08,1.71.87A1.42,1.42,0,0,0,153.85,252.74Z"/><path class="cls-24" d="M39.74,237.68S32.48,221.35,34,220.75l6.5,16.63Z"/><path class="cls-25" d="M41.29,237.07S35.56,220.15,34,220.75l6.5,16.63Z"/><path class="cls-24" d="M41.33,237.06s17.71,2.35,17.42,4l-17.57-3.16Z"/><path class="cls-25" d="M41,238.7s17.43,4,17.72,2.34l-17.57-3.16Z"/><path class="cls-24" d="M41.28,237.71s-6.41,16.68-7.93,16l7.17-16.35Z"/><path class="cls-25" d="M39.76,237s-7.92,16-6.41,16.69l7.17-16.35Z"/><path class="cls-24" d="M63,217.34S43,236.52,42,237.3a3.39,3.39,0,0,1-1.76.79l21.17-22.21Z"/><path class="cls-26" d="M59.89,214.42S41.68,235.25,41,236.29a3.35,3.35,0,0,0-.71,1.8l21.17-22.21Z"/><path class="cls-26" d="M39.56,236.42a1.65,1.65,0,1,1,0,2.34A1.65,1.65,0,0,1,39.56,236.42Z"/><path class="cls-7" d="M40.14,237a.84.84,0,0,1,1.2,0,.85.85,0,1,1-1.17,1.22A.84.84,0,0,1,40.14,237Z"/><path class="cls-24" d="M64.77,259.15s-14.79,10-15.65,8.63l15.22-9.34Z"/><path class="cls-25" d="M63.9,257.73s-15.65,8.64-14.78,10l15.22-9.34Z"/><path class="cls-24" d="M63.88,257.7s-.82-17.85.84-17.85V257.7Z"/><path class="cls-25" d="M65.54,257.7s.83-17.85-.82-17.85V257.7Z"/><path class="cls-24" d="M64.53,257.63s17.55,3.36,17.17,5l-17.36-4.16Z"/><path class="cls-25" d="M64.14,259.25s17.17,5,17.56,3.35l-17.36-4.16Z"/><path class="cls-24" d="M82,233.88s-15.28,23.06-16.1,24a3.36,3.36,0,0,1-1.54,1.16l15.83-26.28Z"/><path class="cls-26" d="M78.34,231.7S65.09,256,64.61,257.16a3.41,3.41,0,0,0-.29,1.91l15.83-26.28Z"/><path class="cls-26" d="M63.28,257.59a1.65,1.65,0,1,1,.56,2.27A1.64,1.64,0,0,1,63.28,257.59Z"/><path class="cls-7" d="M64,258a.86.86,0,0,1,1.17-.29.85.85,0,0,1,.29,1.16.86.86,0,0,1-1.17.29A.85.85,0,0,1,64,258Z"/><path class="cls-39" d="M39.45,180.29S26,198,26.27,200s9.28,2.93,9.06,4.13-2,2.49-.69,3.47,20.56,4.82,20.56,4.82Z"/><path class="cls-40" d="M32.51,192.19c.07,2-1.4,3.77,1.05,2.62s1.75.32,1.28,1.05-1.79,2.29.82,2.24.41,1.42-.64,1.89-.9,1.74,2.14,2.2,2.9,1.42,1.3,1.75-2.21,1.14-.11,1.95,3.29,1.82,1.69,1.93-2,.87-1.18,1.07a20.79,20.79,0,0,1-4.22-1.28c-1.35-1,.47-2.27.69-3.47S26.52,202,26.27,200c-.09-.75,1.69-3.64,4-7C30.27,193,32.44,190.22,32.51,192.19Z"/><path class="cls-39" d="M43.61,190.56c2.77,6.07,1,11.67-5.65,11.11-4.46-.37-11.37.35-11.94-.24-1.4-1.48,3.62-9,2.56-9.62s-3.22,0-3.13-1.67,9.31-18.95,9.31-18.95Z"/><path class="cls-40" d="M39.62,203.12c0-2-7.39-2.87-5-4s.86-1.56,0-1.65-2.9-.07-1.21-2.06-.84-1.22-1.86-.7-1.92-.41-.35-3.05.74-3.14-.53-2.12-2.28,1-1.57-1.15.68-3.7-.42-2.53-2,1-1.58.23a21,21,0,0,0-1.69,4.08c-.09,1.67,2.06,1.07,3.13,1.67s-4,8.14-2.56,9.62c.52.54,3.89,1,7.92,1.36C34,202.79,39.59,204.85,39.62,203.12Z"/><circle class="cls-62" cx="137.33" cy="144.08" r="106.73" transform="translate(-61.66 139.31) rotate(-45)"/><path class="cls-63" d="M208.41,66.11a1.87,1.87,0,0,1-1.62.82,13.86,13.86,0,0,0-2.4.33,1.63,1.63,0,0,1-1.53-.31A2.88,2.88,0,0,0,200,66.7a.66.66,0,0,0-.53.74c0,.27,0,.56-.25.72a2.77,2.77,0,0,0-.82,1,1.57,1.57,0,0,1-1.44.76c-.39,0-.79,0-1.17,0a2.61,2.61,0,0,0-1.63.44,5.85,5.85,0,0,1-4.07.69,3.5,3.5,0,0,0-2.3.2,9.39,9.39,0,0,1-2.63.89,2.07,2.07,0,0,1-1.94-.39,1.54,1.54,0,0,0-2.05.09l-.71.56c-.14.12-.32.25-.49.17-.78-.36-1.67-.27-2.43-.63a22,22,0,0,0-4.5-1.29,15.08,15.08,0,0,1-2.12-.71A8.39,8.39,0,0,0,168.7,69a22.92,22.92,0,0,0-3.2-.22h-2.3c-.27,0-.58-.05-.78.15-.67.72-1.6.59-2.43.75-.24,0-.48,0-.69.16a21.82,21.82,0,0,0-3.5,3.08,3.46,3.46,0,0,1-.39.37,10.94,10.94,0,0,0-2.08,2.11,3.59,3.59,0,0,1-.84.81,8.35,8.35,0,0,1-2.13,1.17c-.67.22-1.12.81-1.78,1-1.47.54-1.41.5-1.32,2.29a5.91,5.91,0,0,0,.31,1.22c.07.26.16.52.21.79A1.44,1.44,0,0,0,149.17,84a2.44,2.44,0,0,0,1.69-.49c.22-.17.42-.35.64-.51a.65.65,0,0,1,.89,0,11.19,11.19,0,0,1,2,2.23c.28.34.16.67-.21.91a8.14,8.14,0,0,0-.75.5.52.52,0,0,0-.12.58.41.41,0,0,0,.47.34,6.3,6.3,0,0,0,2.42-.64,1.91,1.91,0,0,1,1.16-.43c.45,0,.64-.26.75-.63a5.93,5.93,0,0,0,.36-1.76.79.79,0,0,1,.6-.88,2,2,0,0,0,.56-.29c.93-.67,1-1.31.16-2.08l-.34-.3a1.34,1.34,0,0,1,.23-2.38l.79-.43A3.63,3.63,0,0,0,162.18,76a1.38,1.38,0,0,1,1.27-.88c.39,0,.78,0,1.17,0a.43.43,0,0,1,.39.19c.11.23-.09.32-.22.43A10,10,0,0,1,163,77.23a1.64,1.64,0,0,0-1.06,1.8c.2,1.3.67,2.36,2.07,2.73l.18,0a1.2,1.2,0,0,1,.8,1.18c-.06.66-.31,1-1,1.13a1.49,1.49,0,0,0-1.4,1.39c0,.21-.08.41-.13.62-.27,1.17-.94,1.78-2,1.66a3.92,3.92,0,0,0-.9.08,15.64,15.64,0,0,0-2.93.86c-.27.07-.5.19-.72-.1a1.39,1.39,0,0,0-2.06-.33.92.92,0,0,1-.94,0c-.79-.4-1-.72-.73-1.57a4,4,0,0,0,.1-1.69.54.54,0,0,0-.6-.54,2.08,2.08,0,0,0-1.52,1.25,4.78,4.78,0,0,0-.18,2.12.85.85,0,0,1-.57,1c-.45.19-.87.44-1.32.6a3.25,3.25,0,0,0-1.71,1.27,5.68,5.68,0,0,1-2.11,1.64c-.37.23-.71.41-.87.85-.26.69-1,.65-1.52,1-.28.21-.57,0-.86-.08s-.9-.2-1.14.24a1.55,1.55,0,0,1-1.6.77,3.5,3.5,0,0,0-1.24.2c-.18.06-.34.14-.35.36s.5,1,.85,1c1.22.08,1.83,1,2.44,1.81a1.75,1.75,0,0,1,.25,1.79,3.94,3.94,0,0,0-.22,1c-.11.8-.27.91-1.05.9a3.33,3.33,0,0,1-.63,0c-1.6-.25-3.22-.21-4.83-.34a.77.77,0,0,0-.52.11c-.6.43-1.45.65-1.08,1.73.14.4-.21.88-.08,1.33a2.42,2.42,0,0,1-.15,1.5,11.34,11.34,0,0,1-.6,1.21c-.1.21-.3.48-.1.67.51.49.4,1.1.41,1.69s.24.65.68.65a3.38,3.38,0,0,0,.45,0,2.34,2.34,0,0,1,2,.61,1.57,1.57,0,0,0,1.68.34,2.45,2.45,0,0,1,1.39-.25c1.24.15,2-.65,2.81-1.37.37-.34.53-1,.9-1.41a.46.46,0,0,0,0-.43c-.21-.4,0-.68.23-1s.49-.62.69-1a1.25,1.25,0,0,1,1-.68,3.3,3.3,0,0,0,1.56-1c.33-.3.2-.74.22-1.12a1.08,1.08,0,0,1,1.28-1.06,12.36,12.36,0,0,1,1.32.27c.29.06.62.26.87.09.6-.4,1.27-.64,1.87-1s.81-.52,1.46,0a1.89,1.89,0,0,1,.54.71,3.73,3.73,0,0,0,1,1.27,10.35,10.35,0,0,0,2.91,1.94,5.32,5.32,0,0,1,1.89,1.64,1,1,0,0,1-.62,1.58,8.06,8.06,0,0,1-2.24.15c-.25,0-.51,0-.6.3s.13.45.34.57c.65.37,1.36.65,2,1a.5.5,0,0,0,.81-.48.94.94,0,0,1,.79-1c.64-.19.76-.79,1-1.29a1,1,0,0,0-.09-1c-.19-.38,0-.62.46-.6s.48.24.73.35.52,0,.53-.36a1,1,0,0,0-.52-.8c-.64-.45-1.31-.85-1.95-1.3a3.09,3.09,0,0,0-.94-.48,2.2,2.2,0,0,1-1.53-1.15,2.69,2.69,0,0,0-.92-1.18,1.52,1.52,0,0,1-.36-.4,1,1,0,0,1,.09-1.18.73.73,0,0,1,1-.12,6.58,6.58,0,0,1,1.68,1.48,2,2,0,0,0,1.3.9,1.74,1.74,0,0,1,.92.53,2.18,2.18,0,0,0,.64.49,2.66,2.66,0,0,1,1.46,2.51c0,.27-.06.56.14.78.68.81,1,1.87,1.77,2.6a1.22,1.22,0,0,1,.4.88c0,.9.63,1.08,1.3,1.23s.69,0,.88-.49c.41-1.12.85-2.24.28-3.44a.36.36,0,0,1,0-.18c-.06-.53.45-1.36.88-1.42a1.42,1.42,0,0,1,1.62,1.17,7.94,7.94,0,0,1,0,1.09,3.41,3.41,0,0,0,.61,2,1.74,1.74,0,0,0,1.54.94,3.61,3.61,0,0,1,1.63.47c.43.2.79.29,1.16,0a.76.76,0,0,1,.83-.13,7,7,0,0,1,1.26.44,1.66,1.66,0,0,0,1.79-.07,2,2,0,0,1,.65-.31,1.06,1.06,0,0,1,1.33.77,4.34,4.34,0,0,1,0,2.06,11.38,11.38,0,0,0-.59,1.88,6.34,6.34,0,0,1-.48,1.55,2.42,2.42,0,0,0-.13,1.83,21.81,21.81,0,0,0,.9,2.24,14.54,14.54,0,0,0,2,3.5,4.94,4.94,0,0,1,.89,1.56,1.42,1.42,0,0,0,.58.78,4.27,4.27,0,0,1,1.23,1.53,6.64,6.64,0,0,1,.53,1.9,2.65,2.65,0,0,0,1.35,2,1.8,1.8,0,0,1,.6.53,15.86,15.86,0,0,1,2,3.68c.49,1.43,1.26,2.72,1.77,4.12a2.07,2.07,0,0,0,1.12,1.13c.48.21.8-.11,1.15-.32a2.67,2.67,0,0,1,.26-.09,30.58,30.58,0,0,0,4.78-2.05,3.13,3.13,0,0,1,.95-.27,2.18,2.18,0,0,0,1.58-1.08,2.15,2.15,0,0,1,.9-.87,24.49,24.49,0,0,0,3-1.63c1.07-.74,2.19-1.37,2.47-2.79a2.43,2.43,0,0,1,.41-.8,7.6,7.6,0,0,0,1.12-2.15.84.84,0,0,0-.08-.85c-.34-.42-.66-.86-1-1.27a1.08,1.08,0,0,0-1-.49,1,1,0,0,1-1.1-.61c-.13-.21-.29-.39-.43-.59-.74-1.11-1.54-1.16-2.33-.12a1.66,1.66,0,0,1-.91.7,5.76,5.76,0,0,1-2.15,0c-.26,0-.45-.19-.37-.5.36-1.45-.45-2.25-1.6-2.86a5,5,0,0,1-2.49-2.82,1,1,0,0,1,1.1-1.28c1.06.15,1.47,1,1.78,1.82.15.4.22.88.62,1,1.07.46,1.91,1.32,3.1,1.63a2.54,2.54,0,0,0,1.72,0c.22-.1.45-.16.66-.28.45-.24.6-.18.85.28a3.69,3.69,0,0,1,.17.42,1.23,1.23,0,0,0,1.09.93c.77.12,1.53.33,2.3.46a11.73,11.73,0,0,0,4.83.07,6.87,6.87,0,0,1,1.7-.18,1.31,1.31,0,0,1,1.08.53,8.12,8.12,0,0,0,1.79,1.77,2.25,2.25,0,0,1,1,1.34,1.67,1.67,0,0,0,.81,1,3,3,0,0,1,.91.85,1,1,0,0,0,1.33.42,2.24,2.24,0,0,1,.34-.11.9.9,0,0,1,1.18.77c0,.59.31,1.11.33,1.67a16.28,16.28,0,0,0,1.4,4.64,3.28,3.28,0,0,0,.52,1,4.48,4.48,0,0,1,.74,1.44c.16.49.31,1,.51,1.45.65,1.48,1.47,2.89,2,4.44a1.85,1.85,0,0,0,.44.68c.52.56.91.58,1.45.06.18-.16.33-.36.51-.51,1-.83,1.82-1.71,1.62-3.14,0-.11,0-.23.06-.35.11-1.4.6-2.77.13-4.19a1.11,1.11,0,0,1,.38-1.15c.7-.62,1.3-1.34,2-1.95s1.3-1.56,2-2.3a4.81,4.81,0,0,1,1.18-1.07c.64-.37,1.31-.79,1.29-1.7a.66.66,0,0,1,.33-.51,2.3,2.3,0,0,1,1.48-.59,7.37,7.37,0,0,0,1.48-.24,106.46,106.46,0,0,0-33.47-64.77,2.7,2.7,0,0,1-.41,0A1,1,0,0,0,208.41,66.11Z"/><path class="cls-63" d="M199,143.35a8,8,0,0,1-2.33.62c-1.28.33-2.49.85-3.8,1.06a1.71,1.71,0,0,1-2.09-1.34,2.54,2.54,0,0,0-.85-1.72,18.24,18.24,0,0,1-1.31-1.48,2.16,2.16,0,0,0-1.16-.91,2.39,2.39,0,0,1-1.78-2.32,3.12,3.12,0,0,0-.87-1.95,5.3,5.3,0,0,1-1.53-3.26,4.28,4.28,0,0,0-1-2.46,8,8,0,0,1-1.71-2.72c-.14-.4-.37-.77-.51-1.15-.37-1.07-1.34-1.87-1.2-3.2a9.47,9.47,0,0,0-.52-2.36,3.45,3.45,0,0,0-2.09-2.32,1.9,1.9,0,0,0-2.19.31,1.13,1.13,0,0,1-1.34.12,4.66,4.66,0,0,0-1.12-.32,16.37,16.37,0,0,1-3.47-.94,6.72,6.72,0,0,1-1.51-.72,2,2,0,0,0-1.73-.28,4.2,4.2,0,0,1-.7.17c-.59,0-.85.52-1.18.9s-.12.66,0,1c.19.57-.1.93-.7,1a1.24,1.24,0,0,1-.9-.35,3,3,0,0,0-2-.76,1.07,1.07,0,0,1-1.15-.81,1.62,1.62,0,0,0-1.57-1.14,3.65,3.65,0,0,0-1,0,3.29,3.29,0,0,1-2.13-.63,1.27,1.27,0,0,1-.45-1.83,1.53,1.53,0,0,0,.21-.86,5.81,5.81,0,0,1,.05-1.44.84.84,0,0,0-.67-1,2.4,2.4,0,0,0-1.43.06,2.45,2.45,0,0,1-1.13.16c-.86,0-1.75-.23-2.55.33a.57.57,0,0,1-.6,0,2.54,2.54,0,0,0-1.59-.07,12.73,12.73,0,0,1-3,.44,1.64,1.64,0,0,0-1.33.66,1.31,1.31,0,0,1-.57.41,11.5,11.5,0,0,1-3.33.7,1.92,1.92,0,0,1-1.61-.36.88.88,0,0,0-1.3.36,5.09,5.09,0,0,0-.55.92,2.2,2.2,0,0,1-1.15,1.19,5.15,5.15,0,0,0-2.61,3.14,6.15,6.15,0,0,1-1.18,2.32,4.48,4.48,0,0,1-2.21,1.88,1.16,1.16,0,0,0-.76.72c-.19.43-.4,1-.77,1.18A2.31,2.31,0,0,0,123.8,126a2.76,2.76,0,0,1-.29.66c-.57,1-1.28,1.93-1.79,3a3.8,3.8,0,0,0-.27,3.25,5.06,5.06,0,0,1,.38,3.65,3.36,3.36,0,0,0-.11.62,1.93,1.93,0,0,1-.62,1.17,2.41,2.41,0,0,0-.76,1.86,6.56,6.56,0,0,0,1.33,3.66c.23.34.64.43.94.69.52.46.85,1.09,1.36,1.56a2.38,2.38,0,0,1,.73,1.11,6.76,6.76,0,0,0,3.06,4,19.35,19.35,0,0,1,2.47,1.81,2,2,0,0,0,2.56.34,3.46,3.46,0,0,1,.75-.3,4.81,4.81,0,0,1,3-.24,2.89,2.89,0,0,0,2.19.15c1-.42,2-.78,2.89-1.23a6.44,6.44,0,0,1,2.86-.61,2.1,2.1,0,0,1,2.24,1.59c.36,1,.62,1.19,1.74,1a3.5,3.5,0,0,1,2.35.35c.94.53,1.09.87.9,2a7.58,7.58,0,0,0-.37,1.67,5,5,0,0,1-.41,2.2,1,1,0,0,0-.09.87,6,6,0,0,0,.68,1.37c.64.76,1.22,1.56,1.86,2.32a4.08,4.08,0,0,1,1,2.15,3.59,3.59,0,0,0,.58,1.5,2.83,2.83,0,0,1,.5,1.71,6.74,6.74,0,0,0,.64,3.06,2.58,2.58,0,0,1-.55,3.14,2.39,2.39,0,0,0-.71,1.42c-.14.89-.48,1.74-.7,2.6a13.87,13.87,0,0,0-.27,2.59,1.34,1.34,0,0,0,.33.83,9.12,9.12,0,0,1,.92,1.85,7.85,7.85,0,0,0,1.3,2.46,2.64,2.64,0,0,1,.67,2.16,4.1,4.1,0,0,0,.07,1.71,6.24,6.24,0,0,1,.29,1.77,3.87,3.87,0,0,0,.89,2.6,6.91,6.91,0,0,1,2,3.88l0,.09a3.23,3.23,0,0,1,.32,2c-.22.62.32,1.31.43,2.07a.4.4,0,0,0,.17.3,3.27,3.27,0,0,0,1.92.65,14.34,14.34,0,0,0,3.44-.6,1,1,0,0,1,.45-.07,10,10,0,0,0,3.33-.63,5.74,5.74,0,0,0,2.7-1.85,6.25,6.25,0,0,1,.86-.92,4.62,4.62,0,0,0,1.26-1.62,4.73,4.73,0,0,1,1.23-1.65,3.79,3.79,0,0,0,1.19-1.87,5.18,5.18,0,0,0,.28-1,3.08,3.08,0,0,1,1.86-2.47,1.87,1.87,0,0,0,.93-.95,5.17,5.17,0,0,0,.28-3.69,3.37,3.37,0,0,1-.19-.69,2.48,2.48,0,0,1,1-2.61,4.07,4.07,0,0,0,.94-1,2.39,2.39,0,0,1,1-.82,6.65,6.65,0,0,0,2.69-1.93,3.63,3.63,0,0,0,1-2.89,8.55,8.55,0,0,1,.08-2.52,3.33,3.33,0,0,0-.46-2.76,3.19,3.19,0,0,1-.75-2,13.39,13.39,0,0,0-.39-3.57,1.62,1.62,0,0,1,.26-1.38,3.79,3.79,0,0,0,.45-.87,6.9,6.9,0,0,1,2.06-3.11,2.79,2.79,0,0,0,.47-.55c.55-.75,1.06-1.53,1.66-2.25a5.78,5.78,0,0,1,1.83-1.72,8.89,8.89,0,0,0,3.91-4.11c1-1.91,1.85-3.92,2.75-5.88.08-.19.08-.42.14-.61.27-.83-.06-1.68.14-2.51C199.74,143.59,199.24,143.18,199,143.35Z"/><path class="cls-63" d="M36.1,120.8a1.8,1.8,0,0,1,1.71-.16,16.89,16.89,0,0,0,3.27.51c.29,0,.41-.14.56-.35a1.75,1.75,0,0,1,1-.82c.56-.13,1.11-.28,1.67-.37a1.14,1.14,0,0,1,1.33.53.78.78,0,0,0,.95.44c1-.14,1.59.43,1.45,1.46a3.28,3.28,0,0,0,0,1.17,7.59,7.59,0,0,0,1.09,2.65c.41.58.68.67,1.2.18a2.68,2.68,0,0,0,.88-1.91,9.42,9.42,0,0,0-.45-2.75A4,4,0,0,1,52.38,117a22.93,22.93,0,0,1,3.8-2.39,4,4,0,0,0,2-1.51,6.37,6.37,0,0,0,.82-1.57,5.28,5.28,0,0,1,1.23-2.28c.68-.8,1.38-1.58,2.09-2.35a4.48,4.48,0,0,1,2.82-1.6,6,6,0,0,0,1.52-.54.68.68,0,0,0,.5-.76,1.35,1.35,0,0,1,.56-1.17,14.4,14.4,0,0,1,1.77-1,3.38,3.38,0,0,1,2.14-.41.78.78,0,0,1,.81.57c.21.54.62.6,1.07.23.27-.23.51-.51.77-.76s.39-.42.68-.39c.9.09,1.68-.46,2.57-.43a1.91,1.91,0,0,0,.61-.13.57.57,0,0,0,.23-1,.89.89,0,0,0-.56-.26c-.33-.05-.65-.11-1-.18a1.24,1.24,0,0,1-1.08-1.7,2,2,0,0,1,.61-1.09,1.4,1.4,0,0,0,.53-1.52c-.11-.41.12-.56.41-.68a4,4,0,0,1,2.13-.23A5.32,5.32,0,0,0,82,93.74c.47-.15.81.3.6.76a2.69,2.69,0,0,1-.71.93,2.55,2.55,0,0,0-.71,1.23c-.13.36-.09.56.33.63a3.9,3.9,0,0,0,1.7.07,2.12,2.12,0,0,1,1.74.21,4.62,4.62,0,0,0,1.71.54,1,1,0,0,0,1.11-1.37,1.74,1.74,0,0,1,0-1.48c.38-.76.36-.78-.4-1.08s-.78-.56-.74-1.24c0-.91.56-1.7.68-2.6a1.11,1.11,0,0,0-.42-1.25c-.2-.14-.4-.29-.38-.58,0-.51-.31-.69-.7-.79a1.73,1.73,0,0,1-1.31-1.9c0-.55,0-1.09,0-1.63a4,4,0,0,0-.9-2.5c-.46-.55-.61-.58-1.18-.15a25.93,25.93,0,0,1-2.24,1.52A1.26,1.26,0,0,1,78.67,83c-.38-.33-.42-.68-.15-1.32.06-.13.13-.26.19-.4.25-.55.22-.79-.27-1.06a4.35,4.35,0,0,1-1.07-.93,2.13,2.13,0,0,0-1.18-.79,25,25,0,0,0-2.87-.22,1.35,1.35,0,0,0-.92.33,9.61,9.61,0,0,0-1.28,2.08c.12,1.07-.49,1.6-1.4,1.92a.93.93,0,0,0-.25.1c-.47.27-.51.5-.19.93.53.72.54.92.07,1.68a3.93,3.93,0,0,1-1.29,1.24c-.8.51-1.73.67-2.56,1.1-.39.2-.68.41-.65.87.05.74-.47,1.35-.46,2.1,0,.28-.3.5-.57.65l-.72.37c-.61.29-1,.19-1.21-.42a1.48,1.48,0,0,1,0-1.47A12.85,12.85,0,0,1,63,88c.22-.25.11-.47-.17-.56a4.47,4.47,0,0,0-1.5-.27,4.05,4.05,0,0,1-2.74-1.22,4.87,4.87,0,0,0-2.23-1.24,1,1,0,0,1-.79-.85,2.29,2.29,0,0,0-.26-1c-.35-.47-.13-.84.17-1.21a7.66,7.66,0,0,1,1.33-1.08A8.43,8.43,0,0,1,61,78.6a3.52,3.52,0,0,0,1.95-1A2.06,2.06,0,0,1,64.2,77a2.81,2.81,0,0,1,2.17.68.69.69,0,0,0,.9.09l1.36-.71a.83.83,0,0,1,.93,0,1.59,1.59,0,0,0,.93.3.61.61,0,0,0,.58-.35.44.44,0,0,0-.17-.56,1.7,1.7,0,0,1-.59-1c-.19-.72-.07-1,.67-1A2.36,2.36,0,0,0,72.3,74c.67-.49,1.47-.83,1.84-1.66.09-.21.33-.34.5-.52a2.92,2.92,0,0,0,.62-.77,1.18,1.18,0,0,1,1.34-.66,8.71,8.71,0,0,0,1.35,0,1.87,1.87,0,0,1,1.67.71,2.29,2.29,0,0,0,.92.8c.58.3.62.68.13,1.14a5.77,5.77,0,0,1-1.26.87c-.27.13-.59.24-.67.56-.16.56-.6.62-1.06.68a3.51,3.51,0,0,1-1.5-.21,1.52,1.52,0,0,0-1.88,1c-.11.32,0,.53.34.56a8.92,8.92,0,0,0,3,.09.75.75,0,0,1,.85.34,2.35,2.35,0,0,1,.37.72,1.55,1.55,0,0,0,1.11,1.08l1.78.67a1.37,1.37,0,0,0,1.5-.2c.54-.41,1.06-.88,1.65-1.25a1.41,1.41,0,0,0,.49-2c-.14-.26-.28-.53-.4-.8s-.13-.43.09-.57a.51.51,0,0,1,.58.1c.36.25.53.66.83,1a1,1,0,0,0,1.44.09q.6-.47,1.2-1a1,1,0,0,0,.37-1.41,1.43,1.43,0,0,0-.72-.88,2,2,0,0,1-1.32-2.12,1.28,1.28,0,0,0-.57-1.17,4.36,4.36,0,0,0-2-.91,2.09,2.09,0,0,1-1.71-1.44,1.17,1.17,0,0,0-1-.81,10.37,10.37,0,0,0-3.68-.14A23.51,23.51,0,0,1,76,66a16.45,16.45,0,0,0-1.72,0,3.08,3.08,0,0,0-1.64.43c-.57.43-1.15.87-1.7,1.33-.71.6-.77.86-.46,1.73.07.2.19.39.08.6a1.29,1.29,0,0,1-1.06.74c-.45,0-.92,0-1.19-.44a4.46,4.46,0,0,1-.58-1.7c-.07-.55-.48-.9-.89-.78a6.34,6.34,0,0,0-2.09.82c-.66.49-1.36,1-1,2,.19.62,0,.73-.56,1.06a1.47,1.47,0,0,1-1.21,0,3.35,3.35,0,0,0-2,0,3.74,3.74,0,0,1-1.39.24h-.08a106.38,106.38,0,0,0-25.72,50.51,7,7,0,0,1,1.5-.94A10.39,10.39,0,0,0,36.1,120.8Z"/><path class="cls-63" d="M31.76,138.46a1.14,1.14,0,0,1,1.11.17,2.9,2.9,0,0,1,.74.66c1.35,2,3.39,2.65,5.6,3a1.81,1.81,0,0,1,1.24.83,4.76,4.76,0,0,1,.73,1.73,2.27,2.27,0,0,0,1.54,2A2.18,2.18,0,0,1,44.07,148a1.31,1.31,0,0,0,1.15.77,1.92,1.92,0,0,1,1.48.73c.26.33.66.25,1,.16s.37-.37.35-.65a1,1,0,0,1,.18-.68.72.72,0,0,0,.06-.85.76.76,0,0,0-.85-.13,1.94,1.94,0,0,1-1.9-.52c-.18-.16-.35-.33-.54-.48a1.9,1.9,0,0,1-.66-2.27c.42-1.11.31-2.33.9-3.39a2.16,2.16,0,0,0,0-1.16.59.59,0,0,0-.29-.43,3.62,3.62,0,0,0-3-.79,6.63,6.63,0,0,1-1.26,0,.64.64,0,0,1-.65-.51,1.9,1.9,0,0,1,.25-1.79,9.39,9.39,0,0,0,1-1.92c.32-.79.2-1.72.88-2.41.3-.3,0-.71-.5-.81a6,6,0,0,0-3.41.49.79.79,0,0,0-.56.74,5.75,5.75,0,0,1-.58,1.8,1.24,1.24,0,0,1-1.48.88,7,7,0,0,0-1.89.05,2.79,2.79,0,0,1-2.64-1.36c-.17,1.73-.3,3.48-.39,5.24l.16,0C31.18,138.61,31.48,138.56,31.76,138.46Z"/><path class="cls-63" d="M78.58,231.44c.36,0,.69-.05.75-.46s-.26-.58-.55-.75a.67.67,0,0,0-.35-.07,2.62,2.62,0,0,1-1.29-.38A4,4,0,0,1,75.08,228a3.36,3.36,0,0,0-1-1.28c-1.08-1-.89-1.32-.47-2.17a.67.67,0,0,0,.12-.34c-.08-.67.38-1,.78-1.44a1.14,1.14,0,0,0-.39-2,1.5,1.5,0,0,1-.64-2.17,1.78,1.78,0,0,0,.36-1.61.79.79,0,0,1,.26-.82,2.46,2.46,0,0,0,.62-1.37,3.23,3.23,0,0,1,.59-1.4A3.21,3.21,0,0,0,76,212a1.7,1.7,0,0,1,1.13-1.31c.22-.09.46-.14.68-.22,1.06-.39,2-.9,2-2.22a1.12,1.12,0,0,1,.11-.34,4.9,4.9,0,0,1,1.58-2.55,3.49,3.49,0,0,0,1.12-1.29c.36-.76.69-1.54,1-2.32a3.75,3.75,0,0,1,1.16-2c.71-.48.54-1.46,1.12-2,.13-.12.25-.26.39-.37a1.27,1.27,0,0,0,.48-1,5,5,0,0,0-.13-1.43c-.56-1.88-.24-2.65,1.45-3.68a4.3,4.3,0,0,1,.91-.39,2.88,2.88,0,0,0,.83-.35,3.82,3.82,0,0,1,2.18-.72c.71,0,1.54,0,1.84-.95,0-.09.17-.17.27-.23a.86.86,0,0,0,.44-.91,2,2,0,0,1,.42-1.34,2.89,2.89,0,0,0,.66-1.75,2.47,2.47,0,0,1,.41-1.79,1.22,1.22,0,0,0,.11-.71,3.25,3.25,0,0,1,.06-.89,3.16,3.16,0,0,0-.08-1.85,3.16,3.16,0,0,1,.4-3c1-1.23,1.58-2.76,2.74-3.88a.68.68,0,0,0,.17-.21,6.08,6.08,0,0,0,.72-5.26,1.72,1.72,0,0,0-1.5-1.35,3.15,3.15,0,0,1-2.06-1.19,4.63,4.63,0,0,0-.71-.69,2.94,2.94,0,0,0-2.54-.9,5.32,5.32,0,0,1-3.56-1,52.1,52.1,0,0,0-5.51-2.47,2.33,2.33,0,0,1-1.47-1.65,2,2,0,0,0-.28-.85,4.13,4.13,0,0,1-.89-2,1.92,1.92,0,0,0-.72-1.41,5.75,5.75,0,0,1-1.26-1.15,1,1,0,0,0-.5-.36,8.94,8.94,0,0,0-3-.59,3.12,3.12,0,0,1-3.08-1.78,2.86,2.86,0,0,0-1.64-1.45,1.46,1.46,0,0,1-.92-1c-.11-.34.13-.64.2-1s.21-.74-.24-.94a1.86,1.86,0,0,0-1.3-.26,5.4,5.4,0,0,1-1.6.15,1.59,1.59,0,0,0-1.09.33,1.4,1.4,0,0,1-1.69.13,3.36,3.36,0,0,0-1.45-.42,2.86,2.86,0,0,1-1.49-.61,12.15,12.15,0,0,0-2-1.1,5.56,5.56,0,0,0-1.75-.36.7.7,0,0,0-.65.22,3.92,3.92,0,0,1-2.21,1.08,2.48,2.48,0,0,0-2.18,1.86,2,2,0,0,1-2.21,1.24,3.65,3.65,0,0,0-1,0c-.15,0-.31.07-.33.25,0,.36-.23.79.25,1a.41.41,0,0,1,.25.43,1.52,1.52,0,0,0,.35.92,4.17,4.17,0,0,1,.56,2.86,5.26,5.26,0,0,1-.68,2.49,9.1,9.1,0,0,1-1.07,1.08c-.41.45-.61,1.07-1.1,1.42a4,4,0,0,0-1.42,2.63,2.66,2.66,0,0,0,.15,1.94,1.69,1.69,0,0,1-.3,2.28,1.26,1.26,0,0,0-.4,1,3.45,3.45,0,0,0,1.33,2.83A4.08,4.08,0,0,1,49,171a3.07,3.07,0,0,0,.75,1.41,10.24,10.24,0,0,1,1.82,2.68c.41.82.89,1.61,1.24,2.48A8.34,8.34,0,0,0,54.85,180c0,.06.16.07.25.1.63.27,1.28.52,1.91.81a10,10,0,0,1,3,2.37,2,2,0,0,1,.35.81,17,17,0,0,1,.46,4.38c.11,2.1.17,4.2.4,6.3a3.49,3.49,0,0,1,0,1.07,8.37,8.37,0,0,0,0,2.78c.11,1.12.58,2.14.76,3.24a8.6,8.6,0,0,1,0,3.39,25.24,25.24,0,0,0-.33,2.77,1.12,1.12,0,0,0,.08.62,11.94,11.94,0,0,1,1,3.62,5,5,0,0,0,1.06,2.43,7.29,7.29,0,0,1,1.61,4.23,2.72,2.72,0,0,0,.41,1.27,3.36,3.36,0,0,1,.5,1.43,5.23,5.23,0,0,0,.89,2.62,4.3,4.3,0,0,1,.23.48l0,0c1.71,1.48,3.46,2.92,5.27,4.3a1.81,1.81,0,0,1,1.51,1.13l1.22.86a2.72,2.72,0,0,1,.94.14A5.34,5.34,0,0,0,78.58,231.44Z"/><path class="cls-63" d="M124.05,70.49c1.38-.29,1.84-1,1.51-2.42-.2-.85,0-1.11.77-1.41a4.77,4.77,0,0,0,3.1-2.89,1.47,1.47,0,0,1,.31-.64,1.62,1.62,0,0,0,.48-1.4.89.89,0,0,1,.51-1,16.83,16.83,0,0,1,2.92-1.18,7.56,7.56,0,0,0,2.42-.65c.16-.1.32-.19.28-.41s-.2-.22-.34-.26a4.87,4.87,0,0,0-1.7-.11,8.91,8.91,0,0,1-3.22-.31,30.12,30.12,0,0,0-3.5-.82,15.87,15.87,0,0,0-5.83-.05,7.74,7.74,0,0,1-2.31.18,12.81,12.81,0,0,0-3.33.06,38,38,0,0,1-5.73.62,7.09,7.09,0,0,1-1.52.12c-1.94-.37-3.81.46-5.73.32a.73.73,0,0,0-.35.09,7.1,7.1,0,0,1-1.92.47c-1.11.12-2.12.66-3.25.71-.28,0-.65.05-.78.37s-.53.47-.86.58a14,14,0,0,1-3,.42,17.74,17.74,0,0,0-1.77.32.64.64,0,0,0-.53.72,1.94,1.94,0,0,0,1.21,1.64,3.23,3.23,0,0,0,1.86.19,10,10,0,0,1,3.85.19,2,2,0,0,1,1.75,2A2.37,2.37,0,0,1,99,67.43,1.41,1.41,0,0,0,99,69a10.78,10.78,0,0,0,.82,1.39c.49.57.33.88-.42,1A2.65,2.65,0,0,0,97,74.25c-.11.68.25,1.36.18,2.1a4.26,4.26,0,0,0,.39,2.19c.2.43.44.85.67,1.28.32.61.42.67,1.14.51a1.58,1.58,0,0,1,1.62.51c1,1.13,1.63.73,2.27,0a7.83,7.83,0,0,0,1.67-2,1.21,1.21,0,0,1,.46-.54,4.24,4.24,0,0,0,1.48-1.66,2.66,2.66,0,0,1,2.36-1.53,14.42,14.42,0,0,0,2-.24,8.36,8.36,0,0,0,3.83-1.7,2.61,2.61,0,0,1,1.51-.76,30.06,30.06,0,0,0,3.29-.53,7.74,7.74,0,0,0,2.32-.73A8.79,8.79,0,0,1,124.05,70.49Z"/><path class="cls-63" d="M198.33,177.2a6.83,6.83,0,0,0-.65-1.77c-.2-.42-.5-.45-.75-.08a14.24,14.24,0,0,0-1.23,2,4.29,4.29,0,0,1-3.16,2.8c-.4.07-.88.14-1.08.58a3.72,3.72,0,0,0-.68,2.1,9.64,9.64,0,0,0,.15,1.34,3.26,3.26,0,0,1-.74,2.86,2.53,2.53,0,0,0-.56,1.84,8.54,8.54,0,0,0,.36,2.48,2.17,2.17,0,0,0,2.12,1.63,9.2,9.2,0,0,0,1.6-.56.77.77,0,0,0,.4-.35,11.71,11.71,0,0,0,.8-1.81,43.55,43.55,0,0,1,1.45-4.16,16.94,16.94,0,0,0,1.17-3.5,4.61,4.61,0,0,1,.68-1.92,2.69,2.69,0,0,0,.34-2.32A11.64,11.64,0,0,1,198.33,177.2Z"/><path class="cls-63" d="M137.07,87.26a4.51,4.51,0,0,0,1.32.93,1.17,1.17,0,0,1,.67,1.08c0,.48-.48.44-.82.51a.83.83,0,0,0-.76.77c0,.2-.09.41-.11.61a14.08,14.08,0,0,1-.54,2c-.17.61.18.91.8.73a.74.74,0,0,0,.24-.11,5.33,5.33,0,0,1,3-.7,4.89,4.89,0,0,0,1.64-.46.55.55,0,0,0,.39-.45c0-.35.26-.53.46-.74.62-.63.57-1.06-.24-1.32a1.17,1.17,0,0,1-.89-1,1.53,1.53,0,0,0-.69-1.11.78.78,0,0,1-.29-.33,5.4,5.4,0,0,1-.9-2.86,1.73,1.73,0,0,0-1.9-1.72,1.45,1.45,0,0,0-1.53.78,2.16,2.16,0,0,0-.56,1.78A2.84,2.84,0,0,0,137.07,87.26Z"/><path class="cls-63" d="M129.21,73.9c-.44.06-.89,0-1.34.12a6.52,6.52,0,0,1-3.45,0,2.05,2.05,0,0,0-2.21.58c-.29.26-.31.51,0,.74a2.21,2.21,0,0,1,.74,1.1,1.08,1.08,0,0,0,1,.79,6.87,6.87,0,0,1,2.29.37s.12,0,.24,0a2,2,0,0,0,.37-.12,15.25,15.25,0,0,1,3.44-1.25,1.76,1.76,0,0,0,.86-.62.55.55,0,0,0,0-.81A2.19,2.19,0,0,0,129.21,73.9Z"/><path class="cls-63" d="M56.08,132.62c-.3-.2-.64-.33-.94-.53-.6-.4-1.37-.56-1.85-1.1a7,7,0,0,0-3-1.76,4.52,4.52,0,0,0-2.14-.49,5.27,5.27,0,0,0-1.8.32,2.73,2.73,0,0,0-1.46.84c-.22.21-.59.48-.41.83s.59,0,.88,0c.56-.08,1-.52,1.62-.49a19.29,19.29,0,0,1,3,.55.73.73,0,0,1,.3.19A7,7,0,0,0,52,132.17a.9.9,0,0,1,.44.64c.15.63.29.76.84.59a1.63,1.63,0,0,1,1.44.24,1.21,1.21,0,0,0,1.36-.07C56.56,133.24,56.57,133,56.08,132.62Z"/><path class="cls-63" d="M136.53,87.48a2.62,2.62,0,0,0-2.46.12,2.7,2.7,0,0,1-1.18.77c-.62.11-.7.2-.61.85a1.84,1.84,0,0,1-.33,1.45.75.75,0,0,0,0,1c.21.32.44.58.85.52a1.21,1.21,0,0,0,.77-.26,3.37,3.37,0,0,1,1.75-.65.59.59,0,0,0,.55-.4,2.45,2.45,0,0,0,.33-1,1,1,0,0,1,.43-.91A.87.87,0,0,0,136.53,87.48Z"/><path class="cls-63" d="M62.18,134.34c-.69-.5-1.59-.52-2.26-1.06-.13-.1-.4,0-.61,0s-.54,0-.64,0a2.92,2.92,0,0,0-.53,0c-.33.06-.75-.29-1,.09s.24.55.37.83.08.5-.3.55-.77.11-1.15.18a.35.35,0,0,0-.33.37.33.33,0,0,0,.29.3,11.42,11.42,0,0,0,3.47.38l2.53-.49c.28-.05.55-.1.61-.43S62.43,134.52,62.18,134.34Z"/><path class="cls-64" d="M244.05,143.84a106.39,106.39,0,0,0-.9-13.67h0A105.82,105.82,0,0,0,232,94.63l-.13-.26c-.64-1.22-1.31-2.42-2-3.62l-.35-.6c-.66-1.13-1.34-2.24-2-3.34l-.48-.74c-.69-1.07-1.39-2.13-2.12-3.18l-.51-.72c-.75-1-1.51-2.09-2.29-3.12l-.39-.49a107.34,107.34,0,0,0-18.57-18.69c14.89,18.43,51.3,101.43-.23,144.83-71,59.8-150.25,2.76-152.44,1.17a107.67,107.67,0,0,0,22.27,22.94h0a106.7,106.7,0,0,0,171.28-85Z"/><path class="cls-65" d="M159.51,39.43a106.82,106.82,0,0,0-101,32.49h0l-.72.82c-.76.85-1.51,1.72-2.24,2.59l-1,1.25c-.73.91-1.46,1.83-2.16,2.76-.23.3-.46.59-.68.89-.83,1.11-1.63,2.24-2.41,3.38l-.88,1.31c-.6.92-1.2,1.84-1.78,2.78l-.68,1.09c-.74,1.22-1.45,2.47-2.14,3.73l-.69,1.28c-.51,1-1,2-1.5,2.93-.21.43-.42.84-.62,1.27-.63,1.31-1.23,2.63-1.8,4-.16.39-.31.78-.47,1.16-.44,1.06-.86,2.13-1.27,3.21l-.51,1.37c-.5,1.39-1,2.8-1.42,4.21-.09.29-.17.58-.26.87-.36,1.2-.71,2.42-1,3.64-.13.48-.25,1-.37,1.44-.33,1.31-.64,2.62-.91,3.95,0,.21-.1.41-.14.62h0a106.18,106.18,0,0,0-2,16.06h0c-.08,1.77-.13,3.55-.13,5.34a106.48,106.48,0,0,0,5.5,33.9c12.31,17.82,46,28.82,90.55,22.35C200.39,189.38,225.8,79.61,159.51,39.43Z"/><path class="cls-66" d="M129,37.44a106.47,106.47,0,0,0-70.5,34.48h0l-.72.82c-.76.85-1.51,1.72-2.24,2.59l-1,1.25c-.73.91-1.46,1.83-2.16,2.76-.23.3-.46.59-.68.89-.83,1.11-1.63,2.24-2.41,3.38l-.88,1.31c-.6.92-1.2,1.84-1.78,2.78l-.68,1.09c-.74,1.22-1.45,2.47-2.14,3.73l-.69,1.28c-.51,1-1,2-1.5,2.93-.21.43-.42.84-.62,1.27-.63,1.31-1.23,2.63-1.8,4-.16.39-.31.78-.47,1.16-.44,1.06-.86,2.13-1.27,3.21l-.51,1.37c-.5,1.39-1,2.8-1.42,4.21-.09.29-.17.58-.26.87-.36,1.2-.71,2.42-1,3.64-.13.48-.25,1-.37,1.44-.33,1.31-.64,2.62-.91,3.95,0,.21-.1.41-.14.62h0a105.11,105.11,0,0,0-1.88,14.07l.24.77c9.22,13.35,34.44,21.59,67.81,16.74C152,146.31,171.63,70.06,129,37.44Z"/><polygon class="cls-67" points="216.82 49.98 224.53 59.34 224.76 52.19 224.78 51.28 216.82 49.98"/><polygon class="cls-68" points="218.25 50.88 218.1 51.01 224.79 59.13 224.78 52.16 219.12 51.05 218.25 50.88"/><rect class="cls-69" x="216.31" y="61.77" width="17" height="13.25" transform="translate(314.88 285.43) rotate(-129.46)"/><polygon class="cls-68" points="218.25 50.88 208.45 58.95 214.45 66.23 224.68 57.8 219.12 51.05 218.25 50.88"/><polygon class="cls-67" points="236.15 72.92 235.89 73.14 224.25 59 224.48 51.22 224.78 51.28 236.15 72.92"/><polygon class="cls-67" points="236.14 65.08 236.15 72.92 224.63 58.94 224.78 51.28 236.14 65.08"/><polygon class="cls-67" points="207.57 60.29 217.19 75.24 217.76 74.91 208.13 59.95 207.57 60.29"/><polygon class="cls-67" points="218.85 74 206.03 61.69 206.47 61.2 219.29 73.51 218.85 74"/><rect class="cls-67" x="217.68" y="72.45" width="1.29" height="3.73" transform="translate(299.7 290.1) rotate(-129.46)"/><rect class="cls-67" x="206.35" y="59.02" width="1.29" height="3.48" transform="translate(291.65 259.19) rotate(-129.46)"/><rect class="cls-70" x="202.47" y="68.86" width="27.79" height="1.08" rx="0.4" transform="translate(300.28 280.55) rotate(-129.46)"/><rect class="cls-70" x="221.79" y="78.1" width="1.29" height="3.22" transform="translate(302.26 302.11) rotate(-129.46)"/><rect class="cls-70" x="211.95" y="66.14" width="1.29" height="3.22" transform="matrix(-0.64, -0.77, 0.77, -0.64, 295.39, 274.95)"/><rect class="cls-67" x="212.12" y="55.88" width="5" height="8.2" transform="translate(304.69 263.8) rotate(-129.46)"/><rect class="cls-67" x="214.46" y="57.09" width="6.65" height="0.57" transform="translate(311.88 261.99) rotate(-129.46)"/><rect class="cls-71" x="220.09" y="66.98" width="7.51" height="4.42" transform="matrix(-0.64, -0.77, 0.77, -0.64, 312.69, 285.98)"/><rect class="cls-70" x="221.52" y="67.28" width="8.53" height="0.61" rx="0.31" transform="translate(317.1 284.87) rotate(-129.46)"/><rect class="cls-70" x="217.76" y="70.38" width="8.53" height="0.61" rx="0.31" transform="translate(308.54 287.03) rotate(-129.46)"/><rect class="cls-70" x="223.73" y="66.83" width="0.23" height="4.72" transform="translate(312.68 285.99) rotate(-129.46)"/><rect class="cls-70" x="223.73" y="65.32" width="0.23" height="7.74" transform="translate(440.64 -19.64) rotate(140.54)"/><rect class="cls-70" x="226.19" y="69.82" width="0.23" height="4.72" transform="translate(314.39 292.77) rotate(-129.46)"/><rect class="cls-70" x="221.27" y="63.84" width="0.23" height="4.72" transform="translate(310.96 279.2) rotate(-129.46)"/><polygon class="cls-67" points="224.47 51.54 216.82 49.98 217.08 49.77 224.78 51.28 224.47 51.54"/><rect class="cls-70" x="209.72" y="73.34" width="15.49" height="0.65" transform="translate(269.32 297.35) rotate(-121.77)"/><rect class="cls-70" x="209.72" y="73.34" width="15.49" height="0.65" transform="translate(108.13 -128.23) rotate(42.85)"/><rect class="cls-69" x="208.12" y="62.39" width="5.82" height="1.08" rx="0.32" transform="translate(296.57 265.86) rotate(-129.46)"/><rect class="cls-68" x="206.86" y="62.54" width="5.82" height="1.08" rx="0.32" transform="translate(294.39 265.13) rotate(-129.46)"/><rect class="cls-69" x="205.6" y="62.69" width="5.82" height="1.08" rx="0.32" transform="translate(292.21 264.41) rotate(-129.46)"/><rect class="cls-68" x="204.34" y="62.85" width="5.82" height="1.08" rx="0.32" transform="translate(290.03 263.68) rotate(-129.46)"/><rect class="cls-69" x="203.08" y="63" width="5.82" height="1.08" rx="0.32" transform="translate(287.85 262.96) rotate(-129.46)"/><rect class="cls-69" x="233.14" y="62.67" width="3.69" height="4.11" transform="translate(334.36 287.29) rotate(-129.46)"/><rect class="cls-67" x="234.4" y="62.47" width="5.24" height="1.15" transform="translate(338.97 286.12) rotate(-129.46)"/><polygon class="cls-7" points="230.88 59.5 231.21 66.12 224.92 58.48 224.93 52.27 230.88 59.5"/><polygon class="cls-72" points="227.64 56.05 227.6 58.37 225.37 55.66 225.38 53.3 227.64 56.05"/><polygon class="cls-72" points="230.38 62.26 230.51 64.64 228.17 61.79 228.02 59.39 230.38 62.26"/><polygon class="cls-72" points="230.31 59.3 230.44 61.81 227.96 58.8 228.05 56.55 230.31 59.3"/><polygon class="cls-72" points="227.57 58.85 227.7 61.37 225.31 58.47 225.31 56.11 227.57 58.85"/><path class="cls-7" d="M287.6,110.87l-2.4-17.38s5,.75,3.28,6c0,0,2.29-1.18,3,.74a2.1,2.1,0,0,1-.92,2.72s4-.13,4.09,2.45-3.44,3.22-3.44,3.22,2.63,2.37-.63,3.83c0,0,1.12,3.87-2.06,4.89Z"/><path class="cls-7" d="M230.57,259.49l16.13-13s2.22,5.46-4.13,6.95c0,0,2.55,1.57,1,3.43a2.49,2.49,0,0,1-3.3.73s2.53,3.94,0,5.58-5.3-1.48-5.3-1.48-.83,4.07-4.25,1.7c0,0-3.25,3.47-6.17.91Z"/><circle class="cls-30" cx="288.3" cy="187.26" r="8.24" transform="translate(-54.72 210.03) rotate(-36.8)"/><path class="cls-7" d="M274.58,201.38l6.7-19.57s4.87,3.44.25,8.09c0,0,3,0,2.75,2.36a2.47,2.47,0,0,1-2.41,2.37s4.29,2,3,4.76-5.32,1.56-5.32,1.56,1.5,3.89-2.7,3.7c0,0-.89,4.67-4.77,4.06Z"/><path class="cls-7" d="M280.53,183.31l4.5-17s4.32,2.63.7,6.83c0,0,2.56-.21,2.46,1.83a2.1,2.1,0,0,1-1.9,2.15s3.75,1.44,2.82,3.85-4.41,1.63-4.41,1.63,1.5,3.21-2.07,3.29c0,0-.47,4-3.79,3.72Z"/><path class="cls-7" d="M154.78,285.65l20.34-3.83s-.6,5.93-6.91,4.21c0,0,1.52,2.63-.7,3.56a2.49,2.49,0,0,1-3.26-.93s.38,4.72-2.66,5-4-3.87-4-3.87-2.64,3.23-4.55-.52c0,0-4.5,1.54-5.88-2.14Z"/><path d="M266.9,50.44c-.16,0-.2.21-.3.32a.17.17,0,0,0-.17,0,.68.68,0,0,0-.31.42c-.2-.07-.27.16-.39.27s-.09.2-.18.25a.17.17,0,0,0-.19,0,3.65,3.65,0,0,0-.32.45.21.21,0,0,0-.23,0c-.19.12-.21.44-.44.48a1.68,1.68,0,0,0-.33.46.21.21,0,0,0-.24.08,4.19,4.19,0,0,0-.34.58c-.1,0-.18.1-.25.16a1.78,1.78,0,0,0-.27.51.49.49,0,0,0-.34.34c-.23,0-.33.23-.48.36a.17.17,0,0,0-.17.05l-.06.09a5.07,5.07,0,0,0-2.21-.54c-.24-.15-.51-.07-.76-.18-.2.06-.38-.07-.58-.1-.72-.13-1.44-.24-2.16-.35-.06,0-.13.06-.11.12s-.07.1-.05.17a6.55,6.55,0,0,0,.66.63,5.77,5.77,0,0,0,2.33.79c.13,0,.28,0,.39.09-.15,0-.22.16-.37.2s0,0,0,0,.31-.12.41,0,0,.11-.06.13-.11-.08-.19-.06-.25.15-.4.17,0,0,0,0,.23-.07.36,0,.18.13.07.25-.16,0-.25,0-.14-.1-.2-.08.1.12.13.18-.12-.1-.2-.09c0,.17.22.25.37.29a.54.54,0,0,0,.5-.34h0a5.93,5.93,0,0,0,.65.4,3.86,3.86,0,0,0,1.62,1.28,13.48,13.48,0,0,1,2.07.67c.59.21,1.19.07,1.78.25A2.81,2.81,0,0,1,267,61c0,.06.06.16.09.22a2,2,0,0,0-.26-1.17,4.45,4.45,0,0,0-.89-1.13c-.18-.26-.21-.6-.4-.85a1.79,1.79,0,0,0-1.4-.64c-.09,0-.11-.1-.18-.13.13-.1.28-.18.42-.27a9.74,9.74,0,0,0,2.52-2.52,2.75,2.75,0,0,0,.5-1.59c0-.06-.05-.14-.13-.14s-.17.12-.25.18-.11-.18-.23-.16-.15.09-.22.14-.08-.17-.18-.15-.2.18-.31.26a.23.23,0,0,0-.19-.14c.35-.82.77-1.57,1.12-2.37C267,50.47,267,50.42,266.9,50.44Z"/><path d="M251.79,49.71c-.14,0-.17.18-.26.28a.14.14,0,0,0-.14,0,.62.62,0,0,0-.27.36c-.17-.06-.23.14-.33.23s-.08.18-.16.22a.14.14,0,0,0-.16,0,2.7,2.7,0,0,0-.27.39.16.16,0,0,0-.2,0c-.16.1-.18.38-.38.41a1.44,1.44,0,0,0-.28.4.18.18,0,0,0-.21.07,3.45,3.45,0,0,0-.29.5c-.09,0-.15.08-.22.13a1.81,1.81,0,0,0-.22.44.42.42,0,0,0-.3.29c-.2,0-.28.2-.41.31a.16.16,0,0,0-.15,0l0,.07a4.33,4.33,0,0,0-1.89-.45c-.2-.14-.43-.06-.65-.16-.17.05-.33-.06-.5-.08l-1.85-.3c-.06,0-.12,0-.1.1s-.06.08,0,.15a4.11,4.11,0,0,0,.57.53,4.91,4.91,0,0,0,2,.68c.11,0,.23,0,.33.08-.13,0-.19.13-.32.17v0c.11,0,.27-.1.36,0s0,.09-.06.11-.09-.07-.16,0-.21.12-.35.14,0,0,0,0,.2-.06.31,0,.15.12.06.22-.14,0-.21,0-.12-.08-.17-.07.08.11.11.16-.11-.09-.17-.08.19.22.31.25a.47.47,0,0,0,.43-.29h0a5.36,5.36,0,0,0,.57.34,3.29,3.29,0,0,0,1.39,1.1,11.75,11.75,0,0,1,1.77.57c.51.19,1,.06,1.53.22a2.44,2.44,0,0,1,1.09,1.43A.64.64,0,0,0,252,59a1.73,1.73,0,0,0-.23-1,3.85,3.85,0,0,0-.76-1c-.15-.21-.18-.5-.34-.72a1.57,1.57,0,0,0-1.21-.55c-.07,0-.09-.08-.15-.11.11-.09.24-.15.36-.23a8.41,8.41,0,0,0,2.16-2.17,2.36,2.36,0,0,0,.43-1.36c0-.05,0-.11-.11-.11s-.15.09-.22.15-.09-.16-.19-.14-.13.08-.2.12-.06-.14-.15-.13-.17.15-.27.22a.19.19,0,0,0-.16-.12c.3-.7.67-1.34,1-2C251.88,49.74,251.85,49.7,251.79,49.71Z"/><path class="cls-73" d="M260,236.3c-.07-.1-.19-.08-.29-.11a.17.17,0,0,0,0-.12.48.48,0,0,0-.37-.08c0-.15-.19-.13-.29-.18s-.16,0-.22-.05a.1.1,0,0,0,0-.12,2.46,2.46,0,0,0-.39-.09.15.15,0,0,0-.09-.14c-.13-.09-.35,0-.44-.16a1.35,1.35,0,0,0-.4-.08.15.15,0,0,0-.13-.13,2.52,2.52,0,0,0-.48-.06c0-.07-.11-.09-.17-.12a1.18,1.18,0,0,0-.42,0,.37.37,0,0,0-.33-.13c-.07-.15-.25-.15-.38-.21a.12.12,0,0,0-.08-.1l-.07,0a3.73,3.73,0,0,0-.29-1.61c0-.21-.1-.36-.1-.56s-.06-.27-.1-.41c-.13-.52-.26-1-.4-1.53a.07.07,0,0,0-.11,0c0,.08-.08,0-.12,0a3.56,3.56,0,0,0-.23.62,4.42,4.42,0,0,0,.15,1.78.66.66,0,0,1,0,.28c0-.1-.16-.1-.23-.19s0,0,0,0,.16.17.09.28a.14.14,0,0,1-.11,0s0-.1,0-.14-.17-.12-.23-.22,0,0,0,0,.12.13.09.24,0,.16-.15.12,0-.11-.09-.15,0-.12,0-.15-.05.1-.08.13,0-.11,0-.16a.33.33,0,0,0-.08.33.4.4,0,0,0,.36.24l0,0a4.58,4.58,0,0,0-.07.55,2.75,2.75,0,0,0-.38,1.44,10.06,10.06,0,0,1,.16,1.56c0,.46.29.81.34,1.26a2,2,0,0,1-.73,1.32l-.12.13a1.5,1.5,0,0,0,.7-.51,3.4,3.4,0,0,0,.49-.92c.12-.19.33-.31.44-.51a1.29,1.29,0,0,0,0-1.12c0-.06,0-.1,0-.15a1.87,1.87,0,0,1,.29.2,7.47,7.47,0,0,0,2.41.94,2,2,0,0,0,1.2-.13s.07-.08.05-.13-.12-.08-.19-.11.09-.13,0-.2-.1-.07-.16-.11.09-.1.05-.16-.17-.08-.26-.13.07-.11,0-.17c.64,0,1.26.06,1.89.06C260,236.38,260,236.34,260,236.3Z"/><path class="cls-73" d="M256.09,226.07c-.06-.08-.17-.06-.25-.09a.14.14,0,0,0,0-.1.46.46,0,0,0-.31-.07c0-.13-.16-.11-.25-.15s-.14,0-.19,0a.1.1,0,0,0,0-.11l-.34-.07c0-.06,0-.1-.07-.13s-.3,0-.38-.13a1,1,0,0,0-.35-.07.14.14,0,0,0-.1-.12,2.85,2.85,0,0,0-.42,0c0-.06-.09-.08-.15-.11a1.06,1.06,0,0,0-.36,0,.26.26,0,0,0-.27-.11c-.07-.13-.22-.13-.33-.19a.11.11,0,0,0-.07-.08h-.06a3.19,3.19,0,0,0-.25-1.39c0-.17-.09-.31-.08-.48s-.06-.23-.09-.35c-.11-.44-.22-.88-.34-1.32,0,0-.06-.06-.1,0s-.07,0-.11,0a3,3,0,0,0-.19.53,3.69,3.69,0,0,0,.13,1.52.69.69,0,0,1,0,.24c0-.08-.15-.09-.21-.16h0c0,.07.14.15.07.25s-.06,0-.09,0,0-.08,0-.12-.14-.1-.19-.19,0,0,0,0,.1.11.08.21,0,.14-.13.11,0-.11-.08-.14,0-.1,0-.13-.05.09-.08.12,0-.1,0-.14-.09.19-.08.28a.35.35,0,0,0,.32.21h0a3.81,3.81,0,0,0-.07.47,2.32,2.32,0,0,0-.32,1.24,10,10,0,0,1,.13,1.34c0,.39.26.7.3,1.08a1.75,1.75,0,0,1-.63,1.14.94.94,0,0,0-.1.1,1.18,1.18,0,0,0,.59-.43,2.9,2.9,0,0,0,.43-.79c.1-.17.28-.27.38-.44a1.15,1.15,0,0,0,0-1c0-.05,0-.08,0-.13l.25.17a6.12,6.12,0,0,0,2.06.81,1.71,1.71,0,0,0,1-.12.08.08,0,0,0,0-.1c0-.07-.1-.07-.16-.1s.08-.11,0-.17-.09-.06-.14-.1.08-.08,0-.13-.15-.07-.22-.12a.14.14,0,0,0,0-.14c.55,0,1.08,0,1.63,0C256.1,226.14,256.12,226.11,256.09,226.07Z"/><path class="cls-7" d="M79.57,275.5l20.15,4.73s-3,5.18-8,1c0,0,.33,3-2.08,3a2.48,2.48,0,0,1-2.6-2.17s-1.57,4.47-4.44,3.45-2.07-5.14-2.07-5.14-3.73,1.88-4-2.32c0,0-4.74-.42-4.51-4.34Z"/><path class="cls-7" d="M8.56,194.88l5.65,16.61s-6.26.62-5-5.09c0,0-2.62,1.79-3.78.08s.71-2.95.71-2.95S1.26,204.74.78,202.2s3.72-4.13,3.72-4.13-3.59-1.64.18-4a3.82,3.82,0,0,1,1.77-5.42Z"/><path d="M1.93,162c0-.17-.13-.37,0-.55a.62.62,0,0,0,.13-.27l.49-1.55.23-.8a5.64,5.64,0,0,1-2.77-3v0l.33.13a5,5,0,0,0,3.43.14.79.79,0,0,0,.47-.58h.06a3.77,3.77,0,0,1-.64,3.5c-.17.2-.45.29-.54.54l-.53,1.08a8.65,8.65,0,0,0-.41.87,1,1,0,0,1-.18.71C1.88,162.14,2,162,1.93,162Z"/><path d="M6,158.66c0-.16-.12-.34,0-.49l.06-.12.52-1.89.07-.23a4.77,4.77,0,0,1-2.44-2.52,4.35,4.35,0,0,0,3.21.13.71.71,0,0,0,.4-.51h0a3.12,3.12,0,0,1-.58,3.12c-.13.12-.31.21-.35.39l-.54,1.17-.19.42c0,.14,0,.29,0,.43a.59.59,0,0,1-.11.24C6,158.81,6,158.71,6,158.66Z"/><path d="M2.34,154.24c0-.19-.21-.37-.07-.57l.07-.1c.1-.55.23-1.07.37-1.6l.41-1.28.37-1L4,148.36c0-.05,0-.1.1-.05.16,1.42,1.56,2.36,2.81,2.71a3.85,3.85,0,0,1-2.42.62c-.22,0-.48,0-.69-.07a.51.51,0,0,0-.23.15,3.67,3.67,0,0,0-.56.63c-.18.42-.36.83-.51,1.26a1.11,1.11,0,0,1-.15.78C2.29,154.39,2.36,154.29,2.34,154.24Z"/></g></g></g></g></svg>